<?xml version="1.0" encoding="utf-8" standalone="no"?>
<!DOCTYPE svg PUBLIC "-//W3C//DTD SVG 1.1//EN"
  "http://www.w3.org/Graphics/SVG/1.1/DTD/svg11.dtd">
<!-- Created with matplotlib (https://matplotlib.org/) -->
<svg height="354.798381pt" version="1.1" viewBox="0 0 512.803125 354.798381" width="512.803125pt" xmlns="http://www.w3.org/2000/svg" xmlns:xlink="http://www.w3.org/1999/xlink">
 <defs>
  <style type="text/css">
*{stroke-linecap:butt;stroke-linejoin:round;}
  </style>
 </defs>
 <g id="figure_1">
  <g id="patch_1">
   <path d="M 0 354.798381 
L 512.803125 354.798381 
L 512.803125 0 
L 0 0 
z
" style="fill:#ffffff;"/>
  </g>
  <g id="axes_1">
   <g id="patch_2">
    <path d="M 40.603125 317.242131 
L 505.603125 317.242131 
L 505.603125 9.434631 
L 40.603125 9.434631 
z
" style="fill:#ffffff;"/>
   </g>
   <g id="matplotlib.axis_1">
    <g id="xtick_1">
     <g id="line2d_1">
      <defs>
       <path d="M 0 0 
L 0 3.5 
" id="md1c4eeb823" style="stroke:#000000;stroke-width:0.8;"/>
      </defs>
      <g>
       <use style="stroke:#000000;stroke-width:0.8;" x="61.739489" xlink:href="#md1c4eeb823" y="317.242131"/>
      </g>
     </g>
     <g id="text_1">
      <!-- 0 -->
      <defs>
       <path d="M 31.78125 66.40625 
Q 24.171875 66.40625 20.328125 58.90625 
Q 16.5 51.421875 16.5 36.375 
Q 16.5 21.390625 20.328125 13.890625 
Q 24.171875 6.390625 31.78125 6.390625 
Q 39.453125 6.390625 43.28125 13.890625 
Q 47.125 21.390625 47.125 36.375 
Q 47.125 51.421875 43.28125 58.90625 
Q 39.453125 66.40625 31.78125 66.40625 
z
M 31.78125 74.21875 
Q 44.046875 74.21875 50.515625 64.515625 
Q 56.984375 54.828125 56.984375 36.375 
Q 56.984375 17.96875 50.515625 8.265625 
Q 44.046875 -1.421875 31.78125 -1.421875 
Q 19.53125 -1.421875 13.0625 8.265625 
Q 6.59375 17.96875 6.59375 36.375 
Q 6.59375 54.828125 13.0625 64.515625 
Q 19.53125 74.21875 31.78125 74.21875 
z
" id="DejaVuSans-48"/>
      </defs>
      <g transform="translate(58.558239 331.840569)scale(0.1 -0.1)">
       <use xlink:href="#DejaVuSans-48"/>
      </g>
     </g>
    </g>
    <g id="xtick_2">
     <g id="line2d_2">
      <g>
       <use style="stroke:#000000;stroke-width:0.8;" x="133.388179" xlink:href="#md1c4eeb823" y="317.242131"/>
      </g>
     </g>
     <g id="text_2">
      <!-- 10 -->
      <defs>
       <path d="M 12.40625 8.296875 
L 28.515625 8.296875 
L 28.515625 63.921875 
L 10.984375 60.40625 
L 10.984375 69.390625 
L 28.421875 72.90625 
L 38.28125 72.90625 
L 38.28125 8.296875 
L 54.390625 8.296875 
L 54.390625 0 
L 12.40625 0 
z
" id="DejaVuSans-49"/>
      </defs>
      <g transform="translate(127.025679 331.840569)scale(0.1 -0.1)">
       <use xlink:href="#DejaVuSans-49"/>
       <use x="63.623047" xlink:href="#DejaVuSans-48"/>
      </g>
     </g>
    </g>
    <g id="xtick_3">
     <g id="line2d_3">
      <g>
       <use style="stroke:#000000;stroke-width:0.8;" x="205.036869" xlink:href="#md1c4eeb823" y="317.242131"/>
      </g>
     </g>
     <g id="text_3">
      <!-- 20 -->
      <defs>
       <path d="M 19.1875 8.296875 
L 53.609375 8.296875 
L 53.609375 0 
L 7.328125 0 
L 7.328125 8.296875 
Q 12.9375 14.109375 22.625 23.890625 
Q 32.328125 33.6875 34.8125 36.53125 
Q 39.546875 41.84375 41.421875 45.53125 
Q 43.3125 49.21875 43.3125 52.78125 
Q 43.3125 58.59375 39.234375 62.25 
Q 35.15625 65.921875 28.609375 65.921875 
Q 23.96875 65.921875 18.8125 64.3125 
Q 13.671875 62.703125 7.8125 59.421875 
L 7.8125 69.390625 
Q 13.765625 71.78125 18.9375 73 
Q 24.125 74.21875 28.421875 74.21875 
Q 39.75 74.21875 46.484375 68.546875 
Q 53.21875 62.890625 53.21875 53.421875 
Q 53.21875 48.921875 51.53125 44.890625 
Q 49.859375 40.875 45.40625 35.40625 
Q 44.1875 33.984375 37.640625 27.21875 
Q 31.109375 20.453125 19.1875 8.296875 
z
" id="DejaVuSans-50"/>
      </defs>
      <g transform="translate(198.674369 331.840569)scale(0.1 -0.1)">
       <use xlink:href="#DejaVuSans-50"/>
       <use x="63.623047" xlink:href="#DejaVuSans-48"/>
      </g>
     </g>
    </g>
    <g id="xtick_4">
     <g id="line2d_4">
      <g>
       <use style="stroke:#000000;stroke-width:0.8;" x="276.68556" xlink:href="#md1c4eeb823" y="317.242131"/>
      </g>
     </g>
     <g id="text_4">
      <!-- 30 -->
      <defs>
       <path d="M 40.578125 39.3125 
Q 47.65625 37.796875 51.625 33 
Q 55.609375 28.21875 55.609375 21.1875 
Q 55.609375 10.40625 48.1875 4.484375 
Q 40.765625 -1.421875 27.09375 -1.421875 
Q 22.515625 -1.421875 17.65625 -0.515625 
Q 12.796875 0.390625 7.625 2.203125 
L 7.625 11.71875 
Q 11.71875 9.328125 16.59375 8.109375 
Q 21.484375 6.890625 26.8125 6.890625 
Q 36.078125 6.890625 40.9375 10.546875 
Q 45.796875 14.203125 45.796875 21.1875 
Q 45.796875 27.640625 41.28125 31.265625 
Q 36.765625 34.90625 28.71875 34.90625 
L 20.21875 34.90625 
L 20.21875 43.015625 
L 29.109375 43.015625 
Q 36.375 43.015625 40.234375 45.921875 
Q 44.09375 48.828125 44.09375 54.296875 
Q 44.09375 59.90625 40.109375 62.90625 
Q 36.140625 65.921875 28.71875 65.921875 
Q 24.65625 65.921875 20.015625 65.03125 
Q 15.375 64.15625 9.8125 62.3125 
L 9.8125 71.09375 
Q 15.4375 72.65625 20.34375 73.4375 
Q 25.25 74.21875 29.59375 74.21875 
Q 40.828125 74.21875 47.359375 69.109375 
Q 53.90625 64.015625 53.90625 55.328125 
Q 53.90625 49.265625 50.4375 45.09375 
Q 46.96875 40.921875 40.578125 39.3125 
z
" id="DejaVuSans-51"/>
      </defs>
      <g transform="translate(270.32306 331.840569)scale(0.1 -0.1)">
       <use xlink:href="#DejaVuSans-51"/>
       <use x="63.623047" xlink:href="#DejaVuSans-48"/>
      </g>
     </g>
    </g>
    <g id="xtick_5">
     <g id="line2d_5">
      <g>
       <use style="stroke:#000000;stroke-width:0.8;" x="348.33425" xlink:href="#md1c4eeb823" y="317.242131"/>
      </g>
     </g>
     <g id="text_5">
      <!-- 40 -->
      <defs>
       <path d="M 37.796875 64.3125 
L 12.890625 25.390625 
L 37.796875 25.390625 
z
M 35.203125 72.90625 
L 47.609375 72.90625 
L 47.609375 25.390625 
L 58.015625 25.390625 
L 58.015625 17.1875 
L 47.609375 17.1875 
L 47.609375 0 
L 37.796875 0 
L 37.796875 17.1875 
L 4.890625 17.1875 
L 4.890625 26.703125 
z
" id="DejaVuSans-52"/>
      </defs>
      <g transform="translate(341.97175 331.840569)scale(0.1 -0.1)">
       <use xlink:href="#DejaVuSans-52"/>
       <use x="63.623047" xlink:href="#DejaVuSans-48"/>
      </g>
     </g>
    </g>
    <g id="xtick_6">
     <g id="line2d_6">
      <g>
       <use style="stroke:#000000;stroke-width:0.8;" x="419.98294" xlink:href="#md1c4eeb823" y="317.242131"/>
      </g>
     </g>
     <g id="text_6">
      <!-- 50 -->
      <defs>
       <path d="M 10.796875 72.90625 
L 49.515625 72.90625 
L 49.515625 64.59375 
L 19.828125 64.59375 
L 19.828125 46.734375 
Q 21.96875 47.46875 24.109375 47.828125 
Q 26.265625 48.1875 28.421875 48.1875 
Q 40.625 48.1875 47.75 41.5 
Q 54.890625 34.8125 54.890625 23.390625 
Q 54.890625 11.625 47.5625 5.09375 
Q 40.234375 -1.421875 26.90625 -1.421875 
Q 22.3125 -1.421875 17.546875 -0.640625 
Q 12.796875 0.140625 7.71875 1.703125 
L 7.71875 11.625 
Q 12.109375 9.234375 16.796875 8.0625 
Q 21.484375 6.890625 26.703125 6.890625 
Q 35.15625 6.890625 40.078125 11.328125 
Q 45.015625 15.765625 45.015625 23.390625 
Q 45.015625 31 40.078125 35.4375 
Q 35.15625 39.890625 26.703125 39.890625 
Q 22.75 39.890625 18.8125 39.015625 
Q 14.890625 38.140625 10.796875 36.28125 
z
" id="DejaVuSans-53"/>
      </defs>
      <g transform="translate(413.62044 331.840569)scale(0.1 -0.1)">
       <use xlink:href="#DejaVuSans-53"/>
       <use x="63.623047" xlink:href="#DejaVuSans-48"/>
      </g>
     </g>
    </g>
    <g id="xtick_7">
     <g id="line2d_7">
      <g>
       <use style="stroke:#000000;stroke-width:0.8;" x="491.63163" xlink:href="#md1c4eeb823" y="317.242131"/>
      </g>
     </g>
     <g id="text_7">
      <!-- 60 -->
      <defs>
       <path d="M 33.015625 40.375 
Q 26.375 40.375 22.484375 35.828125 
Q 18.609375 31.296875 18.609375 23.390625 
Q 18.609375 15.53125 22.484375 10.953125 
Q 26.375 6.390625 33.015625 6.390625 
Q 39.65625 6.390625 43.53125 10.953125 
Q 47.40625 15.53125 47.40625 23.390625 
Q 47.40625 31.296875 43.53125 35.828125 
Q 39.65625 40.375 33.015625 40.375 
z
M 52.59375 71.296875 
L 52.59375 62.3125 
Q 48.875 64.0625 45.09375 64.984375 
Q 41.3125 65.921875 37.59375 65.921875 
Q 27.828125 65.921875 22.671875 59.328125 
Q 17.53125 52.734375 16.796875 39.40625 
Q 19.671875 43.65625 24.015625 45.921875 
Q 28.375 48.1875 33.59375 48.1875 
Q 44.578125 48.1875 50.953125 41.515625 
Q 57.328125 34.859375 57.328125 23.390625 
Q 57.328125 12.15625 50.6875 5.359375 
Q 44.046875 -1.421875 33.015625 -1.421875 
Q 20.359375 -1.421875 13.671875 8.265625 
Q 6.984375 17.96875 6.984375 36.375 
Q 6.984375 53.65625 15.1875 63.9375 
Q 23.390625 74.21875 37.203125 74.21875 
Q 40.921875 74.21875 44.703125 73.484375 
Q 48.484375 72.75 52.59375 71.296875 
z
" id="DejaVuSans-54"/>
      </defs>
      <g transform="translate(485.26913 331.840569)scale(0.1 -0.1)">
       <use xlink:href="#DejaVuSans-54"/>
       <use x="63.623047" xlink:href="#DejaVuSans-48"/>
      </g>
     </g>
    </g>
    <g id="text_8">
     <!-- tof [μs] -->
     <defs>
      <path d="M 18.3125 70.21875 
L 18.3125 54.6875 
L 36.8125 54.6875 
L 36.8125 47.703125 
L 18.3125 47.703125 
L 18.3125 18.015625 
Q 18.3125 11.328125 20.140625 9.421875 
Q 21.96875 7.515625 27.59375 7.515625 
L 36.8125 7.515625 
L 36.8125 0 
L 27.59375 0 
Q 17.1875 0 13.234375 3.875 
Q 9.28125 7.765625 9.28125 18.015625 
L 9.28125 47.703125 
L 2.6875 47.703125 
L 2.6875 54.6875 
L 9.28125 54.6875 
L 9.28125 70.21875 
z
" id="DejaVuSans-116"/>
      <path d="M 30.609375 48.390625 
Q 23.390625 48.390625 19.1875 42.75 
Q 14.984375 37.109375 14.984375 27.296875 
Q 14.984375 17.484375 19.15625 11.84375 
Q 23.34375 6.203125 30.609375 6.203125 
Q 37.796875 6.203125 41.984375 11.859375 
Q 46.1875 17.53125 46.1875 27.296875 
Q 46.1875 37.015625 41.984375 42.703125 
Q 37.796875 48.390625 30.609375 48.390625 
z
M 30.609375 56 
Q 42.328125 56 49.015625 48.375 
Q 55.71875 40.765625 55.71875 27.296875 
Q 55.71875 13.875 49.015625 6.21875 
Q 42.328125 -1.421875 30.609375 -1.421875 
Q 18.84375 -1.421875 12.171875 6.21875 
Q 5.515625 13.875 5.515625 27.296875 
Q 5.515625 40.765625 12.171875 48.375 
Q 18.84375 56 30.609375 56 
z
" id="DejaVuSans-111"/>
      <path d="M 37.109375 75.984375 
L 37.109375 68.5 
L 28.515625 68.5 
Q 23.6875 68.5 21.796875 66.546875 
Q 19.921875 64.59375 19.921875 59.515625 
L 19.921875 54.6875 
L 34.71875 54.6875 
L 34.71875 47.703125 
L 19.921875 47.703125 
L 19.921875 0 
L 10.890625 0 
L 10.890625 47.703125 
L 2.296875 47.703125 
L 2.296875 54.6875 
L 10.890625 54.6875 
L 10.890625 58.5 
Q 10.890625 67.625 15.140625 71.796875 
Q 19.390625 75.984375 28.609375 75.984375 
z
" id="DejaVuSans-102"/>
      <path id="DejaVuSans-32"/>
      <path d="M 8.59375 75.984375 
L 29.296875 75.984375 
L 29.296875 69 
L 17.578125 69 
L 17.578125 -6.203125 
L 29.296875 -6.203125 
L 29.296875 -13.1875 
L 8.59375 -13.1875 
z
" id="DejaVuSans-91"/>
      <path d="M 8.5 -20.796875 
L 8.5 54.6875 
L 17.484375 54.6875 
L 17.484375 20.703125 
Q 17.484375 13.625 20.84375 10 
Q 24.21875 6.390625 30.8125 6.390625 
Q 38.03125 6.390625 41.671875 10.484375 
Q 45.3125 14.59375 45.3125 22.796875 
L 45.3125 54.6875 
L 54.296875 54.6875 
L 54.296875 12.59375 
Q 54.296875 9.671875 55.140625 8.28125 
Q 56 6.890625 57.8125 6.890625 
Q 58.25 6.890625 59.03125 7.15625 
Q 59.8125 7.421875 61.1875 8.015625 
L 61.1875 0.78125 
Q 59.1875 -0.34375 57.390625 -0.875 
Q 55.609375 -1.421875 53.90625 -1.421875 
Q 50.53125 -1.421875 48.53125 0.484375 
Q 46.53125 2.390625 45.796875 6.296875 
Q 43.359375 2.4375 39.8125 0.5 
Q 36.28125 -1.421875 31.5 -1.421875 
Q 26.515625 -1.421875 23.015625 0.484375 
Q 19.53125 2.390625 17.484375 6.203125 
L 17.484375 -20.796875 
z
" id="DejaVuSans-956"/>
      <path d="M 44.28125 53.078125 
L 44.28125 44.578125 
Q 40.484375 46.53125 36.375 47.5 
Q 32.28125 48.484375 27.875 48.484375 
Q 21.1875 48.484375 17.84375 46.4375 
Q 14.5 44.390625 14.5 40.28125 
Q 14.5 37.15625 16.890625 35.375 
Q 19.28125 33.59375 26.515625 31.984375 
L 29.59375 31.296875 
Q 39.15625 29.25 43.1875 25.515625 
Q 47.21875 21.78125 47.21875 15.09375 
Q 47.21875 7.46875 41.1875 3.015625 
Q 35.15625 -1.421875 24.609375 -1.421875 
Q 20.21875 -1.421875 15.453125 -0.5625 
Q 10.6875 0.296875 5.421875 2 
L 5.421875 11.28125 
Q 10.40625 8.6875 15.234375 7.390625 
Q 20.0625 6.109375 24.8125 6.109375 
Q 31.15625 6.109375 34.5625 8.28125 
Q 37.984375 10.453125 37.984375 14.40625 
Q 37.984375 18.0625 35.515625 20.015625 
Q 33.0625 21.96875 24.703125 23.78125 
L 21.578125 24.515625 
Q 13.234375 26.265625 9.515625 29.90625 
Q 5.8125 33.546875 5.8125 39.890625 
Q 5.8125 47.609375 11.28125 51.796875 
Q 16.75 56 26.8125 56 
Q 31.78125 56 36.171875 55.265625 
Q 40.578125 54.546875 44.28125 53.078125 
z
" id="DejaVuSans-115"/>
      <path d="M 30.421875 75.984375 
L 30.421875 -13.1875 
L 9.71875 -13.1875 
L 9.71875 -6.203125 
L 21.390625 -6.203125 
L 21.390625 69 
L 9.71875 69 
L 9.71875 75.984375 
z
" id="DejaVuSans-93"/>
     </defs>
     <g transform="translate(255.046875 345.518694)scale(0.1 -0.1)">
      <use xlink:href="#DejaVuSans-116"/>
      <use x="39.208984" xlink:href="#DejaVuSans-111"/>
      <use x="100.390625" xlink:href="#DejaVuSans-102"/>
      <use x="135.595703" xlink:href="#DejaVuSans-32"/>
      <use x="167.382812" xlink:href="#DejaVuSans-91"/>
      <use x="206.396484" xlink:href="#DejaVuSans-956"/>
      <use x="270.019531" xlink:href="#DejaVuSans-115"/>
      <use x="322.119141" xlink:href="#DejaVuSans-93"/>
     </g>
    </g>
   </g>
   <g id="matplotlib.axis_2">
    <g id="ytick_1">
     <g id="line2d_8">
      <defs>
       <path d="M 0 0 
L -3.5 0 
" id="m040eff6d2d" style="stroke:#000000;stroke-width:0.8;"/>
      </defs>
      <g>
       <use style="stroke:#000000;stroke-width:0.8;" x="40.603125" xlink:href="#m040eff6d2d" y="280.206258"/>
      </g>
     </g>
     <g id="text_9">
      <!-- 0 -->
      <g transform="translate(27.240625 284.005477)scale(0.1 -0.1)">
       <use xlink:href="#DejaVuSans-48"/>
      </g>
     </g>
    </g>
    <g id="ytick_2">
     <g id="line2d_9">
      <g>
       <use style="stroke:#000000;stroke-width:0.8;" x="40.603125" xlink:href="#m040eff6d2d" y="235.338418"/>
      </g>
     </g>
     <g id="text_10">
      <!-- 2 -->
      <g transform="translate(27.240625 239.137637)scale(0.1 -0.1)">
       <use xlink:href="#DejaVuSans-50"/>
      </g>
     </g>
    </g>
    <g id="ytick_3">
     <g id="line2d_10">
      <g>
       <use style="stroke:#000000;stroke-width:0.8;" x="40.603125" xlink:href="#m040eff6d2d" y="190.470579"/>
      </g>
     </g>
     <g id="text_11">
      <!-- 4 -->
      <g transform="translate(27.240625 194.269797)scale(0.1 -0.1)">
       <use xlink:href="#DejaVuSans-52"/>
      </g>
     </g>
    </g>
    <g id="ytick_4">
     <g id="line2d_11">
      <g>
       <use style="stroke:#000000;stroke-width:0.8;" x="40.603125" xlink:href="#m040eff6d2d" y="145.602739"/>
      </g>
     </g>
     <g id="text_12">
      <!-- 6 -->
      <g transform="translate(27.240625 149.401957)scale(0.1 -0.1)">
       <use xlink:href="#DejaVuSans-54"/>
      </g>
     </g>
    </g>
    <g id="ytick_5">
     <g id="line2d_12">
      <g>
       <use style="stroke:#000000;stroke-width:0.8;" x="40.603125" xlink:href="#m040eff6d2d" y="100.734899"/>
      </g>
     </g>
     <g id="text_13">
      <!-- 8 -->
      <defs>
       <path d="M 31.78125 34.625 
Q 24.75 34.625 20.71875 30.859375 
Q 16.703125 27.09375 16.703125 20.515625 
Q 16.703125 13.921875 20.71875 10.15625 
Q 24.75 6.390625 31.78125 6.390625 
Q 38.8125 6.390625 42.859375 10.171875 
Q 46.921875 13.96875 46.921875 20.515625 
Q 46.921875 27.09375 42.890625 30.859375 
Q 38.875 34.625 31.78125 34.625 
z
M 21.921875 38.8125 
Q 15.578125 40.375 12.03125 44.71875 
Q 8.5 49.078125 8.5 55.328125 
Q 8.5 64.0625 14.71875 69.140625 
Q 20.953125 74.21875 31.78125 74.21875 
Q 42.671875 74.21875 48.875 69.140625 
Q 55.078125 64.0625 55.078125 55.328125 
Q 55.078125 49.078125 51.53125 44.71875 
Q 48 40.375 41.703125 38.8125 
Q 48.828125 37.15625 52.796875 32.3125 
Q 56.78125 27.484375 56.78125 20.515625 
Q 56.78125 9.90625 50.3125 4.234375 
Q 43.84375 -1.421875 31.78125 -1.421875 
Q 19.734375 -1.421875 13.25 4.234375 
Q 6.78125 9.90625 6.78125 20.515625 
Q 6.78125 27.484375 10.78125 32.3125 
Q 14.796875 37.15625 21.921875 38.8125 
z
M 18.3125 54.390625 
Q 18.3125 48.734375 21.84375 45.5625 
Q 25.390625 42.390625 31.78125 42.390625 
Q 38.140625 42.390625 41.71875 45.5625 
Q 45.3125 48.734375 45.3125 54.390625 
Q 45.3125 60.0625 41.71875 63.234375 
Q 38.140625 66.40625 31.78125 66.40625 
Q 25.390625 66.40625 21.84375 63.234375 
Q 18.3125 60.0625 18.3125 54.390625 
z
" id="DejaVuSans-56"/>
      </defs>
      <g transform="translate(27.240625 104.534117)scale(0.1 -0.1)">
       <use xlink:href="#DejaVuSans-56"/>
      </g>
     </g>
    </g>
    <g id="ytick_6">
     <g id="line2d_13">
      <g>
       <use style="stroke:#000000;stroke-width:0.8;" x="40.603125" xlink:href="#m040eff6d2d" y="55.867059"/>
      </g>
     </g>
     <g id="text_14">
      <!-- 10 -->
      <g transform="translate(20.878125 59.666277)scale(0.1 -0.1)">
       <use xlink:href="#DejaVuSans-49"/>
       <use x="63.623047" xlink:href="#DejaVuSans-48"/>
      </g>
     </g>
    </g>
    <g id="ytick_7">
     <g id="line2d_14">
      <g>
       <use style="stroke:#000000;stroke-width:0.8;" x="40.603125" xlink:href="#m040eff6d2d" y="10.999219"/>
      </g>
     </g>
     <g id="text_15">
      <!-- 12 -->
      <g transform="translate(20.878125 14.798437)scale(0.1 -0.1)">
       <use xlink:href="#DejaVuSans-49"/>
       <use x="63.623047" xlink:href="#DejaVuSans-50"/>
      </g>
     </g>
    </g>
    <g id="text_16">
     <!--  [counts] -->
     <defs>
      <path d="M 48.78125 52.59375 
L 48.78125 44.1875 
Q 44.96875 46.296875 41.140625 47.34375 
Q 37.3125 48.390625 33.40625 48.390625 
Q 24.65625 48.390625 19.8125 42.84375 
Q 14.984375 37.3125 14.984375 27.296875 
Q 14.984375 17.28125 19.8125 11.734375 
Q 24.65625 6.203125 33.40625 6.203125 
Q 37.3125 6.203125 41.140625 7.25 
Q 44.96875 8.296875 48.78125 10.40625 
L 48.78125 2.09375 
Q 45.015625 0.34375 40.984375 -0.53125 
Q 36.96875 -1.421875 32.421875 -1.421875 
Q 20.0625 -1.421875 12.78125 6.34375 
Q 5.515625 14.109375 5.515625 27.296875 
Q 5.515625 40.671875 12.859375 48.328125 
Q 20.21875 56 33.015625 56 
Q 37.15625 56 41.109375 55.140625 
Q 45.0625 54.296875 48.78125 52.59375 
z
" id="DejaVuSans-99"/>
      <path d="M 8.5 21.578125 
L 8.5 54.6875 
L 17.484375 54.6875 
L 17.484375 21.921875 
Q 17.484375 14.15625 20.5 10.265625 
Q 23.53125 6.390625 29.59375 6.390625 
Q 36.859375 6.390625 41.078125 11.03125 
Q 45.3125 15.671875 45.3125 23.6875 
L 45.3125 54.6875 
L 54.296875 54.6875 
L 54.296875 0 
L 45.3125 0 
L 45.3125 8.40625 
Q 42.046875 3.421875 37.71875 1 
Q 33.40625 -1.421875 27.6875 -1.421875 
Q 18.265625 -1.421875 13.375 4.4375 
Q 8.5 10.296875 8.5 21.578125 
z
M 31.109375 56 
z
" id="DejaVuSans-117"/>
      <path d="M 54.890625 33.015625 
L 54.890625 0 
L 45.90625 0 
L 45.90625 32.71875 
Q 45.90625 40.484375 42.875 44.328125 
Q 39.84375 48.1875 33.796875 48.1875 
Q 26.515625 48.1875 22.3125 43.546875 
Q 18.109375 38.921875 18.109375 30.90625 
L 18.109375 0 
L 9.078125 0 
L 9.078125 54.6875 
L 18.109375 54.6875 
L 18.109375 46.1875 
Q 21.34375 51.125 25.703125 53.5625 
Q 30.078125 56 35.796875 56 
Q 45.21875 56 50.046875 50.171875 
Q 54.890625 44.34375 54.890625 33.015625 
z
" id="DejaVuSans-110"/>
     </defs>
     <g transform="translate(14.798438 185.539944)rotate(-90)scale(0.1 -0.1)">
      <use xlink:href="#DejaVuSans-32"/>
      <use x="31.787109" xlink:href="#DejaVuSans-91"/>
      <use x="70.800781" xlink:href="#DejaVuSans-99"/>
      <use x="125.78125" xlink:href="#DejaVuSans-111"/>
      <use x="186.962891" xlink:href="#DejaVuSans-117"/>
      <use x="250.341797" xlink:href="#DejaVuSans-110"/>
      <use x="313.720703" xlink:href="#DejaVuSans-116"/>
      <use x="352.929688" xlink:href="#DejaVuSans-115"/>
      <use x="405.029297" xlink:href="#DejaVuSans-93"/>
     </g>
    </g>
   </g>
   <g id="patch_3">
    <path d="M 40.603125 317.242131 
L 40.603125 9.434631 
" style="fill:none;stroke:#000000;stroke-linecap:square;stroke-linejoin:miter;stroke-width:0.8;"/>
   </g>
   <g id="patch_4">
    <path d="M 505.603125 317.242131 
L 505.603125 9.434631 
" style="fill:none;stroke:#000000;stroke-linecap:square;stroke-linejoin:miter;stroke-width:0.8;"/>
   </g>
   <g id="patch_5">
    <path d="M 40.603125 317.242131 
L 505.603125 317.242131 
" style="fill:none;stroke:#000000;stroke-linecap:square;stroke-linejoin:miter;stroke-width:0.8;"/>
   </g>
   <g id="patch_6">
    <path d="M 40.603125 9.434631 
L 505.603125 9.434631 
" style="fill:none;stroke:#000000;stroke-linecap:square;stroke-linejoin:miter;stroke-width:0.8;"/>
   </g>
   <g id="legend_1">
    <g id="patch_7">
     <path d="M 415.04375 46.790881 
L 498.603125 46.790881 
Q 500.603125 46.790881 500.603125 44.790881 
L 500.603125 16.434631 
Q 500.603125 14.434631 498.603125 14.434631 
L 415.04375 14.434631 
Q 413.04375 14.434631 413.04375 16.434631 
L 413.04375 44.790881 
Q 413.04375 46.790881 415.04375 46.790881 
z
" style="fill:#ffffff;opacity:0.8;stroke:#cccccc;stroke-linejoin:miter;"/>
    </g>
    <g id="line2d_15">
     <path d="M 417.04375 22.533069 
L 437.04375 22.533069 
" style="fill:none;stroke:#1f77b4;stroke-linecap:square;stroke-width:1.5;"/>
    </g>
    <g id="line2d_16"/>
    <g id="text_17">
     <!-- Noise1D -->
     <defs>
      <path d="M 9.8125 72.90625 
L 23.09375 72.90625 
L 55.421875 11.921875 
L 55.421875 72.90625 
L 64.984375 72.90625 
L 64.984375 0 
L 51.703125 0 
L 19.390625 60.984375 
L 19.390625 0 
L 9.8125 0 
z
" id="DejaVuSans-78"/>
      <path d="M 9.421875 54.6875 
L 18.40625 54.6875 
L 18.40625 0 
L 9.421875 0 
z
M 9.421875 75.984375 
L 18.40625 75.984375 
L 18.40625 64.59375 
L 9.421875 64.59375 
z
" id="DejaVuSans-105"/>
      <path d="M 56.203125 29.59375 
L 56.203125 25.203125 
L 14.890625 25.203125 
Q 15.484375 15.921875 20.484375 11.0625 
Q 25.484375 6.203125 34.421875 6.203125 
Q 39.59375 6.203125 44.453125 7.46875 
Q 49.3125 8.734375 54.109375 11.28125 
L 54.109375 2.78125 
Q 49.265625 0.734375 44.1875 -0.34375 
Q 39.109375 -1.421875 33.890625 -1.421875 
Q 20.796875 -1.421875 13.15625 6.1875 
Q 5.515625 13.8125 5.515625 26.8125 
Q 5.515625 40.234375 12.765625 48.109375 
Q 20.015625 56 32.328125 56 
Q 43.359375 56 49.78125 48.890625 
Q 56.203125 41.796875 56.203125 29.59375 
z
M 47.21875 32.234375 
Q 47.125 39.59375 43.09375 43.984375 
Q 39.0625 48.390625 32.421875 48.390625 
Q 24.90625 48.390625 20.390625 44.140625 
Q 15.875 39.890625 15.1875 32.171875 
z
" id="DejaVuSans-101"/>
      <path d="M 19.671875 64.796875 
L 19.671875 8.109375 
L 31.59375 8.109375 
Q 46.6875 8.109375 53.6875 14.9375 
Q 60.6875 21.78125 60.6875 36.53125 
Q 60.6875 51.171875 53.6875 57.984375 
Q 46.6875 64.796875 31.59375 64.796875 
z
M 9.8125 72.90625 
L 30.078125 72.90625 
Q 51.265625 72.90625 61.171875 64.09375 
Q 71.09375 55.28125 71.09375 36.53125 
Q 71.09375 17.671875 61.125 8.828125 
Q 51.171875 0 30.078125 0 
L 9.8125 0 
z
" id="DejaVuSans-68"/>
     </defs>
     <g transform="translate(445.04375 26.033069)scale(0.1 -0.1)">
      <use xlink:href="#DejaVuSans-78"/>
      <use x="74.804688" xlink:href="#DejaVuSans-111"/>
      <use x="135.986328" xlink:href="#DejaVuSans-105"/>
      <use x="163.769531" xlink:href="#DejaVuSans-115"/>
      <use x="215.869141" xlink:href="#DejaVuSans-101"/>
      <use x="277.392578" xlink:href="#DejaVuSans-49"/>
      <use x="341.015625" xlink:href="#DejaVuSans-68"/>
     </g>
    </g>
    <g id="line2d_17"/>
    <g id="line2d_18">
     <defs>
      <path d="M 0 -3 
L -3 3 
L 3 3 
z
" id="m9b514f7337" style="stroke:#ff7f0e;stroke-linejoin:miter;"/>
     </defs>
     <g>
      <use style="fill:#ff7f0e;stroke:#ff7f0e;stroke-linejoin:miter;" x="427.04375" xlink:href="#m9b514f7337" y="37.211194"/>
     </g>
    </g>
    <g id="text_18">
     <!-- Sample1D -->
     <defs>
      <path d="M 53.515625 70.515625 
L 53.515625 60.890625 
Q 47.90625 63.578125 42.921875 64.890625 
Q 37.9375 66.21875 33.296875 66.21875 
Q 25.25 66.21875 20.875 63.09375 
Q 16.5 59.96875 16.5 54.203125 
Q 16.5 49.359375 19.40625 46.890625 
Q 22.3125 44.4375 30.421875 42.921875 
L 36.375 41.703125 
Q 47.40625 39.59375 52.65625 34.296875 
Q 57.90625 29 57.90625 20.125 
Q 57.90625 9.515625 50.796875 4.046875 
Q 43.703125 -1.421875 29.984375 -1.421875 
Q 24.8125 -1.421875 18.96875 -0.25 
Q 13.140625 0.921875 6.890625 3.21875 
L 6.890625 13.375 
Q 12.890625 10.015625 18.65625 8.296875 
Q 24.421875 6.59375 29.984375 6.59375 
Q 38.421875 6.59375 43.015625 9.90625 
Q 47.609375 13.234375 47.609375 19.390625 
Q 47.609375 24.75 44.3125 27.78125 
Q 41.015625 30.8125 33.5 32.328125 
L 27.484375 33.5 
Q 16.453125 35.6875 11.515625 40.375 
Q 6.59375 45.0625 6.59375 53.421875 
Q 6.59375 63.09375 13.40625 68.65625 
Q 20.21875 74.21875 32.171875 74.21875 
Q 37.3125 74.21875 42.625 73.28125 
Q 47.953125 72.359375 53.515625 70.515625 
z
" id="DejaVuSans-83"/>
      <path d="M 34.28125 27.484375 
Q 23.390625 27.484375 19.1875 25 
Q 14.984375 22.515625 14.984375 16.5 
Q 14.984375 11.71875 18.140625 8.90625 
Q 21.296875 6.109375 26.703125 6.109375 
Q 34.1875 6.109375 38.703125 11.40625 
Q 43.21875 16.703125 43.21875 25.484375 
L 43.21875 27.484375 
z
M 52.203125 31.203125 
L 52.203125 0 
L 43.21875 0 
L 43.21875 8.296875 
Q 40.140625 3.328125 35.546875 0.953125 
Q 30.953125 -1.421875 24.3125 -1.421875 
Q 15.921875 -1.421875 10.953125 3.296875 
Q 6 8.015625 6 15.921875 
Q 6 25.140625 12.171875 29.828125 
Q 18.359375 34.515625 30.609375 34.515625 
L 43.21875 34.515625 
L 43.21875 35.40625 
Q 43.21875 41.609375 39.140625 45 
Q 35.0625 48.390625 27.6875 48.390625 
Q 23 48.390625 18.546875 47.265625 
Q 14.109375 46.140625 10.015625 43.890625 
L 10.015625 52.203125 
Q 14.9375 54.109375 19.578125 55.046875 
Q 24.21875 56 28.609375 56 
Q 40.484375 56 46.34375 49.84375 
Q 52.203125 43.703125 52.203125 31.203125 
z
" id="DejaVuSans-97"/>
      <path d="M 52 44.1875 
Q 55.375 50.25 60.0625 53.125 
Q 64.75 56 71.09375 56 
Q 79.640625 56 84.28125 50.015625 
Q 88.921875 44.046875 88.921875 33.015625 
L 88.921875 0 
L 79.890625 0 
L 79.890625 32.71875 
Q 79.890625 40.578125 77.09375 44.375 
Q 74.3125 48.1875 68.609375 48.1875 
Q 61.625 48.1875 57.5625 43.546875 
Q 53.515625 38.921875 53.515625 30.90625 
L 53.515625 0 
L 44.484375 0 
L 44.484375 32.71875 
Q 44.484375 40.625 41.703125 44.40625 
Q 38.921875 48.1875 33.109375 48.1875 
Q 26.21875 48.1875 22.15625 43.53125 
Q 18.109375 38.875 18.109375 30.90625 
L 18.109375 0 
L 9.078125 0 
L 9.078125 54.6875 
L 18.109375 54.6875 
L 18.109375 46.1875 
Q 21.1875 51.21875 25.484375 53.609375 
Q 29.78125 56 35.6875 56 
Q 41.65625 56 45.828125 52.96875 
Q 50 49.953125 52 44.1875 
z
" id="DejaVuSans-109"/>
      <path d="M 18.109375 8.203125 
L 18.109375 -20.796875 
L 9.078125 -20.796875 
L 9.078125 54.6875 
L 18.109375 54.6875 
L 18.109375 46.390625 
Q 20.953125 51.265625 25.265625 53.625 
Q 29.59375 56 35.59375 56 
Q 45.5625 56 51.78125 48.09375 
Q 58.015625 40.1875 58.015625 27.296875 
Q 58.015625 14.40625 51.78125 6.484375 
Q 45.5625 -1.421875 35.59375 -1.421875 
Q 29.59375 -1.421875 25.265625 0.953125 
Q 20.953125 3.328125 18.109375 8.203125 
z
M 48.6875 27.296875 
Q 48.6875 37.203125 44.609375 42.84375 
Q 40.53125 48.484375 33.40625 48.484375 
Q 26.265625 48.484375 22.1875 42.84375 
Q 18.109375 37.203125 18.109375 27.296875 
Q 18.109375 17.390625 22.1875 11.75 
Q 26.265625 6.109375 33.40625 6.109375 
Q 40.53125 6.109375 44.609375 11.75 
Q 48.6875 17.390625 48.6875 27.296875 
z
" id="DejaVuSans-112"/>
      <path d="M 9.421875 75.984375 
L 18.40625 75.984375 
L 18.40625 0 
L 9.421875 0 
z
" id="DejaVuSans-108"/>
     </defs>
     <g transform="translate(445.04375 40.711194)scale(0.1 -0.1)">
      <use xlink:href="#DejaVuSans-83"/>
      <use x="63.476562" xlink:href="#DejaVuSans-97"/>
      <use x="124.755859" xlink:href="#DejaVuSans-109"/>
      <use x="222.167969" xlink:href="#DejaVuSans-112"/>
      <use x="285.644531" xlink:href="#DejaVuSans-108"/>
      <use x="313.427734" xlink:href="#DejaVuSans-101"/>
      <use x="374.951172" xlink:href="#DejaVuSans-49"/>
      <use x="438.574219" xlink:href="#DejaVuSans-68"/>
     </g>
    </g>
   </g>
   <g id="LineCollection_1">
    <path clip-path="url(#pc6457ffb81)" d="M 65.321923 191.102052 
L 65.321923 130.761789 
" style="fill:none;stroke:#1f77b4;stroke-width:1.5;"/>
    <path clip-path="url(#pc6457ffb81)" d="M 72.486792 259.199081 
L 72.486792 194.436391 
" style="fill:none;stroke:#1f77b4;stroke-width:1.5;"/>
    <path clip-path="url(#pc6457ffb81)" d="M 79.651661 144.024092 
L 79.651661 99.892719 
" style="fill:none;stroke:#1f77b4;stroke-width:1.5;"/>
    <path clip-path="url(#pc6457ffb81)" d="M 86.81653 289.63525 
L 86.81653 249.584836 
" style="fill:none;stroke:#1f77b4;stroke-width:1.5;"/>
    <path clip-path="url(#pc6457ffb81)" d="M 93.981399 211.583527 
L 93.981399 134.423575 
" style="fill:none;stroke:#1f77b4;stroke-width:1.5;"/>
    <path clip-path="url(#pc6457ffb81)" d="M 101.146268 90.91798 
L 101.146268 23.425881 
" style="fill:none;stroke:#1f77b4;stroke-width:1.5;"/>
    <path clip-path="url(#pc6457ffb81)" d="M 108.311137 292.180811 
L 108.311137 247.38776 
" style="fill:none;stroke:#1f77b4;stroke-width:1.5;"/>
    <path clip-path="url(#pc6457ffb81)" d="M 115.476006 210.50219 
L 115.476006 151.784626 
" style="fill:none;stroke:#1f77b4;stroke-width:1.5;"/>
    <path clip-path="url(#pc6457ffb81)" d="M 122.640875 152.465312 
L 122.640875 87.859722 
" style="fill:none;stroke:#1f77b4;stroke-width:1.5;"/>
    <path clip-path="url(#pc6457ffb81)" d="M 129.805744 218.017645 
L 129.805744 155.000805 
" style="fill:none;stroke:#1f77b4;stroke-width:1.5;"/>
    <path clip-path="url(#pc6457ffb81)" d="M 136.970613 108.396373 
L 136.970613 46.604104 
" style="fill:none;stroke:#1f77b4;stroke-width:1.5;"/>
    <path clip-path="url(#pc6457ffb81)" d="M 144.135482 213.051912 
L 144.135482 191.99078 
" style="fill:none;stroke:#1f77b4;stroke-width:1.5;"/>
    <path clip-path="url(#pc6457ffb81)" d="M 151.300352 271.071739 
L 151.300352 194.749464 
" style="fill:none;stroke:#1f77b4;stroke-width:1.5;"/>
    <path clip-path="url(#pc6457ffb81)" d="M 158.465221 128.729753 
L 158.465221 104.062408 
" style="fill:none;stroke:#1f77b4;stroke-width:1.5;"/>
    <path clip-path="url(#pc6457ffb81)" d="M 165.63009 149.384098 
L 165.63009 99.941846 
" style="fill:none;stroke:#1f77b4;stroke-width:1.5;"/>
    <path clip-path="url(#pc6457ffb81)" d="M 172.794959 127.643472 
L 172.794959 109.851022 
" style="fill:none;stroke:#1f77b4;stroke-width:1.5;"/>
    <path clip-path="url(#pc6457ffb81)" d="M 179.959828 188.738778 
L 179.959828 136.290077 
" style="fill:none;stroke:#1f77b4;stroke-width:1.5;"/>
    <path clip-path="url(#pc6457ffb81)" d="M 187.124697 267.180419 
L 187.124697 238.09201 
" style="fill:none;stroke:#1f77b4;stroke-width:1.5;"/>
    <path clip-path="url(#pc6457ffb81)" d="M 194.289566 73.702763 
L 194.289566 45.055117 
" style="fill:none;stroke:#1f77b4;stroke-width:1.5;"/>
    <path clip-path="url(#pc6457ffb81)" d="M 201.454435 69.641258 
L 201.454435 54.753689 
" style="fill:none;stroke:#1f77b4;stroke-width:1.5;"/>
    <path clip-path="url(#pc6457ffb81)" d="M 208.619304 200.660025 
L 208.619304 160.269176 
" style="fill:none;stroke:#1f77b4;stroke-width:1.5;"/>
    <path clip-path="url(#pc6457ffb81)" d="M 215.784173 113.119322 
L 215.784173 56.55977 
" style="fill:none;stroke:#1f77b4;stroke-width:1.5;"/>
    <path clip-path="url(#pc6457ffb81)" d="M 222.949042 270.06162 
L 222.949042 194.229183 
" style="fill:none;stroke:#1f77b4;stroke-width:1.5;"/>
    <path clip-path="url(#pc6457ffb81)" d="M 230.113911 147.71789 
L 230.113911 72.355258 
" style="fill:none;stroke:#1f77b4;stroke-width:1.5;"/>
    <path clip-path="url(#pc6457ffb81)" d="M 237.27878 177.057652 
L 237.27878 170.145067 
" style="fill:none;stroke:#1f77b4;stroke-width:1.5;"/>
    <path clip-path="url(#pc6457ffb81)" d="M 244.443649 303.250881 
L 244.443649 230.232074 
" style="fill:none;stroke:#1f77b4;stroke-width:1.5;"/>
    <path clip-path="url(#pc6457ffb81)" d="M 251.608518 220.537404 
L 251.608518 161.346129 
" style="fill:none;stroke:#1f77b4;stroke-width:1.5;"/>
    <path clip-path="url(#pc6457ffb81)" d="M 258.773387 254.196983 
L 258.773387 220.317023 
" style="fill:none;stroke:#1f77b4;stroke-width:1.5;"/>
    <path clip-path="url(#pc6457ffb81)" d="M 265.938256 152.581064 
L 265.938256 91.841292 
" style="fill:none;stroke:#1f77b4;stroke-width:1.5;"/>
    <path clip-path="url(#pc6457ffb81)" d="M 273.103125 126.134653 
L 273.103125 55.051339 
" style="fill:none;stroke:#1f77b4;stroke-width:1.5;"/>
    <path clip-path="url(#pc6457ffb81)" d="M 280.267994 75.353675 
L 280.267994 41.066586 
" style="fill:none;stroke:#1f77b4;stroke-width:1.5;"/>
    <path clip-path="url(#pc6457ffb81)" d="M 287.432863 89.728382 
L 287.432863 61.325672 
" style="fill:none;stroke:#1f77b4;stroke-width:1.5;"/>
    <path clip-path="url(#pc6457ffb81)" d="M 294.597732 218.556192 
L 294.597732 141.759567 
" style="fill:none;stroke:#1f77b4;stroke-width:1.5;"/>
    <path clip-path="url(#pc6457ffb81)" d="M 301.762601 170.647457 
L 301.762601 144.945927 
" style="fill:none;stroke:#1f77b4;stroke-width:1.5;"/>
    <path clip-path="url(#pc6457ffb81)" d="M 308.92747 233.099406 
L 308.92747 203.142855 
" style="fill:none;stroke:#1f77b4;stroke-width:1.5;"/>
    <path clip-path="url(#pc6457ffb81)" d="M 316.092339 248.636873 
L 316.092339 198.146179 
" style="fill:none;stroke:#1f77b4;stroke-width:1.5;"/>
    <path clip-path="url(#pc6457ffb81)" d="M 323.257208 114.254271 
L 323.257208 48.047411 
" style="fill:none;stroke:#1f77b4;stroke-width:1.5;"/>
    <path clip-path="url(#pc6457ffb81)" d="M 330.422077 179.671349 
L 330.422077 133.02288 
" style="fill:none;stroke:#1f77b4;stroke-width:1.5;"/>
    <path clip-path="url(#pc6457ffb81)" d="M 337.586946 182.33415 
L 337.586946 115.380395 
" style="fill:none;stroke:#1f77b4;stroke-width:1.5;"/>
    <path clip-path="url(#pc6457ffb81)" d="M 344.751815 232.938444 
L 344.751815 181.671072 
" style="fill:none;stroke:#1f77b4;stroke-width:1.5;"/>
    <path clip-path="url(#pc6457ffb81)" d="M 351.916684 234.129916 
L 351.916684 165.020733 
" style="fill:none;stroke:#1f77b4;stroke-width:1.5;"/>
    <path clip-path="url(#pc6457ffb81)" d="M 359.081553 193.979748 
L 359.081553 186.214624 
" style="fill:none;stroke:#1f77b4;stroke-width:1.5;"/>
    <path clip-path="url(#pc6457ffb81)" d="M 366.246422 156.966906 
L 366.246422 114.687571 
" style="fill:none;stroke:#1f77b4;stroke-width:1.5;"/>
    <path clip-path="url(#pc6457ffb81)" d="M 373.411291 256.451129 
L 373.411291 185.589971 
" style="fill:none;stroke:#1f77b4;stroke-width:1.5;"/>
    <path clip-path="url(#pc6457ffb81)" d="M 380.57616 102.159626 
L 380.57616 51.94428 
" style="fill:none;stroke:#1f77b4;stroke-width:1.5;"/>
    <path clip-path="url(#pc6457ffb81)" d="M 387.741029 69.508154 
L 387.741029 60.601164 
" style="fill:none;stroke:#1f77b4;stroke-width:1.5;"/>
    <path clip-path="url(#pc6457ffb81)" d="M 394.905898 75.045055 
L 394.905898 71.157842 
" style="fill:none;stroke:#1f77b4;stroke-width:1.5;"/>
    <path clip-path="url(#pc6457ffb81)" d="M 402.070768 205.835435 
L 402.070768 153.979457 
" style="fill:none;stroke:#1f77b4;stroke-width:1.5;"/>
    <path clip-path="url(#pc6457ffb81)" d="M 409.235637 226.618975 
L 409.235637 157.673151 
" style="fill:none;stroke:#1f77b4;stroke-width:1.5;"/>
    <path clip-path="url(#pc6457ffb81)" d="M 416.400506 245.266593 
L 416.400506 196.50973 
" style="fill:none;stroke:#1f77b4;stroke-width:1.5;"/>
    <path clip-path="url(#pc6457ffb81)" d="M 423.565375 204.023714 
L 423.565375 149.468442 
" style="fill:none;stroke:#1f77b4;stroke-width:1.5;"/>
    <path clip-path="url(#pc6457ffb81)" d="M 430.730244 142.985749 
L 430.730244 87.977904 
" style="fill:none;stroke:#1f77b4;stroke-width:1.5;"/>
    <path clip-path="url(#pc6457ffb81)" d="M 437.895113 295.778235 
L 437.895113 237.042404 
" style="fill:none;stroke:#1f77b4;stroke-width:1.5;"/>
    <path clip-path="url(#pc6457ffb81)" d="M 445.059982 202.426244 
L 445.059982 136.385971 
" style="fill:none;stroke:#1f77b4;stroke-width:1.5;"/>
    <path clip-path="url(#pc6457ffb81)" d="M 452.224851 279.759136 
L 452.224851 208.45724 
" style="fill:none;stroke:#1f77b4;stroke-width:1.5;"/>
    <path clip-path="url(#pc6457ffb81)" d="M 459.38972 265.805942 
L 459.38972 245.956092 
" style="fill:none;stroke:#1f77b4;stroke-width:1.5;"/>
    <path clip-path="url(#pc6457ffb81)" d="M 466.554589 212.483476 
L 466.554589 146.237418 
" style="fill:none;stroke:#1f77b4;stroke-width:1.5;"/>
    <path clip-path="url(#pc6457ffb81)" d="M 473.719458 164.255091 
L 473.719458 89.989776 
" style="fill:none;stroke:#1f77b4;stroke-width:1.5;"/>
    <path clip-path="url(#pc6457ffb81)" d="M 480.884327 217.086864 
L 480.884327 178.179855 
" style="fill:none;stroke:#1f77b4;stroke-width:1.5;"/>
   </g>
   <g id="line2d_19">
    <path clip-path="url(#pc6457ffb81)" d="M 61.739489 280.206258 
L 61.739489 160.93192 
L 68.904358 160.93192 
L 68.904358 226.817736 
L 76.069227 226.817736 
L 76.069227 121.958405 
L 83.234096 121.958405 
L 83.234096 269.610043 
L 90.398965 269.610043 
L 90.398965 173.003551 
L 97.563834 173.003551 
L 97.563834 57.17193 
L 104.728703 57.17193 
L 104.728703 269.784285 
L 111.893572 269.784285 
L 111.893572 181.143408 
L 119.058441 181.143408 
L 119.058441 120.162517 
L 126.22331 120.162517 
L 126.22331 186.509225 
L 133.388179 186.509225 
L 133.388179 77.500238 
L 140.553048 77.500238 
L 140.553048 202.521346 
L 147.717917 202.521346 
L 147.717917 232.910601 
L 154.882786 232.910601 
L 154.882786 116.396081 
L 162.047655 116.396081 
L 162.047655 124.662972 
L 169.212524 124.662972 
L 169.212524 118.747247 
L 176.377393 118.747247 
L 176.377393 162.514427 
L 183.542262 162.514427 
L 183.542262 252.636214 
L 190.707131 252.636214 
L 190.707131 59.37894 
L 197.872 59.37894 
L 197.872 62.197474 
L 205.036869 62.197474 
L 205.036869 180.4646 
L 212.201738 180.4646 
L 212.201738 84.839546 
L 219.366607 84.839546 
L 219.366607 232.145401 
L 226.531476 232.145401 
L 226.531476 110.036574 
L 233.696345 110.036574 
L 233.696345 173.601359 
L 240.861214 173.601359 
L 240.861214 266.741478 
L 248.026083 266.741478 
L 248.026083 190.941767 
L 255.190952 190.941767 
L 255.190952 237.257003 
L 262.355821 237.257003 
L 262.355821 122.211178 
L 269.52069 122.211178 
L 269.52069 90.592996 
L 276.68556 90.592996 
L 276.68556 58.210131 
L 283.850429 58.210131 
L 283.850429 75.527027 
L 291.015298 75.527027 
L 291.015298 180.157879 
L 298.180167 180.157879 
L 298.180167 157.796692 
L 305.345036 157.796692 
L 305.345036 218.12113 
L 312.509905 218.12113 
L 312.509905 223.391526 
L 319.674774 223.391526 
L 319.674774 81.150841 
L 326.839643 81.150841 
L 326.839643 156.347114 
L 334.004512 156.347114 
L 334.004512 148.857272 
L 341.169381 148.857272 
L 341.169381 207.304758 
L 348.33425 207.304758 
L 348.33425 199.575324 
L 355.499119 199.575324 
L 355.499119 190.097186 
L 362.663988 190.097186 
L 362.663988 135.827238 
L 369.828857 135.827238 
L 369.828857 221.02055 
L 376.993726 221.02055 
L 376.993726 77.051953 
L 384.158595 77.051953 
L 384.158595 65.054659 
L 391.323464 65.054659 
L 391.323464 73.101449 
L 398.488333 73.101449 
L 398.488333 179.907446 
L 405.653202 179.907446 
L 405.653202 192.146063 
L 412.818071 192.146063 
L 412.818071 220.888162 
L 419.98294 220.888162 
L 419.98294 176.746078 
L 427.147809 176.746078 
L 427.147809 115.481826 
L 434.312678 115.481826 
L 434.312678 266.41032 
L 441.477547 266.41032 
L 441.477547 169.406108 
L 448.642416 169.406108 
L 448.642416 244.108188 
L 455.807285 244.108188 
L 455.807285 255.881017 
L 462.972154 255.881017 
L 462.972154 179.360447 
L 470.137023 179.360447 
L 470.137023 127.122434 
L 477.301892 127.122434 
L 477.301892 197.63336 
L 484.466761 197.63336 
" style="fill:none;stroke:#1f77b4;stroke-linecap:square;stroke-width:1.5;"/>
   </g>
   <g id="line2d_20">
    <defs>
     <path d="M 0 -3 
L -3 3 
L 3 3 
z
" id="m06a64d83e5" style="stroke:#00ffff;stroke-linejoin:miter;"/>
    </defs>
    <g clip-path="url(#pc6457ffb81)">
     <use style="fill:#00ffff;stroke:#00ffff;stroke-linejoin:miter;" x="61.739489" xlink:href="#m06a64d83e5" y="128.790316"/>
     <use style="fill:#00ffff;stroke:#00ffff;stroke-linejoin:miter;" x="68.904358" xlink:href="#m06a64d83e5" y="114.892053"/>
     <use style="fill:#00ffff;stroke:#00ffff;stroke-linejoin:miter;" x="76.069227" xlink:href="#m06a64d83e5" y="236.18665"/>
     <use style="fill:#00ffff;stroke:#00ffff;stroke-linejoin:miter;" x="83.234096" xlink:href="#m06a64d83e5" y="119.503712"/>
     <use style="fill:#00ffff;stroke:#00ffff;stroke-linejoin:miter;" x="90.398965" xlink:href="#m06a64d83e5" y="185.096485"/>
     <use style="fill:#00ffff;stroke:#00ffff;stroke-linejoin:miter;" x="97.563834" xlink:href="#m06a64d83e5" y="142.214864"/>
     <use style="fill:#00ffff;stroke:#00ffff;stroke-linejoin:miter;" x="104.728703" xlink:href="#m06a64d83e5" y="117.110982"/>
     <use style="fill:#00ffff;stroke:#00ffff;stroke-linejoin:miter;" x="111.893572" xlink:href="#m06a64d83e5" y="78.658306"/>
     <use style="fill:#00ffff;stroke:#00ffff;stroke-linejoin:miter;" x="119.058441" xlink:href="#m06a64d83e5" y="275.809767"/>
     <use style="fill:#00ffff;stroke:#00ffff;stroke-linejoin:miter;" x="126.22331" xlink:href="#m06a64d83e5" y="132.398406"/>
     <use style="fill:#00ffff;stroke:#00ffff;stroke-linejoin:miter;" x="133.388179" xlink:href="#m06a64d83e5" y="237.93067"/>
     <use style="fill:#00ffff;stroke:#00ffff;stroke-linejoin:miter;" x="140.553048" xlink:href="#m06a64d83e5" y="143.757382"/>
     <use style="fill:#00ffff;stroke:#00ffff;stroke-linejoin:miter;" x="147.717917" xlink:href="#m06a64d83e5" y="146.041666"/>
     <use style="fill:#00ffff;stroke:#00ffff;stroke-linejoin:miter;" x="154.882786" xlink:href="#m06a64d83e5" y="60.873398"/>
     <use style="fill:#00ffff;stroke:#00ffff;stroke-linejoin:miter;" x="162.047655" xlink:href="#m06a64d83e5" y="164.412667"/>
     <use style="fill:#00ffff;stroke:#00ffff;stroke-linejoin:miter;" x="169.212524" xlink:href="#m06a64d83e5" y="83.145421"/>
     <use style="fill:#00ffff;stroke:#00ffff;stroke-linejoin:miter;" x="176.377393" xlink:href="#m06a64d83e5" y="74.226824"/>
     <use style="fill:#00ffff;stroke:#00ffff;stroke-linejoin:miter;" x="183.542262" xlink:href="#m06a64d83e5" y="217.413308"/>
     <use style="fill:#00ffff;stroke:#00ffff;stroke-linejoin:miter;" x="190.707131" xlink:href="#m06a64d83e5" y="99.173701"/>
     <use style="fill:#00ffff;stroke:#00ffff;stroke-linejoin:miter;" x="197.872" xlink:href="#m06a64d83e5" y="61.178736"/>
     <use style="fill:#00ffff;stroke:#00ffff;stroke-linejoin:miter;" x="205.036869" xlink:href="#m06a64d83e5" y="253.792818"/>
     <use style="fill:#00ffff;stroke:#00ffff;stroke-linejoin:miter;" x="212.201738" xlink:href="#m06a64d83e5" y="81.514893"/>
     <use style="fill:#00ffff;stroke:#00ffff;stroke-linejoin:miter;" x="219.366607" xlink:href="#m06a64d83e5" y="210.293129"/>
     <use style="fill:#00ffff;stroke:#00ffff;stroke-linejoin:miter;" x="226.531476" xlink:href="#m06a64d83e5" y="273.228918"/>
     <use style="fill:#00ffff;stroke:#00ffff;stroke-linejoin:miter;" x="233.696345" xlink:href="#m06a64d83e5" y="161.175529"/>
     <use style="fill:#00ffff;stroke:#00ffff;stroke-linejoin:miter;" x="240.861214" xlink:href="#m06a64d83e5" y="210.495497"/>
     <use style="fill:#00ffff;stroke:#00ffff;stroke-linejoin:miter;" x="248.026083" xlink:href="#m06a64d83e5" y="146.638258"/>
     <use style="fill:#00ffff;stroke:#00ffff;stroke-linejoin:miter;" x="255.190952" xlink:href="#m06a64d83e5" y="148.517556"/>
     <use style="fill:#00ffff;stroke:#00ffff;stroke-linejoin:miter;" x="262.355821" xlink:href="#m06a64d83e5" y="62.729976"/>
     <use style="fill:#00ffff;stroke:#00ffff;stroke-linejoin:miter;" x="269.52069" xlink:href="#m06a64d83e5" y="164.798525"/>
     <use style="fill:#00ffff;stroke:#00ffff;stroke-linejoin:miter;" x="276.68556" xlink:href="#m06a64d83e5" y="132.039189"/>
     <use style="fill:#00ffff;stroke:#00ffff;stroke-linejoin:miter;" x="283.850429" xlink:href="#m06a64d83e5" y="267.607399"/>
     <use style="fill:#00ffff;stroke:#00ffff;stroke-linejoin:miter;" x="291.015298" xlink:href="#m06a64d83e5" y="232.381"/>
     <use style="fill:#00ffff;stroke:#00ffff;stroke-linejoin:miter;" x="298.180167" xlink:href="#m06a64d83e5" y="211.888637"/>
     <use style="fill:#00ffff;stroke:#00ffff;stroke-linejoin:miter;" x="305.345036" xlink:href="#m06a64d83e5" y="245.542604"/>
     <use style="fill:#00ffff;stroke:#00ffff;stroke-linejoin:miter;" x="312.509905" xlink:href="#m06a64d83e5" y="120.70206"/>
     <use style="fill:#00ffff;stroke:#00ffff;stroke-linejoin:miter;" x="319.674774" xlink:href="#m06a64d83e5" y="196.613077"/>
     <use style="fill:#00ffff;stroke:#00ffff;stroke-linejoin:miter;" x="326.839643" xlink:href="#m06a64d83e5" y="153.451741"/>
     <use style="fill:#00ffff;stroke:#00ffff;stroke-linejoin:miter;" x="334.004512" xlink:href="#m06a64d83e5" y="192.482832"/>
     <use style="fill:#00ffff;stroke:#00ffff;stroke-linejoin:miter;" x="341.169381" xlink:href="#m06a64d83e5" y="237.749739"/>
     <use style="fill:#00ffff;stroke:#00ffff;stroke-linejoin:miter;" x="348.33425" xlink:href="#m06a64d83e5" y="251.233379"/>
     <use style="fill:#00ffff;stroke:#00ffff;stroke-linejoin:miter;" x="355.499119" xlink:href="#m06a64d83e5" y="182.041736"/>
     <use style="fill:#00ffff;stroke:#00ffff;stroke-linejoin:miter;" x="362.663988" xlink:href="#m06a64d83e5" y="85.679804"/>
     <use style="fill:#00ffff;stroke:#00ffff;stroke-linejoin:miter;" x="369.828857" xlink:href="#m06a64d83e5" y="238.884911"/>
     <use style="fill:#00ffff;stroke:#00ffff;stroke-linejoin:miter;" x="376.993726" xlink:href="#m06a64d83e5" y="242.163001"/>
     <use style="fill:#00ffff;stroke:#00ffff;stroke-linejoin:miter;" x="384.158595" xlink:href="#m06a64d83e5" y="55.980422"/>
     <use style="fill:#00ffff;stroke:#00ffff;stroke-linejoin:miter;" x="391.323464" xlink:href="#m06a64d83e5" y="241.219773"/>
     <use style="fill:#00ffff;stroke:#00ffff;stroke-linejoin:miter;" x="398.488333" xlink:href="#m06a64d83e5" y="60.045222"/>
     <use style="fill:#00ffff;stroke:#00ffff;stroke-linejoin:miter;" x="405.653202" xlink:href="#m06a64d83e5" y="73.109107"/>
     <use style="fill:#00ffff;stroke:#00ffff;stroke-linejoin:miter;" x="412.818071" xlink:href="#m06a64d83e5" y="278.576633"/>
     <use style="fill:#00ffff;stroke:#00ffff;stroke-linejoin:miter;" x="419.98294" xlink:href="#m06a64d83e5" y="269.083081"/>
     <use style="fill:#00ffff;stroke:#00ffff;stroke-linejoin:miter;" x="427.147809" xlink:href="#m06a64d83e5" y="136.998508"/>
     <use style="fill:#00ffff;stroke:#00ffff;stroke-linejoin:miter;" x="434.312678" xlink:href="#m06a64d83e5" y="77.279644"/>
     <use style="fill:#00ffff;stroke:#00ffff;stroke-linejoin:miter;" x="441.477547" xlink:href="#m06a64d83e5" y="226.627356"/>
     <use style="fill:#00ffff;stroke:#00ffff;stroke-linejoin:miter;" x="448.642416" xlink:href="#m06a64d83e5" y="169.813918"/>
     <use style="fill:#00ffff;stroke:#00ffff;stroke-linejoin:miter;" x="455.807285" xlink:href="#m06a64d83e5" y="146.923507"/>
     <use style="fill:#00ffff;stroke:#00ffff;stroke-linejoin:miter;" x="462.972154" xlink:href="#m06a64d83e5" y="265.820679"/>
     <use style="fill:#00ffff;stroke:#00ffff;stroke-linejoin:miter;" x="470.137023" xlink:href="#m06a64d83e5" y="254.769172"/>
     <use style="fill:#00ffff;stroke:#00ffff;stroke-linejoin:miter;" x="477.301892" xlink:href="#m06a64d83e5" y="93.683141"/>
     <use style="fill:#00ffff;stroke:#00ffff;stroke-linejoin:miter;" x="484.466761" xlink:href="#m06a64d83e5" y="87.586077"/>
    </g>
   </g>
  </g>
 </g>
 <defs>
  <clipPath id="pc6457ffb81">
   <rect height="307.8075" width="465" x="40.603125" y="9.434631"/>
  </clipPath>
 </defs>
</svg>
