<?xml version="1.0" encoding="utf-8" standalone="no"?>
<!DOCTYPE svg PUBLIC "-//W3C//DTD SVG 1.1//EN"
  "http://www.w3.org/Graphics/SVG/1.1/DTD/svg11.dtd">
<svg xmlns:xlink="http://www.w3.org/1999/xlink" width="388.965625pt" height="266.51625pt" viewBox="0 0 388.965625 266.51625" xmlns="http://www.w3.org/2000/svg" version="1.1">
 <metadata>
  <rdf:RDF xmlns:dc="http://purl.org/dc/elements/1.1/" xmlns:cc="http://creativecommons.org/ns#" xmlns:rdf="http://www.w3.org/1999/02/22-rdf-syntax-ns#">
   <cc:Work>
    <dc:type rdf:resource="http://purl.org/dc/dcmitype/StillImage"/>
    <dc:date>2025-09-01T11:55:20.777126</dc:date>
    <dc:format>image/svg+xml</dc:format>
    <dc:creator>
     <cc:Agent>
      <dc:title>Matplotlib v3.10.3, https://matplotlib.org/</dc:title>
     </cc:Agent>
    </dc:creator>
   </cc:Work>
  </rdf:RDF>
 </metadata>
 <defs>
  <style type="text/css">*{stroke-linejoin: round; stroke-linecap: butt}</style>
 </defs>
 <g id="figure_1">
  <g id="patch_1">
   <path d="M 0 266.51625 
L 388.965625 266.51625 
L 388.965625 0 
L 0 0 
z
" style="fill: #ffffff"/>
  </g>
  <g id="axes_1">
   <g id="patch_2">
    <path d="M 46.965625 228.96 
L 381.765625 228.96 
L 381.765625 7.2 
L 46.965625 7.2 
z
" style="fill: #ffffff"/>
   </g>
   <g id="matplotlib.axis_1">
    <g id="xtick_1">
     <g id="line2d_1">
      <defs>
       <path id="mc402dc7725" d="M 0 0 
L 0 3.5 
" style="stroke: #000000; stroke-width: 0.8"/>
      </defs>
      <g>
       <use xlink:href="#mc402dc7725" x="62.183807" y="228.96" style="stroke: #000000; stroke-width: 0.8"/>
      </g>
     </g>
     <g id="text_1">
      <!-- 0.0 -->
      <g transform="translate(54.232244 243.558437) scale(0.1 -0.1)">
       <defs>
        <path id="DejaVuSans-30" d="M 2034 4250 
Q 1547 4250 1301 3770 
Q 1056 3291 1056 2328 
Q 1056 1369 1301 889 
Q 1547 409 2034 409 
Q 2525 409 2770 889 
Q 3016 1369 3016 2328 
Q 3016 3291 2770 3770 
Q 2525 4250 2034 4250 
z
M 2034 4750 
Q 2819 4750 3233 4129 
Q 3647 3509 3647 2328 
Q 3647 1150 3233 529 
Q 2819 -91 2034 -91 
Q 1250 -91 836 529 
Q 422 1150 422 2328 
Q 422 3509 836 4129 
Q 1250 4750 2034 4750 
z
" transform="scale(0.015625)"/>
        <path id="DejaVuSans-2e" d="M 684 794 
L 1344 794 
L 1344 0 
L 684 0 
L 684 794 
z
" transform="scale(0.015625)"/>
       </defs>
       <use xlink:href="#DejaVuSans-30"/>
       <use xlink:href="#DejaVuSans-2e" transform="translate(63.623047 0)"/>
       <use xlink:href="#DejaVuSans-30" transform="translate(95.410156 0)"/>
      </g>
     </g>
    </g>
    <g id="xtick_2">
     <g id="line2d_2">
      <g>
       <use xlink:href="#mc402dc7725" x="123.056534" y="228.96" style="stroke: #000000; stroke-width: 0.8"/>
      </g>
     </g>
     <g id="text_2">
      <!-- 0.2 -->
      <g transform="translate(115.104972 243.558437) scale(0.1 -0.1)">
       <defs>
        <path id="DejaVuSans-32" d="M 1228 531 
L 3431 531 
L 3431 0 
L 469 0 
L 469 531 
Q 828 903 1448 1529 
Q 2069 2156 2228 2338 
Q 2531 2678 2651 2914 
Q 2772 3150 2772 3378 
Q 2772 3750 2511 3984 
Q 2250 4219 1831 4219 
Q 1534 4219 1204 4116 
Q 875 4013 500 3803 
L 500 4441 
Q 881 4594 1212 4672 
Q 1544 4750 1819 4750 
Q 2544 4750 2975 4387 
Q 3406 4025 3406 3419 
Q 3406 3131 3298 2873 
Q 3191 2616 2906 2266 
Q 2828 2175 2409 1742 
Q 1991 1309 1228 531 
z
" transform="scale(0.015625)"/>
       </defs>
       <use xlink:href="#DejaVuSans-30"/>
       <use xlink:href="#DejaVuSans-2e" transform="translate(63.623047 0)"/>
       <use xlink:href="#DejaVuSans-32" transform="translate(95.410156 0)"/>
      </g>
     </g>
    </g>
    <g id="xtick_3">
     <g id="line2d_3">
      <g>
       <use xlink:href="#mc402dc7725" x="183.929261" y="228.96" style="stroke: #000000; stroke-width: 0.8"/>
      </g>
     </g>
     <g id="text_3">
      <!-- 0.4 -->
      <g transform="translate(175.977699 243.558437) scale(0.1 -0.1)">
       <defs>
        <path id="DejaVuSans-34" d="M 2419 4116 
L 825 1625 
L 2419 1625 
L 2419 4116 
z
M 2253 4666 
L 3047 4666 
L 3047 1625 
L 3713 1625 
L 3713 1100 
L 3047 1100 
L 3047 0 
L 2419 0 
L 2419 1100 
L 313 1100 
L 313 1709 
L 2253 4666 
z
" transform="scale(0.015625)"/>
       </defs>
       <use xlink:href="#DejaVuSans-30"/>
       <use xlink:href="#DejaVuSans-2e" transform="translate(63.623047 0)"/>
       <use xlink:href="#DejaVuSans-34" transform="translate(95.410156 0)"/>
      </g>
     </g>
    </g>
    <g id="xtick_4">
     <g id="line2d_4">
      <g>
       <use xlink:href="#mc402dc7725" x="244.801989" y="228.96" style="stroke: #000000; stroke-width: 0.8"/>
      </g>
     </g>
     <g id="text_4">
      <!-- 0.6 -->
      <g transform="translate(236.850426 243.558437) scale(0.1 -0.1)">
       <defs>
        <path id="DejaVuSans-36" d="M 2113 2584 
Q 1688 2584 1439 2293 
Q 1191 2003 1191 1497 
Q 1191 994 1439 701 
Q 1688 409 2113 409 
Q 2538 409 2786 701 
Q 3034 994 3034 1497 
Q 3034 2003 2786 2293 
Q 2538 2584 2113 2584 
z
M 3366 4563 
L 3366 3988 
Q 3128 4100 2886 4159 
Q 2644 4219 2406 4219 
Q 1781 4219 1451 3797 
Q 1122 3375 1075 2522 
Q 1259 2794 1537 2939 
Q 1816 3084 2150 3084 
Q 2853 3084 3261 2657 
Q 3669 2231 3669 1497 
Q 3669 778 3244 343 
Q 2819 -91 2113 -91 
Q 1303 -91 875 529 
Q 447 1150 447 2328 
Q 447 3434 972 4092 
Q 1497 4750 2381 4750 
Q 2619 4750 2861 4703 
Q 3103 4656 3366 4563 
z
" transform="scale(0.015625)"/>
       </defs>
       <use xlink:href="#DejaVuSans-30"/>
       <use xlink:href="#DejaVuSans-2e" transform="translate(63.623047 0)"/>
       <use xlink:href="#DejaVuSans-36" transform="translate(95.410156 0)"/>
      </g>
     </g>
    </g>
    <g id="xtick_5">
     <g id="line2d_5">
      <g>
       <use xlink:href="#mc402dc7725" x="305.674716" y="228.96" style="stroke: #000000; stroke-width: 0.8"/>
      </g>
     </g>
     <g id="text_5">
      <!-- 0.8 -->
      <g transform="translate(297.723153 243.558437) scale(0.1 -0.1)">
       <defs>
        <path id="DejaVuSans-38" d="M 2034 2216 
Q 1584 2216 1326 1975 
Q 1069 1734 1069 1313 
Q 1069 891 1326 650 
Q 1584 409 2034 409 
Q 2484 409 2743 651 
Q 3003 894 3003 1313 
Q 3003 1734 2745 1975 
Q 2488 2216 2034 2216 
z
M 1403 2484 
Q 997 2584 770 2862 
Q 544 3141 544 3541 
Q 544 4100 942 4425 
Q 1341 4750 2034 4750 
Q 2731 4750 3128 4425 
Q 3525 4100 3525 3541 
Q 3525 3141 3298 2862 
Q 3072 2584 2669 2484 
Q 3125 2378 3379 2068 
Q 3634 1759 3634 1313 
Q 3634 634 3220 271 
Q 2806 -91 2034 -91 
Q 1263 -91 848 271 
Q 434 634 434 1313 
Q 434 1759 690 2068 
Q 947 2378 1403 2484 
z
M 1172 3481 
Q 1172 3119 1398 2916 
Q 1625 2713 2034 2713 
Q 2441 2713 2670 2916 
Q 2900 3119 2900 3481 
Q 2900 3844 2670 4047 
Q 2441 4250 2034 4250 
Q 1625 4250 1398 4047 
Q 1172 3844 1172 3481 
z
" transform="scale(0.015625)"/>
       </defs>
       <use xlink:href="#DejaVuSans-30"/>
       <use xlink:href="#DejaVuSans-2e" transform="translate(63.623047 0)"/>
       <use xlink:href="#DejaVuSans-38" transform="translate(95.410156 0)"/>
      </g>
     </g>
    </g>
    <g id="xtick_6">
     <g id="line2d_6">
      <g>
       <use xlink:href="#mc402dc7725" x="366.547443" y="228.96" style="stroke: #000000; stroke-width: 0.8"/>
      </g>
     </g>
     <g id="text_6">
      <!-- 1.0 -->
      <g transform="translate(358.595881 243.558437) scale(0.1 -0.1)">
       <defs>
        <path id="DejaVuSans-31" d="M 794 531 
L 1825 531 
L 1825 4091 
L 703 3866 
L 703 4441 
L 1819 4666 
L 2450 4666 
L 2450 531 
L 3481 531 
L 3481 0 
L 794 0 
L 794 531 
z
" transform="scale(0.015625)"/>
       </defs>
       <use xlink:href="#DejaVuSans-31"/>
       <use xlink:href="#DejaVuSans-2e" transform="translate(63.623047 0)"/>
       <use xlink:href="#DejaVuSans-30" transform="translate(95.410156 0)"/>
      </g>
     </g>
    </g>
    <g id="text_7">
     <!-- x [m] -->
     <g transform="translate(201.045313 257.236562) scale(0.1 -0.1)">
      <defs>
       <path id="DejaVuSans-78" d="M 3513 3500 
L 2247 1797 
L 3578 0 
L 2900 0 
L 1881 1375 
L 863 0 
L 184 0 
L 1544 1831 
L 300 3500 
L 978 3500 
L 1906 2253 
L 2834 3500 
L 3513 3500 
z
" transform="scale(0.015625)"/>
       <path id="DejaVuSans-20" transform="scale(0.015625)"/>
       <path id="DejaVuSans-5b" d="M 550 4863 
L 1875 4863 
L 1875 4416 
L 1125 4416 
L 1125 -397 
L 1875 -397 
L 1875 -844 
L 550 -844 
L 550 4863 
z
" transform="scale(0.015625)"/>
       <path id="DejaVuSans-6d" d="M 3328 2828 
Q 3544 3216 3844 3400 
Q 4144 3584 4550 3584 
Q 5097 3584 5394 3201 
Q 5691 2819 5691 2113 
L 5691 0 
L 5113 0 
L 5113 2094 
Q 5113 2597 4934 2840 
Q 4756 3084 4391 3084 
Q 3944 3084 3684 2787 
Q 3425 2491 3425 1978 
L 3425 0 
L 2847 0 
L 2847 2094 
Q 2847 2600 2669 2842 
Q 2491 3084 2119 3084 
Q 1678 3084 1418 2786 
Q 1159 2488 1159 1978 
L 1159 0 
L 581 0 
L 581 3500 
L 1159 3500 
L 1159 2956 
Q 1356 3278 1631 3431 
Q 1906 3584 2284 3584 
Q 2666 3584 2933 3390 
Q 3200 3197 3328 2828 
z
" transform="scale(0.015625)"/>
       <path id="DejaVuSans-5d" d="M 1947 4863 
L 1947 -844 
L 622 -844 
L 622 -397 
L 1369 -397 
L 1369 4416 
L 622 4416 
L 622 4863 
L 1947 4863 
z
" transform="scale(0.015625)"/>
      </defs>
      <use xlink:href="#DejaVuSans-78"/>
      <use xlink:href="#DejaVuSans-20" transform="translate(59.179688 0)"/>
      <use xlink:href="#DejaVuSans-5b" transform="translate(90.966797 0)"/>
      <use xlink:href="#DejaVuSans-6d" transform="translate(129.980469 0)"/>
      <use xlink:href="#DejaVuSans-5d" transform="translate(227.392578 0)"/>
     </g>
    </g>
   </g>
   <g id="matplotlib.axis_2">
    <g id="ytick_1">
     <g id="line2d_7">
      <defs>
       <path id="m0b17b941bd" d="M 0 0 
L -3.5 0 
" style="stroke: #000000; stroke-width: 0.8"/>
      </defs>
      <g>
       <use xlink:href="#m0b17b941bd" x="46.965625" y="212.681496" style="stroke: #000000; stroke-width: 0.8"/>
      </g>
     </g>
     <g id="text_8">
      <!-- 0 -->
      <g transform="translate(33.603125 216.480715) scale(0.1 -0.1)">
       <use xlink:href="#DejaVuSans-30"/>
      </g>
     </g>
    </g>
    <g id="ytick_2">
     <g id="line2d_8">
      <g>
       <use xlink:href="#m0b17b941bd" x="46.965625" y="182.328553" style="stroke: #000000; stroke-width: 0.8"/>
      </g>
     </g>
     <g id="text_9">
      <!-- 100 -->
      <g transform="translate(20.878125 186.127772) scale(0.1 -0.1)">
       <use xlink:href="#DejaVuSans-31"/>
       <use xlink:href="#DejaVuSans-30" transform="translate(63.623047 0)"/>
       <use xlink:href="#DejaVuSans-30" transform="translate(127.246094 0)"/>
      </g>
     </g>
    </g>
    <g id="ytick_3">
     <g id="line2d_9">
      <g>
       <use xlink:href="#m0b17b941bd" x="46.965625" y="151.97561" style="stroke: #000000; stroke-width: 0.8"/>
      </g>
     </g>
     <g id="text_10">
      <!-- 200 -->
      <g transform="translate(20.878125 155.774829) scale(0.1 -0.1)">
       <use xlink:href="#DejaVuSans-32"/>
       <use xlink:href="#DejaVuSans-30" transform="translate(63.623047 0)"/>
       <use xlink:href="#DejaVuSans-30" transform="translate(127.246094 0)"/>
      </g>
     </g>
    </g>
    <g id="ytick_4">
     <g id="line2d_10">
      <g>
       <use xlink:href="#m0b17b941bd" x="46.965625" y="121.622667" style="stroke: #000000; stroke-width: 0.8"/>
      </g>
     </g>
     <g id="text_11">
      <!-- 300 -->
      <g transform="translate(20.878125 125.421885) scale(0.1 -0.1)">
       <defs>
        <path id="DejaVuSans-33" d="M 2597 2516 
Q 3050 2419 3304 2112 
Q 3559 1806 3559 1356 
Q 3559 666 3084 287 
Q 2609 -91 1734 -91 
Q 1441 -91 1130 -33 
Q 819 25 488 141 
L 488 750 
Q 750 597 1062 519 
Q 1375 441 1716 441 
Q 2309 441 2620 675 
Q 2931 909 2931 1356 
Q 2931 1769 2642 2001 
Q 2353 2234 1838 2234 
L 1294 2234 
L 1294 2753 
L 1863 2753 
Q 2328 2753 2575 2939 
Q 2822 3125 2822 3475 
Q 2822 3834 2567 4026 
Q 2313 4219 1838 4219 
Q 1578 4219 1281 4162 
Q 984 4106 628 3988 
L 628 4550 
Q 988 4650 1302 4700 
Q 1616 4750 1894 4750 
Q 2613 4750 3031 4423 
Q 3450 4097 3450 3541 
Q 3450 3153 3228 2886 
Q 3006 2619 2597 2516 
z
" transform="scale(0.015625)"/>
       </defs>
       <use xlink:href="#DejaVuSans-33"/>
       <use xlink:href="#DejaVuSans-30" transform="translate(63.623047 0)"/>
       <use xlink:href="#DejaVuSans-30" transform="translate(127.246094 0)"/>
      </g>
     </g>
    </g>
    <g id="ytick_5">
     <g id="line2d_11">
      <g>
       <use xlink:href="#m0b17b941bd" x="46.965625" y="91.269723" style="stroke: #000000; stroke-width: 0.8"/>
      </g>
     </g>
     <g id="text_12">
      <!-- 400 -->
      <g transform="translate(20.878125 95.068942) scale(0.1 -0.1)">
       <use xlink:href="#DejaVuSans-34"/>
       <use xlink:href="#DejaVuSans-30" transform="translate(63.623047 0)"/>
       <use xlink:href="#DejaVuSans-30" transform="translate(127.246094 0)"/>
      </g>
     </g>
    </g>
    <g id="ytick_6">
     <g id="line2d_12">
      <g>
       <use xlink:href="#m0b17b941bd" x="46.965625" y="60.91678" style="stroke: #000000; stroke-width: 0.8"/>
      </g>
     </g>
     <g id="text_13">
      <!-- 500 -->
      <g transform="translate(20.878125 64.715999) scale(0.1 -0.1)">
       <defs>
        <path id="DejaVuSans-35" d="M 691 4666 
L 3169 4666 
L 3169 4134 
L 1269 4134 
L 1269 2991 
Q 1406 3038 1543 3061 
Q 1681 3084 1819 3084 
Q 2600 3084 3056 2656 
Q 3513 2228 3513 1497 
Q 3513 744 3044 326 
Q 2575 -91 1722 -91 
Q 1428 -91 1123 -41 
Q 819 9 494 109 
L 494 744 
Q 775 591 1075 516 
Q 1375 441 1709 441 
Q 2250 441 2565 725 
Q 2881 1009 2881 1497 
Q 2881 1984 2565 2268 
Q 2250 2553 1709 2553 
Q 1456 2553 1204 2497 
Q 953 2441 691 2322 
L 691 4666 
z
" transform="scale(0.015625)"/>
       </defs>
       <use xlink:href="#DejaVuSans-35"/>
       <use xlink:href="#DejaVuSans-30" transform="translate(63.623047 0)"/>
       <use xlink:href="#DejaVuSans-30" transform="translate(127.246094 0)"/>
      </g>
     </g>
    </g>
    <g id="ytick_7">
     <g id="line2d_13">
      <g>
       <use xlink:href="#m0b17b941bd" x="46.965625" y="30.563837" style="stroke: #000000; stroke-width: 0.8"/>
      </g>
     </g>
     <g id="text_14">
      <!-- 600 -->
      <g transform="translate(20.878125 34.363056) scale(0.1 -0.1)">
       <use xlink:href="#DejaVuSans-36"/>
       <use xlink:href="#DejaVuSans-30" transform="translate(63.623047 0)"/>
       <use xlink:href="#DejaVuSans-30" transform="translate(127.246094 0)"/>
      </g>
     </g>
    </g>
    <g id="text_15">
     <!-- [counts] -->
     <g transform="translate(14.798438 138.6925) rotate(-90) scale(0.1 -0.1)">
      <defs>
       <path id="DejaVuSans-63" d="M 3122 3366 
L 3122 2828 
Q 2878 2963 2633 3030 
Q 2388 3097 2138 3097 
Q 1578 3097 1268 2742 
Q 959 2388 959 1747 
Q 959 1106 1268 751 
Q 1578 397 2138 397 
Q 2388 397 2633 464 
Q 2878 531 3122 666 
L 3122 134 
Q 2881 22 2623 -34 
Q 2366 -91 2075 -91 
Q 1284 -91 818 406 
Q 353 903 353 1747 
Q 353 2603 823 3093 
Q 1294 3584 2113 3584 
Q 2378 3584 2631 3529 
Q 2884 3475 3122 3366 
z
" transform="scale(0.015625)"/>
       <path id="DejaVuSans-6f" d="M 1959 3097 
Q 1497 3097 1228 2736 
Q 959 2375 959 1747 
Q 959 1119 1226 758 
Q 1494 397 1959 397 
Q 2419 397 2687 759 
Q 2956 1122 2956 1747 
Q 2956 2369 2687 2733 
Q 2419 3097 1959 3097 
z
M 1959 3584 
Q 2709 3584 3137 3096 
Q 3566 2609 3566 1747 
Q 3566 888 3137 398 
Q 2709 -91 1959 -91 
Q 1206 -91 779 398 
Q 353 888 353 1747 
Q 353 2609 779 3096 
Q 1206 3584 1959 3584 
z
" transform="scale(0.015625)"/>
       <path id="DejaVuSans-75" d="M 544 1381 
L 544 3500 
L 1119 3500 
L 1119 1403 
Q 1119 906 1312 657 
Q 1506 409 1894 409 
Q 2359 409 2629 706 
Q 2900 1003 2900 1516 
L 2900 3500 
L 3475 3500 
L 3475 0 
L 2900 0 
L 2900 538 
Q 2691 219 2414 64 
Q 2138 -91 1772 -91 
Q 1169 -91 856 284 
Q 544 659 544 1381 
z
M 1991 3584 
L 1991 3584 
z
" transform="scale(0.015625)"/>
       <path id="DejaVuSans-6e" d="M 3513 2113 
L 3513 0 
L 2938 0 
L 2938 2094 
Q 2938 2591 2744 2837 
Q 2550 3084 2163 3084 
Q 1697 3084 1428 2787 
Q 1159 2491 1159 1978 
L 1159 0 
L 581 0 
L 581 3500 
L 1159 3500 
L 1159 2956 
Q 1366 3272 1645 3428 
Q 1925 3584 2291 3584 
Q 2894 3584 3203 3211 
Q 3513 2838 3513 2113 
z
" transform="scale(0.015625)"/>
       <path id="DejaVuSans-74" d="M 1172 4494 
L 1172 3500 
L 2356 3500 
L 2356 3053 
L 1172 3053 
L 1172 1153 
Q 1172 725 1289 603 
Q 1406 481 1766 481 
L 2356 481 
L 2356 0 
L 1766 0 
Q 1100 0 847 248 
Q 594 497 594 1153 
L 594 3053 
L 172 3053 
L 172 3500 
L 594 3500 
L 594 4494 
L 1172 4494 
z
" transform="scale(0.015625)"/>
       <path id="DejaVuSans-73" d="M 2834 3397 
L 2834 2853 
Q 2591 2978 2328 3040 
Q 2066 3103 1784 3103 
Q 1356 3103 1142 2972 
Q 928 2841 928 2578 
Q 928 2378 1081 2264 
Q 1234 2150 1697 2047 
L 1894 2003 
Q 2506 1872 2764 1633 
Q 3022 1394 3022 966 
Q 3022 478 2636 193 
Q 2250 -91 1575 -91 
Q 1294 -91 989 -36 
Q 684 19 347 128 
L 347 722 
Q 666 556 975 473 
Q 1284 391 1588 391 
Q 1994 391 2212 530 
Q 2431 669 2431 922 
Q 2431 1156 2273 1281 
Q 2116 1406 1581 1522 
L 1381 1569 
Q 847 1681 609 1914 
Q 372 2147 372 2553 
Q 372 3047 722 3315 
Q 1072 3584 1716 3584 
Q 2034 3584 2315 3537 
Q 2597 3491 2834 3397 
z
" transform="scale(0.015625)"/>
      </defs>
      <use xlink:href="#DejaVuSans-5b"/>
      <use xlink:href="#DejaVuSans-63" transform="translate(39.013672 0)"/>
      <use xlink:href="#DejaVuSans-6f" transform="translate(93.994141 0)"/>
      <use xlink:href="#DejaVuSans-75" transform="translate(155.175781 0)"/>
      <use xlink:href="#DejaVuSans-6e" transform="translate(218.554688 0)"/>
      <use xlink:href="#DejaVuSans-74" transform="translate(281.933594 0)"/>
      <use xlink:href="#DejaVuSans-73" transform="translate(321.142578 0)"/>
      <use xlink:href="#DejaVuSans-5d" transform="translate(373.242188 0)"/>
     </g>
    </g>
   </g>
   <g id="line2d_14">
    <path d="M 62.183807 25.068712 
L 62.183807 25.068712 
L 69.988003 25.068712 
L 69.988003 72.77474 
L 77.792198 72.77474 
L 77.792198 58.947226 
L 85.596394 58.947226 
L 85.596394 92.4195 
L 93.40059 92.4195 
L 93.40059 114.29643 
L 101.204786 114.29643 
L 101.204786 112.709473 
L 109.008982 112.709473 
L 109.008982 123.856121 
L 116.813177 123.856121 
L 116.813177 138.523117 
L 124.617373 138.523117 
L 124.617373 143.379061 
L 132.421569 143.379061 
L 132.421569 152.960234 
L 140.225765 152.960234 
L 140.225765 160.115602 
L 148.029961 160.115602 
L 148.029961 164.777521 
L 155.834156 164.777521 
L 155.834156 171.15248 
L 163.638352 171.15248 
L 163.638352 175.081065 
L 171.442548 175.081065 
L 171.442548 187.484472 
L 179.246744 187.484472 
L 179.246744 183.99878 
L 187.05094 183.99878 
L 187.05094 192.661329 
L 194.855135 192.661329 
L 194.855135 191.557346 
L 202.659331 191.557346 
L 202.659331 194.326533 
L 210.463527 194.326533 
L 210.463527 194.395515 
L 218.267723 194.395515 
L 218.267723 197.762352 
L 226.071919 197.762352 
L 226.071919 201.383093 
L 233.876115 201.383093 
L 233.876115 202.513357 
L 241.68031 202.513357 
L 241.68031 202.705285 
L 249.484506 202.705285 
L 249.484506 203.13853 
L 257.288702 203.13853 
L 257.288702 205.45819 
L 265.092898 205.45819 
L 265.092898 206.114283 
L 272.897094 206.114283 
L 272.897094 207.346823 
L 280.701289 207.346823 
L 280.701289 207.556292 
L 288.505485 207.556292 
L 288.505485 208.522802 
L 296.309681 208.522802 
L 296.309681 208.605597 
L 304.113877 208.605597 
L 304.113877 209.45416 
L 311.918073 209.45416 
L 311.918073 210.022395 
L 319.722268 210.022395 
L 319.722268 210.172959 
L 327.526464 210.172959 
L 327.526464 210.405447 
L 335.33066 210.405447 
L 335.33066 210.446613 
L 343.134856 210.446613 
L 343.134856 210.935282 
L 350.939052 210.935282 
L 350.939052 211.149843 
L 358.743247 211.149843 
L 358.743247 211.337781 
L 366.547443 211.337781 
" clip-path="url(#pd9e39e829a)" style="fill: none; stroke: #1f77b4; stroke-width: 1.5; stroke-linecap: square"/>
   </g>
   <g id="LineCollection_1">
    <path d="M 66.085905 32.857423 
L 66.085905 17.28 
" clip-path="url(#pd9e39e829a)" style="fill: none; stroke: #1f77b4; stroke-width: 1.5"/>
    <path d="M 73.890101 79.971701 
L 73.890101 65.577779 
" clip-path="url(#pd9e39e829a)" style="fill: none; stroke: #1f77b4; stroke-width: 1.5"/>
    <path d="M 81.694296 66.95362 
L 81.694296 50.940832 
" clip-path="url(#pd9e39e829a)" style="fill: none; stroke: #1f77b4; stroke-width: 1.5"/>
    <path d="M 89.498492 99.944717 
L 89.498492 84.894282 
" clip-path="url(#pd9e39e829a)" style="fill: none; stroke: #1f77b4; stroke-width: 1.5"/>
    <path d="M 97.302688 121.597738 
L 97.302688 106.995123 
" clip-path="url(#pd9e39e829a)" style="fill: none; stroke: #1f77b4; stroke-width: 1.5"/>
    <path d="M 105.106884 120.561047 
L 105.106884 104.857899 
" clip-path="url(#pd9e39e829a)" style="fill: none; stroke: #1f77b4; stroke-width: 1.5"/>
    <path d="M 112.91108 131.735491 
L 112.91108 115.976752 
" clip-path="url(#pd9e39e829a)" style="fill: none; stroke: #1f77b4; stroke-width: 1.5"/>
    <path d="M 120.715275 146.204791 
L 120.715275 130.841443 
" clip-path="url(#pd9e39e829a)" style="fill: none; stroke: #1f77b4; stroke-width: 1.5"/>
    <path d="M 128.519471 151.275932 
L 128.519471 135.48219 
" clip-path="url(#pd9e39e829a)" style="fill: none; stroke: #1f77b4; stroke-width: 1.5"/>
    <path d="M 136.323667 160.790375 
L 136.323667 145.130094 
" clip-path="url(#pd9e39e829a)" style="fill: none; stroke: #1f77b4; stroke-width: 1.5"/>
    <path d="M 144.127863 167.957633 
L 144.127863 152.27357 
" clip-path="url(#pd9e39e829a)" style="fill: none; stroke: #1f77b4; stroke-width: 1.5"/>
    <path d="M 151.932059 172.741855 
L 151.932059 156.813186 
" clip-path="url(#pd9e39e829a)" style="fill: none; stroke: #1f77b4; stroke-width: 1.5"/>
    <path d="M 159.736254 179.048656 
L 159.736254 163.256304 
" clip-path="url(#pd9e39e829a)" style="fill: none; stroke: #1f77b4; stroke-width: 1.5"/>
    <path d="M 167.54045 183.109865 
L 167.54045 167.052264 
" clip-path="url(#pd9e39e829a)" style="fill: none; stroke: #1f77b4; stroke-width: 1.5"/>
    <path d="M 175.344646 194.491149 
L 175.344646 180.477794 
" clip-path="url(#pd9e39e829a)" style="fill: none; stroke: #1f77b4; stroke-width: 1.5"/>
    <path d="M 183.148842 191.96404 
L 183.148842 176.03352 
" clip-path="url(#pd9e39e829a)" style="fill: none; stroke: #1f77b4; stroke-width: 1.5"/>
    <path d="M 190.953038 199.766305 
L 190.953038 185.556353 
" clip-path="url(#pd9e39e829a)" style="fill: none; stroke: #1f77b4; stroke-width: 1.5"/>
    <path d="M 198.757233 199.345803 
L 198.757233 183.768889 
" clip-path="url(#pd9e39e829a)" style="fill: none; stroke: #1f77b4; stroke-width: 1.5"/>
    <path d="M 206.561429 202.044521 
L 206.561429 186.608545 
" clip-path="url(#pd9e39e829a)" style="fill: none; stroke: #1f77b4; stroke-width: 1.5"/>
    <path d="M 214.365625 202.605799 
L 214.365625 186.185231 
" clip-path="url(#pd9e39e829a)" style="fill: none; stroke: #1f77b4; stroke-width: 1.5"/>
    <path d="M 222.169821 205.663094 
L 222.169821 189.861611 
" clip-path="url(#pd9e39e829a)" style="fill: none; stroke: #1f77b4; stroke-width: 1.5"/>
    <path d="M 229.974017 208.721504 
L 229.974017 194.044682 
" clip-path="url(#pd9e39e829a)" style="fill: none; stroke: #1f77b4; stroke-width: 1.5"/>
    <path d="M 237.778212 209.955783 
L 237.778212 195.07093 
" clip-path="url(#pd9e39e829a)" style="fill: none; stroke: #1f77b4; stroke-width: 1.5"/>
    <path d="M 245.582408 210.54613 
L 245.582408 194.864439 
" clip-path="url(#pd9e39e829a)" style="fill: none; stroke: #1f77b4; stroke-width: 1.5"/>
    <path d="M 253.386604 211.332453 
L 253.386604 194.944607 
" clip-path="url(#pd9e39e829a)" style="fill: none; stroke: #1f77b4; stroke-width: 1.5"/>
    <path d="M 261.1908 213.069461 
L 261.1908 197.846919 
" clip-path="url(#pd9e39e829a)" style="fill: none; stroke: #1f77b4; stroke-width: 1.5"/>
    <path d="M 268.994996 213.828915 
L 268.994996 198.399651 
" clip-path="url(#pd9e39e829a)" style="fill: none; stroke: #1f77b4; stroke-width: 1.5"/>
    <path d="M 276.799191 214.774268 
L 276.799191 199.919377 
" clip-path="url(#pd9e39e829a)" style="fill: none; stroke: #1f77b4; stroke-width: 1.5"/>
    <path d="M 284.603387 215.320293 
L 284.603387 199.792291 
" clip-path="url(#pd9e39e829a)" style="fill: none; stroke: #1f77b4; stroke-width: 1.5"/>
    <path d="M 292.407583 215.9563 
L 292.407583 201.089305 
" clip-path="url(#pd9e39e829a)" style="fill: none; stroke: #1f77b4; stroke-width: 1.5"/>
    <path d="M 300.211779 216.469887 
L 300.211779 200.741306 
" clip-path="url(#pd9e39e829a)" style="fill: none; stroke: #1f77b4; stroke-width: 1.5"/>
    <path d="M 308.015975 216.912909 
L 308.015975 201.995411 
" clip-path="url(#pd9e39e829a)" style="fill: none; stroke: #1f77b4; stroke-width: 1.5"/>
    <path d="M 315.82017 217.224912 
L 315.82017 202.819878 
" clip-path="url(#pd9e39e829a)" style="fill: none; stroke: #1f77b4; stroke-width: 1.5"/>
    <path d="M 323.624366 217.634589 
L 323.624366 202.71133 
" clip-path="url(#pd9e39e829a)" style="fill: none; stroke: #1f77b4; stroke-width: 1.5"/>
    <path d="M 331.428562 217.994127 
L 331.428562 202.816767 
" clip-path="url(#pd9e39e829a)" style="fill: none; stroke: #1f77b4; stroke-width: 1.5"/>
    <path d="M 339.232758 218.464474 
L 339.232758 202.428751 
" clip-path="url(#pd9e39e829a)" style="fill: none; stroke: #1f77b4; stroke-width: 1.5"/>
    <path d="M 347.036954 218.50933 
L 347.036954 203.361233 
" clip-path="url(#pd9e39e829a)" style="fill: none; stroke: #1f77b4; stroke-width: 1.5"/>
    <path d="M 354.841149 218.683404 
L 354.841149 203.616283 
" clip-path="url(#pd9e39e829a)" style="fill: none; stroke: #1f77b4; stroke-width: 1.5"/>
    <path d="M 362.645345 218.88 
L 362.645345 203.795563 
" clip-path="url(#pd9e39e829a)" style="fill: none; stroke: #1f77b4; stroke-width: 1.5"/>
   </g>
   <g id="line2d_15">
    <path d="M 62.183807 25.068712 
L 62.183807 25.068712 
L 69.988003 25.068712 
L 69.988003 72.77474 
L 77.792198 72.77474 
L 77.792198 58.947226 
L 85.596394 58.947226 
L 85.596394 92.4195 
L 93.40059 92.4195 
L 93.40059 114.29643 
L 101.204786 114.29643 
L 101.204786 112.709473 
L 109.008982 112.709473 
L 109.008982 123.856121 
L 116.813177 123.856121 
L 116.813177 138.523117 
L 124.617373 138.523117 
L 124.617373 143.379061 
L 132.421569 143.379061 
L 132.421569 152.960234 
L 140.225765 152.960234 
L 140.225765 160.115602 
L 148.029961 160.115602 
L 148.029961 164.777521 
L 155.834156 164.777521 
L 155.834156 171.15248 
L 163.638352 171.15248 
L 163.638352 175.081065 
L 171.442548 175.081065 
L 171.442548 187.484472 
L 179.246744 187.484472 
L 179.246744 183.99878 
L 187.05094 183.99878 
L 187.05094 192.661329 
L 194.855135 192.661329 
L 194.855135 191.557346 
L 202.659331 191.557346 
L 202.659331 194.326533 
L 210.463527 194.326533 
L 210.463527 194.395515 
L 218.267723 194.395515 
L 218.267723 197.762352 
L 226.071919 197.762352 
L 226.071919 201.383093 
L 233.876115 201.383093 
L 233.876115 202.513357 
L 241.68031 202.513357 
L 241.68031 202.705285 
L 249.484506 202.705285 
L 249.484506 203.13853 
L 257.288702 203.13853 
L 257.288702 205.45819 
L 265.092898 205.45819 
L 265.092898 206.114283 
L 272.897094 206.114283 
L 272.897094 207.346823 
L 280.701289 207.346823 
L 280.701289 207.556292 
L 288.505485 207.556292 
L 288.505485 208.522802 
L 296.309681 208.522802 
L 296.309681 208.605597 
L 304.113877 208.605597 
L 304.113877 209.45416 
L 311.918073 209.45416 
L 311.918073 210.022395 
L 319.722268 210.022395 
L 319.722268 210.172959 
L 327.526464 210.172959 
L 327.526464 210.405447 
L 335.33066 210.405447 
L 335.33066 210.446613 
L 343.134856 210.446613 
L 343.134856 210.935282 
L 350.939052 210.935282 
L 350.939052 211.149843 
L 358.743247 211.149843 
L 358.743247 211.337781 
L 366.547443 211.337781 
" clip-path="url(#pd9e39e829a)" style="fill: none; stroke: #ff7f0e; stroke-width: 1.5; stroke-linecap: square"/>
   </g>
   <g id="LineCollection_2">
    <path d="M 66.085905 32.857423 
L 66.085905 17.28 
" clip-path="url(#pd9e39e829a)" style="fill: none; stroke: #ff7f0e; stroke-width: 1.5"/>
    <path d="M 73.890101 79.971701 
L 73.890101 65.577779 
" clip-path="url(#pd9e39e829a)" style="fill: none; stroke: #ff7f0e; stroke-width: 1.5"/>
    <path d="M 81.694296 66.95362 
L 81.694296 50.940832 
" clip-path="url(#pd9e39e829a)" style="fill: none; stroke: #ff7f0e; stroke-width: 1.5"/>
    <path d="M 89.498492 99.944717 
L 89.498492 84.894282 
" clip-path="url(#pd9e39e829a)" style="fill: none; stroke: #ff7f0e; stroke-width: 1.5"/>
    <path d="M 97.302688 121.597738 
L 97.302688 106.995123 
" clip-path="url(#pd9e39e829a)" style="fill: none; stroke: #ff7f0e; stroke-width: 1.5"/>
    <path d="M 105.106884 120.561047 
L 105.106884 104.857899 
" clip-path="url(#pd9e39e829a)" style="fill: none; stroke: #ff7f0e; stroke-width: 1.5"/>
    <path d="M 112.91108 131.735491 
L 112.91108 115.976752 
" clip-path="url(#pd9e39e829a)" style="fill: none; stroke: #ff7f0e; stroke-width: 1.5"/>
    <path d="M 120.715275 146.204791 
L 120.715275 130.841443 
" clip-path="url(#pd9e39e829a)" style="fill: none; stroke: #ff7f0e; stroke-width: 1.5"/>
    <path d="M 128.519471 151.275932 
L 128.519471 135.48219 
" clip-path="url(#pd9e39e829a)" style="fill: none; stroke: #ff7f0e; stroke-width: 1.5"/>
    <path d="M 136.323667 160.790375 
L 136.323667 145.130094 
" clip-path="url(#pd9e39e829a)" style="fill: none; stroke: #ff7f0e; stroke-width: 1.5"/>
    <path d="M 144.127863 167.957633 
L 144.127863 152.27357 
" clip-path="url(#pd9e39e829a)" style="fill: none; stroke: #ff7f0e; stroke-width: 1.5"/>
    <path d="M 151.932059 172.741855 
L 151.932059 156.813186 
" clip-path="url(#pd9e39e829a)" style="fill: none; stroke: #ff7f0e; stroke-width: 1.5"/>
    <path d="M 159.736254 179.048656 
L 159.736254 163.256304 
" clip-path="url(#pd9e39e829a)" style="fill: none; stroke: #ff7f0e; stroke-width: 1.5"/>
    <path d="M 167.54045 183.109865 
L 167.54045 167.052264 
" clip-path="url(#pd9e39e829a)" style="fill: none; stroke: #ff7f0e; stroke-width: 1.5"/>
    <path d="M 175.344646 194.491149 
L 175.344646 180.477794 
" clip-path="url(#pd9e39e829a)" style="fill: none; stroke: #ff7f0e; stroke-width: 1.5"/>
    <path d="M 183.148842 191.96404 
L 183.148842 176.03352 
" clip-path="url(#pd9e39e829a)" style="fill: none; stroke: #ff7f0e; stroke-width: 1.5"/>
    <path d="M 190.953038 199.766305 
L 190.953038 185.556353 
" clip-path="url(#pd9e39e829a)" style="fill: none; stroke: #ff7f0e; stroke-width: 1.5"/>
    <path d="M 198.757233 199.345803 
L 198.757233 183.768889 
" clip-path="url(#pd9e39e829a)" style="fill: none; stroke: #ff7f0e; stroke-width: 1.5"/>
    <path d="M 206.561429 202.044521 
L 206.561429 186.608545 
" clip-path="url(#pd9e39e829a)" style="fill: none; stroke: #ff7f0e; stroke-width: 1.5"/>
    <path d="M 214.365625 202.605799 
L 214.365625 186.185231 
" clip-path="url(#pd9e39e829a)" style="fill: none; stroke: #ff7f0e; stroke-width: 1.5"/>
    <path d="M 222.169821 205.663094 
L 222.169821 189.861611 
" clip-path="url(#pd9e39e829a)" style="fill: none; stroke: #ff7f0e; stroke-width: 1.5"/>
    <path d="M 229.974017 208.721504 
L 229.974017 194.044682 
" clip-path="url(#pd9e39e829a)" style="fill: none; stroke: #ff7f0e; stroke-width: 1.5"/>
    <path d="M 237.778212 209.955783 
L 237.778212 195.07093 
" clip-path="url(#pd9e39e829a)" style="fill: none; stroke: #ff7f0e; stroke-width: 1.5"/>
    <path d="M 245.582408 210.54613 
L 245.582408 194.864439 
" clip-path="url(#pd9e39e829a)" style="fill: none; stroke: #ff7f0e; stroke-width: 1.5"/>
    <path d="M 253.386604 211.332453 
L 253.386604 194.944607 
" clip-path="url(#pd9e39e829a)" style="fill: none; stroke: #ff7f0e; stroke-width: 1.5"/>
    <path d="M 261.1908 213.069461 
L 261.1908 197.846919 
" clip-path="url(#pd9e39e829a)" style="fill: none; stroke: #ff7f0e; stroke-width: 1.5"/>
    <path d="M 268.994996 213.828915 
L 268.994996 198.399651 
" clip-path="url(#pd9e39e829a)" style="fill: none; stroke: #ff7f0e; stroke-width: 1.5"/>
    <path d="M 276.799191 214.774268 
L 276.799191 199.919377 
" clip-path="url(#pd9e39e829a)" style="fill: none; stroke: #ff7f0e; stroke-width: 1.5"/>
    <path d="M 284.603387 215.320293 
L 284.603387 199.792291 
" clip-path="url(#pd9e39e829a)" style="fill: none; stroke: #ff7f0e; stroke-width: 1.5"/>
    <path d="M 292.407583 215.9563 
L 292.407583 201.089305 
" clip-path="url(#pd9e39e829a)" style="fill: none; stroke: #ff7f0e; stroke-width: 1.5"/>
    <path d="M 300.211779 216.469887 
L 300.211779 200.741306 
" clip-path="url(#pd9e39e829a)" style="fill: none; stroke: #ff7f0e; stroke-width: 1.5"/>
    <path d="M 308.015975 216.912909 
L 308.015975 201.995411 
" clip-path="url(#pd9e39e829a)" style="fill: none; stroke: #ff7f0e; stroke-width: 1.5"/>
    <path d="M 315.82017 217.224912 
L 315.82017 202.819878 
" clip-path="url(#pd9e39e829a)" style="fill: none; stroke: #ff7f0e; stroke-width: 1.5"/>
    <path d="M 323.624366 217.634589 
L 323.624366 202.71133 
" clip-path="url(#pd9e39e829a)" style="fill: none; stroke: #ff7f0e; stroke-width: 1.5"/>
    <path d="M 331.428562 217.994127 
L 331.428562 202.816767 
" clip-path="url(#pd9e39e829a)" style="fill: none; stroke: #ff7f0e; stroke-width: 1.5"/>
    <path d="M 339.232758 218.464474 
L 339.232758 202.428751 
" clip-path="url(#pd9e39e829a)" style="fill: none; stroke: #ff7f0e; stroke-width: 1.5"/>
    <path d="M 347.036954 218.50933 
L 347.036954 203.361233 
" clip-path="url(#pd9e39e829a)" style="fill: none; stroke: #ff7f0e; stroke-width: 1.5"/>
    <path d="M 354.841149 218.683404 
L 354.841149 203.616283 
" clip-path="url(#pd9e39e829a)" style="fill: none; stroke: #ff7f0e; stroke-width: 1.5"/>
    <path d="M 362.645345 218.88 
L 362.645345 203.795563 
" clip-path="url(#pd9e39e829a)" style="fill: none; stroke: #ff7f0e; stroke-width: 1.5"/>
   </g>
   <g id="line2d_16">
    <path d="M 62.183807 25.068712 
L 62.183807 25.068712 
L 69.988003 25.068712 
L 69.988003 72.77474 
L 77.792198 72.77474 
L 77.792198 58.947226 
L 85.596394 58.947226 
L 85.596394 92.4195 
L 93.40059 92.4195 
L 93.40059 114.29643 
L 101.204786 114.29643 
L 101.204786 112.709473 
L 109.008982 112.709473 
L 109.008982 123.856121 
L 116.813177 123.856121 
L 116.813177 138.523117 
L 124.617373 138.523117 
L 124.617373 143.379061 
L 132.421569 143.379061 
L 132.421569 152.960234 
L 140.225765 152.960234 
L 140.225765 160.115602 
L 148.029961 160.115602 
L 148.029961 164.777521 
L 155.834156 164.777521 
L 155.834156 171.15248 
L 163.638352 171.15248 
L 163.638352 175.081065 
L 171.442548 175.081065 
L 171.442548 187.484472 
L 179.246744 187.484472 
L 179.246744 183.99878 
L 187.05094 183.99878 
L 187.05094 192.661329 
L 194.855135 192.661329 
L 194.855135 191.557346 
L 202.659331 191.557346 
L 202.659331 194.326533 
L 210.463527 194.326533 
L 210.463527 194.395515 
L 218.267723 194.395515 
L 218.267723 197.762352 
L 226.071919 197.762352 
L 226.071919 201.383093 
L 233.876115 201.383093 
L 233.876115 202.513357 
L 241.68031 202.513357 
L 241.68031 202.705285 
L 249.484506 202.705285 
L 249.484506 203.13853 
L 257.288702 203.13853 
L 257.288702 205.45819 
L 265.092898 205.45819 
L 265.092898 206.114283 
L 272.897094 206.114283 
L 272.897094 207.346823 
L 280.701289 207.346823 
L 280.701289 207.556292 
L 288.505485 207.556292 
L 288.505485 208.522802 
L 296.309681 208.522802 
L 296.309681 208.605597 
L 304.113877 208.605597 
L 304.113877 209.45416 
L 311.918073 209.45416 
L 311.918073 210.022395 
L 319.722268 210.022395 
L 319.722268 210.172959 
L 327.526464 210.172959 
L 327.526464 210.405447 
L 335.33066 210.405447 
L 335.33066 210.446613 
L 343.134856 210.446613 
L 343.134856 210.935282 
L 350.939052 210.935282 
L 350.939052 211.149843 
L 358.743247 211.149843 
L 358.743247 211.337781 
L 366.547443 211.337781 
" clip-path="url(#pd9e39e829a)" style="fill: none; stroke: #2ca02c; stroke-width: 1.5; stroke-linecap: square"/>
   </g>
   <g id="LineCollection_3">
    <path d="M 66.085905 32.857423 
L 66.085905 17.28 
" clip-path="url(#pd9e39e829a)" style="fill: none; stroke: #2ca02c; stroke-width: 1.5"/>
    <path d="M 73.890101 79.971701 
L 73.890101 65.577779 
" clip-path="url(#pd9e39e829a)" style="fill: none; stroke: #2ca02c; stroke-width: 1.5"/>
    <path d="M 81.694296 66.95362 
L 81.694296 50.940832 
" clip-path="url(#pd9e39e829a)" style="fill: none; stroke: #2ca02c; stroke-width: 1.5"/>
    <path d="M 89.498492 99.944717 
L 89.498492 84.894282 
" clip-path="url(#pd9e39e829a)" style="fill: none; stroke: #2ca02c; stroke-width: 1.5"/>
    <path d="M 97.302688 121.597738 
L 97.302688 106.995123 
" clip-path="url(#pd9e39e829a)" style="fill: none; stroke: #2ca02c; stroke-width: 1.5"/>
    <path d="M 105.106884 120.561047 
L 105.106884 104.857899 
" clip-path="url(#pd9e39e829a)" style="fill: none; stroke: #2ca02c; stroke-width: 1.5"/>
    <path d="M 112.91108 131.735491 
L 112.91108 115.976752 
" clip-path="url(#pd9e39e829a)" style="fill: none; stroke: #2ca02c; stroke-width: 1.5"/>
    <path d="M 120.715275 146.204791 
L 120.715275 130.841443 
" clip-path="url(#pd9e39e829a)" style="fill: none; stroke: #2ca02c; stroke-width: 1.5"/>
    <path d="M 128.519471 151.275932 
L 128.519471 135.48219 
" clip-path="url(#pd9e39e829a)" style="fill: none; stroke: #2ca02c; stroke-width: 1.5"/>
    <path d="M 136.323667 160.790375 
L 136.323667 145.130094 
" clip-path="url(#pd9e39e829a)" style="fill: none; stroke: #2ca02c; stroke-width: 1.5"/>
    <path d="M 144.127863 167.957633 
L 144.127863 152.27357 
" clip-path="url(#pd9e39e829a)" style="fill: none; stroke: #2ca02c; stroke-width: 1.5"/>
    <path d="M 151.932059 172.741855 
L 151.932059 156.813186 
" clip-path="url(#pd9e39e829a)" style="fill: none; stroke: #2ca02c; stroke-width: 1.5"/>
    <path d="M 159.736254 179.048656 
L 159.736254 163.256304 
" clip-path="url(#pd9e39e829a)" style="fill: none; stroke: #2ca02c; stroke-width: 1.5"/>
    <path d="M 167.54045 183.109865 
L 167.54045 167.052264 
" clip-path="url(#pd9e39e829a)" style="fill: none; stroke: #2ca02c; stroke-width: 1.5"/>
    <path d="M 175.344646 194.491149 
L 175.344646 180.477794 
" clip-path="url(#pd9e39e829a)" style="fill: none; stroke: #2ca02c; stroke-width: 1.5"/>
    <path d="M 183.148842 191.96404 
L 183.148842 176.03352 
" clip-path="url(#pd9e39e829a)" style="fill: none; stroke: #2ca02c; stroke-width: 1.5"/>
    <path d="M 190.953038 199.766305 
L 190.953038 185.556353 
" clip-path="url(#pd9e39e829a)" style="fill: none; stroke: #2ca02c; stroke-width: 1.5"/>
    <path d="M 198.757233 199.345803 
L 198.757233 183.768889 
" clip-path="url(#pd9e39e829a)" style="fill: none; stroke: #2ca02c; stroke-width: 1.5"/>
    <path d="M 206.561429 202.044521 
L 206.561429 186.608545 
" clip-path="url(#pd9e39e829a)" style="fill: none; stroke: #2ca02c; stroke-width: 1.5"/>
    <path d="M 214.365625 202.605799 
L 214.365625 186.185231 
" clip-path="url(#pd9e39e829a)" style="fill: none; stroke: #2ca02c; stroke-width: 1.5"/>
    <path d="M 222.169821 205.663094 
L 222.169821 189.861611 
" clip-path="url(#pd9e39e829a)" style="fill: none; stroke: #2ca02c; stroke-width: 1.5"/>
    <path d="M 229.974017 208.721504 
L 229.974017 194.044682 
" clip-path="url(#pd9e39e829a)" style="fill: none; stroke: #2ca02c; stroke-width: 1.5"/>
    <path d="M 237.778212 209.955783 
L 237.778212 195.07093 
" clip-path="url(#pd9e39e829a)" style="fill: none; stroke: #2ca02c; stroke-width: 1.5"/>
    <path d="M 245.582408 210.54613 
L 245.582408 194.864439 
" clip-path="url(#pd9e39e829a)" style="fill: none; stroke: #2ca02c; stroke-width: 1.5"/>
    <path d="M 253.386604 211.332453 
L 253.386604 194.944607 
" clip-path="url(#pd9e39e829a)" style="fill: none; stroke: #2ca02c; stroke-width: 1.5"/>
    <path d="M 261.1908 213.069461 
L 261.1908 197.846919 
" clip-path="url(#pd9e39e829a)" style="fill: none; stroke: #2ca02c; stroke-width: 1.5"/>
    <path d="M 268.994996 213.828915 
L 268.994996 198.399651 
" clip-path="url(#pd9e39e829a)" style="fill: none; stroke: #2ca02c; stroke-width: 1.5"/>
    <path d="M 276.799191 214.774268 
L 276.799191 199.919377 
" clip-path="url(#pd9e39e829a)" style="fill: none; stroke: #2ca02c; stroke-width: 1.5"/>
    <path d="M 284.603387 215.320293 
L 284.603387 199.792291 
" clip-path="url(#pd9e39e829a)" style="fill: none; stroke: #2ca02c; stroke-width: 1.5"/>
    <path d="M 292.407583 215.9563 
L 292.407583 201.089305 
" clip-path="url(#pd9e39e829a)" style="fill: none; stroke: #2ca02c; stroke-width: 1.5"/>
    <path d="M 300.211779 216.469887 
L 300.211779 200.741306 
" clip-path="url(#pd9e39e829a)" style="fill: none; stroke: #2ca02c; stroke-width: 1.5"/>
    <path d="M 308.015975 216.912909 
L 308.015975 201.995411 
" clip-path="url(#pd9e39e829a)" style="fill: none; stroke: #2ca02c; stroke-width: 1.5"/>
    <path d="M 315.82017 217.224912 
L 315.82017 202.819878 
" clip-path="url(#pd9e39e829a)" style="fill: none; stroke: #2ca02c; stroke-width: 1.5"/>
    <path d="M 323.624366 217.634589 
L 323.624366 202.71133 
" clip-path="url(#pd9e39e829a)" style="fill: none; stroke: #2ca02c; stroke-width: 1.5"/>
    <path d="M 331.428562 217.994127 
L 331.428562 202.816767 
" clip-path="url(#pd9e39e829a)" style="fill: none; stroke: #2ca02c; stroke-width: 1.5"/>
    <path d="M 339.232758 218.464474 
L 339.232758 202.428751 
" clip-path="url(#pd9e39e829a)" style="fill: none; stroke: #2ca02c; stroke-width: 1.5"/>
    <path d="M 347.036954 218.50933 
L 347.036954 203.361233 
" clip-path="url(#pd9e39e829a)" style="fill: none; stroke: #2ca02c; stroke-width: 1.5"/>
    <path d="M 354.841149 218.683404 
L 354.841149 203.616283 
" clip-path="url(#pd9e39e829a)" style="fill: none; stroke: #2ca02c; stroke-width: 1.5"/>
    <path d="M 362.645345 218.88 
L 362.645345 203.795563 
" clip-path="url(#pd9e39e829a)" style="fill: none; stroke: #2ca02c; stroke-width: 1.5"/>
   </g>
   <g id="patch_3">
    <path d="M 46.965625 228.96 
L 46.965625 7.2 
" style="fill: none; stroke: #000000; stroke-width: 0.8; stroke-linejoin: miter; stroke-linecap: square"/>
   </g>
   <g id="patch_4">
    <path d="M 381.765625 228.96 
L 381.765625 7.2 
" style="fill: none; stroke: #000000; stroke-width: 0.8; stroke-linejoin: miter; stroke-linecap: square"/>
   </g>
   <g id="patch_5">
    <path d="M 46.965625 228.96 
L 381.765625 228.96 
" style="fill: none; stroke: #000000; stroke-width: 0.8; stroke-linejoin: miter; stroke-linecap: square"/>
   </g>
   <g id="patch_6">
    <path d="M 46.965625 7.2 
L 381.765625 7.2 
" style="fill: none; stroke: #000000; stroke-width: 0.8; stroke-linejoin: miter; stroke-linecap: square"/>
   </g>
   <g id="legend_1">
    <g id="patch_7">
     <path d="M 292.073438 59.234375 
L 374.765625 59.234375 
Q 376.765625 59.234375 376.765625 57.234375 
L 376.765625 14.2 
Q 376.765625 12.2 374.765625 12.2 
L 292.073438 12.2 
Q 290.073438 12.2 290.073438 14.2 
L 290.073438 57.234375 
Q 290.073438 59.234375 292.073438 59.234375 
z
" style="fill: #ffffff; opacity: 0.8; stroke: #cccccc; stroke-linejoin: miter"/>
    </g>
    <g id="line2d_17">
     <path d="M 294.073438 20.298437 
L 294.073438 20.298437 
L 304.073438 20.298437 
L 304.073438 20.298437 
L 314.073438 20.298437 
" style="fill: none; stroke: #1f77b4; stroke-width: 1.5; stroke-linecap: square"/>
    </g>
    <g id="text_16">
     <!-- histogram -->
     <g transform="translate(322.073438 23.798437) scale(0.1 -0.1)">
      <defs>
       <path id="DejaVuSans-68" d="M 3513 2113 
L 3513 0 
L 2938 0 
L 2938 2094 
Q 2938 2591 2744 2837 
Q 2550 3084 2163 3084 
Q 1697 3084 1428 2787 
Q 1159 2491 1159 1978 
L 1159 0 
L 581 0 
L 581 4863 
L 1159 4863 
L 1159 2956 
Q 1366 3272 1645 3428 
Q 1925 3584 2291 3584 
Q 2894 3584 3203 3211 
Q 3513 2838 3513 2113 
z
" transform="scale(0.015625)"/>
       <path id="DejaVuSans-69" d="M 603 3500 
L 1178 3500 
L 1178 0 
L 603 0 
L 603 3500 
z
M 603 4863 
L 1178 4863 
L 1178 4134 
L 603 4134 
L 603 4863 
z
" transform="scale(0.015625)"/>
       <path id="DejaVuSans-67" d="M 2906 1791 
Q 2906 2416 2648 2759 
Q 2391 3103 1925 3103 
Q 1463 3103 1205 2759 
Q 947 2416 947 1791 
Q 947 1169 1205 825 
Q 1463 481 1925 481 
Q 2391 481 2648 825 
Q 2906 1169 2906 1791 
z
M 3481 434 
Q 3481 -459 3084 -895 
Q 2688 -1331 1869 -1331 
Q 1566 -1331 1297 -1286 
Q 1028 -1241 775 -1147 
L 775 -588 
Q 1028 -725 1275 -790 
Q 1522 -856 1778 -856 
Q 2344 -856 2625 -561 
Q 2906 -266 2906 331 
L 2906 616 
Q 2728 306 2450 153 
Q 2172 0 1784 0 
Q 1141 0 747 490 
Q 353 981 353 1791 
Q 353 2603 747 3093 
Q 1141 3584 1784 3584 
Q 2172 3584 2450 3431 
Q 2728 3278 2906 2969 
L 2906 3500 
L 3481 3500 
L 3481 434 
z
" transform="scale(0.015625)"/>
       <path id="DejaVuSans-72" d="M 2631 2963 
Q 2534 3019 2420 3045 
Q 2306 3072 2169 3072 
Q 1681 3072 1420 2755 
Q 1159 2438 1159 1844 
L 1159 0 
L 581 0 
L 581 3500 
L 1159 3500 
L 1159 2956 
Q 1341 3275 1631 3429 
Q 1922 3584 2338 3584 
Q 2397 3584 2469 3576 
Q 2541 3569 2628 3553 
L 2631 2963 
z
" transform="scale(0.015625)"/>
       <path id="DejaVuSans-61" d="M 2194 1759 
Q 1497 1759 1228 1600 
Q 959 1441 959 1056 
Q 959 750 1161 570 
Q 1363 391 1709 391 
Q 2188 391 2477 730 
Q 2766 1069 2766 1631 
L 2766 1759 
L 2194 1759 
z
M 3341 1997 
L 3341 0 
L 2766 0 
L 2766 531 
Q 2569 213 2275 61 
Q 1981 -91 1556 -91 
Q 1019 -91 701 211 
Q 384 513 384 1019 
Q 384 1609 779 1909 
Q 1175 2209 1959 2209 
L 2766 2209 
L 2766 2266 
Q 2766 2663 2505 2880 
Q 2244 3097 1772 3097 
Q 1472 3097 1187 3025 
Q 903 2953 641 2809 
L 641 3341 
Q 956 3463 1253 3523 
Q 1550 3584 1831 3584 
Q 2591 3584 2966 3190 
Q 3341 2797 3341 1997 
z
" transform="scale(0.015625)"/>
      </defs>
      <use xlink:href="#DejaVuSans-68"/>
      <use xlink:href="#DejaVuSans-69" transform="translate(63.378906 0)"/>
      <use xlink:href="#DejaVuSans-73" transform="translate(91.162109 0)"/>
      <use xlink:href="#DejaVuSans-74" transform="translate(143.261719 0)"/>
      <use xlink:href="#DejaVuSans-6f" transform="translate(182.470703 0)"/>
      <use xlink:href="#DejaVuSans-67" transform="translate(243.652344 0)"/>
      <use xlink:href="#DejaVuSans-72" transform="translate(307.128906 0)"/>
      <use xlink:href="#DejaVuSans-61" transform="translate(348.242188 0)"/>
      <use xlink:href="#DejaVuSans-6d" transform="translate(409.521484 0)"/>
     </g>
    </g>
    <g id="line2d_18">
     <path d="M 294.073438 34.976562 
L 294.073438 34.976562 
L 304.073438 34.976562 
L 304.073438 34.976562 
L 314.073438 34.976562 
" style="fill: none; stroke: #ff7f0e; stroke-width: 1.5; stroke-linecap: square"/>
    </g>
    <g id="text_17">
     <!-- groupby -->
     <g transform="translate(322.073438 38.476562) scale(0.1 -0.1)">
      <defs>
       <path id="DejaVuSans-70" d="M 1159 525 
L 1159 -1331 
L 581 -1331 
L 581 3500 
L 1159 3500 
L 1159 2969 
Q 1341 3281 1617 3432 
Q 1894 3584 2278 3584 
Q 2916 3584 3314 3078 
Q 3713 2572 3713 1747 
Q 3713 922 3314 415 
Q 2916 -91 2278 -91 
Q 1894 -91 1617 61 
Q 1341 213 1159 525 
z
M 3116 1747 
Q 3116 2381 2855 2742 
Q 2594 3103 2138 3103 
Q 1681 3103 1420 2742 
Q 1159 2381 1159 1747 
Q 1159 1113 1420 752 
Q 1681 391 2138 391 
Q 2594 391 2855 752 
Q 3116 1113 3116 1747 
z
" transform="scale(0.015625)"/>
       <path id="DejaVuSans-62" d="M 3116 1747 
Q 3116 2381 2855 2742 
Q 2594 3103 2138 3103 
Q 1681 3103 1420 2742 
Q 1159 2381 1159 1747 
Q 1159 1113 1420 752 
Q 1681 391 2138 391 
Q 2594 391 2855 752 
Q 3116 1113 3116 1747 
z
M 1159 2969 
Q 1341 3281 1617 3432 
Q 1894 3584 2278 3584 
Q 2916 3584 3314 3078 
Q 3713 2572 3713 1747 
Q 3713 922 3314 415 
Q 2916 -91 2278 -91 
Q 1894 -91 1617 61 
Q 1341 213 1159 525 
L 1159 0 
L 581 0 
L 581 4863 
L 1159 4863 
L 1159 2969 
z
" transform="scale(0.015625)"/>
       <path id="DejaVuSans-79" d="M 2059 -325 
Q 1816 -950 1584 -1140 
Q 1353 -1331 966 -1331 
L 506 -1331 
L 506 -850 
L 844 -850 
Q 1081 -850 1212 -737 
Q 1344 -625 1503 -206 
L 1606 56 
L 191 3500 
L 800 3500 
L 1894 763 
L 2988 3500 
L 3597 3500 
L 2059 -325 
z
" transform="scale(0.015625)"/>
      </defs>
      <use xlink:href="#DejaVuSans-67"/>
      <use xlink:href="#DejaVuSans-72" transform="translate(63.476562 0)"/>
      <use xlink:href="#DejaVuSans-6f" transform="translate(102.339844 0)"/>
      <use xlink:href="#DejaVuSans-75" transform="translate(163.521484 0)"/>
      <use xlink:href="#DejaVuSans-70" transform="translate(226.900391 0)"/>
      <use xlink:href="#DejaVuSans-62" transform="translate(290.376953 0)"/>
      <use xlink:href="#DejaVuSans-79" transform="translate(353.853516 0)"/>
     </g>
    </g>
    <g id="line2d_19">
     <path d="M 294.073438 49.654687 
L 294.073438 49.654687 
L 304.073438 49.654687 
L 304.073438 49.654687 
L 314.073438 49.654687 
" style="fill: none; stroke: #2ca02c; stroke-width: 1.5; stroke-linecap: square"/>
    </g>
    <g id="text_18">
     <!-- bin -->
     <g transform="translate(322.073438 53.154687) scale(0.1 -0.1)">
      <use xlink:href="#DejaVuSans-62"/>
      <use xlink:href="#DejaVuSans-69" transform="translate(63.476562 0)"/>
      <use xlink:href="#DejaVuSans-6e" transform="translate(91.259766 0)"/>
     </g>
    </g>
   </g>
  </g>
 </g>
 <defs>
  <clipPath id="pd9e39e829a">
   <rect x="46.965625" y="7.2" width="334.8" height="221.76"/>
  </clipPath>
 </defs>
</svg>
