<?xml version="1.0" encoding="utf-8" standalone="no"?>
<!DOCTYPE svg PUBLIC "-//W3C//DTD SVG 1.1//EN"
  "http://www.w3.org/Graphics/SVG/1.1/DTD/svg11.dtd">
<svg xmlns:xlink="http://www.w3.org/1999/xlink" width="284.630181pt" height="211.354375pt" viewBox="0 0 284.630181 211.354375" xmlns="http://www.w3.org/2000/svg" version="1.1">
 <metadata>
  <rdf:RDF xmlns:dc="http://purl.org/dc/elements/1.1/" xmlns:cc="http://creativecommons.org/ns#" xmlns:rdf="http://www.w3.org/1999/02/22-rdf-syntax-ns#">
   <cc:Work>
    <dc:type rdf:resource="http://purl.org/dc/dcmitype/StillImage"/>
    <dc:date>2025-12-19T10:16:08.984565</dc:date>
    <dc:format>image/svg+xml</dc:format>
    <dc:creator>
     <cc:Agent>
      <dc:title>Matplotlib v3.10.8, https://matplotlib.org/</dc:title>
     </cc:Agent>
    </dc:creator>
   </cc:Work>
  </rdf:RDF>
 </metadata>
 <defs>
  <style type="text/css">*{stroke-linejoin: round; stroke-linecap: butt}</style>
 </defs>
 <g id="figure_1">
  <g id="patch_1">
   <path d="M 0 211.354375 
L 284.630181 211.354375 
L 284.630181 0 
L 0 0 
z
" style="fill: #ffffff"/>
  </g>
  <g id="axes_1">
   <g id="patch_2">
    <path d="M 53.328125 173.52 
L 276.528125 173.52 
L 276.528125 7.2 
L 53.328125 7.2 
z
" style="fill: #ffffff"/>
   </g>
   <g id="matplotlib.axis_1">
    <g id="xtick_1">
     <g id="line2d_1">
      <defs>
       <path id="m8664890768" d="M 0 0 
L 0 3.5 
" style="stroke: #000000; stroke-width: 0.8"/>
      </defs>
      <g>
       <use xlink:href="#m8664890768" x="63.40648" y="173.52" style="stroke: #000000; stroke-width: 0.8"/>
      </g>
     </g>
     <g id="text_1">
      <!-- 0 -->
      <g transform="translate(60.22523 188.118438) scale(0.1 -0.1)">
       <defs>
        <path id="DejaVuSans-30" d="M 2034 4250 
Q 1547 4250 1301 3770 
Q 1056 3291 1056 2328 
Q 1056 1369 1301 889 
Q 1547 409 2034 409 
Q 2525 409 2770 889 
Q 3016 1369 3016 2328 
Q 3016 3291 2770 3770 
Q 2525 4250 2034 4250 
z
M 2034 4750 
Q 2819 4750 3233 4129 
Q 3647 3509 3647 2328 
Q 3647 1150 3233 529 
Q 2819 -91 2034 -91 
Q 1250 -91 836 529 
Q 422 1150 422 2328 
Q 422 3509 836 4129 
Q 1250 4750 2034 4750 
z
" transform="scale(0.015625)"/>
       </defs>
       <use xlink:href="#DejaVuSans-30"/>
      </g>
     </g>
    </g>
    <g id="xtick_2">
     <g id="line2d_2">
      <g>
       <use xlink:href="#m8664890768" x="96.956264" y="173.52" style="stroke: #000000; stroke-width: 0.8"/>
      </g>
     </g>
     <g id="text_2">
      <!-- 500 -->
      <g transform="translate(87.412514 188.118438) scale(0.1 -0.1)">
       <defs>
        <path id="DejaVuSans-35" d="M 691 4666 
L 3169 4666 
L 3169 4134 
L 1269 4134 
L 1269 2991 
Q 1406 3038 1543 3061 
Q 1681 3084 1819 3084 
Q 2600 3084 3056 2656 
Q 3513 2228 3513 1497 
Q 3513 744 3044 326 
Q 2575 -91 1722 -91 
Q 1428 -91 1123 -41 
Q 819 9 494 109 
L 494 744 
Q 775 591 1075 516 
Q 1375 441 1709 441 
Q 2250 441 2565 725 
Q 2881 1009 2881 1497 
Q 2881 1984 2565 2268 
Q 2250 2553 1709 2553 
Q 1456 2553 1204 2497 
Q 953 2441 691 2322 
L 691 4666 
z
" transform="scale(0.015625)"/>
       </defs>
       <use xlink:href="#DejaVuSans-35"/>
       <use xlink:href="#DejaVuSans-30" transform="translate(63.623047 0)"/>
       <use xlink:href="#DejaVuSans-30" transform="translate(127.246094 0)"/>
      </g>
     </g>
    </g>
    <g id="xtick_3">
     <g id="line2d_3">
      <g>
       <use xlink:href="#m8664890768" x="130.506047" y="173.52" style="stroke: #000000; stroke-width: 0.8"/>
      </g>
     </g>
     <g id="text_3">
      <!-- 1000 -->
      <g transform="translate(117.781047 188.118438) scale(0.1 -0.1)">
       <defs>
        <path id="DejaVuSans-31" d="M 794 531 
L 1825 531 
L 1825 4091 
L 703 3866 
L 703 4441 
L 1819 4666 
L 2450 4666 
L 2450 531 
L 3481 531 
L 3481 0 
L 794 0 
L 794 531 
z
" transform="scale(0.015625)"/>
       </defs>
       <use xlink:href="#DejaVuSans-31"/>
       <use xlink:href="#DejaVuSans-30" transform="translate(63.623047 0)"/>
       <use xlink:href="#DejaVuSans-30" transform="translate(127.246094 0)"/>
       <use xlink:href="#DejaVuSans-30" transform="translate(190.869141 0)"/>
      </g>
     </g>
    </g>
    <g id="xtick_4">
     <g id="line2d_4">
      <g>
       <use xlink:href="#m8664890768" x="164.055831" y="173.52" style="stroke: #000000; stroke-width: 0.8"/>
      </g>
     </g>
     <g id="text_4">
      <!-- 1500 -->
      <g transform="translate(151.330831 188.118438) scale(0.1 -0.1)">
       <use xlink:href="#DejaVuSans-31"/>
       <use xlink:href="#DejaVuSans-35" transform="translate(63.623047 0)"/>
       <use xlink:href="#DejaVuSans-30" transform="translate(127.246094 0)"/>
       <use xlink:href="#DejaVuSans-30" transform="translate(190.869141 0)"/>
      </g>
     </g>
    </g>
    <g id="xtick_5">
     <g id="line2d_5">
      <g>
       <use xlink:href="#m8664890768" x="197.605614" y="173.52" style="stroke: #000000; stroke-width: 0.8"/>
      </g>
     </g>
     <g id="text_5">
      <!-- 2000 -->
      <g transform="translate(184.880614 188.118438) scale(0.1 -0.1)">
       <defs>
        <path id="DejaVuSans-32" d="M 1228 531 
L 3431 531 
L 3431 0 
L 469 0 
L 469 531 
Q 828 903 1448 1529 
Q 2069 2156 2228 2338 
Q 2531 2678 2651 2914 
Q 2772 3150 2772 3378 
Q 2772 3750 2511 3984 
Q 2250 4219 1831 4219 
Q 1534 4219 1204 4116 
Q 875 4013 500 3803 
L 500 4441 
Q 881 4594 1212 4672 
Q 1544 4750 1819 4750 
Q 2544 4750 2975 4387 
Q 3406 4025 3406 3419 
Q 3406 3131 3298 2873 
Q 3191 2616 2906 2266 
Q 2828 2175 2409 1742 
Q 1991 1309 1228 531 
z
" transform="scale(0.015625)"/>
       </defs>
       <use xlink:href="#DejaVuSans-32"/>
       <use xlink:href="#DejaVuSans-30" transform="translate(63.623047 0)"/>
       <use xlink:href="#DejaVuSans-30" transform="translate(127.246094 0)"/>
       <use xlink:href="#DejaVuSans-30" transform="translate(190.869141 0)"/>
      </g>
     </g>
    </g>
    <g id="xtick_6">
     <g id="line2d_6">
      <g>
       <use xlink:href="#m8664890768" x="231.155398" y="173.52" style="stroke: #000000; stroke-width: 0.8"/>
      </g>
     </g>
     <g id="text_6">
      <!-- 2500 -->
      <g transform="translate(218.430398 188.118438) scale(0.1 -0.1)">
       <use xlink:href="#DejaVuSans-32"/>
       <use xlink:href="#DejaVuSans-35" transform="translate(63.623047 0)"/>
       <use xlink:href="#DejaVuSans-30" transform="translate(127.246094 0)"/>
       <use xlink:href="#DejaVuSans-30" transform="translate(190.869141 0)"/>
      </g>
     </g>
    </g>
    <g id="xtick_7">
     <g id="line2d_7">
      <g>
       <use xlink:href="#m8664890768" x="264.705181" y="173.52" style="stroke: #000000; stroke-width: 0.8"/>
      </g>
     </g>
     <g id="text_7">
      <!-- 3000 -->
      <g transform="translate(251.980181 188.118438) scale(0.1 -0.1)">
       <defs>
        <path id="DejaVuSans-33" d="M 2597 2516 
Q 3050 2419 3304 2112 
Q 3559 1806 3559 1356 
Q 3559 666 3084 287 
Q 2609 -91 1734 -91 
Q 1441 -91 1130 -33 
Q 819 25 488 141 
L 488 750 
Q 750 597 1062 519 
Q 1375 441 1716 441 
Q 2309 441 2620 675 
Q 2931 909 2931 1356 
Q 2931 1769 2642 2001 
Q 2353 2234 1838 2234 
L 1294 2234 
L 1294 2753 
L 1863 2753 
Q 2328 2753 2575 2939 
Q 2822 3125 2822 3475 
Q 2822 3834 2567 4026 
Q 2313 4219 1838 4219 
Q 1578 4219 1281 4162 
Q 984 4106 628 3988 
L 628 4550 
Q 988 4650 1302 4700 
Q 1616 4750 1894 4750 
Q 2613 4750 3031 4423 
Q 3450 4097 3450 3541 
Q 3450 3153 3228 2886 
Q 3006 2619 2597 2516 
z
" transform="scale(0.015625)"/>
       </defs>
       <use xlink:href="#DejaVuSans-33"/>
       <use xlink:href="#DejaVuSans-30" transform="translate(63.623047 0)"/>
       <use xlink:href="#DejaVuSans-30" transform="translate(127.246094 0)"/>
       <use xlink:href="#DejaVuSans-30" transform="translate(190.869141 0)"/>
      </g>
     </g>
    </g>
    <g id="text_8">
     <!-- x_square [m^2] -->
     <g transform="translate(124.705469 201.796563) scale(0.1 -0.1)">
      <defs>
       <path id="DejaVuSans-78" d="M 3513 3500 
L 2247 1797 
L 3578 0 
L 2900 0 
L 1881 1375 
L 863 0 
L 184 0 
L 1544 1831 
L 300 3500 
L 978 3500 
L 1906 2253 
L 2834 3500 
L 3513 3500 
z
" transform="scale(0.015625)"/>
       <path id="DejaVuSans-5f" d="M 3263 -1063 
L 3263 -1509 
L -63 -1509 
L -63 -1063 
L 3263 -1063 
z
" transform="scale(0.015625)"/>
       <path id="DejaVuSans-73" d="M 2834 3397 
L 2834 2853 
Q 2591 2978 2328 3040 
Q 2066 3103 1784 3103 
Q 1356 3103 1142 2972 
Q 928 2841 928 2578 
Q 928 2378 1081 2264 
Q 1234 2150 1697 2047 
L 1894 2003 
Q 2506 1872 2764 1633 
Q 3022 1394 3022 966 
Q 3022 478 2636 193 
Q 2250 -91 1575 -91 
Q 1294 -91 989 -36 
Q 684 19 347 128 
L 347 722 
Q 666 556 975 473 
Q 1284 391 1588 391 
Q 1994 391 2212 530 
Q 2431 669 2431 922 
Q 2431 1156 2273 1281 
Q 2116 1406 1581 1522 
L 1381 1569 
Q 847 1681 609 1914 
Q 372 2147 372 2553 
Q 372 3047 722 3315 
Q 1072 3584 1716 3584 
Q 2034 3584 2315 3537 
Q 2597 3491 2834 3397 
z
" transform="scale(0.015625)"/>
       <path id="DejaVuSans-71" d="M 947 1747 
Q 947 1113 1208 752 
Q 1469 391 1925 391 
Q 2381 391 2643 752 
Q 2906 1113 2906 1747 
Q 2906 2381 2643 2742 
Q 2381 3103 1925 3103 
Q 1469 3103 1208 2742 
Q 947 2381 947 1747 
z
M 2906 525 
Q 2725 213 2448 61 
Q 2172 -91 1784 -91 
Q 1150 -91 751 415 
Q 353 922 353 1747 
Q 353 2572 751 3078 
Q 1150 3584 1784 3584 
Q 2172 3584 2448 3432 
Q 2725 3281 2906 2969 
L 2906 3500 
L 3481 3500 
L 3481 -1331 
L 2906 -1331 
L 2906 525 
z
" transform="scale(0.015625)"/>
       <path id="DejaVuSans-75" d="M 544 1381 
L 544 3500 
L 1119 3500 
L 1119 1403 
Q 1119 906 1312 657 
Q 1506 409 1894 409 
Q 2359 409 2629 706 
Q 2900 1003 2900 1516 
L 2900 3500 
L 3475 3500 
L 3475 0 
L 2900 0 
L 2900 538 
Q 2691 219 2414 64 
Q 2138 -91 1772 -91 
Q 1169 -91 856 284 
Q 544 659 544 1381 
z
M 1991 3584 
L 1991 3584 
z
" transform="scale(0.015625)"/>
       <path id="DejaVuSans-61" d="M 2194 1759 
Q 1497 1759 1228 1600 
Q 959 1441 959 1056 
Q 959 750 1161 570 
Q 1363 391 1709 391 
Q 2188 391 2477 730 
Q 2766 1069 2766 1631 
L 2766 1759 
L 2194 1759 
z
M 3341 1997 
L 3341 0 
L 2766 0 
L 2766 531 
Q 2569 213 2275 61 
Q 1981 -91 1556 -91 
Q 1019 -91 701 211 
Q 384 513 384 1019 
Q 384 1609 779 1909 
Q 1175 2209 1959 2209 
L 2766 2209 
L 2766 2266 
Q 2766 2663 2505 2880 
Q 2244 3097 1772 3097 
Q 1472 3097 1187 3025 
Q 903 2953 641 2809 
L 641 3341 
Q 956 3463 1253 3523 
Q 1550 3584 1831 3584 
Q 2591 3584 2966 3190 
Q 3341 2797 3341 1997 
z
" transform="scale(0.015625)"/>
       <path id="DejaVuSans-72" d="M 2631 2963 
Q 2534 3019 2420 3045 
Q 2306 3072 2169 3072 
Q 1681 3072 1420 2755 
Q 1159 2438 1159 1844 
L 1159 0 
L 581 0 
L 581 3500 
L 1159 3500 
L 1159 2956 
Q 1341 3275 1631 3429 
Q 1922 3584 2338 3584 
Q 2397 3584 2469 3576 
Q 2541 3569 2628 3553 
L 2631 2963 
z
" transform="scale(0.015625)"/>
       <path id="DejaVuSans-65" d="M 3597 1894 
L 3597 1613 
L 953 1613 
Q 991 1019 1311 708 
Q 1631 397 2203 397 
Q 2534 397 2845 478 
Q 3156 559 3463 722 
L 3463 178 
Q 3153 47 2828 -22 
Q 2503 -91 2169 -91 
Q 1331 -91 842 396 
Q 353 884 353 1716 
Q 353 2575 817 3079 
Q 1281 3584 2069 3584 
Q 2775 3584 3186 3129 
Q 3597 2675 3597 1894 
z
M 3022 2063 
Q 3016 2534 2758 2815 
Q 2500 3097 2075 3097 
Q 1594 3097 1305 2825 
Q 1016 2553 972 2059 
L 3022 2063 
z
" transform="scale(0.015625)"/>
       <path id="DejaVuSans-20" transform="scale(0.015625)"/>
       <path id="DejaVuSans-5b" d="M 550 4863 
L 1875 4863 
L 1875 4416 
L 1125 4416 
L 1125 -397 
L 1875 -397 
L 1875 -844 
L 550 -844 
L 550 4863 
z
" transform="scale(0.015625)"/>
       <path id="DejaVuSans-6d" d="M 3328 2828 
Q 3544 3216 3844 3400 
Q 4144 3584 4550 3584 
Q 5097 3584 5394 3201 
Q 5691 2819 5691 2113 
L 5691 0 
L 5113 0 
L 5113 2094 
Q 5113 2597 4934 2840 
Q 4756 3084 4391 3084 
Q 3944 3084 3684 2787 
Q 3425 2491 3425 1978 
L 3425 0 
L 2847 0 
L 2847 2094 
Q 2847 2600 2669 2842 
Q 2491 3084 2119 3084 
Q 1678 3084 1418 2786 
Q 1159 2488 1159 1978 
L 1159 0 
L 581 0 
L 581 3500 
L 1159 3500 
L 1159 2956 
Q 1356 3278 1631 3431 
Q 1906 3584 2284 3584 
Q 2666 3584 2933 3390 
Q 3200 3197 3328 2828 
z
" transform="scale(0.015625)"/>
       <path id="DejaVuSans-5e" d="M 2988 4666 
L 4684 2925 
L 4056 2925 
L 2681 4159 
L 1306 2925 
L 678 2925 
L 2375 4666 
L 2988 4666 
z
" transform="scale(0.015625)"/>
       <path id="DejaVuSans-5d" d="M 1947 4863 
L 1947 -844 
L 622 -844 
L 622 -397 
L 1369 -397 
L 1369 4416 
L 622 4416 
L 622 4863 
L 1947 4863 
z
" transform="scale(0.015625)"/>
      </defs>
      <use xlink:href="#DejaVuSans-78"/>
      <use xlink:href="#DejaVuSans-5f" transform="translate(59.179688 0)"/>
      <use xlink:href="#DejaVuSans-73" transform="translate(109.179688 0)"/>
      <use xlink:href="#DejaVuSans-71" transform="translate(161.279297 0)"/>
      <use xlink:href="#DejaVuSans-75" transform="translate(224.755859 0)"/>
      <use xlink:href="#DejaVuSans-61" transform="translate(288.134766 0)"/>
      <use xlink:href="#DejaVuSans-72" transform="translate(349.414062 0)"/>
      <use xlink:href="#DejaVuSans-65" transform="translate(388.277344 0)"/>
      <use xlink:href="#DejaVuSans-20" transform="translate(449.800781 0)"/>
      <use xlink:href="#DejaVuSans-5b" transform="translate(481.587891 0)"/>
      <use xlink:href="#DejaVuSans-6d" transform="translate(520.601562 0)"/>
      <use xlink:href="#DejaVuSans-5e" transform="translate(618.013672 0)"/>
      <use xlink:href="#DejaVuSans-32" transform="translate(701.802734 0)"/>
      <use xlink:href="#DejaVuSans-5d" transform="translate(765.425781 0)"/>
     </g>
    </g>
   </g>
   <g id="matplotlib.axis_2">
    <g id="ytick_1">
     <g id="line2d_8">
      <defs>
       <path id="mf21baaaa06" d="M 0 0 
L -3.5 0 
" style="stroke: #000000; stroke-width: 0.8"/>
      </defs>
      <g>
       <use xlink:href="#mf21baaaa06" x="53.328125" y="166.01" style="stroke: #000000; stroke-width: 0.8"/>
      </g>
     </g>
     <g id="text_9">
      <!-- 0 -->
      <g transform="translate(39.965625 169.809219) scale(0.1 -0.1)">
       <use xlink:href="#DejaVuSans-30"/>
      </g>
     </g>
    </g>
    <g id="ytick_2">
     <g id="line2d_9">
      <g>
       <use xlink:href="#mf21baaaa06" x="53.328125" y="141.01" style="stroke: #000000; stroke-width: 0.8"/>
      </g>
     </g>
     <g id="text_10">
      <!-- 500 -->
      <g transform="translate(27.240625 144.809219) scale(0.1 -0.1)">
       <use xlink:href="#DejaVuSans-35"/>
       <use xlink:href="#DejaVuSans-30" transform="translate(63.623047 0)"/>
       <use xlink:href="#DejaVuSans-30" transform="translate(127.246094 0)"/>
      </g>
     </g>
    </g>
    <g id="ytick_3">
     <g id="line2d_10">
      <g>
       <use xlink:href="#mf21baaaa06" x="53.328125" y="116.01" style="stroke: #000000; stroke-width: 0.8"/>
      </g>
     </g>
     <g id="text_11">
      <!-- 1000 -->
      <g transform="translate(20.878125 119.809219) scale(0.1 -0.1)">
       <use xlink:href="#DejaVuSans-31"/>
       <use xlink:href="#DejaVuSans-30" transform="translate(63.623047 0)"/>
       <use xlink:href="#DejaVuSans-30" transform="translate(127.246094 0)"/>
       <use xlink:href="#DejaVuSans-30" transform="translate(190.869141 0)"/>
      </g>
     </g>
    </g>
    <g id="ytick_4">
     <g id="line2d_11">
      <g>
       <use xlink:href="#mf21baaaa06" x="53.328125" y="91.01" style="stroke: #000000; stroke-width: 0.8"/>
      </g>
     </g>
     <g id="text_12">
      <!-- 1500 -->
      <g transform="translate(20.878125 94.809219) scale(0.1 -0.1)">
       <use xlink:href="#DejaVuSans-31"/>
       <use xlink:href="#DejaVuSans-35" transform="translate(63.623047 0)"/>
       <use xlink:href="#DejaVuSans-30" transform="translate(127.246094 0)"/>
       <use xlink:href="#DejaVuSans-30" transform="translate(190.869141 0)"/>
      </g>
     </g>
    </g>
    <g id="ytick_5">
     <g id="line2d_12">
      <g>
       <use xlink:href="#mf21baaaa06" x="53.328125" y="66.01" style="stroke: #000000; stroke-width: 0.8"/>
      </g>
     </g>
     <g id="text_13">
      <!-- 2000 -->
      <g transform="translate(20.878125 69.809219) scale(0.1 -0.1)">
       <use xlink:href="#DejaVuSans-32"/>
       <use xlink:href="#DejaVuSans-30" transform="translate(63.623047 0)"/>
       <use xlink:href="#DejaVuSans-30" transform="translate(127.246094 0)"/>
       <use xlink:href="#DejaVuSans-30" transform="translate(190.869141 0)"/>
      </g>
     </g>
    </g>
    <g id="ytick_6">
     <g id="line2d_13">
      <g>
       <use xlink:href="#mf21baaaa06" x="53.328125" y="41.01" style="stroke: #000000; stroke-width: 0.8"/>
      </g>
     </g>
     <g id="text_14">
      <!-- 2500 -->
      <g transform="translate(20.878125 44.809219) scale(0.1 -0.1)">
       <use xlink:href="#DejaVuSans-32"/>
       <use xlink:href="#DejaVuSans-35" transform="translate(63.623047 0)"/>
       <use xlink:href="#DejaVuSans-30" transform="translate(127.246094 0)"/>
       <use xlink:href="#DejaVuSans-30" transform="translate(190.869141 0)"/>
      </g>
     </g>
    </g>
    <g id="ytick_7">
     <g id="line2d_14">
      <g>
       <use xlink:href="#mf21baaaa06" x="53.328125" y="16.01" style="stroke: #000000; stroke-width: 0.8"/>
      </g>
     </g>
     <g id="text_15">
      <!-- 3000 -->
      <g transform="translate(20.878125 19.809219) scale(0.1 -0.1)">
       <use xlink:href="#DejaVuSans-33"/>
       <use xlink:href="#DejaVuSans-30" transform="translate(63.623047 0)"/>
       <use xlink:href="#DejaVuSans-30" transform="translate(127.246094 0)"/>
       <use xlink:href="#DejaVuSans-30" transform="translate(190.869141 0)"/>
      </g>
     </g>
    </g>
    <g id="text_16">
     <!-- [m^2] -->
     <g transform="translate(14.798437 106.502969) rotate(-90) scale(0.1 -0.1)">
      <use xlink:href="#DejaVuSans-5b"/>
      <use xlink:href="#DejaVuSans-6d" transform="translate(39.013672 0)"/>
      <use xlink:href="#DejaVuSans-5e" transform="translate(136.425781 0)"/>
      <use xlink:href="#DejaVuSans-32" transform="translate(220.214844 0)"/>
      <use xlink:href="#DejaVuSans-5d" transform="translate(283.837891 0)"/>
     </g>
    </g>
   </g>
   <g id="line2d_15">
    <defs>
     <path id="mbd5c8524ef" d="M 0 3 
C 0.795609 3 1.55874 2.683901 2.12132 2.12132 
C 2.683901 1.55874 3 0.795609 3 0 
C 3 -0.795609 2.683901 -1.55874 2.12132 -2.12132 
C 1.55874 -2.683901 0.795609 -3 0 -3 
C -0.795609 -3 -1.55874 -2.683901 -2.12132 -2.12132 
C -2.683901 -1.55874 -3 -0.795609 -3 0 
C -3 0.795609 -2.683901 1.55874 -2.12132 2.12132 
C -1.55874 2.683901 -0.795609 3 0 3 
z
" style="stroke: #1f77b4"/>
    </defs>
    <g clip-path="url(#p85eab31f3c)">
     <use xlink:href="#mbd5c8524ef" x="63.47358" y="165.96" style="fill: #1f77b4; stroke: #1f77b4"/>
     <use xlink:href="#mbd5c8524ef" x="63.566743" y="165.890579" style="fill: #1f77b4; stroke: #1f77b4"/>
     <use xlink:href="#mbd5c8524ef" x="63.699833" y="165.791405" style="fill: #1f77b4; stroke: #1f77b4"/>
     <use xlink:href="#mbd5c8524ef" x="63.87285" y="165.662479" style="fill: #1f77b4; stroke: #1f77b4"/>
     <use xlink:href="#mbd5c8524ef" x="64.085794" y="165.503802" style="fill: #1f77b4; stroke: #1f77b4"/>
     <use xlink:href="#mbd5c8524ef" x="64.338665" y="165.315372" style="fill: #1f77b4; stroke: #1f77b4"/>
     <use xlink:href="#mbd5c8524ef" x="64.631463" y="165.09719" style="fill: #1f77b4; stroke: #1f77b4"/>
     <use xlink:href="#mbd5c8524ef" x="64.964188" y="164.849256" style="fill: #1f77b4; stroke: #1f77b4"/>
     <use xlink:href="#mbd5c8524ef" x="65.33684" y="164.57157" style="fill: #1f77b4; stroke: #1f77b4"/>
     <use xlink:href="#mbd5c8524ef" x="65.749419" y="164.264132" style="fill: #1f77b4; stroke: #1f77b4"/>
     <use xlink:href="#mbd5c8524ef" x="66.201926" y="163.926942" style="fill: #1f77b4; stroke: #1f77b4"/>
     <use xlink:href="#mbd5c8524ef" x="66.694359" y="163.56" style="fill: #1f77b4; stroke: #1f77b4"/>
     <use xlink:href="#mbd5c8524ef" x="67.226719" y="163.163306" style="fill: #1f77b4; stroke: #1f77b4"/>
     <use xlink:href="#mbd5c8524ef" x="67.799006" y="162.73686" style="fill: #1f77b4; stroke: #1f77b4"/>
     <use xlink:href="#mbd5c8524ef" x="68.41122" y="162.280661" style="fill: #1f77b4; stroke: #1f77b4"/>
     <use xlink:href="#mbd5c8524ef" x="69.063362" y="161.794711" style="fill: #1f77b4; stroke: #1f77b4"/>
     <use xlink:href="#mbd5c8524ef" x="69.75543" y="161.279008" style="fill: #1f77b4; stroke: #1f77b4"/>
     <use xlink:href="#mbd5c8524ef" x="70.487425" y="160.733554" style="fill: #1f77b4; stroke: #1f77b4"/>
     <use xlink:href="#mbd5c8524ef" x="71.259347" y="160.158347" style="fill: #1f77b4; stroke: #1f77b4"/>
     <use xlink:href="#mbd5c8524ef" x="72.071197" y="159.553388" style="fill: #1f77b4; stroke: #1f77b4"/>
     <use xlink:href="#mbd5c8524ef" x="72.922973" y="158.918678" style="fill: #1f77b4; stroke: #1f77b4"/>
     <use xlink:href="#mbd5c8524ef" x="73.814676" y="158.254215" style="fill: #1f77b4; stroke: #1f77b4"/>
     <use xlink:href="#mbd5c8524ef" x="74.746307" y="157.56" style="fill: #1f77b4; stroke: #1f77b4"/>
     <use xlink:href="#mbd5c8524ef" x="75.717864" y="156.836033" style="fill: #1f77b4; stroke: #1f77b4"/>
     <use xlink:href="#mbd5c8524ef" x="76.729349" y="156.082314" style="fill: #1f77b4; stroke: #1f77b4"/>
     <use xlink:href="#mbd5c8524ef" x="77.78076" y="155.298843" style="fill: #1f77b4; stroke: #1f77b4"/>
     <use xlink:href="#mbd5c8524ef" x="78.872098" y="154.48562" style="fill: #1f77b4; stroke: #1f77b4"/>
     <use xlink:href="#mbd5c8524ef" x="80.003364" y="153.642645" style="fill: #1f77b4; stroke: #1f77b4"/>
     <use xlink:href="#mbd5c8524ef" x="81.174556" y="152.769917" style="fill: #1f77b4; stroke: #1f77b4"/>
     <use xlink:href="#mbd5c8524ef" x="82.385676" y="151.867438" style="fill: #1f77b4; stroke: #1f77b4"/>
     <use xlink:href="#mbd5c8524ef" x="83.636722" y="150.935207" style="fill: #1f77b4; stroke: #1f77b4"/>
     <use xlink:href="#mbd5c8524ef" x="84.927696" y="149.973223" style="fill: #1f77b4; stroke: #1f77b4"/>
     <use xlink:href="#mbd5c8524ef" x="86.258596" y="148.981488" style="fill: #1f77b4; stroke: #1f77b4"/>
     <use xlink:href="#mbd5c8524ef" x="87.629424" y="147.96" style="fill: #1f77b4; stroke: #1f77b4"/>
     <use xlink:href="#mbd5c8524ef" x="89.040178" y="146.90876" style="fill: #1f77b4; stroke: #1f77b4"/>
     <use xlink:href="#mbd5c8524ef" x="90.49086" y="145.827769" style="fill: #1f77b4; stroke: #1f77b4"/>
     <use xlink:href="#mbd5c8524ef" x="91.981468" y="144.717025" style="fill: #1f77b4; stroke: #1f77b4"/>
     <use xlink:href="#mbd5c8524ef" x="93.512004" y="143.576529" style="fill: #1f77b4; stroke: #1f77b4"/>
     <use xlink:href="#mbd5c8524ef" x="95.082467" y="142.406281" style="fill: #1f77b4; stroke: #1f77b4"/>
     <use xlink:href="#mbd5c8524ef" x="96.692856" y="141.206281" style="fill: #1f77b4; stroke: #1f77b4"/>
     <use xlink:href="#mbd5c8524ef" x="98.343173" y="139.976529" style="fill: #1f77b4; stroke: #1f77b4"/>
     <use xlink:href="#mbd5c8524ef" x="100.033416" y="138.717025" style="fill: #1f77b4; stroke: #1f77b4"/>
     <use xlink:href="#mbd5c8524ef" x="101.763587" y="137.427769" style="fill: #1f77b4; stroke: #1f77b4"/>
     <use xlink:href="#mbd5c8524ef" x="103.533685" y="136.10876" style="fill: #1f77b4; stroke: #1f77b4"/>
     <use xlink:href="#mbd5c8524ef" x="105.343709" y="134.76" style="fill: #1f77b4; stroke: #1f77b4"/>
     <use xlink:href="#mbd5c8524ef" x="107.193661" y="133.381488" style="fill: #1f77b4; stroke: #1f77b4"/>
     <use xlink:href="#mbd5c8524ef" x="109.08354" y="131.973223" style="fill: #1f77b4; stroke: #1f77b4"/>
     <use xlink:href="#mbd5c8524ef" x="111.013346" y="130.535207" style="fill: #1f77b4; stroke: #1f77b4"/>
     <use xlink:href="#mbd5c8524ef" x="112.983078" y="129.067438" style="fill: #1f77b4; stroke: #1f77b4"/>
     <use xlink:href="#mbd5c8524ef" x="114.992738" y="127.569917" style="fill: #1f77b4; stroke: #1f77b4"/>
     <use xlink:href="#mbd5c8524ef" x="117.042325" y="126.042645" style="fill: #1f77b4; stroke: #1f77b4"/>
     <use xlink:href="#mbd5c8524ef" x="119.131839" y="124.48562" style="fill: #1f77b4; stroke: #1f77b4"/>
     <use xlink:href="#mbd5c8524ef" x="121.261279" y="122.898843" style="fill: #1f77b4; stroke: #1f77b4"/>
     <use xlink:href="#mbd5c8524ef" x="123.430647" y="121.282314" style="fill: #1f77b4; stroke: #1f77b4"/>
     <use xlink:href="#mbd5c8524ef" x="125.639942" y="119.636033" style="fill: #1f77b4; stroke: #1f77b4"/>
     <use xlink:href="#mbd5c8524ef" x="127.889164" y="117.96" style="fill: #1f77b4; stroke: #1f77b4"/>
     <use xlink:href="#mbd5c8524ef" x="130.178313" y="116.254215" style="fill: #1f77b4; stroke: #1f77b4"/>
     <use xlink:href="#mbd5c8524ef" x="132.507389" y="114.518678" style="fill: #1f77b4; stroke: #1f77b4"/>
     <use xlink:href="#mbd5c8524ef" x="134.876392" y="112.753388" style="fill: #1f77b4; stroke: #1f77b4"/>
     <use xlink:href="#mbd5c8524ef" x="137.285322" y="110.958347" style="fill: #1f77b4; stroke: #1f77b4"/>
     <use xlink:href="#mbd5c8524ef" x="139.734178" y="109.133554" style="fill: #1f77b4; stroke: #1f77b4"/>
     <use xlink:href="#mbd5c8524ef" x="142.222962" y="107.279008" style="fill: #1f77b4; stroke: #1f77b4"/>
     <use xlink:href="#mbd5c8524ef" x="144.751673" y="105.394711" style="fill: #1f77b4; stroke: #1f77b4"/>
     <use xlink:href="#mbd5c8524ef" x="147.320311" y="103.480661" style="fill: #1f77b4; stroke: #1f77b4"/>
     <use xlink:href="#mbd5c8524ef" x="149.928876" y="101.53686" style="fill: #1f77b4; stroke: #1f77b4"/>
     <use xlink:href="#mbd5c8524ef" x="152.577368" y="99.563306" style="fill: #1f77b4; stroke: #1f77b4"/>
     <use xlink:href="#mbd5c8524ef" x="155.265787" y="97.56" style="fill: #1f77b4; stroke: #1f77b4"/>
     <use xlink:href="#mbd5c8524ef" x="157.994133" y="95.526942" style="fill: #1f77b4; stroke: #1f77b4"/>
     <use xlink:href="#mbd5c8524ef" x="160.762406" y="93.464132" style="fill: #1f77b4; stroke: #1f77b4"/>
     <use xlink:href="#mbd5c8524ef" x="163.570606" y="91.37157" style="fill: #1f77b4; stroke: #1f77b4"/>
     <use xlink:href="#mbd5c8524ef" x="166.418734" y="89.249256" style="fill: #1f77b4; stroke: #1f77b4"/>
     <use xlink:href="#mbd5c8524ef" x="169.306788" y="87.09719" style="fill: #1f77b4; stroke: #1f77b4"/>
     <use xlink:href="#mbd5c8524ef" x="172.234769" y="84.915372" style="fill: #1f77b4; stroke: #1f77b4"/>
     <use xlink:href="#mbd5c8524ef" x="175.202677" y="82.703802" style="fill: #1f77b4; stroke: #1f77b4"/>
     <use xlink:href="#mbd5c8524ef" x="178.210512" y="80.462479" style="fill: #1f77b4; stroke: #1f77b4"/>
     <use xlink:href="#mbd5c8524ef" x="181.258274" y="78.191405" style="fill: #1f77b4; stroke: #1f77b4"/>
     <use xlink:href="#mbd5c8524ef" x="184.345963" y="75.890579" style="fill: #1f77b4; stroke: #1f77b4"/>
     <use xlink:href="#mbd5c8524ef" x="187.47358" y="73.56" style="fill: #1f77b4; stroke: #1f77b4"/>
     <use xlink:href="#mbd5c8524ef" x="190.641123" y="71.199669" style="fill: #1f77b4; stroke: #1f77b4"/>
     <use xlink:href="#mbd5c8524ef" x="193.848593" y="68.809587" style="fill: #1f77b4; stroke: #1f77b4"/>
     <use xlink:href="#mbd5c8524ef" x="197.09599" y="66.389752" style="fill: #1f77b4; stroke: #1f77b4"/>
     <use xlink:href="#mbd5c8524ef" x="200.383314" y="63.940165" style="fill: #1f77b4; stroke: #1f77b4"/>
     <use xlink:href="#mbd5c8524ef" x="203.710566" y="61.460826" style="fill: #1f77b4; stroke: #1f77b4"/>
     <use xlink:href="#mbd5c8524ef" x="207.077744" y="58.951736" style="fill: #1f77b4; stroke: #1f77b4"/>
     <use xlink:href="#mbd5c8524ef" x="210.484849" y="56.412893" style="fill: #1f77b4; stroke: #1f77b4"/>
     <use xlink:href="#mbd5c8524ef" x="213.931882" y="53.844298" style="fill: #1f77b4; stroke: #1f77b4"/>
     <use xlink:href="#mbd5c8524ef" x="217.418841" y="51.24595" style="fill: #1f77b4; stroke: #1f77b4"/>
     <use xlink:href="#mbd5c8524ef" x="220.945727" y="48.617851" style="fill: #1f77b4; stroke: #1f77b4"/>
     <use xlink:href="#mbd5c8524ef" x="224.512541" y="45.96" style="fill: #1f77b4; stroke: #1f77b4"/>
     <use xlink:href="#mbd5c8524ef" x="228.119281" y="43.272397" style="fill: #1f77b4; stroke: #1f77b4"/>
     <use xlink:href="#mbd5c8524ef" x="231.765948" y="40.555041" style="fill: #1f77b4; stroke: #1f77b4"/>
     <use xlink:href="#mbd5c8524ef" x="235.452543" y="37.807934" style="fill: #1f77b4; stroke: #1f77b4"/>
     <use xlink:href="#mbd5c8524ef" x="239.179064" y="35.031074" style="fill: #1f77b4; stroke: #1f77b4"/>
     <use xlink:href="#mbd5c8524ef" x="242.945513" y="32.224463" style="fill: #1f77b4; stroke: #1f77b4"/>
     <use xlink:href="#mbd5c8524ef" x="246.751888" y="29.388099" style="fill: #1f77b4; stroke: #1f77b4"/>
     <use xlink:href="#mbd5c8524ef" x="250.59819" y="26.521983" style="fill: #1f77b4; stroke: #1f77b4"/>
     <use xlink:href="#mbd5c8524ef" x="254.48442" y="23.626116" style="fill: #1f77b4; stroke: #1f77b4"/>
     <use xlink:href="#mbd5c8524ef" x="258.410576" y="20.700496" style="fill: #1f77b4; stroke: #1f77b4"/>
     <use xlink:href="#mbd5c8524ef" x="262.37666" y="17.745124" style="fill: #1f77b4; stroke: #1f77b4"/>
     <use xlink:href="#mbd5c8524ef" x="266.38267" y="14.76" style="fill: #1f77b4; stroke: #1f77b4"/>
    </g>
   </g>
   <g id="patch_3">
    <path d="M 53.328125 173.52 
L 53.328125 7.2 
" style="fill: none; stroke: #000000; stroke-width: 0.8; stroke-linejoin: miter; stroke-linecap: square"/>
   </g>
   <g id="patch_4">
    <path d="M 276.528125 173.52 
L 276.528125 7.2 
" style="fill: none; stroke: #000000; stroke-width: 0.8; stroke-linejoin: miter; stroke-linecap: square"/>
   </g>
   <g id="patch_5">
    <path d="M 53.328125 173.52 
L 276.528125 173.52 
" style="fill: none; stroke: #000000; stroke-width: 0.8; stroke-linejoin: miter; stroke-linecap: square"/>
   </g>
   <g id="patch_6">
    <path d="M 53.328125 7.2 
L 276.528125 7.2 
" style="fill: none; stroke: #000000; stroke-width: 0.8; stroke-linejoin: miter; stroke-linecap: square"/>
   </g>
  </g>
 </g>
 <defs>
  <clipPath id="p85eab31f3c">
   <rect x="53.328125" y="7.2" width="223.2" height="166.32"/>
  </clipPath>
 </defs>
</svg>
