<?xml version="1.0" encoding="utf-8" standalone="no"?>
<!DOCTYPE svg PUBLIC "-//W3C//DTD SVG 1.1//EN"
  "http://www.w3.org/Graphics/SVG/1.1/DTD/svg11.dtd">
<svg xmlns:xlink="http://www.w3.org/1999/xlink" width="424.405625pt" height="279.66475pt" viewBox="0 0 424.405625 279.66475" xmlns="http://www.w3.org/2000/svg" version="1.1">
 <metadata>
  <rdf:RDF xmlns:dc="http://purl.org/dc/elements/1.1/" xmlns:cc="http://creativecommons.org/ns#" xmlns:rdf="http://www.w3.org/1999/02/22-rdf-syntax-ns#">
   <cc:Work>
    <dc:type rdf:resource="http://purl.org/dc/dcmitype/StillImage"/>
    <dc:date>2024-06-21T06:10:46.082693</dc:date>
    <dc:format>image/svg+xml</dc:format>
    <dc:creator>
     <cc:Agent>
      <dc:title>Matplotlib v3.9.0, https://matplotlib.org/</dc:title>
     </cc:Agent>
    </dc:creator>
   </cc:Work>
  </rdf:RDF>
 </metadata>
 <defs>
  <style type="text/css">*{stroke-linejoin: round; stroke-linecap: butt}</style>
 </defs>
 <g id="figure_1">
  <g id="patch_1">
   <path d="M -0 279.66475 
L 424.405625 279.66475 
L 424.405625 0 
L -0 0 
z
" style="fill: #ffffff"/>
  </g>
  <g id="axes_1">
   <g id="patch_2">
    <path d="M 46.965625 242.1085 
L 417.205625 242.1085 
L 417.205625 7.809279 
L 46.965625 7.809279 
z
" style="fill: #ffffff"/>
   </g>
   <g id="matplotlib.axis_1">
    <g id="xtick_1">
     <g id="line2d_1">
      <defs>
       <path id="mc42a31ee79" d="M 0 0 
L 0 3.5 
" style="stroke: #000000; stroke-width: 0.8"/>
      </defs>
      <g>
       <use xlink:href="#mc42a31ee79" x="63.794716" y="242.1085" style="stroke: #000000; stroke-width: 0.8"/>
      </g>
     </g>
     <g id="text_1">
      <!-- 0.00 -->
      <g transform="translate(52.661903 256.706937) scale(0.1 -0.1)">
       <defs>
        <path id="DejaVuSans-30" d="M 2034 4250 
Q 1547 4250 1301 3770 
Q 1056 3291 1056 2328 
Q 1056 1369 1301 889 
Q 1547 409 2034 409 
Q 2525 409 2770 889 
Q 3016 1369 3016 2328 
Q 3016 3291 2770 3770 
Q 2525 4250 2034 4250 
z
M 2034 4750 
Q 2819 4750 3233 4129 
Q 3647 3509 3647 2328 
Q 3647 1150 3233 529 
Q 2819 -91 2034 -91 
Q 1250 -91 836 529 
Q 422 1150 422 2328 
Q 422 3509 836 4129 
Q 1250 4750 2034 4750 
z
" transform="scale(0.015625)"/>
        <path id="DejaVuSans-2e" d="M 684 794 
L 1344 794 
L 1344 0 
L 684 0 
L 684 794 
z
" transform="scale(0.015625)"/>
       </defs>
       <use xlink:href="#DejaVuSans-30"/>
       <use xlink:href="#DejaVuSans-2e" x="63.623047"/>
       <use xlink:href="#DejaVuSans-30" x="95.410156"/>
       <use xlink:href="#DejaVuSans-30" x="159.033203"/>
      </g>
     </g>
    </g>
    <g id="xtick_2">
     <g id="line2d_2">
      <g>
       <use xlink:href="#mc42a31ee79" x="105.867443" y="242.1085" style="stroke: #000000; stroke-width: 0.8"/>
      </g>
     </g>
     <g id="text_2">
      <!-- 0.25 -->
      <g transform="translate(94.734631 256.706937) scale(0.1 -0.1)">
       <defs>
        <path id="DejaVuSans-32" d="M 1228 531 
L 3431 531 
L 3431 0 
L 469 0 
L 469 531 
Q 828 903 1448 1529 
Q 2069 2156 2228 2338 
Q 2531 2678 2651 2914 
Q 2772 3150 2772 3378 
Q 2772 3750 2511 3984 
Q 2250 4219 1831 4219 
Q 1534 4219 1204 4116 
Q 875 4013 500 3803 
L 500 4441 
Q 881 4594 1212 4672 
Q 1544 4750 1819 4750 
Q 2544 4750 2975 4387 
Q 3406 4025 3406 3419 
Q 3406 3131 3298 2873 
Q 3191 2616 2906 2266 
Q 2828 2175 2409 1742 
Q 1991 1309 1228 531 
z
" transform="scale(0.015625)"/>
        <path id="DejaVuSans-35" d="M 691 4666 
L 3169 4666 
L 3169 4134 
L 1269 4134 
L 1269 2991 
Q 1406 3038 1543 3061 
Q 1681 3084 1819 3084 
Q 2600 3084 3056 2656 
Q 3513 2228 3513 1497 
Q 3513 744 3044 326 
Q 2575 -91 1722 -91 
Q 1428 -91 1123 -41 
Q 819 9 494 109 
L 494 744 
Q 775 591 1075 516 
Q 1375 441 1709 441 
Q 2250 441 2565 725 
Q 2881 1009 2881 1497 
Q 2881 1984 2565 2268 
Q 2250 2553 1709 2553 
Q 1456 2553 1204 2497 
Q 953 2441 691 2322 
L 691 4666 
z
" transform="scale(0.015625)"/>
       </defs>
       <use xlink:href="#DejaVuSans-30"/>
       <use xlink:href="#DejaVuSans-2e" x="63.623047"/>
       <use xlink:href="#DejaVuSans-32" x="95.410156"/>
       <use xlink:href="#DejaVuSans-35" x="159.033203"/>
      </g>
     </g>
    </g>
    <g id="xtick_3">
     <g id="line2d_3">
      <g>
       <use xlink:href="#mc42a31ee79" x="147.94017" y="242.1085" style="stroke: #000000; stroke-width: 0.8"/>
      </g>
     </g>
     <g id="text_3">
      <!-- 0.50 -->
      <g transform="translate(136.807358 256.706937) scale(0.1 -0.1)">
       <use xlink:href="#DejaVuSans-30"/>
       <use xlink:href="#DejaVuSans-2e" x="63.623047"/>
       <use xlink:href="#DejaVuSans-35" x="95.410156"/>
       <use xlink:href="#DejaVuSans-30" x="159.033203"/>
      </g>
     </g>
    </g>
    <g id="xtick_4">
     <g id="line2d_4">
      <g>
       <use xlink:href="#mc42a31ee79" x="190.012898" y="242.1085" style="stroke: #000000; stroke-width: 0.8"/>
      </g>
     </g>
     <g id="text_4">
      <!-- 0.75 -->
      <g transform="translate(178.880085 256.706937) scale(0.1 -0.1)">
       <defs>
        <path id="DejaVuSans-37" d="M 525 4666 
L 3525 4666 
L 3525 4397 
L 1831 0 
L 1172 0 
L 2766 4134 
L 525 4134 
L 525 4666 
z
" transform="scale(0.015625)"/>
       </defs>
       <use xlink:href="#DejaVuSans-30"/>
       <use xlink:href="#DejaVuSans-2e" x="63.623047"/>
       <use xlink:href="#DejaVuSans-37" x="95.410156"/>
       <use xlink:href="#DejaVuSans-35" x="159.033203"/>
      </g>
     </g>
    </g>
    <g id="xtick_5">
     <g id="line2d_5">
      <g>
       <use xlink:href="#mc42a31ee79" x="232.085625" y="242.1085" style="stroke: #000000; stroke-width: 0.8"/>
      </g>
     </g>
     <g id="text_5">
      <!-- 1.00 -->
      <g transform="translate(220.952812 256.706937) scale(0.1 -0.1)">
       <defs>
        <path id="DejaVuSans-31" d="M 794 531 
L 1825 531 
L 1825 4091 
L 703 3866 
L 703 4441 
L 1819 4666 
L 2450 4666 
L 2450 531 
L 3481 531 
L 3481 0 
L 794 0 
L 794 531 
z
" transform="scale(0.015625)"/>
       </defs>
       <use xlink:href="#DejaVuSans-31"/>
       <use xlink:href="#DejaVuSans-2e" x="63.623047"/>
       <use xlink:href="#DejaVuSans-30" x="95.410156"/>
       <use xlink:href="#DejaVuSans-30" x="159.033203"/>
      </g>
     </g>
    </g>
    <g id="xtick_6">
     <g id="line2d_6">
      <g>
       <use xlink:href="#mc42a31ee79" x="274.158352" y="242.1085" style="stroke: #000000; stroke-width: 0.8"/>
      </g>
     </g>
     <g id="text_6">
      <!-- 1.25 -->
      <g transform="translate(263.02554 256.706937) scale(0.1 -0.1)">
       <use xlink:href="#DejaVuSans-31"/>
       <use xlink:href="#DejaVuSans-2e" x="63.623047"/>
       <use xlink:href="#DejaVuSans-32" x="95.410156"/>
       <use xlink:href="#DejaVuSans-35" x="159.033203"/>
      </g>
     </g>
    </g>
    <g id="xtick_7">
     <g id="line2d_7">
      <g>
       <use xlink:href="#mc42a31ee79" x="316.23108" y="242.1085" style="stroke: #000000; stroke-width: 0.8"/>
      </g>
     </g>
     <g id="text_7">
      <!-- 1.50 -->
      <g transform="translate(305.098267 256.706937) scale(0.1 -0.1)">
       <use xlink:href="#DejaVuSans-31"/>
       <use xlink:href="#DejaVuSans-2e" x="63.623047"/>
       <use xlink:href="#DejaVuSans-35" x="95.410156"/>
       <use xlink:href="#DejaVuSans-30" x="159.033203"/>
      </g>
     </g>
    </g>
    <g id="xtick_8">
     <g id="line2d_8">
      <g>
       <use xlink:href="#mc42a31ee79" x="358.303807" y="242.1085" style="stroke: #000000; stroke-width: 0.8"/>
      </g>
     </g>
     <g id="text_8">
      <!-- 1.75 -->
      <g transform="translate(347.170994 256.706937) scale(0.1 -0.1)">
       <use xlink:href="#DejaVuSans-31"/>
       <use xlink:href="#DejaVuSans-2e" x="63.623047"/>
       <use xlink:href="#DejaVuSans-37" x="95.410156"/>
       <use xlink:href="#DejaVuSans-35" x="159.033203"/>
      </g>
     </g>
    </g>
    <g id="xtick_9">
     <g id="line2d_9">
      <g>
       <use xlink:href="#mc42a31ee79" x="400.376534" y="242.1085" style="stroke: #000000; stroke-width: 0.8"/>
      </g>
     </g>
     <g id="text_9">
      <!-- 2.00 -->
      <g transform="translate(389.243722 256.706937) scale(0.1 -0.1)">
       <use xlink:href="#DejaVuSans-32"/>
       <use xlink:href="#DejaVuSans-2e" x="63.623047"/>
       <use xlink:href="#DejaVuSans-30" x="95.410156"/>
       <use xlink:href="#DejaVuSans-30" x="159.033203"/>
      </g>
     </g>
    </g>
    <g id="text_10">
     <!-- x [m] -->
     <g transform="translate(218.765312 270.385062) scale(0.1 -0.1)">
      <defs>
       <path id="DejaVuSans-78" d="M 3513 3500 
L 2247 1797 
L 3578 0 
L 2900 0 
L 1881 1375 
L 863 0 
L 184 0 
L 1544 1831 
L 300 3500 
L 978 3500 
L 1906 2253 
L 2834 3500 
L 3513 3500 
z
" transform="scale(0.015625)"/>
       <path id="DejaVuSans-20" transform="scale(0.015625)"/>
       <path id="DejaVuSans-5b" d="M 550 4863 
L 1875 4863 
L 1875 4416 
L 1125 4416 
L 1125 -397 
L 1875 -397 
L 1875 -844 
L 550 -844 
L 550 4863 
z
" transform="scale(0.015625)"/>
       <path id="DejaVuSans-6d" d="M 3328 2828 
Q 3544 3216 3844 3400 
Q 4144 3584 4550 3584 
Q 5097 3584 5394 3201 
Q 5691 2819 5691 2113 
L 5691 0 
L 5113 0 
L 5113 2094 
Q 5113 2597 4934 2840 
Q 4756 3084 4391 3084 
Q 3944 3084 3684 2787 
Q 3425 2491 3425 1978 
L 3425 0 
L 2847 0 
L 2847 2094 
Q 2847 2600 2669 2842 
Q 2491 3084 2119 3084 
Q 1678 3084 1418 2786 
Q 1159 2488 1159 1978 
L 1159 0 
L 581 0 
L 581 3500 
L 1159 3500 
L 1159 2956 
Q 1356 3278 1631 3431 
Q 1906 3584 2284 3584 
Q 2666 3584 2933 3390 
Q 3200 3197 3328 2828 
z
" transform="scale(0.015625)"/>
       <path id="DejaVuSans-5d" d="M 1947 4863 
L 1947 -844 
L 622 -844 
L 622 -397 
L 1369 -397 
L 1369 4416 
L 622 4416 
L 622 4863 
L 1947 4863 
z
" transform="scale(0.015625)"/>
      </defs>
      <use xlink:href="#DejaVuSans-78"/>
      <use xlink:href="#DejaVuSans-20" x="59.179688"/>
      <use xlink:href="#DejaVuSans-5b" x="90.966797"/>
      <use xlink:href="#DejaVuSans-6d" x="129.980469"/>
      <use xlink:href="#DejaVuSans-5d" x="227.392578"/>
     </g>
    </g>
   </g>
   <g id="matplotlib.axis_2">
    <g id="ytick_1">
     <g id="line2d_10">
      <defs>
       <path id="mea3aca9cd8" d="M 0 0 
L -3.5 0 
" style="stroke: #000000; stroke-width: 0.8"/>
      </defs>
      <g>
       <use xlink:href="#mea3aca9cd8" x="46.965625" y="238.804084" style="stroke: #000000; stroke-width: 0.8"/>
      </g>
     </g>
     <g id="text_11">
      <!-- 98 -->
      <g transform="translate(27.240625 242.603303) scale(0.1 -0.1)">
       <defs>
        <path id="DejaVuSans-39" d="M 703 97 
L 703 672 
Q 941 559 1184 500 
Q 1428 441 1663 441 
Q 2288 441 2617 861 
Q 2947 1281 2994 2138 
Q 2813 1869 2534 1725 
Q 2256 1581 1919 1581 
Q 1219 1581 811 2004 
Q 403 2428 403 3163 
Q 403 3881 828 4315 
Q 1253 4750 1959 4750 
Q 2769 4750 3195 4129 
Q 3622 3509 3622 2328 
Q 3622 1225 3098 567 
Q 2575 -91 1691 -91 
Q 1453 -91 1209 -44 
Q 966 3 703 97 
z
M 1959 2075 
Q 2384 2075 2632 2365 
Q 2881 2656 2881 3163 
Q 2881 3666 2632 3958 
Q 2384 4250 1959 4250 
Q 1534 4250 1286 3958 
Q 1038 3666 1038 3163 
Q 1038 2656 1286 2365 
Q 1534 2075 1959 2075 
z
" transform="scale(0.015625)"/>
        <path id="DejaVuSans-38" d="M 2034 2216 
Q 1584 2216 1326 1975 
Q 1069 1734 1069 1313 
Q 1069 891 1326 650 
Q 1584 409 2034 409 
Q 2484 409 2743 651 
Q 3003 894 3003 1313 
Q 3003 1734 2745 1975 
Q 2488 2216 2034 2216 
z
M 1403 2484 
Q 997 2584 770 2862 
Q 544 3141 544 3541 
Q 544 4100 942 4425 
Q 1341 4750 2034 4750 
Q 2731 4750 3128 4425 
Q 3525 4100 3525 3541 
Q 3525 3141 3298 2862 
Q 3072 2584 2669 2484 
Q 3125 2378 3379 2068 
Q 3634 1759 3634 1313 
Q 3634 634 3220 271 
Q 2806 -91 2034 -91 
Q 1263 -91 848 271 
Q 434 634 434 1313 
Q 434 1759 690 2068 
Q 947 2378 1403 2484 
z
M 1172 3481 
Q 1172 3119 1398 2916 
Q 1625 2713 2034 2713 
Q 2441 2713 2670 2916 
Q 2900 3119 2900 3481 
Q 2900 3844 2670 4047 
Q 2441 4250 2034 4250 
Q 1625 4250 1398 4047 
Q 1172 3844 1172 3481 
z
" transform="scale(0.015625)"/>
       </defs>
       <use xlink:href="#DejaVuSans-39"/>
       <use xlink:href="#DejaVuSans-38" x="63.623047"/>
      </g>
     </g>
    </g>
    <g id="ytick_2">
     <g id="line2d_11">
      <g>
       <use xlink:href="#mea3aca9cd8" x="46.965625" y="210.328476" style="stroke: #000000; stroke-width: 0.8"/>
      </g>
     </g>
     <g id="text_12">
      <!-- 99 -->
      <g transform="translate(27.240625 214.127695) scale(0.1 -0.1)">
       <use xlink:href="#DejaVuSans-39"/>
       <use xlink:href="#DejaVuSans-39" x="63.623047"/>
      </g>
     </g>
    </g>
    <g id="ytick_3">
     <g id="line2d_12">
      <g>
       <use xlink:href="#mea3aca9cd8" x="46.965625" y="181.852868" style="stroke: #000000; stroke-width: 0.8"/>
      </g>
     </g>
     <g id="text_13">
      <!-- 100 -->
      <g transform="translate(20.878125 185.652087) scale(0.1 -0.1)">
       <use xlink:href="#DejaVuSans-31"/>
       <use xlink:href="#DejaVuSans-30" x="63.623047"/>
       <use xlink:href="#DejaVuSans-30" x="127.246094"/>
      </g>
     </g>
    </g>
    <g id="ytick_4">
     <g id="line2d_13">
      <g>
       <use xlink:href="#mea3aca9cd8" x="46.965625" y="153.37726" style="stroke: #000000; stroke-width: 0.8"/>
      </g>
     </g>
     <g id="text_14">
      <!-- 101 -->
      <g transform="translate(20.878125 157.176479) scale(0.1 -0.1)">
       <use xlink:href="#DejaVuSans-31"/>
       <use xlink:href="#DejaVuSans-30" x="63.623047"/>
       <use xlink:href="#DejaVuSans-31" x="127.246094"/>
      </g>
     </g>
    </g>
    <g id="ytick_5">
     <g id="line2d_14">
      <g>
       <use xlink:href="#mea3aca9cd8" x="46.965625" y="124.901652" style="stroke: #000000; stroke-width: 0.8"/>
      </g>
     </g>
     <g id="text_15">
      <!-- 102 -->
      <g transform="translate(20.878125 128.70087) scale(0.1 -0.1)">
       <use xlink:href="#DejaVuSans-31"/>
       <use xlink:href="#DejaVuSans-30" x="63.623047"/>
       <use xlink:href="#DejaVuSans-32" x="127.246094"/>
      </g>
     </g>
    </g>
    <g id="ytick_6">
     <g id="line2d_15">
      <g>
       <use xlink:href="#mea3aca9cd8" x="46.965625" y="96.426043" style="stroke: #000000; stroke-width: 0.8"/>
      </g>
     </g>
     <g id="text_16">
      <!-- 103 -->
      <g transform="translate(20.878125 100.225262) scale(0.1 -0.1)">
       <defs>
        <path id="DejaVuSans-33" d="M 2597 2516 
Q 3050 2419 3304 2112 
Q 3559 1806 3559 1356 
Q 3559 666 3084 287 
Q 2609 -91 1734 -91 
Q 1441 -91 1130 -33 
Q 819 25 488 141 
L 488 750 
Q 750 597 1062 519 
Q 1375 441 1716 441 
Q 2309 441 2620 675 
Q 2931 909 2931 1356 
Q 2931 1769 2642 2001 
Q 2353 2234 1838 2234 
L 1294 2234 
L 1294 2753 
L 1863 2753 
Q 2328 2753 2575 2939 
Q 2822 3125 2822 3475 
Q 2822 3834 2567 4026 
Q 2313 4219 1838 4219 
Q 1578 4219 1281 4162 
Q 984 4106 628 3988 
L 628 4550 
Q 988 4650 1302 4700 
Q 1616 4750 1894 4750 
Q 2613 4750 3031 4423 
Q 3450 4097 3450 3541 
Q 3450 3153 3228 2886 
Q 3006 2619 2597 2516 
z
" transform="scale(0.015625)"/>
       </defs>
       <use xlink:href="#DejaVuSans-31"/>
       <use xlink:href="#DejaVuSans-30" x="63.623047"/>
       <use xlink:href="#DejaVuSans-33" x="127.246094"/>
      </g>
     </g>
    </g>
    <g id="ytick_7">
     <g id="line2d_16">
      <g>
       <use xlink:href="#mea3aca9cd8" x="46.965625" y="67.950435" style="stroke: #000000; stroke-width: 0.8"/>
      </g>
     </g>
     <g id="text_17">
      <!-- 104 -->
      <g transform="translate(20.878125 71.749654) scale(0.1 -0.1)">
       <defs>
        <path id="DejaVuSans-34" d="M 2419 4116 
L 825 1625 
L 2419 1625 
L 2419 4116 
z
M 2253 4666 
L 3047 4666 
L 3047 1625 
L 3713 1625 
L 3713 1100 
L 3047 1100 
L 3047 0 
L 2419 0 
L 2419 1100 
L 313 1100 
L 313 1709 
L 2253 4666 
z
" transform="scale(0.015625)"/>
       </defs>
       <use xlink:href="#DejaVuSans-31"/>
       <use xlink:href="#DejaVuSans-30" x="63.623047"/>
       <use xlink:href="#DejaVuSans-34" x="127.246094"/>
      </g>
     </g>
    </g>
    <g id="ytick_8">
     <g id="line2d_17">
      <g>
       <use xlink:href="#mea3aca9cd8" x="46.965625" y="39.474827" style="stroke: #000000; stroke-width: 0.8"/>
      </g>
     </g>
     <g id="text_18">
      <!-- 105 -->
      <g transform="translate(20.878125 43.274046) scale(0.1 -0.1)">
       <use xlink:href="#DejaVuSans-31"/>
       <use xlink:href="#DejaVuSans-30" x="63.623047"/>
       <use xlink:href="#DejaVuSans-35" x="127.246094"/>
      </g>
     </g>
    </g>
    <g id="ytick_9">
     <g id="line2d_18">
      <g>
       <use xlink:href="#mea3aca9cd8" x="46.965625" y="10.999219" style="stroke: #000000; stroke-width: 0.8"/>
      </g>
     </g>
     <g id="text_19">
      <!-- 106 -->
      <g transform="translate(20.878125 14.798437) scale(0.1 -0.1)">
       <defs>
        <path id="DejaVuSans-36" d="M 2113 2584 
Q 1688 2584 1439 2293 
Q 1191 2003 1191 1497 
Q 1191 994 1439 701 
Q 1688 409 2113 409 
Q 2538 409 2786 701 
Q 3034 994 3034 1497 
Q 3034 2003 2786 2293 
Q 2538 2584 2113 2584 
z
M 3366 4563 
L 3366 3988 
Q 3128 4100 2886 4159 
Q 2644 4219 2406 4219 
Q 1781 4219 1451 3797 
Q 1122 3375 1075 2522 
Q 1259 2794 1537 2939 
Q 1816 3084 2150 3084 
Q 2853 3084 3261 2657 
Q 3669 2231 3669 1497 
Q 3669 778 3244 343 
Q 2819 -91 2113 -91 
Q 1303 -91 875 529 
Q 447 1150 447 2328 
Q 447 3434 972 4092 
Q 1497 4750 2381 4750 
Q 2619 4750 2861 4703 
Q 3103 4656 3366 4563 
z
" transform="scale(0.015625)"/>
       </defs>
       <use xlink:href="#DejaVuSans-31"/>
       <use xlink:href="#DejaVuSans-30" x="63.623047"/>
       <use xlink:href="#DejaVuSans-36" x="127.246094"/>
      </g>
     </g>
    </g>
    <g id="text_20">
     <!-- [K] -->
     <g transform="translate(14.798438 132.139358) rotate(-90) scale(0.1 -0.1)">
      <defs>
       <path id="DejaVuSans-4b" d="M 628 4666 
L 1259 4666 
L 1259 2694 
L 3353 4666 
L 4166 4666 
L 1850 2491 
L 4331 0 
L 3500 0 
L 1259 2247 
L 1259 0 
L 628 0 
L 628 4666 
z
" transform="scale(0.015625)"/>
      </defs>
      <use xlink:href="#DejaVuSans-5b"/>
      <use xlink:href="#DejaVuSans-4b" x="39.013672"/>
      <use xlink:href="#DejaVuSans-5d" x="104.589844"/>
     </g>
    </g>
   </g>
   <g id="patch_3">
    <path d="M 46.965625 242.1085 
L 46.965625 7.809279 
" style="fill: none; stroke: #000000; stroke-width: 0.8; stroke-linejoin: miter; stroke-linecap: square"/>
   </g>
   <g id="patch_4">
    <path d="M 417.205625 242.1085 
L 417.205625 7.809279 
" style="fill: none; stroke: #000000; stroke-width: 0.8; stroke-linejoin: miter; stroke-linecap: square"/>
   </g>
   <g id="patch_5">
    <path d="M 46.965625 242.1085 
L 417.205625 242.1085 
" style="fill: none; stroke: #000000; stroke-width: 0.8; stroke-linejoin: miter; stroke-linecap: square"/>
   </g>
   <g id="patch_6">
    <path d="M 46.965625 7.809279 
L 417.205625 7.809279 
" style="fill: none; stroke: #000000; stroke-width: 0.8; stroke-linejoin: miter; stroke-linecap: square"/>
   </g>
   <g id="legend_1">
    <g id="patch_7">
     <path d="M 53.965625 45.165529 
L 118.490625 45.165529 
Q 120.490625 45.165529 120.490625 43.165529 
L 120.490625 14.809279 
Q 120.490625 12.809279 118.490625 12.809279 
L 53.965625 12.809279 
Q 51.965625 12.809279 51.965625 14.809279 
L 51.965625 43.165529 
Q 51.965625 45.165529 53.965625 45.165529 
z
" style="fill: #ffffff; opacity: 0.8; stroke: #cccccc; stroke-linejoin: miter"/>
    </g>
    <g id="line2d_19">
     <defs>
      <path id="m3c1dd5a9b0" d="M 0 3 
C 0.795609 3 1.55874 2.683901 2.12132 2.12132 
C 2.683901 1.55874 3 0.795609 3 0 
C 3 -0.795609 2.683901 -1.55874 2.12132 -2.12132 
C 1.55874 -2.683901 0.795609 -3 0 -3 
C -0.795609 -3 -1.55874 -2.683901 -2.12132 -2.12132 
C -2.683901 -1.55874 -3 -0.795609 -3 0 
C -3 0.795609 -2.683901 1.55874 -2.12132 2.12132 
C -1.55874 2.683901 -0.795609 3 0 3 
z
" style="stroke: #1f77b4"/>
     </defs>
     <g>
      <use xlink:href="#m3c1dd5a9b0" x="65.965625" y="20.907716" style="fill: #1f77b4; stroke: #1f77b4"/>
     </g>
    </g>
    <g id="text_21">
     <!-- temp1 -->
     <g transform="translate(83.965625 24.407716) scale(0.1 -0.1)">
      <defs>
       <path id="DejaVuSans-74" d="M 1172 4494 
L 1172 3500 
L 2356 3500 
L 2356 3053 
L 1172 3053 
L 1172 1153 
Q 1172 725 1289 603 
Q 1406 481 1766 481 
L 2356 481 
L 2356 0 
L 1766 0 
Q 1100 0 847 248 
Q 594 497 594 1153 
L 594 3053 
L 172 3053 
L 172 3500 
L 594 3500 
L 594 4494 
L 1172 4494 
z
" transform="scale(0.015625)"/>
       <path id="DejaVuSans-65" d="M 3597 1894 
L 3597 1613 
L 953 1613 
Q 991 1019 1311 708 
Q 1631 397 2203 397 
Q 2534 397 2845 478 
Q 3156 559 3463 722 
L 3463 178 
Q 3153 47 2828 -22 
Q 2503 -91 2169 -91 
Q 1331 -91 842 396 
Q 353 884 353 1716 
Q 353 2575 817 3079 
Q 1281 3584 2069 3584 
Q 2775 3584 3186 3129 
Q 3597 2675 3597 1894 
z
M 3022 2063 
Q 3016 2534 2758 2815 
Q 2500 3097 2075 3097 
Q 1594 3097 1305 2825 
Q 1016 2553 972 2059 
L 3022 2063 
z
" transform="scale(0.015625)"/>
       <path id="DejaVuSans-70" d="M 1159 525 
L 1159 -1331 
L 581 -1331 
L 581 3500 
L 1159 3500 
L 1159 2969 
Q 1341 3281 1617 3432 
Q 1894 3584 2278 3584 
Q 2916 3584 3314 3078 
Q 3713 2572 3713 1747 
Q 3713 922 3314 415 
Q 2916 -91 2278 -91 
Q 1894 -91 1617 61 
Q 1341 213 1159 525 
z
M 3116 1747 
Q 3116 2381 2855 2742 
Q 2594 3103 2138 3103 
Q 1681 3103 1420 2742 
Q 1159 2381 1159 1747 
Q 1159 1113 1420 752 
Q 1681 391 2138 391 
Q 2594 391 2855 752 
Q 3116 1113 3116 1747 
z
" transform="scale(0.015625)"/>
      </defs>
      <use xlink:href="#DejaVuSans-74"/>
      <use xlink:href="#DejaVuSans-65" x="39.208984"/>
      <use xlink:href="#DejaVuSans-6d" x="100.732422"/>
      <use xlink:href="#DejaVuSans-70" x="198.144531"/>
      <use xlink:href="#DejaVuSans-31" x="261.621094"/>
     </g>
    </g>
    <g id="line2d_20">
     <defs>
      <path id="mb10530cb50" d="M -0 3 
L 3 -3 
L -3 -3 
z
" style="stroke: #ff7f0e; stroke-linejoin: miter"/>
     </defs>
     <g>
      <use xlink:href="#mb10530cb50" x="65.965625" y="35.585841" style="fill: #ff7f0e; stroke: #ff7f0e; stroke-linejoin: miter"/>
     </g>
    </g>
    <g id="text_22">
     <!-- temp2 -->
     <g transform="translate(83.965625 39.085841) scale(0.1 -0.1)">
      <use xlink:href="#DejaVuSans-74"/>
      <use xlink:href="#DejaVuSans-65" x="39.208984"/>
      <use xlink:href="#DejaVuSans-6d" x="100.732422"/>
      <use xlink:href="#DejaVuSans-70" x="198.144531"/>
      <use xlink:href="#DejaVuSans-32" x="261.621094"/>
     </g>
    </g>
   </g>
   <g id="line2d_21">
    <g clip-path="url(#p4b5139babd)">
     <use xlink:href="#m3c1dd5a9b0" x="63.794716" y="163.714997" style="fill: #1f77b4; stroke: #1f77b4"/>
     <use xlink:href="#m3c1dd5a9b0" x="70.663733" y="171.264853" style="fill: #1f77b4; stroke: #1f77b4"/>
     <use xlink:href="#m3c1dd5a9b0" x="77.532749" y="174.874773" style="fill: #1f77b4; stroke: #1f77b4"/>
     <use xlink:href="#m3c1dd5a9b0" x="84.401766" y="172.665211" style="fill: #1f77b4; stroke: #1f77b4"/>
     <use xlink:href="#m3c1dd5a9b0" x="91.270783" y="147.071806" style="fill: #1f77b4; stroke: #1f77b4"/>
     <use xlink:href="#m3c1dd5a9b0" x="98.139799" y="141.333226" style="fill: #1f77b4; stroke: #1f77b4"/>
     <use xlink:href="#m3c1dd5a9b0" x="105.008816" y="147.144499" style="fill: #1f77b4; stroke: #1f77b4"/>
     <use xlink:href="#m3c1dd5a9b0" x="111.877833" y="140.74029" style="fill: #1f77b4; stroke: #1f77b4"/>
     <use xlink:href="#m3c1dd5a9b0" x="118.746849" y="143.127421" style="fill: #1f77b4; stroke: #1f77b4"/>
     <use xlink:href="#m3c1dd5a9b0" x="125.615866" y="129.075043" style="fill: #1f77b4; stroke: #1f77b4"/>
     <use xlink:href="#m3c1dd5a9b0" x="132.484883" y="129.564199" style="fill: #1f77b4; stroke: #1f77b4"/>
     <use xlink:href="#m3c1dd5a9b0" x="139.3539" y="149.81247" style="fill: #1f77b4; stroke: #1f77b4"/>
     <use xlink:href="#m3c1dd5a9b0" x="146.222916" y="122.569668" style="fill: #1f77b4; stroke: #1f77b4"/>
     <use xlink:href="#m3c1dd5a9b0" x="153.091933" y="143.122732" style="fill: #1f77b4; stroke: #1f77b4"/>
     <use xlink:href="#m3c1dd5a9b0" x="159.96095" y="120.396045" style="fill: #1f77b4; stroke: #1f77b4"/>
     <use xlink:href="#m3c1dd5a9b0" x="166.829966" y="133.265853" style="fill: #1f77b4; stroke: #1f77b4"/>
     <use xlink:href="#m3c1dd5a9b0" x="173.698983" y="110.782534" style="fill: #1f77b4; stroke: #1f77b4"/>
     <use xlink:href="#m3c1dd5a9b0" x="180.568" y="117.037967" style="fill: #1f77b4; stroke: #1f77b4"/>
     <use xlink:href="#m3c1dd5a9b0" x="187.437016" y="121.016252" style="fill: #1f77b4; stroke: #1f77b4"/>
     <use xlink:href="#m3c1dd5a9b0" x="194.306033" y="114.60878" style="fill: #1f77b4; stroke: #1f77b4"/>
     <use xlink:href="#m3c1dd5a9b0" x="201.17505" y="122.932962" style="fill: #1f77b4; stroke: #1f77b4"/>
     <use xlink:href="#m3c1dd5a9b0" x="208.044067" y="117.294666" style="fill: #1f77b4; stroke: #1f77b4"/>
     <use xlink:href="#m3c1dd5a9b0" x="214.913083" y="98.831595" style="fill: #1f77b4; stroke: #1f77b4"/>
     <use xlink:href="#m3c1dd5a9b0" x="221.7821" y="96.593244" style="fill: #1f77b4; stroke: #1f77b4"/>
     <use xlink:href="#m3c1dd5a9b0" x="228.651117" y="94.593219" style="fill: #1f77b4; stroke: #1f77b4"/>
     <use xlink:href="#m3c1dd5a9b0" x="235.520133" y="98.285559" style="fill: #1f77b4; stroke: #1f77b4"/>
     <use xlink:href="#m3c1dd5a9b0" x="242.38915" y="77.909177" style="fill: #1f77b4; stroke: #1f77b4"/>
     <use xlink:href="#m3c1dd5a9b0" x="249.258167" y="75.469779" style="fill: #1f77b4; stroke: #1f77b4"/>
     <use xlink:href="#m3c1dd5a9b0" x="256.127183" y="80.972762" style="fill: #1f77b4; stroke: #1f77b4"/>
     <use xlink:href="#m3c1dd5a9b0" x="262.9962" y="79.06609" style="fill: #1f77b4; stroke: #1f77b4"/>
     <use xlink:href="#m3c1dd5a9b0" x="269.865217" y="75.078699" style="fill: #1f77b4; stroke: #1f77b4"/>
     <use xlink:href="#m3c1dd5a9b0" x="276.734234" y="80.70219" style="fill: #1f77b4; stroke: #1f77b4"/>
     <use xlink:href="#m3c1dd5a9b0" x="283.60325" y="85.024335" style="fill: #1f77b4; stroke: #1f77b4"/>
     <use xlink:href="#m3c1dd5a9b0" x="290.472267" y="65.420797" style="fill: #1f77b4; stroke: #1f77b4"/>
     <use xlink:href="#m3c1dd5a9b0" x="297.341284" y="68.100158" style="fill: #1f77b4; stroke: #1f77b4"/>
     <use xlink:href="#m3c1dd5a9b0" x="304.2103" y="71.319941" style="fill: #1f77b4; stroke: #1f77b4"/>
     <use xlink:href="#m3c1dd5a9b0" x="311.079317" y="63.414136" style="fill: #1f77b4; stroke: #1f77b4"/>
     <use xlink:href="#m3c1dd5a9b0" x="317.948334" y="49.014212" style="fill: #1f77b4; stroke: #1f77b4"/>
     <use xlink:href="#m3c1dd5a9b0" x="324.81735" y="44.839787" style="fill: #1f77b4; stroke: #1f77b4"/>
     <use xlink:href="#m3c1dd5a9b0" x="331.686367" y="58.343134" style="fill: #1f77b4; stroke: #1f77b4"/>
     <use xlink:href="#m3c1dd5a9b0" x="338.555384" y="49.351236" style="fill: #1f77b4; stroke: #1f77b4"/>
     <use xlink:href="#m3c1dd5a9b0" x="345.424401" y="53.554795" style="fill: #1f77b4; stroke: #1f77b4"/>
     <use xlink:href="#m3c1dd5a9b0" x="352.293417" y="42.891492" style="fill: #1f77b4; stroke: #1f77b4"/>
     <use xlink:href="#m3c1dd5a9b0" x="359.162434" y="47.286645" style="fill: #1f77b4; stroke: #1f77b4"/>
     <use xlink:href="#m3c1dd5a9b0" x="366.031451" y="42.851609" style="fill: #1f77b4; stroke: #1f77b4"/>
     <use xlink:href="#m3c1dd5a9b0" x="372.900467" y="25.746421" style="fill: #1f77b4; stroke: #1f77b4"/>
     <use xlink:href="#m3c1dd5a9b0" x="379.769484" y="41.723399" style="fill: #1f77b4; stroke: #1f77b4"/>
     <use xlink:href="#m3c1dd5a9b0" x="386.638501" y="27.540543" style="fill: #1f77b4; stroke: #1f77b4"/>
     <use xlink:href="#m3c1dd5a9b0" x="393.507517" y="39.988113" style="fill: #1f77b4; stroke: #1f77b4"/>
     <use xlink:href="#m3c1dd5a9b0" x="400.376534" y="15.764778" style="fill: #1f77b4; stroke: #1f77b4"/>
    </g>
   </g>
   <g id="line2d_22">
    <g clip-path="url(#p4b5139babd)">
     <use xlink:href="#mb10530cb50" x="63.794716" y="187.915373" style="fill: #ff7f0e; stroke: #ff7f0e; stroke-linejoin: miter"/>
     <use xlink:href="#mb10530cb50" x="70.663733" y="201.768881" style="fill: #ff7f0e; stroke: #ff7f0e; stroke-linejoin: miter"/>
     <use xlink:href="#mb10530cb50" x="77.532749" y="181.883245" style="fill: #ff7f0e; stroke: #ff7f0e; stroke-linejoin: miter"/>
     <use xlink:href="#mb10530cb50" x="84.401766" y="203.430502" style="fill: #ff7f0e; stroke: #ff7f0e; stroke-linejoin: miter"/>
     <use xlink:href="#mb10530cb50" x="91.270783" y="193.78372" style="fill: #ff7f0e; stroke: #ff7f0e; stroke-linejoin: miter"/>
     <use xlink:href="#mb10530cb50" x="98.139799" y="197.332154" style="fill: #ff7f0e; stroke: #ff7f0e; stroke-linejoin: miter"/>
     <use xlink:href="#mb10530cb50" x="105.008816" y="187.044361" style="fill: #ff7f0e; stroke: #ff7f0e; stroke-linejoin: miter"/>
     <use xlink:href="#mb10530cb50" x="111.877833" y="175.448826" style="fill: #ff7f0e; stroke: #ff7f0e; stroke-linejoin: miter"/>
     <use xlink:href="#mb10530cb50" x="118.746849" y="189.813562" style="fill: #ff7f0e; stroke: #ff7f0e; stroke-linejoin: miter"/>
     <use xlink:href="#mb10530cb50" x="125.615866" y="193.156497" style="fill: #ff7f0e; stroke: #ff7f0e; stroke-linejoin: miter"/>
     <use xlink:href="#mb10530cb50" x="132.484883" y="181.374571" style="fill: #ff7f0e; stroke: #ff7f0e; stroke-linejoin: miter"/>
     <use xlink:href="#mb10530cb50" x="139.3539" y="185.498246" style="fill: #ff7f0e; stroke: #ff7f0e; stroke-linejoin: miter"/>
     <use xlink:href="#mb10530cb50" x="146.222916" y="186.823373" style="fill: #ff7f0e; stroke: #ff7f0e; stroke-linejoin: miter"/>
     <use xlink:href="#mb10530cb50" x="153.091933" y="171.138899" style="fill: #ff7f0e; stroke: #ff7f0e; stroke-linejoin: miter"/>
     <use xlink:href="#mb10530cb50" x="159.96095" y="177.415258" style="fill: #ff7f0e; stroke: #ff7f0e; stroke-linejoin: miter"/>
     <use xlink:href="#mb10530cb50" x="166.829966" y="165.041945" style="fill: #ff7f0e; stroke: #ff7f0e; stroke-linejoin: miter"/>
     <use xlink:href="#mb10530cb50" x="173.698983" y="176.752679" style="fill: #ff7f0e; stroke: #ff7f0e; stroke-linejoin: miter"/>
     <use xlink:href="#mb10530cb50" x="180.568" y="153.863354" style="fill: #ff7f0e; stroke: #ff7f0e; stroke-linejoin: miter"/>
     <use xlink:href="#mb10530cb50" x="187.437016" y="168.55046" style="fill: #ff7f0e; stroke: #ff7f0e; stroke-linejoin: miter"/>
     <use xlink:href="#mb10530cb50" x="194.306033" y="174.199747" style="fill: #ff7f0e; stroke: #ff7f0e; stroke-linejoin: miter"/>
     <use xlink:href="#mb10530cb50" x="201.17505" y="157.546147" style="fill: #ff7f0e; stroke: #ff7f0e; stroke-linejoin: miter"/>
     <use xlink:href="#mb10530cb50" x="208.044067" y="147.31569" style="fill: #ff7f0e; stroke: #ff7f0e; stroke-linejoin: miter"/>
     <use xlink:href="#mb10530cb50" x="214.913083" y="159.433568" style="fill: #ff7f0e; stroke: #ff7f0e; stroke-linejoin: miter"/>
     <use xlink:href="#mb10530cb50" x="221.7821" y="143.047626" style="fill: #ff7f0e; stroke: #ff7f0e; stroke-linejoin: miter"/>
     <use xlink:href="#mb10530cb50" x="228.651117" y="154.251929" style="fill: #ff7f0e; stroke: #ff7f0e; stroke-linejoin: miter"/>
     <use xlink:href="#mb10530cb50" x="235.520133" y="154.634718" style="fill: #ff7f0e; stroke: #ff7f0e; stroke-linejoin: miter"/>
     <use xlink:href="#mb10530cb50" x="242.38915" y="147.339002" style="fill: #ff7f0e; stroke: #ff7f0e; stroke-linejoin: miter"/>
     <use xlink:href="#mb10530cb50" x="249.258167" y="134.920574" style="fill: #ff7f0e; stroke: #ff7f0e; stroke-linejoin: miter"/>
     <use xlink:href="#mb10530cb50" x="256.127183" y="134.4914" style="fill: #ff7f0e; stroke: #ff7f0e; stroke-linejoin: miter"/>
     <use xlink:href="#mb10530cb50" x="262.9962" y="146.669678" style="fill: #ff7f0e; stroke: #ff7f0e; stroke-linejoin: miter"/>
     <use xlink:href="#mb10530cb50" x="269.865217" y="136.449549" style="fill: #ff7f0e; stroke: #ff7f0e; stroke-linejoin: miter"/>
     <use xlink:href="#mb10530cb50" x="276.734234" y="142.11852" style="fill: #ff7f0e; stroke: #ff7f0e; stroke-linejoin: miter"/>
     <use xlink:href="#mb10530cb50" x="283.60325" y="139.467044" style="fill: #ff7f0e; stroke: #ff7f0e; stroke-linejoin: miter"/>
     <use xlink:href="#mb10530cb50" x="290.472267" y="130.420399" style="fill: #ff7f0e; stroke: #ff7f0e; stroke-linejoin: miter"/>
     <use xlink:href="#mb10530cb50" x="297.341284" y="139.245143" style="fill: #ff7f0e; stroke: #ff7f0e; stroke-linejoin: miter"/>
     <use xlink:href="#mb10530cb50" x="304.2103" y="128.394449" style="fill: #ff7f0e; stroke: #ff7f0e; stroke-linejoin: miter"/>
     <use xlink:href="#mb10530cb50" x="311.079317" y="127.315685" style="fill: #ff7f0e; stroke: #ff7f0e; stroke-linejoin: miter"/>
     <use xlink:href="#mb10530cb50" x="317.948334" y="119.28154" style="fill: #ff7f0e; stroke: #ff7f0e; stroke-linejoin: miter"/>
     <use xlink:href="#mb10530cb50" x="324.81735" y="140.806325" style="fill: #ff7f0e; stroke: #ff7f0e; stroke-linejoin: miter"/>
     <use xlink:href="#mb10530cb50" x="331.686367" y="121.576549" style="fill: #ff7f0e; stroke: #ff7f0e; stroke-linejoin: miter"/>
     <use xlink:href="#mb10530cb50" x="338.555384" y="114.183332" style="fill: #ff7f0e; stroke: #ff7f0e; stroke-linejoin: miter"/>
     <use xlink:href="#mb10530cb50" x="345.424401" y="111.286601" style="fill: #ff7f0e; stroke: #ff7f0e; stroke-linejoin: miter"/>
     <use xlink:href="#mb10530cb50" x="352.293417" y="136.686713" style="fill: #ff7f0e; stroke: #ff7f0e; stroke-linejoin: miter"/>
     <use xlink:href="#mb10530cb50" x="359.162434" y="110.769402" style="fill: #ff7f0e; stroke: #ff7f0e; stroke-linejoin: miter"/>
     <use xlink:href="#mb10530cb50" x="366.031451" y="105.678549" style="fill: #ff7f0e; stroke: #ff7f0e; stroke-linejoin: miter"/>
     <use xlink:href="#mb10530cb50" x="372.900467" y="104.618128" style="fill: #ff7f0e; stroke: #ff7f0e; stroke-linejoin: miter"/>
     <use xlink:href="#mb10530cb50" x="379.769484" y="125.89572" style="fill: #ff7f0e; stroke: #ff7f0e; stroke-linejoin: miter"/>
     <use xlink:href="#mb10530cb50" x="386.638501" y="100.692264" style="fill: #ff7f0e; stroke: #ff7f0e; stroke-linejoin: miter"/>
     <use xlink:href="#mb10530cb50" x="393.507517" y="101.3036" style="fill: #ff7f0e; stroke: #ff7f0e; stroke-linejoin: miter"/>
     <use xlink:href="#mb10530cb50" x="400.376534" y="101.484057" style="fill: #ff7f0e; stroke: #ff7f0e; stroke-linejoin: miter"/>
    </g>
   </g>
   <g id="LineCollection_1">
    <path d="M 63.794716 225.982249 
L 63.794716 149.848498 
" clip-path="url(#p4b5139babd)" style="fill: none; stroke: #ff7f0e; stroke-width: 1.5"/>
    <path d="M 70.663733 233.469913 
L 70.663733 170.067849 
" clip-path="url(#p4b5139babd)" style="fill: none; stroke: #ff7f0e; stroke-width: 1.5"/>
    <path d="M 77.532749 220.890508 
L 77.532749 142.875983 
" clip-path="url(#p4b5139babd)" style="fill: none; stroke: #ff7f0e; stroke-width: 1.5"/>
    <path d="M 84.401766 232.728126 
L 84.401766 174.132878 
" clip-path="url(#p4b5139babd)" style="fill: none; stroke: #ff7f0e; stroke-width: 1.5"/>
    <path d="M 91.270783 226.698827 
L 91.270783 160.868614 
" clip-path="url(#p4b5139babd)" style="fill: none; stroke: #ff7f0e; stroke-width: 1.5"/>
    <path d="M 98.139799 227.872552 
L 98.139799 166.791756 
" clip-path="url(#p4b5139babd)" style="fill: none; stroke: #ff7f0e; stroke-width: 1.5"/>
    <path d="M 105.008816 221.337547 
L 105.008816 152.751176 
" clip-path="url(#p4b5139babd)" style="fill: none; stroke: #ff7f0e; stroke-width: 1.5"/>
    <path d="M 111.877833 213.613836 
L 111.877833 137.283816 
" clip-path="url(#p4b5139babd)" style="fill: none; stroke: #ff7f0e; stroke-width: 1.5"/>
    <path d="M 118.746849 221.402783 
L 118.746849 158.224342 
" clip-path="url(#p4b5139babd)" style="fill: none; stroke: #ff7f0e; stroke-width: 1.5"/>
    <path d="M 125.615866 222.363384 
L 125.615866 163.949609 
" clip-path="url(#p4b5139babd)" style="fill: none; stroke: #ff7f0e; stroke-width: 1.5"/>
    <path d="M 132.484883 215.122093 
L 132.484883 147.627048 
" clip-path="url(#p4b5139babd)" style="fill: none; stroke: #ff7f0e; stroke-width: 1.5"/>
    <path d="M 139.3539 216.67238 
L 139.3539 154.324113 
" clip-path="url(#p4b5139babd)" style="fill: none; stroke: #ff7f0e; stroke-width: 1.5"/>
    <path d="M 146.222916 216.563049 
L 146.222916 157.083697 
" clip-path="url(#p4b5139babd)" style="fill: none; stroke: #ff7f0e; stroke-width: 1.5"/>
    <path d="M 153.091933 206.935948 
L 153.091933 135.34185 
" clip-path="url(#p4b5139babd)" style="fill: none; stroke: #ff7f0e; stroke-width: 1.5"/>
    <path d="M 159.96095 209.866161 
L 159.96095 144.964355 
" clip-path="url(#p4b5139babd)" style="fill: none; stroke: #ff7f0e; stroke-width: 1.5"/>
    <path d="M 166.829966 201.862512 
L 166.829966 128.221377 
" clip-path="url(#p4b5139babd)" style="fill: none; stroke: #ff7f0e; stroke-width: 1.5"/>
    <path d="M 173.698983 207.939847 
L 173.698983 145.565512 
" clip-path="url(#p4b5139babd)" style="fill: none; stroke: #ff7f0e; stroke-width: 1.5"/>
    <path d="M 180.568 193.546882 
L 180.568 114.179827 
" clip-path="url(#p4b5139babd)" style="fill: none; stroke: #ff7f0e; stroke-width: 1.5"/>
    <path d="M 187.437016 201.820771 
L 187.437016 135.280149 
" clip-path="url(#p4b5139babd)" style="fill: none; stroke: #ff7f0e; stroke-width: 1.5"/>
    <path d="M 194.306033 204.139723 
L 194.306033 144.25977 
" clip-path="url(#p4b5139babd)" style="fill: none; stroke: #ff7f0e; stroke-width: 1.5"/>
    <path d="M 201.17505 193.891423 
L 201.17505 121.200872 
" clip-path="url(#p4b5139babd)" style="fill: none; stroke: #ff7f0e; stroke-width: 1.5"/>
    <path d="M 208.044067 186.846097 
L 208.044067 107.785284 
" clip-path="url(#p4b5139babd)" style="fill: none; stroke: #ff7f0e; stroke-width: 1.5"/>
    <path d="M 214.913083 193.608772 
L 214.913083 125.258364 
" clip-path="url(#p4b5139babd)" style="fill: none; stroke: #ff7f0e; stroke-width: 1.5"/>
    <path d="M 221.7821 182.858425 
L 221.7821 103.236826 
" clip-path="url(#p4b5139babd)" style="fill: none; stroke: #ff7f0e; stroke-width: 1.5"/>
    <path d="M 228.651117 189.126073 
L 228.651117 119.377785 
" clip-path="url(#p4b5139babd)" style="fill: none; stroke: #ff7f0e; stroke-width: 1.5"/>
    <path d="M 235.520133 188.629736 
L 235.520133 120.6397 
" clip-path="url(#p4b5139babd)" style="fill: none; stroke: #ff7f0e; stroke-width: 1.5"/>
    <path d="M 242.38915 183.584922 
L 242.38915 111.093082 
" clip-path="url(#p4b5139babd)" style="fill: none; stroke: #ff7f0e; stroke-width: 1.5"/>
    <path d="M 249.258167 175.141769 
L 249.258167 94.69938 
" clip-path="url(#p4b5139babd)" style="fill: none; stroke: #ff7f0e; stroke-width: 1.5"/>
    <path d="M 256.127183 174.244651 
L 256.127183 94.738148 
" clip-path="url(#p4b5139babd)" style="fill: none; stroke: #ff7f0e; stroke-width: 1.5"/>
    <path d="M 262.9962 181.077418 
L 262.9962 112.261938 
" clip-path="url(#p4b5139babd)" style="fill: none; stroke: #ff7f0e; stroke-width: 1.5"/>
    <path d="M 269.865217 174.20233 
L 269.865217 98.696768 
" clip-path="url(#p4b5139babd)" style="fill: none; stroke: #ff7f0e; stroke-width: 1.5"/>
    <path d="M 276.734234 176.963901 
L 276.734234 107.27314 
" clip-path="url(#p4b5139babd)" style="fill: none; stroke: #ff7f0e; stroke-width: 1.5"/>
    <path d="M 283.60325 174.681508 
L 283.60325 104.25258 
" clip-path="url(#p4b5139babd)" style="fill: none; stroke: #ff7f0e; stroke-width: 1.5"/>
    <path d="M 290.472267 168.473292 
L 290.472267 92.367506 
" clip-path="url(#p4b5139babd)" style="fill: none; stroke: #ff7f0e; stroke-width: 1.5"/>
    <path d="M 297.341284 173.113834 
L 297.341284 105.376452 
" clip-path="url(#p4b5139babd)" style="fill: none; stroke: #ff7f0e; stroke-width: 1.5"/>
    <path d="M 304.2103 165.896767 
L 304.2103 90.892132 
" clip-path="url(#p4b5139babd)" style="fill: none; stroke: #ff7f0e; stroke-width: 1.5"/>
    <path d="M 311.079317 164.564816 
L 311.079317 90.066554 
" clip-path="url(#p4b5139babd)" style="fill: none; stroke: #ff7f0e; stroke-width: 1.5"/>
    <path d="M 317.948334 158.862223 
L 317.948334 79.700858 
" clip-path="url(#p4b5139babd)" style="fill: none; stroke: #ff7f0e; stroke-width: 1.5"/>
    <path d="M 324.81735 170.873826 
L 324.81735 110.738825 
" clip-path="url(#p4b5139babd)" style="fill: none; stroke: #ff7f0e; stroke-width: 1.5"/>
    <path d="M 331.686367 159.019701 
L 331.686367 84.133396 
" clip-path="url(#p4b5139babd)" style="fill: none; stroke: #ff7f0e; stroke-width: 1.5"/>
    <path d="M 338.555384 153.716502 
L 338.555384 74.650163 
" clip-path="url(#p4b5139babd)" style="fill: none; stroke: #ff7f0e; stroke-width: 1.5"/>
    <path d="M 345.424401 151.23298 
L 345.424401 71.340223 
" clip-path="url(#p4b5139babd)" style="fill: none; stroke: #ff7f0e; stroke-width: 1.5"/>
    <path d="M 352.293417 165.370942 
L 352.293417 108.002483 
" clip-path="url(#p4b5139babd)" style="fill: none; stroke: #ff7f0e; stroke-width: 1.5"/>
    <path d="M 359.162434 149.642937 
L 359.162434 71.895868 
" clip-path="url(#p4b5139babd)" style="fill: none; stroke: #ff7f0e; stroke-width: 1.5"/>
    <path d="M 366.031451 145.759371 
L 366.031451 65.597726 
" clip-path="url(#p4b5139babd)" style="fill: none; stroke: #ff7f0e; stroke-width: 1.5"/>
    <path d="M 372.900467 144.455597 
L 372.900467 64.780659 
" clip-path="url(#p4b5139babd)" style="fill: none; stroke: #ff7f0e; stroke-width: 1.5"/>
    <path d="M 379.769484 156.415993 
L 379.769484 95.375446 
" clip-path="url(#p4b5139babd)" style="fill: none; stroke: #ff7f0e; stroke-width: 1.5"/>
    <path d="M 386.638501 140.686342 
L 386.638501 60.698185 
" clip-path="url(#p4b5139babd)" style="fill: none; stroke: #ff7f0e; stroke-width: 1.5"/>
    <path d="M 393.507517 140.450422 
L 393.507517 62.156778 
" clip-path="url(#p4b5139babd)" style="fill: none; stroke: #ff7f0e; stroke-width: 1.5"/>
    <path d="M 400.376534 139.924797 
L 400.376534 63.043316 
" clip-path="url(#p4b5139babd)" style="fill: none; stroke: #ff7f0e; stroke-width: 1.5"/>
   </g>
  </g>
 </g>
 <defs>
  <clipPath id="p4b5139babd">
   <rect x="46.965625" y="7.809279" width="370.24" height="234.299221"/>
  </clipPath>
 </defs>
</svg>
