<?xml version="1.0" encoding="utf-8" standalone="no"?>
<!DOCTYPE svg PUBLIC "-//W3C//DTD SVG 1.1//EN"
  "http://www.w3.org/Graphics/SVG/1.1/DTD/svg11.dtd">
<svg xmlns:xlink="http://www.w3.org/1999/xlink" width="408.053125pt" height="268.200625pt" viewBox="0 0 408.053125 268.200625" xmlns="http://www.w3.org/2000/svg" version="1.1">
 <metadata>
  <rdf:RDF xmlns:dc="http://purl.org/dc/elements/1.1/" xmlns:cc="http://creativecommons.org/ns#" xmlns:rdf="http://www.w3.org/1999/02/22-rdf-syntax-ns#">
   <cc:Work>
    <dc:type rdf:resource="http://purl.org/dc/dcmitype/StillImage"/>
    <dc:date>2025-12-19T10:15:59.380758</dc:date>
    <dc:format>image/svg+xml</dc:format>
    <dc:creator>
     <cc:Agent>
      <dc:title>Matplotlib v3.10.8, https://matplotlib.org/</dc:title>
     </cc:Agent>
    </dc:creator>
   </cc:Work>
  </rdf:RDF>
 </metadata>
 <defs>
  <style type="text/css">*{stroke-linejoin: round; stroke-linecap: butt}</style>
 </defs>
 <g id="figure_1">
  <g id="patch_1">
   <path d="M 0 268.200625 
L 408.053125 268.200625 
L 408.053125 0 
L 0 0 
z
" style="fill: #ffffff"/>
  </g>
  <g id="axes_1">
   <g id="patch_2">
    <path d="M 66.053125 228.96 
L 400.853125 228.96 
L 400.853125 7.2 
L 66.053125 7.2 
z
" style="fill: #ffffff"/>
   </g>
   <g id="matplotlib.axis_1">
    <g id="xtick_1">
     <g id="line2d_1">
      <defs>
       <path id="m6d00b3dd36" d="M 0 0 
L 0 3.5 
" style="stroke: #000000; stroke-width: 0.8"/>
      </defs>
      <g>
       <use xlink:href="#m6d00b3dd36" x="111.70767" y="228.96" style="stroke: #000000; stroke-width: 0.8"/>
      </g>
     </g>
     <g id="text_1">
      <!-- 1.6 -->
      <g transform="translate(103.756108 243.558437) scale(0.1 -0.1)">
       <defs>
        <path id="DejaVuSans-31" d="M 794 531 
L 1825 531 
L 1825 4091 
L 703 3866 
L 703 4441 
L 1819 4666 
L 2450 4666 
L 2450 531 
L 3481 531 
L 3481 0 
L 794 0 
L 794 531 
z
" transform="scale(0.015625)"/>
        <path id="DejaVuSans-2e" d="M 684 794 
L 1344 794 
L 1344 0 
L 684 0 
L 684 794 
z
" transform="scale(0.015625)"/>
        <path id="DejaVuSans-36" d="M 2113 2584 
Q 1688 2584 1439 2293 
Q 1191 2003 1191 1497 
Q 1191 994 1439 701 
Q 1688 409 2113 409 
Q 2538 409 2786 701 
Q 3034 994 3034 1497 
Q 3034 2003 2786 2293 
Q 2538 2584 2113 2584 
z
M 3366 4563 
L 3366 3988 
Q 3128 4100 2886 4159 
Q 2644 4219 2406 4219 
Q 1781 4219 1451 3797 
Q 1122 3375 1075 2522 
Q 1259 2794 1537 2939 
Q 1816 3084 2150 3084 
Q 2853 3084 3261 2657 
Q 3669 2231 3669 1497 
Q 3669 778 3244 343 
Q 2819 -91 2113 -91 
Q 1303 -91 875 529 
Q 447 1150 447 2328 
Q 447 3434 972 4092 
Q 1497 4750 2381 4750 
Q 2619 4750 2861 4703 
Q 3103 4656 3366 4563 
z
" transform="scale(0.015625)"/>
       </defs>
       <use xlink:href="#DejaVuSans-31"/>
       <use xlink:href="#DejaVuSans-2e" transform="translate(63.623047 0)"/>
       <use xlink:href="#DejaVuSans-36" transform="translate(95.410156 0)"/>
      </g>
     </g>
    </g>
    <g id="xtick_2">
     <g id="line2d_2">
      <g>
       <use xlink:href="#m6d00b3dd36" x="172.580398" y="228.96" style="stroke: #000000; stroke-width: 0.8"/>
      </g>
     </g>
     <g id="text_2">
      <!-- 1.8 -->
      <g transform="translate(164.628835 243.558437) scale(0.1 -0.1)">
       <defs>
        <path id="DejaVuSans-38" d="M 2034 2216 
Q 1584 2216 1326 1975 
Q 1069 1734 1069 1313 
Q 1069 891 1326 650 
Q 1584 409 2034 409 
Q 2484 409 2743 651 
Q 3003 894 3003 1313 
Q 3003 1734 2745 1975 
Q 2488 2216 2034 2216 
z
M 1403 2484 
Q 997 2584 770 2862 
Q 544 3141 544 3541 
Q 544 4100 942 4425 
Q 1341 4750 2034 4750 
Q 2731 4750 3128 4425 
Q 3525 4100 3525 3541 
Q 3525 3141 3298 2862 
Q 3072 2584 2669 2484 
Q 3125 2378 3379 2068 
Q 3634 1759 3634 1313 
Q 3634 634 3220 271 
Q 2806 -91 2034 -91 
Q 1263 -91 848 271 
Q 434 634 434 1313 
Q 434 1759 690 2068 
Q 947 2378 1403 2484 
z
M 1172 3481 
Q 1172 3119 1398 2916 
Q 1625 2713 2034 2713 
Q 2441 2713 2670 2916 
Q 2900 3119 2900 3481 
Q 2900 3844 2670 4047 
Q 2441 4250 2034 4250 
Q 1625 4250 1398 4047 
Q 1172 3844 1172 3481 
z
" transform="scale(0.015625)"/>
       </defs>
       <use xlink:href="#DejaVuSans-31"/>
       <use xlink:href="#DejaVuSans-2e" transform="translate(63.623047 0)"/>
       <use xlink:href="#DejaVuSans-38" transform="translate(95.410156 0)"/>
      </g>
     </g>
    </g>
    <g id="xtick_3">
     <g id="line2d_3">
      <g>
       <use xlink:href="#m6d00b3dd36" x="233.453125" y="228.96" style="stroke: #000000; stroke-width: 0.8"/>
      </g>
     </g>
     <g id="text_3">
      <!-- 2.0 -->
      <g transform="translate(225.501563 243.558437) scale(0.1 -0.1)">
       <defs>
        <path id="DejaVuSans-32" d="M 1228 531 
L 3431 531 
L 3431 0 
L 469 0 
L 469 531 
Q 828 903 1448 1529 
Q 2069 2156 2228 2338 
Q 2531 2678 2651 2914 
Q 2772 3150 2772 3378 
Q 2772 3750 2511 3984 
Q 2250 4219 1831 4219 
Q 1534 4219 1204 4116 
Q 875 4013 500 3803 
L 500 4441 
Q 881 4594 1212 4672 
Q 1544 4750 1819 4750 
Q 2544 4750 2975 4387 
Q 3406 4025 3406 3419 
Q 3406 3131 3298 2873 
Q 3191 2616 2906 2266 
Q 2828 2175 2409 1742 
Q 1991 1309 1228 531 
z
" transform="scale(0.015625)"/>
        <path id="DejaVuSans-30" d="M 2034 4250 
Q 1547 4250 1301 3770 
Q 1056 3291 1056 2328 
Q 1056 1369 1301 889 
Q 1547 409 2034 409 
Q 2525 409 2770 889 
Q 3016 1369 3016 2328 
Q 3016 3291 2770 3770 
Q 2525 4250 2034 4250 
z
M 2034 4750 
Q 2819 4750 3233 4129 
Q 3647 3509 3647 2328 
Q 3647 1150 3233 529 
Q 2819 -91 2034 -91 
Q 1250 -91 836 529 
Q 422 1150 422 2328 
Q 422 3509 836 4129 
Q 1250 4750 2034 4750 
z
" transform="scale(0.015625)"/>
       </defs>
       <use xlink:href="#DejaVuSans-32"/>
       <use xlink:href="#DejaVuSans-2e" transform="translate(63.623047 0)"/>
       <use xlink:href="#DejaVuSans-30" transform="translate(95.410156 0)"/>
      </g>
     </g>
    </g>
    <g id="xtick_4">
     <g id="line2d_4">
      <g>
       <use xlink:href="#m6d00b3dd36" x="294.325852" y="228.96" style="stroke: #000000; stroke-width: 0.8"/>
      </g>
     </g>
     <g id="text_4">
      <!-- 2.2 -->
      <g transform="translate(286.37429 243.558437) scale(0.1 -0.1)">
       <use xlink:href="#DejaVuSans-32"/>
       <use xlink:href="#DejaVuSans-2e" transform="translate(63.623047 0)"/>
       <use xlink:href="#DejaVuSans-32" transform="translate(95.410156 0)"/>
      </g>
     </g>
    </g>
    <g id="xtick_5">
     <g id="line2d_5">
      <g>
       <use xlink:href="#m6d00b3dd36" x="355.19858" y="228.96" style="stroke: #000000; stroke-width: 0.8"/>
      </g>
     </g>
     <g id="text_5">
      <!-- 2.4 -->
      <g transform="translate(347.247017 243.558437) scale(0.1 -0.1)">
       <defs>
        <path id="DejaVuSans-34" d="M 2419 4116 
L 825 1625 
L 2419 1625 
L 2419 4116 
z
M 2253 4666 
L 3047 4666 
L 3047 1625 
L 3713 1625 
L 3713 1100 
L 3047 1100 
L 3047 0 
L 2419 0 
L 2419 1100 
L 313 1100 
L 313 1709 
L 2253 4666 
z
" transform="scale(0.015625)"/>
       </defs>
       <use xlink:href="#DejaVuSans-32"/>
       <use xlink:href="#DejaVuSans-2e" transform="translate(63.623047 0)"/>
       <use xlink:href="#DejaVuSans-34" transform="translate(95.410156 0)"/>
      </g>
     </g>
    </g>
    <g id="text_6">
     <!-- dspacing [Å] -->
     <g transform="translate(202.04375 258.920937) scale(0.1 -0.1)">
      <defs>
       <path id="DejaVuSans-64" d="M 2906 2969 
L 2906 4863 
L 3481 4863 
L 3481 0 
L 2906 0 
L 2906 525 
Q 2725 213 2448 61 
Q 2172 -91 1784 -91 
Q 1150 -91 751 415 
Q 353 922 353 1747 
Q 353 2572 751 3078 
Q 1150 3584 1784 3584 
Q 2172 3584 2448 3432 
Q 2725 3281 2906 2969 
z
M 947 1747 
Q 947 1113 1208 752 
Q 1469 391 1925 391 
Q 2381 391 2643 752 
Q 2906 1113 2906 1747 
Q 2906 2381 2643 2742 
Q 2381 3103 1925 3103 
Q 1469 3103 1208 2742 
Q 947 2381 947 1747 
z
" transform="scale(0.015625)"/>
       <path id="DejaVuSans-73" d="M 2834 3397 
L 2834 2853 
Q 2591 2978 2328 3040 
Q 2066 3103 1784 3103 
Q 1356 3103 1142 2972 
Q 928 2841 928 2578 
Q 928 2378 1081 2264 
Q 1234 2150 1697 2047 
L 1894 2003 
Q 2506 1872 2764 1633 
Q 3022 1394 3022 966 
Q 3022 478 2636 193 
Q 2250 -91 1575 -91 
Q 1294 -91 989 -36 
Q 684 19 347 128 
L 347 722 
Q 666 556 975 473 
Q 1284 391 1588 391 
Q 1994 391 2212 530 
Q 2431 669 2431 922 
Q 2431 1156 2273 1281 
Q 2116 1406 1581 1522 
L 1381 1569 
Q 847 1681 609 1914 
Q 372 2147 372 2553 
Q 372 3047 722 3315 
Q 1072 3584 1716 3584 
Q 2034 3584 2315 3537 
Q 2597 3491 2834 3397 
z
" transform="scale(0.015625)"/>
       <path id="DejaVuSans-70" d="M 1159 525 
L 1159 -1331 
L 581 -1331 
L 581 3500 
L 1159 3500 
L 1159 2969 
Q 1341 3281 1617 3432 
Q 1894 3584 2278 3584 
Q 2916 3584 3314 3078 
Q 3713 2572 3713 1747 
Q 3713 922 3314 415 
Q 2916 -91 2278 -91 
Q 1894 -91 1617 61 
Q 1341 213 1159 525 
z
M 3116 1747 
Q 3116 2381 2855 2742 
Q 2594 3103 2138 3103 
Q 1681 3103 1420 2742 
Q 1159 2381 1159 1747 
Q 1159 1113 1420 752 
Q 1681 391 2138 391 
Q 2594 391 2855 752 
Q 3116 1113 3116 1747 
z
" transform="scale(0.015625)"/>
       <path id="DejaVuSans-61" d="M 2194 1759 
Q 1497 1759 1228 1600 
Q 959 1441 959 1056 
Q 959 750 1161 570 
Q 1363 391 1709 391 
Q 2188 391 2477 730 
Q 2766 1069 2766 1631 
L 2766 1759 
L 2194 1759 
z
M 3341 1997 
L 3341 0 
L 2766 0 
L 2766 531 
Q 2569 213 2275 61 
Q 1981 -91 1556 -91 
Q 1019 -91 701 211 
Q 384 513 384 1019 
Q 384 1609 779 1909 
Q 1175 2209 1959 2209 
L 2766 2209 
L 2766 2266 
Q 2766 2663 2505 2880 
Q 2244 3097 1772 3097 
Q 1472 3097 1187 3025 
Q 903 2953 641 2809 
L 641 3341 
Q 956 3463 1253 3523 
Q 1550 3584 1831 3584 
Q 2591 3584 2966 3190 
Q 3341 2797 3341 1997 
z
" transform="scale(0.015625)"/>
       <path id="DejaVuSans-63" d="M 3122 3366 
L 3122 2828 
Q 2878 2963 2633 3030 
Q 2388 3097 2138 3097 
Q 1578 3097 1268 2742 
Q 959 2388 959 1747 
Q 959 1106 1268 751 
Q 1578 397 2138 397 
Q 2388 397 2633 464 
Q 2878 531 3122 666 
L 3122 134 
Q 2881 22 2623 -34 
Q 2366 -91 2075 -91 
Q 1284 -91 818 406 
Q 353 903 353 1747 
Q 353 2603 823 3093 
Q 1294 3584 2113 3584 
Q 2378 3584 2631 3529 
Q 2884 3475 3122 3366 
z
" transform="scale(0.015625)"/>
       <path id="DejaVuSans-69" d="M 603 3500 
L 1178 3500 
L 1178 0 
L 603 0 
L 603 3500 
z
M 603 4863 
L 1178 4863 
L 1178 4134 
L 603 4134 
L 603 4863 
z
" transform="scale(0.015625)"/>
       <path id="DejaVuSans-6e" d="M 3513 2113 
L 3513 0 
L 2938 0 
L 2938 2094 
Q 2938 2591 2744 2837 
Q 2550 3084 2163 3084 
Q 1697 3084 1428 2787 
Q 1159 2491 1159 1978 
L 1159 0 
L 581 0 
L 581 3500 
L 1159 3500 
L 1159 2956 
Q 1366 3272 1645 3428 
Q 1925 3584 2291 3584 
Q 2894 3584 3203 3211 
Q 3513 2838 3513 2113 
z
" transform="scale(0.015625)"/>
       <path id="DejaVuSans-67" d="M 2906 1791 
Q 2906 2416 2648 2759 
Q 2391 3103 1925 3103 
Q 1463 3103 1205 2759 
Q 947 2416 947 1791 
Q 947 1169 1205 825 
Q 1463 481 1925 481 
Q 2391 481 2648 825 
Q 2906 1169 2906 1791 
z
M 3481 434 
Q 3481 -459 3084 -895 
Q 2688 -1331 1869 -1331 
Q 1566 -1331 1297 -1286 
Q 1028 -1241 775 -1147 
L 775 -588 
Q 1028 -725 1275 -790 
Q 1522 -856 1778 -856 
Q 2344 -856 2625 -561 
Q 2906 -266 2906 331 
L 2906 616 
Q 2728 306 2450 153 
Q 2172 0 1784 0 
Q 1141 0 747 490 
Q 353 981 353 1791 
Q 353 2603 747 3093 
Q 1141 3584 1784 3584 
Q 2172 3584 2450 3431 
Q 2728 3278 2906 2969 
L 2906 3500 
L 3481 3500 
L 3481 434 
z
" transform="scale(0.015625)"/>
       <path id="DejaVuSans-20" transform="scale(0.015625)"/>
       <path id="DejaVuSans-5b" d="M 550 4863 
L 1875 4863 
L 1875 4416 
L 1125 4416 
L 1125 -397 
L 1875 -397 
L 1875 -844 
L 550 -844 
L 550 4863 
z
" transform="scale(0.015625)"/>
       <path id="DejaVuSans-c5" d="M 2663 5081 
Q 2663 5278 2523 5417 
Q 2384 5556 2188 5556 
Q 1988 5556 1852 5420 
Q 1716 5284 1716 5081 
Q 1716 4884 1853 4746 
Q 1991 4609 2188 4609 
Q 2384 4609 2523 4746 
Q 2663 4884 2663 5081 
z
M 2188 4044 
L 1338 1722 
L 3041 1722 
L 2188 4044 
z
M 1716 4366 
Q 1525 4494 1428 4673 
Q 1331 4853 1331 5081 
Q 1331 5441 1579 5691 
Q 1828 5941 2188 5941 
Q 2544 5941 2795 5689 
Q 3047 5438 3047 5081 
Q 3047 4863 2948 4678 
Q 2850 4494 2663 4366 
L 4325 0 
L 3669 0 
L 3244 1197 
L 1141 1197 
L 716 0 
L 50 0 
L 1716 4366 
z
" transform="scale(0.015625)"/>
       <path id="DejaVuSans-5d" d="M 1947 4863 
L 1947 -844 
L 622 -844 
L 622 -397 
L 1369 -397 
L 1369 4416 
L 622 4416 
L 622 4863 
L 1947 4863 
z
" transform="scale(0.015625)"/>
      </defs>
      <use xlink:href="#DejaVuSans-64"/>
      <use xlink:href="#DejaVuSans-73" transform="translate(63.476562 0)"/>
      <use xlink:href="#DejaVuSans-70" transform="translate(115.576172 0)"/>
      <use xlink:href="#DejaVuSans-61" transform="translate(179.052734 0)"/>
      <use xlink:href="#DejaVuSans-63" transform="translate(240.332031 0)"/>
      <use xlink:href="#DejaVuSans-69" transform="translate(295.3125 0)"/>
      <use xlink:href="#DejaVuSans-6e" transform="translate(323.095703 0)"/>
      <use xlink:href="#DejaVuSans-67" transform="translate(386.474609 0)"/>
      <use xlink:href="#DejaVuSans-20" transform="translate(449.951172 0)"/>
      <use xlink:href="#DejaVuSans-5b" transform="translate(481.738281 0)"/>
      <use xlink:href="#DejaVuSans-c5" transform="translate(520.751953 0)"/>
      <use xlink:href="#DejaVuSans-5d" transform="translate(589.160156 0)"/>
     </g>
    </g>
   </g>
   <g id="matplotlib.axis_2">
    <g id="ytick_1">
     <g id="line2d_6">
      <defs>
       <path id="m07627c408d" d="M 0 0 
L -3.5 0 
" style="stroke: #000000; stroke-width: 0.8"/>
      </defs>
      <g>
       <use xlink:href="#m07627c408d" x="66.053125" y="219.338307" style="stroke: #000000; stroke-width: 0.8"/>
      </g>
     </g>
     <g id="text_7">
      <!-- 0 -->
      <g transform="translate(52.690625 223.137526) scale(0.1 -0.1)">
       <use xlink:href="#DejaVuSans-30"/>
      </g>
     </g>
    </g>
    <g id="ytick_2">
     <g id="line2d_7">
      <g>
       <use xlink:href="#m07627c408d" x="66.053125" y="183.580342" style="stroke: #000000; stroke-width: 0.8"/>
      </g>
     </g>
     <g id="text_8">
      <!-- 100000 -->
      <g transform="translate(20.878125 187.379561) scale(0.1 -0.1)">
       <use xlink:href="#DejaVuSans-31"/>
       <use xlink:href="#DejaVuSans-30" transform="translate(63.623047 0)"/>
       <use xlink:href="#DejaVuSans-30" transform="translate(127.246094 0)"/>
       <use xlink:href="#DejaVuSans-30" transform="translate(190.869141 0)"/>
       <use xlink:href="#DejaVuSans-30" transform="translate(254.492188 0)"/>
       <use xlink:href="#DejaVuSans-30" transform="translate(318.115234 0)"/>
      </g>
     </g>
    </g>
    <g id="ytick_3">
     <g id="line2d_8">
      <g>
       <use xlink:href="#m07627c408d" x="66.053125" y="147.822377" style="stroke: #000000; stroke-width: 0.8"/>
      </g>
     </g>
     <g id="text_9">
      <!-- 200000 -->
      <g transform="translate(20.878125 151.621596) scale(0.1 -0.1)">
       <use xlink:href="#DejaVuSans-32"/>
       <use xlink:href="#DejaVuSans-30" transform="translate(63.623047 0)"/>
       <use xlink:href="#DejaVuSans-30" transform="translate(127.246094 0)"/>
       <use xlink:href="#DejaVuSans-30" transform="translate(190.869141 0)"/>
       <use xlink:href="#DejaVuSans-30" transform="translate(254.492188 0)"/>
       <use xlink:href="#DejaVuSans-30" transform="translate(318.115234 0)"/>
      </g>
     </g>
    </g>
    <g id="ytick_4">
     <g id="line2d_9">
      <g>
       <use xlink:href="#m07627c408d" x="66.053125" y="112.064412" style="stroke: #000000; stroke-width: 0.8"/>
      </g>
     </g>
     <g id="text_10">
      <!-- 300000 -->
      <g transform="translate(20.878125 115.863631) scale(0.1 -0.1)">
       <defs>
        <path id="DejaVuSans-33" d="M 2597 2516 
Q 3050 2419 3304 2112 
Q 3559 1806 3559 1356 
Q 3559 666 3084 287 
Q 2609 -91 1734 -91 
Q 1441 -91 1130 -33 
Q 819 25 488 141 
L 488 750 
Q 750 597 1062 519 
Q 1375 441 1716 441 
Q 2309 441 2620 675 
Q 2931 909 2931 1356 
Q 2931 1769 2642 2001 
Q 2353 2234 1838 2234 
L 1294 2234 
L 1294 2753 
L 1863 2753 
Q 2328 2753 2575 2939 
Q 2822 3125 2822 3475 
Q 2822 3834 2567 4026 
Q 2313 4219 1838 4219 
Q 1578 4219 1281 4162 
Q 984 4106 628 3988 
L 628 4550 
Q 988 4650 1302 4700 
Q 1616 4750 1894 4750 
Q 2613 4750 3031 4423 
Q 3450 4097 3450 3541 
Q 3450 3153 3228 2886 
Q 3006 2619 2597 2516 
z
" transform="scale(0.015625)"/>
       </defs>
       <use xlink:href="#DejaVuSans-33"/>
       <use xlink:href="#DejaVuSans-30" transform="translate(63.623047 0)"/>
       <use xlink:href="#DejaVuSans-30" transform="translate(127.246094 0)"/>
       <use xlink:href="#DejaVuSans-30" transform="translate(190.869141 0)"/>
       <use xlink:href="#DejaVuSans-30" transform="translate(254.492188 0)"/>
       <use xlink:href="#DejaVuSans-30" transform="translate(318.115234 0)"/>
      </g>
     </g>
    </g>
    <g id="ytick_5">
     <g id="line2d_10">
      <g>
       <use xlink:href="#m07627c408d" x="66.053125" y="76.306447" style="stroke: #000000; stroke-width: 0.8"/>
      </g>
     </g>
     <g id="text_11">
      <!-- 400000 -->
      <g transform="translate(20.878125 80.105666) scale(0.1 -0.1)">
       <use xlink:href="#DejaVuSans-34"/>
       <use xlink:href="#DejaVuSans-30" transform="translate(63.623047 0)"/>
       <use xlink:href="#DejaVuSans-30" transform="translate(127.246094 0)"/>
       <use xlink:href="#DejaVuSans-30" transform="translate(190.869141 0)"/>
       <use xlink:href="#DejaVuSans-30" transform="translate(254.492188 0)"/>
       <use xlink:href="#DejaVuSans-30" transform="translate(318.115234 0)"/>
      </g>
     </g>
    </g>
    <g id="ytick_6">
     <g id="line2d_11">
      <g>
       <use xlink:href="#m07627c408d" x="66.053125" y="40.548482" style="stroke: #000000; stroke-width: 0.8"/>
      </g>
     </g>
     <g id="text_12">
      <!-- 500000 -->
      <g transform="translate(20.878125 44.3477) scale(0.1 -0.1)">
       <defs>
        <path id="DejaVuSans-35" d="M 691 4666 
L 3169 4666 
L 3169 4134 
L 1269 4134 
L 1269 2991 
Q 1406 3038 1543 3061 
Q 1681 3084 1819 3084 
Q 2600 3084 3056 2656 
Q 3513 2228 3513 1497 
Q 3513 744 3044 326 
Q 2575 -91 1722 -91 
Q 1428 -91 1123 -41 
Q 819 9 494 109 
L 494 744 
Q 775 591 1075 516 
Q 1375 441 1709 441 
Q 2250 441 2565 725 
Q 2881 1009 2881 1497 
Q 2881 1984 2565 2268 
Q 2250 2553 1709 2553 
Q 1456 2553 1204 2497 
Q 953 2441 691 2322 
L 691 4666 
z
" transform="scale(0.015625)"/>
       </defs>
       <use xlink:href="#DejaVuSans-35"/>
       <use xlink:href="#DejaVuSans-30" transform="translate(63.623047 0)"/>
       <use xlink:href="#DejaVuSans-30" transform="translate(127.246094 0)"/>
       <use xlink:href="#DejaVuSans-30" transform="translate(190.869141 0)"/>
       <use xlink:href="#DejaVuSans-30" transform="translate(254.492188 0)"/>
       <use xlink:href="#DejaVuSans-30" transform="translate(318.115234 0)"/>
      </g>
     </g>
    </g>
    <g id="text_13">
     <!-- data [counts] -->
     <g transform="translate(14.798438 151.544062) rotate(-90) scale(0.1 -0.1)">
      <defs>
       <path id="DejaVuSans-74" d="M 1172 4494 
L 1172 3500 
L 2356 3500 
L 2356 3053 
L 1172 3053 
L 1172 1153 
Q 1172 725 1289 603 
Q 1406 481 1766 481 
L 2356 481 
L 2356 0 
L 1766 0 
Q 1100 0 847 248 
Q 594 497 594 1153 
L 594 3053 
L 172 3053 
L 172 3500 
L 594 3500 
L 594 4494 
L 1172 4494 
z
" transform="scale(0.015625)"/>
       <path id="DejaVuSans-6f" d="M 1959 3097 
Q 1497 3097 1228 2736 
Q 959 2375 959 1747 
Q 959 1119 1226 758 
Q 1494 397 1959 397 
Q 2419 397 2687 759 
Q 2956 1122 2956 1747 
Q 2956 2369 2687 2733 
Q 2419 3097 1959 3097 
z
M 1959 3584 
Q 2709 3584 3137 3096 
Q 3566 2609 3566 1747 
Q 3566 888 3137 398 
Q 2709 -91 1959 -91 
Q 1206 -91 779 398 
Q 353 888 353 1747 
Q 353 2609 779 3096 
Q 1206 3584 1959 3584 
z
" transform="scale(0.015625)"/>
       <path id="DejaVuSans-75" d="M 544 1381 
L 544 3500 
L 1119 3500 
L 1119 1403 
Q 1119 906 1312 657 
Q 1506 409 1894 409 
Q 2359 409 2629 706 
Q 2900 1003 2900 1516 
L 2900 3500 
L 3475 3500 
L 3475 0 
L 2900 0 
L 2900 538 
Q 2691 219 2414 64 
Q 2138 -91 1772 -91 
Q 1169 -91 856 284 
Q 544 659 544 1381 
z
M 1991 3584 
L 1991 3584 
z
" transform="scale(0.015625)"/>
      </defs>
      <use xlink:href="#DejaVuSans-64"/>
      <use xlink:href="#DejaVuSans-61" transform="translate(63.476562 0)"/>
      <use xlink:href="#DejaVuSans-74" transform="translate(124.755859 0)"/>
      <use xlink:href="#DejaVuSans-61" transform="translate(163.964844 0)"/>
      <use xlink:href="#DejaVuSans-20" transform="translate(225.244141 0)"/>
      <use xlink:href="#DejaVuSans-5b" transform="translate(257.03125 0)"/>
      <use xlink:href="#DejaVuSans-63" transform="translate(296.044922 0)"/>
      <use xlink:href="#DejaVuSans-6f" transform="translate(351.025391 0)"/>
      <use xlink:href="#DejaVuSans-75" transform="translate(412.207031 0)"/>
      <use xlink:href="#DejaVuSans-6e" transform="translate(475.585938 0)"/>
      <use xlink:href="#DejaVuSans-74" transform="translate(538.964844 0)"/>
      <use xlink:href="#DejaVuSans-73" transform="translate(578.173828 0)"/>
      <use xlink:href="#DejaVuSans-5d" transform="translate(630.273438 0)"/>
     </g>
    </g>
   </g>
   <g id="line2d_12">
    <path d="M 81.271307 213.807623 
L 84.314943 213.807623 
L 84.314943 214.01788 
L 93.445852 214.091541 
L 93.445852 214.222058 
L 105.620398 214.241725 
L 105.620398 214.487382 
L 108.664034 214.487382 
L 108.664034 214.810276 
L 111.70767 214.810276 
L 111.70767 215.051643 
L 114.751307 215.051643 
L 114.751307 215.170717 
L 120.83858 215.268693 
L 120.83858 215.368816 
L 126.925852 215.465005 
L 126.925852 215.600885 
L 133.013125 215.682413 
L 133.013125 215.757862 
L 139.100398 215.790045 
L 139.100398 215.873718 
L 151.274943 215.830809 
L 151.274943 215.728541 
L 154.31858 215.728541 
L 154.31858 215.567988 
L 157.362216 215.567988 
L 157.362216 215.339137 
L 160.405852 215.339137 
L 160.405852 214.961175 
L 163.449489 214.961175 
L 163.449489 213.83909 
L 166.493125 213.83909 
L 166.493125 209.1455 
L 169.536761 209.1455 
L 169.536761 176.081182 
L 172.580398 176.081182 
L 172.580398 130.397163 
L 175.624034 130.397163 
L 175.624034 134.777514 
L 178.66767 134.777514 
L 178.66767 186.471374 
L 181.711307 186.471374 
L 181.711307 207.02827 
L 184.754943 207.02827 
L 184.754943 212.115914 
L 187.79858 212.115914 
L 187.79858 213.878781 
L 190.842216 213.878781 
L 190.842216 214.724457 
L 193.885852 214.724457 
L 193.885852 215.146759 
L 206.060398 215.068091 
L 206.060398 214.721954 
L 209.104034 214.721954 
L 209.104034 214.174857 
L 212.14767 214.174857 
L 212.14767 213.724665 
L 215.191307 213.724665 
L 215.191307 213.32346 
L 224.322216 213.383891 
L 224.322216 213.555529 
L 230.409489 213.612385 
L 230.409489 213.387467 
L 233.453125 213.387467 
L 233.453125 212.871122 
L 236.496761 212.871122 
L 236.496761 211.187279 
L 239.540398 211.187279 
L 239.540398 205.853264 
L 242.584034 205.853264 
L 242.584034 193.181714 
L 245.62767 193.181714 
L 245.62767 177.782546 
L 248.671307 177.782546 
L 248.671307 179.682009 
L 251.714943 179.682009 
L 251.714943 150.490994 
L 254.75858 150.490994 
L 254.75858 17.548601 
L 257.802216 17.548601 
L 257.802216 39.178236 
L 260.845852 39.178236 
L 260.845852 158.435699 
L 263.889489 158.435699 
L 263.889489 198.065894 
L 266.933125 198.065894 
L 266.933125 208.728562 
L 269.976761 208.728562 
L 269.976761 212.71629 
L 273.020398 212.71629 
L 273.020398 214.746627 
L 276.064034 214.746627 
L 276.064034 215.855124 
L 279.10767 215.855124 
L 279.10767 216.536313 
L 282.151307 216.536313 
L 282.151307 217.035852 
L 285.194943 217.035852 
L 285.194943 217.364468 
L 288.23858 217.364468 
L 288.23858 217.601901 
L 291.282216 217.601901 
L 291.282216 217.75423 
L 294.325852 217.75423 
L 294.325852 217.884389 
L 297.369489 217.884389 
L 297.369489 218.013832 
L 303.456761 218.087494 
L 303.456761 218.142919 
L 318.674943 218.22838 
L 318.674943 218.291314 
L 333.893125 218.392867 
L 333.893125 218.451152 
L 355.19858 218.546626 
L 355.19858 218.585602 
L 370.416761 218.665343 
L 370.416761 218.709682 
L 382.591307 218.810162 
L 382.591307 218.867018 
L 385.634943 218.867018 
L 385.634943 218.867018 
" clip-path="url(#p48a415546d)" style="fill: none; stroke: #1f77b4; stroke-width: 1.5; stroke-linecap: square"/>
   </g>
   <g id="LineCollection_1">
    <path d="M 82.793125 213.852094 
L 82.793125 213.763152 
" clip-path="url(#p48a415546d)" style="fill: none; stroke: #1f77b4; stroke-width: 1.5"/>
    <path d="M 85.836761 214.061497 
L 85.836761 213.974262 
" clip-path="url(#p48a415546d)" style="fill: none; stroke: #1f77b4; stroke-width: 1.5"/>
    <path d="M 88.880398 214.090342 
L 88.880398 214.003345 
" clip-path="url(#p48a415546d)" style="fill: none; stroke: #1f77b4; stroke-width: 1.5"/>
    <path d="M 91.924034 214.134856 
L 91.924034 214.048227 
" clip-path="url(#p48a415546d)" style="fill: none; stroke: #1f77b4; stroke-width: 1.5"/>
    <path d="M 94.96767 214.26483 
L 94.96767 214.179286 
" clip-path="url(#p48a415546d)" style="fill: none; stroke: #1f77b4; stroke-width: 1.5"/>
    <path d="M 98.011307 214.209992 
L 98.011307 214.123989 
" clip-path="url(#p48a415546d)" style="fill: none; stroke: #1f77b4; stroke-width: 1.5"/>
    <path d="M 101.054943 214.165836 
L 101.054943 214.079465 
" clip-path="url(#p48a415546d)" style="fill: none; stroke: #1f77b4; stroke-width: 1.5"/>
    <path d="M 104.09858 214.284415 
L 104.09858 214.199035 
" clip-path="url(#p48a415546d)" style="fill: none; stroke: #1f77b4; stroke-width: 1.5"/>
    <path d="M 107.142216 214.52903 
L 107.142216 214.445734 
" clip-path="url(#p48a415546d)" style="fill: none; stroke: #1f77b4; stroke-width: 1.5"/>
    <path d="M 110.185852 214.850515 
L 110.185852 214.770038 
" clip-path="url(#p48a415546d)" style="fill: none; stroke: #1f77b4; stroke-width: 1.5"/>
    <path d="M 113.229489 215.090794 
L 113.229489 215.012491 
" clip-path="url(#p48a415546d)" style="fill: none; stroke: #1f77b4; stroke-width: 1.5"/>
    <path d="M 116.273125 215.20932 
L 116.273125 215.132113 
" clip-path="url(#p48a415546d)" style="fill: none; stroke: #1f77b4; stroke-width: 1.5"/>
    <path d="M 119.316761 215.306841 
L 119.316761 215.230546 
" clip-path="url(#p48a415546d)" style="fill: none; stroke: #1f77b4; stroke-width: 1.5"/>
    <path d="M 122.360398 215.406491 
L 122.360398 215.331141 
" clip-path="url(#p48a415546d)" style="fill: none; stroke: #1f77b4; stroke-width: 1.5"/>
    <path d="M 125.404034 215.50222 
L 125.404034 215.427789 
" clip-path="url(#p48a415546d)" style="fill: none; stroke: #1f77b4; stroke-width: 1.5"/>
    <path d="M 128.44767 215.637442 
L 128.44767 215.564328 
" clip-path="url(#p48a415546d)" style="fill: none; stroke: #1f77b4; stroke-width: 1.5"/>
    <path d="M 131.491307 215.718569 
L 131.491307 215.646257 
" clip-path="url(#p48a415546d)" style="fill: none; stroke: #1f77b4; stroke-width: 1.5"/>
    <path d="M 134.534943 215.793644 
L 134.534943 215.722081 
" clip-path="url(#p48a415546d)" style="fill: none; stroke: #1f77b4; stroke-width: 1.5"/>
    <path d="M 137.57858 215.825665 
L 137.57858 215.754425 
" clip-path="url(#p48a415546d)" style="fill: none; stroke: #1f77b4; stroke-width: 1.5"/>
    <path d="M 140.622216 215.908916 
L 140.622216 215.838521 
" clip-path="url(#p48a415546d)" style="fill: none; stroke: #1f77b4; stroke-width: 1.5"/>
    <path d="M 143.665852 215.905002 
L 143.665852 215.834567 
" clip-path="url(#p48a415546d)" style="fill: none; stroke: #1f77b4; stroke-width: 1.5"/>
    <path d="M 146.709489 215.831713 
L 146.709489 215.760534 
" clip-path="url(#p48a415546d)" style="fill: none; stroke: #1f77b4; stroke-width: 1.5"/>
    <path d="M 149.753125 215.866224 
L 149.753125 215.795394 
" clip-path="url(#p48a415546d)" style="fill: none; stroke: #1f77b4; stroke-width: 1.5"/>
    <path d="M 152.796761 215.764468 
L 152.796761 215.692614 
" clip-path="url(#p48a415546d)" style="fill: none; stroke: #1f77b4; stroke-width: 1.5"/>
    <path d="M 155.840398 215.604705 
L 155.840398 215.53127 
" clip-path="url(#p48a415546d)" style="fill: none; stroke: #1f77b4; stroke-width: 1.5"/>
    <path d="M 158.884034 215.376952 
L 158.884034 215.301321 
" clip-path="url(#p48a415546d)" style="fill: none; stroke: #1f77b4; stroke-width: 1.5"/>
    <path d="M 161.92767 215.000737 
L 161.92767 214.921613 
" clip-path="url(#p48a415546d)" style="fill: none; stroke: #1f77b4; stroke-width: 1.5"/>
    <path d="M 164.971307 213.883434 
L 164.971307 213.794746 
" clip-path="url(#p48a415546d)" style="fill: none; stroke: #1f77b4; stroke-width: 1.5"/>
    <path d="M 168.014943 209.205871 
L 168.014943 209.085128 
" clip-path="url(#p48a415546d)" style="fill: none; stroke: #1f77b4; stroke-width: 1.5"/>
    <path d="M 171.05858 176.205552 
L 171.05858 175.956812 
" clip-path="url(#p48a415546d)" style="fill: none; stroke: #1f77b4; stroke-width: 1.5"/>
    <path d="M 174.102216 130.575499 
L 174.102216 130.218828 
" clip-path="url(#p48a415546d)" style="fill: none; stroke: #1f77b4; stroke-width: 1.5"/>
    <path d="M 177.145852 134.951402 
L 177.145852 134.603625 
" clip-path="url(#p48a415546d)" style="fill: none; stroke: #1f77b4; stroke-width: 1.5"/>
    <path d="M 180.189489 186.579783 
L 180.189489 186.362965 
" clip-path="url(#p48a415546d)" style="fill: none; stroke: #1f77b4; stroke-width: 1.5"/>
    <path d="M 183.233125 207.094617 
L 183.233125 206.961924 
" clip-path="url(#p48a415546d)" style="fill: none; stroke: #1f77b4; stroke-width: 1.5"/>
    <path d="M 186.276761 212.166733 
L 186.276761 212.065095 
" clip-path="url(#p48a415546d)" style="fill: none; stroke: #1f77b4; stroke-width: 1.5"/>
    <path d="M 189.320398 213.922965 
L 189.320398 213.834597 
" clip-path="url(#p48a415546d)" style="fill: none; stroke: #1f77b4; stroke-width: 1.5"/>
    <path d="M 192.364034 214.765075 
L 192.364034 214.683839 
" clip-path="url(#p48a415546d)" style="fill: none; stroke: #1f77b4; stroke-width: 1.5"/>
    <path d="M 195.40767 215.185473 
L 195.40767 215.108044 
" clip-path="url(#p48a415546d)" style="fill: none; stroke: #1f77b4; stroke-width: 1.5"/>
    <path d="M 198.451307 215.228184 
L 198.451307 215.151153 
" clip-path="url(#p48a415546d)" style="fill: none; stroke: #1f77b4; stroke-width: 1.5"/>
    <path d="M 201.494943 215.186897 
L 201.494943 215.109481 
" clip-path="url(#p48a415546d)" style="fill: none; stroke: #1f77b4; stroke-width: 1.5"/>
    <path d="M 204.53858 215.107167 
L 204.53858 215.029015 
" clip-path="url(#p48a415546d)" style="fill: none; stroke: #1f77b4; stroke-width: 1.5"/>
    <path d="M 207.582216 214.762583 
L 207.582216 214.681325 
" clip-path="url(#p48a415546d)" style="fill: none; stroke: #1f77b4; stroke-width: 1.5"/>
    <path d="M 210.625852 214.217826 
L 210.625852 214.131888 
" clip-path="url(#p48a415546d)" style="fill: none; stroke: #1f77b4; stroke-width: 1.5"/>
    <path d="M 213.669489 213.769468 
L 213.669489 213.679861 
" clip-path="url(#p48a415546d)" style="fill: none; stroke: #1f77b4; stroke-width: 1.5"/>
    <path d="M 216.713125 213.369837 
L 216.713125 213.277084 
" clip-path="url(#p48a415546d)" style="fill: none; stroke: #1f77b4; stroke-width: 1.5"/>
    <path d="M 219.756761 213.266181 
L 219.756761 213.172628 
" clip-path="url(#p48a415546d)" style="fill: none; stroke: #1f77b4; stroke-width: 1.5"/>
    <path d="M 222.800398 213.430034 
L 222.800398 213.337748 
" clip-path="url(#p48a415546d)" style="fill: none; stroke: #1f77b4; stroke-width: 1.5"/>
    <path d="M 225.844034 213.601002 
L 225.844034 213.510056 
" clip-path="url(#p48a415546d)" style="fill: none; stroke: #1f77b4; stroke-width: 1.5"/>
    <path d="M 228.88767 213.657634 
L 228.88767 213.567136 
" clip-path="url(#p48a415546d)" style="fill: none; stroke: #1f77b4; stroke-width: 1.5"/>
    <path d="M 231.931307 213.433596 
L 231.931307 213.341338 
" clip-path="url(#p48a415546d)" style="fill: none; stroke: #1f77b4; stroke-width: 1.5"/>
    <path d="M 234.974943 212.919211 
L 234.974943 212.823033 
" clip-path="url(#p48a415546d)" style="fill: none; stroke: #1f77b4; stroke-width: 1.5"/>
    <path d="M 238.01858 211.241267 
L 238.01858 211.133292 
" clip-path="url(#p48a415546d)" style="fill: none; stroke: #1f77b4; stroke-width: 1.5"/>
    <path d="M 241.062216 205.922704 
L 241.062216 205.783823 
" clip-path="url(#p48a415546d)" style="fill: none; stroke: #1f77b4; stroke-width: 1.5"/>
    <path d="M 244.105852 193.278425 
L 244.105852 193.085002 
" clip-path="url(#p48a415546d)" style="fill: none; stroke: #1f77b4; stroke-width: 1.5"/>
    <path d="M 247.149489 177.904445 
L 247.149489 177.660646 
" clip-path="url(#p48a415546d)" style="fill: none; stroke: #1f77b4; stroke-width: 1.5"/>
    <path d="M 250.193125 179.80109 
L 250.193125 179.562928 
" clip-path="url(#p48a415546d)" style="fill: none; stroke: #1f77b4; stroke-width: 1.5"/>
    <path d="M 253.236761 150.647897 
L 253.236761 150.334092 
" clip-path="url(#p48a415546d)" style="fill: none; stroke: #1f77b4; stroke-width: 1.5"/>
    <path d="M 256.280398 17.817219 
L 256.280398 17.279982 
" clip-path="url(#p48a415546d)" style="fill: none; stroke: #1f77b4; stroke-width: 1.5"/>
    <path d="M 259.324034 39.432051 
L 259.324034 38.924422 
" clip-path="url(#p48a415546d)" style="fill: none; stroke: #1f77b4; stroke-width: 1.5"/>
    <path d="M 262.36767 158.583271 
L 262.36767 158.288127 
" clip-path="url(#p48a415546d)" style="fill: none; stroke: #1f77b4; stroke-width: 1.5"/>
    <path d="M 265.411307 198.15311 
L 265.411307 197.978678 
" clip-path="url(#p48a415546d)" style="fill: none; stroke: #1f77b4; stroke-width: 1.5"/>
    <path d="M 268.454943 208.790156 
L 268.454943 208.666968 
" clip-path="url(#p48a415546d)" style="fill: none; stroke: #1f77b4; stroke-width: 1.5"/>
    <path d="M 271.49858 212.764951 
L 271.49858 212.667629 
" clip-path="url(#p48a415546d)" style="fill: none; stroke: #1f77b4; stroke-width: 1.5"/>
    <path d="M 274.542216 214.787147 
L 274.542216 214.706107 
" clip-path="url(#p48a415546d)" style="fill: none; stroke: #1f77b4; stroke-width: 1.5"/>
    <path d="M 277.585852 215.890416 
L 277.585852 215.819832 
" clip-path="url(#p48a415546d)" style="fill: none; stroke: #1f77b4; stroke-width: 1.5"/>
    <path d="M 280.629489 216.567967 
L 280.629489 216.50466 
" clip-path="url(#p48a415546d)" style="fill: none; stroke: #1f77b4; stroke-width: 1.5"/>
    <path d="M 283.673125 217.064546 
L 283.673125 217.007159 
" clip-path="url(#p48a415546d)" style="fill: none; stroke: #1f77b4; stroke-width: 1.5"/>
    <path d="M 286.716761 217.391035 
L 286.716761 217.337901 
" clip-path="url(#p48a415546d)" style="fill: none; stroke: #1f77b4; stroke-width: 1.5"/>
    <path d="M 289.760398 217.626819 
L 289.760398 217.576983 
" clip-path="url(#p48a415546d)" style="fill: none; stroke: #1f77b4; stroke-width: 1.5"/>
    <path d="M 292.804034 217.77803 
L 292.804034 217.73043 
" clip-path="url(#p48a415546d)" style="fill: none; stroke: #1f77b4; stroke-width: 1.5"/>
    <path d="M 295.84767 217.90719 
L 295.84767 217.861587 
" clip-path="url(#p48a415546d)" style="fill: none; stroke: #1f77b4; stroke-width: 1.5"/>
    <path d="M 298.891307 218.035595 
L 298.891307 217.99207 
" clip-path="url(#p48a415546d)" style="fill: none; stroke: #1f77b4; stroke-width: 1.5"/>
    <path d="M 301.934943 218.108643 
L 301.934943 218.066345 
" clip-path="url(#p48a415546d)" style="fill: none; stroke: #1f77b4; stroke-width: 1.5"/>
    <path d="M 304.97858 218.163594 
L 304.97858 218.122244 
" clip-path="url(#p48a415546d)" style="fill: none; stroke: #1f77b4; stroke-width: 1.5"/>
    <path d="M 308.022216 218.147996 
L 308.022216 218.106375 
" clip-path="url(#p48a415546d)" style="fill: none; stroke: #1f77b4; stroke-width: 1.5"/>
    <path d="M 311.065852 218.219242 
L 311.065852 218.178875 
" clip-path="url(#p48a415546d)" style="fill: none; stroke: #1f77b4; stroke-width: 1.5"/>
    <path d="M 314.109489 218.239088 
L 314.109489 218.199078 
" clip-path="url(#p48a415546d)" style="fill: none; stroke: #1f77b4; stroke-width: 1.5"/>
    <path d="M 317.153125 218.248302 
L 317.153125 218.208458 
" clip-path="url(#p48a415546d)" style="fill: none; stroke: #1f77b4; stroke-width: 1.5"/>
    <path d="M 320.196761 218.310663 
L 320.196761 218.271965 
" clip-path="url(#p48a415546d)" style="fill: none; stroke: #1f77b4; stroke-width: 1.5"/>
    <path d="M 323.240398 218.341837 
L 323.240398 218.303725 
" clip-path="url(#p48a415546d)" style="fill: none; stroke: #1f77b4; stroke-width: 1.5"/>
    <path d="M 326.284034 218.370528 
L 326.284034 218.332963 
" clip-path="url(#p48a415546d)" style="fill: none; stroke: #1f77b4; stroke-width: 1.5"/>
    <path d="M 329.32767 218.375486 
L 329.32767 218.338017 
" clip-path="url(#p48a415546d)" style="fill: none; stroke: #1f77b4; stroke-width: 1.5"/>
    <path d="M 332.371307 218.411254 
L 332.371307 218.37448 
" clip-path="url(#p48a415546d)" style="fill: none; stroke: #1f77b4; stroke-width: 1.5"/>
    <path d="M 335.414943 218.468963 
L 335.414943 218.433341 
" clip-path="url(#p48a415546d)" style="fill: none; stroke: #1f77b4; stroke-width: 1.5"/>
    <path d="M 338.45858 218.499404 
L 338.45858 218.464405 
" clip-path="url(#p48a415546d)" style="fill: none; stroke: #1f77b4; stroke-width: 1.5"/>
    <path d="M 341.502216 218.450201 
L 341.502216 218.414201 
" clip-path="url(#p48a415546d)" style="fill: none; stroke: #1f77b4; stroke-width: 1.5"/>
    <path d="M 344.545852 218.524177 
L 344.545852 218.489693 
" clip-path="url(#p48a415546d)" style="fill: none; stroke: #1f77b4; stroke-width: 1.5"/>
    <path d="M 347.589489 218.560621 
L 347.589489 218.52691 
" clip-path="url(#p48a415546d)" style="fill: none; stroke: #1f77b4; stroke-width: 1.5"/>
    <path d="M 350.633125 218.56805 
L 350.633125 218.534499 
" clip-path="url(#p48a415546d)" style="fill: none; stroke: #1f77b4; stroke-width: 1.5"/>
    <path d="M 353.676761 218.563451 
L 353.676761 218.529801 
" clip-path="url(#p48a415546d)" style="fill: none; stroke: #1f77b4; stroke-width: 1.5"/>
    <path d="M 356.720398 218.602008 
L 356.720398 218.569196 
" clip-path="url(#p48a415546d)" style="fill: none; stroke: #1f77b4; stroke-width: 1.5"/>
    <path d="M 359.764034 218.603423 
L 359.764034 218.570642 
" clip-path="url(#p48a415546d)" style="fill: none; stroke: #1f77b4; stroke-width: 1.5"/>
    <path d="M 362.80767 218.627825 
L 362.80767 218.595587 
" clip-path="url(#p48a415546d)" style="fill: none; stroke: #1f77b4; stroke-width: 1.5"/>
    <path d="M 365.851307 218.636311 
L 365.851307 218.604264 
" clip-path="url(#p48a415546d)" style="fill: none; stroke: #1f77b4; stroke-width: 1.5"/>
    <path d="M 368.894943 218.680855 
L 368.894943 218.64983 
" clip-path="url(#p48a415546d)" style="fill: none; stroke: #1f77b4; stroke-width: 1.5"/>
    <path d="M 371.93858 218.724675 
L 371.93858 218.69469 
" clip-path="url(#p48a415546d)" style="fill: none; stroke: #1f77b4; stroke-width: 1.5"/>
    <path d="M 374.982216 218.759294 
L 374.982216 218.730156 
" clip-path="url(#p48a415546d)" style="fill: none; stroke: #1f77b4; stroke-width: 1.5"/>
    <path d="M 378.025852 218.796372 
L 378.025852 218.768171 
" clip-path="url(#p48a415546d)" style="fill: none; stroke: #1f77b4; stroke-width: 1.5"/>
    <path d="M 381.069489 218.823905 
L 381.069489 218.79642 
" clip-path="url(#p48a415546d)" style="fill: none; stroke: #1f77b4; stroke-width: 1.5"/>
    <path d="M 384.113125 218.879999 
L 384.113125 218.854036 
" clip-path="url(#p48a415546d)" style="fill: none; stroke: #1f77b4; stroke-width: 1.5"/>
   </g>
   <g id="patch_3">
    <path d="M 66.053125 228.96 
L 66.053125 7.2 
" style="fill: none; stroke: #000000; stroke-width: 0.8; stroke-linejoin: miter; stroke-linecap: square"/>
   </g>
   <g id="patch_4">
    <path d="M 400.853125 228.96 
L 400.853125 7.2 
" style="fill: none; stroke: #000000; stroke-width: 0.8; stroke-linejoin: miter; stroke-linecap: square"/>
   </g>
   <g id="patch_5">
    <path d="M 66.053125 228.96 
L 400.853125 228.96 
" style="fill: none; stroke: #000000; stroke-width: 0.8; stroke-linejoin: miter; stroke-linecap: square"/>
   </g>
   <g id="patch_6">
    <path d="M 66.053125 7.2 
L 400.853125 7.2 
" style="fill: none; stroke: #000000; stroke-width: 0.8; stroke-linejoin: miter; stroke-linecap: square"/>
   </g>
  </g>
 </g>
 <defs>
  <clipPath id="p48a415546d">
   <rect x="66.053125" y="7.2" width="334.8" height="221.76"/>
  </clipPath>
 </defs>
</svg>
