<?xml version="1.0" encoding="utf-8" standalone="no"?>
<!DOCTYPE svg PUBLIC "-//W3C//DTD SVG 1.1//EN"
  "http://www.w3.org/Graphics/SVG/1.1/DTD/svg11.dtd">
<svg xmlns:xlink="http://www.w3.org/1999/xlink" width="388.965625pt" height="270.211864pt" viewBox="0 0 388.965625 270.211864" xmlns="http://www.w3.org/2000/svg" version="1.1">
 <metadata>
  <rdf:RDF xmlns:dc="http://purl.org/dc/elements/1.1/" xmlns:cc="http://creativecommons.org/ns#" xmlns:rdf="http://www.w3.org/1999/02/22-rdf-syntax-ns#">
   <cc:Work>
    <dc:type rdf:resource="http://purl.org/dc/dcmitype/StillImage"/>
    <dc:date>2026-03-02T17:49:58.198206</dc:date>
    <dc:format>image/svg+xml</dc:format>
    <dc:creator>
     <cc:Agent>
      <dc:title>Matplotlib v3.10.8, https://matplotlib.org/</dc:title>
     </cc:Agent>
    </dc:creator>
   </cc:Work>
  </rdf:RDF>
 </metadata>
 <defs>
  <style type="text/css">*{stroke-linejoin: round; stroke-linecap: butt}</style>
 </defs>
 <g id="figure_1">
  <g id="patch_1">
   <path d="M 0 270.211864 
L 388.965625 270.211864 
L 388.965625 0 
L 0 0 
z
" style="fill: #ffffff"/>
  </g>
  <g id="axes_1">
   <g id="patch_2">
    <path d="M 46.965625 232.655614 
L 381.765625 232.655614 
L 381.765625 10.895614 
L 46.965625 10.895614 
z
" style="fill: #ffffff"/>
   </g>
   <g id="matplotlib.axis_1">
    <g id="xtick_1">
     <g id="line2d_1">
      <defs>
       <path id="m25c48dcad9" d="M 0 0 
L 0 3.5 
" style="stroke: #000000; stroke-width: 0.8"/>
      </defs>
      <g>
       <use xlink:href="#m25c48dcad9" x="62.183807" y="232.655614" style="stroke: #000000; stroke-width: 0.8"/>
      </g>
     </g>
     <g id="text_1">
      <!-- 0.0 -->
      <g transform="translate(54.232244 247.254052) scale(0.1 -0.1)">
       <defs>
        <path id="DejaVuSans-30" d="M 2034 4250 
Q 1547 4250 1301 3770 
Q 1056 3291 1056 2328 
Q 1056 1369 1301 889 
Q 1547 409 2034 409 
Q 2525 409 2770 889 
Q 3016 1369 3016 2328 
Q 3016 3291 2770 3770 
Q 2525 4250 2034 4250 
z
M 2034 4750 
Q 2819 4750 3233 4129 
Q 3647 3509 3647 2328 
Q 3647 1150 3233 529 
Q 2819 -91 2034 -91 
Q 1250 -91 836 529 
Q 422 1150 422 2328 
Q 422 3509 836 4129 
Q 1250 4750 2034 4750 
z
" transform="scale(0.015625)"/>
        <path id="DejaVuSans-2e" d="M 684 794 
L 1344 794 
L 1344 0 
L 684 0 
L 684 794 
z
" transform="scale(0.015625)"/>
       </defs>
       <use xlink:href="#DejaVuSans-30"/>
       <use xlink:href="#DejaVuSans-2e" transform="translate(63.623047 0)"/>
       <use xlink:href="#DejaVuSans-30" transform="translate(95.410156 0)"/>
      </g>
     </g>
    </g>
    <g id="xtick_2">
     <g id="line2d_2">
      <g>
       <use xlink:href="#m25c48dcad9" x="123.056534" y="232.655614" style="stroke: #000000; stroke-width: 0.8"/>
      </g>
     </g>
     <g id="text_2">
      <!-- 0.2 -->
      <g transform="translate(115.104972 247.254052) scale(0.1 -0.1)">
       <defs>
        <path id="DejaVuSans-32" d="M 1228 531 
L 3431 531 
L 3431 0 
L 469 0 
L 469 531 
Q 828 903 1448 1529 
Q 2069 2156 2228 2338 
Q 2531 2678 2651 2914 
Q 2772 3150 2772 3378 
Q 2772 3750 2511 3984 
Q 2250 4219 1831 4219 
Q 1534 4219 1204 4116 
Q 875 4013 500 3803 
L 500 4441 
Q 881 4594 1212 4672 
Q 1544 4750 1819 4750 
Q 2544 4750 2975 4387 
Q 3406 4025 3406 3419 
Q 3406 3131 3298 2873 
Q 3191 2616 2906 2266 
Q 2828 2175 2409 1742 
Q 1991 1309 1228 531 
z
" transform="scale(0.015625)"/>
       </defs>
       <use xlink:href="#DejaVuSans-30"/>
       <use xlink:href="#DejaVuSans-2e" transform="translate(63.623047 0)"/>
       <use xlink:href="#DejaVuSans-32" transform="translate(95.410156 0)"/>
      </g>
     </g>
    </g>
    <g id="xtick_3">
     <g id="line2d_3">
      <g>
       <use xlink:href="#m25c48dcad9" x="183.929261" y="232.655614" style="stroke: #000000; stroke-width: 0.8"/>
      </g>
     </g>
     <g id="text_3">
      <!-- 0.4 -->
      <g transform="translate(175.977699 247.254052) scale(0.1 -0.1)">
       <defs>
        <path id="DejaVuSans-34" d="M 2419 4116 
L 825 1625 
L 2419 1625 
L 2419 4116 
z
M 2253 4666 
L 3047 4666 
L 3047 1625 
L 3713 1625 
L 3713 1100 
L 3047 1100 
L 3047 0 
L 2419 0 
L 2419 1100 
L 313 1100 
L 313 1709 
L 2253 4666 
z
" transform="scale(0.015625)"/>
       </defs>
       <use xlink:href="#DejaVuSans-30"/>
       <use xlink:href="#DejaVuSans-2e" transform="translate(63.623047 0)"/>
       <use xlink:href="#DejaVuSans-34" transform="translate(95.410156 0)"/>
      </g>
     </g>
    </g>
    <g id="xtick_4">
     <g id="line2d_4">
      <g>
       <use xlink:href="#m25c48dcad9" x="244.801989" y="232.655614" style="stroke: #000000; stroke-width: 0.8"/>
      </g>
     </g>
     <g id="text_4">
      <!-- 0.6 -->
      <g transform="translate(236.850426 247.254052) scale(0.1 -0.1)">
       <defs>
        <path id="DejaVuSans-36" d="M 2113 2584 
Q 1688 2584 1439 2293 
Q 1191 2003 1191 1497 
Q 1191 994 1439 701 
Q 1688 409 2113 409 
Q 2538 409 2786 701 
Q 3034 994 3034 1497 
Q 3034 2003 2786 2293 
Q 2538 2584 2113 2584 
z
M 3366 4563 
L 3366 3988 
Q 3128 4100 2886 4159 
Q 2644 4219 2406 4219 
Q 1781 4219 1451 3797 
Q 1122 3375 1075 2522 
Q 1259 2794 1537 2939 
Q 1816 3084 2150 3084 
Q 2853 3084 3261 2657 
Q 3669 2231 3669 1497 
Q 3669 778 3244 343 
Q 2819 -91 2113 -91 
Q 1303 -91 875 529 
Q 447 1150 447 2328 
Q 447 3434 972 4092 
Q 1497 4750 2381 4750 
Q 2619 4750 2861 4703 
Q 3103 4656 3366 4563 
z
" transform="scale(0.015625)"/>
       </defs>
       <use xlink:href="#DejaVuSans-30"/>
       <use xlink:href="#DejaVuSans-2e" transform="translate(63.623047 0)"/>
       <use xlink:href="#DejaVuSans-36" transform="translate(95.410156 0)"/>
      </g>
     </g>
    </g>
    <g id="xtick_5">
     <g id="line2d_5">
      <g>
       <use xlink:href="#m25c48dcad9" x="305.674716" y="232.655614" style="stroke: #000000; stroke-width: 0.8"/>
      </g>
     </g>
     <g id="text_5">
      <!-- 0.8 -->
      <g transform="translate(297.723153 247.254052) scale(0.1 -0.1)">
       <defs>
        <path id="DejaVuSans-38" d="M 2034 2216 
Q 1584 2216 1326 1975 
Q 1069 1734 1069 1313 
Q 1069 891 1326 650 
Q 1584 409 2034 409 
Q 2484 409 2743 651 
Q 3003 894 3003 1313 
Q 3003 1734 2745 1975 
Q 2488 2216 2034 2216 
z
M 1403 2484 
Q 997 2584 770 2862 
Q 544 3141 544 3541 
Q 544 4100 942 4425 
Q 1341 4750 2034 4750 
Q 2731 4750 3128 4425 
Q 3525 4100 3525 3541 
Q 3525 3141 3298 2862 
Q 3072 2584 2669 2484 
Q 3125 2378 3379 2068 
Q 3634 1759 3634 1313 
Q 3634 634 3220 271 
Q 2806 -91 2034 -91 
Q 1263 -91 848 271 
Q 434 634 434 1313 
Q 434 1759 690 2068 
Q 947 2378 1403 2484 
z
M 1172 3481 
Q 1172 3119 1398 2916 
Q 1625 2713 2034 2713 
Q 2441 2713 2670 2916 
Q 2900 3119 2900 3481 
Q 2900 3844 2670 4047 
Q 2441 4250 2034 4250 
Q 1625 4250 1398 4047 
Q 1172 3844 1172 3481 
z
" transform="scale(0.015625)"/>
       </defs>
       <use xlink:href="#DejaVuSans-30"/>
       <use xlink:href="#DejaVuSans-2e" transform="translate(63.623047 0)"/>
       <use xlink:href="#DejaVuSans-38" transform="translate(95.410156 0)"/>
      </g>
     </g>
    </g>
    <g id="xtick_6">
     <g id="line2d_6">
      <g>
       <use xlink:href="#m25c48dcad9" x="366.547443" y="232.655614" style="stroke: #000000; stroke-width: 0.8"/>
      </g>
     </g>
     <g id="text_6">
      <!-- 1.0 -->
      <g transform="translate(358.595881 247.254052) scale(0.1 -0.1)">
       <defs>
        <path id="DejaVuSans-31" d="M 794 531 
L 1825 531 
L 1825 4091 
L 703 3866 
L 703 4441 
L 1819 4666 
L 2450 4666 
L 2450 531 
L 3481 531 
L 3481 0 
L 794 0 
L 794 531 
z
" transform="scale(0.015625)"/>
       </defs>
       <use xlink:href="#DejaVuSans-31"/>
       <use xlink:href="#DejaVuSans-2e" transform="translate(63.623047 0)"/>
       <use xlink:href="#DejaVuSans-30" transform="translate(95.410156 0)"/>
      </g>
     </g>
    </g>
    <g id="text_7">
     <!-- x [m] -->
     <g transform="translate(201.045313 260.932177) scale(0.1 -0.1)">
      <defs>
       <path id="DejaVuSans-78" d="M 3513 3500 
L 2247 1797 
L 3578 0 
L 2900 0 
L 1881 1375 
L 863 0 
L 184 0 
L 1544 1831 
L 300 3500 
L 978 3500 
L 1906 2253 
L 2834 3500 
L 3513 3500 
z
" transform="scale(0.015625)"/>
       <path id="DejaVuSans-20" transform="scale(0.015625)"/>
       <path id="DejaVuSans-5b" d="M 550 4863 
L 1875 4863 
L 1875 4416 
L 1125 4416 
L 1125 -397 
L 1875 -397 
L 1875 -844 
L 550 -844 
L 550 4863 
z
" transform="scale(0.015625)"/>
       <path id="DejaVuSans-6d" d="M 3328 2828 
Q 3544 3216 3844 3400 
Q 4144 3584 4550 3584 
Q 5097 3584 5394 3201 
Q 5691 2819 5691 2113 
L 5691 0 
L 5113 0 
L 5113 2094 
Q 5113 2597 4934 2840 
Q 4756 3084 4391 3084 
Q 3944 3084 3684 2787 
Q 3425 2491 3425 1978 
L 3425 0 
L 2847 0 
L 2847 2094 
Q 2847 2600 2669 2842 
Q 2491 3084 2119 3084 
Q 1678 3084 1418 2786 
Q 1159 2488 1159 1978 
L 1159 0 
L 581 0 
L 581 3500 
L 1159 3500 
L 1159 2956 
Q 1356 3278 1631 3431 
Q 1906 3584 2284 3584 
Q 2666 3584 2933 3390 
Q 3200 3197 3328 2828 
z
" transform="scale(0.015625)"/>
       <path id="DejaVuSans-5d" d="M 1947 4863 
L 1947 -844 
L 622 -844 
L 622 -397 
L 1369 -397 
L 1369 4416 
L 622 4416 
L 622 4863 
L 1947 4863 
z
" transform="scale(0.015625)"/>
      </defs>
      <use xlink:href="#DejaVuSans-78"/>
      <use xlink:href="#DejaVuSans-20" transform="translate(59.179688 0)"/>
      <use xlink:href="#DejaVuSans-5b" transform="translate(90.966797 0)"/>
      <use xlink:href="#DejaVuSans-6d" transform="translate(129.980469 0)"/>
      <use xlink:href="#DejaVuSans-5d" transform="translate(227.392578 0)"/>
     </g>
    </g>
   </g>
   <g id="matplotlib.axis_2">
    <g id="ytick_1">
     <g id="line2d_7">
      <defs>
       <path id="m514e5431fc" d="M 0 0 
L -3.5 0 
" style="stroke: #000000; stroke-width: 0.8"/>
      </defs>
      <g>
       <use xlink:href="#m514e5431fc" x="46.965625" y="213.383258" style="stroke: #000000; stroke-width: 0.8"/>
      </g>
     </g>
     <g id="text_8">
      <!-- 0 -->
      <g transform="translate(33.603125 217.182477) scale(0.1 -0.1)">
       <use xlink:href="#DejaVuSans-30"/>
      </g>
     </g>
    </g>
    <g id="ytick_2">
     <g id="line2d_8">
      <g>
       <use xlink:href="#m514e5431fc" x="46.965625" y="184.471253" style="stroke: #000000; stroke-width: 0.8"/>
      </g>
     </g>
     <g id="text_9">
      <!-- 50 -->
      <g transform="translate(27.240625 188.270471) scale(0.1 -0.1)">
       <defs>
        <path id="DejaVuSans-35" d="M 691 4666 
L 3169 4666 
L 3169 4134 
L 1269 4134 
L 1269 2991 
Q 1406 3038 1543 3061 
Q 1681 3084 1819 3084 
Q 2600 3084 3056 2656 
Q 3513 2228 3513 1497 
Q 3513 744 3044 326 
Q 2575 -91 1722 -91 
Q 1428 -91 1123 -41 
Q 819 9 494 109 
L 494 744 
Q 775 591 1075 516 
Q 1375 441 1709 441 
Q 2250 441 2565 725 
Q 2881 1009 2881 1497 
Q 2881 1984 2565 2268 
Q 2250 2553 1709 2553 
Q 1456 2553 1204 2497 
Q 953 2441 691 2322 
L 691 4666 
z
" transform="scale(0.015625)"/>
       </defs>
       <use xlink:href="#DejaVuSans-35"/>
       <use xlink:href="#DejaVuSans-30" transform="translate(63.623047 0)"/>
      </g>
     </g>
    </g>
    <g id="ytick_3">
     <g id="line2d_9">
      <g>
       <use xlink:href="#m514e5431fc" x="46.965625" y="155.559247" style="stroke: #000000; stroke-width: 0.8"/>
      </g>
     </g>
     <g id="text_10">
      <!-- 100 -->
      <g transform="translate(20.878125 159.358466) scale(0.1 -0.1)">
       <use xlink:href="#DejaVuSans-31"/>
       <use xlink:href="#DejaVuSans-30" transform="translate(63.623047 0)"/>
       <use xlink:href="#DejaVuSans-30" transform="translate(127.246094 0)"/>
      </g>
     </g>
    </g>
    <g id="ytick_4">
     <g id="line2d_10">
      <g>
       <use xlink:href="#m514e5431fc" x="46.965625" y="126.647241" style="stroke: #000000; stroke-width: 0.8"/>
      </g>
     </g>
     <g id="text_11">
      <!-- 150 -->
      <g transform="translate(20.878125 130.44646) scale(0.1 -0.1)">
       <use xlink:href="#DejaVuSans-31"/>
       <use xlink:href="#DejaVuSans-35" transform="translate(63.623047 0)"/>
       <use xlink:href="#DejaVuSans-30" transform="translate(127.246094 0)"/>
      </g>
     </g>
    </g>
    <g id="ytick_5">
     <g id="line2d_11">
      <g>
       <use xlink:href="#m514e5431fc" x="46.965625" y="97.735236" style="stroke: #000000; stroke-width: 0.8"/>
      </g>
     </g>
     <g id="text_12">
      <!-- 200 -->
      <g transform="translate(20.878125 101.534454) scale(0.1 -0.1)">
       <use xlink:href="#DejaVuSans-32"/>
       <use xlink:href="#DejaVuSans-30" transform="translate(63.623047 0)"/>
       <use xlink:href="#DejaVuSans-30" transform="translate(127.246094 0)"/>
      </g>
     </g>
    </g>
    <g id="ytick_6">
     <g id="line2d_12">
      <g>
       <use xlink:href="#m514e5431fc" x="46.965625" y="68.82323" style="stroke: #000000; stroke-width: 0.8"/>
      </g>
     </g>
     <g id="text_13">
      <!-- 250 -->
      <g transform="translate(20.878125 72.622449) scale(0.1 -0.1)">
       <use xlink:href="#DejaVuSans-32"/>
       <use xlink:href="#DejaVuSans-35" transform="translate(63.623047 0)"/>
       <use xlink:href="#DejaVuSans-30" transform="translate(127.246094 0)"/>
      </g>
     </g>
    </g>
    <g id="ytick_7">
     <g id="line2d_13">
      <g>
       <use xlink:href="#m514e5431fc" x="46.965625" y="39.911224" style="stroke: #000000; stroke-width: 0.8"/>
      </g>
     </g>
     <g id="text_14">
      <!-- 300 -->
      <g transform="translate(20.878125 43.710443) scale(0.1 -0.1)">
       <defs>
        <path id="DejaVuSans-33" d="M 2597 2516 
Q 3050 2419 3304 2112 
Q 3559 1806 3559 1356 
Q 3559 666 3084 287 
Q 2609 -91 1734 -91 
Q 1441 -91 1130 -33 
Q 819 25 488 141 
L 488 750 
Q 750 597 1062 519 
Q 1375 441 1716 441 
Q 2309 441 2620 675 
Q 2931 909 2931 1356 
Q 2931 1769 2642 2001 
Q 2353 2234 1838 2234 
L 1294 2234 
L 1294 2753 
L 1863 2753 
Q 2328 2753 2575 2939 
Q 2822 3125 2822 3475 
Q 2822 3834 2567 4026 
Q 2313 4219 1838 4219 
Q 1578 4219 1281 4162 
Q 984 4106 628 3988 
L 628 4550 
Q 988 4650 1302 4700 
Q 1616 4750 1894 4750 
Q 2613 4750 3031 4423 
Q 3450 4097 3450 3541 
Q 3450 3153 3228 2886 
Q 3006 2619 2597 2516 
z
" transform="scale(0.015625)"/>
       </defs>
       <use xlink:href="#DejaVuSans-33"/>
       <use xlink:href="#DejaVuSans-30" transform="translate(63.623047 0)"/>
       <use xlink:href="#DejaVuSans-30" transform="translate(127.246094 0)"/>
      </g>
     </g>
    </g>
    <g id="ytick_8">
     <g id="line2d_14">
      <g>
       <use xlink:href="#m514e5431fc" x="46.965625" y="10.999219" style="stroke: #000000; stroke-width: 0.8"/>
      </g>
     </g>
     <g id="text_15">
      <!-- 350 -->
      <g transform="translate(20.878125 14.798437) scale(0.1 -0.1)">
       <use xlink:href="#DejaVuSans-33"/>
       <use xlink:href="#DejaVuSans-35" transform="translate(63.623047 0)"/>
       <use xlink:href="#DejaVuSans-30" transform="translate(127.246094 0)"/>
      </g>
     </g>
    </g>
    <g id="text_16">
     <!-- [counts] -->
     <g transform="translate(14.798438 142.388114) rotate(-90) scale(0.1 -0.1)">
      <defs>
       <path id="DejaVuSans-63" d="M 3122 3366 
L 3122 2828 
Q 2878 2963 2633 3030 
Q 2388 3097 2138 3097 
Q 1578 3097 1268 2742 
Q 959 2388 959 1747 
Q 959 1106 1268 751 
Q 1578 397 2138 397 
Q 2388 397 2633 464 
Q 2878 531 3122 666 
L 3122 134 
Q 2881 22 2623 -34 
Q 2366 -91 2075 -91 
Q 1284 -91 818 406 
Q 353 903 353 1747 
Q 353 2603 823 3093 
Q 1294 3584 2113 3584 
Q 2378 3584 2631 3529 
Q 2884 3475 3122 3366 
z
" transform="scale(0.015625)"/>
       <path id="DejaVuSans-6f" d="M 1959 3097 
Q 1497 3097 1228 2736 
Q 959 2375 959 1747 
Q 959 1119 1226 758 
Q 1494 397 1959 397 
Q 2419 397 2687 759 
Q 2956 1122 2956 1747 
Q 2956 2369 2687 2733 
Q 2419 3097 1959 3097 
z
M 1959 3584 
Q 2709 3584 3137 3096 
Q 3566 2609 3566 1747 
Q 3566 888 3137 398 
Q 2709 -91 1959 -91 
Q 1206 -91 779 398 
Q 353 888 353 1747 
Q 353 2609 779 3096 
Q 1206 3584 1959 3584 
z
" transform="scale(0.015625)"/>
       <path id="DejaVuSans-75" d="M 544 1381 
L 544 3500 
L 1119 3500 
L 1119 1403 
Q 1119 906 1312 657 
Q 1506 409 1894 409 
Q 2359 409 2629 706 
Q 2900 1003 2900 1516 
L 2900 3500 
L 3475 3500 
L 3475 0 
L 2900 0 
L 2900 538 
Q 2691 219 2414 64 
Q 2138 -91 1772 -91 
Q 1169 -91 856 284 
Q 544 659 544 1381 
z
M 1991 3584 
L 1991 3584 
z
" transform="scale(0.015625)"/>
       <path id="DejaVuSans-6e" d="M 3513 2113 
L 3513 0 
L 2938 0 
L 2938 2094 
Q 2938 2591 2744 2837 
Q 2550 3084 2163 3084 
Q 1697 3084 1428 2787 
Q 1159 2491 1159 1978 
L 1159 0 
L 581 0 
L 581 3500 
L 1159 3500 
L 1159 2956 
Q 1366 3272 1645 3428 
Q 1925 3584 2291 3584 
Q 2894 3584 3203 3211 
Q 3513 2838 3513 2113 
z
" transform="scale(0.015625)"/>
       <path id="DejaVuSans-74" d="M 1172 4494 
L 1172 3500 
L 2356 3500 
L 2356 3053 
L 1172 3053 
L 1172 1153 
Q 1172 725 1289 603 
Q 1406 481 1766 481 
L 2356 481 
L 2356 0 
L 1766 0 
Q 1100 0 847 248 
Q 594 497 594 1153 
L 594 3053 
L 172 3053 
L 172 3500 
L 594 3500 
L 594 4494 
L 1172 4494 
z
" transform="scale(0.015625)"/>
       <path id="DejaVuSans-73" d="M 2834 3397 
L 2834 2853 
Q 2591 2978 2328 3040 
Q 2066 3103 1784 3103 
Q 1356 3103 1142 2972 
Q 928 2841 928 2578 
Q 928 2378 1081 2264 
Q 1234 2150 1697 2047 
L 1894 2003 
Q 2506 1872 2764 1633 
Q 3022 1394 3022 966 
Q 3022 478 2636 193 
Q 2250 -91 1575 -91 
Q 1294 -91 989 -36 
Q 684 19 347 128 
L 347 722 
Q 666 556 975 473 
Q 1284 391 1588 391 
Q 1994 391 2212 530 
Q 2431 669 2431 922 
Q 2431 1156 2273 1281 
Q 2116 1406 1581 1522 
L 1381 1569 
Q 847 1681 609 1914 
Q 372 2147 372 2553 
Q 372 3047 722 3315 
Q 1072 3584 1716 3584 
Q 2034 3584 2315 3537 
Q 2597 3491 2834 3397 
z
" transform="scale(0.015625)"/>
      </defs>
      <use xlink:href="#DejaVuSans-5b"/>
      <use xlink:href="#DejaVuSans-63" transform="translate(39.013672 0)"/>
      <use xlink:href="#DejaVuSans-6f" transform="translate(93.994141 0)"/>
      <use xlink:href="#DejaVuSans-75" transform="translate(155.175781 0)"/>
      <use xlink:href="#DejaVuSans-6e" transform="translate(218.554688 0)"/>
      <use xlink:href="#DejaVuSans-74" transform="translate(281.933594 0)"/>
      <use xlink:href="#DejaVuSans-73" transform="translate(321.142578 0)"/>
      <use xlink:href="#DejaVuSans-5d" transform="translate(373.242188 0)"/>
     </g>
    </g>
   </g>
   <g id="line2d_15">
    <path d="M 62.183807 49.144721 
L 65.227443 49.144721 
L 65.227443 67.35647 
L 68.27108 67.35647 
L 68.27108 31.892239 
L 71.314716 31.892239 
L 71.314716 86.989609 
L 74.358352 86.989609 
L 74.358352 99.396099 
L 77.401989 99.396099 
L 77.401989 108.159726 
L 80.445625 108.159726 
L 80.445625 117.525818 
L 83.489261 117.525818 
L 83.489261 95.620506 
L 86.532898 95.620506 
L 86.532898 113.450364 
L 89.576534 113.450364 
L 89.576534 117.100882 
L 92.62017 117.100882 
L 92.62017 128.593421 
L 95.663807 128.593421 
L 95.663807 146.131604 
L 98.707443 146.131604 
L 98.707443 146.900874 
L 101.75108 146.900874 
L 101.75108 147.231867 
L 104.794716 147.231867 
L 104.794716 148.657592 
L 107.838352 148.657592 
L 107.838352 142.619089 
L 110.881989 142.619089 
L 110.881989 152.596295 
L 113.925625 152.596295 
L 113.925625 156.556354 
L 116.969261 156.556354 
L 116.969261 152.294223 
L 120.012898 152.294223 
L 120.012898 158.739387 
L 123.056534 158.739387 
L 123.056534 166.043818 
L 126.10017 166.043818 
L 126.10017 165.886653 
L 129.143807 165.886653 
L 129.143807 183.649012 
L 132.187443 183.649012 
L 132.187443 178.042376 
L 135.23108 178.042376 
L 135.23108 175.234972 
L 138.274716 175.234972 
L 138.274716 174.970248 
L 141.318352 174.970248 
L 141.318352 172.128256 
L 144.361989 172.128256 
L 144.361989 179.378376 
L 147.405625 179.378376 
L 147.405625 182.038941 
L 150.449261 182.038941 
L 150.449261 178.068175 
L 153.492898 178.068175 
L 153.492898 184.624733 
L 156.536534 184.624733 
L 156.536534 183.105402 
L 159.58017 183.105402 
L 159.58017 191.984123 
L 162.623807 191.984123 
L 162.623807 180.157349 
L 165.667443 180.157349 
L 165.667443 185.383956 
L 168.71108 185.383956 
L 168.71108 191.888804 
L 171.754716 191.888804 
L 171.754716 193.063372 
L 174.798352 193.063372 
L 174.798352 186.826992 
L 177.841989 186.826992 
L 177.841989 197.272225 
L 180.885625 197.272225 
L 180.885625 194.834037 
L 183.929261 194.834037 
L 183.929261 199.330884 
L 186.972898 199.330884 
L 186.972898 196.113213 
L 190.016534 196.113213 
L 190.016534 194.253509 
L 193.06017 194.253509 
L 193.06017 197.171486 
L 196.103807 197.171486 
L 196.103807 193.87819 
L 199.147443 193.87819 
L 199.147443 198.301349 
L 202.19108 198.301349 
L 202.19108 201.859226 
L 205.234716 201.859226 
L 205.234716 200.869684 
L 208.278352 200.869684 
L 208.278352 198.739692 
L 211.321989 198.739692 
L 211.321989 203.304049 
L 214.365625 203.304049 
L 214.365625 201.308655 
L 217.409261 201.308655 
L 217.409261 202.332931 
L 220.452898 202.332931 
L 220.452898 204.453025 
L 223.496534 204.453025 
L 223.496534 205.33228 
L 226.54017 205.33228 
L 226.54017 206.299811 
L 229.583807 206.299811 
L 229.583807 204.906344 
L 232.627443 204.906344 
L 232.627443 204.413698 
L 238.714716 204.433625 
L 238.714716 205.265907 
L 241.758352 205.265907 
L 241.758352 206.061767 
L 244.801989 206.061767 
L 244.801989 204.192055 
L 247.845625 204.192055 
L 247.845625 206.747216 
L 250.889261 206.747216 
L 250.889261 208.837862 
L 253.932898 208.837862 
L 253.932898 207.630362 
L 256.976534 207.630362 
L 256.976534 208.32797 
L 260.02017 208.32797 
L 260.02017 209.907331 
L 263.063807 209.907331 
L 263.063807 208.687464 
L 266.107443 208.687464 
L 266.107443 207.986502 
L 269.15108 207.986502 
L 269.15108 209.792115 
L 272.194716 209.792115 
L 272.194716 208.270658 
L 275.238352 208.270658 
L 275.238352 209.208627 
L 278.281989 209.208627 
L 278.281989 210.122115 
L 281.325625 210.122115 
L 281.325625 208.763368 
L 284.369261 208.763368 
L 284.369261 209.299074 
L 287.412898 209.299074 
L 287.412898 210.211135 
L 290.456534 210.211135 
L 290.456534 210.088249 
L 293.50017 210.088249 
L 293.50017 210.352223 
L 296.543807 210.352223 
L 296.543807 211.017854 
L 302.63108 210.955699 
L 302.63108 210.397709 
L 305.674716 210.397709 
L 305.674716 211.640104 
L 308.718352 211.640104 
L 308.718352 210.337219 
L 311.761989 210.337219 
L 311.761989 211.185139 
L 314.805625 211.185139 
L 314.805625 210.476601 
L 317.849261 210.476601 
L 317.849261 211.626262 
L 320.892898 211.626262 
L 320.892898 210.970564 
L 323.936534 210.970564 
L 323.936534 211.478044 
L 326.98017 211.478044 
L 326.98017 211.071792 
L 330.023807 211.071792 
L 330.023807 211.791851 
L 333.067443 211.791851 
L 333.067443 211.453417 
L 336.11108 211.453417 
L 336.11108 212.000401 
L 339.154716 212.000401 
L 339.154716 211.518831 
L 342.198352 211.518831 
L 342.198352 211.676668 
L 345.241989 211.676668 
L 345.241989 212.117557 
L 348.285625 212.117557 
L 348.285625 211.973073 
L 351.329261 211.973073 
L 351.329261 211.632233 
L 354.372898 211.632233 
L 354.372898 212.317832 
L 360.46017 212.377098 
L 360.46017 212.044084 
L 363.503807 212.044084 
L 363.503807 212.415931 
L 366.547443 212.415931 
L 366.547443 212.415931 
" clip-path="url(#p16885ec6b2)" style="fill: none; stroke: #1f77b4; stroke-width: 1.5; stroke-linecap: square"/>
   </g>
   <g id="LineCollection_1">
    <path d="M 63.705625 59.022367 
L 63.705625 39.267075 
" clip-path="url(#p16885ec6b2)" style="fill: none; stroke: #1f77b4; stroke-width: 1.5"/>
    <path d="M 66.749261 76.888613 
L 66.749261 57.824327 
" clip-path="url(#p16885ec6b2)" style="fill: none; stroke: #1f77b4; stroke-width: 1.5"/>
    <path d="M 69.792898 42.808863 
L 69.792898 20.975614 
" clip-path="url(#p16885ec6b2)" style="fill: none; stroke: #1f77b4; stroke-width: 1.5"/>
    <path d="M 72.836534 96.324441 
L 72.836534 77.654776 
" clip-path="url(#p16885ec6b2)" style="fill: none; stroke: #1f77b4; stroke-width: 1.5"/>
    <path d="M 75.88017 108.484673 
L 75.88017 90.307525 
" clip-path="url(#p16885ec6b2)" style="fill: none; stroke: #1f77b4; stroke-width: 1.5"/>
    <path d="M 78.923807 117.110687 
L 78.923807 99.208765 
" clip-path="url(#p16885ec6b2)" style="fill: none; stroke: #1f77b4; stroke-width: 1.5"/>
    <path d="M 81.967443 126.302753 
L 81.967443 108.748883 
" clip-path="url(#p16885ec6b2)" style="fill: none; stroke: #1f77b4; stroke-width: 1.5"/>
    <path d="M 85.01108 105.570039 
L 85.01108 85.670973 
" clip-path="url(#p16885ec6b2)" style="fill: none; stroke: #1f77b4; stroke-width: 1.5"/>
    <path d="M 88.054716 122.84413 
L 88.054716 104.056598 
" clip-path="url(#p16885ec6b2)" style="fill: none; stroke: #1f77b4; stroke-width: 1.5"/>
    <path d="M 91.098352 126.563775 
L 91.098352 107.63799 
" clip-path="url(#p16885ec6b2)" style="fill: none; stroke: #1f77b4; stroke-width: 1.5"/>
    <path d="M 94.141989 137.691372 
L 94.141989 119.495471 
" clip-path="url(#p16885ec6b2)" style="fill: none; stroke: #1f77b4; stroke-width: 1.5"/>
    <path d="M 97.185625 154.433649 
L 97.185625 137.829559 
" clip-path="url(#p16885ec6b2)" style="fill: none; stroke: #1f77b4; stroke-width: 1.5"/>
    <path d="M 100.229261 155.378629 
L 100.229261 138.423118 
" clip-path="url(#p16885ec6b2)" style="fill: none; stroke: #1f77b4; stroke-width: 1.5"/>
    <path d="M 103.272898 155.892645 
L 103.272898 138.571089 
" clip-path="url(#p16885ec6b2)" style="fill: none; stroke: #1f77b4; stroke-width: 1.5"/>
    <path d="M 106.316534 157.454312 
L 106.316534 139.860871 
" clip-path="url(#p16885ec6b2)" style="fill: none; stroke: #1f77b4; stroke-width: 1.5"/>
    <path d="M 109.36017 152.032398 
L 109.36017 133.20578 
" clip-path="url(#p16885ec6b2)" style="fill: none; stroke: #1f77b4; stroke-width: 1.5"/>
    <path d="M 112.403807 161.546959 
L 112.403807 143.645631 
" clip-path="url(#p16885ec6b2)" style="fill: none; stroke: #1f77b4; stroke-width: 1.5"/>
    <path d="M 115.447443 165.435863 
L 115.447443 147.676846 
" clip-path="url(#p16885ec6b2)" style="fill: none; stroke: #1f77b4; stroke-width: 1.5"/>
    <path d="M 118.49108 161.748786 
L 118.49108 142.839659 
" clip-path="url(#p16885ec6b2)" style="fill: none; stroke: #1f77b4; stroke-width: 1.5"/>
    <path d="M 121.534716 167.89283 
L 121.534716 149.585944 
" clip-path="url(#p16885ec6b2)" style="fill: none; stroke: #1f77b4; stroke-width: 1.5"/>
    <path d="M 124.578352 174.774162 
L 124.578352 157.313474 
" clip-path="url(#p16885ec6b2)" style="fill: none; stroke: #1f77b4; stroke-width: 1.5"/>
    <path d="M 127.621989 174.868351 
L 127.621989 156.904956 
" clip-path="url(#p16885ec6b2)" style="fill: none; stroke: #1f77b4; stroke-width: 1.5"/>
    <path d="M 130.665625 190.918077 
L 130.665625 176.379948 
" clip-path="url(#p16885ec6b2)" style="fill: none; stroke: #1f77b4; stroke-width: 1.5"/>
    <path d="M 133.709261 186.178383 
L 133.709261 169.90637 
" clip-path="url(#p16885ec6b2)" style="fill: none; stroke: #1f77b4; stroke-width: 1.5"/>
    <path d="M 136.752898 183.883101 
L 136.752898 166.586842 
" clip-path="url(#p16885ec6b2)" style="fill: none; stroke: #1f77b4; stroke-width: 1.5"/>
    <path d="M 139.796534 183.879513 
L 139.796534 166.060983 
" clip-path="url(#p16885ec6b2)" style="fill: none; stroke: #1f77b4; stroke-width: 1.5"/>
    <path d="M 142.84017 181.588387 
L 142.84017 162.668125 
" clip-path="url(#p16885ec6b2)" style="fill: none; stroke: #1f77b4; stroke-width: 1.5"/>
    <path d="M 145.883807 188.17874 
L 145.883807 170.578012 
" clip-path="url(#p16885ec6b2)" style="fill: none; stroke: #1f77b4; stroke-width: 1.5"/>
    <path d="M 148.927443 190.731294 
L 148.927443 173.346587 
" clip-path="url(#p16885ec6b2)" style="fill: none; stroke: #1f77b4; stroke-width: 1.5"/>
    <path d="M 151.97108 187.495803 
L 151.97108 168.640547 
" clip-path="url(#p16885ec6b2)" style="fill: none; stroke: #1f77b4; stroke-width: 1.5"/>
    <path d="M 155.014716 193.366875 
L 155.014716 175.88259 
" clip-path="url(#p16885ec6b2)" style="fill: none; stroke: #1f77b4; stroke-width: 1.5"/>
    <path d="M 158.058352 192.313164 
L 158.058352 173.897641 
" clip-path="url(#p16885ec6b2)" style="fill: none; stroke: #1f77b4; stroke-width: 1.5"/>
    <path d="M 161.101989 199.91806 
L 161.101989 184.050186 
" clip-path="url(#p16885ec6b2)" style="fill: none; stroke: #1f77b4; stroke-width: 1.5"/>
    <path d="M 164.145625 190.285447 
L 164.145625 170.029251 
" clip-path="url(#p16885ec6b2)" style="fill: none; stroke: #1f77b4; stroke-width: 1.5"/>
    <path d="M 167.189261 194.924137 
L 167.189261 175.843774 
" clip-path="url(#p16885ec6b2)" style="fill: none; stroke: #1f77b4; stroke-width: 1.5"/>
    <path d="M 170.232898 200.464299 
L 170.232898 183.31331 
" clip-path="url(#p16885ec6b2)" style="fill: none; stroke: #1f77b4; stroke-width: 1.5"/>
    <path d="M 173.276534 201.596844 
L 173.276534 184.5299 
" clip-path="url(#p16885ec6b2)" style="fill: none; stroke: #1f77b4; stroke-width: 1.5"/>
    <path d="M 176.32017 196.855656 
L 176.32017 176.798327 
" clip-path="url(#p16885ec6b2)" style="fill: none; stroke: #1f77b4; stroke-width: 1.5"/>
    <path d="M 179.363807 205.266513 
L 179.363807 189.277937 
" clip-path="url(#p16885ec6b2)" style="fill: none; stroke: #1f77b4; stroke-width: 1.5"/>
    <path d="M 182.407443 203.624631 
L 182.407443 186.043444 
" clip-path="url(#p16885ec6b2)" style="fill: none; stroke: #1f77b4; stroke-width: 1.5"/>
    <path d="M 185.45108 207.168392 
L 185.45108 191.493376 
" clip-path="url(#p16885ec6b2)" style="fill: none; stroke: #1f77b4; stroke-width: 1.5"/>
    <path d="M 188.494716 205.023039 
L 188.494716 187.203388 
" clip-path="url(#p16885ec6b2)" style="fill: none; stroke: #1f77b4; stroke-width: 1.5"/>
    <path d="M 191.538352 203.867602 
L 191.538352 184.639415 
" clip-path="url(#p16885ec6b2)" style="fill: none; stroke: #1f77b4; stroke-width: 1.5"/>
    <path d="M 194.581989 206.258555 
L 194.581989 188.084416 
" clip-path="url(#p16885ec6b2)" style="fill: none; stroke: #1f77b4; stroke-width: 1.5"/>
    <path d="M 197.625625 204.091574 
L 197.625625 183.664806 
" clip-path="url(#p16885ec6b2)" style="fill: none; stroke: #1f77b4; stroke-width: 1.5"/>
    <path d="M 200.669261 207.520999 
L 200.669261 189.081699 
" clip-path="url(#p16885ec6b2)" style="fill: none; stroke: #1f77b4; stroke-width: 1.5"/>
    <path d="M 203.712898 210.102403 
L 203.712898 193.616048 
" clip-path="url(#p16885ec6b2)" style="fill: none; stroke: #1f77b4; stroke-width: 1.5"/>
    <path d="M 206.756534 209.691255 
L 206.756534 192.048113 
" clip-path="url(#p16885ec6b2)" style="fill: none; stroke: #1f77b4; stroke-width: 1.5"/>
    <path d="M 209.80017 208.536354 
L 209.80017 188.94303 
" clip-path="url(#p16885ec6b2)" style="fill: none; stroke: #1f77b4; stroke-width: 1.5"/>
    <path d="M 212.843807 211.649926 
L 212.843807 194.958171 
" clip-path="url(#p16885ec6b2)" style="fill: none; stroke: #1f77b4; stroke-width: 1.5"/>
    <path d="M 215.887443 210.661638 
L 215.887443 191.955673 
" clip-path="url(#p16885ec6b2)" style="fill: none; stroke: #1f77b4; stroke-width: 1.5"/>
    <path d="M 218.93108 211.493083 
L 218.93108 193.172779 
" clip-path="url(#p16885ec6b2)" style="fill: none; stroke: #1f77b4; stroke-width: 1.5"/>
    <path d="M 221.974716 212.896096 
L 221.974716 196.009954 
" clip-path="url(#p16885ec6b2)" style="fill: none; stroke: #1f77b4; stroke-width: 1.5"/>
    <path d="M 225.018352 213.530278 
L 225.018352 197.134282 
" clip-path="url(#p16885ec6b2)" style="fill: none; stroke: #1f77b4; stroke-width: 1.5"/>
    <path d="M 228.061989 214.201854 
L 228.061989 198.397769 
" clip-path="url(#p16885ec6b2)" style="fill: none; stroke: #1f77b4; stroke-width: 1.5"/>
    <path d="M 231.105625 213.795973 
L 231.105625 196.016714 
" clip-path="url(#p16885ec6b2)" style="fill: none; stroke: #1f77b4; stroke-width: 1.5"/>
    <path d="M 234.149261 213.758383 
L 234.149261 195.069012 
" clip-path="url(#p16885ec6b2)" style="fill: none; stroke: #1f77b4; stroke-width: 1.5"/>
    <path d="M 237.192898 214.026843 
L 237.192898 194.840408 
" clip-path="url(#p16885ec6b2)" style="fill: none; stroke: #1f77b4; stroke-width: 1.5"/>
    <path d="M 240.236534 214.602561 
L 240.236534 195.929252 
" clip-path="url(#p16885ec6b2)" style="fill: none; stroke: #1f77b4; stroke-width: 1.5"/>
    <path d="M 243.28017 215.172459 
L 243.28017 196.951074 
" clip-path="url(#p16885ec6b2)" style="fill: none; stroke: #1f77b4; stroke-width: 1.5"/>
    <path d="M 246.323807 214.659125 
L 246.323807 193.724985 
" clip-path="url(#p16885ec6b2)" style="fill: none; stroke: #1f77b4; stroke-width: 1.5"/>
    <path d="M 249.367443 215.857057 
L 249.367443 197.637376 
" clip-path="url(#p16885ec6b2)" style="fill: none; stroke: #1f77b4; stroke-width: 1.5"/>
    <path d="M 252.41108 216.546052 
L 252.41108 201.129671 
" clip-path="url(#p16885ec6b2)" style="fill: none; stroke: #1f77b4; stroke-width: 1.5"/>
    <path d="M 255.454716 216.559541 
L 255.454716 198.701182 
" clip-path="url(#p16885ec6b2)" style="fill: none; stroke: #1f77b4; stroke-width: 1.5"/>
    <path d="M 258.498352 216.884595 
L 258.498352 199.771345 
" clip-path="url(#p16885ec6b2)" style="fill: none; stroke: #1f77b4; stroke-width: 1.5"/>
    <path d="M 261.541989 217.204129 
L 261.541989 202.610533 
" clip-path="url(#p16885ec6b2)" style="fill: none; stroke: #1f77b4; stroke-width: 1.5"/>
    <path d="M 264.585625 217.376896 
L 264.585625 199.998032 
" clip-path="url(#p16885ec6b2)" style="fill: none; stroke: #1f77b4; stroke-width: 1.5"/>
    <path d="M 267.629261 217.533787 
L 267.629261 198.439217 
" clip-path="url(#p16885ec6b2)" style="fill: none; stroke: #1f77b4; stroke-width: 1.5"/>
    <path d="M 270.672898 217.765479 
L 270.672898 201.818751 
" clip-path="url(#p16885ec6b2)" style="fill: none; stroke: #1f77b4; stroke-width: 1.5"/>
    <path d="M 273.716534 218.050833 
L 273.716534 198.490482 
" clip-path="url(#p16885ec6b2)" style="fill: none; stroke: #1f77b4; stroke-width: 1.5"/>
    <path d="M 276.76017 218.260151 
L 276.76017 200.157102 
" clip-path="url(#p16885ec6b2)" style="fill: none; stroke: #1f77b4; stroke-width: 1.5"/>
    <path d="M 279.803807 218.301731 
L 279.803807 201.942498 
" clip-path="url(#p16885ec6b2)" style="fill: none; stroke: #1f77b4; stroke-width: 1.5"/>
    <path d="M 282.847443 218.778936 
L 282.847443 198.747801 
" clip-path="url(#p16885ec6b2)" style="fill: none; stroke: #1f77b4; stroke-width: 1.5"/>
    <path d="M 285.89108 218.96258 
L 285.89108 199.635568 
" clip-path="url(#p16885ec6b2)" style="fill: none; stroke: #1f77b4; stroke-width: 1.5"/>
    <path d="M 288.934716 218.935894 
L 288.934716 201.486377 
" clip-path="url(#p16885ec6b2)" style="fill: none; stroke: #1f77b4; stroke-width: 1.5"/>
    <path d="M 291.978352 219.199904 
L 291.978352 200.976593 
" clip-path="url(#p16885ec6b2)" style="fill: none; stroke: #1f77b4; stroke-width: 1.5"/>
    <path d="M 295.021989 219.308951 
L 295.021989 201.395494 
" clip-path="url(#p16885ec6b2)" style="fill: none; stroke: #1f77b4; stroke-width: 1.5"/>
    <path d="M 298.065625 219.17199 
L 298.065625 202.863717 
" clip-path="url(#p16885ec6b2)" style="fill: none; stroke: #1f77b4; stroke-width: 1.5"/>
    <path d="M 301.109261 219.403994 
L 301.109261 202.507404 
" clip-path="url(#p16885ec6b2)" style="fill: none; stroke: #1f77b4; stroke-width: 1.5"/>
    <path d="M 304.152898 219.975793 
L 304.152898 200.819626 
" clip-path="url(#p16885ec6b2)" style="fill: none; stroke: #1f77b4; stroke-width: 1.5"/>
    <path d="M 307.196534 219.157798 
L 307.196534 204.12241 
" clip-path="url(#p16885ec6b2)" style="fill: none; stroke: #1f77b4; stroke-width: 1.5"/>
    <path d="M 310.24017 220.516454 
L 310.24017 200.157984 
" clip-path="url(#p16885ec6b2)" style="fill: none; stroke: #1f77b4; stroke-width: 1.5"/>
    <path d="M 313.283807 220.050573 
L 313.283807 202.319705 
" clip-path="url(#p16885ec6b2)" style="fill: none; stroke: #1f77b4; stroke-width: 1.5"/>
    <path d="M 316.327443 220.923064 
L 316.327443 200.030138 
" clip-path="url(#p16885ec6b2)" style="fill: none; stroke: #1f77b4; stroke-width: 1.5"/>
    <path d="M 319.37108 219.964524 
L 319.37108 203.288 
" clip-path="url(#p16885ec6b2)" style="fill: none; stroke: #1f77b4; stroke-width: 1.5"/>
    <path d="M 322.414716 220.971196 
L 322.414716 200.969932 
" clip-path="url(#p16885ec6b2)" style="fill: none; stroke: #1f77b4; stroke-width: 1.5"/>
    <path d="M 325.458352 220.626056 
L 325.458352 202.330031 
" clip-path="url(#p16885ec6b2)" style="fill: none; stroke: #1f77b4; stroke-width: 1.5"/>
    <path d="M 328.501989 221.362562 
L 328.501989 200.781023 
" clip-path="url(#p16885ec6b2)" style="fill: none; stroke: #1f77b4; stroke-width: 1.5"/>
    <path d="M 331.545625 220.543839 
L 331.545625 203.039862 
" clip-path="url(#p16885ec6b2)" style="fill: none; stroke: #1f77b4; stroke-width: 1.5"/>
    <path d="M 334.589261 221.361279 
L 334.589261 201.545556 
" clip-path="url(#p16885ec6b2)" style="fill: none; stroke: #1f77b4; stroke-width: 1.5"/>
    <path d="M 337.632898 220.590972 
L 337.632898 203.40983 
" clip-path="url(#p16885ec6b2)" style="fill: none; stroke: #1f77b4; stroke-width: 1.5"/>
    <path d="M 340.676534 221.730801 
L 340.676534 201.306861 
" clip-path="url(#p16885ec6b2)" style="fill: none; stroke: #1f77b4; stroke-width: 1.5"/>
    <path d="M 343.72017 221.695448 
L 343.72017 201.657888 
" clip-path="url(#p16885ec6b2)" style="fill: none; stroke: #1f77b4; stroke-width: 1.5"/>
    <path d="M 346.763807 220.991744 
L 346.763807 203.243369 
" clip-path="url(#p16885ec6b2)" style="fill: none; stroke: #1f77b4; stroke-width: 1.5"/>
    <path d="M 349.807443 221.576808 
L 349.807443 202.369337 
" clip-path="url(#p16885ec6b2)" style="fill: none; stroke: #1f77b4; stroke-width: 1.5"/>
    <path d="M 352.85108 222.575614 
L 352.85108 200.688852 
" clip-path="url(#p16885ec6b2)" style="fill: none; stroke: #1f77b4; stroke-width: 1.5"/>
    <path d="M 355.894716 221.084864 
L 355.894716 203.550799 
" clip-path="url(#p16885ec6b2)" style="fill: none; stroke: #1f77b4; stroke-width: 1.5"/>
    <path d="M 358.938352 221.112176 
L 358.938352 203.64202 
" clip-path="url(#p16885ec6b2)" style="fill: none; stroke: #1f77b4; stroke-width: 1.5"/>
    <path d="M 361.981989 222.376044 
L 361.981989 201.712124 
" clip-path="url(#p16885ec6b2)" style="fill: none; stroke: #1f77b4; stroke-width: 1.5"/>
    <path d="M 365.025625 221.407516 
L 365.025625 203.424345 
" clip-path="url(#p16885ec6b2)" style="fill: none; stroke: #1f77b4; stroke-width: 1.5"/>
   </g>
   <g id="patch_3">
    <path d="M 46.965625 232.655614 
L 46.965625 10.895614 
" style="fill: none; stroke: #000000; stroke-width: 0.8; stroke-linejoin: miter; stroke-linecap: square"/>
   </g>
   <g id="patch_4">
    <path d="M 381.765625 232.655614 
L 381.765625 10.895614 
" style="fill: none; stroke: #000000; stroke-width: 0.8; stroke-linejoin: miter; stroke-linecap: square"/>
   </g>
   <g id="patch_5">
    <path d="M 46.965625 232.655614 
L 381.765625 232.655614 
" style="fill: none; stroke: #000000; stroke-width: 0.8; stroke-linejoin: miter; stroke-linecap: square"/>
   </g>
   <g id="patch_6">
    <path d="M 46.965625 10.895614 
L 381.765625 10.895614 
" style="fill: none; stroke: #000000; stroke-width: 0.8; stroke-linejoin: miter; stroke-linecap: square"/>
   </g>
  </g>
 </g>
 <defs>
  <clipPath id="p16885ec6b2">
   <rect x="46.965625" y="10.895614" width="334.8" height="221.76"/>
  </clipPath>
 </defs>
</svg>
