<?xml version="1.0" encoding="utf-8" standalone="no"?>
<!DOCTYPE svg PUBLIC "-//W3C//DTD SVG 1.1//EN"
  "http://www.w3.org/Graphics/SVG/1.1/DTD/svg11.dtd">
<svg xmlns:xlink="http://www.w3.org/1999/xlink" width="424.495625pt" height="279.99625pt" viewBox="0 0 424.495625 279.99625" xmlns="http://www.w3.org/2000/svg" version="1.1">
 <metadata>
  <rdf:RDF xmlns:dc="http://purl.org/dc/elements/1.1/" xmlns:cc="http://creativecommons.org/ns#" xmlns:rdf="http://www.w3.org/1999/02/22-rdf-syntax-ns#">
   <cc:Work>
    <dc:type rdf:resource="http://purl.org/dc/dcmitype/StillImage"/>
    <dc:date>2024-09-12T08:22:28.822144</dc:date>
    <dc:format>image/svg+xml</dc:format>
    <dc:creator>
     <cc:Agent>
      <dc:title>Matplotlib v3.9.1, https://matplotlib.org/</dc:title>
     </cc:Agent>
    </dc:creator>
   </cc:Work>
  </rdf:RDF>
 </metadata>
 <defs>
  <style type="text/css">*{stroke-linejoin: round; stroke-linecap: butt}</style>
 </defs>
 <g id="figure_1">
  <g id="patch_1">
   <path d="M 0 279.99625 
L 424.495625 279.99625 
L 424.495625 0 
L 0 0 
z
" style="fill: #ffffff"/>
  </g>
  <g id="axes_1">
   <g id="patch_2">
    <path d="M 46.965625 242.44 
L 417.295625 242.44 
L 417.295625 7.2 
L 46.965625 7.2 
z
" style="fill: #ffffff"/>
   </g>
   <g id="matplotlib.axis_1">
    <g id="xtick_1">
     <g id="line2d_1">
      <defs>
       <path id="mfc019a5e2e" d="M 0 0 
L 0 3.5 
" style="stroke: #000000; stroke-width: 0.8"/>
      </defs>
      <g>
       <use xlink:href="#mfc019a5e2e" x="63.798807" y="242.44" style="stroke: #000000; stroke-width: 0.8"/>
      </g>
     </g>
     <g id="text_1">
      <!-- 0.0 -->
      <g transform="translate(55.847244 257.038437) scale(0.1 -0.1)">
       <defs>
        <path id="DejaVuSans-30" d="M 2034 4250 
Q 1547 4250 1301 3770 
Q 1056 3291 1056 2328 
Q 1056 1369 1301 889 
Q 1547 409 2034 409 
Q 2525 409 2770 889 
Q 3016 1369 3016 2328 
Q 3016 3291 2770 3770 
Q 2525 4250 2034 4250 
z
M 2034 4750 
Q 2819 4750 3233 4129 
Q 3647 3509 3647 2328 
Q 3647 1150 3233 529 
Q 2819 -91 2034 -91 
Q 1250 -91 836 529 
Q 422 1150 422 2328 
Q 422 3509 836 4129 
Q 1250 4750 2034 4750 
z
" transform="scale(0.015625)"/>
        <path id="DejaVuSans-2e" d="M 684 794 
L 1344 794 
L 1344 0 
L 684 0 
L 684 794 
z
" transform="scale(0.015625)"/>
       </defs>
       <use xlink:href="#DejaVuSans-30"/>
       <use xlink:href="#DejaVuSans-2e" x="63.623047"/>
       <use xlink:href="#DejaVuSans-30" x="95.410156"/>
      </g>
     </g>
    </g>
    <g id="xtick_2">
     <g id="line2d_2">
      <g>
       <use xlink:href="#mfc019a5e2e" x="131.131534" y="242.44" style="stroke: #000000; stroke-width: 0.8"/>
      </g>
     </g>
     <g id="text_2">
      <!-- 0.2 -->
      <g transform="translate(123.179972 257.038437) scale(0.1 -0.1)">
       <defs>
        <path id="DejaVuSans-32" d="M 1228 531 
L 3431 531 
L 3431 0 
L 469 0 
L 469 531 
Q 828 903 1448 1529 
Q 2069 2156 2228 2338 
Q 2531 2678 2651 2914 
Q 2772 3150 2772 3378 
Q 2772 3750 2511 3984 
Q 2250 4219 1831 4219 
Q 1534 4219 1204 4116 
Q 875 4013 500 3803 
L 500 4441 
Q 881 4594 1212 4672 
Q 1544 4750 1819 4750 
Q 2544 4750 2975 4387 
Q 3406 4025 3406 3419 
Q 3406 3131 3298 2873 
Q 3191 2616 2906 2266 
Q 2828 2175 2409 1742 
Q 1991 1309 1228 531 
z
" transform="scale(0.015625)"/>
       </defs>
       <use xlink:href="#DejaVuSans-30"/>
       <use xlink:href="#DejaVuSans-2e" x="63.623047"/>
       <use xlink:href="#DejaVuSans-32" x="95.410156"/>
      </g>
     </g>
    </g>
    <g id="xtick_3">
     <g id="line2d_3">
      <g>
       <use xlink:href="#mfc019a5e2e" x="198.464261" y="242.44" style="stroke: #000000; stroke-width: 0.8"/>
      </g>
     </g>
     <g id="text_3">
      <!-- 0.4 -->
      <g transform="translate(190.512699 257.038437) scale(0.1 -0.1)">
       <defs>
        <path id="DejaVuSans-34" d="M 2419 4116 
L 825 1625 
L 2419 1625 
L 2419 4116 
z
M 2253 4666 
L 3047 4666 
L 3047 1625 
L 3713 1625 
L 3713 1100 
L 3047 1100 
L 3047 0 
L 2419 0 
L 2419 1100 
L 313 1100 
L 313 1709 
L 2253 4666 
z
" transform="scale(0.015625)"/>
       </defs>
       <use xlink:href="#DejaVuSans-30"/>
       <use xlink:href="#DejaVuSans-2e" x="63.623047"/>
       <use xlink:href="#DejaVuSans-34" x="95.410156"/>
      </g>
     </g>
    </g>
    <g id="xtick_4">
     <g id="line2d_4">
      <g>
       <use xlink:href="#mfc019a5e2e" x="265.796989" y="242.44" style="stroke: #000000; stroke-width: 0.8"/>
      </g>
     </g>
     <g id="text_4">
      <!-- 0.6 -->
      <g transform="translate(257.845426 257.038437) scale(0.1 -0.1)">
       <defs>
        <path id="DejaVuSans-36" d="M 2113 2584 
Q 1688 2584 1439 2293 
Q 1191 2003 1191 1497 
Q 1191 994 1439 701 
Q 1688 409 2113 409 
Q 2538 409 2786 701 
Q 3034 994 3034 1497 
Q 3034 2003 2786 2293 
Q 2538 2584 2113 2584 
z
M 3366 4563 
L 3366 3988 
Q 3128 4100 2886 4159 
Q 2644 4219 2406 4219 
Q 1781 4219 1451 3797 
Q 1122 3375 1075 2522 
Q 1259 2794 1537 2939 
Q 1816 3084 2150 3084 
Q 2853 3084 3261 2657 
Q 3669 2231 3669 1497 
Q 3669 778 3244 343 
Q 2819 -91 2113 -91 
Q 1303 -91 875 529 
Q 447 1150 447 2328 
Q 447 3434 972 4092 
Q 1497 4750 2381 4750 
Q 2619 4750 2861 4703 
Q 3103 4656 3366 4563 
z
" transform="scale(0.015625)"/>
       </defs>
       <use xlink:href="#DejaVuSans-30"/>
       <use xlink:href="#DejaVuSans-2e" x="63.623047"/>
       <use xlink:href="#DejaVuSans-36" x="95.410156"/>
      </g>
     </g>
    </g>
    <g id="xtick_5">
     <g id="line2d_5">
      <g>
       <use xlink:href="#mfc019a5e2e" x="333.129716" y="242.44" style="stroke: #000000; stroke-width: 0.8"/>
      </g>
     </g>
     <g id="text_5">
      <!-- 0.8 -->
      <g transform="translate(325.178153 257.038437) scale(0.1 -0.1)">
       <defs>
        <path id="DejaVuSans-38" d="M 2034 2216 
Q 1584 2216 1326 1975 
Q 1069 1734 1069 1313 
Q 1069 891 1326 650 
Q 1584 409 2034 409 
Q 2484 409 2743 651 
Q 3003 894 3003 1313 
Q 3003 1734 2745 1975 
Q 2488 2216 2034 2216 
z
M 1403 2484 
Q 997 2584 770 2862 
Q 544 3141 544 3541 
Q 544 4100 942 4425 
Q 1341 4750 2034 4750 
Q 2731 4750 3128 4425 
Q 3525 4100 3525 3541 
Q 3525 3141 3298 2862 
Q 3072 2584 2669 2484 
Q 3125 2378 3379 2068 
Q 3634 1759 3634 1313 
Q 3634 634 3220 271 
Q 2806 -91 2034 -91 
Q 1263 -91 848 271 
Q 434 634 434 1313 
Q 434 1759 690 2068 
Q 947 2378 1403 2484 
z
M 1172 3481 
Q 1172 3119 1398 2916 
Q 1625 2713 2034 2713 
Q 2441 2713 2670 2916 
Q 2900 3119 2900 3481 
Q 2900 3844 2670 4047 
Q 2441 4250 2034 4250 
Q 1625 4250 1398 4047 
Q 1172 3844 1172 3481 
z
" transform="scale(0.015625)"/>
       </defs>
       <use xlink:href="#DejaVuSans-30"/>
       <use xlink:href="#DejaVuSans-2e" x="63.623047"/>
       <use xlink:href="#DejaVuSans-38" x="95.410156"/>
      </g>
     </g>
    </g>
    <g id="xtick_6">
     <g id="line2d_6">
      <g>
       <use xlink:href="#mfc019a5e2e" x="400.462443" y="242.44" style="stroke: #000000; stroke-width: 0.8"/>
      </g>
     </g>
     <g id="text_6">
      <!-- 1.0 -->
      <g transform="translate(392.510881 257.038437) scale(0.1 -0.1)">
       <defs>
        <path id="DejaVuSans-31" d="M 794 531 
L 1825 531 
L 1825 4091 
L 703 3866 
L 703 4441 
L 1819 4666 
L 2450 4666 
L 2450 531 
L 3481 531 
L 3481 0 
L 794 0 
L 794 531 
z
" transform="scale(0.015625)"/>
       </defs>
       <use xlink:href="#DejaVuSans-31"/>
       <use xlink:href="#DejaVuSans-2e" x="63.623047"/>
       <use xlink:href="#DejaVuSans-30" x="95.410156"/>
      </g>
     </g>
    </g>
    <g id="text_7">
     <!-- x [m] -->
     <g transform="translate(218.810313 270.716562) scale(0.1 -0.1)">
      <defs>
       <path id="DejaVuSans-78" d="M 3513 3500 
L 2247 1797 
L 3578 0 
L 2900 0 
L 1881 1375 
L 863 0 
L 184 0 
L 1544 1831 
L 300 3500 
L 978 3500 
L 1906 2253 
L 2834 3500 
L 3513 3500 
z
" transform="scale(0.015625)"/>
       <path id="DejaVuSans-20" transform="scale(0.015625)"/>
       <path id="DejaVuSans-5b" d="M 550 4863 
L 1875 4863 
L 1875 4416 
L 1125 4416 
L 1125 -397 
L 1875 -397 
L 1875 -844 
L 550 -844 
L 550 4863 
z
" transform="scale(0.015625)"/>
       <path id="DejaVuSans-6d" d="M 3328 2828 
Q 3544 3216 3844 3400 
Q 4144 3584 4550 3584 
Q 5097 3584 5394 3201 
Q 5691 2819 5691 2113 
L 5691 0 
L 5113 0 
L 5113 2094 
Q 5113 2597 4934 2840 
Q 4756 3084 4391 3084 
Q 3944 3084 3684 2787 
Q 3425 2491 3425 1978 
L 3425 0 
L 2847 0 
L 2847 2094 
Q 2847 2600 2669 2842 
Q 2491 3084 2119 3084 
Q 1678 3084 1418 2786 
Q 1159 2488 1159 1978 
L 1159 0 
L 581 0 
L 581 3500 
L 1159 3500 
L 1159 2956 
Q 1356 3278 1631 3431 
Q 1906 3584 2284 3584 
Q 2666 3584 2933 3390 
Q 3200 3197 3328 2828 
z
" transform="scale(0.015625)"/>
       <path id="DejaVuSans-5d" d="M 1947 4863 
L 1947 -844 
L 622 -844 
L 622 -397 
L 1369 -397 
L 1369 4416 
L 622 4416 
L 622 4863 
L 1947 4863 
z
" transform="scale(0.015625)"/>
      </defs>
      <use xlink:href="#DejaVuSans-78"/>
      <use xlink:href="#DejaVuSans-20" x="59.179688"/>
      <use xlink:href="#DejaVuSans-5b" x="90.966797"/>
      <use xlink:href="#DejaVuSans-6d" x="129.980469"/>
      <use xlink:href="#DejaVuSans-5d" x="227.392578"/>
     </g>
    </g>
   </g>
   <g id="matplotlib.axis_2">
    <g id="ytick_1">
     <g id="line2d_7">
      <defs>
       <path id="m52c93ed296" d="M 0 0 
L -3.5 0 
" style="stroke: #000000; stroke-width: 0.8"/>
      </defs>
      <g>
       <use xlink:href="#m52c93ed296" x="46.965625" y="219.356519" style="stroke: #000000; stroke-width: 0.8"/>
      </g>
     </g>
     <g id="text_8">
      <!-- 0 -->
      <g transform="translate(33.603125 223.155738) scale(0.1 -0.1)">
       <use xlink:href="#DejaVuSans-30"/>
      </g>
     </g>
    </g>
    <g id="ytick_2">
     <g id="line2d_8">
      <g>
       <use xlink:href="#m52c93ed296" x="46.965625" y="180.945774" style="stroke: #000000; stroke-width: 0.8"/>
      </g>
     </g>
     <g id="text_9">
      <!-- 50 -->
      <g transform="translate(27.240625 184.744993) scale(0.1 -0.1)">
       <defs>
        <path id="DejaVuSans-35" d="M 691 4666 
L 3169 4666 
L 3169 4134 
L 1269 4134 
L 1269 2991 
Q 1406 3038 1543 3061 
Q 1681 3084 1819 3084 
Q 2600 3084 3056 2656 
Q 3513 2228 3513 1497 
Q 3513 744 3044 326 
Q 2575 -91 1722 -91 
Q 1428 -91 1123 -41 
Q 819 9 494 109 
L 494 744 
Q 775 591 1075 516 
Q 1375 441 1709 441 
Q 2250 441 2565 725 
Q 2881 1009 2881 1497 
Q 2881 1984 2565 2268 
Q 2250 2553 1709 2553 
Q 1456 2553 1204 2497 
Q 953 2441 691 2322 
L 691 4666 
z
" transform="scale(0.015625)"/>
       </defs>
       <use xlink:href="#DejaVuSans-35"/>
       <use xlink:href="#DejaVuSans-30" x="63.623047"/>
      </g>
     </g>
    </g>
    <g id="ytick_3">
     <g id="line2d_9">
      <g>
       <use xlink:href="#m52c93ed296" x="46.965625" y="142.535029" style="stroke: #000000; stroke-width: 0.8"/>
      </g>
     </g>
     <g id="text_10">
      <!-- 100 -->
      <g transform="translate(20.878125 146.334248) scale(0.1 -0.1)">
       <use xlink:href="#DejaVuSans-31"/>
       <use xlink:href="#DejaVuSans-30" x="63.623047"/>
       <use xlink:href="#DejaVuSans-30" x="127.246094"/>
      </g>
     </g>
    </g>
    <g id="ytick_4">
     <g id="line2d_10">
      <g>
       <use xlink:href="#m52c93ed296" x="46.965625" y="104.124284" style="stroke: #000000; stroke-width: 0.8"/>
      </g>
     </g>
     <g id="text_11">
      <!-- 150 -->
      <g transform="translate(20.878125 107.923502) scale(0.1 -0.1)">
       <use xlink:href="#DejaVuSans-31"/>
       <use xlink:href="#DejaVuSans-35" x="63.623047"/>
       <use xlink:href="#DejaVuSans-30" x="127.246094"/>
      </g>
     </g>
    </g>
    <g id="ytick_5">
     <g id="line2d_11">
      <g>
       <use xlink:href="#m52c93ed296" x="46.965625" y="65.713538" style="stroke: #000000; stroke-width: 0.8"/>
      </g>
     </g>
     <g id="text_12">
      <!-- 200 -->
      <g transform="translate(20.878125 69.512757) scale(0.1 -0.1)">
       <use xlink:href="#DejaVuSans-32"/>
       <use xlink:href="#DejaVuSans-30" x="63.623047"/>
       <use xlink:href="#DejaVuSans-30" x="127.246094"/>
      </g>
     </g>
    </g>
    <g id="ytick_6">
     <g id="line2d_12">
      <g>
       <use xlink:href="#m52c93ed296" x="46.965625" y="27.302793" style="stroke: #000000; stroke-width: 0.8"/>
      </g>
     </g>
     <g id="text_13">
      <!-- 250 -->
      <g transform="translate(20.878125 31.102012) scale(0.1 -0.1)">
       <use xlink:href="#DejaVuSans-32"/>
       <use xlink:href="#DejaVuSans-35" x="63.623047"/>
       <use xlink:href="#DejaVuSans-30" x="127.246094"/>
      </g>
     </g>
    </g>
    <g id="text_14">
     <!-- [counts] -->
     <g transform="translate(14.798437 145.4325) rotate(-90) scale(0.1 -0.1)">
      <defs>
       <path id="DejaVuSans-63" d="M 3122 3366 
L 3122 2828 
Q 2878 2963 2633 3030 
Q 2388 3097 2138 3097 
Q 1578 3097 1268 2742 
Q 959 2388 959 1747 
Q 959 1106 1268 751 
Q 1578 397 2138 397 
Q 2388 397 2633 464 
Q 2878 531 3122 666 
L 3122 134 
Q 2881 22 2623 -34 
Q 2366 -91 2075 -91 
Q 1284 -91 818 406 
Q 353 903 353 1747 
Q 353 2603 823 3093 
Q 1294 3584 2113 3584 
Q 2378 3584 2631 3529 
Q 2884 3475 3122 3366 
z
" transform="scale(0.015625)"/>
       <path id="DejaVuSans-6f" d="M 1959 3097 
Q 1497 3097 1228 2736 
Q 959 2375 959 1747 
Q 959 1119 1226 758 
Q 1494 397 1959 397 
Q 2419 397 2687 759 
Q 2956 1122 2956 1747 
Q 2956 2369 2687 2733 
Q 2419 3097 1959 3097 
z
M 1959 3584 
Q 2709 3584 3137 3096 
Q 3566 2609 3566 1747 
Q 3566 888 3137 398 
Q 2709 -91 1959 -91 
Q 1206 -91 779 398 
Q 353 888 353 1747 
Q 353 2609 779 3096 
Q 1206 3584 1959 3584 
z
" transform="scale(0.015625)"/>
       <path id="DejaVuSans-75" d="M 544 1381 
L 544 3500 
L 1119 3500 
L 1119 1403 
Q 1119 906 1312 657 
Q 1506 409 1894 409 
Q 2359 409 2629 706 
Q 2900 1003 2900 1516 
L 2900 3500 
L 3475 3500 
L 3475 0 
L 2900 0 
L 2900 538 
Q 2691 219 2414 64 
Q 2138 -91 1772 -91 
Q 1169 -91 856 284 
Q 544 659 544 1381 
z
M 1991 3584 
L 1991 3584 
z
" transform="scale(0.015625)"/>
       <path id="DejaVuSans-6e" d="M 3513 2113 
L 3513 0 
L 2938 0 
L 2938 2094 
Q 2938 2591 2744 2837 
Q 2550 3084 2163 3084 
Q 1697 3084 1428 2787 
Q 1159 2491 1159 1978 
L 1159 0 
L 581 0 
L 581 3500 
L 1159 3500 
L 1159 2956 
Q 1366 3272 1645 3428 
Q 1925 3584 2291 3584 
Q 2894 3584 3203 3211 
Q 3513 2838 3513 2113 
z
" transform="scale(0.015625)"/>
       <path id="DejaVuSans-74" d="M 1172 4494 
L 1172 3500 
L 2356 3500 
L 2356 3053 
L 1172 3053 
L 1172 1153 
Q 1172 725 1289 603 
Q 1406 481 1766 481 
L 2356 481 
L 2356 0 
L 1766 0 
Q 1100 0 847 248 
Q 594 497 594 1153 
L 594 3053 
L 172 3053 
L 172 3500 
L 594 3500 
L 594 4494 
L 1172 4494 
z
" transform="scale(0.015625)"/>
       <path id="DejaVuSans-73" d="M 2834 3397 
L 2834 2853 
Q 2591 2978 2328 3040 
Q 2066 3103 1784 3103 
Q 1356 3103 1142 2972 
Q 928 2841 928 2578 
Q 928 2378 1081 2264 
Q 1234 2150 1697 2047 
L 1894 2003 
Q 2506 1872 2764 1633 
Q 3022 1394 3022 966 
Q 3022 478 2636 193 
Q 2250 -91 1575 -91 
Q 1294 -91 989 -36 
Q 684 19 347 128 
L 347 722 
Q 666 556 975 473 
Q 1284 391 1588 391 
Q 1994 391 2212 530 
Q 2431 669 2431 922 
Q 2431 1156 2273 1281 
Q 2116 1406 1581 1522 
L 1381 1569 
Q 847 1681 609 1914 
Q 372 2147 372 2553 
Q 372 3047 722 3315 
Q 1072 3584 1716 3584 
Q 2034 3584 2315 3537 
Q 2597 3491 2834 3397 
z
" transform="scale(0.015625)"/>
      </defs>
      <use xlink:href="#DejaVuSans-5b"/>
      <use xlink:href="#DejaVuSans-63" x="39.013672"/>
      <use xlink:href="#DejaVuSans-6f" x="93.994141"/>
      <use xlink:href="#DejaVuSans-75" x="155.175781"/>
      <use xlink:href="#DejaVuSans-6e" x="218.554688"/>
      <use xlink:href="#DejaVuSans-74" x="281.933594"/>
      <use xlink:href="#DejaVuSans-73" x="321.142578"/>
      <use xlink:href="#DejaVuSans-5d" x="373.242188"/>
     </g>
    </g>
   </g>
   <g id="patch_3">
    <path d="M 46.965625 242.44 
L 46.965625 7.2 
" style="fill: none; stroke: #000000; stroke-width: 0.8; stroke-linejoin: miter; stroke-linecap: square"/>
   </g>
   <g id="patch_4">
    <path d="M 417.295625 242.44 
L 417.295625 7.2 
" style="fill: none; stroke: #000000; stroke-width: 0.8; stroke-linejoin: miter; stroke-linecap: square"/>
   </g>
   <g id="patch_5">
    <path d="M 46.965625 242.44 
L 417.295625 242.44 
" style="fill: none; stroke: #000000; stroke-width: 0.8; stroke-linejoin: miter; stroke-linecap: square"/>
   </g>
   <g id="patch_6">
    <path d="M 46.965625 7.2 
L 417.295625 7.2 
" style="fill: none; stroke: #000000; stroke-width: 0.8; stroke-linejoin: miter; stroke-linecap: square"/>
   </g>
   <g id="line2d_13">
    <path d="M 63.798807 42.368006 
L 67.165443 42.368006 
L 67.165443 30.388425 
L 70.53208 30.388425 
L 70.53208 76.874668 
L 73.898716 76.874668 
L 73.898716 78.688092 
L 77.265352 78.688092 
L 77.265352 67.529478 
L 80.631989 67.529478 
L 80.631989 95.552136 
L 83.998625 95.552136 
L 83.998625 72.790147 
L 87.365261 72.790147 
L 87.365261 114.698671 
L 90.731898 114.698671 
L 90.731898 131.22869 
L 94.098534 131.22869 
L 94.098534 118.977228 
L 97.46517 118.977228 
L 97.46517 115.118122 
L 100.831807 115.118122 
L 100.831807 85.741704 
L 104.198443 85.741704 
L 104.198443 118.597207 
L 107.56508 118.597207 
L 107.56508 129.771965 
L 110.931716 129.771965 
L 110.931716 124.18441 
L 114.298352 124.18441 
L 114.298352 138.021042 
L 117.664989 138.021042 
L 117.664989 135.254438 
L 121.031625 135.254438 
L 121.031625 149.802371 
L 124.398261 149.802371 
L 124.398261 143.562297 
L 127.764898 143.562297 
L 127.764898 139.834621 
L 131.131534 139.834621 
L 131.131534 157.878382 
L 134.49817 157.878382 
L 134.49817 153.681348 
L 137.864807 153.681348 
L 137.864807 152.346797 
L 141.231443 152.346797 
L 141.231443 152.086769 
L 144.59808 152.086769 
L 144.59808 161.995923 
L 147.964716 161.995923 
L 147.964716 176.270517 
L 151.331352 176.270517 
L 151.331352 163.887461 
L 154.697989 163.887461 
L 154.697989 165.455965 
L 158.064625 165.455965 
L 158.064625 172.460838 
L 161.431261 172.460838 
L 161.431261 169.492462 
L 164.797898 169.492462 
L 164.797898 189.385165 
L 168.164534 189.385165 
L 168.164534 175.842615 
L 171.53117 175.842615 
L 171.53117 185.024268 
L 174.897807 185.024268 
L 174.897807 178.721052 
L 178.264443 178.721052 
L 178.264443 186.856636 
L 181.63108 186.856636 
L 181.63108 181.052304 
L 184.997716 181.052304 
L 184.997716 189.654481 
L 188.364352 189.654481 
L 188.364352 183.140826 
L 191.730989 183.140826 
L 191.730989 191.795391 
L 195.097625 191.795391 
L 195.097625 192.746869 
L 198.464261 192.746869 
L 198.464261 188.406656 
L 201.830898 188.406656 
L 201.830898 197.932239 
L 205.197534 197.932239 
L 205.197534 194.853636 
L 208.56417 194.853636 
L 208.56417 195.704827 
L 211.930807 195.704827 
L 211.930807 199.411836 
L 215.297443 199.411836 
L 215.297443 198.685368 
L 218.66408 198.685368 
L 218.66408 203.402161 
L 222.030716 203.402161 
L 222.030716 203.966467 
L 225.397352 203.966467 
L 225.397352 202.752902 
L 228.763989 202.752902 
L 228.763989 205.755622 
L 232.130625 205.755622 
L 232.130625 205.260247 
L 235.497261 205.260247 
L 235.497261 205.948252 
L 238.863898 205.948252 
L 238.863898 205.554063 
L 242.230534 205.554063 
L 242.230534 210.450093 
L 245.59717 210.450093 
L 245.59717 207.273884 
L 248.963807 207.273884 
L 248.963807 208.655147 
L 252.330443 208.655147 
L 252.330443 205.302826 
L 255.69708 205.302826 
L 255.69708 207.14197 
L 259.063716 207.14197 
L 259.063716 208.294212 
L 262.430352 208.294212 
L 262.430352 209.233954 
L 265.796989 209.233954 
L 265.796989 209.432589 
L 269.163625 209.432589 
L 269.163625 209.010663 
L 272.530261 209.010663 
L 272.530261 209.42818 
L 275.896898 209.42818 
L 275.896898 211.455518 
L 279.263534 211.455518 
L 279.263534 213.25298 
L 282.63017 213.25298 
L 282.63017 211.045129 
L 285.996807 211.045129 
L 285.996807 212.312082 
L 289.363443 212.312082 
L 289.363443 212.517323 
L 292.73008 212.517323 
L 292.73008 213.622765 
L 296.096716 213.622765 
L 296.096716 213.883478 
L 299.463352 213.883478 
L 299.463352 213.365666 
L 302.829989 213.365666 
L 302.829989 213.849963 
L 306.196625 213.849963 
L 306.196625 215.115077 
L 309.563261 215.115077 
L 309.563261 214.829335 
L 312.929898 214.829335 
L 312.929898 214.188538 
L 316.296534 214.188538 
L 316.296534 215.454577 
L 319.66317 215.454577 
L 319.66317 213.90871 
L 323.029807 213.90871 
L 323.029807 214.705312 
L 326.396443 214.705312 
L 326.396443 215.818666 
L 329.76308 215.818666 
L 329.76308 216.585905 
L 333.129716 216.585905 
L 333.129716 216.143834 
L 336.496352 216.143834 
L 336.496352 216.969736 
L 339.862989 216.969736 
L 339.862989 216.338082 
L 343.229625 216.338082 
L 343.229625 216.450004 
L 346.596261 216.450004 
L 346.596261 217.069251 
L 349.962898 217.069251 
L 349.962898 216.069089 
L 353.329534 216.069089 
L 353.329534 216.487464 
L 356.69617 216.487464 
L 356.69617 217.697431 
L 360.062807 217.697431 
L 360.062807 216.486452 
L 363.429443 216.486452 
L 363.429443 217.469109 
L 366.79608 217.469109 
L 366.79608 217.001759 
L 370.162716 217.001759 
L 370.162716 217.547729 
L 373.529352 217.547729 
L 373.529352 217.27572 
L 380.262625 217.169834 
L 380.262625 217.110667 
L 383.629261 217.110667 
L 383.629261 216.950311 
L 386.995898 216.950311 
L 386.995898 217.728393 
L 393.72917 217.762017 
L 393.72917 218.014076 
L 397.095807 218.014076 
L 397.095807 217.850392 
L 400.462443 217.850392 
L 400.462443 217.850392 
" clip-path="url(#p5a56496f5c)" style="fill: none; stroke: #1f77b4; stroke-width: 1.5; stroke-linecap: square"/>
   </g>
   <g id="LineCollection_1">
    <path d="M 65.482125 54.174779 
L 65.482125 30.561232 
" clip-path="url(#p5a56496f5c)" style="fill: none; stroke: #1f77b4; stroke-width: 1.5"/>
    <path d="M 68.848761 42.884122 
L 68.848761 17.892727 
" clip-path="url(#p5a56496f5c)" style="fill: none; stroke: #1f77b4; stroke-width: 1.5"/>
    <path d="M 72.215398 87.99149 
L 72.215398 65.757845 
" clip-path="url(#p5a56496f5c)" style="fill: none; stroke: #1f77b4; stroke-width: 1.5"/>
    <path d="M 75.582034 90.054361 
L 75.582034 67.321823 
" clip-path="url(#p5a56496f5c)" style="fill: none; stroke: #1f77b4; stroke-width: 1.5"/>
    <path d="M 78.94867 79.611545 
L 78.94867 55.447411 
" clip-path="url(#p5a56496f5c)" style="fill: none; stroke: #1f77b4; stroke-width: 1.5"/>
    <path d="M 82.315307 106.73733 
L 82.315307 84.366943 
" clip-path="url(#p5a56496f5c)" style="fill: none; stroke: #1f77b4; stroke-width: 1.5"/>
    <path d="M 85.681943 85.276861 
L 85.681943 60.303433 
" clip-path="url(#p5a56496f5c)" style="fill: none; stroke: #1f77b4; stroke-width: 1.5"/>
    <path d="M 89.04858 125.524584 
L 89.04858 103.872758 
" clip-path="url(#p5a56496f5c)" style="fill: none; stroke: #1f77b4; stroke-width: 1.5"/>
    <path d="M 92.415216 141.393006 
L 92.415216 121.064373 
" clip-path="url(#p5a56496f5c)" style="fill: none; stroke: #1f77b4; stroke-width: 1.5"/>
    <path d="M 95.781852 130.109932 
L 95.781852 107.844525 
" clip-path="url(#p5a56496f5c)" style="fill: none; stroke: #1f77b4; stroke-width: 1.5"/>
    <path d="M 99.148489 126.741999 
L 99.148489 103.494245 
" clip-path="url(#p5a56496f5c)" style="fill: none; stroke: #1f77b4; stroke-width: 1.5"/>
    <path d="M 102.515125 99.237452 
L 102.515125 72.245957 
" clip-path="url(#p5a56496f5c)" style="fill: none; stroke: #1f77b4; stroke-width: 1.5"/>
    <path d="M 105.881761 130.640177 
L 105.881761 106.554238 
" clip-path="url(#p5a56496f5c)" style="fill: none; stroke: #1f77b4; stroke-width: 1.5"/>
    <path d="M 109.248398 141.386183 
L 109.248398 118.157746 
" clip-path="url(#p5a56496f5c)" style="fill: none; stroke: #1f77b4; stroke-width: 1.5"/>
    <path d="M 112.615034 136.452246 
L 112.615034 111.916575 
" clip-path="url(#p5a56496f5c)" style="fill: none; stroke: #1f77b4; stroke-width: 1.5"/>
    <path d="M 115.98167 149.663513 
L 115.98167 126.378571 
" clip-path="url(#p5a56496f5c)" style="fill: none; stroke: #1f77b4; stroke-width: 1.5"/>
    <path d="M 119.348307 147.380353 
L 119.348307 123.128523 
" clip-path="url(#p5a56496f5c)" style="fill: none; stroke: #1f77b4; stroke-width: 1.5"/>
    <path d="M 122.714943 161.146472 
L 122.714943 138.458269 
" clip-path="url(#p5a56496f5c)" style="fill: none; stroke: #1f77b4; stroke-width: 1.5"/>
    <path d="M 126.08158 155.668644 
L 126.08158 131.45595 
" clip-path="url(#p5a56496f5c)" style="fill: none; stroke: #1f77b4; stroke-width: 1.5"/>
    <path d="M 129.448216 152.56615 
L 129.448216 127.103093 
" clip-path="url(#p5a56496f5c)" style="fill: none; stroke: #1f77b4; stroke-width: 1.5"/>
    <path d="M 132.814852 169.353274 
L 132.814852 146.40349 
" clip-path="url(#p5a56496f5c)" style="fill: none; stroke: #1f77b4; stroke-width: 1.5"/>
    <path d="M 136.181489 165.828286 
L 136.181489 141.534411 
" clip-path="url(#p5a56496f5c)" style="fill: none; stroke: #1f77b4; stroke-width: 1.5"/>
    <path d="M 139.548125 164.946764 
L 139.548125 139.74683 
" clip-path="url(#p5a56496f5c)" style="fill: none; stroke: #1f77b4; stroke-width: 1.5"/>
    <path d="M 142.914761 165.00518 
L 142.914761 139.168357 
" clip-path="url(#p5a56496f5c)" style="fill: none; stroke: #1f77b4; stroke-width: 1.5"/>
    <path d="M 146.281398 174.253796 
L 146.281398 149.73805 
" clip-path="url(#p5a56496f5c)" style="fill: none; stroke: #1f77b4; stroke-width: 1.5"/>
    <path d="M 149.648034 187.167608 
L 149.648034 165.373425 
" clip-path="url(#p5a56496f5c)" style="fill: none; stroke: #1f77b4; stroke-width: 1.5"/>
    <path d="M 153.01467 176.541596 
L 153.01467 151.233325 
" clip-path="url(#p5a56496f5c)" style="fill: none; stroke: #1f77b4; stroke-width: 1.5"/>
    <path d="M 156.381307 178.227404 
L 156.381307 152.684526 
" clip-path="url(#p5a56496f5c)" style="fill: none; stroke: #1f77b4; stroke-width: 1.5"/>
    <path d="M 159.747943 184.710048 
L 159.747943 160.211629 
" clip-path="url(#p5a56496f5c)" style="fill: none; stroke: #1f77b4; stroke-width: 1.5"/>
    <path d="M 163.11458 182.418226 
L 163.11458 156.566698 
" clip-path="url(#p5a56496f5c)" style="fill: none; stroke: #1f77b4; stroke-width: 1.5"/>
    <path d="M 166.481216 199.683141 
L 166.481216 179.087189 
" clip-path="url(#p5a56496f5c)" style="fill: none; stroke: #1f77b4; stroke-width: 1.5"/>
    <path d="M 169.847852 188.568735 
L 169.847852 163.116495 
" clip-path="url(#p5a56496f5c)" style="fill: none; stroke: #1f77b4; stroke-width: 1.5"/>
    <path d="M 173.214489 196.585967 
L 173.214489 173.462569 
" clip-path="url(#p5a56496f5c)" style="fill: none; stroke: #1f77b4; stroke-width: 1.5"/>
    <path d="M 176.581125 191.608705 
L 176.581125 165.833398 
" clip-path="url(#p5a56496f5c)" style="fill: none; stroke: #1f77b4; stroke-width: 1.5"/>
    <path d="M 179.947761 198.698474 
L 179.947761 175.014797 
" clip-path="url(#p5a56496f5c)" style="fill: none; stroke: #1f77b4; stroke-width: 1.5"/>
    <path d="M 183.314398 194.26673 
L 183.314398 167.837877 
" clip-path="url(#p5a56496f5c)" style="fill: none; stroke: #1f77b4; stroke-width: 1.5"/>
    <path d="M 186.681034 201.54439 
L 186.681034 177.764571 
" clip-path="url(#p5a56496f5c)" style="fill: none; stroke: #1f77b4; stroke-width: 1.5"/>
    <path d="M 190.04767 196.568571 
L 190.04767 169.713081 
" clip-path="url(#p5a56496f5c)" style="fill: none; stroke: #1f77b4; stroke-width: 1.5"/>
    <path d="M 193.414307 203.835844 
L 193.414307 179.754938 
" clip-path="url(#p5a56496f5c)" style="fill: none; stroke: #1f77b4; stroke-width: 1.5"/>
    <path d="M 196.780943 204.88384 
L 196.780943 180.609898 
" clip-path="url(#p5a56496f5c)" style="fill: none; stroke: #1f77b4; stroke-width: 1.5"/>
    <path d="M 200.14758 201.824233 
L 200.14758 174.989078 
" clip-path="url(#p5a56496f5c)" style="fill: none; stroke: #1f77b4; stroke-width: 1.5"/>
    <path d="M 203.514216 209.410552 
L 203.514216 186.453926 
" clip-path="url(#p5a56496f5c)" style="fill: none; stroke: #1f77b4; stroke-width: 1.5"/>
    <path d="M 206.880852 207.413488 
L 206.880852 182.293784 
" clip-path="url(#p5a56496f5c)" style="fill: none; stroke: #1f77b4; stroke-width: 1.5"/>
    <path d="M 210.247489 208.372291 
L 210.247489 183.037363 
" clip-path="url(#p5a56496f5c)" style="fill: none; stroke: #1f77b4; stroke-width: 1.5"/>
    <path d="M 213.614125 211.314118 
L 213.614125 187.509553 
" clip-path="url(#p5a56496f5c)" style="fill: none; stroke: #1f77b4; stroke-width: 1.5"/>
    <path d="M 216.980761 211.114094 
L 216.980761 186.256643 
" clip-path="url(#p5a56496f5c)" style="fill: none; stroke: #1f77b4; stroke-width: 1.5"/>
    <path d="M 220.347398 214.617666 
L 220.347398 192.186656 
" clip-path="url(#p5a56496f5c)" style="fill: none; stroke: #1f77b4; stroke-width: 1.5"/>
    <path d="M 223.714034 215.232258 
L 223.714034 192.700675 
" clip-path="url(#p5a56496f5c)" style="fill: none; stroke: #1f77b4; stroke-width: 1.5"/>
    <path d="M 227.08067 214.763603 
L 227.08067 190.742201 
" clip-path="url(#p5a56496f5c)" style="fill: none; stroke: #1f77b4; stroke-width: 1.5"/>
    <path d="M 230.447307 216.900502 
L 230.447307 194.610742 
" clip-path="url(#p5a56496f5c)" style="fill: none; stroke: #1f77b4; stroke-width: 1.5"/>
    <path d="M 233.813943 216.891895 
L 233.813943 193.628599 
" clip-path="url(#p5a56496f5c)" style="fill: none; stroke: #1f77b4; stroke-width: 1.5"/>
    <path d="M 237.18058 217.59855 
L 237.18058 194.297954 
" clip-path="url(#p5a56496f5c)" style="fill: none; stroke: #1f77b4; stroke-width: 1.5"/>
    <path d="M 240.547216 217.654778 
L 240.547216 193.453349 
" clip-path="url(#p5a56496f5c)" style="fill: none; stroke: #1f77b4; stroke-width: 1.5"/>
    <path d="M 243.913852 220.404962 
L 243.913852 200.495225 
" clip-path="url(#p5a56496f5c)" style="fill: none; stroke: #1f77b4; stroke-width: 1.5"/>
    <path d="M 247.280489 219.162867 
L 247.280489 195.384901 
" clip-path="url(#p5a56496f5c)" style="fill: none; stroke: #1f77b4; stroke-width: 1.5"/>
    <path d="M 250.647125 220.130016 
L 250.647125 197.180279 
" clip-path="url(#p5a56496f5c)" style="fill: none; stroke: #1f77b4; stroke-width: 1.5"/>
    <path d="M 254.013761 218.810713 
L 254.013761 191.794938 
" clip-path="url(#p5a56496f5c)" style="fill: none; stroke: #1f77b4; stroke-width: 1.5"/>
    <path d="M 257.380398 220.045909 
L 257.380398 194.238032 
" clip-path="url(#p5a56496f5c)" style="fill: none; stroke: #1f77b4; stroke-width: 1.5"/>
    <path d="M 260.747034 220.881485 
L 260.747034 195.706939 
" clip-path="url(#p5a56496f5c)" style="fill: none; stroke: #1f77b4; stroke-width: 1.5"/>
    <path d="M 264.11367 221.561065 
L 264.11367 196.906843 
" clip-path="url(#p5a56496f5c)" style="fill: none; stroke: #1f77b4; stroke-width: 1.5"/>
    <path d="M 267.480307 221.954556 
L 267.480307 196.910621 
" clip-path="url(#p5a56496f5c)" style="fill: none; stroke: #1f77b4; stroke-width: 1.5"/>
    <path d="M 270.846943 222.153051 
L 270.846943 195.868276 
" clip-path="url(#p5a56496f5c)" style="fill: none; stroke: #1f77b4; stroke-width: 1.5"/>
    <path d="M 274.21358 222.607039 
L 274.21358 196.249321 
" clip-path="url(#p5a56496f5c)" style="fill: none; stroke: #1f77b4; stroke-width: 1.5"/>
    <path d="M 277.580216 223.50856 
L 277.580216 199.402476 
" clip-path="url(#p5a56496f5c)" style="fill: none; stroke: #1f77b4; stroke-width: 1.5"/>
    <path d="M 280.946852 224.13935 
L 280.946852 202.366611 
" clip-path="url(#p5a56496f5c)" style="fill: none; stroke: #1f77b4; stroke-width: 1.5"/>
    <path d="M 284.313489 224.033336 
L 284.313489 198.056923 
" clip-path="url(#p5a56496f5c)" style="fill: none; stroke: #1f77b4; stroke-width: 1.5"/>
    <path d="M 287.680125 224.584388 
L 287.680125 200.039775 
" clip-path="url(#p5a56496f5c)" style="fill: none; stroke: #1f77b4; stroke-width: 1.5"/>
    <path d="M 291.046761 224.894326 
L 291.046761 200.140319 
" clip-path="url(#p5a56496f5c)" style="fill: none; stroke: #1f77b4; stroke-width: 1.5"/>
    <path d="M 294.413398 225.247178 
L 294.413398 201.998352 
" clip-path="url(#p5a56496f5c)" style="fill: none; stroke: #1f77b4; stroke-width: 1.5"/>
    <path d="M 297.780034 225.54572 
L 297.780034 202.221236 
" clip-path="url(#p5a56496f5c)" style="fill: none; stroke: #1f77b4; stroke-width: 1.5"/>
    <path d="M 301.14667 225.877 
L 301.14667 200.854331 
" clip-path="url(#p5a56496f5c)" style="fill: none; stroke: #1f77b4; stroke-width: 1.5"/>
    <path d="M 304.513307 226.109913 
L 304.513307 201.590013 
" clip-path="url(#p5a56496f5c)" style="fill: none; stroke: #1f77b4; stroke-width: 1.5"/>
    <path d="M 307.879943 226.161189 
L 307.879943 204.068965 
" clip-path="url(#p5a56496f5c)" style="fill: none; stroke: #1f77b4; stroke-width: 1.5"/>
    <path d="M 311.24658 226.533036 
L 311.24658 203.125634 
" clip-path="url(#p5a56496f5c)" style="fill: none; stroke: #1f77b4; stroke-width: 1.5"/>
    <path d="M 314.613216 227.037662 
L 314.613216 201.339413 
" clip-path="url(#p5a56496f5c)" style="fill: none; stroke: #1f77b4; stroke-width: 1.5"/>
    <path d="M 317.979852 226.888911 
L 317.979852 204.020244 
" clip-path="url(#p5a56496f5c)" style="fill: none; stroke: #1f77b4; stroke-width: 1.5"/>
    <path d="M 321.346489 227.735908 
L 321.346489 200.081513 
" clip-path="url(#p5a56496f5c)" style="fill: none; stroke: #1f77b4; stroke-width: 1.5"/>
    <path d="M 324.713125 227.819148 
L 324.713125 201.591475 
" clip-path="url(#p5a56496f5c)" style="fill: none; stroke: #1f77b4; stroke-width: 1.5"/>
    <path d="M 328.079761 227.569577 
L 328.079761 204.067755 
" clip-path="url(#p5a56496f5c)" style="fill: none; stroke: #1f77b4; stroke-width: 1.5"/>
    <path d="M 331.446398 227.232239 
L 331.446398 205.939571 
" clip-path="url(#p5a56496f5c)" style="fill: none; stroke: #1f77b4; stroke-width: 1.5"/>
    <path d="M 334.813034 227.885905 
L 334.813034 204.401762 
" clip-path="url(#p5a56496f5c)" style="fill: none; stroke: #1f77b4; stroke-width: 1.5"/>
    <path d="M 338.17967 227.369221 
L 338.17967 206.570251 
" clip-path="url(#p5a56496f5c)" style="fill: none; stroke: #1f77b4; stroke-width: 1.5"/>
    <path d="M 341.546307 228.317334 
L 341.546307 204.35883 
" clip-path="url(#p5a56496f5c)" style="fill: none; stroke: #1f77b4; stroke-width: 1.5"/>
    <path d="M 344.912943 228.49779 
L 344.912943 204.402219 
" clip-path="url(#p5a56496f5c)" style="fill: none; stroke: #1f77b4; stroke-width: 1.5"/>
    <path d="M 348.27958 228.040576 
L 348.27958 206.097926 
" clip-path="url(#p5a56496f5c)" style="fill: none; stroke: #1f77b4; stroke-width: 1.5"/>
    <path d="M 351.646216 229.544443 
L 351.646216 202.593734 
" clip-path="url(#p5a56496f5c)" style="fill: none; stroke: #1f77b4; stroke-width: 1.5"/>
    <path d="M 355.012852 229.378326 
L 355.012852 203.596601 
" clip-path="url(#p5a56496f5c)" style="fill: none; stroke: #1f77b4; stroke-width: 1.5"/>
    <path d="M 358.379489 227.756889 
L 358.379489 207.637974 
" clip-path="url(#p5a56496f5c)" style="fill: none; stroke: #1f77b4; stroke-width: 1.5"/>
    <path d="M 361.746125 230.083342 
L 361.746125 202.889562 
" clip-path="url(#p5a56496f5c)" style="fill: none; stroke: #1f77b4; stroke-width: 1.5"/>
    <path d="M 365.112761 228.757245 
L 365.112761 206.180974 
" clip-path="url(#p5a56496f5c)" style="fill: none; stroke: #1f77b4; stroke-width: 1.5"/>
    <path d="M 368.479398 229.915232 
L 368.479398 204.088286 
" clip-path="url(#p5a56496f5c)" style="fill: none; stroke: #1f77b4; stroke-width: 1.5"/>
    <path d="M 371.846034 229.125864 
L 371.846034 205.969594 
" clip-path="url(#p5a56496f5c)" style="fill: none; stroke: #1f77b4; stroke-width: 1.5"/>
    <path d="M 375.21267 230.041167 
L 375.21267 204.510273 
" clip-path="url(#p5a56496f5c)" style="fill: none; stroke: #1f77b4; stroke-width: 1.5"/>
    <path d="M 378.579307 230.601178 
L 378.579307 203.738489 
" clip-path="url(#p5a56496f5c)" style="fill: none; stroke: #1f77b4; stroke-width: 1.5"/>
    <path d="M 381.945943 231.065982 
L 381.945943 203.155352 
" clip-path="url(#p5a56496f5c)" style="fill: none; stroke: #1f77b4; stroke-width: 1.5"/>
    <path d="M 385.31258 231.747273 
L 385.31258 202.153348 
" clip-path="url(#p5a56496f5c)" style="fill: none; stroke: #1f77b4; stroke-width: 1.5"/>
    <path d="M 388.679216 230.225834 
L 388.679216 205.230951 
" clip-path="url(#p5a56496f5c)" style="fill: none; stroke: #1f77b4; stroke-width: 1.5"/>
    <path d="M 392.045852 230.434372 
L 392.045852 205.089662 
" clip-path="url(#p5a56496f5c)" style="fill: none; stroke: #1f77b4; stroke-width: 1.5"/>
    <path d="M 395.412489 229.918836 
L 395.412489 206.109315 
" clip-path="url(#p5a56496f5c)" style="fill: none; stroke: #1f77b4; stroke-width: 1.5"/>
    <path d="M 398.779125 230.804136 
L 398.779125 204.896647 
" clip-path="url(#p5a56496f5c)" style="fill: none; stroke: #1f77b4; stroke-width: 1.5"/>
   </g>
  </g>
 </g>
 <defs>
  <clipPath id="p5a56496f5c">
   <rect x="46.965625" y="7.2" width="370.33" height="235.24"/>
  </clipPath>
 </defs>
</svg>
