<?xml version="1.0" encoding="utf-8" standalone="no"?>
<!DOCTYPE svg PUBLIC "-//W3C//DTD SVG 1.1//EN"
  "http://www.w3.org/Graphics/SVG/1.1/DTD/svg11.dtd">
<svg xmlns:xlink="http://www.w3.org/1999/xlink" width="424.370625pt" height="279.952812pt" viewBox="0 0 424.370625 279.952812" xmlns="http://www.w3.org/2000/svg" version="1.1">
 <metadata>
  <rdf:RDF xmlns:dc="http://purl.org/dc/elements/1.1/" xmlns:cc="http://creativecommons.org/ns#" xmlns:rdf="http://www.w3.org/1999/02/22-rdf-syntax-ns#">
   <cc:Work>
    <dc:type rdf:resource="http://purl.org/dc/dcmitype/StillImage"/>
    <dc:date>2024-09-12T08:22:25.004054</dc:date>
    <dc:format>image/svg+xml</dc:format>
    <dc:creator>
     <cc:Agent>
      <dc:title>Matplotlib v3.9.1, https://matplotlib.org/</dc:title>
     </cc:Agent>
    </dc:creator>
   </cc:Work>
  </rdf:RDF>
 </metadata>
 <defs>
  <style type="text/css">*{stroke-linejoin: round; stroke-linecap: butt}</style>
 </defs>
 <g id="figure_1">
  <g id="patch_1">
   <path d="M 0 279.952812 
L 424.370625 279.952812 
L 424.370625 0 
L 0 0 
z
" style="fill: #ffffff"/>
  </g>
  <g id="axes_1">
   <g id="patch_2">
    <path d="M 34.240625 240.712187 
L 417.170625 240.712187 
L 417.170625 17.798437 
L 34.240625 17.798437 
z
" style="fill: #ffffff"/>
   </g>
   <g id="matplotlib.axis_1">
    <g id="xtick_1">
     <g id="line2d_1">
      <defs>
       <path id="m4c58cd0a25" d="M 0 0 
L 0 3.5 
" style="stroke: #000000; stroke-width: 0.8"/>
      </defs>
      <g>
       <use xlink:href="#m4c58cd0a25" x="86.458352" y="240.712187" style="stroke: #000000; stroke-width: 0.8"/>
      </g>
     </g>
     <g id="text_1">
      <!-- 1.6 -->
      <g transform="translate(78.50679 255.310625) scale(0.1 -0.1)">
       <defs>
        <path id="DejaVuSans-31" d="M 794 531 
L 1825 531 
L 1825 4091 
L 703 3866 
L 703 4441 
L 1819 4666 
L 2450 4666 
L 2450 531 
L 3481 531 
L 3481 0 
L 794 0 
L 794 531 
z
" transform="scale(0.015625)"/>
        <path id="DejaVuSans-2e" d="M 684 794 
L 1344 794 
L 1344 0 
L 684 0 
L 684 794 
z
" transform="scale(0.015625)"/>
        <path id="DejaVuSans-36" d="M 2113 2584 
Q 1688 2584 1439 2293 
Q 1191 2003 1191 1497 
Q 1191 994 1439 701 
Q 1688 409 2113 409 
Q 2538 409 2786 701 
Q 3034 994 3034 1497 
Q 3034 2003 2786 2293 
Q 2538 2584 2113 2584 
z
M 3366 4563 
L 3366 3988 
Q 3128 4100 2886 4159 
Q 2644 4219 2406 4219 
Q 1781 4219 1451 3797 
Q 1122 3375 1075 2522 
Q 1259 2794 1537 2939 
Q 1816 3084 2150 3084 
Q 2853 3084 3261 2657 
Q 3669 2231 3669 1497 
Q 3669 778 3244 343 
Q 2819 -91 2113 -91 
Q 1303 -91 875 529 
Q 447 1150 447 2328 
Q 447 3434 972 4092 
Q 1497 4750 2381 4750 
Q 2619 4750 2861 4703 
Q 3103 4656 3366 4563 
z
" transform="scale(0.015625)"/>
       </defs>
       <use xlink:href="#DejaVuSans-31"/>
       <use xlink:href="#DejaVuSans-2e" x="63.623047"/>
       <use xlink:href="#DejaVuSans-36" x="95.410156"/>
      </g>
     </g>
    </g>
    <g id="xtick_2">
     <g id="line2d_2">
      <g>
       <use xlink:href="#m4c58cd0a25" x="156.081989" y="240.712187" style="stroke: #000000; stroke-width: 0.8"/>
      </g>
     </g>
     <g id="text_2">
      <!-- 1.8 -->
      <g transform="translate(148.130426 255.310625) scale(0.1 -0.1)">
       <defs>
        <path id="DejaVuSans-38" d="M 2034 2216 
Q 1584 2216 1326 1975 
Q 1069 1734 1069 1313 
Q 1069 891 1326 650 
Q 1584 409 2034 409 
Q 2484 409 2743 651 
Q 3003 894 3003 1313 
Q 3003 1734 2745 1975 
Q 2488 2216 2034 2216 
z
M 1403 2484 
Q 997 2584 770 2862 
Q 544 3141 544 3541 
Q 544 4100 942 4425 
Q 1341 4750 2034 4750 
Q 2731 4750 3128 4425 
Q 3525 4100 3525 3541 
Q 3525 3141 3298 2862 
Q 3072 2584 2669 2484 
Q 3125 2378 3379 2068 
Q 3634 1759 3634 1313 
Q 3634 634 3220 271 
Q 2806 -91 2034 -91 
Q 1263 -91 848 271 
Q 434 634 434 1313 
Q 434 1759 690 2068 
Q 947 2378 1403 2484 
z
M 1172 3481 
Q 1172 3119 1398 2916 
Q 1625 2713 2034 2713 
Q 2441 2713 2670 2916 
Q 2900 3119 2900 3481 
Q 2900 3844 2670 4047 
Q 2441 4250 2034 4250 
Q 1625 4250 1398 4047 
Q 1172 3844 1172 3481 
z
" transform="scale(0.015625)"/>
       </defs>
       <use xlink:href="#DejaVuSans-31"/>
       <use xlink:href="#DejaVuSans-2e" x="63.623047"/>
       <use xlink:href="#DejaVuSans-38" x="95.410156"/>
      </g>
     </g>
    </g>
    <g id="xtick_3">
     <g id="line2d_3">
      <g>
       <use xlink:href="#m4c58cd0a25" x="225.705625" y="240.712187" style="stroke: #000000; stroke-width: 0.8"/>
      </g>
     </g>
     <g id="text_3">
      <!-- 2.0 -->
      <g transform="translate(217.754063 255.310625) scale(0.1 -0.1)">
       <defs>
        <path id="DejaVuSans-32" d="M 1228 531 
L 3431 531 
L 3431 0 
L 469 0 
L 469 531 
Q 828 903 1448 1529 
Q 2069 2156 2228 2338 
Q 2531 2678 2651 2914 
Q 2772 3150 2772 3378 
Q 2772 3750 2511 3984 
Q 2250 4219 1831 4219 
Q 1534 4219 1204 4116 
Q 875 4013 500 3803 
L 500 4441 
Q 881 4594 1212 4672 
Q 1544 4750 1819 4750 
Q 2544 4750 2975 4387 
Q 3406 4025 3406 3419 
Q 3406 3131 3298 2873 
Q 3191 2616 2906 2266 
Q 2828 2175 2409 1742 
Q 1991 1309 1228 531 
z
" transform="scale(0.015625)"/>
        <path id="DejaVuSans-30" d="M 2034 4250 
Q 1547 4250 1301 3770 
Q 1056 3291 1056 2328 
Q 1056 1369 1301 889 
Q 1547 409 2034 409 
Q 2525 409 2770 889 
Q 3016 1369 3016 2328 
Q 3016 3291 2770 3770 
Q 2525 4250 2034 4250 
z
M 2034 4750 
Q 2819 4750 3233 4129 
Q 3647 3509 3647 2328 
Q 3647 1150 3233 529 
Q 2819 -91 2034 -91 
Q 1250 -91 836 529 
Q 422 1150 422 2328 
Q 422 3509 836 4129 
Q 1250 4750 2034 4750 
z
" transform="scale(0.015625)"/>
       </defs>
       <use xlink:href="#DejaVuSans-32"/>
       <use xlink:href="#DejaVuSans-2e" x="63.623047"/>
       <use xlink:href="#DejaVuSans-30" x="95.410156"/>
      </g>
     </g>
    </g>
    <g id="xtick_4">
     <g id="line2d_4">
      <g>
       <use xlink:href="#m4c58cd0a25" x="295.329261" y="240.712187" style="stroke: #000000; stroke-width: 0.8"/>
      </g>
     </g>
     <g id="text_4">
      <!-- 2.2 -->
      <g transform="translate(287.377699 255.310625) scale(0.1 -0.1)">
       <use xlink:href="#DejaVuSans-32"/>
       <use xlink:href="#DejaVuSans-2e" x="63.623047"/>
       <use xlink:href="#DejaVuSans-32" x="95.410156"/>
      </g>
     </g>
    </g>
    <g id="xtick_5">
     <g id="line2d_5">
      <g>
       <use xlink:href="#m4c58cd0a25" x="364.952898" y="240.712187" style="stroke: #000000; stroke-width: 0.8"/>
      </g>
     </g>
     <g id="text_5">
      <!-- 2.4 -->
      <g transform="translate(357.001335 255.310625) scale(0.1 -0.1)">
       <defs>
        <path id="DejaVuSans-34" d="M 2419 4116 
L 825 1625 
L 2419 1625 
L 2419 4116 
z
M 2253 4666 
L 3047 4666 
L 3047 1625 
L 3713 1625 
L 3713 1100 
L 3047 1100 
L 3047 0 
L 2419 0 
L 2419 1100 
L 313 1100 
L 313 1709 
L 2253 4666 
z
" transform="scale(0.015625)"/>
       </defs>
       <use xlink:href="#DejaVuSans-32"/>
       <use xlink:href="#DejaVuSans-2e" x="63.623047"/>
       <use xlink:href="#DejaVuSans-34" x="95.410156"/>
      </g>
     </g>
    </g>
    <g id="text_6">
     <!-- dspacing [Å] -->
     <g transform="translate(194.29625 270.673125) scale(0.1 -0.1)">
      <defs>
       <path id="DejaVuSans-64" d="M 2906 2969 
L 2906 4863 
L 3481 4863 
L 3481 0 
L 2906 0 
L 2906 525 
Q 2725 213 2448 61 
Q 2172 -91 1784 -91 
Q 1150 -91 751 415 
Q 353 922 353 1747 
Q 353 2572 751 3078 
Q 1150 3584 1784 3584 
Q 2172 3584 2448 3432 
Q 2725 3281 2906 2969 
z
M 947 1747 
Q 947 1113 1208 752 
Q 1469 391 1925 391 
Q 2381 391 2643 752 
Q 2906 1113 2906 1747 
Q 2906 2381 2643 2742 
Q 2381 3103 1925 3103 
Q 1469 3103 1208 2742 
Q 947 2381 947 1747 
z
" transform="scale(0.015625)"/>
       <path id="DejaVuSans-73" d="M 2834 3397 
L 2834 2853 
Q 2591 2978 2328 3040 
Q 2066 3103 1784 3103 
Q 1356 3103 1142 2972 
Q 928 2841 928 2578 
Q 928 2378 1081 2264 
Q 1234 2150 1697 2047 
L 1894 2003 
Q 2506 1872 2764 1633 
Q 3022 1394 3022 966 
Q 3022 478 2636 193 
Q 2250 -91 1575 -91 
Q 1294 -91 989 -36 
Q 684 19 347 128 
L 347 722 
Q 666 556 975 473 
Q 1284 391 1588 391 
Q 1994 391 2212 530 
Q 2431 669 2431 922 
Q 2431 1156 2273 1281 
Q 2116 1406 1581 1522 
L 1381 1569 
Q 847 1681 609 1914 
Q 372 2147 372 2553 
Q 372 3047 722 3315 
Q 1072 3584 1716 3584 
Q 2034 3584 2315 3537 
Q 2597 3491 2834 3397 
z
" transform="scale(0.015625)"/>
       <path id="DejaVuSans-70" d="M 1159 525 
L 1159 -1331 
L 581 -1331 
L 581 3500 
L 1159 3500 
L 1159 2969 
Q 1341 3281 1617 3432 
Q 1894 3584 2278 3584 
Q 2916 3584 3314 3078 
Q 3713 2572 3713 1747 
Q 3713 922 3314 415 
Q 2916 -91 2278 -91 
Q 1894 -91 1617 61 
Q 1341 213 1159 525 
z
M 3116 1747 
Q 3116 2381 2855 2742 
Q 2594 3103 2138 3103 
Q 1681 3103 1420 2742 
Q 1159 2381 1159 1747 
Q 1159 1113 1420 752 
Q 1681 391 2138 391 
Q 2594 391 2855 752 
Q 3116 1113 3116 1747 
z
" transform="scale(0.015625)"/>
       <path id="DejaVuSans-61" d="M 2194 1759 
Q 1497 1759 1228 1600 
Q 959 1441 959 1056 
Q 959 750 1161 570 
Q 1363 391 1709 391 
Q 2188 391 2477 730 
Q 2766 1069 2766 1631 
L 2766 1759 
L 2194 1759 
z
M 3341 1997 
L 3341 0 
L 2766 0 
L 2766 531 
Q 2569 213 2275 61 
Q 1981 -91 1556 -91 
Q 1019 -91 701 211 
Q 384 513 384 1019 
Q 384 1609 779 1909 
Q 1175 2209 1959 2209 
L 2766 2209 
L 2766 2266 
Q 2766 2663 2505 2880 
Q 2244 3097 1772 3097 
Q 1472 3097 1187 3025 
Q 903 2953 641 2809 
L 641 3341 
Q 956 3463 1253 3523 
Q 1550 3584 1831 3584 
Q 2591 3584 2966 3190 
Q 3341 2797 3341 1997 
z
" transform="scale(0.015625)"/>
       <path id="DejaVuSans-63" d="M 3122 3366 
L 3122 2828 
Q 2878 2963 2633 3030 
Q 2388 3097 2138 3097 
Q 1578 3097 1268 2742 
Q 959 2388 959 1747 
Q 959 1106 1268 751 
Q 1578 397 2138 397 
Q 2388 397 2633 464 
Q 2878 531 3122 666 
L 3122 134 
Q 2881 22 2623 -34 
Q 2366 -91 2075 -91 
Q 1284 -91 818 406 
Q 353 903 353 1747 
Q 353 2603 823 3093 
Q 1294 3584 2113 3584 
Q 2378 3584 2631 3529 
Q 2884 3475 3122 3366 
z
" transform="scale(0.015625)"/>
       <path id="DejaVuSans-69" d="M 603 3500 
L 1178 3500 
L 1178 0 
L 603 0 
L 603 3500 
z
M 603 4863 
L 1178 4863 
L 1178 4134 
L 603 4134 
L 603 4863 
z
" transform="scale(0.015625)"/>
       <path id="DejaVuSans-6e" d="M 3513 2113 
L 3513 0 
L 2938 0 
L 2938 2094 
Q 2938 2591 2744 2837 
Q 2550 3084 2163 3084 
Q 1697 3084 1428 2787 
Q 1159 2491 1159 1978 
L 1159 0 
L 581 0 
L 581 3500 
L 1159 3500 
L 1159 2956 
Q 1366 3272 1645 3428 
Q 1925 3584 2291 3584 
Q 2894 3584 3203 3211 
Q 3513 2838 3513 2113 
z
" transform="scale(0.015625)"/>
       <path id="DejaVuSans-67" d="M 2906 1791 
Q 2906 2416 2648 2759 
Q 2391 3103 1925 3103 
Q 1463 3103 1205 2759 
Q 947 2416 947 1791 
Q 947 1169 1205 825 
Q 1463 481 1925 481 
Q 2391 481 2648 825 
Q 2906 1169 2906 1791 
z
M 3481 434 
Q 3481 -459 3084 -895 
Q 2688 -1331 1869 -1331 
Q 1566 -1331 1297 -1286 
Q 1028 -1241 775 -1147 
L 775 -588 
Q 1028 -725 1275 -790 
Q 1522 -856 1778 -856 
Q 2344 -856 2625 -561 
Q 2906 -266 2906 331 
L 2906 616 
Q 2728 306 2450 153 
Q 2172 0 1784 0 
Q 1141 0 747 490 
Q 353 981 353 1791 
Q 353 2603 747 3093 
Q 1141 3584 1784 3584 
Q 2172 3584 2450 3431 
Q 2728 3278 2906 2969 
L 2906 3500 
L 3481 3500 
L 3481 434 
z
" transform="scale(0.015625)"/>
       <path id="DejaVuSans-20" transform="scale(0.015625)"/>
       <path id="DejaVuSans-5b" d="M 550 4863 
L 1875 4863 
L 1875 4416 
L 1125 4416 
L 1125 -397 
L 1875 -397 
L 1875 -844 
L 550 -844 
L 550 4863 
z
" transform="scale(0.015625)"/>
       <path id="DejaVuSans-c5" d="M 2663 5081 
Q 2663 5278 2523 5417 
Q 2384 5556 2188 5556 
Q 1988 5556 1852 5420 
Q 1716 5284 1716 5081 
Q 1716 4884 1853 4746 
Q 1991 4609 2188 4609 
Q 2384 4609 2523 4746 
Q 2663 4884 2663 5081 
z
M 2188 4044 
L 1338 1722 
L 3041 1722 
L 2188 4044 
z
M 1716 4366 
Q 1525 4494 1428 4673 
Q 1331 4853 1331 5081 
Q 1331 5441 1579 5691 
Q 1828 5941 2188 5941 
Q 2544 5941 2795 5689 
Q 3047 5438 3047 5081 
Q 3047 4863 2948 4678 
Q 2850 4494 2663 4366 
L 4325 0 
L 3669 0 
L 3244 1197 
L 1141 1197 
L 716 0 
L 50 0 
L 1716 4366 
z
" transform="scale(0.015625)"/>
       <path id="DejaVuSans-5d" d="M 1947 4863 
L 1947 -844 
L 622 -844 
L 622 -397 
L 1369 -397 
L 1369 4416 
L 622 4416 
L 622 4863 
L 1947 4863 
z
" transform="scale(0.015625)"/>
      </defs>
      <use xlink:href="#DejaVuSans-64"/>
      <use xlink:href="#DejaVuSans-73" x="63.476562"/>
      <use xlink:href="#DejaVuSans-70" x="115.576172"/>
      <use xlink:href="#DejaVuSans-61" x="179.052734"/>
      <use xlink:href="#DejaVuSans-63" x="240.332031"/>
      <use xlink:href="#DejaVuSans-69" x="295.3125"/>
      <use xlink:href="#DejaVuSans-6e" x="323.095703"/>
      <use xlink:href="#DejaVuSans-67" x="386.474609"/>
      <use xlink:href="#DejaVuSans-20" x="449.951172"/>
      <use xlink:href="#DejaVuSans-5b" x="481.738281"/>
      <use xlink:href="#DejaVuSans-c5" x="520.751953"/>
      <use xlink:href="#DejaVuSans-5d" x="589.160156"/>
     </g>
    </g>
   </g>
   <g id="matplotlib.axis_2">
    <g id="ytick_1">
     <g id="line2d_6">
      <defs>
       <path id="me19cc1a546" d="M 0 0 
L -3.5 0 
" style="stroke: #000000; stroke-width: 0.8"/>
      </defs>
      <g>
       <use xlink:href="#me19cc1a546" x="34.240625" y="230.579744" style="stroke: #000000; stroke-width: 0.8"/>
      </g>
     </g>
     <g id="text_7">
      <!-- 0 -->
      <g transform="translate(20.878125 234.378963) scale(0.1 -0.1)">
       <use xlink:href="#DejaVuSans-30"/>
      </g>
     </g>
    </g>
    <g id="ytick_2">
     <g id="line2d_7">
      <g>
       <use xlink:href="#me19cc1a546" x="34.240625" y="199.712501" style="stroke: #000000; stroke-width: 0.8"/>
      </g>
     </g>
     <g id="text_8">
      <!-- 1 -->
      <g transform="translate(20.878125 203.51172) scale(0.1 -0.1)">
       <use xlink:href="#DejaVuSans-31"/>
      </g>
     </g>
    </g>
    <g id="ytick_3">
     <g id="line2d_8">
      <g>
       <use xlink:href="#me19cc1a546" x="34.240625" y="168.845259" style="stroke: #000000; stroke-width: 0.8"/>
      </g>
     </g>
     <g id="text_9">
      <!-- 2 -->
      <g transform="translate(20.878125 172.644477) scale(0.1 -0.1)">
       <use xlink:href="#DejaVuSans-32"/>
      </g>
     </g>
    </g>
    <g id="ytick_4">
     <g id="line2d_9">
      <g>
       <use xlink:href="#me19cc1a546" x="34.240625" y="137.978016" style="stroke: #000000; stroke-width: 0.8"/>
      </g>
     </g>
     <g id="text_10">
      <!-- 3 -->
      <g transform="translate(20.878125 141.777234) scale(0.1 -0.1)">
       <defs>
        <path id="DejaVuSans-33" d="M 2597 2516 
Q 3050 2419 3304 2112 
Q 3559 1806 3559 1356 
Q 3559 666 3084 287 
Q 2609 -91 1734 -91 
Q 1441 -91 1130 -33 
Q 819 25 488 141 
L 488 750 
Q 750 597 1062 519 
Q 1375 441 1716 441 
Q 2309 441 2620 675 
Q 2931 909 2931 1356 
Q 2931 1769 2642 2001 
Q 2353 2234 1838 2234 
L 1294 2234 
L 1294 2753 
L 1863 2753 
Q 2328 2753 2575 2939 
Q 2822 3125 2822 3475 
Q 2822 3834 2567 4026 
Q 2313 4219 1838 4219 
Q 1578 4219 1281 4162 
Q 984 4106 628 3988 
L 628 4550 
Q 988 4650 1302 4700 
Q 1616 4750 1894 4750 
Q 2613 4750 3031 4423 
Q 3450 4097 3450 3541 
Q 3450 3153 3228 2886 
Q 3006 2619 2597 2516 
z
" transform="scale(0.015625)"/>
       </defs>
       <use xlink:href="#DejaVuSans-33"/>
      </g>
     </g>
    </g>
    <g id="ytick_5">
     <g id="line2d_10">
      <g>
       <use xlink:href="#me19cc1a546" x="34.240625" y="107.110773" style="stroke: #000000; stroke-width: 0.8"/>
      </g>
     </g>
     <g id="text_11">
      <!-- 4 -->
      <g transform="translate(20.878125 110.909991) scale(0.1 -0.1)">
       <use xlink:href="#DejaVuSans-34"/>
      </g>
     </g>
    </g>
    <g id="ytick_6">
     <g id="line2d_11">
      <g>
       <use xlink:href="#me19cc1a546" x="34.240625" y="76.24353" style="stroke: #000000; stroke-width: 0.8"/>
      </g>
     </g>
     <g id="text_12">
      <!-- 5 -->
      <g transform="translate(20.878125 80.042749) scale(0.1 -0.1)">
       <defs>
        <path id="DejaVuSans-35" d="M 691 4666 
L 3169 4666 
L 3169 4134 
L 1269 4134 
L 1269 2991 
Q 1406 3038 1543 3061 
Q 1681 3084 1819 3084 
Q 2600 3084 3056 2656 
Q 3513 2228 3513 1497 
Q 3513 744 3044 326 
Q 2575 -91 1722 -91 
Q 1428 -91 1123 -41 
Q 819 9 494 109 
L 494 744 
Q 775 591 1075 516 
Q 1375 441 1709 441 
Q 2250 441 2565 725 
Q 2881 1009 2881 1497 
Q 2881 1984 2565 2268 
Q 2250 2553 1709 2553 
Q 1456 2553 1204 2497 
Q 953 2441 691 2322 
L 691 4666 
z
" transform="scale(0.015625)"/>
       </defs>
       <use xlink:href="#DejaVuSans-35"/>
      </g>
     </g>
    </g>
    <g id="ytick_7">
     <g id="line2d_12">
      <g>
       <use xlink:href="#me19cc1a546" x="34.240625" y="45.376287" style="stroke: #000000; stroke-width: 0.8"/>
      </g>
     </g>
     <g id="text_13">
      <!-- 6 -->
      <g transform="translate(20.878125 49.175506) scale(0.1 -0.1)">
       <use xlink:href="#DejaVuSans-36"/>
      </g>
     </g>
    </g>
    <g id="text_14">
     <!-- [counts/pC] -->
     <g transform="translate(14.798438 158.217812) rotate(-90) scale(0.1 -0.1)">
      <defs>
       <path id="DejaVuSans-6f" d="M 1959 3097 
Q 1497 3097 1228 2736 
Q 959 2375 959 1747 
Q 959 1119 1226 758 
Q 1494 397 1959 397 
Q 2419 397 2687 759 
Q 2956 1122 2956 1747 
Q 2956 2369 2687 2733 
Q 2419 3097 1959 3097 
z
M 1959 3584 
Q 2709 3584 3137 3096 
Q 3566 2609 3566 1747 
Q 3566 888 3137 398 
Q 2709 -91 1959 -91 
Q 1206 -91 779 398 
Q 353 888 353 1747 
Q 353 2609 779 3096 
Q 1206 3584 1959 3584 
z
" transform="scale(0.015625)"/>
       <path id="DejaVuSans-75" d="M 544 1381 
L 544 3500 
L 1119 3500 
L 1119 1403 
Q 1119 906 1312 657 
Q 1506 409 1894 409 
Q 2359 409 2629 706 
Q 2900 1003 2900 1516 
L 2900 3500 
L 3475 3500 
L 3475 0 
L 2900 0 
L 2900 538 
Q 2691 219 2414 64 
Q 2138 -91 1772 -91 
Q 1169 -91 856 284 
Q 544 659 544 1381 
z
M 1991 3584 
L 1991 3584 
z
" transform="scale(0.015625)"/>
       <path id="DejaVuSans-74" d="M 1172 4494 
L 1172 3500 
L 2356 3500 
L 2356 3053 
L 1172 3053 
L 1172 1153 
Q 1172 725 1289 603 
Q 1406 481 1766 481 
L 2356 481 
L 2356 0 
L 1766 0 
Q 1100 0 847 248 
Q 594 497 594 1153 
L 594 3053 
L 172 3053 
L 172 3500 
L 594 3500 
L 594 4494 
L 1172 4494 
z
" transform="scale(0.015625)"/>
       <path id="DejaVuSans-2f" d="M 1625 4666 
L 2156 4666 
L 531 -594 
L 0 -594 
L 1625 4666 
z
" transform="scale(0.015625)"/>
       <path id="DejaVuSans-43" d="M 4122 4306 
L 4122 3641 
Q 3803 3938 3442 4084 
Q 3081 4231 2675 4231 
Q 1875 4231 1450 3742 
Q 1025 3253 1025 2328 
Q 1025 1406 1450 917 
Q 1875 428 2675 428 
Q 3081 428 3442 575 
Q 3803 722 4122 1019 
L 4122 359 
Q 3791 134 3420 21 
Q 3050 -91 2638 -91 
Q 1578 -91 968 557 
Q 359 1206 359 2328 
Q 359 3453 968 4101 
Q 1578 4750 2638 4750 
Q 3056 4750 3426 4639 
Q 3797 4528 4122 4306 
z
" transform="scale(0.015625)"/>
      </defs>
      <use xlink:href="#DejaVuSans-5b"/>
      <use xlink:href="#DejaVuSans-63" x="39.013672"/>
      <use xlink:href="#DejaVuSans-6f" x="93.994141"/>
      <use xlink:href="#DejaVuSans-75" x="155.175781"/>
      <use xlink:href="#DejaVuSans-6e" x="218.554688"/>
      <use xlink:href="#DejaVuSans-74" x="281.933594"/>
      <use xlink:href="#DejaVuSans-73" x="321.142578"/>
      <use xlink:href="#DejaVuSans-2f" x="373.242188"/>
      <use xlink:href="#DejaVuSans-70" x="406.933594"/>
      <use xlink:href="#DejaVuSans-43" x="470.410156"/>
      <use xlink:href="#DejaVuSans-5d" x="540.234375"/>
     </g>
    </g>
    <g id="text_15">
     <!-- 1e−8 -->
     <g transform="translate(34.240625 14.798437) scale(0.1 -0.1)">
      <defs>
       <path id="DejaVuSans-65" d="M 3597 1894 
L 3597 1613 
L 953 1613 
Q 991 1019 1311 708 
Q 1631 397 2203 397 
Q 2534 397 2845 478 
Q 3156 559 3463 722 
L 3463 178 
Q 3153 47 2828 -22 
Q 2503 -91 2169 -91 
Q 1331 -91 842 396 
Q 353 884 353 1716 
Q 353 2575 817 3079 
Q 1281 3584 2069 3584 
Q 2775 3584 3186 3129 
Q 3597 2675 3597 1894 
z
M 3022 2063 
Q 3016 2534 2758 2815 
Q 2500 3097 2075 3097 
Q 1594 3097 1305 2825 
Q 1016 2553 972 2059 
L 3022 2063 
z
" transform="scale(0.015625)"/>
       <path id="DejaVuSans-2212" d="M 678 2272 
L 4684 2272 
L 4684 1741 
L 678 1741 
L 678 2272 
z
" transform="scale(0.015625)"/>
      </defs>
      <use xlink:href="#DejaVuSans-31"/>
      <use xlink:href="#DejaVuSans-65" x="63.623047"/>
      <use xlink:href="#DejaVuSans-2212" x="125.146484"/>
      <use xlink:href="#DejaVuSans-38" x="208.935547"/>
     </g>
    </g>
   </g>
   <g id="patch_3">
    <path d="M 34.240625 240.712187 
L 34.240625 17.798437 
" style="fill: none; stroke: #000000; stroke-width: 0.8; stroke-linejoin: miter; stroke-linecap: square"/>
   </g>
   <g id="patch_4">
    <path d="M 417.170625 240.712187 
L 417.170625 17.798437 
" style="fill: none; stroke: #000000; stroke-width: 0.8; stroke-linejoin: miter; stroke-linecap: square"/>
   </g>
   <g id="patch_5">
    <path d="M 34.240625 240.712187 
L 417.170625 240.712187 
" style="fill: none; stroke: #000000; stroke-width: 0.8; stroke-linejoin: miter; stroke-linecap: square"/>
   </g>
   <g id="patch_6">
    <path d="M 34.240625 17.798437 
L 417.170625 17.798437 
" style="fill: none; stroke: #000000; stroke-width: 0.8; stroke-linejoin: miter; stroke-linecap: square"/>
   </g>
   <g id="line2d_13">
    <path d="M 51.646534 225.359756 
L 52.51683 225.359756 
L 52.51683 227.193806 
L 53.387125 227.193806 
L 53.387125 226.911644 
L 54.25742 226.911644 
L 54.25742 224.654352 
L 55.127716 224.654352 
L 55.127716 225.359756 
L 55.998011 225.359756 
L 55.998011 225.500837 
L 57.738602 225.500837 
L 57.738602 226.911644 
L 58.608898 226.911644 
L 58.608898 228.040291 
L 59.479193 228.040291 
L 59.479193 227.193806 
L 60.349489 227.193806 
L 60.349489 226.911644 
L 61.219784 226.911644 
L 61.219784 227.193806 
L 62.960375 227.193806 
L 62.960375 226.488402 
L 63.83067 226.488402 
L 63.83067 227.758129 
L 64.700966 227.758129 
L 64.700966 227.334887 
L 65.571261 227.334887 
L 65.571261 226.06516 
L 66.441557 226.06516 
L 66.441557 226.347321 
L 68.182148 226.347321 
L 68.182148 227.475967 
L 69.052443 227.475967 
L 69.052443 226.770564 
L 69.922739 226.770564 
L 69.922739 227.193806 
L 70.793034 227.193806 
L 70.793034 227.052725 
L 71.66333 227.052725 
L 71.66333 226.206241 
L 72.533625 226.206241 
L 72.533625 228.040291 
L 73.40392 228.040291 
L 73.40392 227.334887 
L 74.274216 227.334887 
L 74.274216 227.617048 
L 75.144511 227.617048 
L 75.144511 227.758129 
L 76.014807 227.758129 
L 76.014807 227.334887 
L 76.885102 227.334887 
L 76.885102 225.359756 
L 77.755398 225.359756 
L 77.755398 226.911644 
L 78.625693 226.911644 
L 78.625693 226.347321 
L 79.495989 226.347321 
L 79.495989 227.758129 
L 80.366284 227.758129 
L 80.366284 228.040291 
L 81.23658 228.040291 
L 81.23658 228.322452 
L 82.106875 228.322452 
L 82.106875 226.911644 
L 82.97717 226.911644 
L 82.97717 228.040291 
L 83.847466 228.040291 
L 83.847466 226.206241 
L 84.717761 226.206241 
L 84.717761 226.488402 
L 85.588057 226.488402 
L 85.588057 228.322452 
L 86.458352 228.322452 
L 86.458352 228.604614 
L 87.328648 228.604614 
L 87.328648 227.052725 
L 88.198943 227.052725 
L 88.198943 227.193806 
L 89.069239 227.193806 
L 89.069239 228.463533 
L 89.939534 228.463533 
L 89.939534 227.475967 
L 90.80983 227.475967 
L 90.80983 227.617048 
L 91.680125 227.617048 
L 91.680125 227.052725 
L 92.55042 227.052725 
L 92.55042 227.758129 
L 93.420716 227.758129 
L 93.420716 228.604614 
L 94.291011 228.604614 
L 94.291011 228.040291 
L 95.161307 228.040291 
L 95.161307 228.181371 
L 96.031602 228.181371 
L 96.031602 227.89921 
L 96.901898 227.89921 
L 96.901898 228.463533 
L 97.772193 228.463533 
L 97.772193 227.89921 
L 99.512784 227.89921 
L 99.512784 227.052725 
L 100.38308 227.052725 
L 100.38308 228.463533 
L 102.12367 228.463533 
L 102.12367 227.334887 
L 102.993966 227.334887 
L 102.993966 226.629483 
L 103.864261 226.629483 
L 103.864261 227.617048 
L 104.734557 227.617048 
L 104.734557 228.181371 
L 105.604852 228.181371 
L 105.604852 227.334887 
L 106.475148 227.334887 
L 106.475148 228.604614 
L 107.345443 228.604614 
L 107.345443 228.745694 
L 108.215739 228.745694 
L 108.215739 228.604614 
L 109.086034 228.604614 
L 109.086034 228.322452 
L 110.826625 228.322452 
L 110.826625 228.745694 
L 111.69692 228.745694 
L 111.69692 227.89921 
L 112.567216 227.89921 
L 112.567216 228.040291 
L 113.437511 228.040291 
L 113.437511 227.617048 
L 114.307807 227.617048 
L 114.307807 227.475967 
L 115.178102 227.475967 
L 115.178102 228.886775 
L 116.048398 228.886775 
L 116.048398 228.604614 
L 116.918693 228.604614 
L 116.918693 227.334887 
L 117.788989 227.334887 
L 117.788989 228.040291 
L 118.659284 228.040291 
L 118.659284 229.027856 
L 119.52958 229.027856 
L 119.52958 227.89921 
L 120.399875 227.89921 
L 120.399875 226.770564 
L 121.27017 226.770564 
L 121.27017 228.463533 
L 122.140466 228.463533 
L 122.140466 228.322452 
L 123.010761 228.322452 
L 123.010761 228.886775 
L 123.881057 228.886775 
L 123.881057 227.89921 
L 124.751352 227.89921 
L 124.751352 227.052725 
L 125.621648 227.052725 
L 125.621648 228.463533 
L 126.491943 228.463533 
L 126.491943 227.617048 
L 127.362239 227.617048 
L 127.362239 228.322452 
L 128.232534 228.322452 
L 128.232534 227.617048 
L 129.10283 227.617048 
L 129.10283 228.322452 
L 129.973125 228.322452 
L 129.973125 227.475967 
L 130.84342 227.475967 
L 130.84342 228.181371 
L 131.713716 228.181371 
L 131.713716 227.475967 
L 132.584011 227.475967 
L 132.584011 228.745694 
L 133.454307 228.745694 
L 133.454307 228.604614 
L 134.324602 228.604614 
L 134.324602 227.193806 
L 135.194898 227.193806 
L 135.194898 227.475967 
L 136.065193 227.475967 
L 136.065193 228.040291 
L 137.805784 228.040291 
L 137.805784 227.89921 
L 138.67608 227.89921 
L 138.67608 227.475967 
L 139.546375 227.475967 
L 139.546375 225.924079 
L 140.41667 225.924079 
L 140.41667 228.322452 
L 141.286966 228.322452 
L 141.286966 226.770564 
L 143.027557 226.770564 
L 143.027557 227.193806 
L 143.897852 227.193806 
L 143.897852 227.758129 
L 144.768148 227.758129 
L 144.768148 226.770564 
L 146.508739 226.770564 
L 146.508739 225.782998 
L 147.379034 225.782998 
L 147.379034 227.052725 
L 148.24933 227.052725 
L 148.24933 225.782998 
L 149.119625 225.782998 
L 149.119625 226.06516 
L 149.98992 226.06516 
L 149.98992 225.924079 
L 150.860216 225.924079 
L 150.860216 222.961383 
L 151.730511 222.961383 
L 151.730511 223.948948 
L 152.600807 223.948948 
L 152.600807 219.434364 
L 153.471102 219.434364 
L 153.471102 218.587879 
L 154.341398 218.587879 
L 154.341398 213.932214 
L 155.211693 213.932214 
L 155.211693 208.288983 
L 156.081989 208.288983 
L 156.081989 201.376026 
L 156.952284 201.376026 
L 156.952284 191.07713 
L 157.82258 191.07713 
L 157.82258 177.815538 
L 158.692875 177.815538 
L 158.692875 156.512343 
L 159.56317 156.512343 
L 159.56317 153.126404 
L 160.433466 153.126404 
L 160.433466 145.649124 
L 161.303761 145.649124 
L 161.303761 151.010193 
L 162.174057 151.010193 
L 162.174057 158.910716 
L 163.044352 158.910716 
L 163.044352 175.276084 
L 163.914648 175.276084 
L 163.914648 185.716061 
L 164.784943 185.716061 
L 164.784943 192.91118 
L 165.655239 192.91118 
L 165.655239 200.106299 
L 166.525534 200.106299 
L 166.525534 213.085729 
L 167.39583 213.085729 
L 167.39583 214.214376 
L 168.266125 214.214376 
L 168.266125 216.189506 
L 169.13642 216.189506 
L 169.13642 219.152202 
L 170.006716 219.152202 
L 170.006716 221.973818 
L 170.877011 221.973818 
L 170.877011 220.845172 
L 171.747307 220.845172 
L 171.747307 222.961383 
L 172.617602 222.961383 
L 172.617602 225.359756 
L 173.487898 225.359756 
L 173.487898 224.654352 
L 174.358193 224.654352 
L 174.358193 225.359756 
L 175.228489 225.359756 
L 175.228489 226.206241 
L 176.098784 226.206241 
L 176.098784 226.629483 
L 176.96908 226.629483 
L 176.96908 225.218675 
L 177.839375 225.218675 
L 177.839375 225.924079 
L 178.70967 225.924079 
L 178.70967 226.911644 
L 179.579966 226.911644 
L 179.579966 227.052725 
L 180.450261 227.052725 
L 180.450261 224.795433 
L 181.320557 224.795433 
L 181.320557 228.040291 
L 182.190852 228.040291 
L 182.190852 227.193806 
L 183.061148 227.193806 
L 183.061148 226.488402 
L 185.672034 226.488402 
L 185.672034 226.911644 
L 186.54233 226.911644 
L 186.54233 227.334887 
L 187.412625 227.334887 
L 187.412625 226.911644 
L 188.28292 226.911644 
L 188.28292 226.206241 
L 190.023511 226.206241 
L 190.023511 225.782998 
L 190.893807 225.782998 
L 190.893807 227.052725 
L 191.764102 227.052725 
L 191.764102 226.488402 
L 192.634398 226.488402 
L 192.634398 227.193806 
L 193.504693 227.193806 
L 193.504693 227.052725 
L 195.245284 227.052725 
L 195.245284 227.475967 
L 196.11558 227.475967 
L 196.11558 225.077594 
L 196.985875 225.077594 
L 196.985875 225.500837 
L 197.85617 225.500837 
L 197.85617 225.641918 
L 198.726466 225.641918 
L 198.726466 226.206241 
L 199.596761 226.206241 
L 199.596761 226.770564 
L 200.467057 226.770564 
L 200.467057 227.052725 
L 201.337352 227.052725 
L 201.337352 226.347321 
L 202.207648 226.347321 
L 202.207648 225.500837 
L 203.077943 225.500837 
L 203.077943 226.206241 
L 203.948239 226.206241 
L 203.948239 223.666787 
L 204.818534 223.666787 
L 204.818534 226.488402 
L 205.68883 226.488402 
L 205.68883 226.629483 
L 207.42942 226.629483 
L 207.42942 224.936514 
L 208.299716 224.936514 
L 208.299716 225.924079 
L 209.170011 225.924079 
L 209.170011 225.359756 
L 210.910602 225.359756 
L 210.910602 224.23111 
L 211.780898 224.23111 
L 211.780898 224.513271 
L 212.651193 224.513271 
L 212.651193 223.384625 
L 213.521489 223.384625 
L 213.521489 224.654352 
L 216.132375 224.654352 
L 216.132375 225.218675 
L 217.872966 225.218675 
L 217.872966 225.924079 
L 218.743261 225.924079 
L 218.743261 223.807868 
L 219.613557 223.807868 
L 219.613557 224.654352 
L 220.483852 224.654352 
L 220.483852 223.666787 
L 221.354148 223.666787 
L 221.354148 225.641918 
L 222.224443 225.641918 
L 222.224443 224.513271 
L 223.094739 224.513271 
L 223.094739 225.359756 
L 223.965034 225.359756 
L 223.965034 225.218675 
L 224.83533 225.218675 
L 224.83533 223.384625 
L 225.705625 223.384625 
L 225.705625 222.114898 
L 226.57592 222.114898 
L 226.57592 223.102464 
L 227.446216 223.102464 
L 227.446216 223.666787 
L 228.316511 223.666787 
L 228.316511 224.090029 
L 229.186807 224.090029 
L 229.186807 222.255979 
L 230.057102 222.255979 
L 230.057102 222.679221 
L 230.927398 222.679221 
L 230.927398 219.293283 
L 231.797693 219.293283 
L 231.797693 220.56301 
L 232.667989 220.56301 
L 232.667989 214.496537 
L 233.538284 214.496537 
L 233.538284 217.177072 
L 234.40858 217.177072 
L 234.40858 212.662487 
L 235.278875 212.662487 
L 235.278875 208.712226 
L 236.14917 208.712226 
L 236.14917 199.965218 
L 237.019466 199.965218 
L 237.019466 195.873876 
L 237.889761 195.873876 
L 237.889761 184.164173 
L 238.760057 184.164173 
L 238.760057 174.006358 
L 239.630352 174.006358 
L 239.630352 163.284219 
L 240.500648 163.284219 
L 240.500648 152.844243 
L 241.370943 152.844243 
L 241.370943 150.869112 
L 242.241239 150.869112 
L 242.241239 157.92315 
L 243.111534 157.92315 
L 243.111534 151.292354 
L 243.98183 151.292354 
L 243.98183 164.412865 
L 244.852125 164.412865 
L 244.852125 172.59555 
L 245.72242 172.59555 
L 245.72242 180.07283 
L 246.592716 180.07283 
L 246.592716 175.699327 
L 247.463011 175.699327 
L 247.463011 169.209611 
L 248.333307 169.209611 
L 248.333307 163.707462 
L 249.203602 163.707462 
L 249.203602 142.827508 
L 250.073898 142.827508 
L 250.073898 127.026463 
L 250.944193 127.026463 
L 250.944193 92.461675 
L 251.814489 92.461675 
L 251.814489 69.042268 
L 252.684784 69.042268 
L 252.684784 36.593692 
L 253.55508 36.593692 
L 253.55508 33.207754 
L 254.425375 33.207754 
L 254.425375 44.494215 
L 255.29567 44.494215 
L 255.29567 57.755807 
L 256.165966 57.755807 
L 256.165966 87.523849 
L 257.036261 87.523849 
L 257.036261 119.408101 
L 257.906557 119.408101 
L 257.906557 145.508043 
L 258.776852 145.508043 
L 258.776852 160.744766 
L 259.647148 160.744766 
L 259.647148 175.558246 
L 260.517443 175.558246 
L 260.517443 189.24308 
L 261.387739 189.24308 
L 261.387739 199.400895 
L 262.258034 199.400895 
L 262.258034 203.633318 
L 263.12833 203.633318 
L 263.12833 211.39276 
L 263.998625 211.39276 
L 263.998625 213.508972 
L 264.86892 213.508972 
L 264.86892 216.189506 
L 265.739216 216.189506 
L 265.739216 218.587879 
L 266.609511 218.587879 
L 266.609511 219.434364 
L 267.479807 219.434364 
L 267.479807 219.011122 
L 268.350102 219.011122 
L 268.350102 221.268414 
L 269.220398 221.268414 
L 269.220398 221.691656 
L 270.090693 221.691656 
L 270.090693 222.679221 
L 270.960989 222.679221 
L 270.960989 224.23111 
L 271.831284 224.23111 
L 271.831284 224.513271 
L 272.70158 224.513271 
L 272.70158 225.782998 
L 273.571875 225.782998 
L 273.571875 225.641918 
L 275.312466 225.641918 
L 275.312466 226.488402 
L 276.182761 226.488402 
L 276.182761 225.500837 
L 277.053057 225.500837 
L 277.053057 226.770564 
L 277.923352 226.770564 
L 277.923352 227.052725 
L 278.793648 227.052725 
L 278.793648 228.322452 
L 279.663943 228.322452 
L 279.663943 227.334887 
L 280.534239 227.334887 
L 280.534239 227.052725 
L 281.404534 227.052725 
L 281.404534 228.604614 
L 282.27483 228.604614 
L 282.27483 227.334887 
L 283.145125 227.334887 
L 283.145125 228.322452 
L 284.01542 228.322452 
L 284.01542 228.040291 
L 284.885716 228.040291 
L 284.885716 229.168937 
L 285.756011 229.168937 
L 285.756011 227.758129 
L 286.626307 227.758129 
L 286.626307 229.168937 
L 287.496602 229.168937 
L 287.496602 229.310017 
L 288.366898 229.310017 
L 288.366898 228.886775 
L 289.237193 228.886775 
L 289.237193 229.73326 
L 290.107489 229.73326 
L 290.107489 228.604614 
L 290.977784 228.604614 
L 290.977784 228.322452 
L 291.84808 228.322452 
L 291.84808 229.168937 
L 292.718375 229.168937 
L 292.718375 229.592179 
L 293.58867 229.592179 
L 293.58867 229.310017 
L 294.458966 229.310017 
L 294.458966 229.592179 
L 295.329261 229.592179 
L 295.329261 229.451098 
L 296.199557 229.451098 
L 296.199557 229.310017 
L 297.069852 229.310017 
L 297.069852 228.745694 
L 297.940148 228.745694 
L 297.940148 229.168937 
L 298.810443 229.168937 
L 298.810443 228.745694 
L 299.680739 228.745694 
L 299.680739 229.592179 
L 300.551034 229.592179 
L 300.551034 230.015421 
L 301.42133 230.015421 
L 301.42133 228.604614 
L 302.291625 228.604614 
L 302.291625 229.73326 
L 303.16192 229.73326 
L 303.16192 229.168937 
L 304.032216 229.168937 
L 304.032216 229.310017 
L 304.902511 229.310017 
L 304.902511 229.592179 
L 305.772807 229.592179 
L 305.772807 228.886775 
L 306.643102 228.886775 
L 306.643102 229.592179 
L 307.513398 229.592179 
L 307.513398 230.015421 
L 308.383693 230.015421 
L 308.383693 229.87434 
L 309.253989 229.87434 
L 309.253989 229.451098 
L 310.99458 229.451098 
L 310.99458 229.310017 
L 311.864875 229.310017 
L 311.864875 229.87434 
L 312.73517 229.87434 
L 312.73517 230.015421 
L 313.605466 230.015421 
L 313.605466 230.156502 
L 314.475761 230.156502 
L 314.475761 228.886775 
L 315.346057 228.886775 
L 315.346057 229.73326 
L 317.086648 229.73326 
L 317.086648 229.310017 
L 317.956943 229.310017 
L 317.956943 229.73326 
L 318.827239 229.73326 
L 318.827239 230.015421 
L 319.697534 230.015421 
L 319.697534 229.73326 
L 321.438125 229.73326 
L 321.438125 229.87434 
L 322.30842 229.87434 
L 322.30842 230.297583 
L 323.178716 230.297583 
L 323.178716 230.015421 
L 324.049011 230.015421 
L 324.049011 230.438664 
L 324.919307 230.438664 
L 324.919307 229.168937 
L 325.789602 229.168937 
L 325.789602 229.73326 
L 328.400489 229.73326 
L 328.400489 229.592179 
L 329.270784 229.592179 
L 329.270784 229.87434 
L 330.14108 229.87434 
L 330.14108 229.310017 
L 331.011375 229.310017 
L 331.011375 229.592179 
L 331.88167 229.592179 
L 331.88167 229.87434 
L 332.751966 229.87434 
L 332.751966 230.297583 
L 333.622261 230.297583 
L 333.622261 230.438664 
L 334.492557 230.438664 
L 334.492557 229.73326 
L 336.233148 229.73326 
L 336.233148 230.015421 
L 337.103443 230.015421 
L 337.103443 230.156502 
L 337.973739 230.156502 
L 337.973739 230.015421 
L 338.844034 230.015421 
L 338.844034 229.168937 
L 339.71433 229.168937 
L 339.71433 229.73326 
L 340.584625 229.73326 
L 340.584625 229.592179 
L 341.45492 229.592179 
L 341.45492 230.156502 
L 343.195511 230.156502 
L 343.195511 228.886775 
L 344.065807 228.886775 
L 344.065807 229.592179 
L 344.936102 229.592179 
L 344.936102 229.73326 
L 345.806398 229.73326 
L 345.806398 229.87434 
L 346.676693 229.87434 
L 346.676693 230.015421 
L 347.546989 230.015421 
L 347.546989 229.87434 
L 348.417284 229.87434 
L 348.417284 229.73326 
L 349.28758 229.73326 
L 349.28758 230.015421 
L 351.02817 230.015421 
L 351.02817 229.73326 
L 351.898466 229.73326 
L 351.898466 230.297583 
L 352.768761 230.297583 
L 352.768761 230.015421 
L 353.639057 230.015421 
L 353.639057 229.87434 
L 354.509352 229.87434 
L 354.509352 230.015421 
L 355.379648 230.015421 
L 355.379648 230.438664 
L 356.249943 230.438664 
L 356.249943 229.87434 
L 357.120239 229.87434 
L 357.120239 229.73326 
L 358.86083 229.73326 
L 358.86083 230.297583 
L 359.731125 230.297583 
L 359.731125 230.015421 
L 360.60142 230.015421 
L 360.60142 229.87434 
L 361.471716 229.87434 
L 361.471716 230.297583 
L 362.342011 230.297583 
L 362.342011 230.015421 
L 364.082602 230.015421 
L 364.082602 230.156502 
L 364.952898 230.156502 
L 364.952898 229.87434 
L 365.823193 229.87434 
L 365.823193 230.297583 
L 366.693489 230.297583 
L 366.693489 230.015421 
L 367.563784 230.015421 
L 367.563784 229.87434 
L 369.304375 229.87434 
L 369.304375 230.297583 
L 370.17467 230.297583 
L 370.17467 230.438664 
L 371.044966 230.438664 
L 371.044966 229.87434 
L 371.915261 229.87434 
L 371.915261 230.156502 
L 372.785557 230.156502 
L 372.785557 230.015421 
L 373.655852 230.015421 
L 373.655852 230.579744 
L 374.526148 230.579744 
L 374.526148 230.156502 
L 375.396443 230.156502 
L 375.396443 229.451098 
L 377.137034 229.451098 
L 377.137034 230.015421 
L 378.00733 230.015421 
L 378.00733 229.73326 
L 378.877625 229.73326 
L 378.877625 230.438664 
L 379.74792 230.438664 
L 379.74792 230.156502 
L 381.488511 230.156502 
L 381.488511 230.438664 
L 382.358807 230.438664 
L 382.358807 230.297583 
L 384.099398 230.297583 
L 384.099398 229.592179 
L 384.969693 229.592179 
L 384.969693 230.015421 
L 385.839989 230.015421 
L 385.839989 230.156502 
L 386.710284 230.156502 
L 386.710284 230.015421 
L 387.58058 230.015421 
L 387.58058 230.156502 
L 388.450875 230.156502 
L 388.450875 230.579744 
L 389.32117 230.579744 
L 389.32117 230.438664 
L 391.061761 230.438664 
L 391.061761 229.592179 
L 391.932057 229.592179 
L 391.932057 229.87434 
L 393.672648 229.87434 
L 393.672648 230.015421 
L 395.413239 230.015421 
L 395.413239 230.297583 
L 397.15383 230.297583 
L 397.15383 230.156502 
L 398.024125 230.156502 
L 398.024125 230.015421 
L 398.89442 230.015421 
L 398.89442 230.438664 
L 399.764716 230.438664 
L 399.764716 230.438664 
" clip-path="url(#p481abbd0ec)" style="fill: none; stroke: #1f77b4; stroke-width: 1.5; stroke-linecap: square"/>
   </g>
   <g id="LineCollection_1">
    <path d="M 52.081682 226.217917 
L 52.081682 224.501595 
" clip-path="url(#p481abbd0ec)" style="fill: none; stroke: #1f77b4; stroke-width: 1.5"/>
    <path d="M 52.951977 227.884958 
L 52.951977 226.502654 
" clip-path="url(#p481abbd0ec)" style="fill: none; stroke: #1f77b4; stroke-width: 1.5"/>
    <path d="M 53.822273 227.631018 
L 53.822273 226.192271 
" clip-path="url(#p481abbd0ec)" style="fill: none; stroke: #1f77b4; stroke-width: 1.5"/>
    <path d="M 54.692568 225.56866 
L 54.692568 223.740044 
" clip-path="url(#p481abbd0ec)" style="fill: none; stroke: #1f77b4; stroke-width: 1.5"/>
    <path d="M 55.562864 226.217917 
L 55.562864 224.501595 
" clip-path="url(#p481abbd0ec)" style="fill: none; stroke: #1f77b4; stroke-width: 1.5"/>
    <path d="M 56.433159 226.347321 
L 56.433159 224.654352 
" clip-path="url(#p481abbd0ec)" style="fill: none; stroke: #1f77b4; stroke-width: 1.5"/>
    <path d="M 57.303455 226.347321 
L 57.303455 224.654352 
" clip-path="url(#p481abbd0ec)" style="fill: none; stroke: #1f77b4; stroke-width: 1.5"/>
    <path d="M 58.17375 227.631018 
L 58.17375 226.192271 
" clip-path="url(#p481abbd0ec)" style="fill: none; stroke: #1f77b4; stroke-width: 1.5"/>
    <path d="M 59.044045 228.638846 
L 59.044045 227.441736 
" clip-path="url(#p481abbd0ec)" style="fill: none; stroke: #1f77b4; stroke-width: 1.5"/>
    <path d="M 59.914341 227.884958 
L 59.914341 226.502654 
" clip-path="url(#p481abbd0ec)" style="fill: none; stroke: #1f77b4; stroke-width: 1.5"/>
    <path d="M 60.784636 227.631018 
L 60.784636 226.192271 
" clip-path="url(#p481abbd0ec)" style="fill: none; stroke: #1f77b4; stroke-width: 1.5"/>
    <path d="M 61.654932 227.884958 
L 61.654932 226.502654 
" clip-path="url(#p481abbd0ec)" style="fill: none; stroke: #1f77b4; stroke-width: 1.5"/>
    <path d="M 62.525227 227.884958 
L 62.525227 226.502654 
" clip-path="url(#p481abbd0ec)" style="fill: none; stroke: #1f77b4; stroke-width: 1.5"/>
    <path d="M 63.395523 227.248145 
L 63.395523 225.728659 
" clip-path="url(#p481abbd0ec)" style="fill: none; stroke: #1f77b4; stroke-width: 1.5"/>
    <path d="M 64.265818 228.389061 
L 64.265818 227.127197 
" clip-path="url(#p481abbd0ec)" style="fill: none; stroke: #1f77b4; stroke-width: 1.5"/>
    <path d="M 65.136114 228.011486 
L 65.136114 226.658287 
" clip-path="url(#p481abbd0ec)" style="fill: none; stroke: #1f77b4; stroke-width: 1.5"/>
    <path d="M 66.006409 226.863233 
L 66.006409 225.267087 
" clip-path="url(#p481abbd0ec)" style="fill: none; stroke: #1f77b4; stroke-width: 1.5"/>
    <path d="M 66.876705 227.120053 
L 66.876705 225.57459 
" clip-path="url(#p481abbd0ec)" style="fill: none; stroke: #1f77b4; stroke-width: 1.5"/>
    <path d="M 67.747 227.120053 
L 67.747 225.57459 
" clip-path="url(#p481abbd0ec)" style="fill: none; stroke: #1f77b4; stroke-width: 1.5"/>
    <path d="M 68.617295 228.137695 
L 68.617295 226.81424 
" clip-path="url(#p481abbd0ec)" style="fill: none; stroke: #1f77b4; stroke-width: 1.5"/>
    <path d="M 69.487591 227.503641 
L 69.487591 226.037487 
" clip-path="url(#p481abbd0ec)" style="fill: none; stroke: #1f77b4; stroke-width: 1.5"/>
    <path d="M 70.357886 227.884958 
L 70.357886 226.502654 
" clip-path="url(#p481abbd0ec)" style="fill: none; stroke: #1f77b4; stroke-width: 1.5"/>
    <path d="M 71.228182 227.758129 
L 71.228182 226.347321 
" clip-path="url(#p481abbd0ec)" style="fill: none; stroke: #1f77b4; stroke-width: 1.5"/>
    <path d="M 72.098477 226.991745 
L 72.098477 225.420736 
" clip-path="url(#p481abbd0ec)" style="fill: none; stroke: #1f77b4; stroke-width: 1.5"/>
    <path d="M 72.968773 228.638846 
L 72.968773 227.441736 
" clip-path="url(#p481abbd0ec)" style="fill: none; stroke: #1f77b4; stroke-width: 1.5"/>
    <path d="M 73.839068 228.011486 
L 73.839068 226.658287 
" clip-path="url(#p481abbd0ec)" style="fill: none; stroke: #1f77b4; stroke-width: 1.5"/>
    <path d="M 74.709364 228.263562 
L 74.709364 226.970535 
" clip-path="url(#p481abbd0ec)" style="fill: none; stroke: #1f77b4; stroke-width: 1.5"/>
    <path d="M 75.579659 228.389061 
L 75.579659 227.127197 
" clip-path="url(#p481abbd0ec)" style="fill: none; stroke: #1f77b4; stroke-width: 1.5"/>
    <path d="M 76.449955 228.011486 
L 76.449955 226.658287 
" clip-path="url(#p481abbd0ec)" style="fill: none; stroke: #1f77b4; stroke-width: 1.5"/>
    <path d="M 77.32025 226.217917 
L 77.32025 224.501595 
" clip-path="url(#p481abbd0ec)" style="fill: none; stroke: #1f77b4; stroke-width: 1.5"/>
    <path d="M 78.190545 227.631018 
L 78.190545 226.192271 
" clip-path="url(#p481abbd0ec)" style="fill: none; stroke: #1f77b4; stroke-width: 1.5"/>
    <path d="M 79.060841 227.120053 
L 79.060841 225.57459 
" clip-path="url(#p481abbd0ec)" style="fill: none; stroke: #1f77b4; stroke-width: 1.5"/>
    <path d="M 79.931136 228.389061 
L 79.931136 227.127197 
" clip-path="url(#p481abbd0ec)" style="fill: none; stroke: #1f77b4; stroke-width: 1.5"/>
    <path d="M 80.801432 228.638846 
L 80.801432 227.441736 
" clip-path="url(#p481abbd0ec)" style="fill: none; stroke: #1f77b4; stroke-width: 1.5"/>
    <path d="M 81.671727 228.886775 
L 81.671727 227.758129 
" clip-path="url(#p481abbd0ec)" style="fill: none; stroke: #1f77b4; stroke-width: 1.5"/>
    <path d="M 82.542023 227.631018 
L 82.542023 226.192271 
" clip-path="url(#p481abbd0ec)" style="fill: none; stroke: #1f77b4; stroke-width: 1.5"/>
    <path d="M 83.412318 228.638846 
L 83.412318 227.441736 
" clip-path="url(#p481abbd0ec)" style="fill: none; stroke: #1f77b4; stroke-width: 1.5"/>
    <path d="M 84.282614 226.991745 
L 84.282614 225.420736 
" clip-path="url(#p481abbd0ec)" style="fill: none; stroke: #1f77b4; stroke-width: 1.5"/>
    <path d="M 85.152909 227.248145 
L 85.152909 225.728659 
" clip-path="url(#p481abbd0ec)" style="fill: none; stroke: #1f77b4; stroke-width: 1.5"/>
    <path d="M 86.023205 228.886775 
L 86.023205 227.758129 
" clip-path="url(#p481abbd0ec)" style="fill: none; stroke: #1f77b4; stroke-width: 1.5"/>
    <path d="M 86.8935 229.132489 
L 86.8935 228.076738 
" clip-path="url(#p481abbd0ec)" style="fill: none; stroke: #1f77b4; stroke-width: 1.5"/>
    <path d="M 87.763795 227.758129 
L 87.763795 226.347321 
" clip-path="url(#p481abbd0ec)" style="fill: none; stroke: #1f77b4; stroke-width: 1.5"/>
    <path d="M 88.634091 227.884958 
L 88.634091 226.502654 
" clip-path="url(#p481abbd0ec)" style="fill: none; stroke: #1f77b4; stroke-width: 1.5"/>
    <path d="M 89.504386 229.009936 
L 89.504386 227.917129 
" clip-path="url(#p481abbd0ec)" style="fill: none; stroke: #1f77b4; stroke-width: 1.5"/>
    <path d="M 90.374682 228.137695 
L 90.374682 226.81424 
" clip-path="url(#p481abbd0ec)" style="fill: none; stroke: #1f77b4; stroke-width: 1.5"/>
    <path d="M 91.244977 228.263562 
L 91.244977 226.970535 
" clip-path="url(#p481abbd0ec)" style="fill: none; stroke: #1f77b4; stroke-width: 1.5"/>
    <path d="M 92.115273 227.758129 
L 92.115273 226.347321 
" clip-path="url(#p481abbd0ec)" style="fill: none; stroke: #1f77b4; stroke-width: 1.5"/>
    <path d="M 92.985568 228.389061 
L 92.985568 227.127197 
" clip-path="url(#p481abbd0ec)" style="fill: none; stroke: #1f77b4; stroke-width: 1.5"/>
    <path d="M 93.855864 229.132489 
L 93.855864 228.076738 
" clip-path="url(#p481abbd0ec)" style="fill: none; stroke: #1f77b4; stroke-width: 1.5"/>
    <path d="M 94.726159 228.638846 
L 94.726159 227.441736 
" clip-path="url(#p481abbd0ec)" style="fill: none; stroke: #1f77b4; stroke-width: 1.5"/>
    <path d="M 95.596455 228.763062 
L 95.596455 227.59968 
" clip-path="url(#p481abbd0ec)" style="fill: none; stroke: #1f77b4; stroke-width: 1.5"/>
    <path d="M 96.46675 228.514167 
L 96.46675 227.284253 
" clip-path="url(#p481abbd0ec)" style="fill: none; stroke: #1f77b4; stroke-width: 1.5"/>
    <path d="M 97.337045 229.009936 
L 97.337045 227.917129 
" clip-path="url(#p481abbd0ec)" style="fill: none; stroke: #1f77b4; stroke-width: 1.5"/>
    <path d="M 98.207341 228.514167 
L 98.207341 227.284253 
" clip-path="url(#p481abbd0ec)" style="fill: none; stroke: #1f77b4; stroke-width: 1.5"/>
    <path d="M 99.077636 228.514167 
L 99.077636 227.284253 
" clip-path="url(#p481abbd0ec)" style="fill: none; stroke: #1f77b4; stroke-width: 1.5"/>
    <path d="M 99.947932 227.758129 
L 99.947932 226.347321 
" clip-path="url(#p481abbd0ec)" style="fill: none; stroke: #1f77b4; stroke-width: 1.5"/>
    <path d="M 100.818227 229.009936 
L 100.818227 227.917129 
" clip-path="url(#p481abbd0ec)" style="fill: none; stroke: #1f77b4; stroke-width: 1.5"/>
    <path d="M 101.688523 229.009936 
L 101.688523 227.917129 
" clip-path="url(#p481abbd0ec)" style="fill: none; stroke: #1f77b4; stroke-width: 1.5"/>
    <path d="M 102.558818 228.011486 
L 102.558818 226.658287 
" clip-path="url(#p481abbd0ec)" style="fill: none; stroke: #1f77b4; stroke-width: 1.5"/>
    <path d="M 103.429114 227.376012 
L 103.429114 225.882954 
" clip-path="url(#p481abbd0ec)" style="fill: none; stroke: #1f77b4; stroke-width: 1.5"/>
    <path d="M 104.299409 228.263562 
L 104.299409 226.970535 
" clip-path="url(#p481abbd0ec)" style="fill: none; stroke: #1f77b4; stroke-width: 1.5"/>
    <path d="M 105.169705 228.763062 
L 105.169705 227.59968 
" clip-path="url(#p481abbd0ec)" style="fill: none; stroke: #1f77b4; stroke-width: 1.5"/>
    <path d="M 106.04 228.011486 
L 106.04 226.658287 
" clip-path="url(#p481abbd0ec)" style="fill: none; stroke: #1f77b4; stroke-width: 1.5"/>
    <path d="M 106.910295 229.132489 
L 106.910295 228.076738 
" clip-path="url(#p481abbd0ec)" style="fill: none; stroke: #1f77b4; stroke-width: 1.5"/>
    <path d="M 107.780591 229.254368 
L 107.780591 228.23702 
" clip-path="url(#p481abbd0ec)" style="fill: none; stroke: #1f77b4; stroke-width: 1.5"/>
    <path d="M 108.650886 229.132489 
L 108.650886 228.076738 
" clip-path="url(#p481abbd0ec)" style="fill: none; stroke: #1f77b4; stroke-width: 1.5"/>
    <path d="M 109.521182 228.886775 
L 109.521182 227.758129 
" clip-path="url(#p481abbd0ec)" style="fill: none; stroke: #1f77b4; stroke-width: 1.5"/>
    <path d="M 110.391477 228.886775 
L 110.391477 227.758129 
" clip-path="url(#p481abbd0ec)" style="fill: none; stroke: #1f77b4; stroke-width: 1.5"/>
    <path d="M 111.261773 229.254368 
L 111.261773 228.23702 
" clip-path="url(#p481abbd0ec)" style="fill: none; stroke: #1f77b4; stroke-width: 1.5"/>
    <path d="M 112.132068 228.514167 
L 112.132068 227.284253 
" clip-path="url(#p481abbd0ec)" style="fill: none; stroke: #1f77b4; stroke-width: 1.5"/>
    <path d="M 113.002364 228.638846 
L 113.002364 227.441736 
" clip-path="url(#p481abbd0ec)" style="fill: none; stroke: #1f77b4; stroke-width: 1.5"/>
    <path d="M 113.872659 228.263562 
L 113.872659 226.970535 
" clip-path="url(#p481abbd0ec)" style="fill: none; stroke: #1f77b4; stroke-width: 1.5"/>
    <path d="M 114.742955 228.137695 
L 114.742955 226.81424 
" clip-path="url(#p481abbd0ec)" style="fill: none; stroke: #1f77b4; stroke-width: 1.5"/>
    <path d="M 115.61325 229.375493 
L 115.61325 228.398057 
" clip-path="url(#p481abbd0ec)" style="fill: none; stroke: #1f77b4; stroke-width: 1.5"/>
    <path d="M 116.483545 229.132489 
L 116.483545 228.076738 
" clip-path="url(#p481abbd0ec)" style="fill: none; stroke: #1f77b4; stroke-width: 1.5"/>
    <path d="M 117.353841 228.011486 
L 117.353841 226.658287 
" clip-path="url(#p481abbd0ec)" style="fill: none; stroke: #1f77b4; stroke-width: 1.5"/>
    <path d="M 118.224136 228.638846 
L 118.224136 227.441736 
" clip-path="url(#p481abbd0ec)" style="fill: none; stroke: #1f77b4; stroke-width: 1.5"/>
    <path d="M 119.094432 229.495768 
L 119.094432 228.559944 
" clip-path="url(#p481abbd0ec)" style="fill: none; stroke: #1f77b4; stroke-width: 1.5"/>
    <path d="M 119.964727 228.514167 
L 119.964727 227.284253 
" clip-path="url(#p481abbd0ec)" style="fill: none; stroke: #1f77b4; stroke-width: 1.5"/>
    <path d="M 120.835023 227.503641 
L 120.835023 226.037487 
" clip-path="url(#p481abbd0ec)" style="fill: none; stroke: #1f77b4; stroke-width: 1.5"/>
    <path d="M 121.705318 229.009936 
L 121.705318 227.917129 
" clip-path="url(#p481abbd0ec)" style="fill: none; stroke: #1f77b4; stroke-width: 1.5"/>
    <path d="M 122.575614 228.886775 
L 122.575614 227.758129 
" clip-path="url(#p481abbd0ec)" style="fill: none; stroke: #1f77b4; stroke-width: 1.5"/>
    <path d="M 123.445909 229.375493 
L 123.445909 228.398057 
" clip-path="url(#p481abbd0ec)" style="fill: none; stroke: #1f77b4; stroke-width: 1.5"/>
    <path d="M 124.316205 228.514167 
L 124.316205 227.284253 
" clip-path="url(#p481abbd0ec)" style="fill: none; stroke: #1f77b4; stroke-width: 1.5"/>
    <path d="M 125.1865 227.758129 
L 125.1865 226.347321 
" clip-path="url(#p481abbd0ec)" style="fill: none; stroke: #1f77b4; stroke-width: 1.5"/>
    <path d="M 126.056795 229.009936 
L 126.056795 227.917129 
" clip-path="url(#p481abbd0ec)" style="fill: none; stroke: #1f77b4; stroke-width: 1.5"/>
    <path d="M 126.927091 228.263562 
L 126.927091 226.970535 
" clip-path="url(#p481abbd0ec)" style="fill: none; stroke: #1f77b4; stroke-width: 1.5"/>
    <path d="M 127.797386 228.886775 
L 127.797386 227.758129 
" clip-path="url(#p481abbd0ec)" style="fill: none; stroke: #1f77b4; stroke-width: 1.5"/>
    <path d="M 128.667682 228.263562 
L 128.667682 226.970535 
" clip-path="url(#p481abbd0ec)" style="fill: none; stroke: #1f77b4; stroke-width: 1.5"/>
    <path d="M 129.537977 228.886775 
L 129.537977 227.758129 
" clip-path="url(#p481abbd0ec)" style="fill: none; stroke: #1f77b4; stroke-width: 1.5"/>
    <path d="M 130.408273 228.137695 
L 130.408273 226.81424 
" clip-path="url(#p481abbd0ec)" style="fill: none; stroke: #1f77b4; stroke-width: 1.5"/>
    <path d="M 131.278568 228.763062 
L 131.278568 227.59968 
" clip-path="url(#p481abbd0ec)" style="fill: none; stroke: #1f77b4; stroke-width: 1.5"/>
    <path d="M 132.148864 228.137695 
L 132.148864 226.81424 
" clip-path="url(#p481abbd0ec)" style="fill: none; stroke: #1f77b4; stroke-width: 1.5"/>
    <path d="M 133.019159 229.254368 
L 133.019159 228.23702 
" clip-path="url(#p481abbd0ec)" style="fill: none; stroke: #1f77b4; stroke-width: 1.5"/>
    <path d="M 133.889455 229.132489 
L 133.889455 228.076738 
" clip-path="url(#p481abbd0ec)" style="fill: none; stroke: #1f77b4; stroke-width: 1.5"/>
    <path d="M 134.75975 227.884958 
L 134.75975 226.502654 
" clip-path="url(#p481abbd0ec)" style="fill: none; stroke: #1f77b4; stroke-width: 1.5"/>
    <path d="M 135.630045 228.137695 
L 135.630045 226.81424 
" clip-path="url(#p481abbd0ec)" style="fill: none; stroke: #1f77b4; stroke-width: 1.5"/>
    <path d="M 136.500341 228.638846 
L 136.500341 227.441736 
" clip-path="url(#p481abbd0ec)" style="fill: none; stroke: #1f77b4; stroke-width: 1.5"/>
    <path d="M 137.370636 228.638846 
L 137.370636 227.441736 
" clip-path="url(#p481abbd0ec)" style="fill: none; stroke: #1f77b4; stroke-width: 1.5"/>
    <path d="M 138.240932 228.514167 
L 138.240932 227.284253 
" clip-path="url(#p481abbd0ec)" style="fill: none; stroke: #1f77b4; stroke-width: 1.5"/>
    <path d="M 139.111227 228.137695 
L 139.111227 226.81424 
" clip-path="url(#p481abbd0ec)" style="fill: none; stroke: #1f77b4; stroke-width: 1.5"/>
    <path d="M 139.981523 226.734526 
L 139.981523 225.113632 
" clip-path="url(#p481abbd0ec)" style="fill: none; stroke: #1f77b4; stroke-width: 1.5"/>
    <path d="M 140.851818 228.886775 
L 140.851818 227.758129 
" clip-path="url(#p481abbd0ec)" style="fill: none; stroke: #1f77b4; stroke-width: 1.5"/>
    <path d="M 141.722114 227.503641 
L 141.722114 226.037487 
" clip-path="url(#p481abbd0ec)" style="fill: none; stroke: #1f77b4; stroke-width: 1.5"/>
    <path d="M 142.592409 227.503641 
L 142.592409 226.037487 
" clip-path="url(#p481abbd0ec)" style="fill: none; stroke: #1f77b4; stroke-width: 1.5"/>
    <path d="M 143.462705 227.884958 
L 143.462705 226.502654 
" clip-path="url(#p481abbd0ec)" style="fill: none; stroke: #1f77b4; stroke-width: 1.5"/>
    <path d="M 144.333 228.389061 
L 144.333 227.127197 
" clip-path="url(#p481abbd0ec)" style="fill: none; stroke: #1f77b4; stroke-width: 1.5"/>
    <path d="M 145.203295 227.503641 
L 145.203295 226.037487 
" clip-path="url(#p481abbd0ec)" style="fill: none; stroke: #1f77b4; stroke-width: 1.5"/>
    <path d="M 146.073591 227.503641 
L 146.073591 226.037487 
" clip-path="url(#p481abbd0ec)" style="fill: none; stroke: #1f77b4; stroke-width: 1.5"/>
    <path d="M 146.943886 226.605633 
L 146.943886 224.960363 
" clip-path="url(#p481abbd0ec)" style="fill: none; stroke: #1f77b4; stroke-width: 1.5"/>
    <path d="M 147.814182 227.758129 
L 147.814182 226.347321 
" clip-path="url(#p481abbd0ec)" style="fill: none; stroke: #1f77b4; stroke-width: 1.5"/>
    <path d="M 148.684477 226.605633 
L 148.684477 224.960363 
" clip-path="url(#p481abbd0ec)" style="fill: none; stroke: #1f77b4; stroke-width: 1.5"/>
    <path d="M 149.554773 226.863233 
L 149.554773 225.267087 
" clip-path="url(#p481abbd0ec)" style="fill: none; stroke: #1f77b4; stroke-width: 1.5"/>
    <path d="M 150.425068 226.734526 
L 150.425068 225.113632 
" clip-path="url(#p481abbd0ec)" style="fill: none; stroke: #1f77b4; stroke-width: 1.5"/>
    <path d="M 151.295364 223.998111 
L 151.295364 221.924655 
" clip-path="url(#p481abbd0ec)" style="fill: none; stroke: #1f77b4; stroke-width: 1.5"/>
    <path d="M 152.165659 224.916149 
L 152.165659 222.981747 
" clip-path="url(#p481abbd0ec)" style="fill: none; stroke: #1f77b4; stroke-width: 1.5"/>
    <path d="M 153.035955 220.688317 
L 153.035955 218.180411 
" clip-path="url(#p481abbd0ec)" style="fill: none; stroke: #1f77b4; stroke-width: 1.5"/>
    <path d="M 153.90625 219.88858 
L 153.90625 217.287179 
" clip-path="url(#p481abbd0ec)" style="fill: none; stroke: #1f77b4; stroke-width: 1.5"/>
    <path d="M 154.776545 215.464743 
L 154.776545 212.399685 
" clip-path="url(#p481abbd0ec)" style="fill: none; stroke: #1f77b4; stroke-width: 1.5"/>
    <path d="M 155.646841 210.062341 
L 155.646841 206.515626 
" clip-path="url(#p481abbd0ec)" style="fill: none; stroke: #1f77b4; stroke-width: 1.5"/>
    <path d="M 156.517136 203.405825 
L 156.517136 199.346227 
" clip-path="url(#p481abbd0ec)" style="fill: none; stroke: #1f77b4; stroke-width: 1.5"/>
    <path d="M 157.387432 193.437863 
L 157.387432 188.716397 
" clip-path="url(#p481abbd0ec)" style="fill: none; stroke: #1f77b4; stroke-width: 1.5"/>
    <path d="M 158.257727 180.54391 
L 158.257727 175.087166 
" clip-path="url(#p481abbd0ec)" style="fill: none; stroke: #1f77b4; stroke-width: 1.5"/>
    <path d="M 159.128023 159.744909 
L 159.128023 153.279776 
" clip-path="url(#p481abbd0ec)" style="fill: none; stroke: #1f77b4; stroke-width: 1.5"/>
    <path d="M 159.998318 156.432032 
L 159.998318 149.820776 
" clip-path="url(#p481abbd0ec)" style="fill: none; stroke: #1f77b4; stroke-width: 1.5"/>
    <path d="M 160.868614 149.110637 
L 160.868614 142.18761 
" clip-path="url(#p481abbd0ec)" style="fill: none; stroke: #1f77b4; stroke-width: 1.5"/>
    <path d="M 161.738909 154.360675 
L 161.738909 147.65971 
" clip-path="url(#p481abbd0ec)" style="fill: none; stroke: #1f77b4; stroke-width: 1.5"/>
    <path d="M 162.609205 162.090515 
L 162.609205 155.730917 
" clip-path="url(#p481abbd0ec)" style="fill: none; stroke: #1f77b4; stroke-width: 1.5"/>
    <path d="M 163.4795 178.069341 
L 163.4795 172.482828 
" clip-path="url(#p481abbd0ec)" style="fill: none; stroke: #1f77b4; stroke-width: 1.5"/>
    <path d="M 164.349795 188.231891 
L 164.349795 183.200231 
" clip-path="url(#p481abbd0ec)" style="fill: none; stroke: #1f77b4; stroke-width: 1.5"/>
    <path d="M 165.220091 195.216459 
L 165.220091 190.605901 
" clip-path="url(#p481abbd0ec)" style="fill: none; stroke: #1f77b4; stroke-width: 1.5"/>
    <path d="M 166.090386 202.179754 
L 166.090386 198.032844 
" clip-path="url(#p481abbd0ec)" style="fill: none; stroke: #1f77b4; stroke-width: 1.5"/>
    <path d="M 166.960682 214.656738 
L 166.960682 211.514721 
" clip-path="url(#p481abbd0ec)" style="fill: none; stroke: #1f77b4; stroke-width: 1.5"/>
    <path d="M 167.830977 215.733862 
L 167.830977 212.694889 
" clip-path="url(#p481abbd0ec)" style="fill: none; stroke: #1f77b4; stroke-width: 1.5"/>
    <path d="M 168.701273 217.614352 
L 168.701273 214.76466 
" clip-path="url(#p481abbd0ec)" style="fill: none; stroke: #1f77b4; stroke-width: 1.5"/>
    <path d="M 169.571568 220.421929 
L 169.571568 217.882475 
" clip-path="url(#p481abbd0ec)" style="fill: none; stroke: #1f77b4; stroke-width: 1.5"/>
    <path d="M 170.441864 223.075694 
L 170.441864 220.871942 
" clip-path="url(#p481abbd0ec)" style="fill: none; stroke: #1f77b4; stroke-width: 1.5"/>
    <path d="M 171.312159 222.017076 
L 171.312159 219.673267 
" clip-path="url(#p481abbd0ec)" style="fill: none; stroke: #1f77b4; stroke-width: 1.5"/>
    <path d="M 172.182455 223.998111 
L 172.182455 221.924655 
" clip-path="url(#p481abbd0ec)" style="fill: none; stroke: #1f77b4; stroke-width: 1.5"/>
    <path d="M 173.05275 226.217917 
L 173.05275 224.501595 
" clip-path="url(#p481abbd0ec)" style="fill: none; stroke: #1f77b4; stroke-width: 1.5"/>
    <path d="M 173.923045 225.56866 
L 173.923045 223.740044 
" clip-path="url(#p481abbd0ec)" style="fill: none; stroke: #1f77b4; stroke-width: 1.5"/>
    <path d="M 174.793341 226.217917 
L 174.793341 224.501595 
" clip-path="url(#p481abbd0ec)" style="fill: none; stroke: #1f77b4; stroke-width: 1.5"/>
    <path d="M 175.663636 226.991745 
L 175.663636 225.420736 
" clip-path="url(#p481abbd0ec)" style="fill: none; stroke: #1f77b4; stroke-width: 1.5"/>
    <path d="M 176.533932 227.376012 
L 176.533932 225.882954 
" clip-path="url(#p481abbd0ec)" style="fill: none; stroke: #1f77b4; stroke-width: 1.5"/>
    <path d="M 177.404227 226.088355 
L 177.404227 224.348995 
" clip-path="url(#p481abbd0ec)" style="fill: none; stroke: #1f77b4; stroke-width: 1.5"/>
    <path d="M 178.274523 226.734526 
L 178.274523 225.113632 
" clip-path="url(#p481abbd0ec)" style="fill: none; stroke: #1f77b4; stroke-width: 1.5"/>
    <path d="M 179.144818 227.631018 
L 179.144818 226.192271 
" clip-path="url(#p481abbd0ec)" style="fill: none; stroke: #1f77b4; stroke-width: 1.5"/>
    <path d="M 180.015114 227.758129 
L 180.015114 226.347321 
" clip-path="url(#p481abbd0ec)" style="fill: none; stroke: #1f77b4; stroke-width: 1.5"/>
    <path d="M 180.885409 225.698791 
L 180.885409 223.892075 
" clip-path="url(#p481abbd0ec)" style="fill: none; stroke: #1f77b4; stroke-width: 1.5"/>
    <path d="M 181.755705 228.638846 
L 181.755705 227.441736 
" clip-path="url(#p481abbd0ec)" style="fill: none; stroke: #1f77b4; stroke-width: 1.5"/>
    <path d="M 182.626 227.884958 
L 182.626 226.502654 
" clip-path="url(#p481abbd0ec)" style="fill: none; stroke: #1f77b4; stroke-width: 1.5"/>
    <path d="M 183.496295 227.248145 
L 183.496295 225.728659 
" clip-path="url(#p481abbd0ec)" style="fill: none; stroke: #1f77b4; stroke-width: 1.5"/>
    <path d="M 184.366591 227.248145 
L 184.366591 225.728659 
" clip-path="url(#p481abbd0ec)" style="fill: none; stroke: #1f77b4; stroke-width: 1.5"/>
    <path d="M 185.236886 227.248145 
L 185.236886 225.728659 
" clip-path="url(#p481abbd0ec)" style="fill: none; stroke: #1f77b4; stroke-width: 1.5"/>
    <path d="M 186.107182 227.631018 
L 186.107182 226.192271 
" clip-path="url(#p481abbd0ec)" style="fill: none; stroke: #1f77b4; stroke-width: 1.5"/>
    <path d="M 186.977477 228.011486 
L 186.977477 226.658287 
" clip-path="url(#p481abbd0ec)" style="fill: none; stroke: #1f77b4; stroke-width: 1.5"/>
    <path d="M 187.847773 227.631018 
L 187.847773 226.192271 
" clip-path="url(#p481abbd0ec)" style="fill: none; stroke: #1f77b4; stroke-width: 1.5"/>
    <path d="M 188.718068 226.991745 
L 188.718068 225.420736 
" clip-path="url(#p481abbd0ec)" style="fill: none; stroke: #1f77b4; stroke-width: 1.5"/>
    <path d="M 189.588364 226.991745 
L 189.588364 225.420736 
" clip-path="url(#p481abbd0ec)" style="fill: none; stroke: #1f77b4; stroke-width: 1.5"/>
    <path d="M 190.458659 226.605633 
L 190.458659 224.960363 
" clip-path="url(#p481abbd0ec)" style="fill: none; stroke: #1f77b4; stroke-width: 1.5"/>
    <path d="M 191.328955 227.758129 
L 191.328955 226.347321 
" clip-path="url(#p481abbd0ec)" style="fill: none; stroke: #1f77b4; stroke-width: 1.5"/>
    <path d="M 192.19925 227.248145 
L 192.19925 225.728659 
" clip-path="url(#p481abbd0ec)" style="fill: none; stroke: #1f77b4; stroke-width: 1.5"/>
    <path d="M 193.069545 227.884958 
L 193.069545 226.502654 
" clip-path="url(#p481abbd0ec)" style="fill: none; stroke: #1f77b4; stroke-width: 1.5"/>
    <path d="M 193.939841 227.758129 
L 193.939841 226.347321 
" clip-path="url(#p481abbd0ec)" style="fill: none; stroke: #1f77b4; stroke-width: 1.5"/>
    <path d="M 194.810136 227.758129 
L 194.810136 226.347321 
" clip-path="url(#p481abbd0ec)" style="fill: none; stroke: #1f77b4; stroke-width: 1.5"/>
    <path d="M 195.680432 228.137695 
L 195.680432 226.81424 
" clip-path="url(#p481abbd0ec)" style="fill: none; stroke: #1f77b4; stroke-width: 1.5"/>
    <path d="M 196.550727 225.958644 
L 196.550727 224.196545 
" clip-path="url(#p481abbd0ec)" style="fill: none; stroke: #1f77b4; stroke-width: 1.5"/>
    <path d="M 197.421023 226.347321 
L 197.421023 224.654352 
" clip-path="url(#p481abbd0ec)" style="fill: none; stroke: #1f77b4; stroke-width: 1.5"/>
    <path d="M 198.291318 226.476563 
L 198.291318 224.807272 
" clip-path="url(#p481abbd0ec)" style="fill: none; stroke: #1f77b4; stroke-width: 1.5"/>
    <path d="M 199.161614 226.991745 
L 199.161614 225.420736 
" clip-path="url(#p481abbd0ec)" style="fill: none; stroke: #1f77b4; stroke-width: 1.5"/>
    <path d="M 200.031909 227.503641 
L 200.031909 226.037487 
" clip-path="url(#p481abbd0ec)" style="fill: none; stroke: #1f77b4; stroke-width: 1.5"/>
    <path d="M 200.902205 227.758129 
L 200.902205 226.347321 
" clip-path="url(#p481abbd0ec)" style="fill: none; stroke: #1f77b4; stroke-width: 1.5"/>
    <path d="M 201.7725 227.120053 
L 201.7725 225.57459 
" clip-path="url(#p481abbd0ec)" style="fill: none; stroke: #1f77b4; stroke-width: 1.5"/>
    <path d="M 202.642795 226.347321 
L 202.642795 224.654352 
" clip-path="url(#p481abbd0ec)" style="fill: none; stroke: #1f77b4; stroke-width: 1.5"/>
    <path d="M 203.513091 226.991745 
L 203.513091 225.420736 
" clip-path="url(#p481abbd0ec)" style="fill: none; stroke: #1f77b4; stroke-width: 1.5"/>
    <path d="M 204.383386 224.654352 
L 204.383386 222.679221 
" clip-path="url(#p481abbd0ec)" style="fill: none; stroke: #1f77b4; stroke-width: 1.5"/>
    <path d="M 205.253682 227.248145 
L 205.253682 225.728659 
" clip-path="url(#p481abbd0ec)" style="fill: none; stroke: #1f77b4; stroke-width: 1.5"/>
    <path d="M 206.123977 227.376012 
L 206.123977 225.882954 
" clip-path="url(#p481abbd0ec)" style="fill: none; stroke: #1f77b4; stroke-width: 1.5"/>
    <path d="M 206.994273 227.376012 
L 206.994273 225.882954 
" clip-path="url(#p481abbd0ec)" style="fill: none; stroke: #1f77b4; stroke-width: 1.5"/>
    <path d="M 207.864568 225.828787 
L 207.864568 224.044241 
" clip-path="url(#p481abbd0ec)" style="fill: none; stroke: #1f77b4; stroke-width: 1.5"/>
    <path d="M 208.734864 226.734526 
L 208.734864 225.113632 
" clip-path="url(#p481abbd0ec)" style="fill: none; stroke: #1f77b4; stroke-width: 1.5"/>
    <path d="M 209.605159 226.217917 
L 209.605159 224.501595 
" clip-path="url(#p481abbd0ec)" style="fill: none; stroke: #1f77b4; stroke-width: 1.5"/>
    <path d="M 210.475455 226.217917 
L 210.475455 224.501595 
" clip-path="url(#p481abbd0ec)" style="fill: none; stroke: #1f77b4; stroke-width: 1.5"/>
    <path d="M 211.34575 225.177508 
L 211.34575 223.284711 
" clip-path="url(#p481abbd0ec)" style="fill: none; stroke: #1f77b4; stroke-width: 1.5"/>
    <path d="M 212.216045 225.4384 
L 212.216045 223.588143 
" clip-path="url(#p481abbd0ec)" style="fill: none; stroke: #1f77b4; stroke-width: 1.5"/>
    <path d="M 213.086341 224.392143 
L 213.086341 222.377107 
" clip-path="url(#p481abbd0ec)" style="fill: none; stroke: #1f77b4; stroke-width: 1.5"/>
    <path d="M 213.956636 225.56866 
L 213.956636 223.740044 
" clip-path="url(#p481abbd0ec)" style="fill: none; stroke: #1f77b4; stroke-width: 1.5"/>
    <path d="M 214.826932 225.56866 
L 214.826932 223.740044 
" clip-path="url(#p481abbd0ec)" style="fill: none; stroke: #1f77b4; stroke-width: 1.5"/>
    <path d="M 215.697227 225.56866 
L 215.697227 223.740044 
" clip-path="url(#p481abbd0ec)" style="fill: none; stroke: #1f77b4; stroke-width: 1.5"/>
    <path d="M 216.567523 226.088355 
L 216.567523 224.348995 
" clip-path="url(#p481abbd0ec)" style="fill: none; stroke: #1f77b4; stroke-width: 1.5"/>
    <path d="M 217.437818 226.088355 
L 217.437818 224.348995 
" clip-path="url(#p481abbd0ec)" style="fill: none; stroke: #1f77b4; stroke-width: 1.5"/>
    <path d="M 218.308114 226.734526 
L 218.308114 225.113632 
" clip-path="url(#p481abbd0ec)" style="fill: none; stroke: #1f77b4; stroke-width: 1.5"/>
    <path d="M 219.178409 224.785304 
L 219.178409 222.830431 
" clip-path="url(#p481abbd0ec)" style="fill: none; stroke: #1f77b4; stroke-width: 1.5"/>
    <path d="M 220.048705 225.56866 
L 220.048705 223.740044 
" clip-path="url(#p481abbd0ec)" style="fill: none; stroke: #1f77b4; stroke-width: 1.5"/>
    <path d="M 220.919 224.654352 
L 220.919 222.679221 
" clip-path="url(#p481abbd0ec)" style="fill: none; stroke: #1f77b4; stroke-width: 1.5"/>
    <path d="M 221.789295 226.476563 
L 221.789295 224.807272 
" clip-path="url(#p481abbd0ec)" style="fill: none; stroke: #1f77b4; stroke-width: 1.5"/>
    <path d="M 222.659591 225.4384 
L 222.659591 223.588143 
" clip-path="url(#p481abbd0ec)" style="fill: none; stroke: #1f77b4; stroke-width: 1.5"/>
    <path d="M 223.529886 226.217917 
L 223.529886 224.501595 
" clip-path="url(#p481abbd0ec)" style="fill: none; stroke: #1f77b4; stroke-width: 1.5"/>
    <path d="M 224.400182 226.088355 
L 224.400182 224.348995 
" clip-path="url(#p481abbd0ec)" style="fill: none; stroke: #1f77b4; stroke-width: 1.5"/>
    <path d="M 225.270477 224.392143 
L 225.270477 222.377107 
" clip-path="url(#p481abbd0ec)" style="fill: none; stroke: #1f77b4; stroke-width: 1.5"/>
    <path d="M 226.140773 223.207705 
L 226.140773 221.022092 
" clip-path="url(#p481abbd0ec)" style="fill: none; stroke: #1f77b4; stroke-width: 1.5"/>
    <path d="M 227.011068 224.129547 
L 227.011068 222.07538 
" clip-path="url(#p481abbd0ec)" style="fill: none; stroke: #1f77b4; stroke-width: 1.5"/>
    <path d="M 227.881364 224.654352 
L 227.881364 222.679221 
" clip-path="url(#p481abbd0ec)" style="fill: none; stroke: #1f77b4; stroke-width: 1.5"/>
    <path d="M 228.751659 225.046885 
L 228.751659 223.133173 
" clip-path="url(#p481abbd0ec)" style="fill: none; stroke: #1f77b4; stroke-width: 1.5"/>
    <path d="M 229.621955 223.339641 
L 229.621955 221.172317 
" clip-path="url(#p481abbd0ec)" style="fill: none; stroke: #1f77b4; stroke-width: 1.5"/>
    <path d="M 230.49225 223.734973 
L 230.49225 221.62347 
" clip-path="url(#p481abbd0ec)" style="fill: none; stroke: #1f77b4; stroke-width: 1.5"/>
    <path d="M 231.362545 220.555148 
L 231.362545 218.031418 
" clip-path="url(#p481abbd0ec)" style="fill: none; stroke: #1f77b4; stroke-width: 1.5"/>
    <path d="M 232.232841 221.751778 
L 232.232841 219.374242 
" clip-path="url(#p481abbd0ec)" style="fill: none; stroke: #1f77b4; stroke-width: 1.5"/>
    <path d="M 233.103136 216.002867 
L 233.103136 212.990207 
" clip-path="url(#p481abbd0ec)" style="fill: none; stroke: #1f77b4; stroke-width: 1.5"/>
    <path d="M 233.973432 218.552157 
L 233.973432 215.801986 
" clip-path="url(#p481abbd0ec)" style="fill: none; stroke: #1f77b4; stroke-width: 1.5"/>
    <path d="M 234.843727 214.252387 
L 234.843727 211.072588 
" clip-path="url(#p481abbd0ec)" style="fill: none; stroke: #1f77b4; stroke-width: 1.5"/>
    <path d="M 235.714023 210.468667 
L 235.714023 206.955784 
" clip-path="url(#p481abbd0ec)" style="fill: none; stroke: #1f77b4; stroke-width: 1.5"/>
    <path d="M 236.584318 202.043468 
L 236.584318 197.886969 
" clip-path="url(#p481abbd0ec)" style="fill: none; stroke: #1f77b4; stroke-width: 1.5"/>
    <path d="M 237.454614 198.086641 
L 237.454614 193.661111 
" clip-path="url(#p481abbd0ec)" style="fill: none; stroke: #1f77b4; stroke-width: 1.5"/>
    <path d="M 238.324909 186.723146 
L 238.324909 181.605199 
" clip-path="url(#p481abbd0ec)" style="fill: none; stroke: #1f77b4; stroke-width: 1.5"/>
    <path d="M 239.195205 176.831498 
L 239.195205 171.181217 
" clip-path="url(#p481abbd0ec)" style="fill: none; stroke: #1f77b4; stroke-width: 1.5"/>
    <path d="M 240.0655 166.36547 
L 240.0655 160.202969 
" clip-path="url(#p481abbd0ec)" style="fill: none; stroke: #1f77b4; stroke-width: 1.5"/>
    <path d="M 240.935795 156.155886 
L 240.935795 149.532599 
" clip-path="url(#p481abbd0ec)" style="fill: none; stroke: #1f77b4; stroke-width: 1.5"/>
    <path d="M 241.806091 154.222564 
L 241.806091 147.515661 
" clip-path="url(#p481abbd0ec)" style="fill: none; stroke: #1f77b4; stroke-width: 1.5"/>
    <path d="M 242.676386 161.124782 
L 242.676386 154.721518 
" clip-path="url(#p481abbd0ec)" style="fill: none; stroke: #1f77b4; stroke-width: 1.5"/>
    <path d="M 243.546682 154.636891 
L 243.546682 147.947818 
" clip-path="url(#p481abbd0ec)" style="fill: none; stroke: #1f77b4; stroke-width: 1.5"/>
    <path d="M 244.416977 167.468168 
L 244.416977 161.357563 
" clip-path="url(#p481abbd0ec)" style="fill: none; stroke: #1f77b4; stroke-width: 1.5"/>
    <path d="M 245.287273 175.455699 
L 245.287273 169.7354 
" clip-path="url(#p481abbd0ec)" style="fill: none; stroke: #1f77b4; stroke-width: 1.5"/>
    <path d="M 246.157568 182.742204 
L 246.157568 177.403457 
" clip-path="url(#p481abbd0ec)" style="fill: none; stroke: #1f77b4; stroke-width: 1.5"/>
    <path d="M 247.027864 178.481874 
L 247.027864 172.916779 
" clip-path="url(#p481abbd0ec)" style="fill: none; stroke: #1f77b4; stroke-width: 1.5"/>
    <path d="M 247.898159 172.152084 
L 247.898159 166.267139 
" clip-path="url(#p481abbd0ec)" style="fill: none; stroke: #1f77b4; stroke-width: 1.5"/>
    <path d="M 248.768455 166.779007 
L 248.768455 160.635916 
" clip-path="url(#p481abbd0ec)" style="fill: none; stroke: #1f77b4; stroke-width: 1.5"/>
    <path d="M 249.63875 146.346053 
L 249.63875 139.308964 
" clip-path="url(#p481abbd0ec)" style="fill: none; stroke: #1f77b4; stroke-width: 1.5"/>
    <path d="M 250.509045 130.848684 
L 250.509045 123.204241 
" clip-path="url(#p481abbd0ec)" style="fill: none; stroke: #1f77b4; stroke-width: 1.5"/>
    <path d="M 251.379341 96.875948 
L 251.379341 88.047403 
" clip-path="url(#p481abbd0ec)" style="fill: none; stroke: #1f77b4; stroke-width: 1.5"/>
    <path d="M 252.249636 73.816138 
L 252.249636 64.268399 
" clip-path="url(#p481abbd0ec)" style="fill: none; stroke: #1f77b4; stroke-width: 1.5"/>
    <path d="M 253.119932 41.825107 
L 253.119932 31.362278 
" clip-path="url(#p481abbd0ec)" style="fill: none; stroke: #1f77b4; stroke-width: 1.5"/>
    <path d="M 253.990227 38.484627 
L 253.990227 27.930881 
" clip-path="url(#p481abbd0ec)" style="fill: none; stroke: #1f77b4; stroke-width: 1.5"/>
    <path d="M 254.860523 49.617992 
L 254.860523 39.370438 
" clip-path="url(#p481abbd0ec)" style="fill: none; stroke: #1f77b4; stroke-width: 1.5"/>
    <path d="M 255.730818 62.693634 
L 255.730818 52.81798 
" clip-path="url(#p481abbd0ec)" style="fill: none; stroke: #1f77b4; stroke-width: 1.5"/>
    <path d="M 256.601114 92.016335 
L 256.601114 83.031362 
" clip-path="url(#p481abbd0ec)" style="fill: none; stroke: #1f77b4; stroke-width: 1.5"/>
    <path d="M 257.471409 123.368427 
L 257.471409 115.447776 
" clip-path="url(#p481abbd0ec)" style="fill: none; stroke: #1f77b4; stroke-width: 1.5"/>
    <path d="M 258.341705 148.97243 
L 258.341705 142.043655 
" clip-path="url(#p481abbd0ec)" style="fill: none; stroke: #1f77b4; stroke-width: 1.5"/>
    <path d="M 259.212 163.883614 
L 259.212 157.605917 
" clip-path="url(#p481abbd0ec)" style="fill: none; stroke: #1f77b4; stroke-width: 1.5"/>
    <path d="M 260.082295 178.344368 
L 260.082295 172.772124 
" clip-path="url(#p481abbd0ec)" style="fill: none; stroke: #1f77b4; stroke-width: 1.5"/>
    <path d="M 260.952591 191.657994 
L 260.952591 186.828166 
" clip-path="url(#p481abbd0ec)" style="fill: none; stroke: #1f77b4; stroke-width: 1.5"/>
    <path d="M 261.822886 201.498212 
L 261.822886 197.303579 
" clip-path="url(#p481abbd0ec)" style="fill: none; stroke: #1f77b4; stroke-width: 1.5"/>
    <path d="M 262.693182 205.583093 
L 262.693182 201.683543 
" clip-path="url(#p481abbd0ec)" style="fill: none; stroke: #1f77b4; stroke-width: 1.5"/>
    <path d="M 263.563477 213.038031 
L 263.563477 209.74749 
" clip-path="url(#p481abbd0ec)" style="fill: none; stroke: #1f77b4; stroke-width: 1.5"/>
    <path d="M 264.433773 215.06086 
L 264.433773 211.957083 
" clip-path="url(#p481abbd0ec)" style="fill: none; stroke: #1f77b4; stroke-width: 1.5"/>
    <path d="M 265.304068 217.614352 
L 265.304068 214.76466 
" clip-path="url(#p481abbd0ec)" style="fill: none; stroke: #1f77b4; stroke-width: 1.5"/>
    <path d="M 266.174364 219.88858 
L 266.174364 217.287179 
" clip-path="url(#p481abbd0ec)" style="fill: none; stroke: #1f77b4; stroke-width: 1.5"/>
    <path d="M 267.044659 220.688317 
L 267.044659 218.180411 
" clip-path="url(#p481abbd0ec)" style="fill: none; stroke: #1f77b4; stroke-width: 1.5"/>
    <path d="M 267.914955 220.288662 
L 267.914955 217.733581 
" clip-path="url(#p481abbd0ec)" style="fill: none; stroke: #1f77b4; stroke-width: 1.5"/>
    <path d="M 268.78525 222.414559 
L 268.78525 220.122268 
" clip-path="url(#p481abbd0ec)" style="fill: none; stroke: #1f77b4; stroke-width: 1.5"/>
    <path d="M 269.655545 222.81145 
L 269.655545 220.571862 
" clip-path="url(#p481abbd0ec)" style="fill: none; stroke: #1f77b4; stroke-width: 1.5"/>
    <path d="M 270.525841 223.734973 
L 270.525841 221.62347 
" clip-path="url(#p481abbd0ec)" style="fill: none; stroke: #1f77b4; stroke-width: 1.5"/>
    <path d="M 271.396136 225.177508 
L 271.396136 223.284711 
" clip-path="url(#p481abbd0ec)" style="fill: none; stroke: #1f77b4; stroke-width: 1.5"/>
    <path d="M 272.266432 225.4384 
L 272.266432 223.588143 
" clip-path="url(#p481abbd0ec)" style="fill: none; stroke: #1f77b4; stroke-width: 1.5"/>
    <path d="M 273.136727 226.605633 
L 273.136727 224.960363 
" clip-path="url(#p481abbd0ec)" style="fill: none; stroke: #1f77b4; stroke-width: 1.5"/>
    <path d="M 274.007023 226.476563 
L 274.007023 224.807272 
" clip-path="url(#p481abbd0ec)" style="fill: none; stroke: #1f77b4; stroke-width: 1.5"/>
    <path d="M 274.877318 226.476563 
L 274.877318 224.807272 
" clip-path="url(#p481abbd0ec)" style="fill: none; stroke: #1f77b4; stroke-width: 1.5"/>
    <path d="M 275.747614 227.248145 
L 275.747614 225.728659 
" clip-path="url(#p481abbd0ec)" style="fill: none; stroke: #1f77b4; stroke-width: 1.5"/>
    <path d="M 276.617909 226.347321 
L 276.617909 224.654352 
" clip-path="url(#p481abbd0ec)" style="fill: none; stroke: #1f77b4; stroke-width: 1.5"/>
    <path d="M 277.488205 227.503641 
L 277.488205 226.037487 
" clip-path="url(#p481abbd0ec)" style="fill: none; stroke: #1f77b4; stroke-width: 1.5"/>
    <path d="M 278.3585 227.758129 
L 278.3585 226.347321 
" clip-path="url(#p481abbd0ec)" style="fill: none; stroke: #1f77b4; stroke-width: 1.5"/>
    <path d="M 279.228795 228.886775 
L 279.228795 227.758129 
" clip-path="url(#p481abbd0ec)" style="fill: none; stroke: #1f77b4; stroke-width: 1.5"/>
    <path d="M 280.099091 228.011486 
L 280.099091 226.658287 
" clip-path="url(#p481abbd0ec)" style="fill: none; stroke: #1f77b4; stroke-width: 1.5"/>
    <path d="M 280.969386 227.758129 
L 280.969386 226.347321 
" clip-path="url(#p481abbd0ec)" style="fill: none; stroke: #1f77b4; stroke-width: 1.5"/>
    <path d="M 281.839682 229.132489 
L 281.839682 228.076738 
" clip-path="url(#p481abbd0ec)" style="fill: none; stroke: #1f77b4; stroke-width: 1.5"/>
    <path d="M 282.709977 228.011486 
L 282.709977 226.658287 
" clip-path="url(#p481abbd0ec)" style="fill: none; stroke: #1f77b4; stroke-width: 1.5"/>
    <path d="M 283.580273 228.886775 
L 283.580273 227.758129 
" clip-path="url(#p481abbd0ec)" style="fill: none; stroke: #1f77b4; stroke-width: 1.5"/>
    <path d="M 284.450568 228.638846 
L 284.450568 227.441736 
" clip-path="url(#p481abbd0ec)" style="fill: none; stroke: #1f77b4; stroke-width: 1.5"/>
    <path d="M 285.320864 229.615073 
L 285.320864 228.7228 
" clip-path="url(#p481abbd0ec)" style="fill: none; stroke: #1f77b4; stroke-width: 1.5"/>
    <path d="M 286.191159 228.389061 
L 286.191159 227.127197 
" clip-path="url(#p481abbd0ec)" style="fill: none; stroke: #1f77b4; stroke-width: 1.5"/>
    <path d="M 287.061455 229.615073 
L 287.061455 228.7228 
" clip-path="url(#p481abbd0ec)" style="fill: none; stroke: #1f77b4; stroke-width: 1.5"/>
    <path d="M 287.93175 229.73326 
L 287.93175 228.886775 
" clip-path="url(#p481abbd0ec)" style="fill: none; stroke: #1f77b4; stroke-width: 1.5"/>
    <path d="M 288.802045 229.375493 
L 288.802045 228.398057 
" clip-path="url(#p481abbd0ec)" style="fill: none; stroke: #1f77b4; stroke-width: 1.5"/>
    <path d="M 289.672341 230.078836 
L 289.672341 229.387684 
" clip-path="url(#p481abbd0ec)" style="fill: none; stroke: #1f77b4; stroke-width: 1.5"/>
    <path d="M 290.542636 229.132489 
L 290.542636 228.076738 
" clip-path="url(#p481abbd0ec)" style="fill: none; stroke: #1f77b4; stroke-width: 1.5"/>
    <path d="M 291.412932 228.886775 
L 291.412932 227.758129 
" clip-path="url(#p481abbd0ec)" style="fill: none; stroke: #1f77b4; stroke-width: 1.5"/>
    <path d="M 292.283227 229.615073 
L 292.283227 228.7228 
" clip-path="url(#p481abbd0ec)" style="fill: none; stroke: #1f77b4; stroke-width: 1.5"/>
    <path d="M 293.153523 229.965444 
L 293.153523 229.218914 
" clip-path="url(#p481abbd0ec)" style="fill: none; stroke: #1f77b4; stroke-width: 1.5"/>
    <path d="M 294.023818 229.73326 
L 294.023818 228.886775 
" clip-path="url(#p481abbd0ec)" style="fill: none; stroke: #1f77b4; stroke-width: 1.5"/>
    <path d="M 294.894114 229.965444 
L 294.894114 229.218914 
" clip-path="url(#p481abbd0ec)" style="fill: none; stroke: #1f77b4; stroke-width: 1.5"/>
    <path d="M 295.764409 229.850135 
L 295.764409 229.052062 
" clip-path="url(#p481abbd0ec)" style="fill: none; stroke: #1f77b4; stroke-width: 1.5"/>
    <path d="M 296.634705 229.73326 
L 296.634705 228.886775 
" clip-path="url(#p481abbd0ec)" style="fill: none; stroke: #1f77b4; stroke-width: 1.5"/>
    <path d="M 297.505 229.254368 
L 297.505 228.23702 
" clip-path="url(#p481abbd0ec)" style="fill: none; stroke: #1f77b4; stroke-width: 1.5"/>
    <path d="M 298.375295 229.615073 
L 298.375295 228.7228 
" clip-path="url(#p481abbd0ec)" style="fill: none; stroke: #1f77b4; stroke-width: 1.5"/>
    <path d="M 299.245591 229.254368 
L 299.245591 228.23702 
" clip-path="url(#p481abbd0ec)" style="fill: none; stroke: #1f77b4; stroke-width: 1.5"/>
    <path d="M 300.115886 229.965444 
L 300.115886 229.218914 
" clip-path="url(#p481abbd0ec)" style="fill: none; stroke: #1f77b4; stroke-width: 1.5"/>
    <path d="M 300.986182 230.297583 
L 300.986182 229.73326 
" clip-path="url(#p481abbd0ec)" style="fill: none; stroke: #1f77b4; stroke-width: 1.5"/>
    <path d="M 301.856477 229.132489 
L 301.856477 228.076738 
" clip-path="url(#p481abbd0ec)" style="fill: none; stroke: #1f77b4; stroke-width: 1.5"/>
    <path d="M 302.726773 230.078836 
L 302.726773 229.387684 
" clip-path="url(#p481abbd0ec)" style="fill: none; stroke: #1f77b4; stroke-width: 1.5"/>
    <path d="M 303.597068 229.615073 
L 303.597068 228.7228 
" clip-path="url(#p481abbd0ec)" style="fill: none; stroke: #1f77b4; stroke-width: 1.5"/>
    <path d="M 304.467364 229.73326 
L 304.467364 228.886775 
" clip-path="url(#p481abbd0ec)" style="fill: none; stroke: #1f77b4; stroke-width: 1.5"/>
    <path d="M 305.337659 229.965444 
L 305.337659 229.218914 
" clip-path="url(#p481abbd0ec)" style="fill: none; stroke: #1f77b4; stroke-width: 1.5"/>
    <path d="M 306.207955 229.375493 
L 306.207955 228.398057 
" clip-path="url(#p481abbd0ec)" style="fill: none; stroke: #1f77b4; stroke-width: 1.5"/>
    <path d="M 307.07825 229.965444 
L 307.07825 229.218914 
" clip-path="url(#p481abbd0ec)" style="fill: none; stroke: #1f77b4; stroke-width: 1.5"/>
    <path d="M 307.948545 230.297583 
L 307.948545 229.73326 
" clip-path="url(#p481abbd0ec)" style="fill: none; stroke: #1f77b4; stroke-width: 1.5"/>
    <path d="M 308.818841 230.189807 
L 308.818841 229.558874 
" clip-path="url(#p481abbd0ec)" style="fill: none; stroke: #1f77b4; stroke-width: 1.5"/>
    <path d="M 309.689136 229.850135 
L 309.689136 229.052062 
" clip-path="url(#p481abbd0ec)" style="fill: none; stroke: #1f77b4; stroke-width: 1.5"/>
    <path d="M 310.559432 229.850135 
L 310.559432 229.052062 
" clip-path="url(#p481abbd0ec)" style="fill: none; stroke: #1f77b4; stroke-width: 1.5"/>
    <path d="M 311.429727 229.73326 
L 311.429727 228.886775 
" clip-path="url(#p481abbd0ec)" style="fill: none; stroke: #1f77b4; stroke-width: 1.5"/>
    <path d="M 312.300023 230.189807 
L 312.300023 229.558874 
" clip-path="url(#p481abbd0ec)" style="fill: none; stroke: #1f77b4; stroke-width: 1.5"/>
    <path d="M 313.170318 230.297583 
L 313.170318 229.73326 
" clip-path="url(#p481abbd0ec)" style="fill: none; stroke: #1f77b4; stroke-width: 1.5"/>
    <path d="M 314.040614 230.400861 
L 314.040614 229.912143 
" clip-path="url(#p481abbd0ec)" style="fill: none; stroke: #1f77b4; stroke-width: 1.5"/>
    <path d="M 314.910909 229.375493 
L 314.910909 228.398057 
" clip-path="url(#p481abbd0ec)" style="fill: none; stroke: #1f77b4; stroke-width: 1.5"/>
    <path d="M 315.781205 230.078836 
L 315.781205 229.387684 
" clip-path="url(#p481abbd0ec)" style="fill: none; stroke: #1f77b4; stroke-width: 1.5"/>
    <path d="M 316.6515 230.078836 
L 316.6515 229.387684 
" clip-path="url(#p481abbd0ec)" style="fill: none; stroke: #1f77b4; stroke-width: 1.5"/>
    <path d="M 317.521795 229.73326 
L 317.521795 228.886775 
" clip-path="url(#p481abbd0ec)" style="fill: none; stroke: #1f77b4; stroke-width: 1.5"/>
    <path d="M 318.392091 230.078836 
L 318.392091 229.387684 
" clip-path="url(#p481abbd0ec)" style="fill: none; stroke: #1f77b4; stroke-width: 1.5"/>
    <path d="M 319.262386 230.297583 
L 319.262386 229.73326 
" clip-path="url(#p481abbd0ec)" style="fill: none; stroke: #1f77b4; stroke-width: 1.5"/>
    <path d="M 320.132682 230.078836 
L 320.132682 229.387684 
" clip-path="url(#p481abbd0ec)" style="fill: none; stroke: #1f77b4; stroke-width: 1.5"/>
    <path d="M 321.002977 230.078836 
L 321.002977 229.387684 
" clip-path="url(#p481abbd0ec)" style="fill: none; stroke: #1f77b4; stroke-width: 1.5"/>
    <path d="M 321.873273 230.189807 
L 321.873273 229.558874 
" clip-path="url(#p481abbd0ec)" style="fill: none; stroke: #1f77b4; stroke-width: 1.5"/>
    <path d="M 322.743568 230.497101 
L 322.743568 230.098064 
" clip-path="url(#p481abbd0ec)" style="fill: none; stroke: #1f77b4; stroke-width: 1.5"/>
    <path d="M 323.613864 230.297583 
L 323.613864 229.73326 
" clip-path="url(#p481abbd0ec)" style="fill: none; stroke: #1f77b4; stroke-width: 1.5"/>
    <path d="M 324.484159 230.579744 
L 324.484159 230.297583 
" clip-path="url(#p481abbd0ec)" style="fill: none; stroke: #1f77b4; stroke-width: 1.5"/>
    <path d="M 325.354455 229.615073 
L 325.354455 228.7228 
" clip-path="url(#p481abbd0ec)" style="fill: none; stroke: #1f77b4; stroke-width: 1.5"/>
    <path d="M 326.22475 230.078836 
L 326.22475 229.387684 
" clip-path="url(#p481abbd0ec)" style="fill: none; stroke: #1f77b4; stroke-width: 1.5"/>
    <path d="M 327.095045 230.078836 
L 327.095045 229.387684 
" clip-path="url(#p481abbd0ec)" style="fill: none; stroke: #1f77b4; stroke-width: 1.5"/>
    <path d="M 327.965341 230.078836 
L 327.965341 229.387684 
" clip-path="url(#p481abbd0ec)" style="fill: none; stroke: #1f77b4; stroke-width: 1.5"/>
    <path d="M 328.835636 229.965444 
L 328.835636 229.218914 
" clip-path="url(#p481abbd0ec)" style="fill: none; stroke: #1f77b4; stroke-width: 1.5"/>
    <path d="M 329.705932 230.189807 
L 329.705932 229.558874 
" clip-path="url(#p481abbd0ec)" style="fill: none; stroke: #1f77b4; stroke-width: 1.5"/>
    <path d="M 330.576227 229.73326 
L 330.576227 228.886775 
" clip-path="url(#p481abbd0ec)" style="fill: none; stroke: #1f77b4; stroke-width: 1.5"/>
    <path d="M 331.446523 229.965444 
L 331.446523 229.218914 
" clip-path="url(#p481abbd0ec)" style="fill: none; stroke: #1f77b4; stroke-width: 1.5"/>
    <path d="M 332.316818 230.189807 
L 332.316818 229.558874 
" clip-path="url(#p481abbd0ec)" style="fill: none; stroke: #1f77b4; stroke-width: 1.5"/>
    <path d="M 333.187114 230.497101 
L 333.187114 230.098064 
" clip-path="url(#p481abbd0ec)" style="fill: none; stroke: #1f77b4; stroke-width: 1.5"/>
    <path d="M 334.057409 230.579744 
L 334.057409 230.297583 
" clip-path="url(#p481abbd0ec)" style="fill: none; stroke: #1f77b4; stroke-width: 1.5"/>
    <path d="M 334.927705 230.078836 
L 334.927705 229.387684 
" clip-path="url(#p481abbd0ec)" style="fill: none; stroke: #1f77b4; stroke-width: 1.5"/>
    <path d="M 335.798 230.078836 
L 335.798 229.387684 
" clip-path="url(#p481abbd0ec)" style="fill: none; stroke: #1f77b4; stroke-width: 1.5"/>
    <path d="M 336.668295 230.297583 
L 336.668295 229.73326 
" clip-path="url(#p481abbd0ec)" style="fill: none; stroke: #1f77b4; stroke-width: 1.5"/>
    <path d="M 337.538591 230.400861 
L 337.538591 229.912143 
" clip-path="url(#p481abbd0ec)" style="fill: none; stroke: #1f77b4; stroke-width: 1.5"/>
    <path d="M 338.408886 230.297583 
L 338.408886 229.73326 
" clip-path="url(#p481abbd0ec)" style="fill: none; stroke: #1f77b4; stroke-width: 1.5"/>
    <path d="M 339.279182 229.615073 
L 339.279182 228.7228 
" clip-path="url(#p481abbd0ec)" style="fill: none; stroke: #1f77b4; stroke-width: 1.5"/>
    <path d="M 340.149477 230.078836 
L 340.149477 229.387684 
" clip-path="url(#p481abbd0ec)" style="fill: none; stroke: #1f77b4; stroke-width: 1.5"/>
    <path d="M 341.019773 229.965444 
L 341.019773 229.218914 
" clip-path="url(#p481abbd0ec)" style="fill: none; stroke: #1f77b4; stroke-width: 1.5"/>
    <path d="M 341.890068 230.400861 
L 341.890068 229.912143 
" clip-path="url(#p481abbd0ec)" style="fill: none; stroke: #1f77b4; stroke-width: 1.5"/>
    <path d="M 342.760364 230.400861 
L 342.760364 229.912143 
" clip-path="url(#p481abbd0ec)" style="fill: none; stroke: #1f77b4; stroke-width: 1.5"/>
    <path d="M 343.630659 229.375493 
L 343.630659 228.398057 
" clip-path="url(#p481abbd0ec)" style="fill: none; stroke: #1f77b4; stroke-width: 1.5"/>
    <path d="M 344.500955 229.965444 
L 344.500955 229.218914 
" clip-path="url(#p481abbd0ec)" style="fill: none; stroke: #1f77b4; stroke-width: 1.5"/>
    <path d="M 345.37125 230.078836 
L 345.37125 229.387684 
" clip-path="url(#p481abbd0ec)" style="fill: none; stroke: #1f77b4; stroke-width: 1.5"/>
    <path d="M 346.241545 230.189807 
L 346.241545 229.558874 
" clip-path="url(#p481abbd0ec)" style="fill: none; stroke: #1f77b4; stroke-width: 1.5"/>
    <path d="M 347.111841 230.297583 
L 347.111841 229.73326 
" clip-path="url(#p481abbd0ec)" style="fill: none; stroke: #1f77b4; stroke-width: 1.5"/>
    <path d="M 347.982136 230.189807 
L 347.982136 229.558874 
" clip-path="url(#p481abbd0ec)" style="fill: none; stroke: #1f77b4; stroke-width: 1.5"/>
    <path d="M 348.852432 230.078836 
L 348.852432 229.387684 
" clip-path="url(#p481abbd0ec)" style="fill: none; stroke: #1f77b4; stroke-width: 1.5"/>
    <path d="M 349.722727 230.297583 
L 349.722727 229.73326 
" clip-path="url(#p481abbd0ec)" style="fill: none; stroke: #1f77b4; stroke-width: 1.5"/>
    <path d="M 350.593023 230.297583 
L 350.593023 229.73326 
" clip-path="url(#p481abbd0ec)" style="fill: none; stroke: #1f77b4; stroke-width: 1.5"/>
    <path d="M 351.463318 230.078836 
L 351.463318 229.387684 
" clip-path="url(#p481abbd0ec)" style="fill: none; stroke: #1f77b4; stroke-width: 1.5"/>
    <path d="M 352.333614 230.497101 
L 352.333614 230.098064 
" clip-path="url(#p481abbd0ec)" style="fill: none; stroke: #1f77b4; stroke-width: 1.5"/>
    <path d="M 353.203909 230.297583 
L 353.203909 229.73326 
" clip-path="url(#p481abbd0ec)" style="fill: none; stroke: #1f77b4; stroke-width: 1.5"/>
    <path d="M 354.074205 230.189807 
L 354.074205 229.558874 
" clip-path="url(#p481abbd0ec)" style="fill: none; stroke: #1f77b4; stroke-width: 1.5"/>
    <path d="M 354.9445 230.297583 
L 354.9445 229.73326 
" clip-path="url(#p481abbd0ec)" style="fill: none; stroke: #1f77b4; stroke-width: 1.5"/>
    <path d="M 355.814795 230.579744 
L 355.814795 230.297583 
" clip-path="url(#p481abbd0ec)" style="fill: none; stroke: #1f77b4; stroke-width: 1.5"/>
    <path d="M 356.685091 230.189807 
L 356.685091 229.558874 
" clip-path="url(#p481abbd0ec)" style="fill: none; stroke: #1f77b4; stroke-width: 1.5"/>
    <path d="M 357.555386 230.078836 
L 357.555386 229.387684 
" clip-path="url(#p481abbd0ec)" style="fill: none; stroke: #1f77b4; stroke-width: 1.5"/>
    <path d="M 358.425682 230.078836 
L 358.425682 229.387684 
" clip-path="url(#p481abbd0ec)" style="fill: none; stroke: #1f77b4; stroke-width: 1.5"/>
    <path d="M 359.295977 230.497101 
L 359.295977 230.098064 
" clip-path="url(#p481abbd0ec)" style="fill: none; stroke: #1f77b4; stroke-width: 1.5"/>
    <path d="M 360.166273 230.297583 
L 360.166273 229.73326 
" clip-path="url(#p481abbd0ec)" style="fill: none; stroke: #1f77b4; stroke-width: 1.5"/>
    <path d="M 361.036568 230.189807 
L 361.036568 229.558874 
" clip-path="url(#p481abbd0ec)" style="fill: none; stroke: #1f77b4; stroke-width: 1.5"/>
    <path d="M 361.906864 230.497101 
L 361.906864 230.098064 
" clip-path="url(#p481abbd0ec)" style="fill: none; stroke: #1f77b4; stroke-width: 1.5"/>
    <path d="M 362.777159 230.297583 
L 362.777159 229.73326 
" clip-path="url(#p481abbd0ec)" style="fill: none; stroke: #1f77b4; stroke-width: 1.5"/>
    <path d="M 363.647455 230.297583 
L 363.647455 229.73326 
" clip-path="url(#p481abbd0ec)" style="fill: none; stroke: #1f77b4; stroke-width: 1.5"/>
    <path d="M 364.51775 230.400861 
L 364.51775 229.912143 
" clip-path="url(#p481abbd0ec)" style="fill: none; stroke: #1f77b4; stroke-width: 1.5"/>
    <path d="M 365.388045 230.189807 
L 365.388045 229.558874 
" clip-path="url(#p481abbd0ec)" style="fill: none; stroke: #1f77b4; stroke-width: 1.5"/>
    <path d="M 366.258341 230.497101 
L 366.258341 230.098064 
" clip-path="url(#p481abbd0ec)" style="fill: none; stroke: #1f77b4; stroke-width: 1.5"/>
    <path d="M 367.128636 230.297583 
L 367.128636 229.73326 
" clip-path="url(#p481abbd0ec)" style="fill: none; stroke: #1f77b4; stroke-width: 1.5"/>
    <path d="M 367.998932 230.189807 
L 367.998932 229.558874 
" clip-path="url(#p481abbd0ec)" style="fill: none; stroke: #1f77b4; stroke-width: 1.5"/>
    <path d="M 368.869227 230.189807 
L 368.869227 229.558874 
" clip-path="url(#p481abbd0ec)" style="fill: none; stroke: #1f77b4; stroke-width: 1.5"/>
    <path d="M 369.739523 230.497101 
L 369.739523 230.098064 
" clip-path="url(#p481abbd0ec)" style="fill: none; stroke: #1f77b4; stroke-width: 1.5"/>
    <path d="M 370.609818 230.579744 
L 370.609818 230.297583 
" clip-path="url(#p481abbd0ec)" style="fill: none; stroke: #1f77b4; stroke-width: 1.5"/>
    <path d="M 371.480114 230.189807 
L 371.480114 229.558874 
" clip-path="url(#p481abbd0ec)" style="fill: none; stroke: #1f77b4; stroke-width: 1.5"/>
    <path d="M 372.350409 230.400861 
L 372.350409 229.912143 
" clip-path="url(#p481abbd0ec)" style="fill: none; stroke: #1f77b4; stroke-width: 1.5"/>
    <path d="M 373.220705 230.297583 
L 373.220705 229.73326 
" clip-path="url(#p481abbd0ec)" style="fill: none; stroke: #1f77b4; stroke-width: 1.5"/>
    <path d="M 374.091 230.579744 
L 374.091 230.579744 
" clip-path="url(#p481abbd0ec)" style="fill: none; stroke: #1f77b4; stroke-width: 1.5"/>
    <path d="M 374.961295 230.400861 
L 374.961295 229.912143 
" clip-path="url(#p481abbd0ec)" style="fill: none; stroke: #1f77b4; stroke-width: 1.5"/>
    <path d="M 375.831591 229.850135 
L 375.831591 229.052062 
" clip-path="url(#p481abbd0ec)" style="fill: none; stroke: #1f77b4; stroke-width: 1.5"/>
    <path d="M 376.701886 229.850135 
L 376.701886 229.052062 
" clip-path="url(#p481abbd0ec)" style="fill: none; stroke: #1f77b4; stroke-width: 1.5"/>
    <path d="M 377.572182 230.297583 
L 377.572182 229.73326 
" clip-path="url(#p481abbd0ec)" style="fill: none; stroke: #1f77b4; stroke-width: 1.5"/>
    <path d="M 378.442477 230.078836 
L 378.442477 229.387684 
" clip-path="url(#p481abbd0ec)" style="fill: none; stroke: #1f77b4; stroke-width: 1.5"/>
    <path d="M 379.312773 230.579744 
L 379.312773 230.297583 
" clip-path="url(#p481abbd0ec)" style="fill: none; stroke: #1f77b4; stroke-width: 1.5"/>
    <path d="M 380.183068 230.400861 
L 380.183068 229.912143 
" clip-path="url(#p481abbd0ec)" style="fill: none; stroke: #1f77b4; stroke-width: 1.5"/>
    <path d="M 381.053364 230.400861 
L 381.053364 229.912143 
" clip-path="url(#p481abbd0ec)" style="fill: none; stroke: #1f77b4; stroke-width: 1.5"/>
    <path d="M 381.923659 230.579744 
L 381.923659 230.297583 
" clip-path="url(#p481abbd0ec)" style="fill: none; stroke: #1f77b4; stroke-width: 1.5"/>
    <path d="M 382.793955 230.497101 
L 382.793955 230.098064 
" clip-path="url(#p481abbd0ec)" style="fill: none; stroke: #1f77b4; stroke-width: 1.5"/>
    <path d="M 383.66425 230.497101 
L 383.66425 230.098064 
" clip-path="url(#p481abbd0ec)" style="fill: none; stroke: #1f77b4; stroke-width: 1.5"/>
    <path d="M 384.534545 229.965444 
L 384.534545 229.218914 
" clip-path="url(#p481abbd0ec)" style="fill: none; stroke: #1f77b4; stroke-width: 1.5"/>
    <path d="M 385.404841 230.297583 
L 385.404841 229.73326 
" clip-path="url(#p481abbd0ec)" style="fill: none; stroke: #1f77b4; stroke-width: 1.5"/>
    <path d="M 386.275136 230.400861 
L 386.275136 229.912143 
" clip-path="url(#p481abbd0ec)" style="fill: none; stroke: #1f77b4; stroke-width: 1.5"/>
    <path d="M 387.145432 230.297583 
L 387.145432 229.73326 
" clip-path="url(#p481abbd0ec)" style="fill: none; stroke: #1f77b4; stroke-width: 1.5"/>
    <path d="M 388.015727 230.400861 
L 388.015727 229.912143 
" clip-path="url(#p481abbd0ec)" style="fill: none; stroke: #1f77b4; stroke-width: 1.5"/>
    <path d="M 388.886023 230.579744 
L 388.886023 230.579744 
" clip-path="url(#p481abbd0ec)" style="fill: none; stroke: #1f77b4; stroke-width: 1.5"/>
    <path d="M 389.756318 230.579744 
L 389.756318 230.297583 
" clip-path="url(#p481abbd0ec)" style="fill: none; stroke: #1f77b4; stroke-width: 1.5"/>
    <path d="M 390.626614 230.579744 
L 390.626614 230.297583 
" clip-path="url(#p481abbd0ec)" style="fill: none; stroke: #1f77b4; stroke-width: 1.5"/>
    <path d="M 391.496909 229.965444 
L 391.496909 229.218914 
" clip-path="url(#p481abbd0ec)" style="fill: none; stroke: #1f77b4; stroke-width: 1.5"/>
    <path d="M 392.367205 230.189807 
L 392.367205 229.558874 
" clip-path="url(#p481abbd0ec)" style="fill: none; stroke: #1f77b4; stroke-width: 1.5"/>
    <path d="M 393.2375 230.189807 
L 393.2375 229.558874 
" clip-path="url(#p481abbd0ec)" style="fill: none; stroke: #1f77b4; stroke-width: 1.5"/>
    <path d="M 394.107795 230.297583 
L 394.107795 229.73326 
" clip-path="url(#p481abbd0ec)" style="fill: none; stroke: #1f77b4; stroke-width: 1.5"/>
    <path d="M 394.978091 230.297583 
L 394.978091 229.73326 
" clip-path="url(#p481abbd0ec)" style="fill: none; stroke: #1f77b4; stroke-width: 1.5"/>
    <path d="M 395.848386 230.497101 
L 395.848386 230.098064 
" clip-path="url(#p481abbd0ec)" style="fill: none; stroke: #1f77b4; stroke-width: 1.5"/>
    <path d="M 396.718682 230.497101 
L 396.718682 230.098064 
" clip-path="url(#p481abbd0ec)" style="fill: none; stroke: #1f77b4; stroke-width: 1.5"/>
    <path d="M 397.588977 230.400861 
L 397.588977 229.912143 
" clip-path="url(#p481abbd0ec)" style="fill: none; stroke: #1f77b4; stroke-width: 1.5"/>
    <path d="M 398.459273 230.297583 
L 398.459273 229.73326 
" clip-path="url(#p481abbd0ec)" style="fill: none; stroke: #1f77b4; stroke-width: 1.5"/>
    <path d="M 399.329568 230.579744 
L 399.329568 230.297583 
" clip-path="url(#p481abbd0ec)" style="fill: none; stroke: #1f77b4; stroke-width: 1.5"/>
   </g>
  </g>
 </g>
 <defs>
  <clipPath id="p481abbd0ec">
   <rect x="34.240625" y="17.798437" width="382.93" height="222.91375"/>
  </clipPath>
 </defs>
</svg>
