<?xml version="1.0" encoding="utf-8" standalone="no"?>
<!DOCTYPE svg PUBLIC "-//W3C//DTD SVG 1.1//EN"
  "http://www.w3.org/Graphics/SVG/1.1/DTD/svg11.dtd">
<svg xmlns:xlink="http://www.w3.org/1999/xlink" width="388.965625pt" height="266.51625pt" viewBox="0 0 388.965625 266.51625" xmlns="http://www.w3.org/2000/svg" version="1.1">
 <metadata>
  <rdf:RDF xmlns:dc="http://purl.org/dc/elements/1.1/" xmlns:cc="http://creativecommons.org/ns#" xmlns:rdf="http://www.w3.org/1999/02/22-rdf-syntax-ns#">
   <cc:Work>
    <dc:type rdf:resource="http://purl.org/dc/dcmitype/StillImage"/>
    <dc:date>2025-09-01T11:55:20.994549</dc:date>
    <dc:format>image/svg+xml</dc:format>
    <dc:creator>
     <cc:Agent>
      <dc:title>Matplotlib v3.10.3, https://matplotlib.org/</dc:title>
     </cc:Agent>
    </dc:creator>
   </cc:Work>
  </rdf:RDF>
 </metadata>
 <defs>
  <style type="text/css">*{stroke-linejoin: round; stroke-linecap: butt}</style>
 </defs>
 <g id="figure_1">
  <g id="patch_1">
   <path d="M 0 266.51625 
L 388.965625 266.51625 
L 388.965625 0 
L 0 0 
z
" style="fill: #ffffff"/>
  </g>
  <g id="axes_1">
   <g id="patch_2">
    <path d="M 46.965625 228.96 
L 381.765625 228.96 
L 381.765625 7.2 
L 46.965625 7.2 
z
" style="fill: #ffffff"/>
   </g>
   <g id="matplotlib.axis_1">
    <g id="xtick_1">
     <g id="line2d_1">
      <defs>
       <path id="mbf085a45fa" d="M 0 0 
L 0 3.5 
" style="stroke: #000000; stroke-width: 0.8"/>
      </defs>
      <g>
       <use xlink:href="#mbf085a45fa" x="62.183807" y="228.96" style="stroke: #000000; stroke-width: 0.8"/>
      </g>
     </g>
     <g id="text_1">
      <!-- 0.0 -->
      <g transform="translate(54.232244 243.558437) scale(0.1 -0.1)">
       <defs>
        <path id="DejaVuSans-30" d="M 2034 4250 
Q 1547 4250 1301 3770 
Q 1056 3291 1056 2328 
Q 1056 1369 1301 889 
Q 1547 409 2034 409 
Q 2525 409 2770 889 
Q 3016 1369 3016 2328 
Q 3016 3291 2770 3770 
Q 2525 4250 2034 4250 
z
M 2034 4750 
Q 2819 4750 3233 4129 
Q 3647 3509 3647 2328 
Q 3647 1150 3233 529 
Q 2819 -91 2034 -91 
Q 1250 -91 836 529 
Q 422 1150 422 2328 
Q 422 3509 836 4129 
Q 1250 4750 2034 4750 
z
" transform="scale(0.015625)"/>
        <path id="DejaVuSans-2e" d="M 684 794 
L 1344 794 
L 1344 0 
L 684 0 
L 684 794 
z
" transform="scale(0.015625)"/>
       </defs>
       <use xlink:href="#DejaVuSans-30"/>
       <use xlink:href="#DejaVuSans-2e" transform="translate(63.623047 0)"/>
       <use xlink:href="#DejaVuSans-30" transform="translate(95.410156 0)"/>
      </g>
     </g>
    </g>
    <g id="xtick_2">
     <g id="line2d_2">
      <g>
       <use xlink:href="#mbf085a45fa" x="123.056534" y="228.96" style="stroke: #000000; stroke-width: 0.8"/>
      </g>
     </g>
     <g id="text_2">
      <!-- 0.2 -->
      <g transform="translate(115.104972 243.558437) scale(0.1 -0.1)">
       <defs>
        <path id="DejaVuSans-32" d="M 1228 531 
L 3431 531 
L 3431 0 
L 469 0 
L 469 531 
Q 828 903 1448 1529 
Q 2069 2156 2228 2338 
Q 2531 2678 2651 2914 
Q 2772 3150 2772 3378 
Q 2772 3750 2511 3984 
Q 2250 4219 1831 4219 
Q 1534 4219 1204 4116 
Q 875 4013 500 3803 
L 500 4441 
Q 881 4594 1212 4672 
Q 1544 4750 1819 4750 
Q 2544 4750 2975 4387 
Q 3406 4025 3406 3419 
Q 3406 3131 3298 2873 
Q 3191 2616 2906 2266 
Q 2828 2175 2409 1742 
Q 1991 1309 1228 531 
z
" transform="scale(0.015625)"/>
       </defs>
       <use xlink:href="#DejaVuSans-30"/>
       <use xlink:href="#DejaVuSans-2e" transform="translate(63.623047 0)"/>
       <use xlink:href="#DejaVuSans-32" transform="translate(95.410156 0)"/>
      </g>
     </g>
    </g>
    <g id="xtick_3">
     <g id="line2d_3">
      <g>
       <use xlink:href="#mbf085a45fa" x="183.929261" y="228.96" style="stroke: #000000; stroke-width: 0.8"/>
      </g>
     </g>
     <g id="text_3">
      <!-- 0.4 -->
      <g transform="translate(175.977699 243.558437) scale(0.1 -0.1)">
       <defs>
        <path id="DejaVuSans-34" d="M 2419 4116 
L 825 1625 
L 2419 1625 
L 2419 4116 
z
M 2253 4666 
L 3047 4666 
L 3047 1625 
L 3713 1625 
L 3713 1100 
L 3047 1100 
L 3047 0 
L 2419 0 
L 2419 1100 
L 313 1100 
L 313 1709 
L 2253 4666 
z
" transform="scale(0.015625)"/>
       </defs>
       <use xlink:href="#DejaVuSans-30"/>
       <use xlink:href="#DejaVuSans-2e" transform="translate(63.623047 0)"/>
       <use xlink:href="#DejaVuSans-34" transform="translate(95.410156 0)"/>
      </g>
     </g>
    </g>
    <g id="xtick_4">
     <g id="line2d_4">
      <g>
       <use xlink:href="#mbf085a45fa" x="244.801989" y="228.96" style="stroke: #000000; stroke-width: 0.8"/>
      </g>
     </g>
     <g id="text_4">
      <!-- 0.6 -->
      <g transform="translate(236.850426 243.558437) scale(0.1 -0.1)">
       <defs>
        <path id="DejaVuSans-36" d="M 2113 2584 
Q 1688 2584 1439 2293 
Q 1191 2003 1191 1497 
Q 1191 994 1439 701 
Q 1688 409 2113 409 
Q 2538 409 2786 701 
Q 3034 994 3034 1497 
Q 3034 2003 2786 2293 
Q 2538 2584 2113 2584 
z
M 3366 4563 
L 3366 3988 
Q 3128 4100 2886 4159 
Q 2644 4219 2406 4219 
Q 1781 4219 1451 3797 
Q 1122 3375 1075 2522 
Q 1259 2794 1537 2939 
Q 1816 3084 2150 3084 
Q 2853 3084 3261 2657 
Q 3669 2231 3669 1497 
Q 3669 778 3244 343 
Q 2819 -91 2113 -91 
Q 1303 -91 875 529 
Q 447 1150 447 2328 
Q 447 3434 972 4092 
Q 1497 4750 2381 4750 
Q 2619 4750 2861 4703 
Q 3103 4656 3366 4563 
z
" transform="scale(0.015625)"/>
       </defs>
       <use xlink:href="#DejaVuSans-30"/>
       <use xlink:href="#DejaVuSans-2e" transform="translate(63.623047 0)"/>
       <use xlink:href="#DejaVuSans-36" transform="translate(95.410156 0)"/>
      </g>
     </g>
    </g>
    <g id="xtick_5">
     <g id="line2d_5">
      <g>
       <use xlink:href="#mbf085a45fa" x="305.674716" y="228.96" style="stroke: #000000; stroke-width: 0.8"/>
      </g>
     </g>
     <g id="text_5">
      <!-- 0.8 -->
      <g transform="translate(297.723153 243.558437) scale(0.1 -0.1)">
       <defs>
        <path id="DejaVuSans-38" d="M 2034 2216 
Q 1584 2216 1326 1975 
Q 1069 1734 1069 1313 
Q 1069 891 1326 650 
Q 1584 409 2034 409 
Q 2484 409 2743 651 
Q 3003 894 3003 1313 
Q 3003 1734 2745 1975 
Q 2488 2216 2034 2216 
z
M 1403 2484 
Q 997 2584 770 2862 
Q 544 3141 544 3541 
Q 544 4100 942 4425 
Q 1341 4750 2034 4750 
Q 2731 4750 3128 4425 
Q 3525 4100 3525 3541 
Q 3525 3141 3298 2862 
Q 3072 2584 2669 2484 
Q 3125 2378 3379 2068 
Q 3634 1759 3634 1313 
Q 3634 634 3220 271 
Q 2806 -91 2034 -91 
Q 1263 -91 848 271 
Q 434 634 434 1313 
Q 434 1759 690 2068 
Q 947 2378 1403 2484 
z
M 1172 3481 
Q 1172 3119 1398 2916 
Q 1625 2713 2034 2713 
Q 2441 2713 2670 2916 
Q 2900 3119 2900 3481 
Q 2900 3844 2670 4047 
Q 2441 4250 2034 4250 
Q 1625 4250 1398 4047 
Q 1172 3844 1172 3481 
z
" transform="scale(0.015625)"/>
       </defs>
       <use xlink:href="#DejaVuSans-30"/>
       <use xlink:href="#DejaVuSans-2e" transform="translate(63.623047 0)"/>
       <use xlink:href="#DejaVuSans-38" transform="translate(95.410156 0)"/>
      </g>
     </g>
    </g>
    <g id="xtick_6">
     <g id="line2d_6">
      <g>
       <use xlink:href="#mbf085a45fa" x="366.547443" y="228.96" style="stroke: #000000; stroke-width: 0.8"/>
      </g>
     </g>
     <g id="text_6">
      <!-- 1.0 -->
      <g transform="translate(358.595881 243.558437) scale(0.1 -0.1)">
       <defs>
        <path id="DejaVuSans-31" d="M 794 531 
L 1825 531 
L 1825 4091 
L 703 3866 
L 703 4441 
L 1819 4666 
L 2450 4666 
L 2450 531 
L 3481 531 
L 3481 0 
L 794 0 
L 794 531 
z
" transform="scale(0.015625)"/>
       </defs>
       <use xlink:href="#DejaVuSans-31"/>
       <use xlink:href="#DejaVuSans-2e" transform="translate(63.623047 0)"/>
       <use xlink:href="#DejaVuSans-30" transform="translate(95.410156 0)"/>
      </g>
     </g>
    </g>
    <g id="text_7">
     <!-- x [m] -->
     <g transform="translate(201.045313 257.236562) scale(0.1 -0.1)">
      <defs>
       <path id="DejaVuSans-78" d="M 3513 3500 
L 2247 1797 
L 3578 0 
L 2900 0 
L 1881 1375 
L 863 0 
L 184 0 
L 1544 1831 
L 300 3500 
L 978 3500 
L 1906 2253 
L 2834 3500 
L 3513 3500 
z
" transform="scale(0.015625)"/>
       <path id="DejaVuSans-20" transform="scale(0.015625)"/>
       <path id="DejaVuSans-5b" d="M 550 4863 
L 1875 4863 
L 1875 4416 
L 1125 4416 
L 1125 -397 
L 1875 -397 
L 1875 -844 
L 550 -844 
L 550 4863 
z
" transform="scale(0.015625)"/>
       <path id="DejaVuSans-6d" d="M 3328 2828 
Q 3544 3216 3844 3400 
Q 4144 3584 4550 3584 
Q 5097 3584 5394 3201 
Q 5691 2819 5691 2113 
L 5691 0 
L 5113 0 
L 5113 2094 
Q 5113 2597 4934 2840 
Q 4756 3084 4391 3084 
Q 3944 3084 3684 2787 
Q 3425 2491 3425 1978 
L 3425 0 
L 2847 0 
L 2847 2094 
Q 2847 2600 2669 2842 
Q 2491 3084 2119 3084 
Q 1678 3084 1418 2786 
Q 1159 2488 1159 1978 
L 1159 0 
L 581 0 
L 581 3500 
L 1159 3500 
L 1159 2956 
Q 1356 3278 1631 3431 
Q 1906 3584 2284 3584 
Q 2666 3584 2933 3390 
Q 3200 3197 3328 2828 
z
" transform="scale(0.015625)"/>
       <path id="DejaVuSans-5d" d="M 1947 4863 
L 1947 -844 
L 622 -844 
L 622 -397 
L 1369 -397 
L 1369 4416 
L 622 4416 
L 622 4863 
L 1947 4863 
z
" transform="scale(0.015625)"/>
      </defs>
      <use xlink:href="#DejaVuSans-78"/>
      <use xlink:href="#DejaVuSans-20" transform="translate(59.179688 0)"/>
      <use xlink:href="#DejaVuSans-5b" transform="translate(90.966797 0)"/>
      <use xlink:href="#DejaVuSans-6d" transform="translate(129.980469 0)"/>
      <use xlink:href="#DejaVuSans-5d" transform="translate(227.392578 0)"/>
     </g>
    </g>
   </g>
   <g id="matplotlib.axis_2">
    <g id="ytick_1">
     <g id="line2d_7">
      <defs>
       <path id="me80095c205" d="M 0 0 
L -3.5 0 
" style="stroke: #000000; stroke-width: 0.8"/>
      </defs>
      <g>
       <use xlink:href="#me80095c205" x="46.965625" y="208.729401" style="stroke: #000000; stroke-width: 0.8"/>
      </g>
     </g>
     <g id="text_8">
      <!-- 0 -->
      <g transform="translate(33.603125 212.52862) scale(0.1 -0.1)">
       <use xlink:href="#DejaVuSans-30"/>
      </g>
     </g>
    </g>
    <g id="ytick_2">
     <g id="line2d_8">
      <g>
       <use xlink:href="#me80095c205" x="46.965625" y="173.631684" style="stroke: #000000; stroke-width: 0.8"/>
      </g>
     </g>
     <g id="text_9">
      <!-- 50 -->
      <g transform="translate(27.240625 177.430903) scale(0.1 -0.1)">
       <defs>
        <path id="DejaVuSans-35" d="M 691 4666 
L 3169 4666 
L 3169 4134 
L 1269 4134 
L 1269 2991 
Q 1406 3038 1543 3061 
Q 1681 3084 1819 3084 
Q 2600 3084 3056 2656 
Q 3513 2228 3513 1497 
Q 3513 744 3044 326 
Q 2575 -91 1722 -91 
Q 1428 -91 1123 -41 
Q 819 9 494 109 
L 494 744 
Q 775 591 1075 516 
Q 1375 441 1709 441 
Q 2250 441 2565 725 
Q 2881 1009 2881 1497 
Q 2881 1984 2565 2268 
Q 2250 2553 1709 2553 
Q 1456 2553 1204 2497 
Q 953 2441 691 2322 
L 691 4666 
z
" transform="scale(0.015625)"/>
       </defs>
       <use xlink:href="#DejaVuSans-35"/>
       <use xlink:href="#DejaVuSans-30" transform="translate(63.623047 0)"/>
      </g>
     </g>
    </g>
    <g id="ytick_3">
     <g id="line2d_9">
      <g>
       <use xlink:href="#me80095c205" x="46.965625" y="138.533967" style="stroke: #000000; stroke-width: 0.8"/>
      </g>
     </g>
     <g id="text_10">
      <!-- 100 -->
      <g transform="translate(20.878125 142.333186) scale(0.1 -0.1)">
       <use xlink:href="#DejaVuSans-31"/>
       <use xlink:href="#DejaVuSans-30" transform="translate(63.623047 0)"/>
       <use xlink:href="#DejaVuSans-30" transform="translate(127.246094 0)"/>
      </g>
     </g>
    </g>
    <g id="ytick_4">
     <g id="line2d_10">
      <g>
       <use xlink:href="#me80095c205" x="46.965625" y="103.43625" style="stroke: #000000; stroke-width: 0.8"/>
      </g>
     </g>
     <g id="text_11">
      <!-- 150 -->
      <g transform="translate(20.878125 107.235468) scale(0.1 -0.1)">
       <use xlink:href="#DejaVuSans-31"/>
       <use xlink:href="#DejaVuSans-35" transform="translate(63.623047 0)"/>
       <use xlink:href="#DejaVuSans-30" transform="translate(127.246094 0)"/>
      </g>
     </g>
    </g>
    <g id="ytick_5">
     <g id="line2d_11">
      <g>
       <use xlink:href="#me80095c205" x="46.965625" y="68.338532" style="stroke: #000000; stroke-width: 0.8"/>
      </g>
     </g>
     <g id="text_12">
      <!-- 200 -->
      <g transform="translate(20.878125 72.137751) scale(0.1 -0.1)">
       <use xlink:href="#DejaVuSans-32"/>
       <use xlink:href="#DejaVuSans-30" transform="translate(63.623047 0)"/>
       <use xlink:href="#DejaVuSans-30" transform="translate(127.246094 0)"/>
      </g>
     </g>
    </g>
    <g id="ytick_6">
     <g id="line2d_12">
      <g>
       <use xlink:href="#me80095c205" x="46.965625" y="33.240815" style="stroke: #000000; stroke-width: 0.8"/>
      </g>
     </g>
     <g id="text_13">
      <!-- 250 -->
      <g transform="translate(20.878125 37.040034) scale(0.1 -0.1)">
       <use xlink:href="#DejaVuSans-32"/>
       <use xlink:href="#DejaVuSans-35" transform="translate(63.623047 0)"/>
       <use xlink:href="#DejaVuSans-30" transform="translate(127.246094 0)"/>
      </g>
     </g>
    </g>
    <g id="text_14">
     <!-- [counts] -->
     <g transform="translate(14.798438 138.6925) rotate(-90) scale(0.1 -0.1)">
      <defs>
       <path id="DejaVuSans-63" d="M 3122 3366 
L 3122 2828 
Q 2878 2963 2633 3030 
Q 2388 3097 2138 3097 
Q 1578 3097 1268 2742 
Q 959 2388 959 1747 
Q 959 1106 1268 751 
Q 1578 397 2138 397 
Q 2388 397 2633 464 
Q 2878 531 3122 666 
L 3122 134 
Q 2881 22 2623 -34 
Q 2366 -91 2075 -91 
Q 1284 -91 818 406 
Q 353 903 353 1747 
Q 353 2603 823 3093 
Q 1294 3584 2113 3584 
Q 2378 3584 2631 3529 
Q 2884 3475 3122 3366 
z
" transform="scale(0.015625)"/>
       <path id="DejaVuSans-6f" d="M 1959 3097 
Q 1497 3097 1228 2736 
Q 959 2375 959 1747 
Q 959 1119 1226 758 
Q 1494 397 1959 397 
Q 2419 397 2687 759 
Q 2956 1122 2956 1747 
Q 2956 2369 2687 2733 
Q 2419 3097 1959 3097 
z
M 1959 3584 
Q 2709 3584 3137 3096 
Q 3566 2609 3566 1747 
Q 3566 888 3137 398 
Q 2709 -91 1959 -91 
Q 1206 -91 779 398 
Q 353 888 353 1747 
Q 353 2609 779 3096 
Q 1206 3584 1959 3584 
z
" transform="scale(0.015625)"/>
       <path id="DejaVuSans-75" d="M 544 1381 
L 544 3500 
L 1119 3500 
L 1119 1403 
Q 1119 906 1312 657 
Q 1506 409 1894 409 
Q 2359 409 2629 706 
Q 2900 1003 2900 1516 
L 2900 3500 
L 3475 3500 
L 3475 0 
L 2900 0 
L 2900 538 
Q 2691 219 2414 64 
Q 2138 -91 1772 -91 
Q 1169 -91 856 284 
Q 544 659 544 1381 
z
M 1991 3584 
L 1991 3584 
z
" transform="scale(0.015625)"/>
       <path id="DejaVuSans-6e" d="M 3513 2113 
L 3513 0 
L 2938 0 
L 2938 2094 
Q 2938 2591 2744 2837 
Q 2550 3084 2163 3084 
Q 1697 3084 1428 2787 
Q 1159 2491 1159 1978 
L 1159 0 
L 581 0 
L 581 3500 
L 1159 3500 
L 1159 2956 
Q 1366 3272 1645 3428 
Q 1925 3584 2291 3584 
Q 2894 3584 3203 3211 
Q 3513 2838 3513 2113 
z
" transform="scale(0.015625)"/>
       <path id="DejaVuSans-74" d="M 1172 4494 
L 1172 3500 
L 2356 3500 
L 2356 3053 
L 1172 3053 
L 1172 1153 
Q 1172 725 1289 603 
Q 1406 481 1766 481 
L 2356 481 
L 2356 0 
L 1766 0 
Q 1100 0 847 248 
Q 594 497 594 1153 
L 594 3053 
L 172 3053 
L 172 3500 
L 594 3500 
L 594 4494 
L 1172 4494 
z
" transform="scale(0.015625)"/>
       <path id="DejaVuSans-73" d="M 2834 3397 
L 2834 2853 
Q 2591 2978 2328 3040 
Q 2066 3103 1784 3103 
Q 1356 3103 1142 2972 
Q 928 2841 928 2578 
Q 928 2378 1081 2264 
Q 1234 2150 1697 2047 
L 1894 2003 
Q 2506 1872 2764 1633 
Q 3022 1394 3022 966 
Q 3022 478 2636 193 
Q 2250 -91 1575 -91 
Q 1294 -91 989 -36 
Q 684 19 347 128 
L 347 722 
Q 666 556 975 473 
Q 1284 391 1588 391 
Q 1994 391 2212 530 
Q 2431 669 2431 922 
Q 2431 1156 2273 1281 
Q 2116 1406 1581 1522 
L 1381 1569 
Q 847 1681 609 1914 
Q 372 2147 372 2553 
Q 372 3047 722 3315 
Q 1072 3584 1716 3584 
Q 2034 3584 2315 3537 
Q 2597 3491 2834 3397 
z
" transform="scale(0.015625)"/>
      </defs>
      <use xlink:href="#DejaVuSans-5b"/>
      <use xlink:href="#DejaVuSans-63" transform="translate(39.013672 0)"/>
      <use xlink:href="#DejaVuSans-6f" transform="translate(93.994141 0)"/>
      <use xlink:href="#DejaVuSans-75" transform="translate(155.175781 0)"/>
      <use xlink:href="#DejaVuSans-6e" transform="translate(218.554688 0)"/>
      <use xlink:href="#DejaVuSans-74" transform="translate(281.933594 0)"/>
      <use xlink:href="#DejaVuSans-73" transform="translate(321.142578 0)"/>
      <use xlink:href="#DejaVuSans-5d" transform="translate(373.242188 0)"/>
     </g>
    </g>
   </g>
   <g id="line2d_13">
    <path d="M 62.183807 28.663059 
L 65.227443 28.663059 
L 65.227443 60.056933 
L 68.27108 60.056933 
L 68.27108 63.467362 
L 71.314716 63.467362 
L 71.314716 76.002874 
L 74.358352 76.002874 
L 74.358352 93.097151 
L 77.401989 93.097151 
L 77.401989 57.205239 
L 80.445625 57.205239 
L 80.445625 53.941575 
L 83.489261 53.941575 
L 83.489261 67.563994 
L 86.532898 67.563994 
L 86.532898 86.270461 
L 89.576534 86.270461 
L 89.576534 123.291475 
L 92.62017 123.291475 
L 92.62017 127.658436 
L 95.663807 127.658436 
L 95.663807 130.668922 
L 98.707443 130.668922 
L 98.707443 111.353138 
L 101.75108 111.353138 
L 101.75108 126.313731 
L 104.794716 126.313731 
L 104.794716 122.859167 
L 107.838352 122.859167 
L 107.838352 103.675377 
L 110.881989 103.675377 
L 110.881989 134.427634 
L 113.925625 134.427634 
L 113.925625 130.899558 
L 116.969261 130.899558 
L 116.969261 150.00036 
L 120.012898 150.00036 
L 120.012898 131.761088 
L 123.056534 131.761088 
L 123.056534 138.63176 
L 126.10017 138.63176 
L 126.10017 156.956499 
L 129.143807 156.956499 
L 129.143807 140.776224 
L 132.187443 140.776224 
L 132.187443 153.972058 
L 135.23108 153.972058 
L 135.23108 157.223234 
L 138.274716 157.223234 
L 138.274716 162.995823 
L 141.318352 162.995823 
L 141.318352 159.609037 
L 144.361989 159.609037 
L 144.361989 155.028059 
L 147.405625 155.028059 
L 147.405625 166.0653 
L 150.449261 166.0653 
L 150.449261 159.533186 
L 153.492898 159.533186 
L 153.492898 172.247346 
L 156.536534 172.247346 
L 156.536534 168.789752 
L 159.58017 168.789752 
L 159.58017 173.626056 
L 162.623807 173.626056 
L 162.623807 171.56835 
L 165.667443 171.56835 
L 165.667443 184.589315 
L 168.71108 184.589315 
L 168.71108 167.095336 
L 171.754716 167.095336 
L 171.754716 190.223719 
L 174.798352 190.223719 
L 174.798352 185.808806 
L 177.841989 185.808806 
L 177.841989 181.937619 
L 180.885625 181.937619 
L 180.885625 184.842576 
L 183.929261 184.842576 
L 183.929261 183.90792 
L 186.972898 183.90792 
L 186.972898 190.292084 
L 190.016534 190.292084 
L 190.016534 190.752538 
L 193.06017 190.752538 
L 193.06017 191.908219 
L 196.103807 191.908219 
L 196.103807 187.975468 
L 199.147443 187.975468 
L 199.147443 188.462143 
L 202.19108 188.462143 
L 202.19108 191.132821 
L 205.234716 191.132821 
L 205.234716 191.269671 
L 208.278352 191.269671 
L 208.278352 193.924088 
L 211.321989 193.924088 
L 211.321989 188.730443 
L 214.365625 188.730443 
L 214.365625 194.910739 
L 217.409261 194.910739 
L 217.409261 194.54236 
L 220.452898 194.54236 
L 220.452898 193.741552 
L 223.496534 193.741552 
L 223.496534 197.046218 
L 226.54017 197.046218 
L 226.54017 197.480434 
L 229.583807 197.480434 
L 229.583807 200.842797 
L 232.627443 200.842797 
L 232.627443 199.303087 
L 235.67108 199.303087 
L 235.67108 200.169134 
L 238.714716 200.169134 
L 238.714716 198.280511 
L 241.758352 198.280511 
L 241.758352 199.267232 
L 244.801989 199.267232 
L 244.801989 200.956416 
L 247.845625 200.956416 
L 247.845625 198.662381 
L 250.889261 198.662381 
L 250.889261 201.855687 
L 253.932898 201.855687 
L 253.932898 199.012527 
L 256.976534 199.012527 
L 256.976534 203.276347 
L 260.02017 203.276347 
L 260.02017 202.005624 
L 263.063807 202.005624 
L 263.063807 201.688841 
L 266.107443 201.688841 
L 266.107443 202.771377 
L 269.15108 202.771377 
L 269.15108 202.251432 
L 272.194716 202.251432 
L 272.194716 204.361697 
L 278.281989 204.425266 
L 278.281989 203.158631 
L 281.325625 203.158631 
L 281.325625 204.87707 
L 284.369261 204.87707 
L 284.369261 203.631342 
L 287.412898 203.631342 
L 287.412898 204.482449 
L 290.456534 204.482449 
L 290.456534 204.111373 
L 293.50017 204.111373 
L 293.50017 205.738179 
L 296.543807 205.738179 
L 296.543807 205.218782 
L 299.587443 205.218782 
L 299.587443 205.036056 
L 302.63108 205.036056 
L 302.63108 205.366067 
L 305.674716 205.366067 
L 305.674716 205.99094 
L 308.718352 205.99094 
L 308.718352 205.720692 
L 311.761989 205.720692 
L 311.761989 206.223819 
L 314.805625 206.223819 
L 314.805625 205.818301 
L 317.849261 205.818301 
L 317.849261 206.662082 
L 320.892898 206.662082 
L 320.892898 206.428467 
L 323.936534 206.428467 
L 323.936534 206.656316 
L 330.023807 206.577232 
L 330.023807 206.90011 
L 333.067443 206.90011 
L 333.067443 206.717653 
L 336.11108 206.717653 
L 336.11108 206.479978 
L 339.154716 206.479978 
L 339.154716 206.862732 
L 342.198352 206.862732 
L 342.198352 207.168679 
L 354.372898 207.072633 
L 354.372898 207.402204 
L 357.416534 207.402204 
L 357.416534 207.639657 
L 360.46017 207.639657 
L 360.46017 207.359687 
L 363.503807 207.359687 
L 363.503807 207.562248 
L 366.547443 207.562248 
L 366.547443 207.562248 
" clip-path="url(#peca8df3dfb)" style="fill: none; stroke: #1f77b4; stroke-width: 1.5; stroke-linecap: square"/>
   </g>
   <g id="LineCollection_1">
    <path d="M 63.705625 40.046118 
L 63.705625 17.28 
" clip-path="url(#peca8df3dfb)" style="fill: none; stroke: #1f77b4; stroke-width: 1.5"/>
    <path d="M 66.749261 70.650324 
L 66.749261 49.463542 
" clip-path="url(#peca8df3dfb)" style="fill: none; stroke: #1f77b4; stroke-width: 1.5"/>
    <path d="M 69.792898 74.19401 
L 69.792898 52.740713 
" clip-path="url(#peca8df3dfb)" style="fill: none; stroke: #1f77b4; stroke-width: 1.5"/>
    <path d="M 72.836534 86.550559 
L 72.836534 65.455188 
" clip-path="url(#peca8df3dfb)" style="fill: none; stroke: #1f77b4; stroke-width: 1.5"/>
    <path d="M 75.88017 103.177878 
L 75.88017 83.016423 
" clip-path="url(#peca8df3dfb)" style="fill: none; stroke: #1f77b4; stroke-width: 1.5"/>
    <path d="M 78.923807 69.005115 
L 78.923807 45.405362 
" clip-path="url(#peca8df3dfb)" style="fill: none; stroke: #1f77b4; stroke-width: 1.5"/>
    <path d="M 81.967443 66.191932 
L 81.967443 41.691218 
" clip-path="url(#peca8df3dfb)" style="fill: none; stroke: #1f77b4; stroke-width: 1.5"/>
    <path d="M 85.01108 79.581943 
L 85.01108 55.546044 
" clip-path="url(#peca8df3dfb)" style="fill: none; stroke: #1f77b4; stroke-width: 1.5"/>
    <path d="M 88.054716 97.73637 
L 88.054716 74.804553 
" clip-path="url(#peca8df3dfb)" style="fill: none; stroke: #1f77b4; stroke-width: 1.5"/>
    <path d="M 91.098352 133.123191 
L 91.098352 113.45976 
" clip-path="url(#peca8df3dfb)" style="fill: none; stroke: #1f77b4; stroke-width: 1.5"/>
    <path d="M 94.141989 137.475841 
L 94.141989 117.841031 
" clip-path="url(#peca8df3dfb)" style="fill: none; stroke: #1f77b4; stroke-width: 1.5"/>
    <path d="M 97.185625 140.545407 
L 97.185625 120.792437 
" clip-path="url(#peca8df3dfb)" style="fill: none; stroke: #1f77b4; stroke-width: 1.5"/>
    <path d="M 100.229261 122.65241 
L 100.229261 100.053866 
" clip-path="url(#peca8df3dfb)" style="fill: none; stroke: #1f77b4; stroke-width: 1.5"/>
    <path d="M 103.272898 136.96566 
L 103.272898 115.661802 
" clip-path="url(#peca8df3dfb)" style="fill: none; stroke: #1f77b4; stroke-width: 1.5"/>
    <path d="M 106.316534 134.014594 
L 106.316534 111.703739 
" clip-path="url(#peca8df3dfb)" style="fill: none; stroke: #1f77b4; stroke-width: 1.5"/>
    <path d="M 109.36017 116.321261 
L 109.36017 91.029493 
" clip-path="url(#peca8df3dfb)" style="fill: none; stroke: #1f77b4; stroke-width: 1.5"/>
    <path d="M 112.403807 145.355352 
L 112.403807 123.499917 
" clip-path="url(#peca8df3dfb)" style="fill: none; stroke: #1f77b4; stroke-width: 1.5"/>
    <path d="M 115.447443 142.359178 
L 115.447443 119.439939 
" clip-path="url(#peca8df3dfb)" style="fill: none; stroke: #1f77b4; stroke-width: 1.5"/>
    <path d="M 118.49108 160.212256 
L 118.49108 139.788463 
" clip-path="url(#peca8df3dfb)" style="fill: none; stroke: #1f77b4; stroke-width: 1.5"/>
    <path d="M 121.534716 143.719629 
L 121.534716 119.802548 
" clip-path="url(#peca8df3dfb)" style="fill: none; stroke: #1f77b4; stroke-width: 1.5"/>
    <path d="M 124.578352 150.350308 
L 124.578352 126.913213 
" clip-path="url(#peca8df3dfb)" style="fill: none; stroke: #1f77b4; stroke-width: 1.5"/>
    <path d="M 127.621989 167.273509 
L 127.621989 146.63949 
" clip-path="url(#peca8df3dfb)" style="fill: none; stroke: #1f77b4; stroke-width: 1.5"/>
    <path d="M 130.665625 152.875641 
L 130.665625 128.676807 
" clip-path="url(#peca8df3dfb)" style="fill: none; stroke: #1f77b4; stroke-width: 1.5"/>
    <path d="M 133.709261 165.151304 
L 133.709261 142.792811 
" clip-path="url(#peca8df3dfb)" style="fill: none; stroke: #1f77b4; stroke-width: 1.5"/>
    <path d="M 136.752898 168.322276 
L 136.752898 146.124191 
" clip-path="url(#peca8df3dfb)" style="fill: none; stroke: #1f77b4; stroke-width: 1.5"/>
    <path d="M 139.796534 173.697976 
L 139.796534 152.29367 
" clip-path="url(#peca8df3dfb)" style="fill: none; stroke: #1f77b4; stroke-width: 1.5"/>
    <path d="M 142.84017 171.014058 
L 142.84017 148.204016 
" clip-path="url(#peca8df3dfb)" style="fill: none; stroke: #1f77b4; stroke-width: 1.5"/>
    <path d="M 145.883807 167.233888 
L 145.883807 142.82223 
" clip-path="url(#peca8df3dfb)" style="fill: none; stroke: #1f77b4; stroke-width: 1.5"/>
    <path d="M 148.927443 177.237588 
L 148.927443 154.893013 
" clip-path="url(#peca8df3dfb)" style="fill: none; stroke: #1f77b4; stroke-width: 1.5"/>
    <path d="M 151.97108 171.828819 
L 151.97108 147.237552 
" clip-path="url(#peca8df3dfb)" style="fill: none; stroke: #1f77b4; stroke-width: 1.5"/>
    <path d="M 155.014716 183.117829 
L 155.014716 161.376864 
" clip-path="url(#peca8df3dfb)" style="fill: none; stroke: #1f77b4; stroke-width: 1.5"/>
    <path d="M 158.058352 180.415865 
L 158.058352 157.163639 
" clip-path="url(#peca8df3dfb)" style="fill: none; stroke: #1f77b4; stroke-width: 1.5"/>
    <path d="M 161.101989 184.813859 
L 161.101989 162.438253 
" clip-path="url(#peca8df3dfb)" style="fill: none; stroke: #1f77b4; stroke-width: 1.5"/>
    <path d="M 164.145625 183.383521 
L 164.145625 159.753179 
" clip-path="url(#peca8df3dfb)" style="fill: none; stroke: #1f77b4; stroke-width: 1.5"/>
    <path d="M 167.189261 194.344707 
L 167.189261 174.833923 
" clip-path="url(#peca8df3dfb)" style="fill: none; stroke: #1f77b4; stroke-width: 1.5"/>
    <path d="M 170.232898 180.217287 
L 170.232898 153.973384 
" clip-path="url(#peca8df3dfb)" style="fill: none; stroke: #1f77b4; stroke-width: 1.5"/>
    <path d="M 173.276534 199.220438 
L 173.276534 181.227 
" clip-path="url(#peca8df3dfb)" style="fill: none; stroke: #1f77b4; stroke-width: 1.5"/>
    <path d="M 176.32017 196.044357 
L 176.32017 175.573256 
" clip-path="url(#peca8df3dfb)" style="fill: none; stroke: #1f77b4; stroke-width: 1.5"/>
    <path d="M 179.363807 193.298722 
L 179.363807 170.576515 
" clip-path="url(#peca8df3dfb)" style="fill: none; stroke: #1f77b4; stroke-width: 1.5"/>
    <path d="M 182.407443 195.821583 
L 182.407443 173.863569 
" clip-path="url(#peca8df3dfb)" style="fill: none; stroke: #1f77b4; stroke-width: 1.5"/>
    <path d="M 185.45108 195.392323 
L 185.45108 172.423517 
" clip-path="url(#peca8df3dfb)" style="fill: none; stroke: #1f77b4; stroke-width: 1.5"/>
    <path d="M 188.494716 200.438521 
L 188.494716 180.145648 
" clip-path="url(#peca8df3dfb)" style="fill: none; stroke: #1f77b4; stroke-width: 1.5"/>
    <path d="M 191.538352 201.0239 
L 191.538352 180.481175 
" clip-path="url(#peca8df3dfb)" style="fill: none; stroke: #1f77b4; stroke-width: 1.5"/>
    <path d="M 194.581989 202.086433 
L 194.581989 181.730006 
" clip-path="url(#peca8df3dfb)" style="fill: none; stroke: #1f77b4; stroke-width: 1.5"/>
    <path d="M 197.625625 199.606494 
L 197.625625 176.344443 
" clip-path="url(#peca8df3dfb)" style="fill: none; stroke: #1f77b4; stroke-width: 1.5"/>
    <path d="M 200.669261 200.210259 
L 200.669261 176.714028 
" clip-path="url(#peca8df3dfb)" style="fill: none; stroke: #1f77b4; stroke-width: 1.5"/>
    <path d="M 203.712898 202.366557 
L 203.712898 179.899086 
" clip-path="url(#peca8df3dfb)" style="fill: none; stroke: #1f77b4; stroke-width: 1.5"/>
    <path d="M 206.756534 202.751934 
L 206.756534 179.787407 
" clip-path="url(#peca8df3dfb)" style="fill: none; stroke: #1f77b4; stroke-width: 1.5"/>
    <path d="M 209.80017 204.767605 
L 209.80017 183.08057 
" clip-path="url(#peca8df3dfb)" style="fill: none; stroke: #1f77b4; stroke-width: 1.5"/>
    <path d="M 212.843807 201.670646 
L 212.843807 175.790241 
" clip-path="url(#peca8df3dfb)" style="fill: none; stroke: #1f77b4; stroke-width: 1.5"/>
    <path d="M 215.887443 205.91214 
L 215.887443 183.909339 
" clip-path="url(#peca8df3dfb)" style="fill: none; stroke: #1f77b4; stroke-width: 1.5"/>
    <path d="M 218.93108 205.978956 
L 218.93108 183.105764 
" clip-path="url(#peca8df3dfb)" style="fill: none; stroke: #1f77b4; stroke-width: 1.5"/>
    <path d="M 221.974716 205.796666 
L 221.974716 181.686437 
" clip-path="url(#peca8df3dfb)" style="fill: none; stroke: #1f77b4; stroke-width: 1.5"/>
    <path d="M 225.018352 207.944406 
L 225.018352 186.14803 
" clip-path="url(#peca8df3dfb)" style="fill: none; stroke: #1f77b4; stroke-width: 1.5"/>
    <path d="M 228.061989 208.465548 
L 228.061989 186.495319 
" clip-path="url(#peca8df3dfb)" style="fill: none; stroke: #1f77b4; stroke-width: 1.5"/>
    <path d="M 231.105625 210.281855 
L 231.105625 191.40374 
" clip-path="url(#peca8df3dfb)" style="fill: none; stroke: #1f77b4; stroke-width: 1.5"/>
    <path d="M 234.149261 209.86117 
L 234.149261 188.745003 
" clip-path="url(#peca8df3dfb)" style="fill: none; stroke: #1f77b4; stroke-width: 1.5"/>
    <path d="M 237.192898 210.477128 
L 237.192898 189.86114 
" clip-path="url(#peca8df3dfb)" style="fill: none; stroke: #1f77b4; stroke-width: 1.5"/>
    <path d="M 240.236534 209.979421 
L 240.236534 186.581602 
" clip-path="url(#peca8df3dfb)" style="fill: none; stroke: #1f77b4; stroke-width: 1.5"/>
    <path d="M 243.28017 210.666226 
L 243.28017 187.868237 
" clip-path="url(#peca8df3dfb)" style="fill: none; stroke: #1f77b4; stroke-width: 1.5"/>
    <path d="M 246.323807 211.549981 
L 246.323807 190.362851 
" clip-path="url(#peca8df3dfb)" style="fill: none; stroke: #1f77b4; stroke-width: 1.5"/>
    <path d="M 249.367443 211.025509 
L 249.367443 186.299253 
" clip-path="url(#peca8df3dfb)" style="fill: none; stroke: #1f77b4; stroke-width: 1.5"/>
    <path d="M 252.41108 212.349355 
L 252.41108 191.362019 
" clip-path="url(#peca8df3dfb)" style="fill: none; stroke: #1f77b4; stroke-width: 1.5"/>
    <path d="M 255.454716 211.793159 
L 255.454716 186.231895 
" clip-path="url(#peca8df3dfb)" style="fill: none; stroke: #1f77b4; stroke-width: 1.5"/>
    <path d="M 258.498352 213.071363 
L 258.498352 193.481332 
" clip-path="url(#peca8df3dfb)" style="fill: none; stroke: #1f77b4; stroke-width: 1.5"/>
    <path d="M 261.541989 213.192729 
L 261.541989 190.818518 
" clip-path="url(#peca8df3dfb)" style="fill: none; stroke: #1f77b4; stroke-width: 1.5"/>
    <path d="M 264.585625 213.386147 
L 264.585625 189.991535 
" clip-path="url(#peca8df3dfb)" style="fill: none; stroke: #1f77b4; stroke-width: 1.5"/>
    <path d="M 267.629261 213.815241 
L 267.629261 191.727512 
" clip-path="url(#peca8df3dfb)" style="fill: none; stroke: #1f77b4; stroke-width: 1.5"/>
    <path d="M 270.672898 214.060009 
L 270.672898 190.442854 
" clip-path="url(#peca8df3dfb)" style="fill: none; stroke: #1f77b4; stroke-width: 1.5"/>
    <path d="M 273.716534 214.302491 
L 273.716534 194.420904 
" clip-path="url(#peca8df3dfb)" style="fill: none; stroke: #1f77b4; stroke-width: 1.5"/>
    <path d="M 276.76017 214.537522 
L 276.76017 194.31301 
" clip-path="url(#peca8df3dfb)" style="fill: none; stroke: #1f77b4; stroke-width: 1.5"/>
    <path d="M 279.803807 214.973406 
L 279.803807 191.343856 
" clip-path="url(#peca8df3dfb)" style="fill: none; stroke: #1f77b4; stroke-width: 1.5"/>
    <path d="M 282.847443 214.965654 
L 282.847443 194.788487 
" clip-path="url(#peca8df3dfb)" style="fill: none; stroke: #1f77b4; stroke-width: 1.5"/>
    <path d="M 285.89108 215.483519 
L 285.89108 191.779166 
" clip-path="url(#peca8df3dfb)" style="fill: none; stroke: #1f77b4; stroke-width: 1.5"/>
    <path d="M 288.934716 215.590636 
L 288.934716 193.374261 
" clip-path="url(#peca8df3dfb)" style="fill: none; stroke: #1f77b4; stroke-width: 1.5"/>
    <path d="M 291.978352 215.991239 
L 291.978352 192.231507 
" clip-path="url(#peca8df3dfb)" style="fill: none; stroke: #1f77b4; stroke-width: 1.5"/>
    <path d="M 295.021989 215.556484 
L 295.021989 195.919875 
" clip-path="url(#peca8df3dfb)" style="fill: none; stroke: #1f77b4; stroke-width: 1.5"/>
    <path d="M 298.065625 216.108422 
L 298.065625 194.329142 
" clip-path="url(#peca8df3dfb)" style="fill: none; stroke: #1f77b4; stroke-width: 1.5"/>
    <path d="M 301.109261 216.491714 
L 301.109261 193.580398 
" clip-path="url(#peca8df3dfb)" style="fill: none; stroke: #1f77b4; stroke-width: 1.5"/>
    <path d="M 304.152898 216.576065 
L 304.152898 194.156068 
" clip-path="url(#peca8df3dfb)" style="fill: none; stroke: #1f77b4; stroke-width: 1.5"/>
    <path d="M 307.196534 216.353269 
L 307.196534 195.628612 
" clip-path="url(#peca8df3dfb)" style="fill: none; stroke: #1f77b4; stroke-width: 1.5"/>
    <path d="M 310.24017 216.853908 
L 310.24017 194.587476 
" clip-path="url(#peca8df3dfb)" style="fill: none; stroke: #1f77b4; stroke-width: 1.5"/>
    <path d="M 313.283807 216.651198 
L 313.283807 195.79644 
" clip-path="url(#peca8df3dfb)" style="fill: none; stroke: #1f77b4; stroke-width: 1.5"/>
    <path d="M 316.327443 217.318334 
L 316.327443 194.318268 
" clip-path="url(#peca8df3dfb)" style="fill: none; stroke: #1f77b4; stroke-width: 1.5"/>
    <path d="M 319.37108 216.650349 
L 319.37108 196.673816 
" clip-path="url(#peca8df3dfb)" style="fill: none; stroke: #1f77b4; stroke-width: 1.5"/>
    <path d="M 322.414716 217.220337 
L 322.414716 195.636597 
" clip-path="url(#peca8df3dfb)" style="fill: none; stroke: #1f77b4; stroke-width: 1.5"/>
    <path d="M 325.458352 217.127022 
L 325.458352 196.18561 
" clip-path="url(#peca8df3dfb)" style="fill: none; stroke: #1f77b4; stroke-width: 1.5"/>
    <path d="M 328.501989 217.52041 
L 328.501989 195.634053 
" clip-path="url(#peca8df3dfb)" style="fill: none; stroke: #1f77b4; stroke-width: 1.5"/>
    <path d="M 331.545625 217.258353 
L 331.545625 196.541867 
" clip-path="url(#peca8df3dfb)" style="fill: none; stroke: #1f77b4; stroke-width: 1.5"/>
    <path d="M 334.589261 217.841833 
L 334.589261 195.593472 
" clip-path="url(#peca8df3dfb)" style="fill: none; stroke: #1f77b4; stroke-width: 1.5"/>
    <path d="M 337.632898 218.543131 
L 337.632898 194.416825 
" clip-path="url(#peca8df3dfb)" style="fill: none; stroke: #1f77b4; stroke-width: 1.5"/>
    <path d="M 340.676534 218.133816 
L 340.676534 195.591648 
" clip-path="url(#peca8df3dfb)" style="fill: none; stroke: #1f77b4; stroke-width: 1.5"/>
    <path d="M 343.72017 217.726948 
L 343.72017 196.61041 
" clip-path="url(#peca8df3dfb)" style="fill: none; stroke: #1f77b4; stroke-width: 1.5"/>
    <path d="M 346.763807 218.196267 
L 346.763807 195.993571 
" clip-path="url(#peca8df3dfb)" style="fill: none; stroke: #1f77b4; stroke-width: 1.5"/>
    <path d="M 349.807443 218.278684 
L 349.807443 196.04096 
" clip-path="url(#peca8df3dfb)" style="fill: none; stroke: #1f77b4; stroke-width: 1.5"/>
    <path d="M 352.85108 218.803196 
L 352.85108 195.342069 
" clip-path="url(#peca8df3dfb)" style="fill: none; stroke: #1f77b4; stroke-width: 1.5"/>
    <path d="M 355.894716 218.158597 
L 355.894716 196.64581 
" clip-path="url(#peca8df3dfb)" style="fill: none; stroke: #1f77b4; stroke-width: 1.5"/>
    <path d="M 358.938352 217.639084 
L 358.938352 197.64023 
" clip-path="url(#peca8df3dfb)" style="fill: none; stroke: #1f77b4; stroke-width: 1.5"/>
    <path d="M 361.981989 218.88 
L 361.981989 195.839374 
" clip-path="url(#peca8df3dfb)" style="fill: none; stroke: #1f77b4; stroke-width: 1.5"/>
    <path d="M 365.025625 218.45258 
L 365.025625 196.671916 
" clip-path="url(#peca8df3dfb)" style="fill: none; stroke: #1f77b4; stroke-width: 1.5"/>
   </g>
   <g id="patch_3">
    <path d="M 46.965625 228.96 
L 46.965625 7.2 
" style="fill: none; stroke: #000000; stroke-width: 0.8; stroke-linejoin: miter; stroke-linecap: square"/>
   </g>
   <g id="patch_4">
    <path d="M 381.765625 228.96 
L 381.765625 7.2 
" style="fill: none; stroke: #000000; stroke-width: 0.8; stroke-linejoin: miter; stroke-linecap: square"/>
   </g>
   <g id="patch_5">
    <path d="M 46.965625 228.96 
L 381.765625 228.96 
" style="fill: none; stroke: #000000; stroke-width: 0.8; stroke-linejoin: miter; stroke-linecap: square"/>
   </g>
   <g id="patch_6">
    <path d="M 46.965625 7.2 
L 381.765625 7.2 
" style="fill: none; stroke: #000000; stroke-width: 0.8; stroke-linejoin: miter; stroke-linecap: square"/>
   </g>
  </g>
 </g>
 <defs>
  <clipPath id="peca8df3dfb">
   <rect x="46.965625" y="7.2" width="334.8" height="221.76"/>
  </clipPath>
 </defs>
</svg>
