<?xml version="1.0" encoding="utf-8" standalone="no"?>
<!DOCTYPE svg PUBLIC "-//W3C//DTD SVG 1.1//EN"
  "http://www.w3.org/Graphics/SVG/1.1/DTD/svg11.dtd">
<svg xmlns:xlink="http://www.w3.org/1999/xlink" width="388.965625pt" height="267.296248pt" viewBox="0 0 388.965625 267.296248" xmlns="http://www.w3.org/2000/svg" version="1.1">
 <metadata>
  <rdf:RDF xmlns:dc="http://purl.org/dc/elements/1.1/" xmlns:cc="http://creativecommons.org/ns#" xmlns:rdf="http://www.w3.org/1999/02/22-rdf-syntax-ns#">
   <cc:Work>
    <dc:type rdf:resource="http://purl.org/dc/dcmitype/StillImage"/>
    <dc:date>2025-12-19T10:16:22.673917</dc:date>
    <dc:format>image/svg+xml</dc:format>
    <dc:creator>
     <cc:Agent>
      <dc:title>Matplotlib v3.10.8, https://matplotlib.org/</dc:title>
     </cc:Agent>
    </dc:creator>
   </cc:Work>
  </rdf:RDF>
 </metadata>
 <defs>
  <style type="text/css">*{stroke-linejoin: round; stroke-linecap: butt}</style>
 </defs>
 <g id="figure_1">
  <g id="patch_1">
   <path d="M -0 267.296248 
L 388.965625 267.296248 
L 388.965625 0 
L -0 0 
z
" style="fill: #ffffff"/>
  </g>
  <g id="axes_1">
   <g id="patch_2">
    <path d="M 46.965625 229.739998 
L 381.765625 229.739998 
L 381.765625 7.979998 
L 46.965625 7.979998 
z
" style="fill: #ffffff"/>
   </g>
   <g id="matplotlib.axis_1">
    <g id="xtick_1">
     <g id="line2d_1">
      <defs>
       <path id="m237d0df244" d="M 0 0 
L 0 3.5 
" style="stroke: #000000; stroke-width: 0.8"/>
      </defs>
      <g>
       <use xlink:href="#m237d0df244" x="62.183807" y="229.739998" style="stroke: #000000; stroke-width: 0.8"/>
      </g>
     </g>
     <g id="text_1">
      <!-- 0.00 -->
      <g transform="translate(51.050994 244.338435) scale(0.1 -0.1)">
       <defs>
        <path id="DejaVuSans-30" d="M 2034 4250 
Q 1547 4250 1301 3770 
Q 1056 3291 1056 2328 
Q 1056 1369 1301 889 
Q 1547 409 2034 409 
Q 2525 409 2770 889 
Q 3016 1369 3016 2328 
Q 3016 3291 2770 3770 
Q 2525 4250 2034 4250 
z
M 2034 4750 
Q 2819 4750 3233 4129 
Q 3647 3509 3647 2328 
Q 3647 1150 3233 529 
Q 2819 -91 2034 -91 
Q 1250 -91 836 529 
Q 422 1150 422 2328 
Q 422 3509 836 4129 
Q 1250 4750 2034 4750 
z
" transform="scale(0.015625)"/>
        <path id="DejaVuSans-2e" d="M 684 794 
L 1344 794 
L 1344 0 
L 684 0 
L 684 794 
z
" transform="scale(0.015625)"/>
       </defs>
       <use xlink:href="#DejaVuSans-30"/>
       <use xlink:href="#DejaVuSans-2e" transform="translate(63.623047 0)"/>
       <use xlink:href="#DejaVuSans-30" transform="translate(95.410156 0)"/>
       <use xlink:href="#DejaVuSans-30" transform="translate(159.033203 0)"/>
      </g>
     </g>
    </g>
    <g id="xtick_2">
     <g id="line2d_2">
      <g>
       <use xlink:href="#m237d0df244" x="100.229261" y="229.739998" style="stroke: #000000; stroke-width: 0.8"/>
      </g>
     </g>
     <g id="text_2">
      <!-- 0.25 -->
      <g transform="translate(89.096449 244.338435) scale(0.1 -0.1)">
       <defs>
        <path id="DejaVuSans-32" d="M 1228 531 
L 3431 531 
L 3431 0 
L 469 0 
L 469 531 
Q 828 903 1448 1529 
Q 2069 2156 2228 2338 
Q 2531 2678 2651 2914 
Q 2772 3150 2772 3378 
Q 2772 3750 2511 3984 
Q 2250 4219 1831 4219 
Q 1534 4219 1204 4116 
Q 875 4013 500 3803 
L 500 4441 
Q 881 4594 1212 4672 
Q 1544 4750 1819 4750 
Q 2544 4750 2975 4387 
Q 3406 4025 3406 3419 
Q 3406 3131 3298 2873 
Q 3191 2616 2906 2266 
Q 2828 2175 2409 1742 
Q 1991 1309 1228 531 
z
" transform="scale(0.015625)"/>
        <path id="DejaVuSans-35" d="M 691 4666 
L 3169 4666 
L 3169 4134 
L 1269 4134 
L 1269 2991 
Q 1406 3038 1543 3061 
Q 1681 3084 1819 3084 
Q 2600 3084 3056 2656 
Q 3513 2228 3513 1497 
Q 3513 744 3044 326 
Q 2575 -91 1722 -91 
Q 1428 -91 1123 -41 
Q 819 9 494 109 
L 494 744 
Q 775 591 1075 516 
Q 1375 441 1709 441 
Q 2250 441 2565 725 
Q 2881 1009 2881 1497 
Q 2881 1984 2565 2268 
Q 2250 2553 1709 2553 
Q 1456 2553 1204 2497 
Q 953 2441 691 2322 
L 691 4666 
z
" transform="scale(0.015625)"/>
       </defs>
       <use xlink:href="#DejaVuSans-30"/>
       <use xlink:href="#DejaVuSans-2e" transform="translate(63.623047 0)"/>
       <use xlink:href="#DejaVuSans-32" transform="translate(95.410156 0)"/>
       <use xlink:href="#DejaVuSans-35" transform="translate(159.033203 0)"/>
      </g>
     </g>
    </g>
    <g id="xtick_3">
     <g id="line2d_3">
      <g>
       <use xlink:href="#m237d0df244" x="138.274716" y="229.739998" style="stroke: #000000; stroke-width: 0.8"/>
      </g>
     </g>
     <g id="text_3">
      <!-- 0.50 -->
      <g transform="translate(127.141903 244.338435) scale(0.1 -0.1)">
       <use xlink:href="#DejaVuSans-30"/>
       <use xlink:href="#DejaVuSans-2e" transform="translate(63.623047 0)"/>
       <use xlink:href="#DejaVuSans-35" transform="translate(95.410156 0)"/>
       <use xlink:href="#DejaVuSans-30" transform="translate(159.033203 0)"/>
      </g>
     </g>
    </g>
    <g id="xtick_4">
     <g id="line2d_4">
      <g>
       <use xlink:href="#m237d0df244" x="176.32017" y="229.739998" style="stroke: #000000; stroke-width: 0.8"/>
      </g>
     </g>
     <g id="text_4">
      <!-- 0.75 -->
      <g transform="translate(165.187358 244.338435) scale(0.1 -0.1)">
       <defs>
        <path id="DejaVuSans-37" d="M 525 4666 
L 3525 4666 
L 3525 4397 
L 1831 0 
L 1172 0 
L 2766 4134 
L 525 4134 
L 525 4666 
z
" transform="scale(0.015625)"/>
       </defs>
       <use xlink:href="#DejaVuSans-30"/>
       <use xlink:href="#DejaVuSans-2e" transform="translate(63.623047 0)"/>
       <use xlink:href="#DejaVuSans-37" transform="translate(95.410156 0)"/>
       <use xlink:href="#DejaVuSans-35" transform="translate(159.033203 0)"/>
      </g>
     </g>
    </g>
    <g id="xtick_5">
     <g id="line2d_5">
      <g>
       <use xlink:href="#m237d0df244" x="214.365625" y="229.739998" style="stroke: #000000; stroke-width: 0.8"/>
      </g>
     </g>
     <g id="text_5">
      <!-- 1.00 -->
      <g transform="translate(203.232813 244.338435) scale(0.1 -0.1)">
       <defs>
        <path id="DejaVuSans-31" d="M 794 531 
L 1825 531 
L 1825 4091 
L 703 3866 
L 703 4441 
L 1819 4666 
L 2450 4666 
L 2450 531 
L 3481 531 
L 3481 0 
L 794 0 
L 794 531 
z
" transform="scale(0.015625)"/>
       </defs>
       <use xlink:href="#DejaVuSans-31"/>
       <use xlink:href="#DejaVuSans-2e" transform="translate(63.623047 0)"/>
       <use xlink:href="#DejaVuSans-30" transform="translate(95.410156 0)"/>
       <use xlink:href="#DejaVuSans-30" transform="translate(159.033203 0)"/>
      </g>
     </g>
    </g>
    <g id="xtick_6">
     <g id="line2d_6">
      <g>
       <use xlink:href="#m237d0df244" x="252.41108" y="229.739998" style="stroke: #000000; stroke-width: 0.8"/>
      </g>
     </g>
     <g id="text_6">
      <!-- 1.25 -->
      <g transform="translate(241.278267 244.338435) scale(0.1 -0.1)">
       <use xlink:href="#DejaVuSans-31"/>
       <use xlink:href="#DejaVuSans-2e" transform="translate(63.623047 0)"/>
       <use xlink:href="#DejaVuSans-32" transform="translate(95.410156 0)"/>
       <use xlink:href="#DejaVuSans-35" transform="translate(159.033203 0)"/>
      </g>
     </g>
    </g>
    <g id="xtick_7">
     <g id="line2d_7">
      <g>
       <use xlink:href="#m237d0df244" x="290.456534" y="229.739998" style="stroke: #000000; stroke-width: 0.8"/>
      </g>
     </g>
     <g id="text_7">
      <!-- 1.50 -->
      <g transform="translate(279.323722 244.338435) scale(0.1 -0.1)">
       <use xlink:href="#DejaVuSans-31"/>
       <use xlink:href="#DejaVuSans-2e" transform="translate(63.623047 0)"/>
       <use xlink:href="#DejaVuSans-35" transform="translate(95.410156 0)"/>
       <use xlink:href="#DejaVuSans-30" transform="translate(159.033203 0)"/>
      </g>
     </g>
    </g>
    <g id="xtick_8">
     <g id="line2d_8">
      <g>
       <use xlink:href="#m237d0df244" x="328.501989" y="229.739998" style="stroke: #000000; stroke-width: 0.8"/>
      </g>
     </g>
     <g id="text_8">
      <!-- 1.75 -->
      <g transform="translate(317.369176 244.338435) scale(0.1 -0.1)">
       <use xlink:href="#DejaVuSans-31"/>
       <use xlink:href="#DejaVuSans-2e" transform="translate(63.623047 0)"/>
       <use xlink:href="#DejaVuSans-37" transform="translate(95.410156 0)"/>
       <use xlink:href="#DejaVuSans-35" transform="translate(159.033203 0)"/>
      </g>
     </g>
    </g>
    <g id="xtick_9">
     <g id="line2d_9">
      <g>
       <use xlink:href="#m237d0df244" x="366.547443" y="229.739998" style="stroke: #000000; stroke-width: 0.8"/>
      </g>
     </g>
     <g id="text_9">
      <!-- 2.00 -->
      <g transform="translate(355.414631 244.338435) scale(0.1 -0.1)">
       <use xlink:href="#DejaVuSans-32"/>
       <use xlink:href="#DejaVuSans-2e" transform="translate(63.623047 0)"/>
       <use xlink:href="#DejaVuSans-30" transform="translate(95.410156 0)"/>
       <use xlink:href="#DejaVuSans-30" transform="translate(159.033203 0)"/>
      </g>
     </g>
    </g>
    <g id="text_10">
     <!-- x [m] -->
     <g transform="translate(201.045313 258.01656) scale(0.1 -0.1)">
      <defs>
       <path id="DejaVuSans-78" d="M 3513 3500 
L 2247 1797 
L 3578 0 
L 2900 0 
L 1881 1375 
L 863 0 
L 184 0 
L 1544 1831 
L 300 3500 
L 978 3500 
L 1906 2253 
L 2834 3500 
L 3513 3500 
z
" transform="scale(0.015625)"/>
       <path id="DejaVuSans-20" transform="scale(0.015625)"/>
       <path id="DejaVuSans-5b" d="M 550 4863 
L 1875 4863 
L 1875 4416 
L 1125 4416 
L 1125 -397 
L 1875 -397 
L 1875 -844 
L 550 -844 
L 550 4863 
z
" transform="scale(0.015625)"/>
       <path id="DejaVuSans-6d" d="M 3328 2828 
Q 3544 3216 3844 3400 
Q 4144 3584 4550 3584 
Q 5097 3584 5394 3201 
Q 5691 2819 5691 2113 
L 5691 0 
L 5113 0 
L 5113 2094 
Q 5113 2597 4934 2840 
Q 4756 3084 4391 3084 
Q 3944 3084 3684 2787 
Q 3425 2491 3425 1978 
L 3425 0 
L 2847 0 
L 2847 2094 
Q 2847 2600 2669 2842 
Q 2491 3084 2119 3084 
Q 1678 3084 1418 2786 
Q 1159 2488 1159 1978 
L 1159 0 
L 581 0 
L 581 3500 
L 1159 3500 
L 1159 2956 
Q 1356 3278 1631 3431 
Q 1906 3584 2284 3584 
Q 2666 3584 2933 3390 
Q 3200 3197 3328 2828 
z
" transform="scale(0.015625)"/>
       <path id="DejaVuSans-5d" d="M 1947 4863 
L 1947 -844 
L 622 -844 
L 622 -397 
L 1369 -397 
L 1369 4416 
L 622 4416 
L 622 4863 
L 1947 4863 
z
" transform="scale(0.015625)"/>
      </defs>
      <use xlink:href="#DejaVuSans-78"/>
      <use xlink:href="#DejaVuSans-20" transform="translate(59.179688 0)"/>
      <use xlink:href="#DejaVuSans-5b" transform="translate(90.966797 0)"/>
      <use xlink:href="#DejaVuSans-6d" transform="translate(129.980469 0)"/>
      <use xlink:href="#DejaVuSans-5d" transform="translate(227.392578 0)"/>
     </g>
    </g>
   </g>
   <g id="matplotlib.axis_2">
    <g id="ytick_1">
     <g id="line2d_10">
      <defs>
       <path id="m347ab5cfd2" d="M 0 0 
L -3.5 0 
" style="stroke: #000000; stroke-width: 0.8"/>
      </defs>
      <g>
       <use xlink:href="#m347ab5cfd2" x="46.965625" y="226.612428" style="stroke: #000000; stroke-width: 0.8"/>
      </g>
     </g>
     <g id="text_11">
      <!-- 98 -->
      <g transform="translate(27.240625 230.411647) scale(0.1 -0.1)">
       <defs>
        <path id="DejaVuSans-39" d="M 703 97 
L 703 672 
Q 941 559 1184 500 
Q 1428 441 1663 441 
Q 2288 441 2617 861 
Q 2947 1281 2994 2138 
Q 2813 1869 2534 1725 
Q 2256 1581 1919 1581 
Q 1219 1581 811 2004 
Q 403 2428 403 3163 
Q 403 3881 828 4315 
Q 1253 4750 1959 4750 
Q 2769 4750 3195 4129 
Q 3622 3509 3622 2328 
Q 3622 1225 3098 567 
Q 2575 -91 1691 -91 
Q 1453 -91 1209 -44 
Q 966 3 703 97 
z
M 1959 2075 
Q 2384 2075 2632 2365 
Q 2881 2656 2881 3163 
Q 2881 3666 2632 3958 
Q 2384 4250 1959 4250 
Q 1534 4250 1286 3958 
Q 1038 3666 1038 3163 
Q 1038 2656 1286 2365 
Q 1534 2075 1959 2075 
z
" transform="scale(0.015625)"/>
        <path id="DejaVuSans-38" d="M 2034 2216 
Q 1584 2216 1326 1975 
Q 1069 1734 1069 1313 
Q 1069 891 1326 650 
Q 1584 409 2034 409 
Q 2484 409 2743 651 
Q 3003 894 3003 1313 
Q 3003 1734 2745 1975 
Q 2488 2216 2034 2216 
z
M 1403 2484 
Q 997 2584 770 2862 
Q 544 3141 544 3541 
Q 544 4100 942 4425 
Q 1341 4750 2034 4750 
Q 2731 4750 3128 4425 
Q 3525 4100 3525 3541 
Q 3525 3141 3298 2862 
Q 3072 2584 2669 2484 
Q 3125 2378 3379 2068 
Q 3634 1759 3634 1313 
Q 3634 634 3220 271 
Q 2806 -91 2034 -91 
Q 1263 -91 848 271 
Q 434 634 434 1313 
Q 434 1759 690 2068 
Q 947 2378 1403 2484 
z
M 1172 3481 
Q 1172 3119 1398 2916 
Q 1625 2713 2034 2713 
Q 2441 2713 2670 2916 
Q 2900 3119 2900 3481 
Q 2900 3844 2670 4047 
Q 2441 4250 2034 4250 
Q 1625 4250 1398 4047 
Q 1172 3844 1172 3481 
z
" transform="scale(0.015625)"/>
       </defs>
       <use xlink:href="#DejaVuSans-39"/>
       <use xlink:href="#DejaVuSans-38" transform="translate(63.623047 0)"/>
      </g>
     </g>
    </g>
    <g id="ytick_2">
     <g id="line2d_11">
      <g>
       <use xlink:href="#m347ab5cfd2" x="46.965625" y="199.660777" style="stroke: #000000; stroke-width: 0.8"/>
      </g>
     </g>
     <g id="text_12">
      <!-- 99 -->
      <g transform="translate(27.240625 203.459996) scale(0.1 -0.1)">
       <use xlink:href="#DejaVuSans-39"/>
       <use xlink:href="#DejaVuSans-39" transform="translate(63.623047 0)"/>
      </g>
     </g>
    </g>
    <g id="ytick_3">
     <g id="line2d_12">
      <g>
       <use xlink:href="#m347ab5cfd2" x="46.965625" y="172.709126" style="stroke: #000000; stroke-width: 0.8"/>
      </g>
     </g>
     <g id="text_13">
      <!-- 100 -->
      <g transform="translate(20.878125 176.508345) scale(0.1 -0.1)">
       <use xlink:href="#DejaVuSans-31"/>
       <use xlink:href="#DejaVuSans-30" transform="translate(63.623047 0)"/>
       <use xlink:href="#DejaVuSans-30" transform="translate(127.246094 0)"/>
      </g>
     </g>
    </g>
    <g id="ytick_4">
     <g id="line2d_13">
      <g>
       <use xlink:href="#m347ab5cfd2" x="46.965625" y="145.757475" style="stroke: #000000; stroke-width: 0.8"/>
      </g>
     </g>
     <g id="text_14">
      <!-- 101 -->
      <g transform="translate(20.878125 149.556693) scale(0.1 -0.1)">
       <use xlink:href="#DejaVuSans-31"/>
       <use xlink:href="#DejaVuSans-30" transform="translate(63.623047 0)"/>
       <use xlink:href="#DejaVuSans-31" transform="translate(127.246094 0)"/>
      </g>
     </g>
    </g>
    <g id="ytick_5">
     <g id="line2d_14">
      <g>
       <use xlink:href="#m347ab5cfd2" x="46.965625" y="118.805824" style="stroke: #000000; stroke-width: 0.8"/>
      </g>
     </g>
     <g id="text_15">
      <!-- 102 -->
      <g transform="translate(20.878125 122.605042) scale(0.1 -0.1)">
       <use xlink:href="#DejaVuSans-31"/>
       <use xlink:href="#DejaVuSans-30" transform="translate(63.623047 0)"/>
       <use xlink:href="#DejaVuSans-32" transform="translate(127.246094 0)"/>
      </g>
     </g>
    </g>
    <g id="ytick_6">
     <g id="line2d_15">
      <g>
       <use xlink:href="#m347ab5cfd2" x="46.965625" y="91.854172" style="stroke: #000000; stroke-width: 0.8"/>
      </g>
     </g>
     <g id="text_16">
      <!-- 103 -->
      <g transform="translate(20.878125 95.653391) scale(0.1 -0.1)">
       <defs>
        <path id="DejaVuSans-33" d="M 2597 2516 
Q 3050 2419 3304 2112 
Q 3559 1806 3559 1356 
Q 3559 666 3084 287 
Q 2609 -91 1734 -91 
Q 1441 -91 1130 -33 
Q 819 25 488 141 
L 488 750 
Q 750 597 1062 519 
Q 1375 441 1716 441 
Q 2309 441 2620 675 
Q 2931 909 2931 1356 
Q 2931 1769 2642 2001 
Q 2353 2234 1838 2234 
L 1294 2234 
L 1294 2753 
L 1863 2753 
Q 2328 2753 2575 2939 
Q 2822 3125 2822 3475 
Q 2822 3834 2567 4026 
Q 2313 4219 1838 4219 
Q 1578 4219 1281 4162 
Q 984 4106 628 3988 
L 628 4550 
Q 988 4650 1302 4700 
Q 1616 4750 1894 4750 
Q 2613 4750 3031 4423 
Q 3450 4097 3450 3541 
Q 3450 3153 3228 2886 
Q 3006 2619 2597 2516 
z
" transform="scale(0.015625)"/>
       </defs>
       <use xlink:href="#DejaVuSans-31"/>
       <use xlink:href="#DejaVuSans-30" transform="translate(63.623047 0)"/>
       <use xlink:href="#DejaVuSans-33" transform="translate(127.246094 0)"/>
      </g>
     </g>
    </g>
    <g id="ytick_7">
     <g id="line2d_16">
      <g>
       <use xlink:href="#m347ab5cfd2" x="46.965625" y="64.902521" style="stroke: #000000; stroke-width: 0.8"/>
      </g>
     </g>
     <g id="text_17">
      <!-- 104 -->
      <g transform="translate(20.878125 68.70174) scale(0.1 -0.1)">
       <defs>
        <path id="DejaVuSans-34" d="M 2419 4116 
L 825 1625 
L 2419 1625 
L 2419 4116 
z
M 2253 4666 
L 3047 4666 
L 3047 1625 
L 3713 1625 
L 3713 1100 
L 3047 1100 
L 3047 0 
L 2419 0 
L 2419 1100 
L 313 1100 
L 313 1709 
L 2253 4666 
z
" transform="scale(0.015625)"/>
       </defs>
       <use xlink:href="#DejaVuSans-31"/>
       <use xlink:href="#DejaVuSans-30" transform="translate(63.623047 0)"/>
       <use xlink:href="#DejaVuSans-34" transform="translate(127.246094 0)"/>
      </g>
     </g>
    </g>
    <g id="ytick_8">
     <g id="line2d_17">
      <g>
       <use xlink:href="#m347ab5cfd2" x="46.965625" y="37.95087" style="stroke: #000000; stroke-width: 0.8"/>
      </g>
     </g>
     <g id="text_18">
      <!-- 105 -->
      <g transform="translate(20.878125 41.750089) scale(0.1 -0.1)">
       <use xlink:href="#DejaVuSans-31"/>
       <use xlink:href="#DejaVuSans-30" transform="translate(63.623047 0)"/>
       <use xlink:href="#DejaVuSans-35" transform="translate(127.246094 0)"/>
      </g>
     </g>
    </g>
    <g id="ytick_9">
     <g id="line2d_18">
      <g>
       <use xlink:href="#m347ab5cfd2" x="46.965625" y="10.999219" style="stroke: #000000; stroke-width: 0.8"/>
      </g>
     </g>
     <g id="text_19">
      <!-- 106 -->
      <g transform="translate(20.878125 14.798437) scale(0.1 -0.1)">
       <defs>
        <path id="DejaVuSans-36" d="M 2113 2584 
Q 1688 2584 1439 2293 
Q 1191 2003 1191 1497 
Q 1191 994 1439 701 
Q 1688 409 2113 409 
Q 2538 409 2786 701 
Q 3034 994 3034 1497 
Q 3034 2003 2786 2293 
Q 2538 2584 2113 2584 
z
M 3366 4563 
L 3366 3988 
Q 3128 4100 2886 4159 
Q 2644 4219 2406 4219 
Q 1781 4219 1451 3797 
Q 1122 3375 1075 2522 
Q 1259 2794 1537 2939 
Q 1816 3084 2150 3084 
Q 2853 3084 3261 2657 
Q 3669 2231 3669 1497 
Q 3669 778 3244 343 
Q 2819 -91 2113 -91 
Q 1303 -91 875 529 
Q 447 1150 447 2328 
Q 447 3434 972 4092 
Q 1497 4750 2381 4750 
Q 2619 4750 2861 4703 
Q 3103 4656 3366 4563 
z
" transform="scale(0.015625)"/>
       </defs>
       <use xlink:href="#DejaVuSans-31"/>
       <use xlink:href="#DejaVuSans-30" transform="translate(63.623047 0)"/>
       <use xlink:href="#DejaVuSans-36" transform="translate(127.246094 0)"/>
      </g>
     </g>
    </g>
    <g id="text_20">
     <!-- [K] -->
     <g transform="translate(14.798438 126.040467) rotate(-90) scale(0.1 -0.1)">
      <defs>
       <path id="DejaVuSans-4b" d="M 628 4666 
L 1259 4666 
L 1259 2694 
L 3353 4666 
L 4166 4666 
L 1850 2491 
L 4331 0 
L 3500 0 
L 1259 2247 
L 1259 0 
L 628 0 
L 628 4666 
z
" transform="scale(0.015625)"/>
      </defs>
      <use xlink:href="#DejaVuSans-5b"/>
      <use xlink:href="#DejaVuSans-4b" transform="translate(39.013672 0)"/>
      <use xlink:href="#DejaVuSans-5d" transform="translate(104.589844 0)"/>
     </g>
    </g>
   </g>
   <g id="line2d_19">
    <defs>
     <path id="mab78be396d" d="M 0 3 
C 0.795609 3 1.55874 2.683901 2.12132 2.12132 
C 2.683901 1.55874 3 0.795609 3 0 
C 3 -0.795609 2.683901 -1.55874 2.12132 -2.12132 
C 1.55874 -2.683901 0.795609 -3 0 -3 
C -0.795609 -3 -1.55874 -2.683901 -2.12132 -2.12132 
C -2.683901 -1.55874 -3 -0.795609 -3 0 
C -3 0.795609 -2.683901 1.55874 -2.12132 2.12132 
C -1.55874 2.683901 -0.795609 3 0 3 
z
" style="stroke: #1f77b4"/>
    </defs>
    <g clip-path="url(#p762fd9b673)">
     <use xlink:href="#mab78be396d" x="62.183807" y="155.541957" style="fill: #1f77b4; stroke: #1f77b4"/>
     <use xlink:href="#mab78be396d" x="68.39531" y="162.68776" style="fill: #1f77b4; stroke: #1f77b4"/>
     <use xlink:href="#mab78be396d" x="74.606812" y="166.104485" style="fill: #1f77b4; stroke: #1f77b4"/>
     <use xlink:href="#mab78be396d" x="80.818315" y="164.013173" style="fill: #1f77b4; stroke: #1f77b4"/>
     <use xlink:href="#mab78be396d" x="87.029818" y="139.789476" style="fill: #1f77b4; stroke: #1f77b4"/>
     <use xlink:href="#mab78be396d" x="93.241321" y="134.358014" style="fill: #1f77b4; stroke: #1f77b4"/>
     <use xlink:href="#mab78be396d" x="99.452824" y="139.858279" style="fill: #1f77b4; stroke: #1f77b4"/>
     <use xlink:href="#mab78be396d" x="105.664326" y="133.79681" style="fill: #1f77b4; stroke: #1f77b4"/>
     <use xlink:href="#mab78be396d" x="111.875829" y="136.056187" style="fill: #1f77b4; stroke: #1f77b4"/>
     <use xlink:href="#mab78be396d" x="118.087332" y="122.755864" style="fill: #1f77b4; stroke: #1f77b4"/>
     <use xlink:href="#mab78be396d" x="124.298835" y="123.218841" style="fill: #1f77b4; stroke: #1f77b4"/>
     <use xlink:href="#mab78be396d" x="130.510337" y="142.383465" style="fill: #1f77b4; stroke: #1f77b4"/>
     <use xlink:href="#mab78be396d" x="136.72184" y="116.598643" style="fill: #1f77b4; stroke: #1f77b4"/>
     <use xlink:href="#mab78be396d" x="142.933343" y="136.051749" style="fill: #1f77b4; stroke: #1f77b4"/>
     <use xlink:href="#mab78be396d" x="149.144846" y="114.541348" style="fill: #1f77b4; stroke: #1f77b4"/>
     <use xlink:href="#mab78be396d" x="155.356349" y="126.72239" style="fill: #1f77b4; stroke: #1f77b4"/>
     <use xlink:href="#mab78be396d" x="161.567851" y="105.442333" style="fill: #1f77b4; stroke: #1f77b4"/>
     <use xlink:href="#mab78be396d" x="167.779354" y="111.362988" style="fill: #1f77b4; stroke: #1f77b4"/>
     <use xlink:href="#mab78be396d" x="173.990857" y="115.128363" style="fill: #1f77b4; stroke: #1f77b4"/>
     <use xlink:href="#mab78be396d" x="180.20236" y="109.063806" style="fill: #1f77b4; stroke: #1f77b4"/>
     <use xlink:href="#mab78be396d" x="186.413862" y="116.942494" style="fill: #1f77b4; stroke: #1f77b4"/>
     <use xlink:href="#mab78be396d" x="192.625365" y="111.605948" style="fill: #1f77b4; stroke: #1f77b4"/>
     <use xlink:href="#mab78be396d" x="198.836868" y="94.130984" style="fill: #1f77b4; stroke: #1f77b4"/>
     <use xlink:href="#mab78be396d" x="205.048371" y="92.012425" style="fill: #1f77b4; stroke: #1f77b4"/>
     <use xlink:href="#mab78be396d" x="211.259874" y="90.119437" style="fill: #1f77b4; stroke: #1f77b4"/>
     <use xlink:href="#mab78be396d" x="217.471376" y="93.61417" style="fill: #1f77b4; stroke: #1f77b4"/>
     <use xlink:href="#mab78be396d" x="223.682879" y="74.328291" style="fill: #1f77b4; stroke: #1f77b4"/>
     <use xlink:href="#mab78be396d" x="229.894382" y="72.019445" style="fill: #1f77b4; stroke: #1f77b4"/>
     <use xlink:href="#mab78be396d" x="236.105885" y="77.22792" style="fill: #1f77b4; stroke: #1f77b4"/>
     <use xlink:href="#mab78be396d" x="242.317388" y="75.423288" style="fill: #1f77b4; stroke: #1f77b4"/>
     <use xlink:href="#mab78be396d" x="248.52889" y="71.649295" style="fill: #1f77b4; stroke: #1f77b4"/>
     <use xlink:href="#mab78be396d" x="254.740393" y="76.971828" style="fill: #1f77b4; stroke: #1f77b4"/>
     <use xlink:href="#mab78be396d" x="260.951896" y="81.06266" style="fill: #1f77b4; stroke: #1f77b4"/>
     <use xlink:href="#mab78be396d" x="267.163399" y="62.508264" style="fill: #1f77b4; stroke: #1f77b4"/>
     <use xlink:href="#mab78be396d" x="273.374901" y="65.044231" style="fill: #1f77b4; stroke: #1f77b4"/>
     <use xlink:href="#mab78be396d" x="279.586404" y="68.091698" style="fill: #1f77b4; stroke: #1f77b4"/>
     <use xlink:href="#mab78be396d" x="285.797907" y="60.608995" style="fill: #1f77b4; stroke: #1f77b4"/>
     <use xlink:href="#mab78be396d" x="292.00941" y="46.979726" style="fill: #1f77b4; stroke: #1f77b4"/>
     <use xlink:href="#mab78be396d" x="298.220913" y="43.028708" style="fill: #1f77b4; stroke: #1f77b4"/>
     <use xlink:href="#mab78be396d" x="304.432415" y="55.809383" style="fill: #1f77b4; stroke: #1f77b4"/>
     <use xlink:href="#mab78be396d" x="310.643918" y="47.298714" style="fill: #1f77b4; stroke: #1f77b4"/>
     <use xlink:href="#mab78be396d" x="316.855421" y="51.277306" style="fill: #1f77b4; stroke: #1f77b4"/>
     <use xlink:href="#mab78be396d" x="323.066924" y="41.184682" style="fill: #1f77b4; stroke: #1f77b4"/>
     <use xlink:href="#mab78be396d" x="329.278426" y="45.344615" style="fill: #1f77b4; stroke: #1f77b4"/>
     <use xlink:href="#mab78be396d" x="335.489929" y="41.146934" style="fill: #1f77b4; stroke: #1f77b4"/>
     <use xlink:href="#mab78be396d" x="341.701432" y="24.95718" style="fill: #1f77b4; stroke: #1f77b4"/>
     <use xlink:href="#mab78be396d" x="347.912935" y="40.079103" style="fill: #1f77b4; stroke: #1f77b4"/>
     <use xlink:href="#mab78be396d" x="354.124438" y="26.655284" style="fill: #1f77b4; stroke: #1f77b4"/>
     <use xlink:href="#mab78be396d" x="360.33594" y="38.436686" style="fill: #1f77b4; stroke: #1f77b4"/>
     <use xlink:href="#mab78be396d" x="366.547443" y="15.509735" style="fill: #1f77b4; stroke: #1f77b4"/>
    </g>
   </g>
   <g id="line2d_20">
    <defs>
     <path id="m421614b545" d="M -0 3 
L 3 -3 
L -3 -3 
z
" style="stroke: #ff7f0e; stroke-linejoin: miter"/>
    </defs>
    <g clip-path="url(#p762fd9b673)">
     <use xlink:href="#m421614b545" x="62.183807" y="178.447178" style="fill: #ff7f0e; stroke: #ff7f0e; stroke-linejoin: miter"/>
     <use xlink:href="#m421614b545" x="68.39531" y="191.559274" style="fill: #ff7f0e; stroke: #ff7f0e; stroke-linejoin: miter"/>
     <use xlink:href="#m421614b545" x="74.606812" y="172.737878" style="fill: #ff7f0e; stroke: #ff7f0e; stroke-linejoin: miter"/>
     <use xlink:href="#m421614b545" x="80.818315" y="193.131969" style="fill: #ff7f0e; stroke: #ff7f0e; stroke-linejoin: miter"/>
     <use xlink:href="#m421614b545" x="87.029818" y="184.001463" style="fill: #ff7f0e; stroke: #ff7f0e; stroke-linejoin: miter"/>
     <use xlink:href="#m421614b545" x="93.241321" y="187.359992" style="fill: #ff7f0e; stroke: #ff7f0e; stroke-linejoin: miter"/>
     <use xlink:href="#m421614b545" x="99.452824" y="177.622781" style="fill: #ff7f0e; stroke: #ff7f0e; stroke-linejoin: miter"/>
     <use xlink:href="#m421614b545" x="105.664326" y="166.647815" style="fill: #ff7f0e; stroke: #ff7f0e; stroke-linejoin: miter"/>
     <use xlink:href="#m421614b545" x="111.875829" y="180.24378" style="fill: #ff7f0e; stroke: #ff7f0e; stroke-linejoin: miter"/>
     <use xlink:href="#m421614b545" x="118.087332" y="183.407807" style="fill: #ff7f0e; stroke: #ff7f0e; stroke-linejoin: miter"/>
     <use xlink:href="#m421614b545" x="124.298835" y="172.256426" style="fill: #ff7f0e; stroke: #ff7f0e; stroke-linejoin: miter"/>
     <use xlink:href="#m421614b545" x="130.510337" y="176.159411" style="fill: #ff7f0e; stroke: #ff7f0e; stroke-linejoin: miter"/>
     <use xlink:href="#m421614b545" x="136.72184" y="177.41362" style="fill: #ff7f0e; stroke: #ff7f0e; stroke-linejoin: miter"/>
     <use xlink:href="#m421614b545" x="142.933343" y="162.568547" style="fill: #ff7f0e; stroke: #ff7f0e; stroke-linejoin: miter"/>
     <use xlink:href="#m421614b545" x="149.144846" y="168.509008" style="fill: #ff7f0e; stroke: #ff7f0e; stroke-linejoin: miter"/>
     <use xlink:href="#m421614b545" x="155.356349" y="156.797889" style="fill: #ff7f0e; stroke: #ff7f0e; stroke-linejoin: miter"/>
     <use xlink:href="#m421614b545" x="161.567851" y="167.881889" style="fill: #ff7f0e; stroke: #ff7f0e; stroke-linejoin: miter"/>
     <use xlink:href="#m421614b545" x="167.779354" y="146.217555" style="fill: #ff7f0e; stroke: #ff7f0e; stroke-linejoin: miter"/>
     <use xlink:href="#m421614b545" x="173.990857" y="160.118636" style="fill: #ff7f0e; stroke: #ff7f0e; stroke-linejoin: miter"/>
     <use xlink:href="#m421614b545" x="180.20236" y="165.465584" style="fill: #ff7f0e; stroke: #ff7f0e; stroke-linejoin: miter"/>
     <use xlink:href="#m421614b545" x="186.413862" y="149.703252" style="fill: #ff7f0e; stroke: #ff7f0e; stroke-linejoin: miter"/>
     <use xlink:href="#m421614b545" x="192.625365" y="140.020308" style="fill: #ff7f0e; stroke: #ff7f0e; stroke-linejoin: miter"/>
     <use xlink:href="#m421614b545" x="198.836868" y="151.489662" style="fill: #ff7f0e; stroke: #ff7f0e; stroke-linejoin: miter"/>
     <use xlink:href="#m421614b545" x="205.048371" y="135.980662" style="fill: #ff7f0e; stroke: #ff7f0e; stroke-linejoin: miter"/>
     <use xlink:href="#m421614b545" x="211.259874" y="146.585333" style="fill: #ff7f0e; stroke: #ff7f0e; stroke-linejoin: miter"/>
     <use xlink:href="#m421614b545" x="217.471376" y="146.947636" style="fill: #ff7f0e; stroke: #ff7f0e; stroke-linejoin: miter"/>
     <use xlink:href="#m421614b545" x="223.682879" y="140.042372" style="fill: #ff7f0e; stroke: #ff7f0e; stroke-linejoin: miter"/>
     <use xlink:href="#m421614b545" x="229.894382" y="128.288554" style="fill: #ff7f0e; stroke: #ff7f0e; stroke-linejoin: miter"/>
     <use xlink:href="#m421614b545" x="236.105885" y="127.882348" style="fill: #ff7f0e; stroke: #ff7f0e; stroke-linejoin: miter"/>
     <use xlink:href="#m421614b545" x="242.317388" y="139.408869" style="fill: #ff7f0e; stroke: #ff7f0e; stroke-linejoin: miter"/>
     <use xlink:href="#m421614b545" x="248.52889" y="129.735701" style="fill: #ff7f0e; stroke: #ff7f0e; stroke-linejoin: miter"/>
     <use xlink:href="#m421614b545" x="254.740393" y="135.10128" style="fill: #ff7f0e; stroke: #ff7f0e; stroke-linejoin: miter"/>
     <use xlink:href="#m421614b545" x="260.951896" y="132.591705" style="fill: #ff7f0e; stroke: #ff7f0e; stroke-linejoin: miter"/>
     <use xlink:href="#m421614b545" x="267.163399" y="124.029219" style="fill: #ff7f0e; stroke: #ff7f0e; stroke-linejoin: miter"/>
     <use xlink:href="#m421614b545" x="273.374901" y="132.38168" style="fill: #ff7f0e; stroke: #ff7f0e; stroke-linejoin: miter"/>
     <use xlink:href="#m421614b545" x="279.586404" y="122.111694" style="fill: #ff7f0e; stroke: #ff7f0e; stroke-linejoin: miter"/>
     <use xlink:href="#m421614b545" x="285.797907" y="121.090663" style="fill: #ff7f0e; stroke: #ff7f0e; stroke-linejoin: miter"/>
     <use xlink:href="#m421614b545" x="292.00941" y="113.486489" style="fill: #ff7f0e; stroke: #ff7f0e; stroke-linejoin: miter"/>
     <use xlink:href="#m421614b545" x="298.220913" y="133.859311" style="fill: #ff7f0e; stroke: #ff7f0e; stroke-linejoin: miter"/>
     <use xlink:href="#m421614b545" x="304.432415" y="115.658673" style="fill: #ff7f0e; stroke: #ff7f0e; stroke-linejoin: miter"/>
     <use xlink:href="#m421614b545" x="310.643918" y="108.661127" style="fill: #ff7f0e; stroke: #ff7f0e; stroke-linejoin: miter"/>
     <use xlink:href="#m421614b545" x="316.855421" y="105.919423" style="fill: #ff7f0e; stroke: #ff7f0e; stroke-linejoin: miter"/>
     <use xlink:href="#m421614b545" x="323.066924" y="129.960172" style="fill: #ff7f0e; stroke: #ff7f0e; stroke-linejoin: miter"/>
     <use xlink:href="#m421614b545" x="329.278426" y="105.429904" style="fill: #ff7f0e; stroke: #ff7f0e; stroke-linejoin: miter"/>
     <use xlink:href="#m421614b545" x="335.489929" y="100.611503" style="fill: #ff7f0e; stroke: #ff7f0e; stroke-linejoin: miter"/>
     <use xlink:href="#m421614b545" x="341.701432" y="99.607833" style="fill: #ff7f0e; stroke: #ff7f0e; stroke-linejoin: miter"/>
     <use xlink:href="#m421614b545" x="347.912935" y="119.746691" style="fill: #ff7f0e; stroke: #ff7f0e; stroke-linejoin: miter"/>
     <use xlink:href="#m421614b545" x="354.124438" y="95.892073" style="fill: #ff7f0e; stroke: #ff7f0e; stroke-linejoin: miter"/>
     <use xlink:href="#m421614b545" x="360.33594" y="96.470692" style="fill: #ff7f0e; stroke: #ff7f0e; stroke-linejoin: miter"/>
     <use xlink:href="#m421614b545" x="366.547443" y="96.641491" style="fill: #ff7f0e; stroke: #ff7f0e; stroke-linejoin: miter"/>
    </g>
   </g>
   <g id="LineCollection_1">
    <path d="M 62.183807 214.476791 
L 62.183807 142.417565 
" clip-path="url(#p762fd9b673)" style="fill: none; stroke: #ff7f0e; stroke-width: 1.5"/>
    <path d="M 68.39531 221.563731 
L 68.39531 161.554817 
" clip-path="url(#p762fd9b673)" style="fill: none; stroke: #ff7f0e; stroke-width: 1.5"/>
    <path d="M 74.606812 209.65755 
L 74.606812 135.818205 
" clip-path="url(#p762fd9b673)" style="fill: none; stroke: #ff7f0e; stroke-width: 1.5"/>
    <path d="M 80.818315 220.861643 
L 80.818315 165.402294 
" clip-path="url(#p762fd9b673)" style="fill: none; stroke: #ff7f0e; stroke-width: 1.5"/>
    <path d="M 87.029818 215.155019 
L 87.029818 152.847907 
" clip-path="url(#p762fd9b673)" style="fill: none; stroke: #ff7f0e; stroke-width: 1.5"/>
    <path d="M 93.241321 216.265929 
L 93.241321 158.454054 
" clip-path="url(#p762fd9b673)" style="fill: none; stroke: #ff7f0e; stroke-width: 1.5"/>
    <path d="M 99.452824 210.080664 
L 99.452824 145.164898 
" clip-path="url(#p762fd9b673)" style="fill: none; stroke: #ff7f0e; stroke-width: 1.5"/>
    <path d="M 105.664326 202.770311 
L 105.664326 130.52532 
" clip-path="url(#p762fd9b673)" style="fill: none; stroke: #ff7f0e; stroke-width: 1.5"/>
    <path d="M 111.875829 210.142409 
L 111.875829 150.345151 
" clip-path="url(#p762fd9b673)" style="fill: none; stroke: #ff7f0e; stroke-width: 1.5"/>
    <path d="M 118.087332 211.051601 
L 118.087332 155.764014 
" clip-path="url(#p762fd9b673)" style="fill: none; stroke: #ff7f0e; stroke-width: 1.5"/>
    <path d="M 124.298835 204.197849 
L 124.298835 140.315003 
" clip-path="url(#p762fd9b673)" style="fill: none; stroke: #ff7f0e; stroke-width: 1.5"/>
    <path d="M 130.510337 205.665168 
L 130.510337 146.653654 
" clip-path="url(#p762fd9b673)" style="fill: none; stroke: #ff7f0e; stroke-width: 1.5"/>
    <path d="M 136.72184 205.561688 
L 136.72184 149.265551 
" clip-path="url(#p762fd9b673)" style="fill: none; stroke: #ff7f0e; stroke-width: 1.5"/>
    <path d="M 142.933343 196.44981 
L 142.933343 128.687283 
" clip-path="url(#p762fd9b673)" style="fill: none; stroke: #ff7f0e; stroke-width: 1.5"/>
    <path d="M 149.144846 199.223204 
L 149.144846 137.794812 
" clip-path="url(#p762fd9b673)" style="fill: none; stroke: #ff7f0e; stroke-width: 1.5"/>
    <path d="M 155.356349 191.647894 
L 155.356349 121.947884 
" clip-path="url(#p762fd9b673)" style="fill: none; stroke: #ff7f0e; stroke-width: 1.5"/>
    <path d="M 161.567851 197.399982 
L 161.567851 138.363796 
" clip-path="url(#p762fd9b673)" style="fill: none; stroke: #ff7f0e; stroke-width: 1.5"/>
    <path d="M 167.779354 183.7773 
L 167.779354 108.657809 
" clip-path="url(#p762fd9b673)" style="fill: none; stroke: #ff7f0e; stroke-width: 1.5"/>
    <path d="M 173.990857 191.608387 
L 173.990857 128.628884 
" clip-path="url(#p762fd9b673)" style="fill: none; stroke: #ff7f0e; stroke-width: 1.5"/>
    <path d="M 180.20236 193.803234 
L 180.20236 137.127935 
" clip-path="url(#p762fd9b673)" style="fill: none; stroke: #ff7f0e; stroke-width: 1.5"/>
    <path d="M 186.413862 184.103402 
L 186.413862 115.303102 
" clip-path="url(#p762fd9b673)" style="fill: none; stroke: #ff7f0e; stroke-width: 1.5"/>
    <path d="M 192.625365 177.435127 
L 192.625365 102.605489 
" clip-path="url(#p762fd9b673)" style="fill: none; stroke: #ff7f0e; stroke-width: 1.5"/>
    <path d="M 198.836868 183.835878 
L 198.836868 119.143445 
" clip-path="url(#p762fd9b673)" style="fill: none; stroke: #ff7f0e; stroke-width: 1.5"/>
    <path d="M 205.048371 173.660868 
L 205.048371 98.300456 
" clip-path="url(#p762fd9b673)" style="fill: none; stroke: #ff7f0e; stroke-width: 1.5"/>
    <path d="M 211.259874 179.593083 
L 211.259874 113.577583 
" clip-path="url(#p762fd9b673)" style="fill: none; stroke: #ff7f0e; stroke-width: 1.5"/>
    <path d="M 217.471376 179.12331 
L 217.471376 114.771963 
" clip-path="url(#p762fd9b673)" style="fill: none; stroke: #ff7f0e; stroke-width: 1.5"/>
    <path d="M 223.682879 174.348483 
L 223.682879 105.736261 
" clip-path="url(#p762fd9b673)" style="fill: none; stroke: #ff7f0e; stroke-width: 1.5"/>
    <path d="M 229.894382 166.357191 
L 229.894382 90.219916 
" clip-path="url(#p762fd9b673)" style="fill: none; stroke: #ff7f0e; stroke-width: 1.5"/>
    <path d="M 236.105885 165.508085 
L 236.105885 90.25661 
" clip-path="url(#p762fd9b673)" style="fill: none; stroke: #ff7f0e; stroke-width: 1.5"/>
    <path d="M 242.317388 171.975177 
L 242.317388 106.842562 
" clip-path="url(#p762fd9b673)" style="fill: none; stroke: #ff7f0e; stroke-width: 1.5"/>
    <path d="M 248.52889 165.468029 
L 248.52889 94.003372 
" clip-path="url(#p762fd9b673)" style="fill: none; stroke: #ff7f0e; stroke-width: 1.5"/>
    <path d="M 254.740393 168.081807 
L 254.740393 102.120754 
" clip-path="url(#p762fd9b673)" style="fill: none; stroke: #ff7f0e; stroke-width: 1.5"/>
    <path d="M 260.951896 165.921562 
L 260.951896 99.261849 
" clip-path="url(#p762fd9b673)" style="fill: none; stroke: #ff7f0e; stroke-width: 1.5"/>
    <path d="M 267.163399 160.045598 
L 267.163399 88.01284 
" clip-path="url(#p762fd9b673)" style="fill: none; stroke: #ff7f0e; stroke-width: 1.5"/>
    <path d="M 273.374901 164.437787 
L 273.374901 100.325573 
" clip-path="url(#p762fd9b673)" style="fill: none; stroke: #ff7f0e; stroke-width: 1.5"/>
    <path d="M 279.586404 157.606963 
L 279.586404 86.616425 
" clip-path="url(#p762fd9b673)" style="fill: none; stroke: #ff7f0e; stroke-width: 1.5"/>
    <path d="M 285.797907 156.346296 
L 285.797907 85.83503 
" clip-path="url(#p762fd9b673)" style="fill: none; stroke: #ff7f0e; stroke-width: 1.5"/>
    <path d="M 292.00941 150.948893 
L 292.00941 76.024085 
" clip-path="url(#p762fd9b673)" style="fill: none; stroke: #ff7f0e; stroke-width: 1.5"/>
    <path d="M 298.220913 162.31766 
L 298.220913 105.400963 
" clip-path="url(#p762fd9b673)" style="fill: none; stroke: #ff7f0e; stroke-width: 1.5"/>
    <path d="M 304.432415 151.097944 
L 304.432415 80.219403 
" clip-path="url(#p762fd9b673)" style="fill: none; stroke: #ff7f0e; stroke-width: 1.5"/>
    <path d="M 310.643918 146.078561 
L 310.643918 71.243693 
" clip-path="url(#p762fd9b673)" style="fill: none; stroke: #ff7f0e; stroke-width: 1.5"/>
    <path d="M 316.855421 143.727952 
L 316.855421 68.110894 
" clip-path="url(#p762fd9b673)" style="fill: none; stroke: #ff7f0e; stroke-width: 1.5"/>
    <path d="M 323.066924 157.109279 
L 323.066924 102.811064 
" clip-path="url(#p762fd9b673)" style="fill: none; stroke: #ff7f0e; stroke-width: 1.5"/>
    <path d="M 329.278426 142.223005 
L 329.278426 68.636802 
" clip-path="url(#p762fd9b673)" style="fill: none; stroke: #ff7f0e; stroke-width: 1.5"/>
    <path d="M 335.489929 138.54728 
L 335.489929 62.675725 
" clip-path="url(#p762fd9b673)" style="fill: none; stroke: #ff7f0e; stroke-width: 1.5"/>
    <path d="M 341.701432 137.313281 
L 341.701432 61.902385 
" clip-path="url(#p762fd9b673)" style="fill: none; stroke: #ff7f0e; stroke-width: 1.5"/>
    <path d="M 347.912935 148.633581 
L 347.912935 90.859801 
" clip-path="url(#p762fd9b673)" style="fill: none; stroke: #ff7f0e; stroke-width: 1.5"/>
    <path d="M 354.124438 133.745749 
L 354.124438 58.038397 
" clip-path="url(#p762fd9b673)" style="fill: none; stroke: #ff7f0e; stroke-width: 1.5"/>
    <path d="M 360.33594 133.522455 
L 360.33594 59.418929 
" clip-path="url(#p762fd9b673)" style="fill: none; stroke: #ff7f0e; stroke-width: 1.5"/>
    <path d="M 366.547443 133.024961 
L 366.547443 60.258021 
" clip-path="url(#p762fd9b673)" style="fill: none; stroke: #ff7f0e; stroke-width: 1.5"/>
   </g>
   <g id="patch_3">
    <path d="M 46.965625 229.739998 
L 46.965625 7.979998 
" style="fill: none; stroke: #000000; stroke-width: 0.8; stroke-linejoin: miter; stroke-linecap: square"/>
   </g>
   <g id="patch_4">
    <path d="M 381.765625 229.739998 
L 381.765625 7.979998 
" style="fill: none; stroke: #000000; stroke-width: 0.8; stroke-linejoin: miter; stroke-linecap: square"/>
   </g>
   <g id="patch_5">
    <path d="M 46.965625 229.739998 
L 381.765625 229.739998 
" style="fill: none; stroke: #000000; stroke-width: 0.8; stroke-linejoin: miter; stroke-linecap: square"/>
   </g>
   <g id="patch_6">
    <path d="M 46.965625 7.979998 
L 381.765625 7.979998 
" style="fill: none; stroke: #000000; stroke-width: 0.8; stroke-linejoin: miter; stroke-linecap: square"/>
   </g>
   <g id="legend_1">
    <g id="patch_7">
     <path d="M 53.965625 45.336248 
L 118.490625 45.336248 
Q 120.490625 45.336248 120.490625 43.336248 
L 120.490625 14.979998 
Q 120.490625 12.979998 118.490625 12.979998 
L 53.965625 12.979998 
Q 51.965625 12.979998 51.965625 14.979998 
L 51.965625 43.336248 
Q 51.965625 45.336248 53.965625 45.336248 
z
" style="fill: #ffffff; opacity: 0.8; stroke: #cccccc; stroke-linejoin: miter"/>
    </g>
    <g id="line2d_21">
     <g>
      <use xlink:href="#mab78be396d" x="65.965625" y="21.078435" style="fill: #1f77b4; stroke: #1f77b4"/>
     </g>
    </g>
    <g id="text_21">
     <!-- temp1 -->
     <g transform="translate(83.965625 24.578435) scale(0.1 -0.1)">
      <defs>
       <path id="DejaVuSans-74" d="M 1172 4494 
L 1172 3500 
L 2356 3500 
L 2356 3053 
L 1172 3053 
L 1172 1153 
Q 1172 725 1289 603 
Q 1406 481 1766 481 
L 2356 481 
L 2356 0 
L 1766 0 
Q 1100 0 847 248 
Q 594 497 594 1153 
L 594 3053 
L 172 3053 
L 172 3500 
L 594 3500 
L 594 4494 
L 1172 4494 
z
" transform="scale(0.015625)"/>
       <path id="DejaVuSans-65" d="M 3597 1894 
L 3597 1613 
L 953 1613 
Q 991 1019 1311 708 
Q 1631 397 2203 397 
Q 2534 397 2845 478 
Q 3156 559 3463 722 
L 3463 178 
Q 3153 47 2828 -22 
Q 2503 -91 2169 -91 
Q 1331 -91 842 396 
Q 353 884 353 1716 
Q 353 2575 817 3079 
Q 1281 3584 2069 3584 
Q 2775 3584 3186 3129 
Q 3597 2675 3597 1894 
z
M 3022 2063 
Q 3016 2534 2758 2815 
Q 2500 3097 2075 3097 
Q 1594 3097 1305 2825 
Q 1016 2553 972 2059 
L 3022 2063 
z
" transform="scale(0.015625)"/>
       <path id="DejaVuSans-70" d="M 1159 525 
L 1159 -1331 
L 581 -1331 
L 581 3500 
L 1159 3500 
L 1159 2969 
Q 1341 3281 1617 3432 
Q 1894 3584 2278 3584 
Q 2916 3584 3314 3078 
Q 3713 2572 3713 1747 
Q 3713 922 3314 415 
Q 2916 -91 2278 -91 
Q 1894 -91 1617 61 
Q 1341 213 1159 525 
z
M 3116 1747 
Q 3116 2381 2855 2742 
Q 2594 3103 2138 3103 
Q 1681 3103 1420 2742 
Q 1159 2381 1159 1747 
Q 1159 1113 1420 752 
Q 1681 391 2138 391 
Q 2594 391 2855 752 
Q 3116 1113 3116 1747 
z
" transform="scale(0.015625)"/>
      </defs>
      <use xlink:href="#DejaVuSans-74"/>
      <use xlink:href="#DejaVuSans-65" transform="translate(39.208984 0)"/>
      <use xlink:href="#DejaVuSans-6d" transform="translate(100.732422 0)"/>
      <use xlink:href="#DejaVuSans-70" transform="translate(198.144531 0)"/>
      <use xlink:href="#DejaVuSans-31" transform="translate(261.621094 0)"/>
     </g>
    </g>
    <g id="line2d_22">
     <g>
      <use xlink:href="#m421614b545" x="65.965625" y="35.75656" style="fill: #ff7f0e; stroke: #ff7f0e; stroke-linejoin: miter"/>
     </g>
    </g>
    <g id="text_22">
     <!-- temp2 -->
     <g transform="translate(83.965625 39.25656) scale(0.1 -0.1)">
      <use xlink:href="#DejaVuSans-74"/>
      <use xlink:href="#DejaVuSans-65" transform="translate(39.208984 0)"/>
      <use xlink:href="#DejaVuSans-6d" transform="translate(100.732422 0)"/>
      <use xlink:href="#DejaVuSans-70" transform="translate(198.144531 0)"/>
      <use xlink:href="#DejaVuSans-32" transform="translate(261.621094 0)"/>
     </g>
    </g>
   </g>
  </g>
 </g>
 <defs>
  <clipPath id="p762fd9b673">
   <rect x="46.965625" y="7.979998" width="334.8" height="221.76"/>
  </clipPath>
 </defs>
</svg>
