<?xml version="1.0" encoding="utf-8" standalone="no"?>
<!DOCTYPE svg PUBLIC "-//W3C//DTD SVG 1.1//EN"
  "http://www.w3.org/Graphics/SVG/1.1/DTD/svg11.dtd">
<svg xmlns:xlink="http://www.w3.org/1999/xlink" width="388.965625pt" height="266.51625pt" viewBox="0 0 388.965625 266.51625" xmlns="http://www.w3.org/2000/svg" version="1.1">
 <metadata>
  <rdf:RDF xmlns:dc="http://purl.org/dc/elements/1.1/" xmlns:cc="http://creativecommons.org/ns#" xmlns:rdf="http://www.w3.org/1999/02/22-rdf-syntax-ns#">
   <cc:Work>
    <dc:type rdf:resource="http://purl.org/dc/dcmitype/StillImage"/>
    <dc:date>2025-02-04T13:05:10.034301</dc:date>
    <dc:format>image/svg+xml</dc:format>
    <dc:creator>
     <cc:Agent>
      <dc:title>Matplotlib v3.10.0, https://matplotlib.org/</dc:title>
     </cc:Agent>
    </dc:creator>
   </cc:Work>
  </rdf:RDF>
 </metadata>
 <defs>
  <style type="text/css">*{stroke-linejoin: round; stroke-linecap: butt}</style>
 </defs>
 <g id="figure_1">
  <g id="patch_1">
   <path d="M 0 266.51625 
L 388.965625 266.51625 
L 388.965625 0 
L 0 0 
z
" style="fill: #ffffff"/>
  </g>
  <g id="axes_1">
   <g id="patch_2">
    <path d="M 46.965625 228.96 
L 381.765625 228.96 
L 381.765625 7.2 
L 46.965625 7.2 
z
" style="fill: #ffffff"/>
   </g>
   <g id="matplotlib.axis_1">
    <g id="xtick_1">
     <g id="line2d_1">
      <defs>
       <path id="mb1472a5053" d="M 0 0 
L 0 3.5 
" style="stroke: #000000; stroke-width: 0.8"/>
      </defs>
      <g>
       <use xlink:href="#mb1472a5053" x="62.183807" y="228.96" style="stroke: #000000; stroke-width: 0.8"/>
      </g>
     </g>
     <g id="text_1">
      <!-- 0.0 -->
      <g transform="translate(54.232244 243.558438) scale(0.1 -0.1)">
       <defs>
        <path id="DejaVuSans-30" d="M 2034 4250 
Q 1547 4250 1301 3770 
Q 1056 3291 1056 2328 
Q 1056 1369 1301 889 
Q 1547 409 2034 409 
Q 2525 409 2770 889 
Q 3016 1369 3016 2328 
Q 3016 3291 2770 3770 
Q 2525 4250 2034 4250 
z
M 2034 4750 
Q 2819 4750 3233 4129 
Q 3647 3509 3647 2328 
Q 3647 1150 3233 529 
Q 2819 -91 2034 -91 
Q 1250 -91 836 529 
Q 422 1150 422 2328 
Q 422 3509 836 4129 
Q 1250 4750 2034 4750 
z
" transform="scale(0.015625)"/>
        <path id="DejaVuSans-2e" d="M 684 794 
L 1344 794 
L 1344 0 
L 684 0 
L 684 794 
z
" transform="scale(0.015625)"/>
       </defs>
       <use xlink:href="#DejaVuSans-30"/>
       <use xlink:href="#DejaVuSans-2e" transform="translate(63.623047 0)"/>
       <use xlink:href="#DejaVuSans-30" transform="translate(95.410156 0)"/>
      </g>
     </g>
    </g>
    <g id="xtick_2">
     <g id="line2d_2">
      <g>
       <use xlink:href="#mb1472a5053" x="123.056534" y="228.96" style="stroke: #000000; stroke-width: 0.8"/>
      </g>
     </g>
     <g id="text_2">
      <!-- 0.2 -->
      <g transform="translate(115.104972 243.558438) scale(0.1 -0.1)">
       <defs>
        <path id="DejaVuSans-32" d="M 1228 531 
L 3431 531 
L 3431 0 
L 469 0 
L 469 531 
Q 828 903 1448 1529 
Q 2069 2156 2228 2338 
Q 2531 2678 2651 2914 
Q 2772 3150 2772 3378 
Q 2772 3750 2511 3984 
Q 2250 4219 1831 4219 
Q 1534 4219 1204 4116 
Q 875 4013 500 3803 
L 500 4441 
Q 881 4594 1212 4672 
Q 1544 4750 1819 4750 
Q 2544 4750 2975 4387 
Q 3406 4025 3406 3419 
Q 3406 3131 3298 2873 
Q 3191 2616 2906 2266 
Q 2828 2175 2409 1742 
Q 1991 1309 1228 531 
z
" transform="scale(0.015625)"/>
       </defs>
       <use xlink:href="#DejaVuSans-30"/>
       <use xlink:href="#DejaVuSans-2e" transform="translate(63.623047 0)"/>
       <use xlink:href="#DejaVuSans-32" transform="translate(95.410156 0)"/>
      </g>
     </g>
    </g>
    <g id="xtick_3">
     <g id="line2d_3">
      <g>
       <use xlink:href="#mb1472a5053" x="183.929261" y="228.96" style="stroke: #000000; stroke-width: 0.8"/>
      </g>
     </g>
     <g id="text_3">
      <!-- 0.4 -->
      <g transform="translate(175.977699 243.558438) scale(0.1 -0.1)">
       <defs>
        <path id="DejaVuSans-34" d="M 2419 4116 
L 825 1625 
L 2419 1625 
L 2419 4116 
z
M 2253 4666 
L 3047 4666 
L 3047 1625 
L 3713 1625 
L 3713 1100 
L 3047 1100 
L 3047 0 
L 2419 0 
L 2419 1100 
L 313 1100 
L 313 1709 
L 2253 4666 
z
" transform="scale(0.015625)"/>
       </defs>
       <use xlink:href="#DejaVuSans-30"/>
       <use xlink:href="#DejaVuSans-2e" transform="translate(63.623047 0)"/>
       <use xlink:href="#DejaVuSans-34" transform="translate(95.410156 0)"/>
      </g>
     </g>
    </g>
    <g id="xtick_4">
     <g id="line2d_4">
      <g>
       <use xlink:href="#mb1472a5053" x="244.801989" y="228.96" style="stroke: #000000; stroke-width: 0.8"/>
      </g>
     </g>
     <g id="text_4">
      <!-- 0.6 -->
      <g transform="translate(236.850426 243.558438) scale(0.1 -0.1)">
       <defs>
        <path id="DejaVuSans-36" d="M 2113 2584 
Q 1688 2584 1439 2293 
Q 1191 2003 1191 1497 
Q 1191 994 1439 701 
Q 1688 409 2113 409 
Q 2538 409 2786 701 
Q 3034 994 3034 1497 
Q 3034 2003 2786 2293 
Q 2538 2584 2113 2584 
z
M 3366 4563 
L 3366 3988 
Q 3128 4100 2886 4159 
Q 2644 4219 2406 4219 
Q 1781 4219 1451 3797 
Q 1122 3375 1075 2522 
Q 1259 2794 1537 2939 
Q 1816 3084 2150 3084 
Q 2853 3084 3261 2657 
Q 3669 2231 3669 1497 
Q 3669 778 3244 343 
Q 2819 -91 2113 -91 
Q 1303 -91 875 529 
Q 447 1150 447 2328 
Q 447 3434 972 4092 
Q 1497 4750 2381 4750 
Q 2619 4750 2861 4703 
Q 3103 4656 3366 4563 
z
" transform="scale(0.015625)"/>
       </defs>
       <use xlink:href="#DejaVuSans-30"/>
       <use xlink:href="#DejaVuSans-2e" transform="translate(63.623047 0)"/>
       <use xlink:href="#DejaVuSans-36" transform="translate(95.410156 0)"/>
      </g>
     </g>
    </g>
    <g id="xtick_5">
     <g id="line2d_5">
      <g>
       <use xlink:href="#mb1472a5053" x="305.674716" y="228.96" style="stroke: #000000; stroke-width: 0.8"/>
      </g>
     </g>
     <g id="text_5">
      <!-- 0.8 -->
      <g transform="translate(297.723153 243.558438) scale(0.1 -0.1)">
       <defs>
        <path id="DejaVuSans-38" d="M 2034 2216 
Q 1584 2216 1326 1975 
Q 1069 1734 1069 1313 
Q 1069 891 1326 650 
Q 1584 409 2034 409 
Q 2484 409 2743 651 
Q 3003 894 3003 1313 
Q 3003 1734 2745 1975 
Q 2488 2216 2034 2216 
z
M 1403 2484 
Q 997 2584 770 2862 
Q 544 3141 544 3541 
Q 544 4100 942 4425 
Q 1341 4750 2034 4750 
Q 2731 4750 3128 4425 
Q 3525 4100 3525 3541 
Q 3525 3141 3298 2862 
Q 3072 2584 2669 2484 
Q 3125 2378 3379 2068 
Q 3634 1759 3634 1313 
Q 3634 634 3220 271 
Q 2806 -91 2034 -91 
Q 1263 -91 848 271 
Q 434 634 434 1313 
Q 434 1759 690 2068 
Q 947 2378 1403 2484 
z
M 1172 3481 
Q 1172 3119 1398 2916 
Q 1625 2713 2034 2713 
Q 2441 2713 2670 2916 
Q 2900 3119 2900 3481 
Q 2900 3844 2670 4047 
Q 2441 4250 2034 4250 
Q 1625 4250 1398 4047 
Q 1172 3844 1172 3481 
z
" transform="scale(0.015625)"/>
       </defs>
       <use xlink:href="#DejaVuSans-30"/>
       <use xlink:href="#DejaVuSans-2e" transform="translate(63.623047 0)"/>
       <use xlink:href="#DejaVuSans-38" transform="translate(95.410156 0)"/>
      </g>
     </g>
    </g>
    <g id="xtick_6">
     <g id="line2d_6">
      <g>
       <use xlink:href="#mb1472a5053" x="366.547443" y="228.96" style="stroke: #000000; stroke-width: 0.8"/>
      </g>
     </g>
     <g id="text_6">
      <!-- 1.0 -->
      <g transform="translate(358.595881 243.558438) scale(0.1 -0.1)">
       <defs>
        <path id="DejaVuSans-31" d="M 794 531 
L 1825 531 
L 1825 4091 
L 703 3866 
L 703 4441 
L 1819 4666 
L 2450 4666 
L 2450 531 
L 3481 531 
L 3481 0 
L 794 0 
L 794 531 
z
" transform="scale(0.015625)"/>
       </defs>
       <use xlink:href="#DejaVuSans-31"/>
       <use xlink:href="#DejaVuSans-2e" transform="translate(63.623047 0)"/>
       <use xlink:href="#DejaVuSans-30" transform="translate(95.410156 0)"/>
      </g>
     </g>
    </g>
    <g id="text_7">
     <!-- x [m] -->
     <g transform="translate(201.045313 257.236562) scale(0.1 -0.1)">
      <defs>
       <path id="DejaVuSans-78" d="M 3513 3500 
L 2247 1797 
L 3578 0 
L 2900 0 
L 1881 1375 
L 863 0 
L 184 0 
L 1544 1831 
L 300 3500 
L 978 3500 
L 1906 2253 
L 2834 3500 
L 3513 3500 
z
" transform="scale(0.015625)"/>
       <path id="DejaVuSans-20" transform="scale(0.015625)"/>
       <path id="DejaVuSans-5b" d="M 550 4863 
L 1875 4863 
L 1875 4416 
L 1125 4416 
L 1125 -397 
L 1875 -397 
L 1875 -844 
L 550 -844 
L 550 4863 
z
" transform="scale(0.015625)"/>
       <path id="DejaVuSans-6d" d="M 3328 2828 
Q 3544 3216 3844 3400 
Q 4144 3584 4550 3584 
Q 5097 3584 5394 3201 
Q 5691 2819 5691 2113 
L 5691 0 
L 5113 0 
L 5113 2094 
Q 5113 2597 4934 2840 
Q 4756 3084 4391 3084 
Q 3944 3084 3684 2787 
Q 3425 2491 3425 1978 
L 3425 0 
L 2847 0 
L 2847 2094 
Q 2847 2600 2669 2842 
Q 2491 3084 2119 3084 
Q 1678 3084 1418 2786 
Q 1159 2488 1159 1978 
L 1159 0 
L 581 0 
L 581 3500 
L 1159 3500 
L 1159 2956 
Q 1356 3278 1631 3431 
Q 1906 3584 2284 3584 
Q 2666 3584 2933 3390 
Q 3200 3197 3328 2828 
z
" transform="scale(0.015625)"/>
       <path id="DejaVuSans-5d" d="M 1947 4863 
L 1947 -844 
L 622 -844 
L 622 -397 
L 1369 -397 
L 1369 4416 
L 622 4416 
L 622 4863 
L 1947 4863 
z
" transform="scale(0.015625)"/>
      </defs>
      <use xlink:href="#DejaVuSans-78"/>
      <use xlink:href="#DejaVuSans-20" transform="translate(59.179688 0)"/>
      <use xlink:href="#DejaVuSans-5b" transform="translate(90.966797 0)"/>
      <use xlink:href="#DejaVuSans-6d" transform="translate(129.980469 0)"/>
      <use xlink:href="#DejaVuSans-5d" transform="translate(227.392578 0)"/>
     </g>
    </g>
   </g>
   <g id="matplotlib.axis_2">
    <g id="ytick_1">
     <g id="line2d_7">
      <defs>
       <path id="m66bcccaafc" d="M 0 0 
L -3.5 0 
" style="stroke: #000000; stroke-width: 0.8"/>
      </defs>
      <g>
       <use xlink:href="#m66bcccaafc" x="46.965625" y="210.052428" style="stroke: #000000; stroke-width: 0.8"/>
      </g>
     </g>
     <g id="text_8">
      <!-- 0 -->
      <g transform="translate(33.603125 213.851647) scale(0.1 -0.1)">
       <use xlink:href="#DejaVuSans-30"/>
      </g>
     </g>
    </g>
    <g id="ytick_2">
     <g id="line2d_8">
      <g>
       <use xlink:href="#m66bcccaafc" x="46.965625" y="179.480341" style="stroke: #000000; stroke-width: 0.8"/>
      </g>
     </g>
     <g id="text_9">
      <!-- 50 -->
      <g transform="translate(27.240625 183.27956) scale(0.1 -0.1)">
       <defs>
        <path id="DejaVuSans-35" d="M 691 4666 
L 3169 4666 
L 3169 4134 
L 1269 4134 
L 1269 2991 
Q 1406 3038 1543 3061 
Q 1681 3084 1819 3084 
Q 2600 3084 3056 2656 
Q 3513 2228 3513 1497 
Q 3513 744 3044 326 
Q 2575 -91 1722 -91 
Q 1428 -91 1123 -41 
Q 819 9 494 109 
L 494 744 
Q 775 591 1075 516 
Q 1375 441 1709 441 
Q 2250 441 2565 725 
Q 2881 1009 2881 1497 
Q 2881 1984 2565 2268 
Q 2250 2553 1709 2553 
Q 1456 2553 1204 2497 
Q 953 2441 691 2322 
L 691 4666 
z
" transform="scale(0.015625)"/>
       </defs>
       <use xlink:href="#DejaVuSans-35"/>
       <use xlink:href="#DejaVuSans-30" transform="translate(63.623047 0)"/>
      </g>
     </g>
    </g>
    <g id="ytick_3">
     <g id="line2d_9">
      <g>
       <use xlink:href="#m66bcccaafc" x="46.965625" y="148.908254" style="stroke: #000000; stroke-width: 0.8"/>
      </g>
     </g>
     <g id="text_10">
      <!-- 100 -->
      <g transform="translate(20.878125 152.707473) scale(0.1 -0.1)">
       <use xlink:href="#DejaVuSans-31"/>
       <use xlink:href="#DejaVuSans-30" transform="translate(63.623047 0)"/>
       <use xlink:href="#DejaVuSans-30" transform="translate(127.246094 0)"/>
      </g>
     </g>
    </g>
    <g id="ytick_4">
     <g id="line2d_10">
      <g>
       <use xlink:href="#m66bcccaafc" x="46.965625" y="118.336166" style="stroke: #000000; stroke-width: 0.8"/>
      </g>
     </g>
     <g id="text_11">
      <!-- 150 -->
      <g transform="translate(20.878125 122.135385) scale(0.1 -0.1)">
       <use xlink:href="#DejaVuSans-31"/>
       <use xlink:href="#DejaVuSans-35" transform="translate(63.623047 0)"/>
       <use xlink:href="#DejaVuSans-30" transform="translate(127.246094 0)"/>
      </g>
     </g>
    </g>
    <g id="ytick_5">
     <g id="line2d_11">
      <g>
       <use xlink:href="#m66bcccaafc" x="46.965625" y="87.764079" style="stroke: #000000; stroke-width: 0.8"/>
      </g>
     </g>
     <g id="text_12">
      <!-- 200 -->
      <g transform="translate(20.878125 91.563298) scale(0.1 -0.1)">
       <use xlink:href="#DejaVuSans-32"/>
       <use xlink:href="#DejaVuSans-30" transform="translate(63.623047 0)"/>
       <use xlink:href="#DejaVuSans-30" transform="translate(127.246094 0)"/>
      </g>
     </g>
    </g>
    <g id="ytick_6">
     <g id="line2d_12">
      <g>
       <use xlink:href="#m66bcccaafc" x="46.965625" y="57.191992" style="stroke: #000000; stroke-width: 0.8"/>
      </g>
     </g>
     <g id="text_13">
      <!-- 250 -->
      <g transform="translate(20.878125 60.99121) scale(0.1 -0.1)">
       <use xlink:href="#DejaVuSans-32"/>
       <use xlink:href="#DejaVuSans-35" transform="translate(63.623047 0)"/>
       <use xlink:href="#DejaVuSans-30" transform="translate(127.246094 0)"/>
      </g>
     </g>
    </g>
    <g id="ytick_7">
     <g id="line2d_13">
      <g>
       <use xlink:href="#m66bcccaafc" x="46.965625" y="26.619904" style="stroke: #000000; stroke-width: 0.8"/>
      </g>
     </g>
     <g id="text_14">
      <!-- 300 -->
      <g transform="translate(20.878125 30.419123) scale(0.1 -0.1)">
       <defs>
        <path id="DejaVuSans-33" d="M 2597 2516 
Q 3050 2419 3304 2112 
Q 3559 1806 3559 1356 
Q 3559 666 3084 287 
Q 2609 -91 1734 -91 
Q 1441 -91 1130 -33 
Q 819 25 488 141 
L 488 750 
Q 750 597 1062 519 
Q 1375 441 1716 441 
Q 2309 441 2620 675 
Q 2931 909 2931 1356 
Q 2931 1769 2642 2001 
Q 2353 2234 1838 2234 
L 1294 2234 
L 1294 2753 
L 1863 2753 
Q 2328 2753 2575 2939 
Q 2822 3125 2822 3475 
Q 2822 3834 2567 4026 
Q 2313 4219 1838 4219 
Q 1578 4219 1281 4162 
Q 984 4106 628 3988 
L 628 4550 
Q 988 4650 1302 4700 
Q 1616 4750 1894 4750 
Q 2613 4750 3031 4423 
Q 3450 4097 3450 3541 
Q 3450 3153 3228 2886 
Q 3006 2619 2597 2516 
z
" transform="scale(0.015625)"/>
       </defs>
       <use xlink:href="#DejaVuSans-33"/>
       <use xlink:href="#DejaVuSans-30" transform="translate(63.623047 0)"/>
       <use xlink:href="#DejaVuSans-30" transform="translate(127.246094 0)"/>
      </g>
     </g>
    </g>
    <g id="text_15">
     <!-- [counts] -->
     <g transform="translate(14.798438 138.6925) rotate(-90) scale(0.1 -0.1)">
      <defs>
       <path id="DejaVuSans-63" d="M 3122 3366 
L 3122 2828 
Q 2878 2963 2633 3030 
Q 2388 3097 2138 3097 
Q 1578 3097 1268 2742 
Q 959 2388 959 1747 
Q 959 1106 1268 751 
Q 1578 397 2138 397 
Q 2388 397 2633 464 
Q 2878 531 3122 666 
L 3122 134 
Q 2881 22 2623 -34 
Q 2366 -91 2075 -91 
Q 1284 -91 818 406 
Q 353 903 353 1747 
Q 353 2603 823 3093 
Q 1294 3584 2113 3584 
Q 2378 3584 2631 3529 
Q 2884 3475 3122 3366 
z
" transform="scale(0.015625)"/>
       <path id="DejaVuSans-6f" d="M 1959 3097 
Q 1497 3097 1228 2736 
Q 959 2375 959 1747 
Q 959 1119 1226 758 
Q 1494 397 1959 397 
Q 2419 397 2687 759 
Q 2956 1122 2956 1747 
Q 2956 2369 2687 2733 
Q 2419 3097 1959 3097 
z
M 1959 3584 
Q 2709 3584 3137 3096 
Q 3566 2609 3566 1747 
Q 3566 888 3137 398 
Q 2709 -91 1959 -91 
Q 1206 -91 779 398 
Q 353 888 353 1747 
Q 353 2609 779 3096 
Q 1206 3584 1959 3584 
z
" transform="scale(0.015625)"/>
       <path id="DejaVuSans-75" d="M 544 1381 
L 544 3500 
L 1119 3500 
L 1119 1403 
Q 1119 906 1312 657 
Q 1506 409 1894 409 
Q 2359 409 2629 706 
Q 2900 1003 2900 1516 
L 2900 3500 
L 3475 3500 
L 3475 0 
L 2900 0 
L 2900 538 
Q 2691 219 2414 64 
Q 2138 -91 1772 -91 
Q 1169 -91 856 284 
Q 544 659 544 1381 
z
M 1991 3584 
L 1991 3584 
z
" transform="scale(0.015625)"/>
       <path id="DejaVuSans-6e" d="M 3513 2113 
L 3513 0 
L 2938 0 
L 2938 2094 
Q 2938 2591 2744 2837 
Q 2550 3084 2163 3084 
Q 1697 3084 1428 2787 
Q 1159 2491 1159 1978 
L 1159 0 
L 581 0 
L 581 3500 
L 1159 3500 
L 1159 2956 
Q 1366 3272 1645 3428 
Q 1925 3584 2291 3584 
Q 2894 3584 3203 3211 
Q 3513 2838 3513 2113 
z
" transform="scale(0.015625)"/>
       <path id="DejaVuSans-74" d="M 1172 4494 
L 1172 3500 
L 2356 3500 
L 2356 3053 
L 1172 3053 
L 1172 1153 
Q 1172 725 1289 603 
Q 1406 481 1766 481 
L 2356 481 
L 2356 0 
L 1766 0 
Q 1100 0 847 248 
Q 594 497 594 1153 
L 594 3053 
L 172 3053 
L 172 3500 
L 594 3500 
L 594 4494 
L 1172 4494 
z
" transform="scale(0.015625)"/>
       <path id="DejaVuSans-73" d="M 2834 3397 
L 2834 2853 
Q 2591 2978 2328 3040 
Q 2066 3103 1784 3103 
Q 1356 3103 1142 2972 
Q 928 2841 928 2578 
Q 928 2378 1081 2264 
Q 1234 2150 1697 2047 
L 1894 2003 
Q 2506 1872 2764 1633 
Q 3022 1394 3022 966 
Q 3022 478 2636 193 
Q 2250 -91 1575 -91 
Q 1294 -91 989 -36 
Q 684 19 347 128 
L 347 722 
Q 666 556 975 473 
Q 1284 391 1588 391 
Q 1994 391 2212 530 
Q 2431 669 2431 922 
Q 2431 1156 2273 1281 
Q 2116 1406 1581 1522 
L 1381 1569 
Q 847 1681 609 1914 
Q 372 2147 372 2553 
Q 372 3047 722 3315 
Q 1072 3584 1716 3584 
Q 2034 3584 2315 3537 
Q 2597 3491 2834 3397 
z
" transform="scale(0.015625)"/>
      </defs>
      <use xlink:href="#DejaVuSans-5b"/>
      <use xlink:href="#DejaVuSans-63" transform="translate(39.013672 0)"/>
      <use xlink:href="#DejaVuSans-6f" transform="translate(93.994141 0)"/>
      <use xlink:href="#DejaVuSans-75" transform="translate(155.175781 0)"/>
      <use xlink:href="#DejaVuSans-6e" transform="translate(218.554688 0)"/>
      <use xlink:href="#DejaVuSans-74" transform="translate(281.933594 0)"/>
      <use xlink:href="#DejaVuSans-73" transform="translate(321.142578 0)"/>
      <use xlink:href="#DejaVuSans-5d" transform="translate(373.242188 0)"/>
     </g>
    </g>
   </g>
   <g id="patch_3">
    <path d="M 46.965625 228.96 
L 46.965625 7.2 
" style="fill: none; stroke: #000000; stroke-width: 0.8; stroke-linejoin: miter; stroke-linecap: square"/>
   </g>
   <g id="patch_4">
    <path d="M 381.765625 228.96 
L 381.765625 7.2 
" style="fill: none; stroke: #000000; stroke-width: 0.8; stroke-linejoin: miter; stroke-linecap: square"/>
   </g>
   <g id="patch_5">
    <path d="M 46.965625 228.96 
L 381.765625 228.96 
" style="fill: none; stroke: #000000; stroke-width: 0.8; stroke-linejoin: miter; stroke-linecap: square"/>
   </g>
   <g id="patch_6">
    <path d="M 46.965625 7.2 
L 381.765625 7.2 
" style="fill: none; stroke: #000000; stroke-width: 0.8; stroke-linejoin: miter; stroke-linecap: square"/>
   </g>
   <g id="line2d_14">
    <path d="M 62.183807 69.82185 
L 65.227443 69.82185 
L 65.227443 28.206949 
L 68.27108 28.206949 
L 68.27108 81.337713 
L 71.314716 81.337713 
L 71.314716 94.203041 
L 74.358352 94.203041 
L 74.358352 74.0303 
L 77.401989 74.0303 
L 77.401989 96.124481 
L 80.445625 96.124481 
L 80.445625 122.875936 
L 83.489261 122.875936 
L 83.489261 66.019982 
L 86.532898 66.019982 
L 86.532898 105.793337 
L 89.576534 105.793337 
L 89.576534 79.577388 
L 92.62017 79.577388 
L 92.62017 128.561651 
L 95.663807 128.561651 
L 95.663807 127.360584 
L 98.707443 127.360584 
L 98.707443 107.333611 
L 101.75108 107.333611 
L 101.75108 144.468758 
L 104.794716 144.468758 
L 104.794716 137.681464 
L 107.838352 137.681464 
L 107.838352 135.332772 
L 110.881989 135.332772 
L 110.881989 134.599745 
L 113.925625 134.599745 
L 113.925625 135.376031 
L 116.969261 135.376031 
L 116.969261 150.302572 
L 120.012898 150.302572 
L 120.012898 154.532586 
L 123.056534 154.532586 
L 123.056534 159.890008 
L 126.10017 159.890008 
L 126.10017 167.086585 
L 129.143807 167.086585 
L 129.143807 157.349118 
L 132.187443 157.349118 
L 132.187443 172.290616 
L 135.23108 172.290616 
L 135.23108 154.990658 
L 138.274716 154.990658 
L 138.274716 155.281214 
L 141.318352 155.281214 
L 141.318352 157.823823 
L 144.361989 157.823823 
L 144.361989 175.363121 
L 147.405625 175.363121 
L 147.405625 163.28639 
L 150.449261 163.28639 
L 150.449261 174.842886 
L 153.492898 174.842886 
L 153.492898 174.046981 
L 156.536534 174.046981 
L 156.536534 181.118351 
L 159.58017 181.118351 
L 159.58017 174.617002 
L 162.623807 174.617002 
L 162.623807 184.900299 
L 165.667443 184.900299 
L 165.667443 186.612666 
L 168.71108 186.612666 
L 168.71108 189.327181 
L 171.754716 189.327181 
L 171.754716 178.525228 
L 174.798352 178.525228 
L 174.798352 190.391391 
L 177.841989 190.391391 
L 177.841989 184.621223 
L 180.885625 184.621223 
L 180.885625 191.34534 
L 183.929261 191.34534 
L 183.929261 192.449791 
L 186.972898 192.449791 
L 186.972898 196.353409 
L 190.016534 196.353409 
L 190.016534 191.638259 
L 193.06017 191.638259 
L 193.06017 188.785471 
L 196.103807 188.785471 
L 196.103807 191.849304 
L 199.147443 191.849304 
L 199.147443 198.563635 
L 202.19108 198.563635 
L 202.19108 199.16877 
L 205.234716 199.16877 
L 205.234716 193.409585 
L 208.278352 193.409585 
L 208.278352 195.331947 
L 211.321989 195.331947 
L 211.321989 196.856427 
L 214.365625 196.856427 
L 214.365625 201.902549 
L 217.409261 201.902549 
L 217.409261 198.884271 
L 220.452898 198.884271 
L 220.452898 195.655595 
L 223.496534 195.655595 
L 223.496534 200.064224 
L 226.54017 200.064224 
L 226.54017 201.123447 
L 229.583807 201.123447 
L 229.583807 201.520335 
L 232.627443 201.520335 
L 232.627443 201.633944 
L 235.67108 201.633944 
L 235.67108 201.425907 
L 238.714716 201.425907 
L 238.714716 202.373072 
L 244.801989 202.482784 
L 244.801989 202.519856 
L 247.845625 202.519856 
L 247.845625 202.921079 
L 250.889261 202.921079 
L 250.889261 201.621831 
L 253.932898 201.621831 
L 253.932898 203.840073 
L 256.976534 203.840073 
L 256.976534 204.975664 
L 260.02017 204.975664 
L 260.02017 205.687051 
L 263.063807 205.687051 
L 263.063807 204.038339 
L 266.107443 204.038339 
L 266.107443 204.525093 
L 269.15108 204.525093 
L 269.15108 204.908022 
L 272.194716 204.908022 
L 272.194716 205.758663 
L 275.238352 205.758663 
L 275.238352 203.857772 
L 278.281989 203.857772 
L 278.281989 205.477806 
L 281.325625 205.477806 
L 281.325625 206.104486 
L 284.369261 206.104486 
L 284.369261 206.254409 
L 287.412898 206.254409 
L 287.412898 206.852489 
L 290.456534 206.852489 
L 290.456534 206.678741 
L 293.50017 206.678741 
L 293.50017 206.309822 
L 299.587443 206.420637 
L 299.587443 207.326477 
L 305.674716 207.256509 
L 305.674716 206.069831 
L 308.718352 206.069831 
L 308.718352 207.417616 
L 311.761989 207.417616 
L 311.761989 207.80965 
L 314.805625 207.80965 
L 314.805625 207.485878 
L 317.849261 207.485878 
L 317.849261 207.886728 
L 320.892898 207.886728 
L 320.892898 207.410908 
L 323.936534 207.410908 
L 323.936534 207.929031 
L 326.98017 207.929031 
L 326.98017 208.271332 
L 336.11108 208.331256 
L 336.11108 208.724086 
L 339.154716 208.724086 
L 339.154716 208.082585 
L 342.198352 208.082585 
L 342.198352 208.504227 
L 348.285625 208.6048 
L 348.285625 208.950996 
L 351.329261 208.950996 
L 351.329261 209.189365 
L 354.372898 209.189365 
L 354.372898 209.011629 
L 360.46017 208.958156 
L 360.46017 209.175198 
L 366.547443 209.08008 
L 366.547443 209.08008 
" clip-path="url(#p4b110677d9)" style="fill: none; stroke: #1f77b4; stroke-width: 1.5; stroke-linecap: square"/>
   </g>
   <g id="LineCollection_1">
    <path d="M 63.705625 79.211045 
L 63.705625 60.432655 
" clip-path="url(#p4b110677d9)" style="fill: none; stroke: #1f77b4; stroke-width: 1.5"/>
    <path d="M 66.749261 39.133898 
L 66.749261 17.28 
" clip-path="url(#p4b110677d9)" style="fill: none; stroke: #1f77b4; stroke-width: 1.5"/>
    <path d="M 69.792898 90.78172 
L 69.792898 71.893706 
" clip-path="url(#p4b110677d9)" style="fill: none; stroke: #1f77b4; stroke-width: 1.5"/>
    <path d="M 72.836534 103.386208 
L 72.836534 85.019873 
" clip-path="url(#p4b110677d9)" style="fill: none; stroke: #1f77b4; stroke-width: 1.5"/>
    <path d="M 75.88017 84.244418 
L 75.88017 63.816181 
" clip-path="url(#p4b110677d9)" style="fill: none; stroke: #1f77b4; stroke-width: 1.5"/>
    <path d="M 78.923807 105.704163 
L 78.923807 86.544799 
" clip-path="url(#p4b110677d9)" style="fill: none; stroke: #1f77b4; stroke-width: 1.5"/>
    <path d="M 81.967443 131.469961 
L 81.967443 114.281911 
" clip-path="url(#p4b110677d9)" style="fill: none; stroke: #1f77b4; stroke-width: 1.5"/>
    <path d="M 85.01108 77.337587 
L 85.01108 54.702377 
" clip-path="url(#p4b110677d9)" style="fill: none; stroke: #1f77b4; stroke-width: 1.5"/>
    <path d="M 88.054716 115.669296 
L 88.054716 95.917377 
" clip-path="url(#p4b110677d9)" style="fill: none; stroke: #1f77b4; stroke-width: 1.5"/>
    <path d="M 91.098352 90.87262 
L 91.098352 68.282156 
" clip-path="url(#p4b110677d9)" style="fill: none; stroke: #1f77b4; stroke-width: 1.5"/>
    <path d="M 94.141989 137.732169 
L 94.141989 119.391133 
" clip-path="url(#p4b110677d9)" style="fill: none; stroke: #1f77b4; stroke-width: 1.5"/>
    <path d="M 97.185625 136.838332 
L 97.185625 117.882835 
" clip-path="url(#p4b110677d9)" style="fill: none; stroke: #1f77b4; stroke-width: 1.5"/>
    <path d="M 100.229261 118.165319 
L 100.229261 96.501903 
" clip-path="url(#p4b110677d9)" style="fill: none; stroke: #1f77b4; stroke-width: 1.5"/>
    <path d="M 103.272898 153.34912 
L 103.272898 135.588396 
" clip-path="url(#p4b110677d9)" style="fill: none; stroke: #1f77b4; stroke-width: 1.5"/>
    <path d="M 106.316534 147.245904 
L 106.316534 128.117024 
" clip-path="url(#p4b110677d9)" style="fill: none; stroke: #1f77b4; stroke-width: 1.5"/>
    <path d="M 109.36017 145.29096 
L 109.36017 125.374583 
" clip-path="url(#p4b110677d9)" style="fill: none; stroke: #1f77b4; stroke-width: 1.5"/>
    <path d="M 112.403807 144.857202 
L 112.403807 124.342288 
" clip-path="url(#p4b110677d9)" style="fill: none; stroke: #1f77b4; stroke-width: 1.5"/>
    <path d="M 115.447443 145.830865 
L 115.447443 124.921198 
" clip-path="url(#p4b110677d9)" style="fill: none; stroke: #1f77b4; stroke-width: 1.5"/>
    <path d="M 118.49108 159.905315 
L 118.49108 140.69983 
" clip-path="url(#p4b110677d9)" style="fill: none; stroke: #1f77b4; stroke-width: 1.5"/>
    <path d="M 121.534716 164.009494 
L 121.534716 145.055677 
" clip-path="url(#p4b110677d9)" style="fill: none; stroke: #1f77b4; stroke-width: 1.5"/>
    <path d="M 124.578352 169.129404 
L 124.578352 150.650612 
" clip-path="url(#p4b110677d9)" style="fill: none; stroke: #1f77b4; stroke-width: 1.5"/>
    <path d="M 127.621989 175.874433 
L 127.621989 158.298737 
" clip-path="url(#p4b110677d9)" style="fill: none; stroke: #1f77b4; stroke-width: 1.5"/>
    <path d="M 130.665625 167.309458 
L 130.665625 147.388777 
" clip-path="url(#p4b110677d9)" style="fill: none; stroke: #1f77b4; stroke-width: 1.5"/>
    <path d="M 133.709261 180.948332 
L 133.709261 163.6329 
" clip-path="url(#p4b110677d9)" style="fill: none; stroke: #1f77b4; stroke-width: 1.5"/>
    <path d="M 136.752898 165.710391 
L 136.752898 144.270926 
" clip-path="url(#p4b110677d9)" style="fill: none; stroke: #1f77b4; stroke-width: 1.5"/>
    <path d="M 139.796534 166.223114 
L 139.796534 144.339314 
" clip-path="url(#p4b110677d9)" style="fill: none; stroke: #1f77b4; stroke-width: 1.5"/>
    <path d="M 142.84017 168.784805 
L 142.84017 146.862842 
" clip-path="url(#p4b110677d9)" style="fill: none; stroke: #1f77b4; stroke-width: 1.5"/>
    <path d="M 145.883807 184.529816 
L 145.883807 166.196426 
" clip-path="url(#p4b110677d9)" style="fill: none; stroke: #1f77b4; stroke-width: 1.5"/>
    <path d="M 148.927443 174.201468 
L 148.927443 152.371312 
" clip-path="url(#p4b110677d9)" style="fill: none; stroke: #1f77b4; stroke-width: 1.5"/>
    <path d="M 151.97108 184.544952 
L 151.97108 165.140819 
" clip-path="url(#p4b110677d9)" style="fill: none; stroke: #1f77b4; stroke-width: 1.5"/>
    <path d="M 155.014716 184.116361 
L 155.014716 163.977601 
" clip-path="url(#p4b110677d9)" style="fill: none; stroke: #1f77b4; stroke-width: 1.5"/>
    <path d="M 158.058352 190.353609 
L 158.058352 171.883093 
" clip-path="url(#p4b110677d9)" style="fill: none; stroke: #1f77b4; stroke-width: 1.5"/>
    <path d="M 161.101989 185.108285 
L 161.101989 164.125719 
" clip-path="url(#p4b110677d9)" style="fill: none; stroke: #1f77b4; stroke-width: 1.5"/>
    <path d="M 164.145625 193.977417 
L 164.145625 175.823181 
" clip-path="url(#p4b110677d9)" style="fill: none; stroke: #1f77b4; stroke-width: 1.5"/>
    <path d="M 167.189261 195.551304 
L 167.189261 177.674027 
" clip-path="url(#p4b110677d9)" style="fill: none; stroke: #1f77b4; stroke-width: 1.5"/>
    <path d="M 170.232898 197.955058 
L 170.232898 180.699304 
" clip-path="url(#p4b110677d9)" style="fill: none; stroke: #1f77b4; stroke-width: 1.5"/>
    <path d="M 173.276534 189.464511 
L 173.276534 167.585945 
" clip-path="url(#p4b110677d9)" style="fill: none; stroke: #1f77b4; stroke-width: 1.5"/>
    <path d="M 176.32017 199.224756 
L 176.32017 181.558025 
" clip-path="url(#p4b110677d9)" style="fill: none; stroke: #1f77b4; stroke-width: 1.5"/>
    <path d="M 179.363807 194.948246 
L 179.363807 174.2942 
" clip-path="url(#p4b110677d9)" style="fill: none; stroke: #1f77b4; stroke-width: 1.5"/>
    <path d="M 182.407443 200.410813 
L 182.407443 182.279867 
" clip-path="url(#p4b110677d9)" style="fill: none; stroke: #1f77b4; stroke-width: 1.5"/>
    <path d="M 185.45108 201.494212 
L 185.45108 183.405371 
" clip-path="url(#p4b110677d9)" style="fill: none; stroke: #1f77b4; stroke-width: 1.5"/>
    <path d="M 188.494716 204.530281 
L 188.494716 188.176537 
" clip-path="url(#p4b110677d9)" style="fill: none; stroke: #1f77b4; stroke-width: 1.5"/>
    <path d="M 191.538352 201.328247 
L 191.538352 181.948271 
" clip-path="url(#p4b110677d9)" style="fill: none; stroke: #1f77b4; stroke-width: 1.5"/>
    <path d="M 194.581989 199.499494 
L 194.581989 178.071447 
" clip-path="url(#p4b110677d9)" style="fill: none; stroke: #1f77b4; stroke-width: 1.5"/>
    <path d="M 197.625625 202.01175 
L 197.625625 181.686858 
" clip-path="url(#p4b110677d9)" style="fill: none; stroke: #1f77b4; stroke-width: 1.5"/>
    <path d="M 200.669261 206.83154 
L 200.669261 190.29573 
" clip-path="url(#p4b110677d9)" style="fill: none; stroke: #1f77b4; stroke-width: 1.5"/>
    <path d="M 203.712898 207.41162 
L 203.712898 190.925919 
" clip-path="url(#p4b110677d9)" style="fill: none; stroke: #1f77b4; stroke-width: 1.5"/>
    <path d="M 206.756534 203.845731 
L 206.756534 182.973438 
" clip-path="url(#p4b110677d9)" style="fill: none; stroke: #1f77b4; stroke-width: 1.5"/>
    <path d="M 209.80017 205.439173 
L 209.80017 185.224721 
" clip-path="url(#p4b110677d9)" style="fill: none; stroke: #1f77b4; stroke-width: 1.5"/>
    <path d="M 212.843807 206.644584 
L 212.843807 187.068269 
" clip-path="url(#p4b110677d9)" style="fill: none; stroke: #1f77b4; stroke-width: 1.5"/>
    <path d="M 215.887443 209.800526 
L 215.887443 194.004571 
" clip-path="url(#p4b110677d9)" style="fill: none; stroke: #1f77b4; stroke-width: 1.5"/>
    <path d="M 218.93108 208.370955 
L 218.93108 189.397587 
" clip-path="url(#p4b110677d9)" style="fill: none; stroke: #1f77b4; stroke-width: 1.5"/>
    <path d="M 221.974716 206.672344 
L 221.974716 184.638846 
" clip-path="url(#p4b110677d9)" style="fill: none; stroke: #1f77b4; stroke-width: 1.5"/>
    <path d="M 225.018352 209.48192 
L 225.018352 190.646528 
" clip-path="url(#p4b110677d9)" style="fill: none; stroke: #1f77b4; stroke-width: 1.5"/>
    <path d="M 228.061989 210.245189 
L 228.061989 192.001705 
" clip-path="url(#p4b110677d9)" style="fill: none; stroke: #1f77b4; stroke-width: 1.5"/>
    <path d="M 231.105625 210.657614 
L 231.105625 192.383055 
" clip-path="url(#p4b110677d9)" style="fill: none; stroke: #1f77b4; stroke-width: 1.5"/>
    <path d="M 234.149261 210.964798 
L 234.149261 192.303091 
" clip-path="url(#p4b110677d9)" style="fill: none; stroke: #1f77b4; stroke-width: 1.5"/>
    <path d="M 237.192898 211.077896 
L 237.192898 191.773918 
" clip-path="url(#p4b110677d9)" style="fill: none; stroke: #1f77b4; stroke-width: 1.5"/>
    <path d="M 240.236534 211.730375 
L 240.236534 193.015769 
" clip-path="url(#p4b110677d9)" style="fill: none; stroke: #1f77b4; stroke-width: 1.5"/>
    <path d="M 243.28017 212.003664 
L 243.28017 192.961904 
" clip-path="url(#p4b110677d9)" style="fill: none; stroke: #1f77b4; stroke-width: 1.5"/>
    <path d="M 246.323807 212.274699 
L 246.323807 192.765012 
" clip-path="url(#p4b110677d9)" style="fill: none; stroke: #1f77b4; stroke-width: 1.5"/>
    <path d="M 249.367443 212.634127 
L 249.367443 193.208031 
" clip-path="url(#p4b110677d9)" style="fill: none; stroke: #1f77b4; stroke-width: 1.5"/>
    <path d="M 252.41108 212.433756 
L 252.41108 190.809906 
" clip-path="url(#p4b110677d9)" style="fill: none; stroke: #1f77b4; stroke-width: 1.5"/>
    <path d="M 255.454716 213.355297 
L 255.454716 194.32485 
" clip-path="url(#p4b110677d9)" style="fill: none; stroke: #1f77b4; stroke-width: 1.5"/>
    <path d="M 258.498352 213.803172 
L 258.498352 196.148155 
" clip-path="url(#p4b110677d9)" style="fill: none; stroke: #1f77b4; stroke-width: 1.5"/>
    <path d="M 261.541989 214.083051 
L 261.541989 197.291052 
" clip-path="url(#p4b110677d9)" style="fill: none; stroke: #1f77b4; stroke-width: 1.5"/>
    <path d="M 264.585625 214.147188 
L 264.585625 193.929489 
" clip-path="url(#p4b110677d9)" style="fill: none; stroke: #1f77b4; stroke-width: 1.5"/>
    <path d="M 267.629261 214.455096 
L 267.629261 194.59509 
" clip-path="url(#p4b110677d9)" style="fill: none; stroke: #1f77b4; stroke-width: 1.5"/>
    <path d="M 270.672898 214.724514 
L 270.672898 195.091531 
" clip-path="url(#p4b110677d9)" style="fill: none; stroke: #1f77b4; stroke-width: 1.5"/>
    <path d="M 273.716534 214.955086 
L 273.716534 196.562239 
" clip-path="url(#p4b110677d9)" style="fill: none; stroke: #1f77b4; stroke-width: 1.5"/>
    <path d="M 276.76017 215.197683 
L 276.76017 192.51786 
" clip-path="url(#p4b110677d9)" style="fill: none; stroke: #1f77b4; stroke-width: 1.5"/>
    <path d="M 279.803807 215.462727 
L 279.803807 195.492885 
" clip-path="url(#p4b110677d9)" style="fill: none; stroke: #1f77b4; stroke-width: 1.5"/>
    <path d="M 282.847443 215.62328 
L 282.847443 196.585692 
" clip-path="url(#p4b110677d9)" style="fill: none; stroke: #1f77b4; stroke-width: 1.5"/>
    <path d="M 285.89108 215.841447 
L 285.89108 196.667372 
" clip-path="url(#p4b110677d9)" style="fill: none; stroke: #1f77b4; stroke-width: 1.5"/>
    <path d="M 288.934716 215.866709 
L 288.934716 197.838269 
" clip-path="url(#p4b110677d9)" style="fill: none; stroke: #1f77b4; stroke-width: 1.5"/>
    <path d="M 291.978352 216.160866 
L 291.978352 197.196616 
" clip-path="url(#p4b110677d9)" style="fill: none; stroke: #1f77b4; stroke-width: 1.5"/>
    <path d="M 295.021989 216.555475 
L 295.021989 196.064169 
" clip-path="url(#p4b110677d9)" style="fill: none; stroke: #1f77b4; stroke-width: 1.5"/>
    <path d="M 298.065625 216.743156 
L 298.065625 196.098118 
" clip-path="url(#p4b110677d9)" style="fill: none; stroke: #1f77b4; stroke-width: 1.5"/>
    <path d="M 301.109261 216.514928 
L 301.109261 198.138026 
" clip-path="url(#p4b110677d9)" style="fill: none; stroke: #1f77b4; stroke-width: 1.5"/>
    <path d="M 304.152898 216.803129 
L 304.152898 197.70989 
" clip-path="url(#p4b110677d9)" style="fill: none; stroke: #1f77b4; stroke-width: 1.5"/>
    <path d="M 307.196534 217.74067 
L 307.196534 194.398992 
" clip-path="url(#p4b110677d9)" style="fill: none; stroke: #1f77b4; stroke-width: 1.5"/>
    <path d="M 310.24017 217.169964 
L 310.24017 197.665268 
" clip-path="url(#p4b110677d9)" style="fill: none; stroke: #1f77b4; stroke-width: 1.5"/>
    <path d="M 313.283807 217.024733 
L 313.283807 198.594567 
" clip-path="url(#p4b110677d9)" style="fill: none; stroke: #1f77b4; stroke-width: 1.5"/>
    <path d="M 316.327443 217.581781 
L 316.327443 197.389974 
" clip-path="url(#p4b110677d9)" style="fill: none; stroke: #1f77b4; stroke-width: 1.5"/>
    <path d="M 319.37108 217.395731 
L 319.37108 198.377726 
" clip-path="url(#p4b110677d9)" style="fill: none; stroke: #1f77b4; stroke-width: 1.5"/>
    <path d="M 322.414716 218.185721 
L 322.414716 196.636095 
" clip-path="url(#p4b110677d9)" style="fill: none; stroke: #1f77b4; stroke-width: 1.5"/>
    <path d="M 325.458352 217.817124 
L 325.458352 198.040938 
" clip-path="url(#p4b110677d9)" style="fill: none; stroke: #1f77b4; stroke-width: 1.5"/>
    <path d="M 328.501989 217.577231 
L 328.501989 198.965432 
" clip-path="url(#p4b110677d9)" style="fill: none; stroke: #1f77b4; stroke-width: 1.5"/>
    <path d="M 331.545625 217.619599 
L 331.545625 199.129637 
" clip-path="url(#p4b110677d9)" style="fill: none; stroke: #1f77b4; stroke-width: 1.5"/>
    <path d="M 334.589261 217.937922 
L 334.589261 198.72459 
" clip-path="url(#p4b110677d9)" style="fill: none; stroke: #1f77b4; stroke-width: 1.5"/>
    <path d="M 337.632898 217.376485 
L 337.632898 200.071687 
" clip-path="url(#p4b110677d9)" style="fill: none; stroke: #1f77b4; stroke-width: 1.5"/>
    <path d="M 340.676534 218.88 
L 340.676534 197.285169 
" clip-path="url(#p4b110677d9)" style="fill: none; stroke: #1f77b4; stroke-width: 1.5"/>
    <path d="M 343.72017 218.34204 
L 343.72017 198.666414 
" clip-path="url(#p4b110677d9)" style="fill: none; stroke: #1f77b4; stroke-width: 1.5"/>
    <path d="M 346.763807 218.36119 
L 346.763807 198.84841 
" clip-path="url(#p4b110677d9)" style="fill: none; stroke: #1f77b4; stroke-width: 1.5"/>
    <path d="M 349.807443 217.662799 
L 349.807443 200.239193 
" clip-path="url(#p4b110677d9)" style="fill: none; stroke: #1f77b4; stroke-width: 1.5"/>
    <path d="M 352.85108 217.097228 
L 352.85108 201.281501 
" clip-path="url(#p4b110677d9)" style="fill: none; stroke: #1f77b4; stroke-width: 1.5"/>
    <path d="M 355.894716 217.906437 
L 355.894716 200.116821 
" clip-path="url(#p4b110677d9)" style="fill: none; stroke: #1f77b4; stroke-width: 1.5"/>
    <path d="M 358.938352 218.320948 
L 358.938352 199.595364 
" clip-path="url(#p4b110677d9)" style="fill: none; stroke: #1f77b4; stroke-width: 1.5"/>
    <path d="M 361.981989 217.776501 
L 361.981989 200.573896 
" clip-path="url(#p4b110677d9)" style="fill: none; stroke: #1f77b4; stroke-width: 1.5"/>
    <path d="M 365.025625 218.352348 
L 365.025625 199.807812 
" clip-path="url(#p4b110677d9)" style="fill: none; stroke: #1f77b4; stroke-width: 1.5"/>
   </g>
  </g>
 </g>
 <defs>
  <clipPath id="p4b110677d9">
   <rect x="46.965625" y="7.2" width="334.8" height="221.76"/>
  </clipPath>
 </defs>
</svg>
