<?xml version="1.0" encoding="utf-8" standalone="no"?>
<!DOCTYPE svg PUBLIC "-//W3C//DTD SVG 1.1//EN"
  "http://www.w3.org/Graphics/SVG/1.1/DTD/svg11.dtd">
<svg xmlns:xlink="http://www.w3.org/1999/xlink" width="283.728125pt" height="211.07625pt" viewBox="0 0 283.728125 211.07625" xmlns="http://www.w3.org/2000/svg" version="1.1">
 <metadata>
  <rdf:RDF xmlns:dc="http://purl.org/dc/elements/1.1/" xmlns:cc="http://creativecommons.org/ns#" xmlns:rdf="http://www.w3.org/1999/02/22-rdf-syntax-ns#">
   <cc:Work>
    <dc:type rdf:resource="http://purl.org/dc/dcmitype/StillImage"/>
    <dc:date>2025-12-19T10:16:08.903125</dc:date>
    <dc:format>image/svg+xml</dc:format>
    <dc:creator>
     <cc:Agent>
      <dc:title>Matplotlib v3.10.8, https://matplotlib.org/</dc:title>
     </cc:Agent>
    </dc:creator>
   </cc:Work>
  </rdf:RDF>
 </metadata>
 <defs>
  <style type="text/css">*{stroke-linejoin: round; stroke-linecap: butt}</style>
 </defs>
 <g id="figure_1">
  <g id="patch_1">
   <path d="M 0 211.07625 
L 283.728125 211.07625 
L 283.728125 0 
L 0 0 
z
" style="fill: #ffffff"/>
  </g>
  <g id="axes_1">
   <g id="patch_2">
    <path d="M 53.328125 173.52 
L 276.528125 173.52 
L 276.528125 7.2 
L 53.328125 7.2 
z
" style="fill: #ffffff"/>
   </g>
   <g id="matplotlib.axis_1">
    <g id="xtick_1">
     <g id="line2d_1">
      <defs>
       <path id="mfd6bfd89ef" d="M 0 0 
L 0 3.5 
" style="stroke: #000000; stroke-width: 0.8"/>
      </defs>
      <g>
       <use xlink:href="#mfd6bfd89ef" x="59.716004" y="173.52" style="stroke: #000000; stroke-width: 0.8"/>
      </g>
     </g>
     <g id="text_1">
      <!-- 0 -->
      <g transform="translate(56.534754 188.118438) scale(0.1 -0.1)">
       <defs>
        <path id="DejaVuSans-30" d="M 2034 4250 
Q 1547 4250 1301 3770 
Q 1056 3291 1056 2328 
Q 1056 1369 1301 889 
Q 1547 409 2034 409 
Q 2525 409 2770 889 
Q 3016 1369 3016 2328 
Q 3016 3291 2770 3770 
Q 2525 4250 2034 4250 
z
M 2034 4750 
Q 2819 4750 3233 4129 
Q 3647 3509 3647 2328 
Q 3647 1150 3233 529 
Q 2819 -91 2034 -91 
Q 1250 -91 836 529 
Q 422 1150 422 2328 
Q 422 3509 836 4129 
Q 1250 4750 2034 4750 
z
" transform="scale(0.015625)"/>
       </defs>
       <use xlink:href="#DejaVuSans-30"/>
      </g>
     </g>
    </g>
    <g id="xtick_2">
     <g id="line2d_2">
      <g>
       <use xlink:href="#mfd6bfd89ef" x="97.291761" y="173.52" style="stroke: #000000; stroke-width: 0.8"/>
      </g>
     </g>
     <g id="text_2">
      <!-- 10 -->
      <g transform="translate(90.929261 188.118438) scale(0.1 -0.1)">
       <defs>
        <path id="DejaVuSans-31" d="M 794 531 
L 1825 531 
L 1825 4091 
L 703 3866 
L 703 4441 
L 1819 4666 
L 2450 4666 
L 2450 531 
L 3481 531 
L 3481 0 
L 794 0 
L 794 531 
z
" transform="scale(0.015625)"/>
       </defs>
       <use xlink:href="#DejaVuSans-31"/>
       <use xlink:href="#DejaVuSans-30" transform="translate(63.623047 0)"/>
      </g>
     </g>
    </g>
    <g id="xtick_3">
     <g id="line2d_3">
      <g>
       <use xlink:href="#mfd6bfd89ef" x="134.867519" y="173.52" style="stroke: #000000; stroke-width: 0.8"/>
      </g>
     </g>
     <g id="text_3">
      <!-- 20 -->
      <g transform="translate(128.505019 188.118438) scale(0.1 -0.1)">
       <defs>
        <path id="DejaVuSans-32" d="M 1228 531 
L 3431 531 
L 3431 0 
L 469 0 
L 469 531 
Q 828 903 1448 1529 
Q 2069 2156 2228 2338 
Q 2531 2678 2651 2914 
Q 2772 3150 2772 3378 
Q 2772 3750 2511 3984 
Q 2250 4219 1831 4219 
Q 1534 4219 1204 4116 
Q 875 4013 500 3803 
L 500 4441 
Q 881 4594 1212 4672 
Q 1544 4750 1819 4750 
Q 2544 4750 2975 4387 
Q 3406 4025 3406 3419 
Q 3406 3131 3298 2873 
Q 3191 2616 2906 2266 
Q 2828 2175 2409 1742 
Q 1991 1309 1228 531 
z
" transform="scale(0.015625)"/>
       </defs>
       <use xlink:href="#DejaVuSans-32"/>
       <use xlink:href="#DejaVuSans-30" transform="translate(63.623047 0)"/>
      </g>
     </g>
    </g>
    <g id="xtick_4">
     <g id="line2d_4">
      <g>
       <use xlink:href="#mfd6bfd89ef" x="172.443277" y="173.52" style="stroke: #000000; stroke-width: 0.8"/>
      </g>
     </g>
     <g id="text_4">
      <!-- 30 -->
      <g transform="translate(166.080777 188.118438) scale(0.1 -0.1)">
       <defs>
        <path id="DejaVuSans-33" d="M 2597 2516 
Q 3050 2419 3304 2112 
Q 3559 1806 3559 1356 
Q 3559 666 3084 287 
Q 2609 -91 1734 -91 
Q 1441 -91 1130 -33 
Q 819 25 488 141 
L 488 750 
Q 750 597 1062 519 
Q 1375 441 1716 441 
Q 2309 441 2620 675 
Q 2931 909 2931 1356 
Q 2931 1769 2642 2001 
Q 2353 2234 1838 2234 
L 1294 2234 
L 1294 2753 
L 1863 2753 
Q 2328 2753 2575 2939 
Q 2822 3125 2822 3475 
Q 2822 3834 2567 4026 
Q 2313 4219 1838 4219 
Q 1578 4219 1281 4162 
Q 984 4106 628 3988 
L 628 4550 
Q 988 4650 1302 4700 
Q 1616 4750 1894 4750 
Q 2613 4750 3031 4423 
Q 3450 4097 3450 3541 
Q 3450 3153 3228 2886 
Q 3006 2619 2597 2516 
z
" transform="scale(0.015625)"/>
       </defs>
       <use xlink:href="#DejaVuSans-33"/>
       <use xlink:href="#DejaVuSans-30" transform="translate(63.623047 0)"/>
      </g>
     </g>
    </g>
    <g id="xtick_5">
     <g id="line2d_5">
      <g>
       <use xlink:href="#mfd6bfd89ef" x="210.019034" y="173.52" style="stroke: #000000; stroke-width: 0.8"/>
      </g>
     </g>
     <g id="text_5">
      <!-- 40 -->
      <g transform="translate(203.656534 188.118438) scale(0.1 -0.1)">
       <defs>
        <path id="DejaVuSans-34" d="M 2419 4116 
L 825 1625 
L 2419 1625 
L 2419 4116 
z
M 2253 4666 
L 3047 4666 
L 3047 1625 
L 3713 1625 
L 3713 1100 
L 3047 1100 
L 3047 0 
L 2419 0 
L 2419 1100 
L 313 1100 
L 313 1709 
L 2253 4666 
z
" transform="scale(0.015625)"/>
       </defs>
       <use xlink:href="#DejaVuSans-34"/>
       <use xlink:href="#DejaVuSans-30" transform="translate(63.623047 0)"/>
      </g>
     </g>
    </g>
    <g id="xtick_6">
     <g id="line2d_6">
      <g>
       <use xlink:href="#mfd6bfd89ef" x="247.594792" y="173.52" style="stroke: #000000; stroke-width: 0.8"/>
      </g>
     </g>
     <g id="text_6">
      <!-- 50 -->
      <g transform="translate(241.232292 188.118438) scale(0.1 -0.1)">
       <defs>
        <path id="DejaVuSans-35" d="M 691 4666 
L 3169 4666 
L 3169 4134 
L 1269 4134 
L 1269 2991 
Q 1406 3038 1543 3061 
Q 1681 3084 1819 3084 
Q 2600 3084 3056 2656 
Q 3513 2228 3513 1497 
Q 3513 744 3044 326 
Q 2575 -91 1722 -91 
Q 1428 -91 1123 -41 
Q 819 9 494 109 
L 494 744 
Q 775 591 1075 516 
Q 1375 441 1709 441 
Q 2250 441 2565 725 
Q 2881 1009 2881 1497 
Q 2881 1984 2565 2268 
Q 2250 2553 1709 2553 
Q 1456 2553 1204 2497 
Q 953 2441 691 2322 
L 691 4666 
z
" transform="scale(0.015625)"/>
       </defs>
       <use xlink:href="#DejaVuSans-35"/>
       <use xlink:href="#DejaVuSans-30" transform="translate(63.623047 0)"/>
      </g>
     </g>
    </g>
    <g id="text_7">
     <!-- x [m] -->
     <g transform="translate(151.607812 201.796563) scale(0.1 -0.1)">
      <defs>
       <path id="DejaVuSans-78" d="M 3513 3500 
L 2247 1797 
L 3578 0 
L 2900 0 
L 1881 1375 
L 863 0 
L 184 0 
L 1544 1831 
L 300 3500 
L 978 3500 
L 1906 2253 
L 2834 3500 
L 3513 3500 
z
" transform="scale(0.015625)"/>
       <path id="DejaVuSans-20" transform="scale(0.015625)"/>
       <path id="DejaVuSans-5b" d="M 550 4863 
L 1875 4863 
L 1875 4416 
L 1125 4416 
L 1125 -397 
L 1875 -397 
L 1875 -844 
L 550 -844 
L 550 4863 
z
" transform="scale(0.015625)"/>
       <path id="DejaVuSans-6d" d="M 3328 2828 
Q 3544 3216 3844 3400 
Q 4144 3584 4550 3584 
Q 5097 3584 5394 3201 
Q 5691 2819 5691 2113 
L 5691 0 
L 5113 0 
L 5113 2094 
Q 5113 2597 4934 2840 
Q 4756 3084 4391 3084 
Q 3944 3084 3684 2787 
Q 3425 2491 3425 1978 
L 3425 0 
L 2847 0 
L 2847 2094 
Q 2847 2600 2669 2842 
Q 2491 3084 2119 3084 
Q 1678 3084 1418 2786 
Q 1159 2488 1159 1978 
L 1159 0 
L 581 0 
L 581 3500 
L 1159 3500 
L 1159 2956 
Q 1356 3278 1631 3431 
Q 1906 3584 2284 3584 
Q 2666 3584 2933 3390 
Q 3200 3197 3328 2828 
z
" transform="scale(0.015625)"/>
       <path id="DejaVuSans-5d" d="M 1947 4863 
L 1947 -844 
L 622 -844 
L 622 -397 
L 1369 -397 
L 1369 4416 
L 622 4416 
L 622 4863 
L 1947 4863 
z
" transform="scale(0.015625)"/>
      </defs>
      <use xlink:href="#DejaVuSans-78"/>
      <use xlink:href="#DejaVuSans-20" transform="translate(59.179688 0)"/>
      <use xlink:href="#DejaVuSans-5b" transform="translate(90.966797 0)"/>
      <use xlink:href="#DejaVuSans-6d" transform="translate(129.980469 0)"/>
      <use xlink:href="#DejaVuSans-5d" transform="translate(227.392578 0)"/>
     </g>
    </g>
   </g>
   <g id="matplotlib.axis_2">
    <g id="ytick_1">
     <g id="line2d_7">
      <defs>
       <path id="m556c27ae7e" d="M 0 0 
L -3.5 0 
" style="stroke: #000000; stroke-width: 0.8"/>
      </defs>
      <g>
       <use xlink:href="#m556c27ae7e" x="53.328125" y="166.01" style="stroke: #000000; stroke-width: 0.8"/>
      </g>
     </g>
     <g id="text_8">
      <!-- 0 -->
      <g transform="translate(39.965625 169.809219) scale(0.1 -0.1)">
       <use xlink:href="#DejaVuSans-30"/>
      </g>
     </g>
    </g>
    <g id="ytick_2">
     <g id="line2d_8">
      <g>
       <use xlink:href="#m556c27ae7e" x="53.328125" y="141.01" style="stroke: #000000; stroke-width: 0.8"/>
      </g>
     </g>
     <g id="text_9">
      <!-- 500 -->
      <g transform="translate(27.240625 144.809219) scale(0.1 -0.1)">
       <use xlink:href="#DejaVuSans-35"/>
       <use xlink:href="#DejaVuSans-30" transform="translate(63.623047 0)"/>
       <use xlink:href="#DejaVuSans-30" transform="translate(127.246094 0)"/>
      </g>
     </g>
    </g>
    <g id="ytick_3">
     <g id="line2d_9">
      <g>
       <use xlink:href="#m556c27ae7e" x="53.328125" y="116.01" style="stroke: #000000; stroke-width: 0.8"/>
      </g>
     </g>
     <g id="text_10">
      <!-- 1000 -->
      <g transform="translate(20.878125 119.809219) scale(0.1 -0.1)">
       <use xlink:href="#DejaVuSans-31"/>
       <use xlink:href="#DejaVuSans-30" transform="translate(63.623047 0)"/>
       <use xlink:href="#DejaVuSans-30" transform="translate(127.246094 0)"/>
       <use xlink:href="#DejaVuSans-30" transform="translate(190.869141 0)"/>
      </g>
     </g>
    </g>
    <g id="ytick_4">
     <g id="line2d_10">
      <g>
       <use xlink:href="#m556c27ae7e" x="53.328125" y="91.01" style="stroke: #000000; stroke-width: 0.8"/>
      </g>
     </g>
     <g id="text_11">
      <!-- 1500 -->
      <g transform="translate(20.878125 94.809219) scale(0.1 -0.1)">
       <use xlink:href="#DejaVuSans-31"/>
       <use xlink:href="#DejaVuSans-35" transform="translate(63.623047 0)"/>
       <use xlink:href="#DejaVuSans-30" transform="translate(127.246094 0)"/>
       <use xlink:href="#DejaVuSans-30" transform="translate(190.869141 0)"/>
      </g>
     </g>
    </g>
    <g id="ytick_5">
     <g id="line2d_11">
      <g>
       <use xlink:href="#m556c27ae7e" x="53.328125" y="66.01" style="stroke: #000000; stroke-width: 0.8"/>
      </g>
     </g>
     <g id="text_12">
      <!-- 2000 -->
      <g transform="translate(20.878125 69.809219) scale(0.1 -0.1)">
       <use xlink:href="#DejaVuSans-32"/>
       <use xlink:href="#DejaVuSans-30" transform="translate(63.623047 0)"/>
       <use xlink:href="#DejaVuSans-30" transform="translate(127.246094 0)"/>
       <use xlink:href="#DejaVuSans-30" transform="translate(190.869141 0)"/>
      </g>
     </g>
    </g>
    <g id="ytick_6">
     <g id="line2d_12">
      <g>
       <use xlink:href="#m556c27ae7e" x="53.328125" y="41.01" style="stroke: #000000; stroke-width: 0.8"/>
      </g>
     </g>
     <g id="text_13">
      <!-- 2500 -->
      <g transform="translate(20.878125 44.809219) scale(0.1 -0.1)">
       <use xlink:href="#DejaVuSans-32"/>
       <use xlink:href="#DejaVuSans-35" transform="translate(63.623047 0)"/>
       <use xlink:href="#DejaVuSans-30" transform="translate(127.246094 0)"/>
       <use xlink:href="#DejaVuSans-30" transform="translate(190.869141 0)"/>
      </g>
     </g>
    </g>
    <g id="ytick_7">
     <g id="line2d_13">
      <g>
       <use xlink:href="#m556c27ae7e" x="53.328125" y="16.01" style="stroke: #000000; stroke-width: 0.8"/>
      </g>
     </g>
     <g id="text_14">
      <!-- 3000 -->
      <g transform="translate(20.878125 19.809219) scale(0.1 -0.1)">
       <use xlink:href="#DejaVuSans-33"/>
       <use xlink:href="#DejaVuSans-30" transform="translate(63.623047 0)"/>
       <use xlink:href="#DejaVuSans-30" transform="translate(127.246094 0)"/>
       <use xlink:href="#DejaVuSans-30" transform="translate(190.869141 0)"/>
      </g>
     </g>
    </g>
    <g id="text_15">
     <!-- [m^2] -->
     <g transform="translate(14.798437 106.502969) rotate(-90) scale(0.1 -0.1)">
      <defs>
       <path id="DejaVuSans-5e" d="M 2988 4666 
L 4684 2925 
L 4056 2925 
L 2681 4159 
L 1306 2925 
L 678 2925 
L 2375 4666 
L 2988 4666 
z
" transform="scale(0.015625)"/>
      </defs>
      <use xlink:href="#DejaVuSans-5b"/>
      <use xlink:href="#DejaVuSans-6d" transform="translate(39.013672 0)"/>
      <use xlink:href="#DejaVuSans-5e" transform="translate(136.425781 0)"/>
      <use xlink:href="#DejaVuSans-32" transform="translate(220.214844 0)"/>
      <use xlink:href="#DejaVuSans-5d" transform="translate(283.837891 0)"/>
     </g>
    </g>
   </g>
   <g id="line2d_14">
    <defs>
     <path id="m320b353824" d="M 0 3 
C 0.795609 3 1.55874 2.683901 2.12132 2.12132 
C 2.683901 1.55874 3 0.795609 3 0 
C 3 -0.795609 2.683901 -1.55874 2.12132 -2.12132 
C 1.55874 -2.683901 0.795609 -3 0 -3 
C -0.795609 -3 -1.55874 -2.683901 -2.12132 -2.12132 
C -2.683901 -1.55874 -3 -0.795609 -3 0 
C -3 0.795609 -2.683901 1.55874 -2.12132 2.12132 
C -1.55874 2.683901 -0.795609 3 0 3 
z
" style="stroke: #1f77b4"/>
    </defs>
    <g clip-path="url(#p63a9c31c3b)">
     <use xlink:href="#m320b353824" x="63.47358" y="165.96" style="fill: #1f77b4; stroke: #1f77b4"/>
     <use xlink:href="#m320b353824" x="65.523166" y="165.890579" style="fill: #1f77b4; stroke: #1f77b4"/>
     <use xlink:href="#m320b353824" x="67.572753" y="165.791405" style="fill: #1f77b4; stroke: #1f77b4"/>
     <use xlink:href="#m320b353824" x="69.62234" y="165.662479" style="fill: #1f77b4; stroke: #1f77b4"/>
     <use xlink:href="#m320b353824" x="71.671927" y="165.503802" style="fill: #1f77b4; stroke: #1f77b4"/>
     <use xlink:href="#m320b353824" x="73.721513" y="165.315372" style="fill: #1f77b4; stroke: #1f77b4"/>
     <use xlink:href="#m320b353824" x="75.7711" y="165.09719" style="fill: #1f77b4; stroke: #1f77b4"/>
     <use xlink:href="#m320b353824" x="77.820687" y="164.849256" style="fill: #1f77b4; stroke: #1f77b4"/>
     <use xlink:href="#m320b353824" x="79.870274" y="164.57157" style="fill: #1f77b4; stroke: #1f77b4"/>
     <use xlink:href="#m320b353824" x="81.919861" y="164.264132" style="fill: #1f77b4; stroke: #1f77b4"/>
     <use xlink:href="#m320b353824" x="83.969447" y="163.926942" style="fill: #1f77b4; stroke: #1f77b4"/>
     <use xlink:href="#m320b353824" x="86.019034" y="163.56" style="fill: #1f77b4; stroke: #1f77b4"/>
     <use xlink:href="#m320b353824" x="88.068621" y="163.163306" style="fill: #1f77b4; stroke: #1f77b4"/>
     <use xlink:href="#m320b353824" x="90.118208" y="162.73686" style="fill: #1f77b4; stroke: #1f77b4"/>
     <use xlink:href="#m320b353824" x="92.167794" y="162.280661" style="fill: #1f77b4; stroke: #1f77b4"/>
     <use xlink:href="#m320b353824" x="94.217381" y="161.794711" style="fill: #1f77b4; stroke: #1f77b4"/>
     <use xlink:href="#m320b353824" x="96.266968" y="161.279008" style="fill: #1f77b4; stroke: #1f77b4"/>
     <use xlink:href="#m320b353824" x="98.316555" y="160.733554" style="fill: #1f77b4; stroke: #1f77b4"/>
     <use xlink:href="#m320b353824" x="100.366142" y="160.158347" style="fill: #1f77b4; stroke: #1f77b4"/>
     <use xlink:href="#m320b353824" x="102.415728" y="159.553388" style="fill: #1f77b4; stroke: #1f77b4"/>
     <use xlink:href="#m320b353824" x="104.465315" y="158.918678" style="fill: #1f77b4; stroke: #1f77b4"/>
     <use xlink:href="#m320b353824" x="106.514902" y="158.254215" style="fill: #1f77b4; stroke: #1f77b4"/>
     <use xlink:href="#m320b353824" x="108.564489" y="157.56" style="fill: #1f77b4; stroke: #1f77b4"/>
     <use xlink:href="#m320b353824" x="110.614075" y="156.836033" style="fill: #1f77b4; stroke: #1f77b4"/>
     <use xlink:href="#m320b353824" x="112.663662" y="156.082314" style="fill: #1f77b4; stroke: #1f77b4"/>
     <use xlink:href="#m320b353824" x="114.713249" y="155.298843" style="fill: #1f77b4; stroke: #1f77b4"/>
     <use xlink:href="#m320b353824" x="116.762836" y="154.48562" style="fill: #1f77b4; stroke: #1f77b4"/>
     <use xlink:href="#m320b353824" x="118.812423" y="153.642645" style="fill: #1f77b4; stroke: #1f77b4"/>
     <use xlink:href="#m320b353824" x="120.862009" y="152.769917" style="fill: #1f77b4; stroke: #1f77b4"/>
     <use xlink:href="#m320b353824" x="122.911596" y="151.867438" style="fill: #1f77b4; stroke: #1f77b4"/>
     <use xlink:href="#m320b353824" x="124.961183" y="150.935207" style="fill: #1f77b4; stroke: #1f77b4"/>
     <use xlink:href="#m320b353824" x="127.01077" y="149.973223" style="fill: #1f77b4; stroke: #1f77b4"/>
     <use xlink:href="#m320b353824" x="129.060356" y="148.981488" style="fill: #1f77b4; stroke: #1f77b4"/>
     <use xlink:href="#m320b353824" x="131.109943" y="147.96" style="fill: #1f77b4; stroke: #1f77b4"/>
     <use xlink:href="#m320b353824" x="133.15953" y="146.90876" style="fill: #1f77b4; stroke: #1f77b4"/>
     <use xlink:href="#m320b353824" x="135.209117" y="145.827769" style="fill: #1f77b4; stroke: #1f77b4"/>
     <use xlink:href="#m320b353824" x="137.258704" y="144.717025" style="fill: #1f77b4; stroke: #1f77b4"/>
     <use xlink:href="#m320b353824" x="139.30829" y="143.576529" style="fill: #1f77b4; stroke: #1f77b4"/>
     <use xlink:href="#m320b353824" x="141.357877" y="142.406281" style="fill: #1f77b4; stroke: #1f77b4"/>
     <use xlink:href="#m320b353824" x="143.407464" y="141.206281" style="fill: #1f77b4; stroke: #1f77b4"/>
     <use xlink:href="#m320b353824" x="145.457051" y="139.976529" style="fill: #1f77b4; stroke: #1f77b4"/>
     <use xlink:href="#m320b353824" x="147.506637" y="138.717025" style="fill: #1f77b4; stroke: #1f77b4"/>
     <use xlink:href="#m320b353824" x="149.556224" y="137.427769" style="fill: #1f77b4; stroke: #1f77b4"/>
     <use xlink:href="#m320b353824" x="151.605811" y="136.10876" style="fill: #1f77b4; stroke: #1f77b4"/>
     <use xlink:href="#m320b353824" x="153.655398" y="134.76" style="fill: #1f77b4; stroke: #1f77b4"/>
     <use xlink:href="#m320b353824" x="155.704985" y="133.381488" style="fill: #1f77b4; stroke: #1f77b4"/>
     <use xlink:href="#m320b353824" x="157.754571" y="131.973223" style="fill: #1f77b4; stroke: #1f77b4"/>
     <use xlink:href="#m320b353824" x="159.804158" y="130.535207" style="fill: #1f77b4; stroke: #1f77b4"/>
     <use xlink:href="#m320b353824" x="161.853745" y="129.067438" style="fill: #1f77b4; stroke: #1f77b4"/>
     <use xlink:href="#m320b353824" x="163.903332" y="127.569917" style="fill: #1f77b4; stroke: #1f77b4"/>
     <use xlink:href="#m320b353824" x="165.952918" y="126.042645" style="fill: #1f77b4; stroke: #1f77b4"/>
     <use xlink:href="#m320b353824" x="168.002505" y="124.48562" style="fill: #1f77b4; stroke: #1f77b4"/>
     <use xlink:href="#m320b353824" x="170.052092" y="122.898843" style="fill: #1f77b4; stroke: #1f77b4"/>
     <use xlink:href="#m320b353824" x="172.101679" y="121.282314" style="fill: #1f77b4; stroke: #1f77b4"/>
     <use xlink:href="#m320b353824" x="174.151265" y="119.636033" style="fill: #1f77b4; stroke: #1f77b4"/>
     <use xlink:href="#m320b353824" x="176.200852" y="117.96" style="fill: #1f77b4; stroke: #1f77b4"/>
     <use xlink:href="#m320b353824" x="178.250439" y="116.254215" style="fill: #1f77b4; stroke: #1f77b4"/>
     <use xlink:href="#m320b353824" x="180.300026" y="114.518678" style="fill: #1f77b4; stroke: #1f77b4"/>
     <use xlink:href="#m320b353824" x="182.349613" y="112.753388" style="fill: #1f77b4; stroke: #1f77b4"/>
     <use xlink:href="#m320b353824" x="184.399199" y="110.958347" style="fill: #1f77b4; stroke: #1f77b4"/>
     <use xlink:href="#m320b353824" x="186.448786" y="109.133554" style="fill: #1f77b4; stroke: #1f77b4"/>
     <use xlink:href="#m320b353824" x="188.498373" y="107.279008" style="fill: #1f77b4; stroke: #1f77b4"/>
     <use xlink:href="#m320b353824" x="190.54796" y="105.394711" style="fill: #1f77b4; stroke: #1f77b4"/>
     <use xlink:href="#m320b353824" x="192.597546" y="103.480661" style="fill: #1f77b4; stroke: #1f77b4"/>
     <use xlink:href="#m320b353824" x="194.647133" y="101.53686" style="fill: #1f77b4; stroke: #1f77b4"/>
     <use xlink:href="#m320b353824" x="196.69672" y="99.563306" style="fill: #1f77b4; stroke: #1f77b4"/>
     <use xlink:href="#m320b353824" x="198.746307" y="97.56" style="fill: #1f77b4; stroke: #1f77b4"/>
     <use xlink:href="#m320b353824" x="200.795894" y="95.526942" style="fill: #1f77b4; stroke: #1f77b4"/>
     <use xlink:href="#m320b353824" x="202.84548" y="93.464132" style="fill: #1f77b4; stroke: #1f77b4"/>
     <use xlink:href="#m320b353824" x="204.895067" y="91.37157" style="fill: #1f77b4; stroke: #1f77b4"/>
     <use xlink:href="#m320b353824" x="206.944654" y="89.249256" style="fill: #1f77b4; stroke: #1f77b4"/>
     <use xlink:href="#m320b353824" x="208.994241" y="87.09719" style="fill: #1f77b4; stroke: #1f77b4"/>
     <use xlink:href="#m320b353824" x="211.043827" y="84.915372" style="fill: #1f77b4; stroke: #1f77b4"/>
     <use xlink:href="#m320b353824" x="213.093414" y="82.703802" style="fill: #1f77b4; stroke: #1f77b4"/>
     <use xlink:href="#m320b353824" x="215.143001" y="80.462479" style="fill: #1f77b4; stroke: #1f77b4"/>
     <use xlink:href="#m320b353824" x="217.192588" y="78.191405" style="fill: #1f77b4; stroke: #1f77b4"/>
     <use xlink:href="#m320b353824" x="219.242175" y="75.890579" style="fill: #1f77b4; stroke: #1f77b4"/>
     <use xlink:href="#m320b353824" x="221.291761" y="73.56" style="fill: #1f77b4; stroke: #1f77b4"/>
     <use xlink:href="#m320b353824" x="223.341348" y="71.199669" style="fill: #1f77b4; stroke: #1f77b4"/>
     <use xlink:href="#m320b353824" x="225.390935" y="68.809587" style="fill: #1f77b4; stroke: #1f77b4"/>
     <use xlink:href="#m320b353824" x="227.440522" y="66.389752" style="fill: #1f77b4; stroke: #1f77b4"/>
     <use xlink:href="#m320b353824" x="229.490108" y="63.940165" style="fill: #1f77b4; stroke: #1f77b4"/>
     <use xlink:href="#m320b353824" x="231.539695" y="61.460826" style="fill: #1f77b4; stroke: #1f77b4"/>
     <use xlink:href="#m320b353824" x="233.589282" y="58.951736" style="fill: #1f77b4; stroke: #1f77b4"/>
     <use xlink:href="#m320b353824" x="235.638869" y="56.412893" style="fill: #1f77b4; stroke: #1f77b4"/>
     <use xlink:href="#m320b353824" x="237.688456" y="53.844298" style="fill: #1f77b4; stroke: #1f77b4"/>
     <use xlink:href="#m320b353824" x="239.738042" y="51.24595" style="fill: #1f77b4; stroke: #1f77b4"/>
     <use xlink:href="#m320b353824" x="241.787629" y="48.617851" style="fill: #1f77b4; stroke: #1f77b4"/>
     <use xlink:href="#m320b353824" x="243.837216" y="45.96" style="fill: #1f77b4; stroke: #1f77b4"/>
     <use xlink:href="#m320b353824" x="245.886803" y="43.272397" style="fill: #1f77b4; stroke: #1f77b4"/>
     <use xlink:href="#m320b353824" x="247.936389" y="40.555041" style="fill: #1f77b4; stroke: #1f77b4"/>
     <use xlink:href="#m320b353824" x="249.985976" y="37.807934" style="fill: #1f77b4; stroke: #1f77b4"/>
     <use xlink:href="#m320b353824" x="252.035563" y="35.031074" style="fill: #1f77b4; stroke: #1f77b4"/>
     <use xlink:href="#m320b353824" x="254.08515" y="32.224463" style="fill: #1f77b4; stroke: #1f77b4"/>
     <use xlink:href="#m320b353824" x="256.134737" y="29.388099" style="fill: #1f77b4; stroke: #1f77b4"/>
     <use xlink:href="#m320b353824" x="258.184323" y="26.521983" style="fill: #1f77b4; stroke: #1f77b4"/>
     <use xlink:href="#m320b353824" x="260.23391" y="23.626116" style="fill: #1f77b4; stroke: #1f77b4"/>
     <use xlink:href="#m320b353824" x="262.283497" y="20.700496" style="fill: #1f77b4; stroke: #1f77b4"/>
     <use xlink:href="#m320b353824" x="264.333084" y="17.745124" style="fill: #1f77b4; stroke: #1f77b4"/>
     <use xlink:href="#m320b353824" x="266.38267" y="14.76" style="fill: #1f77b4; stroke: #1f77b4"/>
    </g>
   </g>
   <g id="patch_3">
    <path d="M 53.328125 173.52 
L 53.328125 7.2 
" style="fill: none; stroke: #000000; stroke-width: 0.8; stroke-linejoin: miter; stroke-linecap: square"/>
   </g>
   <g id="patch_4">
    <path d="M 276.528125 173.52 
L 276.528125 7.2 
" style="fill: none; stroke: #000000; stroke-width: 0.8; stroke-linejoin: miter; stroke-linecap: square"/>
   </g>
   <g id="patch_5">
    <path d="M 53.328125 173.52 
L 276.528125 173.52 
" style="fill: none; stroke: #000000; stroke-width: 0.8; stroke-linejoin: miter; stroke-linecap: square"/>
   </g>
   <g id="patch_6">
    <path d="M 53.328125 7.2 
L 276.528125 7.2 
" style="fill: none; stroke: #000000; stroke-width: 0.8; stroke-linejoin: miter; stroke-linecap: square"/>
   </g>
  </g>
 </g>
 <defs>
  <clipPath id="p63a9c31c3b">
   <rect x="53.328125" y="7.2" width="223.2" height="166.32"/>
  </clipPath>
 </defs>
</svg>
