<?xml version="1.0" encoding="utf-8" standalone="no"?>
<!DOCTYPE svg PUBLIC "-//W3C//DTD SVG 1.1//EN"
  "http://www.w3.org/Graphics/SVG/1.1/DTD/svg11.dtd">
<svg xmlns:xlink="http://www.w3.org/1999/xlink" width="424.433125pt" height="279.99625pt" viewBox="0 0 424.433125 279.99625" xmlns="http://www.w3.org/2000/svg" version="1.1">
 <metadata>
  <rdf:RDF xmlns:dc="http://purl.org/dc/elements/1.1/" xmlns:cc="http://creativecommons.org/ns#" xmlns:rdf="http://www.w3.org/1999/02/22-rdf-syntax-ns#">
   <cc:Work>
    <dc:type rdf:resource="http://purl.org/dc/dcmitype/StillImage"/>
    <dc:date>2024-09-12T08:22:10.530145</dc:date>
    <dc:format>image/svg+xml</dc:format>
    <dc:creator>
     <cc:Agent>
      <dc:title>Matplotlib v3.9.1, https://matplotlib.org/</dc:title>
     </cc:Agent>
    </dc:creator>
   </cc:Work>
  </rdf:RDF>
 </metadata>
 <defs>
  <style type="text/css">*{stroke-linejoin: round; stroke-linecap: butt}</style>
 </defs>
 <g id="figure_1">
  <g id="patch_1">
   <path d="M -0 279.99625 
L 424.433125 279.99625 
L 424.433125 0 
L -0 0 
z
" style="fill: #ffffff"/>
  </g>
  <g id="axes_1">
   <g id="patch_2">
    <path d="M 40.603125 242.44 
L 417.233125 242.44 
L 417.233125 7.2 
L 40.603125 7.2 
z
" style="fill: #ffffff"/>
   </g>
   <g id="matplotlib.axis_1">
    <g id="xtick_1">
     <g id="line2d_1">
      <defs>
       <path id="m15b09d782c" d="M 0 0 
L 0 3.5 
" style="stroke: #000000; stroke-width: 0.8"/>
      </defs>
      <g>
       <use xlink:href="#m15b09d782c" x="57.72267" y="242.44" style="stroke: #000000; stroke-width: 0.8"/>
      </g>
     </g>
     <g id="text_1">
      <!-- 0 -->
      <g transform="translate(54.54142 257.038437) scale(0.1 -0.1)">
       <defs>
        <path id="DejaVuSans-30" d="M 2034 4250 
Q 1547 4250 1301 3770 
Q 1056 3291 1056 2328 
Q 1056 1369 1301 889 
Q 1547 409 2034 409 
Q 2525 409 2770 889 
Q 3016 1369 3016 2328 
Q 3016 3291 2770 3770 
Q 2525 4250 2034 4250 
z
M 2034 4750 
Q 2819 4750 3233 4129 
Q 3647 3509 3647 2328 
Q 3647 1150 3233 529 
Q 2819 -91 2034 -91 
Q 1250 -91 836 529 
Q 422 1150 422 2328 
Q 422 3509 836 4129 
Q 1250 4750 2034 4750 
z
" transform="scale(0.015625)"/>
       </defs>
       <use xlink:href="#DejaVuSans-30"/>
      </g>
     </g>
    </g>
    <g id="xtick_2">
     <g id="line2d_2">
      <g>
       <use xlink:href="#m15b09d782c" x="127.598366" y="242.44" style="stroke: #000000; stroke-width: 0.8"/>
      </g>
     </g>
     <g id="text_2">
      <!-- 10 -->
      <g transform="translate(121.235866 257.038437) scale(0.1 -0.1)">
       <defs>
        <path id="DejaVuSans-31" d="M 794 531 
L 1825 531 
L 1825 4091 
L 703 3866 
L 703 4441 
L 1819 4666 
L 2450 4666 
L 2450 531 
L 3481 531 
L 3481 0 
L 794 0 
L 794 531 
z
" transform="scale(0.015625)"/>
       </defs>
       <use xlink:href="#DejaVuSans-31"/>
       <use xlink:href="#DejaVuSans-30" x="63.623047"/>
      </g>
     </g>
    </g>
    <g id="xtick_3">
     <g id="line2d_3">
      <g>
       <use xlink:href="#m15b09d782c" x="197.474062" y="242.44" style="stroke: #000000; stroke-width: 0.8"/>
      </g>
     </g>
     <g id="text_3">
      <!-- 20 -->
      <g transform="translate(191.111562 257.038437) scale(0.1 -0.1)">
       <defs>
        <path id="DejaVuSans-32" d="M 1228 531 
L 3431 531 
L 3431 0 
L 469 0 
L 469 531 
Q 828 903 1448 1529 
Q 2069 2156 2228 2338 
Q 2531 2678 2651 2914 
Q 2772 3150 2772 3378 
Q 2772 3750 2511 3984 
Q 2250 4219 1831 4219 
Q 1534 4219 1204 4116 
Q 875 4013 500 3803 
L 500 4441 
Q 881 4594 1212 4672 
Q 1544 4750 1819 4750 
Q 2544 4750 2975 4387 
Q 3406 4025 3406 3419 
Q 3406 3131 3298 2873 
Q 3191 2616 2906 2266 
Q 2828 2175 2409 1742 
Q 1991 1309 1228 531 
z
" transform="scale(0.015625)"/>
       </defs>
       <use xlink:href="#DejaVuSans-32"/>
       <use xlink:href="#DejaVuSans-30" x="63.623047"/>
      </g>
     </g>
    </g>
    <g id="xtick_4">
     <g id="line2d_4">
      <g>
       <use xlink:href="#m15b09d782c" x="267.349758" y="242.44" style="stroke: #000000; stroke-width: 0.8"/>
      </g>
     </g>
     <g id="text_4">
      <!-- 30 -->
      <g transform="translate(260.987258 257.038437) scale(0.1 -0.1)">
       <defs>
        <path id="DejaVuSans-33" d="M 2597 2516 
Q 3050 2419 3304 2112 
Q 3559 1806 3559 1356 
Q 3559 666 3084 287 
Q 2609 -91 1734 -91 
Q 1441 -91 1130 -33 
Q 819 25 488 141 
L 488 750 
Q 750 597 1062 519 
Q 1375 441 1716 441 
Q 2309 441 2620 675 
Q 2931 909 2931 1356 
Q 2931 1769 2642 2001 
Q 2353 2234 1838 2234 
L 1294 2234 
L 1294 2753 
L 1863 2753 
Q 2328 2753 2575 2939 
Q 2822 3125 2822 3475 
Q 2822 3834 2567 4026 
Q 2313 4219 1838 4219 
Q 1578 4219 1281 4162 
Q 984 4106 628 3988 
L 628 4550 
Q 988 4650 1302 4700 
Q 1616 4750 1894 4750 
Q 2613 4750 3031 4423 
Q 3450 4097 3450 3541 
Q 3450 3153 3228 2886 
Q 3006 2619 2597 2516 
z
" transform="scale(0.015625)"/>
       </defs>
       <use xlink:href="#DejaVuSans-33"/>
       <use xlink:href="#DejaVuSans-30" x="63.623047"/>
      </g>
     </g>
    </g>
    <g id="xtick_5">
     <g id="line2d_5">
      <g>
       <use xlink:href="#m15b09d782c" x="337.225453" y="242.44" style="stroke: #000000; stroke-width: 0.8"/>
      </g>
     </g>
     <g id="text_5">
      <!-- 40 -->
      <g transform="translate(330.862953 257.038437) scale(0.1 -0.1)">
       <defs>
        <path id="DejaVuSans-34" d="M 2419 4116 
L 825 1625 
L 2419 1625 
L 2419 4116 
z
M 2253 4666 
L 3047 4666 
L 3047 1625 
L 3713 1625 
L 3713 1100 
L 3047 1100 
L 3047 0 
L 2419 0 
L 2419 1100 
L 313 1100 
L 313 1709 
L 2253 4666 
z
" transform="scale(0.015625)"/>
       </defs>
       <use xlink:href="#DejaVuSans-34"/>
       <use xlink:href="#DejaVuSans-30" x="63.623047"/>
      </g>
     </g>
    </g>
    <g id="xtick_6">
     <g id="line2d_6">
      <g>
       <use xlink:href="#m15b09d782c" x="407.101149" y="242.44" style="stroke: #000000; stroke-width: 0.8"/>
      </g>
     </g>
     <g id="text_6">
      <!-- 50 -->
      <g transform="translate(400.738649 257.038437) scale(0.1 -0.1)">
       <defs>
        <path id="DejaVuSans-35" d="M 691 4666 
L 3169 4666 
L 3169 4134 
L 1269 4134 
L 1269 2991 
Q 1406 3038 1543 3061 
Q 1681 3084 1819 3084 
Q 2600 3084 3056 2656 
Q 3513 2228 3513 1497 
Q 3513 744 3044 326 
Q 2575 -91 1722 -91 
Q 1428 -91 1123 -41 
Q 819 9 494 109 
L 494 744 
Q 775 591 1075 516 
Q 1375 441 1709 441 
Q 2250 441 2565 725 
Q 2881 1009 2881 1497 
Q 2881 1984 2565 2268 
Q 2250 2553 1709 2553 
Q 1456 2553 1204 2497 
Q 953 2441 691 2322 
L 691 4666 
z
" transform="scale(0.015625)"/>
       </defs>
       <use xlink:href="#DejaVuSans-35"/>
       <use xlink:href="#DejaVuSans-30" x="63.623047"/>
      </g>
     </g>
    </g>
    <g id="text_7">
     <!-- row -->
     <g transform="translate(219.826719 270.716562) scale(0.1 -0.1)">
      <defs>
       <path id="DejaVuSans-72" d="M 2631 2963 
Q 2534 3019 2420 3045 
Q 2306 3072 2169 3072 
Q 1681 3072 1420 2755 
Q 1159 2438 1159 1844 
L 1159 0 
L 581 0 
L 581 3500 
L 1159 3500 
L 1159 2956 
Q 1341 3275 1631 3429 
Q 1922 3584 2338 3584 
Q 2397 3584 2469 3576 
Q 2541 3569 2628 3553 
L 2631 2963 
z
" transform="scale(0.015625)"/>
       <path id="DejaVuSans-6f" d="M 1959 3097 
Q 1497 3097 1228 2736 
Q 959 2375 959 1747 
Q 959 1119 1226 758 
Q 1494 397 1959 397 
Q 2419 397 2687 759 
Q 2956 1122 2956 1747 
Q 2956 2369 2687 2733 
Q 2419 3097 1959 3097 
z
M 1959 3584 
Q 2709 3584 3137 3096 
Q 3566 2609 3566 1747 
Q 3566 888 3137 398 
Q 2709 -91 1959 -91 
Q 1206 -91 779 398 
Q 353 888 353 1747 
Q 353 2609 779 3096 
Q 1206 3584 1959 3584 
z
" transform="scale(0.015625)"/>
       <path id="DejaVuSans-77" d="M 269 3500 
L 844 3500 
L 1563 769 
L 2278 3500 
L 2956 3500 
L 3675 769 
L 4391 3500 
L 4966 3500 
L 4050 0 
L 3372 0 
L 2619 2869 
L 1863 0 
L 1184 0 
L 269 3500 
z
" transform="scale(0.015625)"/>
      </defs>
      <use xlink:href="#DejaVuSans-72"/>
      <use xlink:href="#DejaVuSans-6f" x="38.863281"/>
      <use xlink:href="#DejaVuSans-77" x="100.044922"/>
     </g>
    </g>
   </g>
   <g id="matplotlib.axis_2">
    <g id="ytick_1">
     <g id="line2d_7">
      <defs>
       <path id="m03d99e395e" d="M 0 0 
L -3.5 0 
" style="stroke: #000000; stroke-width: 0.8"/>
      </defs>
      <g>
       <use xlink:href="#m03d99e395e" x="40.603125" y="227.730974" style="stroke: #000000; stroke-width: 0.8"/>
      </g>
     </g>
     <g id="text_8">
      <!-- 0 -->
      <g transform="translate(27.240625 231.530193) scale(0.1 -0.1)">
       <use xlink:href="#DejaVuSans-30"/>
      </g>
     </g>
    </g>
    <g id="ytick_2">
     <g id="line2d_8">
      <g>
       <use xlink:href="#m03d99e395e" x="40.603125" y="195.530469" style="stroke: #000000; stroke-width: 0.8"/>
      </g>
     </g>
     <g id="text_9">
      <!-- 2 -->
      <g transform="translate(27.240625 199.329688) scale(0.1 -0.1)">
       <use xlink:href="#DejaVuSans-32"/>
      </g>
     </g>
    </g>
    <g id="ytick_3">
     <g id="line2d_9">
      <g>
       <use xlink:href="#m03d99e395e" x="40.603125" y="163.329964" style="stroke: #000000; stroke-width: 0.8"/>
      </g>
     </g>
     <g id="text_10">
      <!-- 4 -->
      <g transform="translate(27.240625 167.129183) scale(0.1 -0.1)">
       <use xlink:href="#DejaVuSans-34"/>
      </g>
     </g>
    </g>
    <g id="ytick_4">
     <g id="line2d_10">
      <g>
       <use xlink:href="#m03d99e395e" x="40.603125" y="131.129459" style="stroke: #000000; stroke-width: 0.8"/>
      </g>
     </g>
     <g id="text_11">
      <!-- 6 -->
      <g transform="translate(27.240625 134.928678) scale(0.1 -0.1)">
       <defs>
        <path id="DejaVuSans-36" d="M 2113 2584 
Q 1688 2584 1439 2293 
Q 1191 2003 1191 1497 
Q 1191 994 1439 701 
Q 1688 409 2113 409 
Q 2538 409 2786 701 
Q 3034 994 3034 1497 
Q 3034 2003 2786 2293 
Q 2538 2584 2113 2584 
z
M 3366 4563 
L 3366 3988 
Q 3128 4100 2886 4159 
Q 2644 4219 2406 4219 
Q 1781 4219 1451 3797 
Q 1122 3375 1075 2522 
Q 1259 2794 1537 2939 
Q 1816 3084 2150 3084 
Q 2853 3084 3261 2657 
Q 3669 2231 3669 1497 
Q 3669 778 3244 343 
Q 2819 -91 2113 -91 
Q 1303 -91 875 529 
Q 447 1150 447 2328 
Q 447 3434 972 4092 
Q 1497 4750 2381 4750 
Q 2619 4750 2861 4703 
Q 3103 4656 3366 4563 
z
" transform="scale(0.015625)"/>
       </defs>
       <use xlink:href="#DejaVuSans-36"/>
      </g>
     </g>
    </g>
    <g id="ytick_5">
     <g id="line2d_11">
      <g>
       <use xlink:href="#m03d99e395e" x="40.603125" y="98.928954" style="stroke: #000000; stroke-width: 0.8"/>
      </g>
     </g>
     <g id="text_12">
      <!-- 8 -->
      <g transform="translate(27.240625 102.728173) scale(0.1 -0.1)">
       <defs>
        <path id="DejaVuSans-38" d="M 2034 2216 
Q 1584 2216 1326 1975 
Q 1069 1734 1069 1313 
Q 1069 891 1326 650 
Q 1584 409 2034 409 
Q 2484 409 2743 651 
Q 3003 894 3003 1313 
Q 3003 1734 2745 1975 
Q 2488 2216 2034 2216 
z
M 1403 2484 
Q 997 2584 770 2862 
Q 544 3141 544 3541 
Q 544 4100 942 4425 
Q 1341 4750 2034 4750 
Q 2731 4750 3128 4425 
Q 3525 4100 3525 3541 
Q 3525 3141 3298 2862 
Q 3072 2584 2669 2484 
Q 3125 2378 3379 2068 
Q 3634 1759 3634 1313 
Q 3634 634 3220 271 
Q 2806 -91 2034 -91 
Q 1263 -91 848 271 
Q 434 634 434 1313 
Q 434 1759 690 2068 
Q 947 2378 1403 2484 
z
M 1172 3481 
Q 1172 3119 1398 2916 
Q 1625 2713 2034 2713 
Q 2441 2713 2670 2916 
Q 2900 3119 2900 3481 
Q 2900 3844 2670 4047 
Q 2441 4250 2034 4250 
Q 1625 4250 1398 4047 
Q 1172 3844 1172 3481 
z
" transform="scale(0.015625)"/>
       </defs>
       <use xlink:href="#DejaVuSans-38"/>
      </g>
     </g>
    </g>
    <g id="ytick_6">
     <g id="line2d_12">
      <g>
       <use xlink:href="#m03d99e395e" x="40.603125" y="66.728449" style="stroke: #000000; stroke-width: 0.8"/>
      </g>
     </g>
     <g id="text_13">
      <!-- 10 -->
      <g transform="translate(20.878125 70.527668) scale(0.1 -0.1)">
       <use xlink:href="#DejaVuSans-31"/>
       <use xlink:href="#DejaVuSans-30" x="63.623047"/>
      </g>
     </g>
    </g>
    <g id="ytick_7">
     <g id="line2d_13">
      <g>
       <use xlink:href="#m03d99e395e" x="40.603125" y="34.527944" style="stroke: #000000; stroke-width: 0.8"/>
      </g>
     </g>
     <g id="text_14">
      <!-- 12 -->
      <g transform="translate(20.878125 38.327163) scale(0.1 -0.1)">
       <use xlink:href="#DejaVuSans-31"/>
       <use xlink:href="#DejaVuSans-32" x="63.623047"/>
      </g>
     </g>
    </g>
    <g id="text_15">
     <!-- [counts] -->
     <g transform="translate(14.798438 145.4325) rotate(-90) scale(0.1 -0.1)">
      <defs>
       <path id="DejaVuSans-5b" d="M 550 4863 
L 1875 4863 
L 1875 4416 
L 1125 4416 
L 1125 -397 
L 1875 -397 
L 1875 -844 
L 550 -844 
L 550 4863 
z
" transform="scale(0.015625)"/>
       <path id="DejaVuSans-63" d="M 3122 3366 
L 3122 2828 
Q 2878 2963 2633 3030 
Q 2388 3097 2138 3097 
Q 1578 3097 1268 2742 
Q 959 2388 959 1747 
Q 959 1106 1268 751 
Q 1578 397 2138 397 
Q 2388 397 2633 464 
Q 2878 531 3122 666 
L 3122 134 
Q 2881 22 2623 -34 
Q 2366 -91 2075 -91 
Q 1284 -91 818 406 
Q 353 903 353 1747 
Q 353 2603 823 3093 
Q 1294 3584 2113 3584 
Q 2378 3584 2631 3529 
Q 2884 3475 3122 3366 
z
" transform="scale(0.015625)"/>
       <path id="DejaVuSans-75" d="M 544 1381 
L 544 3500 
L 1119 3500 
L 1119 1403 
Q 1119 906 1312 657 
Q 1506 409 1894 409 
Q 2359 409 2629 706 
Q 2900 1003 2900 1516 
L 2900 3500 
L 3475 3500 
L 3475 0 
L 2900 0 
L 2900 538 
Q 2691 219 2414 64 
Q 2138 -91 1772 -91 
Q 1169 -91 856 284 
Q 544 659 544 1381 
z
M 1991 3584 
L 1991 3584 
z
" transform="scale(0.015625)"/>
       <path id="DejaVuSans-6e" d="M 3513 2113 
L 3513 0 
L 2938 0 
L 2938 2094 
Q 2938 2591 2744 2837 
Q 2550 3084 2163 3084 
Q 1697 3084 1428 2787 
Q 1159 2491 1159 1978 
L 1159 0 
L 581 0 
L 581 3500 
L 1159 3500 
L 1159 2956 
Q 1366 3272 1645 3428 
Q 1925 3584 2291 3584 
Q 2894 3584 3203 3211 
Q 3513 2838 3513 2113 
z
" transform="scale(0.015625)"/>
       <path id="DejaVuSans-74" d="M 1172 4494 
L 1172 3500 
L 2356 3500 
L 2356 3053 
L 1172 3053 
L 1172 1153 
Q 1172 725 1289 603 
Q 1406 481 1766 481 
L 2356 481 
L 2356 0 
L 1766 0 
Q 1100 0 847 248 
Q 594 497 594 1153 
L 594 3053 
L 172 3053 
L 172 3500 
L 594 3500 
L 594 4494 
L 1172 4494 
z
" transform="scale(0.015625)"/>
       <path id="DejaVuSans-73" d="M 2834 3397 
L 2834 2853 
Q 2591 2978 2328 3040 
Q 2066 3103 1784 3103 
Q 1356 3103 1142 2972 
Q 928 2841 928 2578 
Q 928 2378 1081 2264 
Q 1234 2150 1697 2047 
L 1894 2003 
Q 2506 1872 2764 1633 
Q 3022 1394 3022 966 
Q 3022 478 2636 193 
Q 2250 -91 1575 -91 
Q 1294 -91 989 -36 
Q 684 19 347 128 
L 347 722 
Q 666 556 975 473 
Q 1284 391 1588 391 
Q 1994 391 2212 530 
Q 2431 669 2431 922 
Q 2431 1156 2273 1281 
Q 2116 1406 1581 1522 
L 1381 1569 
Q 847 1681 609 1914 
Q 372 2147 372 2553 
Q 372 3047 722 3315 
Q 1072 3584 1716 3584 
Q 2034 3584 2315 3537 
Q 2597 3491 2834 3397 
z
" transform="scale(0.015625)"/>
       <path id="DejaVuSans-5d" d="M 1947 4863 
L 1947 -844 
L 622 -844 
L 622 -397 
L 1369 -397 
L 1369 4416 
L 622 4416 
L 622 4863 
L 1947 4863 
z
" transform="scale(0.015625)"/>
      </defs>
      <use xlink:href="#DejaVuSans-5b"/>
      <use xlink:href="#DejaVuSans-63" x="39.013672"/>
      <use xlink:href="#DejaVuSans-6f" x="93.994141"/>
      <use xlink:href="#DejaVuSans-75" x="155.175781"/>
      <use xlink:href="#DejaVuSans-6e" x="218.554688"/>
      <use xlink:href="#DejaVuSans-74" x="281.933594"/>
      <use xlink:href="#DejaVuSans-73" x="321.142578"/>
      <use xlink:href="#DejaVuSans-5d" x="373.242188"/>
     </g>
    </g>
   </g>
   <g id="patch_3">
    <path d="M 40.603125 242.44 
L 40.603125 7.2 
" style="fill: none; stroke: #000000; stroke-width: 0.8; stroke-linejoin: miter; stroke-linecap: square"/>
   </g>
   <g id="patch_4">
    <path d="M 417.233125 242.44 
L 417.233125 7.2 
" style="fill: none; stroke: #000000; stroke-width: 0.8; stroke-linejoin: miter; stroke-linecap: square"/>
   </g>
   <g id="patch_5">
    <path d="M 40.603125 242.44 
L 417.233125 242.44 
" style="fill: none; stroke: #000000; stroke-width: 0.8; stroke-linejoin: miter; stroke-linecap: square"/>
   </g>
   <g id="patch_6">
    <path d="M 40.603125 7.2 
L 417.233125 7.2 
" style="fill: none; stroke: #000000; stroke-width: 0.8; stroke-linejoin: miter; stroke-linecap: square"/>
   </g>
   <g id="line2d_14">
    <defs>
     <path id="m8b6df99cdd" d="M 0 3 
C 0.795609 3 1.55874 2.683901 2.12132 2.12132 
C 2.683901 1.55874 3 0.795609 3 0 
C 3 -0.795609 2.683901 -1.55874 2.12132 -2.12132 
C 1.55874 -2.683901 0.795609 -3 0 -3 
C -0.795609 -3 -1.55874 -2.683901 -2.12132 -2.12132 
C -2.683901 -1.55874 -3 -0.795609 -3 0 
C -3 0.795609 -2.683901 1.55874 -2.12132 2.12132 
C -1.55874 2.683901 -0.795609 3 0 3 
z
" style="stroke: #1f77b4"/>
    </defs>
    <g clip-path="url(#p4419f5d138)">
     <use xlink:href="#m8b6df99cdd" x="57.72267" y="160.589378" style="fill: #1f77b4; stroke: #1f77b4"/>
     <use xlink:href="#m8b6df99cdd" x="64.71024" y="111.756912" style="fill: #1f77b4; stroke: #1f77b4"/>
     <use xlink:href="#m8b6df99cdd" x="71.69781" y="227.712559" style="fill: #1f77b4; stroke: #1f77b4"/>
     <use xlink:href="#m8b6df99cdd" x="78.685379" y="179.054666" style="fill: #1f77b4; stroke: #1f77b4"/>
     <use xlink:href="#m8b6df99cdd" x="85.672949" y="204.102905" style="fill: #1f77b4; stroke: #1f77b4"/>
     <use xlink:href="#m8b6df99cdd" x="92.660518" y="212.864227" style="fill: #1f77b4; stroke: #1f77b4"/>
     <use xlink:href="#m8b6df99cdd" x="99.648088" y="197.74261" style="fill: #1f77b4; stroke: #1f77b4"/>
     <use xlink:href="#m8b6df99cdd" x="106.635657" y="172.094824" style="fill: #1f77b4; stroke: #1f77b4"/>
     <use xlink:href="#m8b6df99cdd" x="113.623227" y="163.850409" style="fill: #1f77b4; stroke: #1f77b4"/>
     <use xlink:href="#m8b6df99cdd" x="120.610797" y="140.980119" style="fill: #1f77b4; stroke: #1f77b4"/>
     <use xlink:href="#m8b6df99cdd" x="127.598366" y="160.239599" style="fill: #1f77b4; stroke: #1f77b4"/>
     <use xlink:href="#m8b6df99cdd" x="134.585936" y="117.408904" style="fill: #1f77b4; stroke: #1f77b4"/>
     <use xlink:href="#m8b6df99cdd" x="141.573505" y="194.813646" style="fill: #1f77b4; stroke: #1f77b4"/>
     <use xlink:href="#m8b6df99cdd" x="148.561075" y="86.351849" style="fill: #1f77b4; stroke: #1f77b4"/>
     <use xlink:href="#m8b6df99cdd" x="155.548644" y="223.321502" style="fill: #1f77b4; stroke: #1f77b4"/>
     <use xlink:href="#m8b6df99cdd" x="162.536214" y="119.784012" style="fill: #1f77b4; stroke: #1f77b4"/>
     <use xlink:href="#m8b6df99cdd" x="169.523784" y="160.543847" style="fill: #1f77b4; stroke: #1f77b4"/>
     <use xlink:href="#m8b6df99cdd" x="176.511353" y="137.780501" style="fill: #1f77b4; stroke: #1f77b4"/>
     <use xlink:href="#m8b6df99cdd" x="183.498923" y="205.128322" style="fill: #1f77b4; stroke: #1f77b4"/>
     <use xlink:href="#m8b6df99cdd" x="190.486492" y="195.836134" style="fill: #1f77b4; stroke: #1f77b4"/>
     <use xlink:href="#m8b6df99cdd" x="197.474062" y="98.809076" style="fill: #1f77b4; stroke: #1f77b4"/>
     <use xlink:href="#m8b6df99cdd" x="204.461631" y="71.838415" style="fill: #1f77b4; stroke: #1f77b4"/>
     <use xlink:href="#m8b6df99cdd" x="211.449201" y="177.26889" style="fill: #1f77b4; stroke: #1f77b4"/>
     <use xlink:href="#m8b6df99cdd" x="218.436771" y="116.265285" style="fill: #1f77b4; stroke: #1f77b4"/>
     <use xlink:href="#m8b6df99cdd" x="225.42434" y="86.630108" style="fill: #1f77b4; stroke: #1f77b4"/>
     <use xlink:href="#m8b6df99cdd" x="232.41191" y="83.697042" style="fill: #1f77b4; stroke: #1f77b4"/>
     <use xlink:href="#m8b6df99cdd" x="239.399479" y="214.038641" style="fill: #1f77b4; stroke: #1f77b4"/>
     <use xlink:href="#m8b6df99cdd" x="246.387049" y="221.443055" style="fill: #1f77b4; stroke: #1f77b4"/>
     <use xlink:href="#m8b6df99cdd" x="253.374619" y="200.387848" style="fill: #1f77b4; stroke: #1f77b4"/>
     <use xlink:href="#m8b6df99cdd" x="260.362188" y="86.347814" style="fill: #1f77b4; stroke: #1f77b4"/>
     <use xlink:href="#m8b6df99cdd" x="267.349758" y="211.896885" style="fill: #1f77b4; stroke: #1f77b4"/>
     <use xlink:href="#m8b6df99cdd" x="274.337327" y="159.931583" style="fill: #1f77b4; stroke: #1f77b4"/>
     <use xlink:href="#m8b6df99cdd" x="281.324897" y="73.508341" style="fill: #1f77b4; stroke: #1f77b4"/>
     <use xlink:href="#m8b6df99cdd" x="288.312466" y="141.890017" style="fill: #1f77b4; stroke: #1f77b4"/>
     <use xlink:href="#m8b6df99cdd" x="295.300036" y="116.337012" style="fill: #1f77b4; stroke: #1f77b4"/>
     <use xlink:href="#m8b6df99cdd" x="302.287606" y="176.932161" style="fill: #1f77b4; stroke: #1f77b4"/>
     <use xlink:href="#m8b6df99cdd" x="309.275175" y="117.202591" style="fill: #1f77b4; stroke: #1f77b4"/>
     <use xlink:href="#m8b6df99cdd" x="316.262745" y="93.354133" style="fill: #1f77b4; stroke: #1f77b4"/>
     <use xlink:href="#m8b6df99cdd" x="323.250314" y="224.786515" style="fill: #1f77b4; stroke: #1f77b4"/>
     <use xlink:href="#m8b6df99cdd" x="330.237884" y="106.955845" style="fill: #1f77b4; stroke: #1f77b4"/>
     <use xlink:href="#m8b6df99cdd" x="337.225453" y="68.521842" style="fill: #1f77b4; stroke: #1f77b4"/>
     <use xlink:href="#m8b6df99cdd" x="344.213023" y="107.274414" style="fill: #1f77b4; stroke: #1f77b4"/>
     <use xlink:href="#m8b6df99cdd" x="351.200593" y="182.578783" style="fill: #1f77b4; stroke: #1f77b4"/>
     <use xlink:href="#m8b6df99cdd" x="358.188162" y="100.655009" style="fill: #1f77b4; stroke: #1f77b4"/>
     <use xlink:href="#m8b6df99cdd" x="365.175732" y="211.111326" style="fill: #1f77b4; stroke: #1f77b4"/>
     <use xlink:href="#m8b6df99cdd" x="372.163301" y="155.618985" style="fill: #1f77b4; stroke: #1f77b4"/>
     <use xlink:href="#m8b6df99cdd" x="379.150871" y="81.444804" style="fill: #1f77b4; stroke: #1f77b4"/>
     <use xlink:href="#m8b6df99cdd" x="386.13844" y="180.458355" style="fill: #1f77b4; stroke: #1f77b4"/>
     <use xlink:href="#m8b6df99cdd" x="393.12601" y="181.398418" style="fill: #1f77b4; stroke: #1f77b4"/>
     <use xlink:href="#m8b6df99cdd" x="400.11358" y="206.796046" style="fill: #1f77b4; stroke: #1f77b4"/>
    </g>
   </g>
   <g id="LineCollection_1">
    <path d="M 57.72267 193.467892 
L 57.72267 127.710865 
" clip-path="url(#p4419f5d138)" style="fill: none; stroke: #1f77b4; stroke-width: 1.5"/>
    <path d="M 64.71024 154.968157 
L 64.71024 68.545667 
" clip-path="url(#p4419f5d138)" style="fill: none; stroke: #1f77b4; stroke-width: 1.5"/>
    <path d="M 71.69781 228.257059 
L 71.69781 227.168059 
" clip-path="url(#p4419f5d138)" style="fill: none; stroke: #1f77b4; stroke-width: 1.5"/>
    <path d="M 78.685379 207.049324 
L 78.685379 151.060009 
" clip-path="url(#p4419f5d138)" style="fill: none; stroke: #1f77b4; stroke-width: 1.5"/>
    <path d="M 85.672949 223.607209 
L 85.672949 184.598601 
" clip-path="url(#p4419f5d138)" style="fill: none; stroke: #1f77b4; stroke-width: 1.5"/>
    <path d="M 92.660518 228.335438 
L 92.660518 197.393016 
" clip-path="url(#p4419f5d138)" style="fill: none; stroke: #1f77b4; stroke-width: 1.5"/>
    <path d="M 99.648088 219.71578 
L 99.648088 175.769439 
" clip-path="url(#p4419f5d138)" style="fill: none; stroke: #1f77b4; stroke-width: 1.5"/>
    <path d="M 106.635657 202.024008 
L 106.635657 142.16564 
" clip-path="url(#p4419f5d138)" style="fill: none; stroke: #1f77b4; stroke-width: 1.5"/>
    <path d="M 113.623227 195.920539 
L 113.623227 131.780279 
" clip-path="url(#p4419f5d138)" style="fill: none; stroke: #1f77b4; stroke-width: 1.5"/>
    <path d="M 120.610797 178.352712 
L 120.610797 103.607527 
" clip-path="url(#p4419f5d138)" style="fill: none; stroke: #1f77b4; stroke-width: 1.5"/>
    <path d="M 127.598366 193.203642 
L 127.598366 127.275555 
" clip-path="url(#p4419f5d138)" style="fill: none; stroke: #1f77b4; stroke-width: 1.5"/>
    <path d="M 134.585936 159.554048 
L 134.585936 75.26376 
" clip-path="url(#p4419f5d138)" style="fill: none; stroke: #1f77b4; stroke-width: 1.5"/>
    <path d="M 141.573505 217.834881 
L 141.573505 171.79241 
" clip-path="url(#p4419f5d138)" style="fill: none; stroke: #1f77b4; stroke-width: 1.5"/>
    <path d="M 148.561075 134.061802 
L 148.561075 38.641897 
" clip-path="url(#p4419f5d138)" style="fill: none; stroke: #1f77b4; stroke-width: 1.5"/>
    <path d="M 155.548644 231.747273 
L 155.548644 214.895732 
" clip-path="url(#p4419f5d138)" style="fill: none; stroke: #1f77b4; stroke-width: 1.5"/>
    <path d="M 162.536214 161.473019 
L 162.536214 78.095004 
" clip-path="url(#p4419f5d138)" style="fill: none; stroke: #1f77b4; stroke-width: 1.5"/>
    <path d="M 169.523784 193.433507 
L 169.523784 127.654187 
" clip-path="url(#p4419f5d138)" style="fill: none; stroke: #1f77b4; stroke-width: 1.5"/>
    <path d="M 176.511353 175.836057 
L 176.511353 99.724945 
" clip-path="url(#p4419f5d138)" style="fill: none; stroke: #1f77b4; stroke-width: 1.5"/>
    <path d="M 183.498923 224.204706 
L 183.498923 186.051939 
" clip-path="url(#p4419f5d138)" style="fill: none; stroke: #1f77b4; stroke-width: 1.5"/>
    <path d="M 190.486492 218.497003 
L 190.486492 173.175265 
" clip-path="url(#p4419f5d138)" style="fill: none; stroke: #1f77b4; stroke-width: 1.5"/>
    <path d="M 197.474062 144.368654 
L 197.474062 53.249499 
" clip-path="url(#p4419f5d138)" style="fill: none; stroke: #1f77b4; stroke-width: 1.5"/>
    <path d="M 204.461631 121.937413 
L 204.461631 21.739418 
" clip-path="url(#p4419f5d138)" style="fill: none; stroke: #1f77b4; stroke-width: 1.5"/>
    <path d="M 211.449201 205.772439 
L 211.449201 148.765341 
" clip-path="url(#p4419f5d138)" style="fill: none; stroke: #1f77b4; stroke-width: 1.5"/>
    <path d="M 218.436771 158.628308 
L 218.436771 73.902261 
" clip-path="url(#p4419f5d138)" style="fill: none; stroke: #1f77b4; stroke-width: 1.5"/>
    <path d="M 225.42434 134.293087 
L 225.42434 38.967128 
" clip-path="url(#p4419f5d138)" style="fill: none; stroke: #1f77b4; stroke-width: 1.5"/>
    <path d="M 232.41191 131.852859 
L 232.41191 35.541226 
" clip-path="url(#p4419f5d138)" style="fill: none; stroke: #1f77b4; stroke-width: 1.5"/>
    <path d="M 239.399479 228.8862 
L 239.399479 199.191082 
" clip-path="url(#p4419f5d138)" style="fill: none; stroke: #1f77b4; stroke-width: 1.5"/>
    <path d="M 246.387049 231.504719 
L 246.387049 211.381391 
" clip-path="url(#p4419f5d138)" style="fill: none; stroke: #1f77b4; stroke-width: 1.5"/>
    <path d="M 253.374619 221.369536 
L 253.374619 179.406159 
" clip-path="url(#p4419f5d138)" style="fill: none; stroke: #1f77b4; stroke-width: 1.5"/>
    <path d="M 260.362188 134.058447 
L 260.362188 38.63718 
" clip-path="url(#p4419f5d138)" style="fill: none; stroke: #1f77b4; stroke-width: 1.5"/>
    <path d="M 267.349758 227.863501 
L 267.349758 195.930269 
" clip-path="url(#p4419f5d138)" style="fill: none; stroke: #1f77b4; stroke-width: 1.5"/>
    <path d="M 274.337327 192.970761 
L 274.337327 126.892405 
" clip-path="url(#p4419f5d138)" style="fill: none; stroke: #1f77b4; stroke-width: 1.5"/>
    <path d="M 281.324897 123.338285 
L 281.324897 23.678397 
" clip-path="url(#p4419f5d138)" style="fill: none; stroke: #1f77b4; stroke-width: 1.5"/>
    <path d="M 288.312466 179.066099 
L 288.312466 104.713935 
" clip-path="url(#p4419f5d138)" style="fill: none; stroke: #1f77b4; stroke-width: 1.5"/>
    <path d="M 295.300036 158.686403 
L 295.300036 73.987621 
" clip-path="url(#p4419f5d138)" style="fill: none; stroke: #1f77b4; stroke-width: 1.5"/>
    <path d="M 302.287606 205.530652 
L 302.287606 148.333669 
" clip-path="url(#p4419f5d138)" style="fill: none; stroke: #1f77b4; stroke-width: 1.5"/>
    <path d="M 309.275175 159.387125 
L 309.275175 75.018058 
" clip-path="url(#p4419f5d138)" style="fill: none; stroke: #1f77b4; stroke-width: 1.5"/>
    <path d="M 316.262745 139.867584 
L 316.262745 46.840683 
" clip-path="url(#p4419f5d138)" style="fill: none; stroke: #1f77b4; stroke-width: 1.5"/>
    <path d="M 323.250314 231.671755 
L 323.250314 217.901275 
" clip-path="url(#p4419f5d138)" style="fill: none; stroke: #1f77b4; stroke-width: 1.5"/>
    <path d="M 330.237884 151.052444 
L 330.237884 62.859246 
" clip-path="url(#p4419f5d138)" style="fill: none; stroke: #1f77b4; stroke-width: 1.5"/>
    <path d="M 337.225453 119.150956 
L 337.225453 17.892727 
" clip-path="url(#p4419f5d138)" style="fill: none; stroke: #1f77b4; stroke-width: 1.5"/>
    <path d="M 344.213023 151.312818 
L 344.213023 63.23601 
" clip-path="url(#p4419f5d138)" style="fill: none; stroke: #1f77b4; stroke-width: 1.5"/>
    <path d="M 351.200593 209.54101 
L 351.200593 155.616556 
" clip-path="url(#p4419f5d138)" style="fill: none; stroke: #1f77b4; stroke-width: 1.5"/>
    <path d="M 358.188162 145.887245 
L 358.188162 55.422774 
" clip-path="url(#p4419f5d138)" style="fill: none; stroke: #1f77b4; stroke-width: 1.5"/>
    <path d="M 365.175732 227.469215 
L 365.175732 194.753437 
" clip-path="url(#p4419f5d138)" style="fill: none; stroke: #1f77b4; stroke-width: 1.5"/>
    <path d="M 372.163301 189.692747 
L 372.163301 121.545224 
" clip-path="url(#p4419f5d138)" style="fill: none; stroke: #1f77b4; stroke-width: 1.5"/>
    <path d="M 379.150871 129.975663 
L 379.150871 32.913945 
" clip-path="url(#p4419f5d138)" style="fill: none; stroke: #1f77b4; stroke-width: 1.5"/>
    <path d="M 386.13844 208.046416 
L 386.13844 152.870294 
" clip-path="url(#p4419f5d138)" style="fill: none; stroke: #1f77b4; stroke-width: 1.5"/>
    <path d="M 393.12601 208.710793 
L 393.12601 154.086042 
" clip-path="url(#p4419f5d138)" style="fill: none; stroke: #1f77b4; stroke-width: 1.5"/>
    <path d="M 400.11358 225.155175 
L 400.11358 188.436916 
" clip-path="url(#p4419f5d138)" style="fill: none; stroke: #1f77b4; stroke-width: 1.5"/>
   </g>
  </g>
 </g>
 <defs>
  <clipPath id="p4419f5d138">
   <rect x="40.603125" y="7.2" width="376.63" height="235.24"/>
  </clipPath>
 </defs>
</svg>
