<?xml version="1.0" encoding="utf-8" standalone="no"?>
<!DOCTYPE svg PUBLIC "-//W3C//DTD SVG 1.1//EN"
  "http://www.w3.org/Graphics/SVG/1.1/DTD/svg11.dtd">
<svg xmlns:xlink="http://www.w3.org/1999/xlink" width="388.965625pt" height="266.51625pt" viewBox="0 0 388.965625 266.51625" xmlns="http://www.w3.org/2000/svg" version="1.1">
 <metadata>
  <rdf:RDF xmlns:dc="http://purl.org/dc/elements/1.1/" xmlns:cc="http://creativecommons.org/ns#" xmlns:rdf="http://www.w3.org/1999/02/22-rdf-syntax-ns#">
   <cc:Work>
    <dc:type rdf:resource="http://purl.org/dc/dcmitype/StillImage"/>
    <dc:date>2025-05-02T12:23:11.853245</dc:date>
    <dc:format>image/svg+xml</dc:format>
    <dc:creator>
     <cc:Agent>
      <dc:title>Matplotlib v3.10.1, https://matplotlib.org/</dc:title>
     </cc:Agent>
    </dc:creator>
   </cc:Work>
  </rdf:RDF>
 </metadata>
 <defs>
  <style type="text/css">*{stroke-linejoin: round; stroke-linecap: butt}</style>
 </defs>
 <g id="figure_1">
  <g id="patch_1">
   <path d="M 0 266.51625 
L 388.965625 266.51625 
L 388.965625 0 
L 0 0 
z
" style="fill: #ffffff"/>
  </g>
  <g id="axes_1">
   <g id="patch_2">
    <path d="M 46.965625 228.96 
L 381.765625 228.96 
L 381.765625 7.2 
L 46.965625 7.2 
z
" style="fill: #ffffff"/>
   </g>
   <g id="matplotlib.axis_1">
    <g id="xtick_1">
     <g id="line2d_1">
      <defs>
       <path id="m9e20ec7358" d="M 0 0 
L 0 3.5 
" style="stroke: #000000; stroke-width: 0.8"/>
      </defs>
      <g>
       <use xlink:href="#m9e20ec7358" x="62.183807" y="228.96" style="stroke: #000000; stroke-width: 0.8"/>
      </g>
     </g>
     <g id="text_1">
      <!-- 0.0 -->
      <g transform="translate(54.232244 243.558437) scale(0.1 -0.1)">
       <defs>
        <path id="DejaVuSans-30" d="M 2034 4250 
Q 1547 4250 1301 3770 
Q 1056 3291 1056 2328 
Q 1056 1369 1301 889 
Q 1547 409 2034 409 
Q 2525 409 2770 889 
Q 3016 1369 3016 2328 
Q 3016 3291 2770 3770 
Q 2525 4250 2034 4250 
z
M 2034 4750 
Q 2819 4750 3233 4129 
Q 3647 3509 3647 2328 
Q 3647 1150 3233 529 
Q 2819 -91 2034 -91 
Q 1250 -91 836 529 
Q 422 1150 422 2328 
Q 422 3509 836 4129 
Q 1250 4750 2034 4750 
z
" transform="scale(0.015625)"/>
        <path id="DejaVuSans-2e" d="M 684 794 
L 1344 794 
L 1344 0 
L 684 0 
L 684 794 
z
" transform="scale(0.015625)"/>
       </defs>
       <use xlink:href="#DejaVuSans-30"/>
       <use xlink:href="#DejaVuSans-2e" transform="translate(63.623047 0)"/>
       <use xlink:href="#DejaVuSans-30" transform="translate(95.410156 0)"/>
      </g>
     </g>
    </g>
    <g id="xtick_2">
     <g id="line2d_2">
      <g>
       <use xlink:href="#m9e20ec7358" x="123.056534" y="228.96" style="stroke: #000000; stroke-width: 0.8"/>
      </g>
     </g>
     <g id="text_2">
      <!-- 0.2 -->
      <g transform="translate(115.104972 243.558437) scale(0.1 -0.1)">
       <defs>
        <path id="DejaVuSans-32" d="M 1228 531 
L 3431 531 
L 3431 0 
L 469 0 
L 469 531 
Q 828 903 1448 1529 
Q 2069 2156 2228 2338 
Q 2531 2678 2651 2914 
Q 2772 3150 2772 3378 
Q 2772 3750 2511 3984 
Q 2250 4219 1831 4219 
Q 1534 4219 1204 4116 
Q 875 4013 500 3803 
L 500 4441 
Q 881 4594 1212 4672 
Q 1544 4750 1819 4750 
Q 2544 4750 2975 4387 
Q 3406 4025 3406 3419 
Q 3406 3131 3298 2873 
Q 3191 2616 2906 2266 
Q 2828 2175 2409 1742 
Q 1991 1309 1228 531 
z
" transform="scale(0.015625)"/>
       </defs>
       <use xlink:href="#DejaVuSans-30"/>
       <use xlink:href="#DejaVuSans-2e" transform="translate(63.623047 0)"/>
       <use xlink:href="#DejaVuSans-32" transform="translate(95.410156 0)"/>
      </g>
     </g>
    </g>
    <g id="xtick_3">
     <g id="line2d_3">
      <g>
       <use xlink:href="#m9e20ec7358" x="183.929261" y="228.96" style="stroke: #000000; stroke-width: 0.8"/>
      </g>
     </g>
     <g id="text_3">
      <!-- 0.4 -->
      <g transform="translate(175.977699 243.558437) scale(0.1 -0.1)">
       <defs>
        <path id="DejaVuSans-34" d="M 2419 4116 
L 825 1625 
L 2419 1625 
L 2419 4116 
z
M 2253 4666 
L 3047 4666 
L 3047 1625 
L 3713 1625 
L 3713 1100 
L 3047 1100 
L 3047 0 
L 2419 0 
L 2419 1100 
L 313 1100 
L 313 1709 
L 2253 4666 
z
" transform="scale(0.015625)"/>
       </defs>
       <use xlink:href="#DejaVuSans-30"/>
       <use xlink:href="#DejaVuSans-2e" transform="translate(63.623047 0)"/>
       <use xlink:href="#DejaVuSans-34" transform="translate(95.410156 0)"/>
      </g>
     </g>
    </g>
    <g id="xtick_4">
     <g id="line2d_4">
      <g>
       <use xlink:href="#m9e20ec7358" x="244.801989" y="228.96" style="stroke: #000000; stroke-width: 0.8"/>
      </g>
     </g>
     <g id="text_4">
      <!-- 0.6 -->
      <g transform="translate(236.850426 243.558437) scale(0.1 -0.1)">
       <defs>
        <path id="DejaVuSans-36" d="M 2113 2584 
Q 1688 2584 1439 2293 
Q 1191 2003 1191 1497 
Q 1191 994 1439 701 
Q 1688 409 2113 409 
Q 2538 409 2786 701 
Q 3034 994 3034 1497 
Q 3034 2003 2786 2293 
Q 2538 2584 2113 2584 
z
M 3366 4563 
L 3366 3988 
Q 3128 4100 2886 4159 
Q 2644 4219 2406 4219 
Q 1781 4219 1451 3797 
Q 1122 3375 1075 2522 
Q 1259 2794 1537 2939 
Q 1816 3084 2150 3084 
Q 2853 3084 3261 2657 
Q 3669 2231 3669 1497 
Q 3669 778 3244 343 
Q 2819 -91 2113 -91 
Q 1303 -91 875 529 
Q 447 1150 447 2328 
Q 447 3434 972 4092 
Q 1497 4750 2381 4750 
Q 2619 4750 2861 4703 
Q 3103 4656 3366 4563 
z
" transform="scale(0.015625)"/>
       </defs>
       <use xlink:href="#DejaVuSans-30"/>
       <use xlink:href="#DejaVuSans-2e" transform="translate(63.623047 0)"/>
       <use xlink:href="#DejaVuSans-36" transform="translate(95.410156 0)"/>
      </g>
     </g>
    </g>
    <g id="xtick_5">
     <g id="line2d_5">
      <g>
       <use xlink:href="#m9e20ec7358" x="305.674716" y="228.96" style="stroke: #000000; stroke-width: 0.8"/>
      </g>
     </g>
     <g id="text_5">
      <!-- 0.8 -->
      <g transform="translate(297.723153 243.558437) scale(0.1 -0.1)">
       <defs>
        <path id="DejaVuSans-38" d="M 2034 2216 
Q 1584 2216 1326 1975 
Q 1069 1734 1069 1313 
Q 1069 891 1326 650 
Q 1584 409 2034 409 
Q 2484 409 2743 651 
Q 3003 894 3003 1313 
Q 3003 1734 2745 1975 
Q 2488 2216 2034 2216 
z
M 1403 2484 
Q 997 2584 770 2862 
Q 544 3141 544 3541 
Q 544 4100 942 4425 
Q 1341 4750 2034 4750 
Q 2731 4750 3128 4425 
Q 3525 4100 3525 3541 
Q 3525 3141 3298 2862 
Q 3072 2584 2669 2484 
Q 3125 2378 3379 2068 
Q 3634 1759 3634 1313 
Q 3634 634 3220 271 
Q 2806 -91 2034 -91 
Q 1263 -91 848 271 
Q 434 634 434 1313 
Q 434 1759 690 2068 
Q 947 2378 1403 2484 
z
M 1172 3481 
Q 1172 3119 1398 2916 
Q 1625 2713 2034 2713 
Q 2441 2713 2670 2916 
Q 2900 3119 2900 3481 
Q 2900 3844 2670 4047 
Q 2441 4250 2034 4250 
Q 1625 4250 1398 4047 
Q 1172 3844 1172 3481 
z
" transform="scale(0.015625)"/>
       </defs>
       <use xlink:href="#DejaVuSans-30"/>
       <use xlink:href="#DejaVuSans-2e" transform="translate(63.623047 0)"/>
       <use xlink:href="#DejaVuSans-38" transform="translate(95.410156 0)"/>
      </g>
     </g>
    </g>
    <g id="xtick_6">
     <g id="line2d_6">
      <g>
       <use xlink:href="#m9e20ec7358" x="366.547443" y="228.96" style="stroke: #000000; stroke-width: 0.8"/>
      </g>
     </g>
     <g id="text_6">
      <!-- 1.0 -->
      <g transform="translate(358.595881 243.558437) scale(0.1 -0.1)">
       <defs>
        <path id="DejaVuSans-31" d="M 794 531 
L 1825 531 
L 1825 4091 
L 703 3866 
L 703 4441 
L 1819 4666 
L 2450 4666 
L 2450 531 
L 3481 531 
L 3481 0 
L 794 0 
L 794 531 
z
" transform="scale(0.015625)"/>
       </defs>
       <use xlink:href="#DejaVuSans-31"/>
       <use xlink:href="#DejaVuSans-2e" transform="translate(63.623047 0)"/>
       <use xlink:href="#DejaVuSans-30" transform="translate(95.410156 0)"/>
      </g>
     </g>
    </g>
    <g id="text_7">
     <!-- x [m] -->
     <g transform="translate(201.045313 257.236562) scale(0.1 -0.1)">
      <defs>
       <path id="DejaVuSans-78" d="M 3513 3500 
L 2247 1797 
L 3578 0 
L 2900 0 
L 1881 1375 
L 863 0 
L 184 0 
L 1544 1831 
L 300 3500 
L 978 3500 
L 1906 2253 
L 2834 3500 
L 3513 3500 
z
" transform="scale(0.015625)"/>
       <path id="DejaVuSans-20" transform="scale(0.015625)"/>
       <path id="DejaVuSans-5b" d="M 550 4863 
L 1875 4863 
L 1875 4416 
L 1125 4416 
L 1125 -397 
L 1875 -397 
L 1875 -844 
L 550 -844 
L 550 4863 
z
" transform="scale(0.015625)"/>
       <path id="DejaVuSans-6d" d="M 3328 2828 
Q 3544 3216 3844 3400 
Q 4144 3584 4550 3584 
Q 5097 3584 5394 3201 
Q 5691 2819 5691 2113 
L 5691 0 
L 5113 0 
L 5113 2094 
Q 5113 2597 4934 2840 
Q 4756 3084 4391 3084 
Q 3944 3084 3684 2787 
Q 3425 2491 3425 1978 
L 3425 0 
L 2847 0 
L 2847 2094 
Q 2847 2600 2669 2842 
Q 2491 3084 2119 3084 
Q 1678 3084 1418 2786 
Q 1159 2488 1159 1978 
L 1159 0 
L 581 0 
L 581 3500 
L 1159 3500 
L 1159 2956 
Q 1356 3278 1631 3431 
Q 1906 3584 2284 3584 
Q 2666 3584 2933 3390 
Q 3200 3197 3328 2828 
z
" transform="scale(0.015625)"/>
       <path id="DejaVuSans-5d" d="M 1947 4863 
L 1947 -844 
L 622 -844 
L 622 -397 
L 1369 -397 
L 1369 4416 
L 622 4416 
L 622 4863 
L 1947 4863 
z
" transform="scale(0.015625)"/>
      </defs>
      <use xlink:href="#DejaVuSans-78"/>
      <use xlink:href="#DejaVuSans-20" transform="translate(59.179688 0)"/>
      <use xlink:href="#DejaVuSans-5b" transform="translate(90.966797 0)"/>
      <use xlink:href="#DejaVuSans-6d" transform="translate(129.980469 0)"/>
      <use xlink:href="#DejaVuSans-5d" transform="translate(227.392578 0)"/>
     </g>
    </g>
   </g>
   <g id="matplotlib.axis_2">
    <g id="ytick_1">
     <g id="line2d_7">
      <defs>
       <path id="m22ea170303" d="M 0 0 
L -3.5 0 
" style="stroke: #000000; stroke-width: 0.8"/>
      </defs>
      <g>
       <use xlink:href="#m22ea170303" x="46.965625" y="208.66425" style="stroke: #000000; stroke-width: 0.8"/>
      </g>
     </g>
     <g id="text_8">
      <!-- 0 -->
      <g transform="translate(33.603125 212.463469) scale(0.1 -0.1)">
       <use xlink:href="#DejaVuSans-30"/>
      </g>
     </g>
    </g>
    <g id="ytick_2">
     <g id="line2d_8">
      <g>
       <use xlink:href="#m22ea170303" x="46.965625" y="173.338141" style="stroke: #000000; stroke-width: 0.8"/>
      </g>
     </g>
     <g id="text_9">
      <!-- 50 -->
      <g transform="translate(27.240625 177.137359) scale(0.1 -0.1)">
       <defs>
        <path id="DejaVuSans-35" d="M 691 4666 
L 3169 4666 
L 3169 4134 
L 1269 4134 
L 1269 2991 
Q 1406 3038 1543 3061 
Q 1681 3084 1819 3084 
Q 2600 3084 3056 2656 
Q 3513 2228 3513 1497 
Q 3513 744 3044 326 
Q 2575 -91 1722 -91 
Q 1428 -91 1123 -41 
Q 819 9 494 109 
L 494 744 
Q 775 591 1075 516 
Q 1375 441 1709 441 
Q 2250 441 2565 725 
Q 2881 1009 2881 1497 
Q 2881 1984 2565 2268 
Q 2250 2553 1709 2553 
Q 1456 2553 1204 2497 
Q 953 2441 691 2322 
L 691 4666 
z
" transform="scale(0.015625)"/>
       </defs>
       <use xlink:href="#DejaVuSans-35"/>
       <use xlink:href="#DejaVuSans-30" transform="translate(63.623047 0)"/>
      </g>
     </g>
    </g>
    <g id="ytick_3">
     <g id="line2d_9">
      <g>
       <use xlink:href="#m22ea170303" x="46.965625" y="138.012031" style="stroke: #000000; stroke-width: 0.8"/>
      </g>
     </g>
     <g id="text_10">
      <!-- 100 -->
      <g transform="translate(20.878125 141.81125) scale(0.1 -0.1)">
       <use xlink:href="#DejaVuSans-31"/>
       <use xlink:href="#DejaVuSans-30" transform="translate(63.623047 0)"/>
       <use xlink:href="#DejaVuSans-30" transform="translate(127.246094 0)"/>
      </g>
     </g>
    </g>
    <g id="ytick_4">
     <g id="line2d_10">
      <g>
       <use xlink:href="#m22ea170303" x="46.965625" y="102.685921" style="stroke: #000000; stroke-width: 0.8"/>
      </g>
     </g>
     <g id="text_11">
      <!-- 150 -->
      <g transform="translate(20.878125 106.48514) scale(0.1 -0.1)">
       <use xlink:href="#DejaVuSans-31"/>
       <use xlink:href="#DejaVuSans-35" transform="translate(63.623047 0)"/>
       <use xlink:href="#DejaVuSans-30" transform="translate(127.246094 0)"/>
      </g>
     </g>
    </g>
    <g id="ytick_5">
     <g id="line2d_11">
      <g>
       <use xlink:href="#m22ea170303" x="46.965625" y="67.359811" style="stroke: #000000; stroke-width: 0.8"/>
      </g>
     </g>
     <g id="text_12">
      <!-- 200 -->
      <g transform="translate(20.878125 71.15903) scale(0.1 -0.1)">
       <use xlink:href="#DejaVuSans-32"/>
       <use xlink:href="#DejaVuSans-30" transform="translate(63.623047 0)"/>
       <use xlink:href="#DejaVuSans-30" transform="translate(127.246094 0)"/>
      </g>
     </g>
    </g>
    <g id="ytick_6">
     <g id="line2d_12">
      <g>
       <use xlink:href="#m22ea170303" x="46.965625" y="32.033701" style="stroke: #000000; stroke-width: 0.8"/>
      </g>
     </g>
     <g id="text_13">
      <!-- 250 -->
      <g transform="translate(20.878125 35.83292) scale(0.1 -0.1)">
       <use xlink:href="#DejaVuSans-32"/>
       <use xlink:href="#DejaVuSans-35" transform="translate(63.623047 0)"/>
       <use xlink:href="#DejaVuSans-30" transform="translate(127.246094 0)"/>
      </g>
     </g>
    </g>
    <g id="text_14">
     <!-- [counts] -->
     <g transform="translate(14.798438 138.6925) rotate(-90) scale(0.1 -0.1)">
      <defs>
       <path id="DejaVuSans-63" d="M 3122 3366 
L 3122 2828 
Q 2878 2963 2633 3030 
Q 2388 3097 2138 3097 
Q 1578 3097 1268 2742 
Q 959 2388 959 1747 
Q 959 1106 1268 751 
Q 1578 397 2138 397 
Q 2388 397 2633 464 
Q 2878 531 3122 666 
L 3122 134 
Q 2881 22 2623 -34 
Q 2366 -91 2075 -91 
Q 1284 -91 818 406 
Q 353 903 353 1747 
Q 353 2603 823 3093 
Q 1294 3584 2113 3584 
Q 2378 3584 2631 3529 
Q 2884 3475 3122 3366 
z
" transform="scale(0.015625)"/>
       <path id="DejaVuSans-6f" d="M 1959 3097 
Q 1497 3097 1228 2736 
Q 959 2375 959 1747 
Q 959 1119 1226 758 
Q 1494 397 1959 397 
Q 2419 397 2687 759 
Q 2956 1122 2956 1747 
Q 2956 2369 2687 2733 
Q 2419 3097 1959 3097 
z
M 1959 3584 
Q 2709 3584 3137 3096 
Q 3566 2609 3566 1747 
Q 3566 888 3137 398 
Q 2709 -91 1959 -91 
Q 1206 -91 779 398 
Q 353 888 353 1747 
Q 353 2609 779 3096 
Q 1206 3584 1959 3584 
z
" transform="scale(0.015625)"/>
       <path id="DejaVuSans-75" d="M 544 1381 
L 544 3500 
L 1119 3500 
L 1119 1403 
Q 1119 906 1312 657 
Q 1506 409 1894 409 
Q 2359 409 2629 706 
Q 2900 1003 2900 1516 
L 2900 3500 
L 3475 3500 
L 3475 0 
L 2900 0 
L 2900 538 
Q 2691 219 2414 64 
Q 2138 -91 1772 -91 
Q 1169 -91 856 284 
Q 544 659 544 1381 
z
M 1991 3584 
L 1991 3584 
z
" transform="scale(0.015625)"/>
       <path id="DejaVuSans-6e" d="M 3513 2113 
L 3513 0 
L 2938 0 
L 2938 2094 
Q 2938 2591 2744 2837 
Q 2550 3084 2163 3084 
Q 1697 3084 1428 2787 
Q 1159 2491 1159 1978 
L 1159 0 
L 581 0 
L 581 3500 
L 1159 3500 
L 1159 2956 
Q 1366 3272 1645 3428 
Q 1925 3584 2291 3584 
Q 2894 3584 3203 3211 
Q 3513 2838 3513 2113 
z
" transform="scale(0.015625)"/>
       <path id="DejaVuSans-74" d="M 1172 4494 
L 1172 3500 
L 2356 3500 
L 2356 3053 
L 1172 3053 
L 1172 1153 
Q 1172 725 1289 603 
Q 1406 481 1766 481 
L 2356 481 
L 2356 0 
L 1766 0 
Q 1100 0 847 248 
Q 594 497 594 1153 
L 594 3053 
L 172 3053 
L 172 3500 
L 594 3500 
L 594 4494 
L 1172 4494 
z
" transform="scale(0.015625)"/>
       <path id="DejaVuSans-73" d="M 2834 3397 
L 2834 2853 
Q 2591 2978 2328 3040 
Q 2066 3103 1784 3103 
Q 1356 3103 1142 2972 
Q 928 2841 928 2578 
Q 928 2378 1081 2264 
Q 1234 2150 1697 2047 
L 1894 2003 
Q 2506 1872 2764 1633 
Q 3022 1394 3022 966 
Q 3022 478 2636 193 
Q 2250 -91 1575 -91 
Q 1294 -91 989 -36 
Q 684 19 347 128 
L 347 722 
Q 666 556 975 473 
Q 1284 391 1588 391 
Q 1994 391 2212 530 
Q 2431 669 2431 922 
Q 2431 1156 2273 1281 
Q 2116 1406 1581 1522 
L 1381 1569 
Q 847 1681 609 1914 
Q 372 2147 372 2553 
Q 372 3047 722 3315 
Q 1072 3584 1716 3584 
Q 2034 3584 2315 3537 
Q 2597 3491 2834 3397 
z
" transform="scale(0.015625)"/>
      </defs>
      <use xlink:href="#DejaVuSans-5b"/>
      <use xlink:href="#DejaVuSans-63" transform="translate(39.013672 0)"/>
      <use xlink:href="#DejaVuSans-6f" transform="translate(93.994141 0)"/>
      <use xlink:href="#DejaVuSans-75" transform="translate(155.175781 0)"/>
      <use xlink:href="#DejaVuSans-6e" transform="translate(218.554688 0)"/>
      <use xlink:href="#DejaVuSans-74" transform="translate(281.933594 0)"/>
      <use xlink:href="#DejaVuSans-73" transform="translate(321.142578 0)"/>
      <use xlink:href="#DejaVuSans-5d" transform="translate(373.242188 0)"/>
     </g>
    </g>
   </g>
   <g id="patch_3">
    <path d="M 46.965625 228.96 
L 46.965625 7.2 
" style="fill: none; stroke: #000000; stroke-width: 0.8; stroke-linejoin: miter; stroke-linecap: square"/>
   </g>
   <g id="patch_4">
    <path d="M 381.765625 228.96 
L 381.765625 7.2 
" style="fill: none; stroke: #000000; stroke-width: 0.8; stroke-linejoin: miter; stroke-linecap: square"/>
   </g>
   <g id="patch_5">
    <path d="M 46.965625 228.96 
L 381.765625 228.96 
" style="fill: none; stroke: #000000; stroke-width: 0.8; stroke-linejoin: miter; stroke-linecap: square"/>
   </g>
   <g id="patch_6">
    <path d="M 46.965625 7.2 
L 381.765625 7.2 
" style="fill: none; stroke: #000000; stroke-width: 0.8; stroke-linejoin: miter; stroke-linecap: square"/>
   </g>
   <g id="line2d_13">
    <path d="M 62.183807 28.711116 
L 65.227443 28.711116 
L 65.227443 55.042411 
L 68.27108 55.042411 
L 68.27108 46.603591 
L 71.314716 46.603591 
L 71.314716 36.065394 
L 74.358352 36.065394 
L 74.358352 89.497073 
L 77.401989 89.497073 
L 77.401989 81.611261 
L 80.445625 81.611261 
L 80.445625 111.10971 
L 83.489261 111.10971 
L 83.489261 64.239203 
L 86.532898 64.239203 
L 86.532898 87.498323 
L 89.576534 87.498323 
L 89.576534 100.131973 
L 92.62017 100.131973 
L 92.62017 96.648737 
L 95.663807 96.648737 
L 95.663807 109.408616 
L 98.707443 109.408616 
L 98.707443 94.910318 
L 101.75108 94.910318 
L 101.75108 132.816292 
L 104.794716 132.816292 
L 104.794716 141.348994 
L 107.838352 141.348994 
L 107.838352 132.114899 
L 110.881989 132.114899 
L 110.881989 110.265344 
L 113.925625 110.265344 
L 113.925625 141.563536 
L 116.969261 141.563536 
L 116.969261 135.171608 
L 120.012898 135.171608 
L 120.012898 142.450446 
L 123.056534 142.450446 
L 123.056534 147.738469 
L 126.10017 147.738469 
L 126.10017 150.194164 
L 129.143807 150.194164 
L 129.143807 148.379873 
L 132.187443 148.379873 
L 132.187443 155.595971 
L 135.23108 155.595971 
L 135.23108 162.838731 
L 138.274716 162.838731 
L 138.274716 156.357577 
L 141.318352 156.357577 
L 141.318352 162.445485 
L 144.361989 162.445485 
L 144.361989 165.957523 
L 147.405625 165.957523 
L 147.405625 169.275826 
L 150.449261 169.275826 
L 150.449261 176.475014 
L 153.492898 176.475014 
L 153.492898 170.741335 
L 156.536534 170.741335 
L 156.536534 177.907642 
L 159.58017 177.907642 
L 159.58017 180.396579 
L 162.623807 180.396579 
L 162.623807 183.24513 
L 165.667443 183.24513 
L 165.667443 176.757787 
L 168.71108 176.757787 
L 168.71108 180.001072 
L 171.754716 180.001072 
L 171.754716 178.326969 
L 174.798352 178.326969 
L 174.798352 181.857591 
L 177.841989 181.857591 
L 177.841989 184.516356 
L 180.885625 184.516356 
L 180.885625 184.102705 
L 183.929261 184.102705 
L 183.929261 180.212723 
L 190.016534 180.258723 
L 190.016534 186.744042 
L 193.06017 186.744042 
L 193.06017 186.598871 
L 196.103807 186.598871 
L 196.103807 190.899624 
L 199.147443 190.899624 
L 199.147443 187.570812 
L 202.19108 187.570812 
L 202.19108 187.919745 
L 205.234716 187.919745 
L 205.234716 193.386627 
L 208.278352 193.386627 
L 208.278352 195.801174 
L 211.321989 195.801174 
L 211.321989 197.098589 
L 214.365625 197.098589 
L 214.365625 196.782714 
L 217.409261 196.782714 
L 217.409261 192.297315 
L 220.452898 192.297315 
L 220.452898 198.001862 
L 223.496534 198.001862 
L 223.496534 196.838156 
L 226.54017 196.838156 
L 226.54017 199.483647 
L 229.583807 199.483647 
L 229.583807 198.512959 
L 232.627443 198.512959 
L 232.627443 198.712846 
L 235.67108 198.712846 
L 235.67108 200.04653 
L 238.714716 200.04653 
L 238.714716 198.935403 
L 241.758352 198.935403 
L 241.758352 200.003245 
L 244.801989 200.003245 
L 244.801989 200.492172 
L 247.845625 200.492172 
L 247.845625 200.243264 
L 250.889261 200.243264 
L 250.889261 199.796472 
L 253.932898 199.796472 
L 253.932898 198.31352 
L 256.976534 198.31352 
L 256.976534 202.174366 
L 260.02017 202.174366 
L 260.02017 202.727733 
L 266.107443 202.760925 
L 266.107443 202.565103 
L 269.15108 202.565103 
L 269.15108 203.130409 
L 272.194716 203.130409 
L 272.194716 202.997045 
L 275.238352 202.997045 
L 275.238352 204.472619 
L 278.281989 204.472619 
L 278.281989 203.684345 
L 281.325625 203.684345 
L 281.325625 204.640539 
L 284.369261 204.640539 
L 284.369261 202.980975 
L 287.412898 202.980975 
L 287.412898 204.683941 
L 293.50017 204.760568 
L 293.50017 205.776074 
L 296.543807 205.776074 
L 296.543807 204.266805 
L 299.587443 204.266805 
L 299.587443 205.033299 
L 302.63108 205.033299 
L 302.63108 205.987692 
L 305.674716 205.987692 
L 305.674716 205.382039 
L 308.718352 205.382039 
L 308.718352 205.620878 
L 311.761989 205.620878 
L 311.761989 205.280612 
L 314.805625 205.280612 
L 314.805625 206.104278 
L 317.849261 206.104278 
L 317.849261 205.987457 
L 320.892898 205.987457 
L 320.892898 206.531999 
L 323.936534 206.531999 
L 323.936534 206.130769 
L 326.98017 206.130769 
L 326.98017 206.888577 
L 330.023807 206.888577 
L 330.023807 206.329414 
L 336.11108 206.327328 
L 336.11108 206.881442 
L 339.154716 206.881442 
L 339.154716 207.07298 
L 342.198352 207.07298 
L 342.198352 206.773851 
L 348.285625 206.727147 
L 348.285625 207.204715 
L 351.329261 207.204715 
L 351.329261 207.509266 
L 354.372898 207.509266 
L 354.372898 207.314162 
L 357.416534 207.314162 
L 357.416534 207.503141 
L 363.503807 207.594267 
L 363.503807 207.367405 
L 366.547443 207.367405 
L 366.547443 207.367405 
" clip-path="url(#p499dc7a4c7)" style="fill: none; stroke: #1f77b4; stroke-width: 1.5; stroke-linecap: square"/>
   </g>
   <g id="LineCollection_1">
    <path d="M 63.705625 40.142231 
L 63.705625 17.28 
" clip-path="url(#p499dc7a4c7)" style="fill: none; stroke: #1f77b4; stroke-width: 1.5"/>
    <path d="M 66.749261 65.853631 
L 66.749261 44.231191 
" clip-path="url(#p499dc7a4c7)" style="fill: none; stroke: #1f77b4; stroke-width: 1.5"/>
    <path d="M 69.792898 58.001824 
L 69.792898 35.205359 
" clip-path="url(#p499dc7a4c7)" style="fill: none; stroke: #1f77b4; stroke-width: 1.5"/>
    <path d="M 72.836534 48.121805 
L 72.836534 24.008983 
" clip-path="url(#p499dc7a4c7)" style="fill: none; stroke: #1f77b4; stroke-width: 1.5"/>
    <path d="M 75.88017 99.755512 
L 75.88017 79.238635 
" clip-path="url(#p499dc7a4c7)" style="fill: none; stroke: #1f77b4; stroke-width: 1.5"/>
    <path d="M 78.923807 92.492449 
L 78.923807 70.730072 
" clip-path="url(#p499dc7a4c7)" style="fill: none; stroke: #1f77b4; stroke-width: 1.5"/>
    <path d="M 81.967443 120.87403 
L 81.967443 101.345389 
" clip-path="url(#p499dc7a4c7)" style="fill: none; stroke: #1f77b4; stroke-width: 1.5"/>
    <path d="M 85.01108 76.410917 
L 85.01108 52.067489 
" clip-path="url(#p499dc7a4c7)" style="fill: none; stroke: #1f77b4; stroke-width: 1.5"/>
    <path d="M 88.054716 98.944721 
L 88.054716 76.051926 
" clip-path="url(#p499dc7a4c7)" style="fill: none; stroke: #1f77b4; stroke-width: 1.5"/>
    <path d="M 91.098352 111.21435 
L 91.098352 89.049597 
" clip-path="url(#p499dc7a4c7)" style="fill: none; stroke: #1f77b4; stroke-width: 1.5"/>
    <path d="M 94.141989 108.217049 
L 94.141989 85.080426 
" clip-path="url(#p499dc7a4c7)" style="fill: none; stroke: #1f77b4; stroke-width: 1.5"/>
    <path d="M 97.185625 120.568523 
L 97.185625 98.248709 
" clip-path="url(#p499dc7a4c7)" style="fill: none; stroke: #1f77b4; stroke-width: 1.5"/>
    <path d="M 100.229261 107.17516 
L 100.229261 82.645475 
" clip-path="url(#p499dc7a4c7)" style="fill: none; stroke: #1f77b4; stroke-width: 1.5"/>
    <path d="M 103.272898 143.070258 
L 103.272898 122.562326 
" clip-path="url(#p499dc7a4c7)" style="fill: none; stroke: #1f77b4; stroke-width: 1.5"/>
    <path d="M 106.316534 151.257185 
L 106.316534 131.440802 
" clip-path="url(#p499dc7a4c7)" style="fill: none; stroke: #1f77b4; stroke-width: 1.5"/>
    <path d="M 109.36017 142.955245 
L 109.36017 121.274553 
" clip-path="url(#p499dc7a4c7)" style="fill: none; stroke: #1f77b4; stroke-width: 1.5"/>
    <path d="M 112.403807 122.856565 
L 112.403807 97.674124 
" clip-path="url(#p499dc7a4c7)" style="fill: none; stroke: #1f77b4; stroke-width: 1.5"/>
    <path d="M 115.447443 152.230374 
L 115.447443 130.896698 
" clip-path="url(#p499dc7a4c7)" style="fill: none; stroke: #1f77b4; stroke-width: 1.5"/>
    <path d="M 118.49108 146.641939 
L 118.49108 123.701276 
" clip-path="url(#p499dc7a4c7)" style="fill: none; stroke: #1f77b4; stroke-width: 1.5"/>
    <path d="M 121.534716 153.593974 
L 121.534716 131.306919 
" clip-path="url(#p499dc7a4c7)" style="fill: none; stroke: #1f77b4; stroke-width: 1.5"/>
    <path d="M 124.578352 158.711288 
L 124.578352 136.765649 
" clip-path="url(#p499dc7a4c7)" style="fill: none; stroke: #1f77b4; stroke-width: 1.5"/>
    <path d="M 127.621989 161.185264 
L 127.621989 139.203064 
" clip-path="url(#p499dc7a4c7)" style="fill: none; stroke: #1f77b4; stroke-width: 1.5"/>
    <path d="M 130.665625 159.818597 
L 130.665625 136.941149 
" clip-path="url(#p499dc7a4c7)" style="fill: none; stroke: #1f77b4; stroke-width: 1.5"/>
    <path d="M 133.709261 166.622218 
L 133.709261 144.569724 
" clip-path="url(#p499dc7a4c7)" style="fill: none; stroke: #1f77b4; stroke-width: 1.5"/>
    <path d="M 136.752898 173.342862 
L 136.752898 152.3346 
" clip-path="url(#p499dc7a4c7)" style="fill: none; stroke: #1f77b4; stroke-width: 1.5"/>
    <path d="M 139.796534 167.8651 
L 139.796534 144.850054 
" clip-path="url(#p499dc7a4c7)" style="fill: none; stroke: #1f77b4; stroke-width: 1.5"/>
    <path d="M 142.84017 173.510735 
L 142.84017 151.380234 
" clip-path="url(#p499dc7a4c7)" style="fill: none; stroke: #1f77b4; stroke-width: 1.5"/>
    <path d="M 145.883807 176.903918 
L 145.883807 155.011129 
" clip-path="url(#p499dc7a4c7)" style="fill: none; stroke: #1f77b4; stroke-width: 1.5"/>
    <path d="M 148.927443 180.041545 
L 148.927443 158.510107 
" clip-path="url(#p499dc7a4c7)" style="fill: none; stroke: #1f77b4; stroke-width: 1.5"/>
    <path d="M 151.97108 186.436012 
L 151.97108 166.514016 
" clip-path="url(#p499dc7a4c7)" style="fill: none; stroke: #1f77b4; stroke-width: 1.5"/>
    <path d="M 155.014716 181.816703 
L 155.014716 159.665968 
" clip-path="url(#p499dc7a4c7)" style="fill: none; stroke: #1f77b4; stroke-width: 1.5"/>
    <path d="M 158.058352 188.166058 
L 158.058352 167.649227 
" clip-path="url(#p499dc7a4c7)" style="fill: none; stroke: #1f77b4; stroke-width: 1.5"/>
    <path d="M 161.101989 190.489212 
L 161.101989 170.303947 
" clip-path="url(#p499dc7a4c7)" style="fill: none; stroke: #1f77b4; stroke-width: 1.5"/>
    <path d="M 164.145625 193.037362 
L 164.145625 173.452899 
" clip-path="url(#p499dc7a4c7)" style="fill: none; stroke: #1f77b4; stroke-width: 1.5"/>
    <path d="M 167.189261 187.995278 
L 167.189261 165.520296 
" clip-path="url(#p499dc7a4c7)" style="fill: none; stroke: #1f77b4; stroke-width: 1.5"/>
    <path d="M 170.232898 190.916294 
L 170.232898 169.085851 
" clip-path="url(#p499dc7a4c7)" style="fill: none; stroke: #1f77b4; stroke-width: 1.5"/>
    <path d="M 173.276534 189.854523 
L 173.276534 166.799414 
" clip-path="url(#p499dc7a4c7)" style="fill: none; stroke: #1f77b4; stroke-width: 1.5"/>
    <path d="M 176.32017 192.965894 
L 176.32017 170.749288 
" clip-path="url(#p499dc7a4c7)" style="fill: none; stroke: #1f77b4; stroke-width: 1.5"/>
    <path d="M 179.363807 195.322214 
L 179.363807 173.710499 
" clip-path="url(#p499dc7a4c7)" style="fill: none; stroke: #1f77b4; stroke-width: 1.5"/>
    <path d="M 182.407443 195.265177 
L 182.407443 172.940232 
" clip-path="url(#p499dc7a4c7)" style="fill: none; stroke: #1f77b4; stroke-width: 1.5"/>
    <path d="M 185.45108 192.518371 
L 185.45108 167.907074 
" clip-path="url(#p499dc7a4c7)" style="fill: none; stroke: #1f77b4; stroke-width: 1.5"/>
    <path d="M 188.494716 192.898814 
L 188.494716 167.618631 
" clip-path="url(#p499dc7a4c7)" style="fill: none; stroke: #1f77b4; stroke-width: 1.5"/>
    <path d="M 191.538352 198.118939 
L 191.538352 175.369145 
" clip-path="url(#p499dc7a4c7)" style="fill: none; stroke: #1f77b4; stroke-width: 1.5"/>
    <path d="M 194.581989 198.313866 
L 194.581989 174.883876 
" clip-path="url(#p499dc7a4c7)" style="fill: none; stroke: #1f77b4; stroke-width: 1.5"/>
    <path d="M 197.625625 201.675636 
L 197.625625 180.123613 
" clip-path="url(#p499dc7a4c7)" style="fill: none; stroke: #1f77b4; stroke-width: 1.5"/>
    <path d="M 200.669261 199.615749 
L 200.669261 175.525875 
" clip-path="url(#p499dc7a4c7)" style="fill: none; stroke: #1f77b4; stroke-width: 1.5"/>
    <path d="M 203.712898 200.157678 
L 203.712898 175.681812 
" clip-path="url(#p499dc7a4c7)" style="fill: none; stroke: #1f77b4; stroke-width: 1.5"/>
    <path d="M 206.756534 204.160481 
L 206.756534 182.612774 
" clip-path="url(#p499dc7a4c7)" style="fill: none; stroke: #1f77b4; stroke-width: 1.5"/>
    <path d="M 209.80017 205.929757 
L 209.80017 185.67259 
" clip-path="url(#p499dc7a4c7)" style="fill: none; stroke: #1f77b4; stroke-width: 1.5"/>
    <path d="M 212.843807 206.963784 
L 212.843807 187.233393 
" clip-path="url(#p499dc7a4c7)" style="fill: none; stroke: #1f77b4; stroke-width: 1.5"/>
    <path d="M 215.887443 207.001197 
L 215.887443 186.564231 
" clip-path="url(#p499dc7a4c7)" style="fill: none; stroke: #1f77b4; stroke-width: 1.5"/>
    <path d="M 218.93108 204.62826 
L 218.93108 179.96637 
" clip-path="url(#p499dc7a4c7)" style="fill: none; stroke: #1f77b4; stroke-width: 1.5"/>
    <path d="M 221.974716 208.210731 
L 221.974716 187.792993 
" clip-path="url(#p499dc7a4c7)" style="fill: none; stroke: #1f77b4; stroke-width: 1.5"/>
    <path d="M 225.018352 207.855042 
L 225.018352 185.82127 
" clip-path="url(#p499dc7a4c7)" style="fill: none; stroke: #1f77b4; stroke-width: 1.5"/>
    <path d="M 228.061989 209.435496 
L 228.061989 189.531797 
" clip-path="url(#p499dc7a4c7)" style="fill: none; stroke: #1f77b4; stroke-width: 1.5"/>
    <path d="M 231.105625 209.225375 
L 231.105625 187.800543 
" clip-path="url(#p499dc7a4c7)" style="fill: none; stroke: #1f77b4; stroke-width: 1.5"/>
    <path d="M 234.149261 209.596132 
L 234.149261 187.82956 
" clip-path="url(#p499dc7a4c7)" style="fill: none; stroke: #1f77b4; stroke-width: 1.5"/>
    <path d="M 237.192898 210.420237 
L 237.192898 189.672824 
" clip-path="url(#p499dc7a4c7)" style="fill: none; stroke: #1f77b4; stroke-width: 1.5"/>
    <path d="M 240.236534 210.250334 
L 240.236534 187.620472 
" clip-path="url(#p499dc7a4c7)" style="fill: none; stroke: #1f77b4; stroke-width: 1.5"/>
    <path d="M 243.28017 210.955909 
L 243.28017 189.05058 
" clip-path="url(#p499dc7a4c7)" style="fill: none; stroke: #1f77b4; stroke-width: 1.5"/>
    <path d="M 246.323807 211.402975 
L 246.323807 189.581369 
" clip-path="url(#p499dc7a4c7)" style="fill: none; stroke: #1f77b4; stroke-width: 1.5"/>
    <path d="M 249.367443 211.590064 
L 249.367443 188.896464 
" clip-path="url(#p499dc7a4c7)" style="fill: none; stroke: #1f77b4; stroke-width: 1.5"/>
    <path d="M 252.41108 211.716054 
L 252.41108 187.876891 
" clip-path="url(#p499dc7a4c7)" style="fill: none; stroke: #1f77b4; stroke-width: 1.5"/>
    <path d="M 255.454716 211.562277 
L 255.454716 185.064764 
" clip-path="url(#p499dc7a4c7)" style="fill: none; stroke: #1f77b4; stroke-width: 1.5"/>
    <path d="M 258.498352 212.893143 
L 258.498352 191.455589 
" clip-path="url(#p499dc7a4c7)" style="fill: none; stroke: #1f77b4; stroke-width: 1.5"/>
    <path d="M 261.541989 213.245611 
L 261.541989 192.209855 
" clip-path="url(#p499dc7a4c7)" style="fill: none; stroke: #1f77b4; stroke-width: 1.5"/>
    <path d="M 264.585625 213.52541 
L 264.585625 191.996441 
" clip-path="url(#p499dc7a4c7)" style="fill: none; stroke: #1f77b4; stroke-width: 1.5"/>
    <path d="M 267.629261 213.764797 
L 267.629261 191.365409 
" clip-path="url(#p499dc7a4c7)" style="fill: none; stroke: #1f77b4; stroke-width: 1.5"/>
    <path d="M 270.672898 214.091206 
L 270.672898 192.169612 
" clip-path="url(#p499dc7a4c7)" style="fill: none; stroke: #1f77b4; stroke-width: 1.5"/>
    <path d="M 273.716534 214.370359 
L 273.716534 191.623732 
" clip-path="url(#p499dc7a4c7)" style="fill: none; stroke: #1f77b4; stroke-width: 1.5"/>
    <path d="M 276.76017 214.502123 
L 276.76017 194.443116 
" clip-path="url(#p499dc7a4c7)" style="fill: none; stroke: #1f77b4; stroke-width: 1.5"/>
    <path d="M 279.803807 214.875816 
L 279.803807 192.492874 
" clip-path="url(#p499dc7a4c7)" style="fill: none; stroke: #1f77b4; stroke-width: 1.5"/>
    <path d="M 282.847443 214.977254 
L 282.847443 194.303824 
" clip-path="url(#p499dc7a4c7)" style="fill: none; stroke: #1f77b4; stroke-width: 1.5"/>
    <path d="M 285.89108 215.563102 
L 285.89108 190.398848 
" clip-path="url(#p499dc7a4c7)" style="fill: none; stroke: #1f77b4; stroke-width: 1.5"/>
    <path d="M 288.934716 215.492088 
L 288.934716 193.875795 
" clip-path="url(#p499dc7a4c7)" style="fill: none; stroke: #1f77b4; stroke-width: 1.5"/>
    <path d="M 291.978352 215.726763 
L 291.978352 193.794373 
" clip-path="url(#p499dc7a4c7)" style="fill: none; stroke: #1f77b4; stroke-width: 1.5"/>
    <path d="M 295.021989 215.436751 
L 295.021989 196.115398 
" clip-path="url(#p499dc7a4c7)" style="fill: none; stroke: #1f77b4; stroke-width: 1.5"/>
    <path d="M 298.065625 216.521686 
L 298.065625 192.011924 
" clip-path="url(#p499dc7a4c7)" style="fill: none; stroke: #1f77b4; stroke-width: 1.5"/>
    <path d="M 301.109261 216.43284 
L 301.109261 193.633758 
" clip-path="url(#p499dc7a4c7)" style="fill: none; stroke: #1f77b4; stroke-width: 1.5"/>
    <path d="M 304.152898 216.029347 
L 304.152898 195.946037 
" clip-path="url(#p499dc7a4c7)" style="fill: none; stroke: #1f77b4; stroke-width: 1.5"/>
    <path d="M 307.196534 216.75556 
L 307.196534 194.008518 
" clip-path="url(#p499dc7a4c7)" style="fill: none; stroke: #1f77b4; stroke-width: 1.5"/>
    <path d="M 310.24017 216.862504 
L 310.24017 194.379252 
" clip-path="url(#p499dc7a4c7)" style="fill: none; stroke: #1f77b4; stroke-width: 1.5"/>
    <path d="M 313.283807 217.436615 
L 313.283807 193.124609 
" clip-path="url(#p499dc7a4c7)" style="fill: none; stroke: #1f77b4; stroke-width: 1.5"/>
    <path d="M 316.327443 216.953324 
L 316.327443 195.255232 
" clip-path="url(#p499dc7a4c7)" style="fill: none; stroke: #1f77b4; stroke-width: 1.5"/>
    <path d="M 319.37108 217.372431 
L 319.37108 194.602482 
" clip-path="url(#p499dc7a4c7)" style="fill: none; stroke: #1f77b4; stroke-width: 1.5"/>
    <path d="M 322.414716 216.921121 
L 322.414716 196.142876 
" clip-path="url(#p499dc7a4c7)" style="fill: none; stroke: #1f77b4; stroke-width: 1.5"/>
    <path d="M 325.458352 217.765966 
L 325.458352 194.495572 
" clip-path="url(#p499dc7a4c7)" style="fill: none; stroke: #1f77b4; stroke-width: 1.5"/>
    <path d="M 328.501989 216.866272 
L 328.501989 196.910881 
" clip-path="url(#p499dc7a4c7)" style="fill: none; stroke: #1f77b4; stroke-width: 1.5"/>
    <path d="M 331.545625 218.085525 
L 331.545625 194.573302 
" clip-path="url(#p499dc7a4c7)" style="fill: none; stroke: #1f77b4; stroke-width: 1.5"/>
    <path d="M 334.589261 218.34789 
L 334.589261 194.306766 
" clip-path="url(#p499dc7a4c7)" style="fill: none; stroke: #1f77b4; stroke-width: 1.5"/>
    <path d="M 337.632898 217.654524 
L 337.632898 196.108361 
" clip-path="url(#p499dc7a4c7)" style="fill: none; stroke: #1f77b4; stroke-width: 1.5"/>
    <path d="M 340.676534 217.513781 
L 340.676534 196.632179 
" clip-path="url(#p499dc7a4c7)" style="fill: none; stroke: #1f77b4; stroke-width: 1.5"/>
    <path d="M 343.72017 218.440414 
L 343.72017 195.107287 
" clip-path="url(#p499dc7a4c7)" style="fill: none; stroke: #1f77b4; stroke-width: 1.5"/>
    <path d="M 346.763807 218.834319 
L 346.763807 194.619974 
" clip-path="url(#p499dc7a4c7)" style="fill: none; stroke: #1f77b4; stroke-width: 1.5"/>
    <path d="M 349.807443 218.004037 
L 349.807443 196.405394 
" clip-path="url(#p499dc7a4c7)" style="fill: none; stroke: #1f77b4; stroke-width: 1.5"/>
    <path d="M 352.85108 217.341283 
L 352.85108 197.677249 
" clip-path="url(#p499dc7a4c7)" style="fill: none; stroke: #1f77b4; stroke-width: 1.5"/>
    <path d="M 355.894716 218.220687 
L 355.894716 196.407636 
" clip-path="url(#p499dc7a4c7)" style="fill: none; stroke: #1f77b4; stroke-width: 1.5"/>
    <path d="M 358.938352 217.866178 
L 358.938352 197.140105 
" clip-path="url(#p499dc7a4c7)" style="fill: none; stroke: #1f77b4; stroke-width: 1.5"/>
    <path d="M 361.981989 217.80223 
L 361.981989 197.386304 
" clip-path="url(#p499dc7a4c7)" style="fill: none; stroke: #1f77b4; stroke-width: 1.5"/>
    <path d="M 365.025625 218.88 
L 365.025625 195.85481 
" clip-path="url(#p499dc7a4c7)" style="fill: none; stroke: #1f77b4; stroke-width: 1.5"/>
   </g>
  </g>
 </g>
 <defs>
  <clipPath id="p499dc7a4c7">
   <rect x="46.965625" y="7.2" width="334.8" height="221.76"/>
  </clipPath>
 </defs>
</svg>
