<?xml version="1.0" encoding="utf-8" standalone="no"?>
<!DOCTYPE svg PUBLIC "-//W3C//DTD SVG 1.1//EN"
  "http://www.w3.org/Graphics/SVG/1.1/DTD/svg11.dtd">
<svg xmlns:xlink="http://www.w3.org/1999/xlink" width="382.603125pt" height="266.51625pt" viewBox="0 0 382.603125 266.51625" xmlns="http://www.w3.org/2000/svg" version="1.1">
 <metadata>
  <rdf:RDF xmlns:dc="http://purl.org/dc/elements/1.1/" xmlns:cc="http://creativecommons.org/ns#" xmlns:rdf="http://www.w3.org/1999/02/22-rdf-syntax-ns#">
   <cc:Work>
    <dc:type rdf:resource="http://purl.org/dc/dcmitype/StillImage"/>
    <dc:date>2025-12-19T10:15:47.066354</dc:date>
    <dc:format>image/svg+xml</dc:format>
    <dc:creator>
     <cc:Agent>
      <dc:title>Matplotlib v3.10.8, https://matplotlib.org/</dc:title>
     </cc:Agent>
    </dc:creator>
   </cc:Work>
  </rdf:RDF>
 </metadata>
 <defs>
  <style type="text/css">*{stroke-linejoin: round; stroke-linecap: butt}</style>
 </defs>
 <g id="figure_1">
  <g id="patch_1">
   <path d="M 0 266.51625 
L 382.603125 266.51625 
L 382.603125 0 
L 0 0 
z
" style="fill: #ffffff"/>
  </g>
  <g id="axes_1">
   <g id="patch_2">
    <path d="M 40.603125 228.96 
L 375.403125 228.96 
L 375.403125 7.2 
L 40.603125 7.2 
z
" style="fill: #ffffff"/>
   </g>
   <g id="matplotlib.axis_1">
    <g id="xtick_1">
     <g id="line2d_1">
      <defs>
       <path id="m47fa1e837c" d="M 0 0 
L 0 3.5 
" style="stroke: #000000; stroke-width: 0.8"/>
      </defs>
      <g>
       <use xlink:href="#m47fa1e837c" x="55.821307" y="228.96" style="stroke: #000000; stroke-width: 0.8"/>
      </g>
     </g>
     <g id="text_1">
      <!-- 0 -->
      <g transform="translate(52.640057 243.558437) scale(0.1 -0.1)">
       <defs>
        <path id="DejaVuSans-30" d="M 2034 4250 
Q 1547 4250 1301 3770 
Q 1056 3291 1056 2328 
Q 1056 1369 1301 889 
Q 1547 409 2034 409 
Q 2525 409 2770 889 
Q 3016 1369 3016 2328 
Q 3016 3291 2770 3770 
Q 2525 4250 2034 4250 
z
M 2034 4750 
Q 2819 4750 3233 4129 
Q 3647 3509 3647 2328 
Q 3647 1150 3233 529 
Q 2819 -91 2034 -91 
Q 1250 -91 836 529 
Q 422 1150 422 2328 
Q 422 3509 836 4129 
Q 1250 4750 2034 4750 
z
" transform="scale(0.015625)"/>
       </defs>
       <use xlink:href="#DejaVuSans-30"/>
      </g>
     </g>
    </g>
    <g id="xtick_2">
     <g id="line2d_2">
      <g>
       <use xlink:href="#m47fa1e837c" x="117.936335" y="228.96" style="stroke: #000000; stroke-width: 0.8"/>
      </g>
     </g>
     <g id="text_2">
      <!-- 10 -->
      <g transform="translate(111.573835 243.558437) scale(0.1 -0.1)">
       <defs>
        <path id="DejaVuSans-31" d="M 794 531 
L 1825 531 
L 1825 4091 
L 703 3866 
L 703 4441 
L 1819 4666 
L 2450 4666 
L 2450 531 
L 3481 531 
L 3481 0 
L 794 0 
L 794 531 
z
" transform="scale(0.015625)"/>
       </defs>
       <use xlink:href="#DejaVuSans-31"/>
       <use xlink:href="#DejaVuSans-30" transform="translate(63.623047 0)"/>
      </g>
     </g>
    </g>
    <g id="xtick_3">
     <g id="line2d_3">
      <g>
       <use xlink:href="#m47fa1e837c" x="180.051362" y="228.96" style="stroke: #000000; stroke-width: 0.8"/>
      </g>
     </g>
     <g id="text_3">
      <!-- 20 -->
      <g transform="translate(173.688862 243.558437) scale(0.1 -0.1)">
       <defs>
        <path id="DejaVuSans-32" d="M 1228 531 
L 3431 531 
L 3431 0 
L 469 0 
L 469 531 
Q 828 903 1448 1529 
Q 2069 2156 2228 2338 
Q 2531 2678 2651 2914 
Q 2772 3150 2772 3378 
Q 2772 3750 2511 3984 
Q 2250 4219 1831 4219 
Q 1534 4219 1204 4116 
Q 875 4013 500 3803 
L 500 4441 
Q 881 4594 1212 4672 
Q 1544 4750 1819 4750 
Q 2544 4750 2975 4387 
Q 3406 4025 3406 3419 
Q 3406 3131 3298 2873 
Q 3191 2616 2906 2266 
Q 2828 2175 2409 1742 
Q 1991 1309 1228 531 
z
" transform="scale(0.015625)"/>
       </defs>
       <use xlink:href="#DejaVuSans-32"/>
       <use xlink:href="#DejaVuSans-30" transform="translate(63.623047 0)"/>
      </g>
     </g>
    </g>
    <g id="xtick_4">
     <g id="line2d_4">
      <g>
       <use xlink:href="#m47fa1e837c" x="242.16639" y="228.96" style="stroke: #000000; stroke-width: 0.8"/>
      </g>
     </g>
     <g id="text_4">
      <!-- 30 -->
      <g transform="translate(235.80389 243.558437) scale(0.1 -0.1)">
       <defs>
        <path id="DejaVuSans-33" d="M 2597 2516 
Q 3050 2419 3304 2112 
Q 3559 1806 3559 1356 
Q 3559 666 3084 287 
Q 2609 -91 1734 -91 
Q 1441 -91 1130 -33 
Q 819 25 488 141 
L 488 750 
Q 750 597 1062 519 
Q 1375 441 1716 441 
Q 2309 441 2620 675 
Q 2931 909 2931 1356 
Q 2931 1769 2642 2001 
Q 2353 2234 1838 2234 
L 1294 2234 
L 1294 2753 
L 1863 2753 
Q 2328 2753 2575 2939 
Q 2822 3125 2822 3475 
Q 2822 3834 2567 4026 
Q 2313 4219 1838 4219 
Q 1578 4219 1281 4162 
Q 984 4106 628 3988 
L 628 4550 
Q 988 4650 1302 4700 
Q 1616 4750 1894 4750 
Q 2613 4750 3031 4423 
Q 3450 4097 3450 3541 
Q 3450 3153 3228 2886 
Q 3006 2619 2597 2516 
z
" transform="scale(0.015625)"/>
       </defs>
       <use xlink:href="#DejaVuSans-33"/>
       <use xlink:href="#DejaVuSans-30" transform="translate(63.623047 0)"/>
      </g>
     </g>
    </g>
    <g id="xtick_5">
     <g id="line2d_5">
      <g>
       <use xlink:href="#m47fa1e837c" x="304.281418" y="228.96" style="stroke: #000000; stroke-width: 0.8"/>
      </g>
     </g>
     <g id="text_5">
      <!-- 40 -->
      <g transform="translate(297.918918 243.558437) scale(0.1 -0.1)">
       <defs>
        <path id="DejaVuSans-34" d="M 2419 4116 
L 825 1625 
L 2419 1625 
L 2419 4116 
z
M 2253 4666 
L 3047 4666 
L 3047 1625 
L 3713 1625 
L 3713 1100 
L 3047 1100 
L 3047 0 
L 2419 0 
L 2419 1100 
L 313 1100 
L 313 1709 
L 2253 4666 
z
" transform="scale(0.015625)"/>
       </defs>
       <use xlink:href="#DejaVuSans-34"/>
       <use xlink:href="#DejaVuSans-30" transform="translate(63.623047 0)"/>
      </g>
     </g>
    </g>
    <g id="xtick_6">
     <g id="line2d_6">
      <g>
       <use xlink:href="#m47fa1e837c" x="366.396446" y="228.96" style="stroke: #000000; stroke-width: 0.8"/>
      </g>
     </g>
     <g id="text_6">
      <!-- 50 -->
      <g transform="translate(360.033946 243.558437) scale(0.1 -0.1)">
       <defs>
        <path id="DejaVuSans-35" d="M 691 4666 
L 3169 4666 
L 3169 4134 
L 1269 4134 
L 1269 2991 
Q 1406 3038 1543 3061 
Q 1681 3084 1819 3084 
Q 2600 3084 3056 2656 
Q 3513 2228 3513 1497 
Q 3513 744 3044 326 
Q 2575 -91 1722 -91 
Q 1428 -91 1123 -41 
Q 819 9 494 109 
L 494 744 
Q 775 591 1075 516 
Q 1375 441 1709 441 
Q 2250 441 2565 725 
Q 2881 1009 2881 1497 
Q 2881 1984 2565 2268 
Q 2250 2553 1709 2553 
Q 1456 2553 1204 2497 
Q 953 2441 691 2322 
L 691 4666 
z
" transform="scale(0.015625)"/>
       </defs>
       <use xlink:href="#DejaVuSans-35"/>
       <use xlink:href="#DejaVuSans-30" transform="translate(63.623047 0)"/>
      </g>
     </g>
    </g>
    <g id="text_7">
     <!-- row -->
     <g transform="translate(198.911719 257.236562) scale(0.1 -0.1)">
      <defs>
       <path id="DejaVuSans-72" d="M 2631 2963 
Q 2534 3019 2420 3045 
Q 2306 3072 2169 3072 
Q 1681 3072 1420 2755 
Q 1159 2438 1159 1844 
L 1159 0 
L 581 0 
L 581 3500 
L 1159 3500 
L 1159 2956 
Q 1341 3275 1631 3429 
Q 1922 3584 2338 3584 
Q 2397 3584 2469 3576 
Q 2541 3569 2628 3553 
L 2631 2963 
z
" transform="scale(0.015625)"/>
       <path id="DejaVuSans-6f" d="M 1959 3097 
Q 1497 3097 1228 2736 
Q 959 2375 959 1747 
Q 959 1119 1226 758 
Q 1494 397 1959 397 
Q 2419 397 2687 759 
Q 2956 1122 2956 1747 
Q 2956 2369 2687 2733 
Q 2419 3097 1959 3097 
z
M 1959 3584 
Q 2709 3584 3137 3096 
Q 3566 2609 3566 1747 
Q 3566 888 3137 398 
Q 2709 -91 1959 -91 
Q 1206 -91 779 398 
Q 353 888 353 1747 
Q 353 2609 779 3096 
Q 1206 3584 1959 3584 
z
" transform="scale(0.015625)"/>
       <path id="DejaVuSans-77" d="M 269 3500 
L 844 3500 
L 1563 769 
L 2278 3500 
L 2956 3500 
L 3675 769 
L 4391 3500 
L 4966 3500 
L 4050 0 
L 3372 0 
L 2619 2869 
L 1863 0 
L 1184 0 
L 269 3500 
z
" transform="scale(0.015625)"/>
      </defs>
      <use xlink:href="#DejaVuSans-72"/>
      <use xlink:href="#DejaVuSans-6f" transform="translate(38.863281 0)"/>
      <use xlink:href="#DejaVuSans-77" transform="translate(100.044922 0)"/>
     </g>
    </g>
   </g>
   <g id="matplotlib.axis_2">
    <g id="ytick_1">
     <g id="line2d_7">
      <defs>
       <path id="m8a4a05c67e" d="M 0 0 
L -3.5 0 
" style="stroke: #000000; stroke-width: 0.8"/>
      </defs>
      <g>
       <use xlink:href="#m8a4a05c67e" x="40.603125" y="215.093848" style="stroke: #000000; stroke-width: 0.8"/>
      </g>
     </g>
     <g id="text_8">
      <!-- 0 -->
      <g transform="translate(27.240625 218.893067) scale(0.1 -0.1)">
       <use xlink:href="#DejaVuSans-30"/>
      </g>
     </g>
    </g>
    <g id="ytick_2">
     <g id="line2d_8">
      <g>
       <use xlink:href="#m8a4a05c67e" x="40.603125" y="184.738534" style="stroke: #000000; stroke-width: 0.8"/>
      </g>
     </g>
     <g id="text_9">
      <!-- 2 -->
      <g transform="translate(27.240625 188.537753) scale(0.1 -0.1)">
       <use xlink:href="#DejaVuSans-32"/>
      </g>
     </g>
    </g>
    <g id="ytick_3">
     <g id="line2d_9">
      <g>
       <use xlink:href="#m8a4a05c67e" x="40.603125" y="154.383221" style="stroke: #000000; stroke-width: 0.8"/>
      </g>
     </g>
     <g id="text_10">
      <!-- 4 -->
      <g transform="translate(27.240625 158.182439) scale(0.1 -0.1)">
       <use xlink:href="#DejaVuSans-34"/>
      </g>
     </g>
    </g>
    <g id="ytick_4">
     <g id="line2d_10">
      <g>
       <use xlink:href="#m8a4a05c67e" x="40.603125" y="124.027907" style="stroke: #000000; stroke-width: 0.8"/>
      </g>
     </g>
     <g id="text_11">
      <!-- 6 -->
      <g transform="translate(27.240625 127.827126) scale(0.1 -0.1)">
       <defs>
        <path id="DejaVuSans-36" d="M 2113 2584 
Q 1688 2584 1439 2293 
Q 1191 2003 1191 1497 
Q 1191 994 1439 701 
Q 1688 409 2113 409 
Q 2538 409 2786 701 
Q 3034 994 3034 1497 
Q 3034 2003 2786 2293 
Q 2538 2584 2113 2584 
z
M 3366 4563 
L 3366 3988 
Q 3128 4100 2886 4159 
Q 2644 4219 2406 4219 
Q 1781 4219 1451 3797 
Q 1122 3375 1075 2522 
Q 1259 2794 1537 2939 
Q 1816 3084 2150 3084 
Q 2853 3084 3261 2657 
Q 3669 2231 3669 1497 
Q 3669 778 3244 343 
Q 2819 -91 2113 -91 
Q 1303 -91 875 529 
Q 447 1150 447 2328 
Q 447 3434 972 4092 
Q 1497 4750 2381 4750 
Q 2619 4750 2861 4703 
Q 3103 4656 3366 4563 
z
" transform="scale(0.015625)"/>
       </defs>
       <use xlink:href="#DejaVuSans-36"/>
      </g>
     </g>
    </g>
    <g id="ytick_5">
     <g id="line2d_11">
      <g>
       <use xlink:href="#m8a4a05c67e" x="40.603125" y="93.672593" style="stroke: #000000; stroke-width: 0.8"/>
      </g>
     </g>
     <g id="text_12">
      <!-- 8 -->
      <g transform="translate(27.240625 97.471812) scale(0.1 -0.1)">
       <defs>
        <path id="DejaVuSans-38" d="M 2034 2216 
Q 1584 2216 1326 1975 
Q 1069 1734 1069 1313 
Q 1069 891 1326 650 
Q 1584 409 2034 409 
Q 2484 409 2743 651 
Q 3003 894 3003 1313 
Q 3003 1734 2745 1975 
Q 2488 2216 2034 2216 
z
M 1403 2484 
Q 997 2584 770 2862 
Q 544 3141 544 3541 
Q 544 4100 942 4425 
Q 1341 4750 2034 4750 
Q 2731 4750 3128 4425 
Q 3525 4100 3525 3541 
Q 3525 3141 3298 2862 
Q 3072 2584 2669 2484 
Q 3125 2378 3379 2068 
Q 3634 1759 3634 1313 
Q 3634 634 3220 271 
Q 2806 -91 2034 -91 
Q 1263 -91 848 271 
Q 434 634 434 1313 
Q 434 1759 690 2068 
Q 947 2378 1403 2484 
z
M 1172 3481 
Q 1172 3119 1398 2916 
Q 1625 2713 2034 2713 
Q 2441 2713 2670 2916 
Q 2900 3119 2900 3481 
Q 2900 3844 2670 4047 
Q 2441 4250 2034 4250 
Q 1625 4250 1398 4047 
Q 1172 3844 1172 3481 
z
" transform="scale(0.015625)"/>
       </defs>
       <use xlink:href="#DejaVuSans-38"/>
      </g>
     </g>
    </g>
    <g id="ytick_6">
     <g id="line2d_12">
      <g>
       <use xlink:href="#m8a4a05c67e" x="40.603125" y="63.31728" style="stroke: #000000; stroke-width: 0.8"/>
      </g>
     </g>
     <g id="text_13">
      <!-- 10 -->
      <g transform="translate(20.878125 67.116498) scale(0.1 -0.1)">
       <use xlink:href="#DejaVuSans-31"/>
       <use xlink:href="#DejaVuSans-30" transform="translate(63.623047 0)"/>
      </g>
     </g>
    </g>
    <g id="ytick_7">
     <g id="line2d_13">
      <g>
       <use xlink:href="#m8a4a05c67e" x="40.603125" y="32.961966" style="stroke: #000000; stroke-width: 0.8"/>
      </g>
     </g>
     <g id="text_14">
      <!-- 12 -->
      <g transform="translate(20.878125 36.761185) scale(0.1 -0.1)">
       <use xlink:href="#DejaVuSans-31"/>
       <use xlink:href="#DejaVuSans-32" transform="translate(63.623047 0)"/>
      </g>
     </g>
    </g>
    <g id="text_15">
     <!-- [counts] -->
     <g transform="translate(14.798438 138.6925) rotate(-90) scale(0.1 -0.1)">
      <defs>
       <path id="DejaVuSans-5b" d="M 550 4863 
L 1875 4863 
L 1875 4416 
L 1125 4416 
L 1125 -397 
L 1875 -397 
L 1875 -844 
L 550 -844 
L 550 4863 
z
" transform="scale(0.015625)"/>
       <path id="DejaVuSans-63" d="M 3122 3366 
L 3122 2828 
Q 2878 2963 2633 3030 
Q 2388 3097 2138 3097 
Q 1578 3097 1268 2742 
Q 959 2388 959 1747 
Q 959 1106 1268 751 
Q 1578 397 2138 397 
Q 2388 397 2633 464 
Q 2878 531 3122 666 
L 3122 134 
Q 2881 22 2623 -34 
Q 2366 -91 2075 -91 
Q 1284 -91 818 406 
Q 353 903 353 1747 
Q 353 2603 823 3093 
Q 1294 3584 2113 3584 
Q 2378 3584 2631 3529 
Q 2884 3475 3122 3366 
z
" transform="scale(0.015625)"/>
       <path id="DejaVuSans-75" d="M 544 1381 
L 544 3500 
L 1119 3500 
L 1119 1403 
Q 1119 906 1312 657 
Q 1506 409 1894 409 
Q 2359 409 2629 706 
Q 2900 1003 2900 1516 
L 2900 3500 
L 3475 3500 
L 3475 0 
L 2900 0 
L 2900 538 
Q 2691 219 2414 64 
Q 2138 -91 1772 -91 
Q 1169 -91 856 284 
Q 544 659 544 1381 
z
M 1991 3584 
L 1991 3584 
z
" transform="scale(0.015625)"/>
       <path id="DejaVuSans-6e" d="M 3513 2113 
L 3513 0 
L 2938 0 
L 2938 2094 
Q 2938 2591 2744 2837 
Q 2550 3084 2163 3084 
Q 1697 3084 1428 2787 
Q 1159 2491 1159 1978 
L 1159 0 
L 581 0 
L 581 3500 
L 1159 3500 
L 1159 2956 
Q 1366 3272 1645 3428 
Q 1925 3584 2291 3584 
Q 2894 3584 3203 3211 
Q 3513 2838 3513 2113 
z
" transform="scale(0.015625)"/>
       <path id="DejaVuSans-74" d="M 1172 4494 
L 1172 3500 
L 2356 3500 
L 2356 3053 
L 1172 3053 
L 1172 1153 
Q 1172 725 1289 603 
Q 1406 481 1766 481 
L 2356 481 
L 2356 0 
L 1766 0 
Q 1100 0 847 248 
Q 594 497 594 1153 
L 594 3053 
L 172 3053 
L 172 3500 
L 594 3500 
L 594 4494 
L 1172 4494 
z
" transform="scale(0.015625)"/>
       <path id="DejaVuSans-73" d="M 2834 3397 
L 2834 2853 
Q 2591 2978 2328 3040 
Q 2066 3103 1784 3103 
Q 1356 3103 1142 2972 
Q 928 2841 928 2578 
Q 928 2378 1081 2264 
Q 1234 2150 1697 2047 
L 1894 2003 
Q 2506 1872 2764 1633 
Q 3022 1394 3022 966 
Q 3022 478 2636 193 
Q 2250 -91 1575 -91 
Q 1294 -91 989 -36 
Q 684 19 347 128 
L 347 722 
Q 666 556 975 473 
Q 1284 391 1588 391 
Q 1994 391 2212 530 
Q 2431 669 2431 922 
Q 2431 1156 2273 1281 
Q 2116 1406 1581 1522 
L 1381 1569 
Q 847 1681 609 1914 
Q 372 2147 372 2553 
Q 372 3047 722 3315 
Q 1072 3584 1716 3584 
Q 2034 3584 2315 3537 
Q 2597 3491 2834 3397 
z
" transform="scale(0.015625)"/>
       <path id="DejaVuSans-5d" d="M 1947 4863 
L 1947 -844 
L 622 -844 
L 622 -397 
L 1369 -397 
L 1369 4416 
L 622 4416 
L 622 4863 
L 1947 4863 
z
" transform="scale(0.015625)"/>
      </defs>
      <use xlink:href="#DejaVuSans-5b"/>
      <use xlink:href="#DejaVuSans-63" transform="translate(39.013672 0)"/>
      <use xlink:href="#DejaVuSans-6f" transform="translate(93.994141 0)"/>
      <use xlink:href="#DejaVuSans-75" transform="translate(155.175781 0)"/>
      <use xlink:href="#DejaVuSans-6e" transform="translate(218.554688 0)"/>
      <use xlink:href="#DejaVuSans-74" transform="translate(281.933594 0)"/>
      <use xlink:href="#DejaVuSans-73" transform="translate(321.142578 0)"/>
      <use xlink:href="#DejaVuSans-5d" transform="translate(373.242188 0)"/>
     </g>
    </g>
   </g>
   <g id="line2d_14">
    <defs>
     <path id="mba950cfc27" d="M 0 3 
C 0.795609 3 1.55874 2.683901 2.12132 2.12132 
C 2.683901 1.55874 3 0.795609 3 0 
C 3 -0.795609 2.683901 -1.55874 2.12132 -2.12132 
C 1.55874 -2.683901 0.795609 -3 0 -3 
C -0.795609 -3 -1.55874 -2.683901 -2.12132 -2.12132 
C -2.683901 -1.55874 -3 -0.795609 -3 0 
C -3 0.795609 -2.683901 1.55874 -2.12132 2.12132 
C -1.55874 2.683901 -0.795609 3 0 3 
z
" style="stroke: #1f77b4"/>
    </defs>
    <g clip-path="url(#pa3dca298fb)">
     <use xlink:href="#mba950cfc27" x="55.821307" y="151.799679" style="fill: #1f77b4; stroke: #1f77b4"/>
     <use xlink:href="#mba950cfc27" x="62.03281" y="105.765468" style="fill: #1f77b4; stroke: #1f77b4"/>
     <use xlink:href="#mba950cfc27" x="68.244312" y="215.076489" style="fill: #1f77b4; stroke: #1f77b4"/>
     <use xlink:href="#mba950cfc27" x="74.455815" y="169.206848" style="fill: #1f77b4; stroke: #1f77b4"/>
     <use xlink:href="#mba950cfc27" x="80.667318" y="192.819742" style="fill: #1f77b4; stroke: #1f77b4"/>
     <use xlink:href="#mba950cfc27" x="86.878821" y="201.079013" style="fill: #1f77b4; stroke: #1f77b4"/>
     <use xlink:href="#mba950cfc27" x="93.090324" y="186.823912" style="fill: #1f77b4; stroke: #1f77b4"/>
     <use xlink:href="#mba950cfc27" x="99.301826" y="162.645827" style="fill: #1f77b4; stroke: #1f77b4"/>
     <use xlink:href="#mba950cfc27" x="105.513329" y="154.873842" style="fill: #1f77b4; stroke: #1f77b4"/>
     <use xlink:href="#mba950cfc27" x="111.724832" y="133.314093" style="fill: #1f77b4; stroke: #1f77b4"/>
     <use xlink:href="#mba950cfc27" x="117.936335" y="151.469943" style="fill: #1f77b4; stroke: #1f77b4"/>
     <use xlink:href="#mba950cfc27" x="124.147837" y="111.093584" style="fill: #1f77b4; stroke: #1f77b4"/>
     <use xlink:href="#mba950cfc27" x="130.35934" y="184.062787" style="fill: #1f77b4; stroke: #1f77b4"/>
     <use xlink:href="#mba950cfc27" x="136.570843" y="81.816197" style="fill: #1f77b4; stroke: #1f77b4"/>
     <use xlink:href="#mba950cfc27" x="142.782346" y="210.937053" style="fill: #1f77b4; stroke: #1f77b4"/>
     <use xlink:href="#mba950cfc27" x="148.993849" y="113.33259" style="fill: #1f77b4; stroke: #1f77b4"/>
     <use xlink:href="#mba950cfc27" x="155.205351" y="151.756757" style="fill: #1f77b4; stroke: #1f77b4"/>
     <use xlink:href="#mba950cfc27" x="161.416854" y="130.297823" style="fill: #1f77b4; stroke: #1f77b4"/>
     <use xlink:href="#mba950cfc27" x="167.628357" y="193.7864" style="fill: #1f77b4; stroke: #1f77b4"/>
     <use xlink:href="#mba950cfc27" x="173.83986" y="185.026684" style="fill: #1f77b4; stroke: #1f77b4"/>
     <use xlink:href="#mba950cfc27" x="180.051362" y="93.559585" style="fill: #1f77b4; stroke: #1f77b4"/>
     <use xlink:href="#mba950cfc27" x="186.262865" y="68.134429" style="fill: #1f77b4; stroke: #1f77b4"/>
     <use xlink:href="#mba950cfc27" x="192.474368" y="167.523402" style="fill: #1f77b4; stroke: #1f77b4"/>
     <use xlink:href="#mba950cfc27" x="198.685871" y="110.015497" style="fill: #1f77b4; stroke: #1f77b4"/>
     <use xlink:href="#mba950cfc27" x="204.897374" y="82.07851" style="fill: #1f77b4; stroke: #1f77b4"/>
     <use xlink:href="#mba950cfc27" x="211.108876" y="79.313518" style="fill: #1f77b4; stroke: #1f77b4"/>
     <use xlink:href="#mba950cfc27" x="217.320379" y="202.186129" style="fill: #1f77b4; stroke: #1f77b4"/>
     <use xlink:href="#mba950cfc27" x="223.531882" y="209.166247" style="fill: #1f77b4; stroke: #1f77b4"/>
     <use xlink:href="#mba950cfc27" x="229.743385" y="189.31757" style="fill: #1f77b4; stroke: #1f77b4"/>
     <use xlink:href="#mba950cfc27" x="235.954888" y="81.812392" style="fill: #1f77b4; stroke: #1f77b4"/>
     <use xlink:href="#mba950cfc27" x="242.16639" y="200.167103" style="fill: #1f77b4; stroke: #1f77b4"/>
     <use xlink:href="#mba950cfc27" x="248.377893" y="151.179578" style="fill: #1f77b4; stroke: #1f77b4"/>
     <use xlink:href="#mba950cfc27" x="254.589396" y="69.708662" style="fill: #1f77b4; stroke: #1f77b4"/>
     <use xlink:href="#mba950cfc27" x="260.800899" y="134.171851" style="fill: #1f77b4; stroke: #1f77b4"/>
     <use xlink:href="#mba950cfc27" x="267.012401" y="110.083114" style="fill: #1f77b4; stroke: #1f77b4"/>
     <use xlink:href="#mba950cfc27" x="273.223904" y="167.205968" style="fill: #1f77b4; stroke: #1f77b4"/>
     <use xlink:href="#mba950cfc27" x="279.435407" y="110.899093" style="fill: #1f77b4; stroke: #1f77b4"/>
     <use xlink:href="#mba950cfc27" x="285.64691" y="88.417228" style="fill: #1f77b4; stroke: #1f77b4"/>
     <use xlink:href="#mba950cfc27" x="291.858413" y="212.318116" style="fill: #1f77b4; stroke: #1f77b4"/>
     <use xlink:href="#mba950cfc27" x="298.069915" y="101.239518" style="fill: #1f77b4; stroke: #1f77b4"/>
     <use xlink:href="#mba950cfc27" x="304.281418" y="65.007905" style="fill: #1f77b4; stroke: #1f77b4"/>
     <use xlink:href="#mba950cfc27" x="310.492921" y="101.539832" style="fill: #1f77b4; stroke: #1f77b4"/>
     <use xlink:href="#mba950cfc27" x="316.704424" y="172.529021" style="fill: #1f77b4; stroke: #1f77b4"/>
     <use xlink:href="#mba950cfc27" x="322.915926" y="95.29974" style="fill: #1f77b4; stroke: #1f77b4"/>
     <use xlink:href="#mba950cfc27" x="329.127429" y="199.426559" style="fill: #1f77b4; stroke: #1f77b4"/>
     <use xlink:href="#mba950cfc27" x="335.338932" y="147.114106" style="fill: #1f77b4; stroke: #1f77b4"/>
     <use xlink:href="#mba950cfc27" x="341.550435" y="77.19034" style="fill: #1f77b4; stroke: #1f77b4"/>
     <use xlink:href="#mba950cfc27" x="347.761938" y="170.5301" style="fill: #1f77b4; stroke: #1f77b4"/>
     <use xlink:href="#mba950cfc27" x="353.97344" y="171.416295" style="fill: #1f77b4; stroke: #1f77b4"/>
     <use xlink:href="#mba950cfc27" x="360.184943" y="195.358557" style="fill: #1f77b4; stroke: #1f77b4"/>
    </g>
   </g>
   <g id="LineCollection_1">
    <path d="M 55.821307 182.794149 
L 55.821307 120.805209 
" clip-path="url(#pa3dca298fb)" style="fill: none; stroke: #1f77b4; stroke-width: 1.5"/>
    <path d="M 62.03281 146.500571 
L 62.03281 65.030365 
" clip-path="url(#pa3dca298fb)" style="fill: none; stroke: #1f77b4; stroke-width: 1.5"/>
    <path d="M 68.244312 215.589787 
L 68.244312 214.56319 
" clip-path="url(#pa3dca298fb)" style="fill: none; stroke: #1f77b4; stroke-width: 1.5"/>
    <path d="M 74.455815 195.597322 
L 74.455815 142.816373 
" clip-path="url(#pa3dca298fb)" style="fill: none; stroke: #1f77b4; stroke-width: 1.5"/>
    <path d="M 80.667318 211.206388 
L 80.667318 174.433097 
" clip-path="url(#pa3dca298fb)" style="fill: none; stroke: #1f77b4; stroke-width: 1.5"/>
    <path d="M 86.878821 215.663675 
L 86.878821 186.494351 
" clip-path="url(#pa3dca298fb)" style="fill: none; stroke: #1f77b4; stroke-width: 1.5"/>
    <path d="M 93.090324 207.537951 
L 93.090324 166.109874 
" clip-path="url(#pa3dca298fb)" style="fill: none; stroke: #1f77b4; stroke-width: 1.5"/>
    <path d="M 99.301826 190.859973 
L 99.301826 134.43168 
" clip-path="url(#pa3dca298fb)" style="fill: none; stroke: #1f77b4; stroke-width: 1.5"/>
    <path d="M 105.513329 185.106252 
L 105.513329 124.641433 
" clip-path="url(#pa3dca298fb)" style="fill: none; stroke: #1f77b4; stroke-width: 1.5"/>
    <path d="M 111.724832 168.545117 
L 111.724832 98.083069 
" clip-path="url(#pa3dca298fb)" style="fill: none; stroke: #1f77b4; stroke-width: 1.5"/>
    <path d="M 117.936335 182.545042 
L 117.936335 120.394844 
" clip-path="url(#pa3dca298fb)" style="fill: none; stroke: #1f77b4; stroke-width: 1.5"/>
    <path d="M 124.147837 150.823677 
L 124.147837 71.36349 
" clip-path="url(#pa3dca298fb)" style="fill: none; stroke: #1f77b4; stroke-width: 1.5"/>
    <path d="M 130.35934 205.764833 
L 130.35934 162.360741 
" clip-path="url(#pa3dca298fb)" style="fill: none; stroke: #1f77b4; stroke-width: 1.5"/>
    <path d="M 136.570843 126.792218 
L 136.570843 36.840176 
" clip-path="url(#pa3dca298fb)" style="fill: none; stroke: #1f77b4; stroke-width: 1.5"/>
    <path d="M 142.782346 218.88 
L 142.782346 202.994106 
" clip-path="url(#pa3dca298fb)" style="fill: none; stroke: #1f77b4; stroke-width: 1.5"/>
    <path d="M 148.993849 152.632685 
L 148.993849 74.032495 
" clip-path="url(#pa3dca298fb)" style="fill: none; stroke: #1f77b4; stroke-width: 1.5"/>
    <path d="M 155.205351 182.761735 
L 155.205351 120.75178 
" clip-path="url(#pa3dca298fb)" style="fill: none; stroke: #1f77b4; stroke-width: 1.5"/>
    <path d="M 161.416854 166.172674 
L 161.416854 94.422971 
" clip-path="url(#pa3dca298fb)" style="fill: none; stroke: #1f77b4; stroke-width: 1.5"/>
    <path d="M 167.628357 211.769646 
L 167.628357 175.803154 
" clip-path="url(#pa3dca298fb)" style="fill: none; stroke: #1f77b4; stroke-width: 1.5"/>
    <path d="M 173.83986 206.389013 
L 173.83986 163.664355 
" clip-path="url(#pa3dca298fb)" style="fill: none; stroke: #1f77b4; stroke-width: 1.5"/>
    <path d="M 180.051362 136.508454 
L 180.051362 50.610716 
" clip-path="url(#pa3dca298fb)" style="fill: none; stroke: #1f77b4; stroke-width: 1.5"/>
    <path d="M 186.262865 115.362594 
L 186.262865 20.906263 
" clip-path="url(#pa3dca298fb)" style="fill: none; stroke: #1f77b4; stroke-width: 1.5"/>
    <path d="M 192.474368 194.393607 
L 192.474368 140.653197 
" clip-path="url(#pa3dca298fb)" style="fill: none; stroke: #1f77b4; stroke-width: 1.5"/>
    <path d="M 198.685871 149.950984 
L 198.685871 70.08001 
" clip-path="url(#pa3dca298fb)" style="fill: none; stroke: #1f77b4; stroke-width: 1.5"/>
    <path d="M 204.897374 127.010249 
L 204.897374 37.146771 
" clip-path="url(#pa3dca298fb)" style="fill: none; stroke: #1f77b4; stroke-width: 1.5"/>
    <path d="M 211.108876 124.709854 
L 211.108876 33.917183 
" clip-path="url(#pa3dca298fb)" style="fill: none; stroke: #1f77b4; stroke-width: 1.5"/>
    <path d="M 217.320379 216.182876 
L 217.320379 188.189382 
" clip-path="url(#pa3dca298fb)" style="fill: none; stroke: #1f77b4; stroke-width: 1.5"/>
    <path d="M 223.531882 218.651345 
L 223.531882 199.681148 
" clip-path="url(#pa3dca298fb)" style="fill: none; stroke: #1f77b4; stroke-width: 1.5"/>
    <path d="M 229.743385 209.09694 
L 229.743385 169.538199 
" clip-path="url(#pa3dca298fb)" style="fill: none; stroke: #1f77b4; stroke-width: 1.5"/>
    <path d="M 235.954888 126.789055 
L 235.954888 36.835729 
" clip-path="url(#pa3dca298fb)" style="fill: none; stroke: #1f77b4; stroke-width: 1.5"/>
    <path d="M 242.16639 215.218781 
L 242.16639 185.115425 
" clip-path="url(#pa3dca298fb)" style="fill: none; stroke: #1f77b4; stroke-width: 1.5"/>
    <path d="M 248.377893 182.325506 
L 248.377893 120.033649 
" clip-path="url(#pa3dca298fb)" style="fill: none; stroke: #1f77b4; stroke-width: 1.5"/>
    <path d="M 254.589396 116.683192 
L 254.589396 22.734132 
" clip-path="url(#pa3dca298fb)" style="fill: none; stroke: #1f77b4; stroke-width: 1.5"/>
    <path d="M 260.800899 169.217625 
L 260.800899 99.126076 
" clip-path="url(#pa3dca298fb)" style="fill: none; stroke: #1f77b4; stroke-width: 1.5"/>
    <path d="M 267.012401 150.00575 
L 267.012401 70.160478 
" clip-path="url(#pa3dca298fb)" style="fill: none; stroke: #1f77b4; stroke-width: 1.5"/>
    <path d="M 273.223904 194.165675 
L 273.223904 140.246261 
" clip-path="url(#pa3dca298fb)" style="fill: none; stroke: #1f77b4; stroke-width: 1.5"/>
    <path d="M 279.435407 150.666319 
L 279.435407 71.131867 
" clip-path="url(#pa3dca298fb)" style="fill: none; stroke: #1f77b4; stroke-width: 1.5"/>
    <path d="M 285.64691 132.265309 
L 285.64691 44.569146 
" clip-path="url(#pa3dca298fb)" style="fill: none; stroke: #1f77b4; stroke-width: 1.5"/>
    <path d="M 291.858413 218.80881 
L 291.858413 205.827422 
" clip-path="url(#pa3dca298fb)" style="fill: none; stroke: #1f77b4; stroke-width: 1.5"/>
    <path d="M 298.069915 142.809242 
L 298.069915 59.669794 
" clip-path="url(#pa3dca298fb)" style="fill: none; stroke: #1f77b4; stroke-width: 1.5"/>
    <path d="M 304.281418 112.73581 
L 304.281418 17.28 
" clip-path="url(#pa3dca298fb)" style="fill: none; stroke: #1f77b4; stroke-width: 1.5"/>
    <path d="M 310.492921 143.054696 
L 310.492921 60.024969 
" clip-path="url(#pa3dca298fb)" style="fill: none; stroke: #1f77b4; stroke-width: 1.5"/>
    <path d="M 316.704424 197.946227 
L 316.704424 147.111816 
" clip-path="url(#pa3dca298fb)" style="fill: none; stroke: #1f77b4; stroke-width: 1.5"/>
    <path d="M 322.915926 137.940024 
L 322.915926 52.659455 
" clip-path="url(#pa3dca298fb)" style="fill: none; stroke: #1f77b4; stroke-width: 1.5"/>
    <path d="M 329.127429 214.847089 
L 329.127429 184.006029 
" clip-path="url(#pa3dca298fb)" style="fill: none; stroke: #1f77b4; stroke-width: 1.5"/>
    <path d="M 335.338932 179.235332 
L 335.338932 114.992879 
" clip-path="url(#pa3dca298fb)" style="fill: none; stroke: #1f77b4; stroke-width: 1.5"/>
    <path d="M 341.550435 122.940227 
L 341.550435 31.440454 
" clip-path="url(#pa3dca298fb)" style="fill: none; stroke: #1f77b4; stroke-width: 1.5"/>
    <path d="M 347.761938 196.537277 
L 347.761938 144.522923 
" clip-path="url(#pa3dca298fb)" style="fill: none; stroke: #1f77b4; stroke-width: 1.5"/>
    <path d="M 353.97344 197.163584 
L 353.97344 145.669005 
" clip-path="url(#pa3dca298fb)" style="fill: none; stroke: #1f77b4; stroke-width: 1.5"/>
    <path d="M 360.184943 212.66565 
L 360.184943 178.051465 
" clip-path="url(#pa3dca298fb)" style="fill: none; stroke: #1f77b4; stroke-width: 1.5"/>
   </g>
   <g id="patch_3">
    <path d="M 40.603125 228.96 
L 40.603125 7.2 
" style="fill: none; stroke: #000000; stroke-width: 0.8; stroke-linejoin: miter; stroke-linecap: square"/>
   </g>
   <g id="patch_4">
    <path d="M 375.403125 228.96 
L 375.403125 7.2 
" style="fill: none; stroke: #000000; stroke-width: 0.8; stroke-linejoin: miter; stroke-linecap: square"/>
   </g>
   <g id="patch_5">
    <path d="M 40.603125 228.96 
L 375.403125 228.96 
" style="fill: none; stroke: #000000; stroke-width: 0.8; stroke-linejoin: miter; stroke-linecap: square"/>
   </g>
   <g id="patch_6">
    <path d="M 40.603125 7.2 
L 375.403125 7.2 
" style="fill: none; stroke: #000000; stroke-width: 0.8; stroke-linejoin: miter; stroke-linecap: square"/>
   </g>
  </g>
 </g>
 <defs>
  <clipPath id="pa3dca298fb">
   <rect x="40.603125" y="7.2" width="334.8" height="221.76"/>
  </clipPath>
 </defs>
</svg>
