<?xml version="1.0" encoding="UTF-8" standalone="no"?>
<!DOCTYPE svg PUBLIC "-//W3C//DTD SVG 1.1//EN"
 "http://www.w3.org/Graphics/SVG/1.1/DTD/svg11.dtd">
<!-- Generated by graphviz version 2.43.0 (0)
 -->
<!-- Title: %3 Pages: 1 -->
<svg width="96pt" height="141pt"
 viewBox="0.00 0.00 96.00 141.00" xmlns="http://www.w3.org/2000/svg" xmlns:xlink="http://www.w3.org/1999/xlink">
<g id="graph0" class="graph" transform="scale(1 1) rotate(0) translate(4 137)">
<title>%3</title>
<polygon fill="white" stroke="transparent" points="-4,4 -4,-137 92,-137 92,4 -4,4"/>
<!-- Compute (x^2) = x_square(x) -->
<g id="node1" class="node">
<title>Compute (x^2) = x_square(x)</title>
<polygon fill="lightgrey" stroke="transparent" points="88,-74 0,-74 0,-59 88,-59 88,-74"/>
<text text-anchor="middle" x="44" y="-62.8" font-family="Times,serif" font-size="14.00">x_square(...)</text>
</g>
<!-- x^2 -->
<g id="node2" class="node">
<title>x^2</title>
<polygon fill="none" stroke="black" points="71,-23 17,-23 17,0 71,0 71,-23"/>
<text text-anchor="middle" x="44" y="-7.8" font-family="Times,serif" font-size="14.00">x^2</text>
</g>
<!-- Compute (x^2) = x_square(x)&#45;&gt;x^2 -->
<g id="edge1" class="edge">
<title>Compute (x^2) = x_square(x)&#45;&gt;x^2</title>
<path fill="none" stroke="black" d="M44,-58.57C44,-52.19 44,-42.38 44,-33.45"/>
<polygon fill="black" stroke="black" points="47.5,-33.29 44,-23.29 40.5,-33.29 47.5,-33.29"/>
</g>
<!-- x -->
<g id="node3" class="node">
<title>x</title>
<polygon fill="none" stroke="black" points="71,-133 17,-133 17,-110 71,-110 71,-133"/>
<text text-anchor="middle" x="44" y="-117.8" font-family="Times,serif" font-size="14.00">x</text>
</g>
<!-- x&#45;&gt;Compute (x^2) = x_square(x) -->
<g id="edge2" class="edge">
<title>x&#45;&gt;Compute (x^2) = x_square(x)</title>
<path fill="none" stroke="black" d="M44,-109.77C44,-102.45 44,-92.61 44,-84.26"/>
<polygon fill="black" stroke="black" points="47.5,-84.19 44,-74.19 40.5,-84.19 47.5,-84.19"/>
</g>
</g>
</svg>
