<?xml version="1.0" encoding="UTF-8" standalone="no"?>
<!DOCTYPE svg PUBLIC "-//W3C//DTD SVG 1.1//EN"
 "http://www.w3.org/Graphics/SVG/1.1/DTD/svg11.dtd">
<!-- Generated by graphviz version 2.43.0 (0)
 -->
<!-- Title: %3 Pages: 1 -->
<svg width="280pt" height="361pt"
 viewBox="0.00 0.00 280.00 361.00" xmlns="http://www.w3.org/2000/svg" xmlns:xlink="http://www.w3.org/1999/xlink">
<g id="graph0" class="graph" transform="scale(1 1) rotate(0) translate(4 357)">
<title>%3</title>
<polygon fill="white" stroke="transparent" points="-4,4 -4,-357 276,-357 276,4 -4,4"/>
<!-- Compute (longitude, latitude) = lat_long(location) -->
<g id="node1" class="node">
<title>Compute (longitude, latitude) = lat_long(location)</title>
<polygon fill="lightgrey" stroke="transparent" points="228.5,-294 147.5,-294 147.5,-279 228.5,-279 228.5,-294"/>
<text text-anchor="middle" x="188" y="-282.8" font-family="Times,serif" font-size="14.00">lat_long(...)</text>
</g>
<!-- longitude -->
<g id="node2" class="node">
<title>longitude</title>
<polygon fill="none" stroke="black" points="182,-243 98,-243 98,-220 182,-220 182,-243"/>
<text text-anchor="middle" x="140" y="-227.8" font-family="Times,serif" font-size="14.00">longitude</text>
</g>
<!-- Compute (longitude, latitude) = lat_long(location)&#45;&gt;longitude -->
<g id="edge1" class="edge">
<title>Compute (longitude, latitude) = lat_long(location)&#45;&gt;longitude</title>
<path fill="none" stroke="black" d="M181.72,-278.57C175.37,-271.56 165.27,-260.41 156.61,-250.83"/>
<polygon fill="black" stroke="black" points="159.08,-248.35 149.77,-243.29 153.89,-253.05 159.08,-248.35"/>
</g>
<!-- latitude -->
<g id="node4" class="node">
<title>latitude</title>
<polygon fill="none" stroke="black" points="272,-243 200,-243 200,-220 272,-220 272,-243"/>
<text text-anchor="middle" x="236" y="-227.8" font-family="Times,serif" font-size="14.00">latitude</text>
</g>
<!-- Compute (longitude, latitude) = lat_long(location)&#45;&gt;latitude -->
<g id="edge3" class="edge">
<title>Compute (longitude, latitude) = lat_long(location)&#45;&gt;latitude</title>
<path fill="none" stroke="black" d="M194.28,-278.57C200.63,-271.56 210.73,-260.41 219.39,-250.83"/>
<polygon fill="black" stroke="black" points="222.11,-253.05 226.23,-243.29 216.92,-248.35 222.11,-253.05"/>
</g>
<!-- Compute (local_datetime) = local_datetime(datetime, longitude) -->
<g id="node8" class="node">
<title>Compute (local_datetime) = local_datetime(datetime, longitude)</title>
<polygon fill="lightgrey" stroke="transparent" points="154,-184 26,-184 26,-169 154,-169 154,-184"/>
<text text-anchor="middle" x="90" y="-172.8" font-family="Times,serif" font-size="14.00">local_datetime(...)</text>
</g>
<!-- longitude&#45;&gt;Compute (local_datetime) = local_datetime(datetime, longitude) -->
<g id="edge8" class="edge">
<title>longitude&#45;&gt;Compute (local_datetime) = local_datetime(datetime, longitude)</title>
<path fill="none" stroke="black" d="M129.88,-219.77C122.19,-211.62 111.55,-200.34 103.19,-191.48"/>
<polygon fill="black" stroke="black" points="105.72,-189.06 96.31,-184.19 100.62,-193.86 105.72,-189.06"/>
</g>
<!-- location -->
<g id="node3" class="node">
<title>location</title>
<polygon fill="none" stroke="black" points="224.5,-353 151.5,-353 151.5,-330 224.5,-330 224.5,-353"/>
<text text-anchor="middle" x="188" y="-337.8" font-family="Times,serif" font-size="14.00">location</text>
</g>
<!-- location&#45;&gt;Compute (longitude, latitude) = lat_long(location) -->
<g id="edge2" class="edge">
<title>location&#45;&gt;Compute (longitude, latitude) = lat_long(location)</title>
<path fill="none" stroke="black" d="M188,-329.77C188,-322.45 188,-312.61 188,-304.26"/>
<polygon fill="black" stroke="black" points="191.5,-304.19 188,-294.19 184.5,-304.19 191.5,-304.19"/>
</g>
<!-- Compute (local_time) = time(local_datetime) -->
<g id="node5" class="node">
<title>Compute (local_time) = time(local_datetime)</title>
<polygon fill="lightgrey" stroke="transparent" points="118.5,-74 61.5,-74 61.5,-59 118.5,-59 118.5,-74"/>
<text text-anchor="middle" x="90" y="-62.8" font-family="Times,serif" font-size="14.00">time(...)</text>
</g>
<!-- local_time -->
<g id="node6" class="node">
<title>local_time</title>
<polygon fill="none" stroke="black" points="134.5,-23 45.5,-23 45.5,0 134.5,0 134.5,-23"/>
<text text-anchor="middle" x="90" y="-7.8" font-family="Times,serif" font-size="14.00">local_time</text>
</g>
<!-- Compute (local_time) = time(local_datetime)&#45;&gt;local_time -->
<g id="edge4" class="edge">
<title>Compute (local_time) = time(local_datetime)&#45;&gt;local_time</title>
<path fill="none" stroke="black" d="M90,-58.57C90,-52.19 90,-42.38 90,-33.45"/>
<polygon fill="black" stroke="black" points="93.5,-33.29 90,-23.29 86.5,-33.29 93.5,-33.29"/>
</g>
<!-- local_datetime -->
<g id="node7" class="node">
<title>local_datetime</title>
<polygon fill="none" stroke="black" points="150,-133 30,-133 30,-110 150,-110 150,-133"/>
<text text-anchor="middle" x="90" y="-117.8" font-family="Times,serif" font-size="14.00">local_datetime</text>
</g>
<!-- local_datetime&#45;&gt;Compute (local_time) = time(local_datetime) -->
<g id="edge5" class="edge">
<title>local_datetime&#45;&gt;Compute (local_time) = time(local_datetime)</title>
<path fill="none" stroke="black" d="M90,-109.77C90,-102.45 90,-92.61 90,-84.26"/>
<polygon fill="black" stroke="black" points="93.5,-84.19 90,-74.19 86.5,-84.19 93.5,-84.19"/>
</g>
<!-- Compute (local_datetime) = local_datetime(datetime, longitude)&#45;&gt;local_datetime -->
<g id="edge6" class="edge">
<title>Compute (local_datetime) = local_datetime(datetime, longitude)&#45;&gt;local_datetime</title>
<path fill="none" stroke="black" d="M90,-168.57C90,-162.19 90,-152.38 90,-143.45"/>
<polygon fill="black" stroke="black" points="93.5,-143.29 90,-133.29 86.5,-143.29 93.5,-143.29"/>
</g>
<!-- datetime -->
<g id="node9" class="node">
<title>datetime</title>
<polygon fill="none" stroke="black" points="80,-243 0,-243 0,-220 80,-220 80,-243"/>
<text text-anchor="middle" x="40" y="-227.8" font-family="Times,serif" font-size="14.00">datetime</text>
</g>
<!-- datetime&#45;&gt;Compute (local_datetime) = local_datetime(datetime, longitude) -->
<g id="edge7" class="edge">
<title>datetime&#45;&gt;Compute (local_datetime) = local_datetime(datetime, longitude)</title>
<path fill="none" stroke="black" d="M50.12,-219.77C57.81,-211.62 68.45,-200.34 76.81,-191.48"/>
<polygon fill="black" stroke="black" points="79.38,-193.86 83.69,-184.19 74.28,-189.06 79.38,-193.86"/>
</g>
</g>
</svg>
