<?xml version="1.0" encoding="utf-8" standalone="no"?>
<!DOCTYPE svg PUBLIC "-//W3C//DTD SVG 1.1//EN"
  "http://www.w3.org/Graphics/SVG/1.1/DTD/svg11.dtd">
<svg xmlns:xlink="http://www.w3.org/1999/xlink" width="280.892201pt" height="208.173125pt" viewBox="0 0 280.892201 208.173125" xmlns="http://www.w3.org/2000/svg" version="1.1">
 <metadata>
  <rdf:RDF xmlns:dc="http://purl.org/dc/elements/1.1/" xmlns:cc="http://creativecommons.org/ns#" xmlns:rdf="http://www.w3.org/1999/02/22-rdf-syntax-ns#">
   <cc:Work>
    <dc:type rdf:resource="http://purl.org/dc/dcmitype/StillImage"/>
    <dc:date>2024-09-12T08:22:34.088903</dc:date>
    <dc:format>image/svg+xml</dc:format>
    <dc:creator>
     <cc:Agent>
      <dc:title>Matplotlib v3.9.1, https://matplotlib.org/</dc:title>
     </cc:Agent>
    </dc:creator>
   </cc:Work>
  </rdf:RDF>
 </metadata>
 <defs>
  <style type="text/css">*{stroke-linejoin: round; stroke-linecap: butt}</style>
 </defs>
 <g id="figure_1">
  <g id="patch_1">
   <path d="M 0 208.173125 
L 280.892201 208.173125 
L 280.892201 0 
L 0 0 
z
" style="fill: #ffffff"/>
  </g>
  <g id="axes_1">
   <g id="patch_2">
    <path d="M 53.328125 170.33875 
L 272.581069 170.33875 
L 272.581069 7.2 
L 53.328125 7.2 
z
" style="fill: #ffffff"/>
   </g>
   <g id="matplotlib.axis_1">
    <g id="xtick_1">
     <g id="line2d_1">
      <defs>
       <path id="m3f905834f6" d="M 0 0 
L 0 3.5 
" style="stroke: #000000; stroke-width: 0.8"/>
      </defs>
      <g>
       <use xlink:href="#m3f905834f6" x="63.228255" y="170.33875" style="stroke: #000000; stroke-width: 0.8"/>
      </g>
     </g>
     <g id="text_1">
      <!-- 0 -->
      <g transform="translate(60.047005 184.937187) scale(0.1 -0.1)">
       <defs>
        <path id="DejaVuSans-30" d="M 2034 4250 
Q 1547 4250 1301 3770 
Q 1056 3291 1056 2328 
Q 1056 1369 1301 889 
Q 1547 409 2034 409 
Q 2525 409 2770 889 
Q 3016 1369 3016 2328 
Q 3016 3291 2770 3770 
Q 2525 4250 2034 4250 
z
M 2034 4750 
Q 2819 4750 3233 4129 
Q 3647 3509 3647 2328 
Q 3647 1150 3233 529 
Q 2819 -91 2034 -91 
Q 1250 -91 836 529 
Q 422 1150 422 2328 
Q 422 3509 836 4129 
Q 1250 4750 2034 4750 
z
" transform="scale(0.015625)"/>
       </defs>
       <use xlink:href="#DejaVuSans-30"/>
      </g>
     </g>
    </g>
    <g id="xtick_2">
     <g id="line2d_2">
      <g>
       <use xlink:href="#m3f905834f6" x="96.184746" y="170.33875" style="stroke: #000000; stroke-width: 0.8"/>
      </g>
     </g>
     <g id="text_2">
      <!-- 500 -->
      <g transform="translate(86.640996 184.937187) scale(0.1 -0.1)">
       <defs>
        <path id="DejaVuSans-35" d="M 691 4666 
L 3169 4666 
L 3169 4134 
L 1269 4134 
L 1269 2991 
Q 1406 3038 1543 3061 
Q 1681 3084 1819 3084 
Q 2600 3084 3056 2656 
Q 3513 2228 3513 1497 
Q 3513 744 3044 326 
Q 2575 -91 1722 -91 
Q 1428 -91 1123 -41 
Q 819 9 494 109 
L 494 744 
Q 775 591 1075 516 
Q 1375 441 1709 441 
Q 2250 441 2565 725 
Q 2881 1009 2881 1497 
Q 2881 1984 2565 2268 
Q 2250 2553 1709 2553 
Q 1456 2553 1204 2497 
Q 953 2441 691 2322 
L 691 4666 
z
" transform="scale(0.015625)"/>
       </defs>
       <use xlink:href="#DejaVuSans-35"/>
       <use xlink:href="#DejaVuSans-30" x="63.623047"/>
       <use xlink:href="#DejaVuSans-30" x="127.246094"/>
      </g>
     </g>
    </g>
    <g id="xtick_3">
     <g id="line2d_3">
      <g>
       <use xlink:href="#m3f905834f6" x="129.141237" y="170.33875" style="stroke: #000000; stroke-width: 0.8"/>
      </g>
     </g>
     <g id="text_3">
      <!-- 1000 -->
      <g transform="translate(116.416237 184.937187) scale(0.1 -0.1)">
       <defs>
        <path id="DejaVuSans-31" d="M 794 531 
L 1825 531 
L 1825 4091 
L 703 3866 
L 703 4441 
L 1819 4666 
L 2450 4666 
L 2450 531 
L 3481 531 
L 3481 0 
L 794 0 
L 794 531 
z
" transform="scale(0.015625)"/>
       </defs>
       <use xlink:href="#DejaVuSans-31"/>
       <use xlink:href="#DejaVuSans-30" x="63.623047"/>
       <use xlink:href="#DejaVuSans-30" x="127.246094"/>
       <use xlink:href="#DejaVuSans-30" x="190.869141"/>
      </g>
     </g>
    </g>
    <g id="xtick_4">
     <g id="line2d_4">
      <g>
       <use xlink:href="#m3f905834f6" x="162.097728" y="170.33875" style="stroke: #000000; stroke-width: 0.8"/>
      </g>
     </g>
     <g id="text_4">
      <!-- 1500 -->
      <g transform="translate(149.372728 184.937187) scale(0.1 -0.1)">
       <use xlink:href="#DejaVuSans-31"/>
       <use xlink:href="#DejaVuSans-35" x="63.623047"/>
       <use xlink:href="#DejaVuSans-30" x="127.246094"/>
       <use xlink:href="#DejaVuSans-30" x="190.869141"/>
      </g>
     </g>
    </g>
    <g id="xtick_5">
     <g id="line2d_5">
      <g>
       <use xlink:href="#m3f905834f6" x="195.054219" y="170.33875" style="stroke: #000000; stroke-width: 0.8"/>
      </g>
     </g>
     <g id="text_5">
      <!-- 2000 -->
      <g transform="translate(182.329219 184.937187) scale(0.1 -0.1)">
       <defs>
        <path id="DejaVuSans-32" d="M 1228 531 
L 3431 531 
L 3431 0 
L 469 0 
L 469 531 
Q 828 903 1448 1529 
Q 2069 2156 2228 2338 
Q 2531 2678 2651 2914 
Q 2772 3150 2772 3378 
Q 2772 3750 2511 3984 
Q 2250 4219 1831 4219 
Q 1534 4219 1204 4116 
Q 875 4013 500 3803 
L 500 4441 
Q 881 4594 1212 4672 
Q 1544 4750 1819 4750 
Q 2544 4750 2975 4387 
Q 3406 4025 3406 3419 
Q 3406 3131 3298 2873 
Q 3191 2616 2906 2266 
Q 2828 2175 2409 1742 
Q 1991 1309 1228 531 
z
" transform="scale(0.015625)"/>
       </defs>
       <use xlink:href="#DejaVuSans-32"/>
       <use xlink:href="#DejaVuSans-30" x="63.623047"/>
       <use xlink:href="#DejaVuSans-30" x="127.246094"/>
       <use xlink:href="#DejaVuSans-30" x="190.869141"/>
      </g>
     </g>
    </g>
    <g id="xtick_6">
     <g id="line2d_6">
      <g>
       <use xlink:href="#m3f905834f6" x="228.01071" y="170.33875" style="stroke: #000000; stroke-width: 0.8"/>
      </g>
     </g>
     <g id="text_6">
      <!-- 2500 -->
      <g transform="translate(215.28571 184.937187) scale(0.1 -0.1)">
       <use xlink:href="#DejaVuSans-32"/>
       <use xlink:href="#DejaVuSans-35" x="63.623047"/>
       <use xlink:href="#DejaVuSans-30" x="127.246094"/>
       <use xlink:href="#DejaVuSans-30" x="190.869141"/>
      </g>
     </g>
    </g>
    <g id="xtick_7">
     <g id="line2d_7">
      <g>
       <use xlink:href="#m3f905834f6" x="260.967201" y="170.33875" style="stroke: #000000; stroke-width: 0.8"/>
      </g>
     </g>
     <g id="text_7">
      <!-- 3000 -->
      <g transform="translate(248.242201 184.937187) scale(0.1 -0.1)">
       <defs>
        <path id="DejaVuSans-33" d="M 2597 2516 
Q 3050 2419 3304 2112 
Q 3559 1806 3559 1356 
Q 3559 666 3084 287 
Q 2609 -91 1734 -91 
Q 1441 -91 1130 -33 
Q 819 25 488 141 
L 488 750 
Q 750 597 1062 519 
Q 1375 441 1716 441 
Q 2309 441 2620 675 
Q 2931 909 2931 1356 
Q 2931 1769 2642 2001 
Q 2353 2234 1838 2234 
L 1294 2234 
L 1294 2753 
L 1863 2753 
Q 2328 2753 2575 2939 
Q 2822 3125 2822 3475 
Q 2822 3834 2567 4026 
Q 2313 4219 1838 4219 
Q 1578 4219 1281 4162 
Q 984 4106 628 3988 
L 628 4550 
Q 988 4650 1302 4700 
Q 1616 4750 1894 4750 
Q 2613 4750 3031 4423 
Q 3450 4097 3450 3541 
Q 3450 3153 3228 2886 
Q 3006 2619 2597 2516 
z
" transform="scale(0.015625)"/>
       </defs>
       <use xlink:href="#DejaVuSans-33"/>
       <use xlink:href="#DejaVuSans-30" x="63.623047"/>
       <use xlink:href="#DejaVuSans-30" x="127.246094"/>
       <use xlink:href="#DejaVuSans-30" x="190.869141"/>
      </g>
     </g>
    </g>
    <g id="text_8">
     <!-- x_square [m^2] -->
     <g transform="translate(122.731941 198.615312) scale(0.1 -0.1)">
      <defs>
       <path id="DejaVuSans-78" d="M 3513 3500 
L 2247 1797 
L 3578 0 
L 2900 0 
L 1881 1375 
L 863 0 
L 184 0 
L 1544 1831 
L 300 3500 
L 978 3500 
L 1906 2253 
L 2834 3500 
L 3513 3500 
z
" transform="scale(0.015625)"/>
       <path id="DejaVuSans-5f" d="M 3263 -1063 
L 3263 -1509 
L -63 -1509 
L -63 -1063 
L 3263 -1063 
z
" transform="scale(0.015625)"/>
       <path id="DejaVuSans-73" d="M 2834 3397 
L 2834 2853 
Q 2591 2978 2328 3040 
Q 2066 3103 1784 3103 
Q 1356 3103 1142 2972 
Q 928 2841 928 2578 
Q 928 2378 1081 2264 
Q 1234 2150 1697 2047 
L 1894 2003 
Q 2506 1872 2764 1633 
Q 3022 1394 3022 966 
Q 3022 478 2636 193 
Q 2250 -91 1575 -91 
Q 1294 -91 989 -36 
Q 684 19 347 128 
L 347 722 
Q 666 556 975 473 
Q 1284 391 1588 391 
Q 1994 391 2212 530 
Q 2431 669 2431 922 
Q 2431 1156 2273 1281 
Q 2116 1406 1581 1522 
L 1381 1569 
Q 847 1681 609 1914 
Q 372 2147 372 2553 
Q 372 3047 722 3315 
Q 1072 3584 1716 3584 
Q 2034 3584 2315 3537 
Q 2597 3491 2834 3397 
z
" transform="scale(0.015625)"/>
       <path id="DejaVuSans-71" d="M 947 1747 
Q 947 1113 1208 752 
Q 1469 391 1925 391 
Q 2381 391 2643 752 
Q 2906 1113 2906 1747 
Q 2906 2381 2643 2742 
Q 2381 3103 1925 3103 
Q 1469 3103 1208 2742 
Q 947 2381 947 1747 
z
M 2906 525 
Q 2725 213 2448 61 
Q 2172 -91 1784 -91 
Q 1150 -91 751 415 
Q 353 922 353 1747 
Q 353 2572 751 3078 
Q 1150 3584 1784 3584 
Q 2172 3584 2448 3432 
Q 2725 3281 2906 2969 
L 2906 3500 
L 3481 3500 
L 3481 -1331 
L 2906 -1331 
L 2906 525 
z
" transform="scale(0.015625)"/>
       <path id="DejaVuSans-75" d="M 544 1381 
L 544 3500 
L 1119 3500 
L 1119 1403 
Q 1119 906 1312 657 
Q 1506 409 1894 409 
Q 2359 409 2629 706 
Q 2900 1003 2900 1516 
L 2900 3500 
L 3475 3500 
L 3475 0 
L 2900 0 
L 2900 538 
Q 2691 219 2414 64 
Q 2138 -91 1772 -91 
Q 1169 -91 856 284 
Q 544 659 544 1381 
z
M 1991 3584 
L 1991 3584 
z
" transform="scale(0.015625)"/>
       <path id="DejaVuSans-61" d="M 2194 1759 
Q 1497 1759 1228 1600 
Q 959 1441 959 1056 
Q 959 750 1161 570 
Q 1363 391 1709 391 
Q 2188 391 2477 730 
Q 2766 1069 2766 1631 
L 2766 1759 
L 2194 1759 
z
M 3341 1997 
L 3341 0 
L 2766 0 
L 2766 531 
Q 2569 213 2275 61 
Q 1981 -91 1556 -91 
Q 1019 -91 701 211 
Q 384 513 384 1019 
Q 384 1609 779 1909 
Q 1175 2209 1959 2209 
L 2766 2209 
L 2766 2266 
Q 2766 2663 2505 2880 
Q 2244 3097 1772 3097 
Q 1472 3097 1187 3025 
Q 903 2953 641 2809 
L 641 3341 
Q 956 3463 1253 3523 
Q 1550 3584 1831 3584 
Q 2591 3584 2966 3190 
Q 3341 2797 3341 1997 
z
" transform="scale(0.015625)"/>
       <path id="DejaVuSans-72" d="M 2631 2963 
Q 2534 3019 2420 3045 
Q 2306 3072 2169 3072 
Q 1681 3072 1420 2755 
Q 1159 2438 1159 1844 
L 1159 0 
L 581 0 
L 581 3500 
L 1159 3500 
L 1159 2956 
Q 1341 3275 1631 3429 
Q 1922 3584 2338 3584 
Q 2397 3584 2469 3576 
Q 2541 3569 2628 3553 
L 2631 2963 
z
" transform="scale(0.015625)"/>
       <path id="DejaVuSans-65" d="M 3597 1894 
L 3597 1613 
L 953 1613 
Q 991 1019 1311 708 
Q 1631 397 2203 397 
Q 2534 397 2845 478 
Q 3156 559 3463 722 
L 3463 178 
Q 3153 47 2828 -22 
Q 2503 -91 2169 -91 
Q 1331 -91 842 396 
Q 353 884 353 1716 
Q 353 2575 817 3079 
Q 1281 3584 2069 3584 
Q 2775 3584 3186 3129 
Q 3597 2675 3597 1894 
z
M 3022 2063 
Q 3016 2534 2758 2815 
Q 2500 3097 2075 3097 
Q 1594 3097 1305 2825 
Q 1016 2553 972 2059 
L 3022 2063 
z
" transform="scale(0.015625)"/>
       <path id="DejaVuSans-20" transform="scale(0.015625)"/>
       <path id="DejaVuSans-5b" d="M 550 4863 
L 1875 4863 
L 1875 4416 
L 1125 4416 
L 1125 -397 
L 1875 -397 
L 1875 -844 
L 550 -844 
L 550 4863 
z
" transform="scale(0.015625)"/>
       <path id="DejaVuSans-6d" d="M 3328 2828 
Q 3544 3216 3844 3400 
Q 4144 3584 4550 3584 
Q 5097 3584 5394 3201 
Q 5691 2819 5691 2113 
L 5691 0 
L 5113 0 
L 5113 2094 
Q 5113 2597 4934 2840 
Q 4756 3084 4391 3084 
Q 3944 3084 3684 2787 
Q 3425 2491 3425 1978 
L 3425 0 
L 2847 0 
L 2847 2094 
Q 2847 2600 2669 2842 
Q 2491 3084 2119 3084 
Q 1678 3084 1418 2786 
Q 1159 2488 1159 1978 
L 1159 0 
L 581 0 
L 581 3500 
L 1159 3500 
L 1159 2956 
Q 1356 3278 1631 3431 
Q 1906 3584 2284 3584 
Q 2666 3584 2933 3390 
Q 3200 3197 3328 2828 
z
" transform="scale(0.015625)"/>
       <path id="DejaVuSans-5e" d="M 2988 4666 
L 4684 2925 
L 4056 2925 
L 2681 4159 
L 1306 2925 
L 678 2925 
L 2375 4666 
L 2988 4666 
z
" transform="scale(0.015625)"/>
       <path id="DejaVuSans-5d" d="M 1947 4863 
L 1947 -844 
L 622 -844 
L 622 -397 
L 1369 -397 
L 1369 4416 
L 622 4416 
L 622 4863 
L 1947 4863 
z
" transform="scale(0.015625)"/>
      </defs>
      <use xlink:href="#DejaVuSans-78"/>
      <use xlink:href="#DejaVuSans-5f" x="59.179688"/>
      <use xlink:href="#DejaVuSans-73" x="109.179688"/>
      <use xlink:href="#DejaVuSans-71" x="161.279297"/>
      <use xlink:href="#DejaVuSans-75" x="224.755859"/>
      <use xlink:href="#DejaVuSans-61" x="288.134766"/>
      <use xlink:href="#DejaVuSans-72" x="349.414062"/>
      <use xlink:href="#DejaVuSans-65" x="388.277344"/>
      <use xlink:href="#DejaVuSans-20" x="449.800781"/>
      <use xlink:href="#DejaVuSans-5b" x="481.587891"/>
      <use xlink:href="#DejaVuSans-6d" x="520.601562"/>
      <use xlink:href="#DejaVuSans-5e" x="618.013672"/>
      <use xlink:href="#DejaVuSans-32" x="701.802734"/>
      <use xlink:href="#DejaVuSans-5d" x="765.425781"/>
     </g>
    </g>
   </g>
   <g id="matplotlib.axis_2">
    <g id="ytick_1">
     <g id="line2d_8">
      <defs>
       <path id="mba1acb14e4" d="M 0 0 
L -3.5 0 
" style="stroke: #000000; stroke-width: 0.8"/>
      </defs>
      <g>
       <use xlink:href="#mba1acb14e4" x="53.328125" y="162.972396" style="stroke: #000000; stroke-width: 0.8"/>
      </g>
     </g>
     <g id="text_9">
      <!-- 0 -->
      <g transform="translate(39.965625 166.771615) scale(0.1 -0.1)">
       <use xlink:href="#DejaVuSans-30"/>
      </g>
     </g>
    </g>
    <g id="ytick_2">
     <g id="line2d_9">
      <g>
       <use xlink:href="#mba1acb14e4" x="53.328125" y="138.450578" style="stroke: #000000; stroke-width: 0.8"/>
      </g>
     </g>
     <g id="text_10">
      <!-- 500 -->
      <g transform="translate(27.240625 142.249797) scale(0.1 -0.1)">
       <use xlink:href="#DejaVuSans-35"/>
       <use xlink:href="#DejaVuSans-30" x="63.623047"/>
       <use xlink:href="#DejaVuSans-30" x="127.246094"/>
      </g>
     </g>
    </g>
    <g id="ytick_3">
     <g id="line2d_10">
      <g>
       <use xlink:href="#mba1acb14e4" x="53.328125" y="113.92876" style="stroke: #000000; stroke-width: 0.8"/>
      </g>
     </g>
     <g id="text_11">
      <!-- 1000 -->
      <g transform="translate(20.878125 117.727979) scale(0.1 -0.1)">
       <use xlink:href="#DejaVuSans-31"/>
       <use xlink:href="#DejaVuSans-30" x="63.623047"/>
       <use xlink:href="#DejaVuSans-30" x="127.246094"/>
       <use xlink:href="#DejaVuSans-30" x="190.869141"/>
      </g>
     </g>
    </g>
    <g id="ytick_4">
     <g id="line2d_11">
      <g>
       <use xlink:href="#mba1acb14e4" x="53.328125" y="89.406942" style="stroke: #000000; stroke-width: 0.8"/>
      </g>
     </g>
     <g id="text_12">
      <!-- 1500 -->
      <g transform="translate(20.878125 93.206161) scale(0.1 -0.1)">
       <use xlink:href="#DejaVuSans-31"/>
       <use xlink:href="#DejaVuSans-35" x="63.623047"/>
       <use xlink:href="#DejaVuSans-30" x="127.246094"/>
       <use xlink:href="#DejaVuSans-30" x="190.869141"/>
      </g>
     </g>
    </g>
    <g id="ytick_5">
     <g id="line2d_12">
      <g>
       <use xlink:href="#mba1acb14e4" x="53.328125" y="64.885124" style="stroke: #000000; stroke-width: 0.8"/>
      </g>
     </g>
     <g id="text_13">
      <!-- 2000 -->
      <g transform="translate(20.878125 68.684343) scale(0.1 -0.1)">
       <use xlink:href="#DejaVuSans-32"/>
       <use xlink:href="#DejaVuSans-30" x="63.623047"/>
       <use xlink:href="#DejaVuSans-30" x="127.246094"/>
       <use xlink:href="#DejaVuSans-30" x="190.869141"/>
      </g>
     </g>
    </g>
    <g id="ytick_6">
     <g id="line2d_13">
      <g>
       <use xlink:href="#mba1acb14e4" x="53.328125" y="40.363307" style="stroke: #000000; stroke-width: 0.8"/>
      </g>
     </g>
     <g id="text_14">
      <!-- 2500 -->
      <g transform="translate(20.878125 44.162525) scale(0.1 -0.1)">
       <use xlink:href="#DejaVuSans-32"/>
       <use xlink:href="#DejaVuSans-35" x="63.623047"/>
       <use xlink:href="#DejaVuSans-30" x="127.246094"/>
       <use xlink:href="#DejaVuSans-30" x="190.869141"/>
      </g>
     </g>
    </g>
    <g id="ytick_7">
     <g id="line2d_14">
      <g>
       <use xlink:href="#mba1acb14e4" x="53.328125" y="15.841489" style="stroke: #000000; stroke-width: 0.8"/>
      </g>
     </g>
     <g id="text_15">
      <!-- 3000 -->
      <g transform="translate(20.878125 19.640707) scale(0.1 -0.1)">
       <use xlink:href="#DejaVuSans-33"/>
       <use xlink:href="#DejaVuSans-30" x="63.623047"/>
       <use xlink:href="#DejaVuSans-30" x="127.246094"/>
       <use xlink:href="#DejaVuSans-30" x="190.869141"/>
      </g>
     </g>
    </g>
    <g id="text_16">
     <!-- [m^2] -->
     <g transform="translate(14.798438 104.912344) rotate(-90) scale(0.1 -0.1)">
      <use xlink:href="#DejaVuSans-5b"/>
      <use xlink:href="#DejaVuSans-6d" x="39.013672"/>
      <use xlink:href="#DejaVuSans-5e" x="136.425781"/>
      <use xlink:href="#DejaVuSans-32" x="220.214844"/>
      <use xlink:href="#DejaVuSans-5d" x="283.837891"/>
     </g>
    </g>
   </g>
   <g id="patch_3">
    <path d="M 53.328125 170.33875 
L 53.328125 7.2 
" style="fill: none; stroke: #000000; stroke-width: 0.8; stroke-linejoin: miter; stroke-linecap: square"/>
   </g>
   <g id="patch_4">
    <path d="M 272.581069 170.33875 
L 272.581069 7.2 
" style="fill: none; stroke: #000000; stroke-width: 0.8; stroke-linejoin: miter; stroke-linecap: square"/>
   </g>
   <g id="patch_5">
    <path d="M 53.328125 170.33875 
L 272.581069 170.33875 
" style="fill: none; stroke: #000000; stroke-width: 0.8; stroke-linejoin: miter; stroke-linecap: square"/>
   </g>
   <g id="patch_6">
    <path d="M 53.328125 7.2 
L 272.581069 7.2 
" style="fill: none; stroke: #000000; stroke-width: 0.8; stroke-linejoin: miter; stroke-linecap: square"/>
   </g>
   <g id="line2d_15">
    <defs>
     <path id="mcc5d87f543" d="M 0 3 
C 0.795609 3 1.55874 2.683901 2.12132 2.12132 
C 2.683901 1.55874 3 0.795609 3 0 
C 3 -0.795609 2.683901 -1.55874 2.12132 -2.12132 
C 1.55874 -2.683901 0.795609 -3 0 -3 
C -0.795609 -3 -1.55874 -2.683901 -2.12132 -2.12132 
C -2.683901 -1.55874 -3 -0.795609 -3 0 
C -3 0.795609 -2.683901 1.55874 -2.12132 2.12132 
C -1.55874 2.683901 -0.795609 3 0 3 
z
" style="stroke: #1f77b4"/>
    </defs>
    <g clip-path="url(#pa25aaf68e0)">
     <use xlink:href="#mcc5d87f543" x="63.294168" y="162.923352" style="fill: #1f77b4; stroke: #1f77b4"/>
     <use xlink:href="#mcc5d87f543" x="63.385683" y="162.855259" style="fill: #1f77b4; stroke: #1f77b4"/>
     <use xlink:href="#mcc5d87f543" x="63.51642" y="162.757982" style="fill: #1f77b4; stroke: #1f77b4"/>
     <use xlink:href="#mcc5d87f543" x="63.686377" y="162.631522" style="fill: #1f77b4; stroke: #1f77b4"/>
     <use xlink:href="#mcc5d87f543" x="63.895556" y="162.47588" style="fill: #1f77b4; stroke: #1f77b4"/>
     <use xlink:href="#mcc5d87f543" x="64.143955" y="162.291054" style="fill: #1f77b4; stroke: #1f77b4"/>
     <use xlink:href="#mcc5d87f543" x="64.431575" y="162.077046" style="fill: #1f77b4; stroke: #1f77b4"/>
     <use xlink:href="#mcc5d87f543" x="64.758417" y="161.833854" style="fill: #1f77b4; stroke: #1f77b4"/>
     <use xlink:href="#mcc5d87f543" x="65.124479" y="161.561479" style="fill: #1f77b4; stroke: #1f77b4"/>
     <use xlink:href="#mcc5d87f543" x="65.529762" y="161.259922" style="fill: #1f77b4; stroke: #1f77b4"/>
     <use xlink:href="#mcc5d87f543" x="65.974266" y="160.929181" style="fill: #1f77b4; stroke: #1f77b4"/>
     <use xlink:href="#mcc5d87f543" x="66.457991" y="160.569258" style="fill: #1f77b4; stroke: #1f77b4"/>
     <use xlink:href="#mcc5d87f543" x="66.980937" y="160.180151" style="fill: #1f77b4; stroke: #1f77b4"/>
     <use xlink:href="#mcc5d87f543" x="67.543104" y="159.761862" style="fill: #1f77b4; stroke: #1f77b4"/>
     <use xlink:href="#mcc5d87f543" x="68.144492" y="159.314389" style="fill: #1f77b4; stroke: #1f77b4"/>
     <use xlink:href="#mcc5d87f543" x="68.785101" y="158.837734" style="fill: #1f77b4; stroke: #1f77b4"/>
     <use xlink:href="#mcc5d87f543" x="69.46493" y="158.331895" style="fill: #1f77b4; stroke: #1f77b4"/>
     <use xlink:href="#mcc5d87f543" x="70.183981" y="157.796874" style="fill: #1f77b4; stroke: #1f77b4"/>
     <use xlink:href="#mcc5d87f543" x="70.942253" y="157.232669" style="fill: #1f77b4; stroke: #1f77b4"/>
     <use xlink:href="#mcc5d87f543" x="71.739745" y="156.639282" style="fill: #1f77b4; stroke: #1f77b4"/>
     <use xlink:href="#mcc5d87f543" x="72.576459" y="156.016711" style="fill: #1f77b4; stroke: #1f77b4"/>
     <use xlink:href="#mcc5d87f543" x="73.452393" y="155.364958" style="fill: #1f77b4; stroke: #1f77b4"/>
     <use xlink:href="#mcc5d87f543" x="74.367549" y="154.684021" style="fill: #1f77b4; stroke: #1f77b4"/>
     <use xlink:href="#mcc5d87f543" x="75.321925" y="153.973902" style="fill: #1f77b4; stroke: #1f77b4"/>
     <use xlink:href="#mcc5d87f543" x="76.315523" y="153.2346" style="fill: #1f77b4; stroke: #1f77b4"/>
     <use xlink:href="#mcc5d87f543" x="77.348341" y="152.466114" style="fill: #1f77b4; stroke: #1f77b4"/>
     <use xlink:href="#mcc5d87f543" x="78.42038" y="151.668446" style="fill: #1f77b4; stroke: #1f77b4"/>
     <use xlink:href="#mcc5d87f543" x="79.53164" y="150.841594" style="fill: #1f77b4; stroke: #1f77b4"/>
     <use xlink:href="#mcc5d87f543" x="80.682122" y="149.98556" style="fill: #1f77b4; stroke: #1f77b4"/>
     <use xlink:href="#mcc5d87f543" x="81.871824" y="149.100343" style="fill: #1f77b4; stroke: #1f77b4"/>
     <use xlink:href="#mcc5d87f543" x="83.100747" y="148.185942" style="fill: #1f77b4; stroke: #1f77b4"/>
     <use xlink:href="#mcc5d87f543" x="84.368891" y="147.242359" style="fill: #1f77b4; stroke: #1f77b4"/>
     <use xlink:href="#mcc5d87f543" x="85.676256" y="146.269593" style="fill: #1f77b4; stroke: #1f77b4"/>
     <use xlink:href="#mcc5d87f543" x="87.022841" y="145.267643" style="fill: #1f77b4; stroke: #1f77b4"/>
     <use xlink:href="#mcc5d87f543" x="88.408648" y="144.236511" style="fill: #1f77b4; stroke: #1f77b4"/>
     <use xlink:href="#mcc5d87f543" x="89.833676" y="143.176196" style="fill: #1f77b4; stroke: #1f77b4"/>
     <use xlink:href="#mcc5d87f543" x="91.297925" y="142.086698" style="fill: #1f77b4; stroke: #1f77b4"/>
     <use xlink:href="#mcc5d87f543" x="92.801394" y="140.968016" style="fill: #1f77b4; stroke: #1f77b4"/>
     <use xlink:href="#mcc5d87f543" x="94.344085" y="139.820152" style="fill: #1f77b4; stroke: #1f77b4"/>
     <use xlink:href="#mcc5d87f543" x="95.925997" y="138.643105" style="fill: #1f77b4; stroke: #1f77b4"/>
     <use xlink:href="#mcc5d87f543" x="97.547129" y="137.436874" style="fill: #1f77b4; stroke: #1f77b4"/>
     <use xlink:href="#mcc5d87f543" x="99.207483" y="136.201461" style="fill: #1f77b4; stroke: #1f77b4"/>
     <use xlink:href="#mcc5d87f543" x="100.907057" y="134.936865" style="fill: #1f77b4; stroke: #1f77b4"/>
     <use xlink:href="#mcc5d87f543" x="102.645852" y="133.643086" style="fill: #1f77b4; stroke: #1f77b4"/>
     <use xlink:href="#mcc5d87f543" x="104.423869" y="132.320124" style="fill: #1f77b4; stroke: #1f77b4"/>
     <use xlink:href="#mcc5d87f543" x="106.241106" y="130.967978" style="fill: #1f77b4; stroke: #1f77b4"/>
     <use xlink:href="#mcc5d87f543" x="108.097564" y="129.58665" style="fill: #1f77b4; stroke: #1f77b4"/>
     <use xlink:href="#mcc5d87f543" x="109.993243" y="128.176139" style="fill: #1f77b4; stroke: #1f77b4"/>
     <use xlink:href="#mcc5d87f543" x="111.928143" y="126.736445" style="fill: #1f77b4; stroke: #1f77b4"/>
     <use xlink:href="#mcc5d87f543" x="113.902265" y="125.267568" style="fill: #1f77b4; stroke: #1f77b4"/>
     <use xlink:href="#mcc5d87f543" x="115.915607" y="123.769508" style="fill: #1f77b4; stroke: #1f77b4"/>
     <use xlink:href="#mcc5d87f543" x="117.968169" y="122.242264" style="fill: #1f77b4; stroke: #1f77b4"/>
     <use xlink:href="#mcc5d87f543" x="120.059953" y="120.685838" style="fill: #1f77b4; stroke: #1f77b4"/>
     <use xlink:href="#mcc5d87f543" x="122.190958" y="119.100229" style="fill: #1f77b4; stroke: #1f77b4"/>
     <use xlink:href="#mcc5d87f543" x="124.361184" y="117.485437" style="fill: #1f77b4; stroke: #1f77b4"/>
     <use xlink:href="#mcc5d87f543" x="126.570631" y="115.841462" style="fill: #1f77b4; stroke: #1f77b4"/>
     <use xlink:href="#mcc5d87f543" x="128.819298" y="114.168304" style="fill: #1f77b4; stroke: #1f77b4"/>
     <use xlink:href="#mcc5d87f543" x="131.107187" y="112.465963" style="fill: #1f77b4; stroke: #1f77b4"/>
     <use xlink:href="#mcc5d87f543" x="133.434297" y="110.734439" style="fill: #1f77b4; stroke: #1f77b4"/>
     <use xlink:href="#mcc5d87f543" x="135.800627" y="108.973732" style="fill: #1f77b4; stroke: #1f77b4"/>
     <use xlink:href="#mcc5d87f543" x="138.206179" y="107.183842" style="fill: #1f77b4; stroke: #1f77b4"/>
     <use xlink:href="#mcc5d87f543" x="140.650951" y="105.364769" style="fill: #1f77b4; stroke: #1f77b4"/>
     <use xlink:href="#mcc5d87f543" x="143.134944" y="103.516513" style="fill: #1f77b4; stroke: #1f77b4"/>
     <use xlink:href="#mcc5d87f543" x="145.658159" y="101.639074" style="fill: #1f77b4; stroke: #1f77b4"/>
     <use xlink:href="#mcc5d87f543" x="148.220594" y="99.732452" style="fill: #1f77b4; stroke: #1f77b4"/>
     <use xlink:href="#mcc5d87f543" x="150.82225" y="97.796647" style="fill: #1f77b4; stroke: #1f77b4"/>
     <use xlink:href="#mcc5d87f543" x="153.463127" y="95.831659" style="fill: #1f77b4; stroke: #1f77b4"/>
     <use xlink:href="#mcc5d87f543" x="156.143226" y="93.837488" style="fill: #1f77b4; stroke: #1f77b4"/>
     <use xlink:href="#mcc5d87f543" x="158.862545" y="91.814134" style="fill: #1f77b4; stroke: #1f77b4"/>
     <use xlink:href="#mcc5d87f543" x="161.621085" y="89.761597" style="fill: #1f77b4; stroke: #1f77b4"/>
     <use xlink:href="#mcc5d87f543" x="164.418846" y="87.679877" style="fill: #1f77b4; stroke: #1f77b4"/>
     <use xlink:href="#mcc5d87f543" x="167.255827" y="85.568974" style="fill: #1f77b4; stroke: #1f77b4"/>
     <use xlink:href="#mcc5d87f543" x="170.13203" y="83.428888" style="fill: #1f77b4; stroke: #1f77b4"/>
     <use xlink:href="#mcc5d87f543" x="173.047454" y="81.259619" style="fill: #1f77b4; stroke: #1f77b4"/>
     <use xlink:href="#mcc5d87f543" x="176.002099" y="79.061167" style="fill: #1f77b4; stroke: #1f77b4"/>
     <use xlink:href="#mcc5d87f543" x="178.995965" y="76.833532" style="fill: #1f77b4; stroke: #1f77b4"/>
     <use xlink:href="#mcc5d87f543" x="182.029051" y="74.576714" style="fill: #1f77b4; stroke: #1f77b4"/>
     <use xlink:href="#mcc5d87f543" x="185.101359" y="72.290713" style="fill: #1f77b4; stroke: #1f77b4"/>
     <use xlink:href="#mcc5d87f543" x="188.212887" y="69.97553" style="fill: #1f77b4; stroke: #1f77b4"/>
     <use xlink:href="#mcc5d87f543" x="191.363637" y="67.631163" style="fill: #1f77b4; stroke: #1f77b4"/>
     <use xlink:href="#mcc5d87f543" x="194.553607" y="65.257613" style="fill: #1f77b4; stroke: #1f77b4"/>
     <use xlink:href="#mcc5d87f543" x="197.782799" y="62.85488" style="fill: #1f77b4; stroke: #1f77b4"/>
     <use xlink:href="#mcc5d87f543" x="201.051211" y="60.422964" style="fill: #1f77b4; stroke: #1f77b4"/>
     <use xlink:href="#mcc5d87f543" x="204.358844" y="57.961865" style="fill: #1f77b4; stroke: #1f77b4"/>
     <use xlink:href="#mcc5d87f543" x="207.705699" y="55.471584" style="fill: #1f77b4; stroke: #1f77b4"/>
     <use xlink:href="#mcc5d87f543" x="211.091774" y="52.952119" style="fill: #1f77b4; stroke: #1f77b4"/>
     <use xlink:href="#mcc5d87f543" x="214.51707" y="50.403471" style="fill: #1f77b4; stroke: #1f77b4"/>
     <use xlink:href="#mcc5d87f543" x="217.981587" y="47.82564" style="fill: #1f77b4; stroke: #1f77b4"/>
     <use xlink:href="#mcc5d87f543" x="221.485325" y="45.218626" style="fill: #1f77b4; stroke: #1f77b4"/>
     <use xlink:href="#mcc5d87f543" x="225.028284" y="42.58243" style="fill: #1f77b4; stroke: #1f77b4"/>
     <use xlink:href="#mcc5d87f543" x="228.610464" y="39.91705" style="fill: #1f77b4; stroke: #1f77b4"/>
     <use xlink:href="#mcc5d87f543" x="232.231865" y="37.222487" style="fill: #1f77b4; stroke: #1f77b4"/>
     <use xlink:href="#mcc5d87f543" x="235.892487" y="34.498741" style="fill: #1f77b4; stroke: #1f77b4"/>
     <use xlink:href="#mcc5d87f543" x="239.592329" y="31.745813" style="fill: #1f77b4; stroke: #1f77b4"/>
     <use xlink:href="#mcc5d87f543" x="243.331393" y="28.963701" style="fill: #1f77b4; stroke: #1f77b4"/>
     <use xlink:href="#mcc5d87f543" x="247.109678" y="26.152406" style="fill: #1f77b4; stroke: #1f77b4"/>
     <use xlink:href="#mcc5d87f543" x="250.927183" y="23.311929" style="fill: #1f77b4; stroke: #1f77b4"/>
     <use xlink:href="#mcc5d87f543" x="254.78391" y="20.442268" style="fill: #1f77b4; stroke: #1f77b4"/>
     <use xlink:href="#mcc5d87f543" x="258.679857" y="17.543424" style="fill: #1f77b4; stroke: #1f77b4"/>
     <use xlink:href="#mcc5d87f543" x="262.615026" y="14.615398" style="fill: #1f77b4; stroke: #1f77b4"/>
    </g>
   </g>
  </g>
 </g>
 <defs>
  <clipPath id="pa25aaf68e0">
   <rect x="53.328125" y="7.2" width="219.252944" height="163.13875"/>
  </clipPath>
 </defs>
</svg>
