<?xml version="1.0" encoding="utf-8" standalone="no"?>
<!DOCTYPE svg PUBLIC "-//W3C//DTD SVG 1.1//EN"
  "http://www.w3.org/Graphics/SVG/1.1/DTD/svg11.dtd">
<svg xmlns:xlink="http://www.w3.org/1999/xlink" width="424.405625pt" height="279.99625pt" viewBox="0 0 424.405625 279.99625" xmlns="http://www.w3.org/2000/svg" version="1.1">
 <metadata>
  <rdf:RDF xmlns:dc="http://purl.org/dc/elements/1.1/" xmlns:cc="http://creativecommons.org/ns#" xmlns:rdf="http://www.w3.org/1999/02/22-rdf-syntax-ns#">
   <cc:Work>
    <dc:type rdf:resource="http://purl.org/dc/dcmitype/StillImage"/>
    <dc:date>2024-06-21T06:10:46.349558</dc:date>
    <dc:format>image/svg+xml</dc:format>
    <dc:creator>
     <cc:Agent>
      <dc:title>Matplotlib v3.9.0, https://matplotlib.org/</dc:title>
     </cc:Agent>
    </dc:creator>
   </cc:Work>
  </rdf:RDF>
 </metadata>
 <defs>
  <style type="text/css">*{stroke-linejoin: round; stroke-linecap: butt}</style>
 </defs>
 <g id="figure_1">
  <g id="patch_1">
   <path d="M -0 279.99625 
L 424.405625 279.99625 
L 424.405625 0 
L -0 0 
z
" style="fill: #ffffff"/>
  </g>
  <g id="axes_1">
   <g id="patch_2">
    <path d="M 46.965625 242.44 
L 417.205625 242.44 
L 417.205625 7.2 
L 46.965625 7.2 
z
" style="fill: #ffffff"/>
   </g>
   <g id="matplotlib.axis_1">
    <g id="xtick_1">
     <g id="line2d_1">
      <defs>
       <path id="mf57f427587" d="M 0 0 
L 0 3.5 
" style="stroke: #000000; stroke-width: 0.8"/>
      </defs>
      <g>
       <use xlink:href="#mf57f427587" x="63.794716" y="242.44" style="stroke: #000000; stroke-width: 0.8"/>
      </g>
     </g>
     <g id="text_1">
      <!-- 0.00 -->
      <g transform="translate(52.661903 257.038438) scale(0.1 -0.1)">
       <defs>
        <path id="DejaVuSans-30" d="M 2034 4250 
Q 1547 4250 1301 3770 
Q 1056 3291 1056 2328 
Q 1056 1369 1301 889 
Q 1547 409 2034 409 
Q 2525 409 2770 889 
Q 3016 1369 3016 2328 
Q 3016 3291 2770 3770 
Q 2525 4250 2034 4250 
z
M 2034 4750 
Q 2819 4750 3233 4129 
Q 3647 3509 3647 2328 
Q 3647 1150 3233 529 
Q 2819 -91 2034 -91 
Q 1250 -91 836 529 
Q 422 1150 422 2328 
Q 422 3509 836 4129 
Q 1250 4750 2034 4750 
z
" transform="scale(0.015625)"/>
        <path id="DejaVuSans-2e" d="M 684 794 
L 1344 794 
L 1344 0 
L 684 0 
L 684 794 
z
" transform="scale(0.015625)"/>
       </defs>
       <use xlink:href="#DejaVuSans-30"/>
       <use xlink:href="#DejaVuSans-2e" x="63.623047"/>
       <use xlink:href="#DejaVuSans-30" x="95.410156"/>
       <use xlink:href="#DejaVuSans-30" x="159.033203"/>
      </g>
     </g>
    </g>
    <g id="xtick_2">
     <g id="line2d_2">
      <g>
       <use xlink:href="#mf57f427587" x="105.867443" y="242.44" style="stroke: #000000; stroke-width: 0.8"/>
      </g>
     </g>
     <g id="text_2">
      <!-- 0.25 -->
      <g transform="translate(94.734631 257.038438) scale(0.1 -0.1)">
       <defs>
        <path id="DejaVuSans-32" d="M 1228 531 
L 3431 531 
L 3431 0 
L 469 0 
L 469 531 
Q 828 903 1448 1529 
Q 2069 2156 2228 2338 
Q 2531 2678 2651 2914 
Q 2772 3150 2772 3378 
Q 2772 3750 2511 3984 
Q 2250 4219 1831 4219 
Q 1534 4219 1204 4116 
Q 875 4013 500 3803 
L 500 4441 
Q 881 4594 1212 4672 
Q 1544 4750 1819 4750 
Q 2544 4750 2975 4387 
Q 3406 4025 3406 3419 
Q 3406 3131 3298 2873 
Q 3191 2616 2906 2266 
Q 2828 2175 2409 1742 
Q 1991 1309 1228 531 
z
" transform="scale(0.015625)"/>
        <path id="DejaVuSans-35" d="M 691 4666 
L 3169 4666 
L 3169 4134 
L 1269 4134 
L 1269 2991 
Q 1406 3038 1543 3061 
Q 1681 3084 1819 3084 
Q 2600 3084 3056 2656 
Q 3513 2228 3513 1497 
Q 3513 744 3044 326 
Q 2575 -91 1722 -91 
Q 1428 -91 1123 -41 
Q 819 9 494 109 
L 494 744 
Q 775 591 1075 516 
Q 1375 441 1709 441 
Q 2250 441 2565 725 
Q 2881 1009 2881 1497 
Q 2881 1984 2565 2268 
Q 2250 2553 1709 2553 
Q 1456 2553 1204 2497 
Q 953 2441 691 2322 
L 691 4666 
z
" transform="scale(0.015625)"/>
       </defs>
       <use xlink:href="#DejaVuSans-30"/>
       <use xlink:href="#DejaVuSans-2e" x="63.623047"/>
       <use xlink:href="#DejaVuSans-32" x="95.410156"/>
       <use xlink:href="#DejaVuSans-35" x="159.033203"/>
      </g>
     </g>
    </g>
    <g id="xtick_3">
     <g id="line2d_3">
      <g>
       <use xlink:href="#mf57f427587" x="147.94017" y="242.44" style="stroke: #000000; stroke-width: 0.8"/>
      </g>
     </g>
     <g id="text_3">
      <!-- 0.50 -->
      <g transform="translate(136.807358 257.038438) scale(0.1 -0.1)">
       <use xlink:href="#DejaVuSans-30"/>
       <use xlink:href="#DejaVuSans-2e" x="63.623047"/>
       <use xlink:href="#DejaVuSans-35" x="95.410156"/>
       <use xlink:href="#DejaVuSans-30" x="159.033203"/>
      </g>
     </g>
    </g>
    <g id="xtick_4">
     <g id="line2d_4">
      <g>
       <use xlink:href="#mf57f427587" x="190.012898" y="242.44" style="stroke: #000000; stroke-width: 0.8"/>
      </g>
     </g>
     <g id="text_4">
      <!-- 0.75 -->
      <g transform="translate(178.880085 257.038438) scale(0.1 -0.1)">
       <defs>
        <path id="DejaVuSans-37" d="M 525 4666 
L 3525 4666 
L 3525 4397 
L 1831 0 
L 1172 0 
L 2766 4134 
L 525 4134 
L 525 4666 
z
" transform="scale(0.015625)"/>
       </defs>
       <use xlink:href="#DejaVuSans-30"/>
       <use xlink:href="#DejaVuSans-2e" x="63.623047"/>
       <use xlink:href="#DejaVuSans-37" x="95.410156"/>
       <use xlink:href="#DejaVuSans-35" x="159.033203"/>
      </g>
     </g>
    </g>
    <g id="xtick_5">
     <g id="line2d_5">
      <g>
       <use xlink:href="#mf57f427587" x="232.085625" y="242.44" style="stroke: #000000; stroke-width: 0.8"/>
      </g>
     </g>
     <g id="text_5">
      <!-- 1.00 -->
      <g transform="translate(220.952812 257.038438) scale(0.1 -0.1)">
       <defs>
        <path id="DejaVuSans-31" d="M 794 531 
L 1825 531 
L 1825 4091 
L 703 3866 
L 703 4441 
L 1819 4666 
L 2450 4666 
L 2450 531 
L 3481 531 
L 3481 0 
L 794 0 
L 794 531 
z
" transform="scale(0.015625)"/>
       </defs>
       <use xlink:href="#DejaVuSans-31"/>
       <use xlink:href="#DejaVuSans-2e" x="63.623047"/>
       <use xlink:href="#DejaVuSans-30" x="95.410156"/>
       <use xlink:href="#DejaVuSans-30" x="159.033203"/>
      </g>
     </g>
    </g>
    <g id="xtick_6">
     <g id="line2d_6">
      <g>
       <use xlink:href="#mf57f427587" x="274.158352" y="242.44" style="stroke: #000000; stroke-width: 0.8"/>
      </g>
     </g>
     <g id="text_6">
      <!-- 1.25 -->
      <g transform="translate(263.02554 257.038438) scale(0.1 -0.1)">
       <use xlink:href="#DejaVuSans-31"/>
       <use xlink:href="#DejaVuSans-2e" x="63.623047"/>
       <use xlink:href="#DejaVuSans-32" x="95.410156"/>
       <use xlink:href="#DejaVuSans-35" x="159.033203"/>
      </g>
     </g>
    </g>
    <g id="xtick_7">
     <g id="line2d_7">
      <g>
       <use xlink:href="#mf57f427587" x="316.23108" y="242.44" style="stroke: #000000; stroke-width: 0.8"/>
      </g>
     </g>
     <g id="text_7">
      <!-- 1.50 -->
      <g transform="translate(305.098267 257.038438) scale(0.1 -0.1)">
       <use xlink:href="#DejaVuSans-31"/>
       <use xlink:href="#DejaVuSans-2e" x="63.623047"/>
       <use xlink:href="#DejaVuSans-35" x="95.410156"/>
       <use xlink:href="#DejaVuSans-30" x="159.033203"/>
      </g>
     </g>
    </g>
    <g id="xtick_8">
     <g id="line2d_8">
      <g>
       <use xlink:href="#mf57f427587" x="358.303807" y="242.44" style="stroke: #000000; stroke-width: 0.8"/>
      </g>
     </g>
     <g id="text_8">
      <!-- 1.75 -->
      <g transform="translate(347.170994 257.038438) scale(0.1 -0.1)">
       <use xlink:href="#DejaVuSans-31"/>
       <use xlink:href="#DejaVuSans-2e" x="63.623047"/>
       <use xlink:href="#DejaVuSans-37" x="95.410156"/>
       <use xlink:href="#DejaVuSans-35" x="159.033203"/>
      </g>
     </g>
    </g>
    <g id="xtick_9">
     <g id="line2d_9">
      <g>
       <use xlink:href="#mf57f427587" x="400.376534" y="242.44" style="stroke: #000000; stroke-width: 0.8"/>
      </g>
     </g>
     <g id="text_9">
      <!-- 2.00 -->
      <g transform="translate(389.243722 257.038438) scale(0.1 -0.1)">
       <use xlink:href="#DejaVuSans-32"/>
       <use xlink:href="#DejaVuSans-2e" x="63.623047"/>
       <use xlink:href="#DejaVuSans-30" x="95.410156"/>
       <use xlink:href="#DejaVuSans-30" x="159.033203"/>
      </g>
     </g>
    </g>
    <g id="text_10">
     <!-- x [m] -->
     <g transform="translate(218.765312 270.716563) scale(0.1 -0.1)">
      <defs>
       <path id="DejaVuSans-78" d="M 3513 3500 
L 2247 1797 
L 3578 0 
L 2900 0 
L 1881 1375 
L 863 0 
L 184 0 
L 1544 1831 
L 300 3500 
L 978 3500 
L 1906 2253 
L 2834 3500 
L 3513 3500 
z
" transform="scale(0.015625)"/>
       <path id="DejaVuSans-20" transform="scale(0.015625)"/>
       <path id="DejaVuSans-5b" d="M 550 4863 
L 1875 4863 
L 1875 4416 
L 1125 4416 
L 1125 -397 
L 1875 -397 
L 1875 -844 
L 550 -844 
L 550 4863 
z
" transform="scale(0.015625)"/>
       <path id="DejaVuSans-6d" d="M 3328 2828 
Q 3544 3216 3844 3400 
Q 4144 3584 4550 3584 
Q 5097 3584 5394 3201 
Q 5691 2819 5691 2113 
L 5691 0 
L 5113 0 
L 5113 2094 
Q 5113 2597 4934 2840 
Q 4756 3084 4391 3084 
Q 3944 3084 3684 2787 
Q 3425 2491 3425 1978 
L 3425 0 
L 2847 0 
L 2847 2094 
Q 2847 2600 2669 2842 
Q 2491 3084 2119 3084 
Q 1678 3084 1418 2786 
Q 1159 2488 1159 1978 
L 1159 0 
L 581 0 
L 581 3500 
L 1159 3500 
L 1159 2956 
Q 1356 3278 1631 3431 
Q 1906 3584 2284 3584 
Q 2666 3584 2933 3390 
Q 3200 3197 3328 2828 
z
" transform="scale(0.015625)"/>
       <path id="DejaVuSans-5d" d="M 1947 4863 
L 1947 -844 
L 622 -844 
L 622 -397 
L 1369 -397 
L 1369 4416 
L 622 4416 
L 622 4863 
L 1947 4863 
z
" transform="scale(0.015625)"/>
      </defs>
      <use xlink:href="#DejaVuSans-78"/>
      <use xlink:href="#DejaVuSans-20" x="59.179688"/>
      <use xlink:href="#DejaVuSans-5b" x="90.966797"/>
      <use xlink:href="#DejaVuSans-6d" x="129.980469"/>
      <use xlink:href="#DejaVuSans-5d" x="227.392578"/>
     </g>
    </g>
   </g>
   <g id="matplotlib.axis_2">
    <g id="ytick_1">
     <g id="line2d_10">
      <defs>
       <path id="m301219f6a0" d="M 0 0 
L -3.5 0 
" style="stroke: #000000; stroke-width: 0.8"/>
      </defs>
      <g>
       <use xlink:href="#m301219f6a0" x="46.965625" y="238.349839" style="stroke: #000000; stroke-width: 0.8"/>
      </g>
     </g>
     <g id="text_11">
      <!-- 98 -->
      <g transform="translate(27.240625 242.149058) scale(0.1 -0.1)">
       <defs>
        <path id="DejaVuSans-39" d="M 703 97 
L 703 672 
Q 941 559 1184 500 
Q 1428 441 1663 441 
Q 2288 441 2617 861 
Q 2947 1281 2994 2138 
Q 2813 1869 2534 1725 
Q 2256 1581 1919 1581 
Q 1219 1581 811 2004 
Q 403 2428 403 3163 
Q 403 3881 828 4315 
Q 1253 4750 1959 4750 
Q 2769 4750 3195 4129 
Q 3622 3509 3622 2328 
Q 3622 1225 3098 567 
Q 2575 -91 1691 -91 
Q 1453 -91 1209 -44 
Q 966 3 703 97 
z
M 1959 2075 
Q 2384 2075 2632 2365 
Q 2881 2656 2881 3163 
Q 2881 3666 2632 3958 
Q 2384 4250 1959 4250 
Q 1534 4250 1286 3958 
Q 1038 3666 1038 3163 
Q 1038 2656 1286 2365 
Q 1534 2075 1959 2075 
z
" transform="scale(0.015625)"/>
        <path id="DejaVuSans-38" d="M 2034 2216 
Q 1584 2216 1326 1975 
Q 1069 1734 1069 1313 
Q 1069 891 1326 650 
Q 1584 409 2034 409 
Q 2484 409 2743 651 
Q 3003 894 3003 1313 
Q 3003 1734 2745 1975 
Q 2488 2216 2034 2216 
z
M 1403 2484 
Q 997 2584 770 2862 
Q 544 3141 544 3541 
Q 544 4100 942 4425 
Q 1341 4750 2034 4750 
Q 2731 4750 3128 4425 
Q 3525 4100 3525 3541 
Q 3525 3141 3298 2862 
Q 3072 2584 2669 2484 
Q 3125 2378 3379 2068 
Q 3634 1759 3634 1313 
Q 3634 634 3220 271 
Q 2806 -91 2034 -91 
Q 1263 -91 848 271 
Q 434 634 434 1313 
Q 434 1759 690 2068 
Q 947 2378 1403 2484 
z
M 1172 3481 
Q 1172 3119 1398 2916 
Q 1625 2713 2034 2713 
Q 2441 2713 2670 2916 
Q 2900 3119 2900 3481 
Q 2900 3844 2670 4047 
Q 2441 4250 2034 4250 
Q 1625 4250 1398 4047 
Q 1172 3844 1172 3481 
z
" transform="scale(0.015625)"/>
       </defs>
       <use xlink:href="#DejaVuSans-39"/>
       <use xlink:href="#DejaVuSans-38" x="63.623047"/>
      </g>
     </g>
    </g>
    <g id="ytick_2">
     <g id="line2d_11">
      <g>
       <use xlink:href="#m301219f6a0" x="46.965625" y="203.10311" style="stroke: #000000; stroke-width: 0.8"/>
      </g>
     </g>
     <g id="text_12">
      <!-- 99 -->
      <g transform="translate(27.240625 206.902329) scale(0.1 -0.1)">
       <use xlink:href="#DejaVuSans-39"/>
       <use xlink:href="#DejaVuSans-39" x="63.623047"/>
      </g>
     </g>
    </g>
    <g id="ytick_3">
     <g id="line2d_12">
      <g>
       <use xlink:href="#m301219f6a0" x="46.965625" y="167.856381" style="stroke: #000000; stroke-width: 0.8"/>
      </g>
     </g>
     <g id="text_13">
      <!-- 100 -->
      <g transform="translate(20.878125 171.6556) scale(0.1 -0.1)">
       <use xlink:href="#DejaVuSans-31"/>
       <use xlink:href="#DejaVuSans-30" x="63.623047"/>
       <use xlink:href="#DejaVuSans-30" x="127.246094"/>
      </g>
     </g>
    </g>
    <g id="ytick_4">
     <g id="line2d_13">
      <g>
       <use xlink:href="#m301219f6a0" x="46.965625" y="132.609652" style="stroke: #000000; stroke-width: 0.8"/>
      </g>
     </g>
     <g id="text_14">
      <!-- 101 -->
      <g transform="translate(20.878125 136.408871) scale(0.1 -0.1)">
       <use xlink:href="#DejaVuSans-31"/>
       <use xlink:href="#DejaVuSans-30" x="63.623047"/>
       <use xlink:href="#DejaVuSans-31" x="127.246094"/>
      </g>
     </g>
    </g>
    <g id="ytick_5">
     <g id="line2d_14">
      <g>
       <use xlink:href="#m301219f6a0" x="46.965625" y="97.362923" style="stroke: #000000; stroke-width: 0.8"/>
      </g>
     </g>
     <g id="text_15">
      <!-- 102 -->
      <g transform="translate(20.878125 101.162142) scale(0.1 -0.1)">
       <use xlink:href="#DejaVuSans-31"/>
       <use xlink:href="#DejaVuSans-30" x="63.623047"/>
       <use xlink:href="#DejaVuSans-32" x="127.246094"/>
      </g>
     </g>
    </g>
    <g id="ytick_6">
     <g id="line2d_15">
      <g>
       <use xlink:href="#m301219f6a0" x="46.965625" y="62.116195" style="stroke: #000000; stroke-width: 0.8"/>
      </g>
     </g>
     <g id="text_16">
      <!-- 103 -->
      <g transform="translate(20.878125 65.915413) scale(0.1 -0.1)">
       <defs>
        <path id="DejaVuSans-33" d="M 2597 2516 
Q 3050 2419 3304 2112 
Q 3559 1806 3559 1356 
Q 3559 666 3084 287 
Q 2609 -91 1734 -91 
Q 1441 -91 1130 -33 
Q 819 25 488 141 
L 488 750 
Q 750 597 1062 519 
Q 1375 441 1716 441 
Q 2309 441 2620 675 
Q 2931 909 2931 1356 
Q 2931 1769 2642 2001 
Q 2353 2234 1838 2234 
L 1294 2234 
L 1294 2753 
L 1863 2753 
Q 2328 2753 2575 2939 
Q 2822 3125 2822 3475 
Q 2822 3834 2567 4026 
Q 2313 4219 1838 4219 
Q 1578 4219 1281 4162 
Q 984 4106 628 3988 
L 628 4550 
Q 988 4650 1302 4700 
Q 1616 4750 1894 4750 
Q 2613 4750 3031 4423 
Q 3450 4097 3450 3541 
Q 3450 3153 3228 2886 
Q 3006 2619 2597 2516 
z
" transform="scale(0.015625)"/>
       </defs>
       <use xlink:href="#DejaVuSans-31"/>
       <use xlink:href="#DejaVuSans-30" x="63.623047"/>
       <use xlink:href="#DejaVuSans-33" x="127.246094"/>
      </g>
     </g>
    </g>
    <g id="ytick_7">
     <g id="line2d_16">
      <g>
       <use xlink:href="#m301219f6a0" x="46.965625" y="26.869466" style="stroke: #000000; stroke-width: 0.8"/>
      </g>
     </g>
     <g id="text_17">
      <!-- 104 -->
      <g transform="translate(20.878125 30.668685) scale(0.1 -0.1)">
       <defs>
        <path id="DejaVuSans-34" d="M 2419 4116 
L 825 1625 
L 2419 1625 
L 2419 4116 
z
M 2253 4666 
L 3047 4666 
L 3047 1625 
L 3713 1625 
L 3713 1100 
L 3047 1100 
L 3047 0 
L 2419 0 
L 2419 1100 
L 313 1100 
L 313 1709 
L 2253 4666 
z
" transform="scale(0.015625)"/>
       </defs>
       <use xlink:href="#DejaVuSans-31"/>
       <use xlink:href="#DejaVuSans-30" x="63.623047"/>
       <use xlink:href="#DejaVuSans-34" x="127.246094"/>
      </g>
     </g>
    </g>
    <g id="text_18">
     <!-- [K] -->
     <g transform="translate(14.798438 132.000469) rotate(-90) scale(0.1 -0.1)">
      <defs>
       <path id="DejaVuSans-4b" d="M 628 4666 
L 1259 4666 
L 1259 2694 
L 3353 4666 
L 4166 4666 
L 1850 2491 
L 4331 0 
L 3500 0 
L 1259 2247 
L 1259 0 
L 628 0 
L 628 4666 
z
" transform="scale(0.015625)"/>
      </defs>
      <use xlink:href="#DejaVuSans-5b"/>
      <use xlink:href="#DejaVuSans-4b" x="39.013672"/>
      <use xlink:href="#DejaVuSans-5d" x="104.589844"/>
     </g>
    </g>
   </g>
   <g id="patch_3">
    <path d="M 46.965625 242.44 
L 46.965625 7.2 
" style="fill: none; stroke: #000000; stroke-width: 0.8; stroke-linejoin: miter; stroke-linecap: square"/>
   </g>
   <g id="patch_4">
    <path d="M 417.205625 242.44 
L 417.205625 7.2 
" style="fill: none; stroke: #000000; stroke-width: 0.8; stroke-linejoin: miter; stroke-linecap: square"/>
   </g>
   <g id="patch_5">
    <path d="M 46.965625 242.44 
L 417.205625 242.44 
" style="fill: none; stroke: #000000; stroke-width: 0.8; stroke-linejoin: miter; stroke-linecap: square"/>
   </g>
   <g id="patch_6">
    <path d="M 46.965625 7.2 
L 417.205625 7.2 
" style="fill: none; stroke: #000000; stroke-width: 0.8; stroke-linejoin: miter; stroke-linecap: square"/>
   </g>
   <g id="legend_1">
    <g id="patch_7">
     <path d="M 345.680625 29.878125 
L 410.205625 29.878125 
Q 412.205625 29.878125 412.205625 27.878125 
L 412.205625 14.2 
Q 412.205625 12.2 410.205625 12.2 
L 345.680625 12.2 
Q 343.680625 12.2 343.680625 14.2 
L 343.680625 27.878125 
Q 343.680625 29.878125 345.680625 29.878125 
z
" style="fill: #ffffff; opacity: 0.8; stroke: #cccccc; stroke-linejoin: miter"/>
    </g>
    <g id="line2d_17">
     <defs>
      <path id="m8f8e784c4e" d="M 0 3 
C 0.795609 3 1.55874 2.683901 2.12132 2.12132 
C 2.683901 1.55874 3 0.795609 3 0 
C 3 -0.795609 2.683901 -1.55874 2.12132 -2.12132 
C 1.55874 -2.683901 0.795609 -3 0 -3 
C -0.795609 -3 -1.55874 -2.683901 -2.12132 -2.12132 
C -2.683901 -1.55874 -3 -0.795609 -3 0 
C -3 0.795609 -2.683901 1.55874 -2.12132 2.12132 
C -1.55874 2.683901 -0.795609 3 0 3 
z
" style="stroke: #1f77b4"/>
     </defs>
     <g>
      <use xlink:href="#m8f8e784c4e" x="357.680625" y="20.298438" style="fill: #1f77b4; stroke: #1f77b4"/>
     </g>
    </g>
    <g id="text_19">
     <!-- temp2 -->
     <g transform="translate(375.680625 23.798438) scale(0.1 -0.1)">
      <defs>
       <path id="DejaVuSans-74" d="M 1172 4494 
L 1172 3500 
L 2356 3500 
L 2356 3053 
L 1172 3053 
L 1172 1153 
Q 1172 725 1289 603 
Q 1406 481 1766 481 
L 2356 481 
L 2356 0 
L 1766 0 
Q 1100 0 847 248 
Q 594 497 594 1153 
L 594 3053 
L 172 3053 
L 172 3500 
L 594 3500 
L 594 4494 
L 1172 4494 
z
" transform="scale(0.015625)"/>
       <path id="DejaVuSans-65" d="M 3597 1894 
L 3597 1613 
L 953 1613 
Q 991 1019 1311 708 
Q 1631 397 2203 397 
Q 2534 397 2845 478 
Q 3156 559 3463 722 
L 3463 178 
Q 3153 47 2828 -22 
Q 2503 -91 2169 -91 
Q 1331 -91 842 396 
Q 353 884 353 1716 
Q 353 2575 817 3079 
Q 1281 3584 2069 3584 
Q 2775 3584 3186 3129 
Q 3597 2675 3597 1894 
z
M 3022 2063 
Q 3016 2534 2758 2815 
Q 2500 3097 2075 3097 
Q 1594 3097 1305 2825 
Q 1016 2553 972 2059 
L 3022 2063 
z
" transform="scale(0.015625)"/>
       <path id="DejaVuSans-70" d="M 1159 525 
L 1159 -1331 
L 581 -1331 
L 581 3500 
L 1159 3500 
L 1159 2969 
Q 1341 3281 1617 3432 
Q 1894 3584 2278 3584 
Q 2916 3584 3314 3078 
Q 3713 2572 3713 1747 
Q 3713 922 3314 415 
Q 2916 -91 2278 -91 
Q 1894 -91 1617 61 
Q 1341 213 1159 525 
z
M 3116 1747 
Q 3116 2381 2855 2742 
Q 2594 3103 2138 3103 
Q 1681 3103 1420 2742 
Q 1159 2381 1159 1747 
Q 1159 1113 1420 752 
Q 1681 391 2138 391 
Q 2594 391 2855 752 
Q 3116 1113 3116 1747 
z
" transform="scale(0.015625)"/>
      </defs>
      <use xlink:href="#DejaVuSans-74"/>
      <use xlink:href="#DejaVuSans-65" x="39.208984"/>
      <use xlink:href="#DejaVuSans-6d" x="100.732422"/>
      <use xlink:href="#DejaVuSans-70" x="198.144531"/>
      <use xlink:href="#DejaVuSans-32" x="261.621094"/>
     </g>
    </g>
   </g>
   <g id="line2d_18">
    <g clip-path="url(#p41703d4130)">
     <use xlink:href="#m8f8e784c4e" x="63.794716" y="175.360469" style="fill: #1f77b4; stroke: #1f77b4"/>
     <use xlink:href="#m8f8e784c4e" x="70.663733" y="192.508157" style="fill: #1f77b4; stroke: #1f77b4"/>
     <use xlink:href="#m8f8e784c4e" x="77.532749" y="167.893982" style="fill: #1f77b4; stroke: #1f77b4"/>
     <use xlink:href="#m8f8e784c4e" x="84.401766" y="194.564889" style="fill: #1f77b4; stroke: #1f77b4"/>
     <use xlink:href="#m8f8e784c4e" x="91.270783" y="182.624231" style="fill: #1f77b4; stroke: #1f77b4"/>
     <use xlink:href="#m8f8e784c4e" x="98.139799" y="187.016435" style="fill: #1f77b4; stroke: #1f77b4"/>
     <use xlink:href="#m8f8e784c4e" x="105.008816" y="174.282343" style="fill: #1f77b4; stroke: #1f77b4"/>
     <use xlink:href="#m8f8e784c4e" x="111.877833" y="159.929543" style="fill: #1f77b4; stroke: #1f77b4"/>
     <use xlink:href="#m8f8e784c4e" x="118.746849" y="177.710023" style="fill: #1f77b4; stroke: #1f77b4"/>
     <use xlink:href="#m8f8e784c4e" x="125.615866" y="181.847862" style="fill: #1f77b4; stroke: #1f77b4"/>
     <use xlink:href="#m8f8e784c4e" x="132.484883" y="167.264351" style="fill: #1f77b4; stroke: #1f77b4"/>
     <use xlink:href="#m8f8e784c4e" x="139.3539" y="172.368582" style="fill: #1f77b4; stroke: #1f77b4"/>
     <use xlink:href="#m8f8e784c4e" x="146.222916" y="174.008806" style="fill: #1f77b4; stroke: #1f77b4"/>
     <use xlink:href="#m8f8e784c4e" x="153.091933" y="154.594773" style="fill: #1f77b4; stroke: #1f77b4"/>
     <use xlink:href="#m8f8e784c4e" x="159.96095" y="162.363567" style="fill: #1f77b4; stroke: #1f77b4"/>
     <use xlink:href="#m8f8e784c4e" x="166.829966" y="147.048044" style="fill: #1f77b4; stroke: #1f77b4"/>
     <use xlink:href="#m8f8e784c4e" x="173.698983" y="161.543435" style="fill: #1f77b4; stroke: #1f77b4"/>
     <use xlink:href="#m8f8e784c4e" x="180.568" y="133.211334" style="fill: #1f77b4; stroke: #1f77b4"/>
     <use xlink:href="#m8f8e784c4e" x="187.437016" y="151.390837" style="fill: #1f77b4; stroke: #1f77b4"/>
     <use xlink:href="#m8f8e784c4e" x="194.306033" y="158.38345" style="fill: #1f77b4; stroke: #1f77b4"/>
     <use xlink:href="#m8f8e784c4e" x="201.17505" y="137.769846" style="fill: #1f77b4; stroke: #1f77b4"/>
     <use xlink:href="#m8f8e784c4e" x="208.044067" y="125.106722" style="fill: #1f77b4; stroke: #1f77b4"/>
     <use xlink:href="#m8f8e784c4e" x="214.913083" y="140.10607" style="fill: #1f77b4; stroke: #1f77b4"/>
     <use xlink:href="#m8f8e784c4e" x="221.7821" y="119.823769" style="fill: #1f77b4; stroke: #1f77b4"/>
     <use xlink:href="#m8f8e784c4e" x="228.651117" y="133.692306" style="fill: #1f77b4; stroke: #1f77b4"/>
     <use xlink:href="#m8f8e784c4e" x="235.520133" y="134.166117" style="fill: #1f77b4; stroke: #1f77b4"/>
     <use xlink:href="#m8f8e784c4e" x="242.38915" y="125.135577" style="fill: #1f77b4; stroke: #1f77b4"/>
     <use xlink:href="#m8f8e784c4e" x="249.258167" y="109.764213" style="fill: #1f77b4; stroke: #1f77b4"/>
     <use xlink:href="#m8f8e784c4e" x="256.127183" y="109.232986" style="fill: #1f77b4; stroke: #1f77b4"/>
     <use xlink:href="#m8f8e784c4e" x="262.9962" y="124.307097" style="fill: #1f77b4; stroke: #1f77b4"/>
     <use xlink:href="#m8f8e784c4e" x="269.865217" y="111.656757" style="fill: #1f77b4; stroke: #1f77b4"/>
     <use xlink:href="#m8f8e784c4e" x="276.734234" y="118.673734" style="fill: #1f77b4; stroke: #1f77b4"/>
     <use xlink:href="#m8f8e784c4e" x="283.60325" y="115.391772" style="fill: #1f77b4; stroke: #1f77b4"/>
     <use xlink:href="#m8f8e784c4e" x="290.472267" y="104.193956" style="fill: #1f77b4; stroke: #1f77b4"/>
     <use xlink:href="#m8f8e784c4e" x="297.341284" y="115.117106" style="fill: #1f77b4; stroke: #1f77b4"/>
     <use xlink:href="#m8f8e784c4e" x="304.2103" y="101.686262" style="fill: #1f77b4; stroke: #1f77b4"/>
     <use xlink:href="#m8f8e784c4e" x="311.079317" y="100.350982" style="fill: #1f77b4; stroke: #1f77b4"/>
     <use xlink:href="#m8f8e784c4e" x="317.948334" y="90.406424" style="fill: #1f77b4; stroke: #1f77b4"/>
     <use xlink:href="#m8f8e784c4e" x="324.81735" y="117.049517" style="fill: #1f77b4; stroke: #1f77b4"/>
     <use xlink:href="#m8f8e784c4e" x="331.686367" y="93.247155" style="fill: #1f77b4; stroke: #1f77b4"/>
     <use xlink:href="#m8f8e784c4e" x="338.555384" y="84.095931" style="fill: #1f77b4; stroke: #1f77b4"/>
     <use xlink:href="#m8f8e784c4e" x="345.424401" y="80.510395" style="fill: #1f77b4; stroke: #1f77b4"/>
     <use xlink:href="#m8f8e784c4e" x="352.293417" y="111.950315" style="fill: #1f77b4; stroke: #1f77b4"/>
     <use xlink:href="#m8f8e784c4e" x="359.162434" y="79.870213" style="fill: #1f77b4; stroke: #1f77b4"/>
     <use xlink:href="#m8f8e784c4e" x="366.031451" y="73.568823" style="fill: #1f77b4; stroke: #1f77b4"/>
     <use xlink:href="#m8f8e784c4e" x="372.900467" y="72.256248" style="fill: #1f77b4; stroke: #1f77b4"/>
     <use xlink:href="#m8f8e784c4e" x="379.769484" y="98.593368" style="fill: #1f77b4; stroke: #1f77b4"/>
     <use xlink:href="#m8f8e784c4e" x="386.638501" y="67.396865" style="fill: #1f77b4; stroke: #1f77b4"/>
     <use xlink:href="#m8f8e784c4e" x="393.507517" y="68.153569" style="fill: #1f77b4; stroke: #1f77b4"/>
     <use xlink:href="#m8f8e784c4e" x="400.376534" y="68.376936" style="fill: #1f77b4; stroke: #1f77b4"/>
    </g>
   </g>
   <g id="LineCollection_1">
    <path d="M 63.794716 222.479141 
L 63.794716 128.241798 
" clip-path="url(#p41703d4130)" style="fill: none; stroke: #1f77b4; stroke-width: 1.5"/>
    <path d="M 70.663733 231.747273 
L 70.663733 153.269042 
" clip-path="url(#p41703d4130)" style="fill: none; stroke: #1f77b4; stroke-width: 1.5"/>
    <path d="M 77.532749 216.176652 
L 77.532749 119.611312 
" clip-path="url(#p41703d4130)" style="fill: none; stroke: #1f77b4; stroke-width: 1.5"/>
    <path d="M 84.401766 230.829098 
L 84.401766 158.300681 
" clip-path="url(#p41703d4130)" style="fill: none; stroke: #1f77b4; stroke-width: 1.5"/>
    <path d="M 91.270783 223.366112 
L 91.270783 141.882351 
" clip-path="url(#p41703d4130)" style="fill: none; stroke: #1f77b4; stroke-width: 1.5"/>
    <path d="M 98.139799 224.818934 
L 98.139799 149.213937 
" clip-path="url(#p41703d4130)" style="fill: none; stroke: #1f77b4; stroke-width: 1.5"/>
    <path d="M 105.008816 216.729991 
L 105.008816 131.834694 
" clip-path="url(#p41703d4130)" style="fill: none; stroke: #1f77b4; stroke-width: 1.5"/>
    <path d="M 111.877833 207.169685 
L 111.877833 112.689402 
" clip-path="url(#p41703d4130)" style="fill: none; stroke: #1f77b4; stroke-width: 1.5"/>
    <path d="M 118.746849 216.81074 
L 118.746849 138.609306 
" clip-path="url(#p41703d4130)" style="fill: none; stroke: #1f77b4; stroke-width: 1.5"/>
    <path d="M 125.615866 217.999759 
L 125.615866 145.695966 
" clip-path="url(#p41703d4130)" style="fill: none; stroke: #1f77b4; stroke-width: 1.5"/>
    <path d="M 132.484883 209.036585 
L 132.484883 125.492117 
" clip-path="url(#p41703d4130)" style="fill: none; stroke: #1f77b4; stroke-width: 1.5"/>
    <path d="M 139.3539 210.955509 
L 139.3539 133.781654 
" clip-path="url(#p41703d4130)" style="fill: none; stroke: #1f77b4; stroke-width: 1.5"/>
    <path d="M 146.222916 210.820181 
L 146.222916 137.197432 
" clip-path="url(#p41703d4130)" style="fill: none; stroke: #1f77b4; stroke-width: 1.5"/>
    <path d="M 153.091933 198.903884 
L 153.091933 110.285662 
" clip-path="url(#p41703d4130)" style="fill: none; stroke: #1f77b4; stroke-width: 1.5"/>
    <path d="M 159.96095 202.530862 
L 159.96095 122.196271 
" clip-path="url(#p41703d4130)" style="fill: none; stroke: #1f77b4; stroke-width: 1.5"/>
    <path d="M 166.829966 192.624053 
L 166.829966 101.472035 
" clip-path="url(#p41703d4130)" style="fill: none; stroke: #1f77b4; stroke-width: 1.5"/>
    <path d="M 173.698983 200.146496 
L 173.698983 122.940375 
" clip-path="url(#p41703d4130)" style="fill: none; stroke: #1f77b4; stroke-width: 1.5"/>
    <path d="M 180.568 182.331076 
L 180.568 84.091592 
" clip-path="url(#p41703d4130)" style="fill: none; stroke: #1f77b4; stroke-width: 1.5"/>
    <path d="M 187.437016 192.572385 
L 187.437016 110.209289 
" clip-path="url(#p41703d4130)" style="fill: none; stroke: #1f77b4; stroke-width: 1.5"/>
    <path d="M 194.306033 195.442754 
L 194.306033 121.324145 
" clip-path="url(#p41703d4130)" style="fill: none; stroke: #1f77b4; stroke-width: 1.5"/>
    <path d="M 201.17505 182.757544 
L 201.17505 92.782147 
" clip-path="url(#p41703d4130)" style="fill: none; stroke: #1f77b4; stroke-width: 1.5"/>
    <path d="M 208.044067 174.036933 
L 208.044067 76.176511 
" clip-path="url(#p41703d4130)" style="fill: none; stroke: #1f77b4; stroke-width: 1.5"/>
    <path d="M 214.913083 182.407683 
L 214.913083 97.804457 
" clip-path="url(#p41703d4130)" style="fill: none; stroke: #1f77b4; stroke-width: 1.5"/>
    <path d="M 221.7821 169.101047 
L 221.7821 70.546491 
" clip-path="url(#p41703d4130)" style="fill: none; stroke: #1f77b4; stroke-width: 1.5"/>
    <path d="M 228.651117 176.859057 
L 228.651117 90.525555 
" clip-path="url(#p41703d4130)" style="fill: none; stroke: #1f77b4; stroke-width: 1.5"/>
    <path d="M 235.520133 176.244698 
L 235.520133 92.087536 
" clip-path="url(#p41703d4130)" style="fill: none; stroke: #1f77b4; stroke-width: 1.5"/>
    <path d="M 242.38915 170.000294 
L 242.38915 80.27086 
" clip-path="url(#p41703d4130)" style="fill: none; stroke: #1f77b4; stroke-width: 1.5"/>
    <path d="M 249.258167 159.549472 
L 249.258167 59.978954 
" clip-path="url(#p41703d4130)" style="fill: none; stroke: #1f77b4; stroke-width: 1.5"/>
    <path d="M 256.127183 158.439031 
L 256.127183 60.026941 
" clip-path="url(#p41703d4130)" style="fill: none; stroke: #1f77b4; stroke-width: 1.5"/>
    <path d="M 262.9962 166.89654 
L 262.9962 81.717654 
" clip-path="url(#p41703d4130)" style="fill: none; stroke: #1f77b4; stroke-width: 1.5"/>
    <path d="M 269.865217 158.386647 
L 269.865217 64.926867 
" clip-path="url(#p41703d4130)" style="fill: none; stroke: #1f77b4; stroke-width: 1.5"/>
    <path d="M 276.734234 161.804883 
L 276.734234 75.542586 
" clip-path="url(#p41703d4130)" style="fill: none; stroke: #1f77b4; stroke-width: 1.5"/>
    <path d="M 283.60325 158.979767 
L 283.60325 71.803778 
" clip-path="url(#p41703d4130)" style="fill: none; stroke: #1f77b4; stroke-width: 1.5"/>
    <path d="M 290.472267 151.29532 
L 290.472267 57.092591 
" clip-path="url(#p41703d4130)" style="fill: none; stroke: #1f77b4; stroke-width: 1.5"/>
    <path d="M 297.341284 157.039321 
L 297.341284 73.194891 
" clip-path="url(#p41703d4130)" style="fill: none; stroke: #1f77b4; stroke-width: 1.5"/>
    <path d="M 304.2103 148.106131 
L 304.2103 55.266393 
" clip-path="url(#p41703d4130)" style="fill: none; stroke: #1f77b4; stroke-width: 1.5"/>
    <path d="M 311.079317 146.457461 
L 311.079317 54.244504 
" clip-path="url(#p41703d4130)" style="fill: none; stroke: #1f77b4; stroke-width: 1.5"/>
    <path d="M 317.948334 139.398866 
L 317.948334 41.413982 
" clip-path="url(#p41703d4130)" style="fill: none; stroke: #1f77b4; stroke-width: 1.5"/>
    <path d="M 324.81735 154.266669 
L 324.81735 79.832365 
" clip-path="url(#p41703d4130)" style="fill: none; stroke: #1f77b4; stroke-width: 1.5"/>
    <path d="M 331.686367 139.593791 
L 331.686367 46.90052 
" clip-path="url(#p41703d4130)" style="fill: none; stroke: #1f77b4; stroke-width: 1.5"/>
    <path d="M 338.555384 133.029561 
L 338.555384 35.1623 
" clip-path="url(#p41703d4130)" style="fill: none; stroke: #1f77b4; stroke-width: 1.5"/>
    <path d="M 345.424401 129.955491 
L 345.424401 31.0653 
" clip-path="url(#p41703d4130)" style="fill: none; stroke: #1f77b4; stroke-width: 1.5"/>
    <path d="M 352.293417 147.455273 
L 352.293417 76.445358 
" clip-path="url(#p41703d4130)" style="fill: none; stroke: #1f77b4; stroke-width: 1.5"/>
    <path d="M 359.162434 127.987357 
L 359.162434 31.75307 
" clip-path="url(#p41703d4130)" style="fill: none; stroke: #1f77b4; stroke-width: 1.5"/>
    <path d="M 366.031451 123.180332 
L 366.031451 23.957314 
" clip-path="url(#p41703d4130)" style="fill: none; stroke: #1f77b4; stroke-width: 1.5"/>
    <path d="M 372.900467 121.566537 
L 372.900467 22.945959 
" clip-path="url(#p41703d4130)" style="fill: none; stroke: #1f77b4; stroke-width: 1.5"/>
    <path d="M 379.769484 136.370956 
L 379.769484 60.815779 
" clip-path="url(#p41703d4130)" style="fill: none; stroke: #1f77b4; stroke-width: 1.5"/>
    <path d="M 386.638501 116.901004 
L 386.638501 17.892727 
" clip-path="url(#p41703d4130)" style="fill: none; stroke: #1f77b4; stroke-width: 1.5"/>
    <path d="M 393.507517 116.608984 
L 393.507517 19.698154 
" clip-path="url(#p41703d4130)" style="fill: none; stroke: #1f77b4; stroke-width: 1.5"/>
    <path d="M 400.376534 115.958373 
L 400.376534 20.795499 
" clip-path="url(#p41703d4130)" style="fill: none; stroke: #1f77b4; stroke-width: 1.5"/>
   </g>
  </g>
 </g>
 <defs>
  <clipPath id="p41703d4130">
   <rect x="46.965625" y="7.2" width="370.24" height="235.24"/>
  </clipPath>
 </defs>
</svg>
