<?xml version="1.0" encoding="utf-8" standalone="no"?>
<!DOCTYPE svg PUBLIC "-//W3C//DTD SVG 1.1//EN"
  "http://www.w3.org/Graphics/SVG/1.1/DTD/svg11.dtd">
<!-- Created with matplotlib (https://matplotlib.org/) -->
<svg height="352.56375pt" version="1.1" viewBox="0 0 512.803125 352.56375" width="512.803125pt" xmlns="http://www.w3.org/2000/svg" xmlns:xlink="http://www.w3.org/1999/xlink">
 <defs>
  <style type="text/css">
*{stroke-linecap:butt;stroke-linejoin:round;}
  </style>
 </defs>
 <g id="figure_1">
  <g id="patch_1">
   <path d="M 0 352.56375 
L 512.803125 352.56375 
L 512.803125 0 
L 0 0 
z
" style="fill:#ffffff;"/>
  </g>
  <g id="axes_1">
   <g id="patch_2">
    <path d="M 40.603125 315.0075 
L 505.603125 315.0075 
L 505.603125 7.2 
L 40.603125 7.2 
z
" style="fill:#ffffff;"/>
   </g>
   <g id="matplotlib.axis_1">
    <g id="xtick_1">
     <g id="line2d_1">
      <defs>
       <path d="M 0 0 
L 0 3.5 
" id="m607a5fd92d" style="stroke:#000000;stroke-width:0.8;"/>
      </defs>
      <g>
       <use style="stroke:#000000;stroke-width:0.8;" x="61.739489" xlink:href="#m607a5fd92d" y="315.0075"/>
      </g>
     </g>
     <g id="text_1">
      <!-- 0 -->
      <defs>
       <path d="M 31.78125 66.40625 
Q 24.171875 66.40625 20.328125 58.90625 
Q 16.5 51.421875 16.5 36.375 
Q 16.5 21.390625 20.328125 13.890625 
Q 24.171875 6.390625 31.78125 6.390625 
Q 39.453125 6.390625 43.28125 13.890625 
Q 47.125 21.390625 47.125 36.375 
Q 47.125 51.421875 43.28125 58.90625 
Q 39.453125 66.40625 31.78125 66.40625 
z
M 31.78125 74.21875 
Q 44.046875 74.21875 50.515625 64.515625 
Q 56.984375 54.828125 56.984375 36.375 
Q 56.984375 17.96875 50.515625 8.265625 
Q 44.046875 -1.421875 31.78125 -1.421875 
Q 19.53125 -1.421875 13.0625 8.265625 
Q 6.59375 17.96875 6.59375 36.375 
Q 6.59375 54.828125 13.0625 64.515625 
Q 19.53125 74.21875 31.78125 74.21875 
z
" id="DejaVuSans-48"/>
      </defs>
      <g transform="translate(58.558239 329.605937)scale(0.1 -0.1)">
       <use xlink:href="#DejaVuSans-48"/>
      </g>
     </g>
    </g>
    <g id="xtick_2">
     <g id="line2d_2">
      <g>
       <use style="stroke:#000000;stroke-width:0.8;" x="133.388179" xlink:href="#m607a5fd92d" y="315.0075"/>
      </g>
     </g>
     <g id="text_2">
      <!-- 10 -->
      <defs>
       <path d="M 12.40625 8.296875 
L 28.515625 8.296875 
L 28.515625 63.921875 
L 10.984375 60.40625 
L 10.984375 69.390625 
L 28.421875 72.90625 
L 38.28125 72.90625 
L 38.28125 8.296875 
L 54.390625 8.296875 
L 54.390625 0 
L 12.40625 0 
z
" id="DejaVuSans-49"/>
      </defs>
      <g transform="translate(127.025679 329.605937)scale(0.1 -0.1)">
       <use xlink:href="#DejaVuSans-49"/>
       <use x="63.623047" xlink:href="#DejaVuSans-48"/>
      </g>
     </g>
    </g>
    <g id="xtick_3">
     <g id="line2d_3">
      <g>
       <use style="stroke:#000000;stroke-width:0.8;" x="205.036869" xlink:href="#m607a5fd92d" y="315.0075"/>
      </g>
     </g>
     <g id="text_3">
      <!-- 20 -->
      <defs>
       <path d="M 19.1875 8.296875 
L 53.609375 8.296875 
L 53.609375 0 
L 7.328125 0 
L 7.328125 8.296875 
Q 12.9375 14.109375 22.625 23.890625 
Q 32.328125 33.6875 34.8125 36.53125 
Q 39.546875 41.84375 41.421875 45.53125 
Q 43.3125 49.21875 43.3125 52.78125 
Q 43.3125 58.59375 39.234375 62.25 
Q 35.15625 65.921875 28.609375 65.921875 
Q 23.96875 65.921875 18.8125 64.3125 
Q 13.671875 62.703125 7.8125 59.421875 
L 7.8125 69.390625 
Q 13.765625 71.78125 18.9375 73 
Q 24.125 74.21875 28.421875 74.21875 
Q 39.75 74.21875 46.484375 68.546875 
Q 53.21875 62.890625 53.21875 53.421875 
Q 53.21875 48.921875 51.53125 44.890625 
Q 49.859375 40.875 45.40625 35.40625 
Q 44.1875 33.984375 37.640625 27.21875 
Q 31.109375 20.453125 19.1875 8.296875 
z
" id="DejaVuSans-50"/>
      </defs>
      <g transform="translate(198.674369 329.605937)scale(0.1 -0.1)">
       <use xlink:href="#DejaVuSans-50"/>
       <use x="63.623047" xlink:href="#DejaVuSans-48"/>
      </g>
     </g>
    </g>
    <g id="xtick_4">
     <g id="line2d_4">
      <g>
       <use style="stroke:#000000;stroke-width:0.8;" x="276.68556" xlink:href="#m607a5fd92d" y="315.0075"/>
      </g>
     </g>
     <g id="text_4">
      <!-- 30 -->
      <defs>
       <path d="M 40.578125 39.3125 
Q 47.65625 37.796875 51.625 33 
Q 55.609375 28.21875 55.609375 21.1875 
Q 55.609375 10.40625 48.1875 4.484375 
Q 40.765625 -1.421875 27.09375 -1.421875 
Q 22.515625 -1.421875 17.65625 -0.515625 
Q 12.796875 0.390625 7.625 2.203125 
L 7.625 11.71875 
Q 11.71875 9.328125 16.59375 8.109375 
Q 21.484375 6.890625 26.8125 6.890625 
Q 36.078125 6.890625 40.9375 10.546875 
Q 45.796875 14.203125 45.796875 21.1875 
Q 45.796875 27.640625 41.28125 31.265625 
Q 36.765625 34.90625 28.71875 34.90625 
L 20.21875 34.90625 
L 20.21875 43.015625 
L 29.109375 43.015625 
Q 36.375 43.015625 40.234375 45.921875 
Q 44.09375 48.828125 44.09375 54.296875 
Q 44.09375 59.90625 40.109375 62.90625 
Q 36.140625 65.921875 28.71875 65.921875 
Q 24.65625 65.921875 20.015625 65.03125 
Q 15.375 64.15625 9.8125 62.3125 
L 9.8125 71.09375 
Q 15.4375 72.65625 20.34375 73.4375 
Q 25.25 74.21875 29.59375 74.21875 
Q 40.828125 74.21875 47.359375 69.109375 
Q 53.90625 64.015625 53.90625 55.328125 
Q 53.90625 49.265625 50.4375 45.09375 
Q 46.96875 40.921875 40.578125 39.3125 
z
" id="DejaVuSans-51"/>
      </defs>
      <g transform="translate(270.32306 329.605937)scale(0.1 -0.1)">
       <use xlink:href="#DejaVuSans-51"/>
       <use x="63.623047" xlink:href="#DejaVuSans-48"/>
      </g>
     </g>
    </g>
    <g id="xtick_5">
     <g id="line2d_5">
      <g>
       <use style="stroke:#000000;stroke-width:0.8;" x="348.33425" xlink:href="#m607a5fd92d" y="315.0075"/>
      </g>
     </g>
     <g id="text_5">
      <!-- 40 -->
      <defs>
       <path d="M 37.796875 64.3125 
L 12.890625 25.390625 
L 37.796875 25.390625 
z
M 35.203125 72.90625 
L 47.609375 72.90625 
L 47.609375 25.390625 
L 58.015625 25.390625 
L 58.015625 17.1875 
L 47.609375 17.1875 
L 47.609375 0 
L 37.796875 0 
L 37.796875 17.1875 
L 4.890625 17.1875 
L 4.890625 26.703125 
z
" id="DejaVuSans-52"/>
      </defs>
      <g transform="translate(341.97175 329.605937)scale(0.1 -0.1)">
       <use xlink:href="#DejaVuSans-52"/>
       <use x="63.623047" xlink:href="#DejaVuSans-48"/>
      </g>
     </g>
    </g>
    <g id="xtick_6">
     <g id="line2d_6">
      <g>
       <use style="stroke:#000000;stroke-width:0.8;" x="419.98294" xlink:href="#m607a5fd92d" y="315.0075"/>
      </g>
     </g>
     <g id="text_6">
      <!-- 50 -->
      <defs>
       <path d="M 10.796875 72.90625 
L 49.515625 72.90625 
L 49.515625 64.59375 
L 19.828125 64.59375 
L 19.828125 46.734375 
Q 21.96875 47.46875 24.109375 47.828125 
Q 26.265625 48.1875 28.421875 48.1875 
Q 40.625 48.1875 47.75 41.5 
Q 54.890625 34.8125 54.890625 23.390625 
Q 54.890625 11.625 47.5625 5.09375 
Q 40.234375 -1.421875 26.90625 -1.421875 
Q 22.3125 -1.421875 17.546875 -0.640625 
Q 12.796875 0.140625 7.71875 1.703125 
L 7.71875 11.625 
Q 12.109375 9.234375 16.796875 8.0625 
Q 21.484375 6.890625 26.703125 6.890625 
Q 35.15625 6.890625 40.078125 11.328125 
Q 45.015625 15.765625 45.015625 23.390625 
Q 45.015625 31 40.078125 35.4375 
Q 35.15625 39.890625 26.703125 39.890625 
Q 22.75 39.890625 18.8125 39.015625 
Q 14.890625 38.140625 10.796875 36.28125 
z
" id="DejaVuSans-53"/>
      </defs>
      <g transform="translate(413.62044 329.605937)scale(0.1 -0.1)">
       <use xlink:href="#DejaVuSans-53"/>
       <use x="63.623047" xlink:href="#DejaVuSans-48"/>
      </g>
     </g>
    </g>
    <g id="xtick_7">
     <g id="line2d_7">
      <g>
       <use style="stroke:#000000;stroke-width:0.8;" x="491.63163" xlink:href="#m607a5fd92d" y="315.0075"/>
      </g>
     </g>
     <g id="text_7">
      <!-- 60 -->
      <defs>
       <path d="M 33.015625 40.375 
Q 26.375 40.375 22.484375 35.828125 
Q 18.609375 31.296875 18.609375 23.390625 
Q 18.609375 15.53125 22.484375 10.953125 
Q 26.375 6.390625 33.015625 6.390625 
Q 39.65625 6.390625 43.53125 10.953125 
Q 47.40625 15.53125 47.40625 23.390625 
Q 47.40625 31.296875 43.53125 35.828125 
Q 39.65625 40.375 33.015625 40.375 
z
M 52.59375 71.296875 
L 52.59375 62.3125 
Q 48.875 64.0625 45.09375 64.984375 
Q 41.3125 65.921875 37.59375 65.921875 
Q 27.828125 65.921875 22.671875 59.328125 
Q 17.53125 52.734375 16.796875 39.40625 
Q 19.671875 43.65625 24.015625 45.921875 
Q 28.375 48.1875 33.59375 48.1875 
Q 44.578125 48.1875 50.953125 41.515625 
Q 57.328125 34.859375 57.328125 23.390625 
Q 57.328125 12.15625 50.6875 5.359375 
Q 44.046875 -1.421875 33.015625 -1.421875 
Q 20.359375 -1.421875 13.671875 8.265625 
Q 6.984375 17.96875 6.984375 36.375 
Q 6.984375 53.65625 15.1875 63.9375 
Q 23.390625 74.21875 37.203125 74.21875 
Q 40.921875 74.21875 44.703125 73.484375 
Q 48.484375 72.75 52.59375 71.296875 
z
" id="DejaVuSans-54"/>
      </defs>
      <g transform="translate(485.26913 329.605937)scale(0.1 -0.1)">
       <use xlink:href="#DejaVuSans-54"/>
       <use x="63.623047" xlink:href="#DejaVuSans-48"/>
      </g>
     </g>
    </g>
    <g id="text_8">
     <!-- x [m] -->
     <defs>
      <path d="M 54.890625 54.6875 
L 35.109375 28.078125 
L 55.90625 0 
L 45.3125 0 
L 29.390625 21.484375 
L 13.484375 0 
L 2.875 0 
L 24.125 28.609375 
L 4.6875 54.6875 
L 15.28125 54.6875 
L 29.78125 35.203125 
L 44.28125 54.6875 
z
" id="DejaVuSans-120"/>
      <path id="DejaVuSans-32"/>
      <path d="M 8.59375 75.984375 
L 29.296875 75.984375 
L 29.296875 69 
L 17.578125 69 
L 17.578125 -6.203125 
L 29.296875 -6.203125 
L 29.296875 -13.1875 
L 8.59375 -13.1875 
z
" id="DejaVuSans-91"/>
      <path d="M 52 44.1875 
Q 55.375 50.25 60.0625 53.125 
Q 64.75 56 71.09375 56 
Q 79.640625 56 84.28125 50.015625 
Q 88.921875 44.046875 88.921875 33.015625 
L 88.921875 0 
L 79.890625 0 
L 79.890625 32.71875 
Q 79.890625 40.578125 77.09375 44.375 
Q 74.3125 48.1875 68.609375 48.1875 
Q 61.625 48.1875 57.5625 43.546875 
Q 53.515625 38.921875 53.515625 30.90625 
L 53.515625 0 
L 44.484375 0 
L 44.484375 32.71875 
Q 44.484375 40.625 41.703125 44.40625 
Q 38.921875 48.1875 33.109375 48.1875 
Q 26.21875 48.1875 22.15625 43.53125 
Q 18.109375 38.875 18.109375 30.90625 
L 18.109375 0 
L 9.078125 0 
L 9.078125 54.6875 
L 18.109375 54.6875 
L 18.109375 46.1875 
Q 21.1875 51.21875 25.484375 53.609375 
Q 29.78125 56 35.6875 56 
Q 41.65625 56 45.828125 52.96875 
Q 50 49.953125 52 44.1875 
z
" id="DejaVuSans-109"/>
      <path d="M 30.421875 75.984375 
L 30.421875 -13.1875 
L 9.71875 -13.1875 
L 9.71875 -6.203125 
L 21.390625 -6.203125 
L 21.390625 69 
L 9.71875 69 
L 9.71875 75.984375 
z
" id="DejaVuSans-93"/>
     </defs>
     <g transform="translate(259.782812 343.284062)scale(0.1 -0.1)">
      <use xlink:href="#DejaVuSans-120"/>
      <use x="59.179688" xlink:href="#DejaVuSans-32"/>
      <use x="90.966797" xlink:href="#DejaVuSans-91"/>
      <use x="129.980469" xlink:href="#DejaVuSans-109"/>
      <use x="227.392578" xlink:href="#DejaVuSans-93"/>
     </g>
    </g>
   </g>
   <g id="matplotlib.axis_2">
    <g id="ytick_1">
     <g id="line2d_8">
      <defs>
       <path d="M 0 0 
L -3.5 0 
" id="maf93485ef8" style="stroke:#000000;stroke-width:0.8;"/>
      </defs>
      <g>
       <use style="stroke:#000000;stroke-width:0.8;" x="40.603125" xlink:href="#maf93485ef8" y="270.959696"/>
      </g>
     </g>
     <g id="text_9">
      <!-- 0 -->
      <g transform="translate(27.240625 274.758914)scale(0.1 -0.1)">
       <use xlink:href="#DejaVuSans-48"/>
      </g>
     </g>
    </g>
    <g id="ytick_2">
     <g id="line2d_9">
      <g>
       <use style="stroke:#000000;stroke-width:0.8;" x="40.603125" xlink:href="#maf93485ef8" y="220.193316"/>
      </g>
     </g>
     <g id="text_10">
      <!-- 2 -->
      <g transform="translate(27.240625 223.992535)scale(0.1 -0.1)">
       <use xlink:href="#DejaVuSans-50"/>
      </g>
     </g>
    </g>
    <g id="ytick_3">
     <g id="line2d_10">
      <g>
       <use style="stroke:#000000;stroke-width:0.8;" x="40.603125" xlink:href="#maf93485ef8" y="169.426936"/>
      </g>
     </g>
     <g id="text_11">
      <!-- 4 -->
      <g transform="translate(27.240625 173.226155)scale(0.1 -0.1)">
       <use xlink:href="#DejaVuSans-52"/>
      </g>
     </g>
    </g>
    <g id="ytick_4">
     <g id="line2d_11">
      <g>
       <use style="stroke:#000000;stroke-width:0.8;" x="40.603125" xlink:href="#maf93485ef8" y="118.660556"/>
      </g>
     </g>
     <g id="text_12">
      <!-- 6 -->
      <g transform="translate(27.240625 122.459775)scale(0.1 -0.1)">
       <use xlink:href="#DejaVuSans-54"/>
      </g>
     </g>
    </g>
    <g id="ytick_5">
     <g id="line2d_12">
      <g>
       <use style="stroke:#000000;stroke-width:0.8;" x="40.603125" xlink:href="#maf93485ef8" y="67.894177"/>
      </g>
     </g>
     <g id="text_13">
      <!-- 8 -->
      <defs>
       <path d="M 31.78125 34.625 
Q 24.75 34.625 20.71875 30.859375 
Q 16.703125 27.09375 16.703125 20.515625 
Q 16.703125 13.921875 20.71875 10.15625 
Q 24.75 6.390625 31.78125 6.390625 
Q 38.8125 6.390625 42.859375 10.171875 
Q 46.921875 13.96875 46.921875 20.515625 
Q 46.921875 27.09375 42.890625 30.859375 
Q 38.875 34.625 31.78125 34.625 
z
M 21.921875 38.8125 
Q 15.578125 40.375 12.03125 44.71875 
Q 8.5 49.078125 8.5 55.328125 
Q 8.5 64.0625 14.71875 69.140625 
Q 20.953125 74.21875 31.78125 74.21875 
Q 42.671875 74.21875 48.875 69.140625 
Q 55.078125 64.0625 55.078125 55.328125 
Q 55.078125 49.078125 51.53125 44.71875 
Q 48 40.375 41.703125 38.8125 
Q 48.828125 37.15625 52.796875 32.3125 
Q 56.78125 27.484375 56.78125 20.515625 
Q 56.78125 9.90625 50.3125 4.234375 
Q 43.84375 -1.421875 31.78125 -1.421875 
Q 19.734375 -1.421875 13.25 4.234375 
Q 6.78125 9.90625 6.78125 20.515625 
Q 6.78125 27.484375 10.78125 32.3125 
Q 14.796875 37.15625 21.921875 38.8125 
z
M 18.3125 54.390625 
Q 18.3125 48.734375 21.84375 45.5625 
Q 25.390625 42.390625 31.78125 42.390625 
Q 38.140625 42.390625 41.71875 45.5625 
Q 45.3125 48.734375 45.3125 54.390625 
Q 45.3125 60.0625 41.71875 63.234375 
Q 38.140625 66.40625 31.78125 66.40625 
Q 25.390625 66.40625 21.84375 63.234375 
Q 18.3125 60.0625 18.3125 54.390625 
z
" id="DejaVuSans-56"/>
      </defs>
      <g transform="translate(27.240625 71.693396)scale(0.1 -0.1)">
       <use xlink:href="#DejaVuSans-56"/>
      </g>
     </g>
    </g>
    <g id="ytick_6">
     <g id="line2d_13">
      <g>
       <use style="stroke:#000000;stroke-width:0.8;" x="40.603125" xlink:href="#maf93485ef8" y="17.127797"/>
      </g>
     </g>
     <g id="text_14">
      <!-- 10 -->
      <g transform="translate(20.878125 20.927016)scale(0.1 -0.1)">
       <use xlink:href="#DejaVuSans-49"/>
       <use x="63.623047" xlink:href="#DejaVuSans-48"/>
      </g>
     </g>
    </g>
    <g id="text_15">
     <!--  [s] -->
     <defs>
      <path d="M 44.28125 53.078125 
L 44.28125 44.578125 
Q 40.484375 46.53125 36.375 47.5 
Q 32.28125 48.484375 27.875 48.484375 
Q 21.1875 48.484375 17.84375 46.4375 
Q 14.5 44.390625 14.5 40.28125 
Q 14.5 37.15625 16.890625 35.375 
Q 19.28125 33.59375 26.515625 31.984375 
L 29.59375 31.296875 
Q 39.15625 29.25 43.1875 25.515625 
Q 47.21875 21.78125 47.21875 15.09375 
Q 47.21875 7.46875 41.1875 3.015625 
Q 35.15625 -1.421875 24.609375 -1.421875 
Q 20.21875 -1.421875 15.453125 -0.5625 
Q 10.6875 0.296875 5.421875 2 
L 5.421875 11.28125 
Q 10.40625 8.6875 15.234375 7.390625 
Q 20.0625 6.109375 24.8125 6.109375 
Q 31.15625 6.109375 34.5625 8.28125 
Q 37.984375 10.453125 37.984375 14.40625 
Q 37.984375 18.0625 35.515625 20.015625 
Q 33.0625 21.96875 24.703125 23.78125 
L 21.578125 24.515625 
Q 13.234375 26.265625 9.515625 29.90625 
Q 5.8125 33.546875 5.8125 39.890625 
Q 5.8125 47.609375 11.28125 51.796875 
Q 16.75 56 26.8125 56 
Q 31.78125 56 36.171875 55.265625 
Q 40.578125 54.546875 44.28125 53.078125 
z
" id="DejaVuSans-115"/>
     </defs>
     <g transform="translate(14.798438 169.199062)rotate(-90)scale(0.1 -0.1)">
      <use xlink:href="#DejaVuSans-32"/>
      <use x="31.787109" xlink:href="#DejaVuSans-91"/>
      <use x="70.800781" xlink:href="#DejaVuSans-115"/>
      <use x="122.900391" xlink:href="#DejaVuSans-93"/>
     </g>
    </g>
   </g>
   <g id="patch_3">
    <path d="M 40.603125 315.0075 
L 40.603125 7.2 
" style="fill:none;stroke:#000000;stroke-linecap:square;stroke-linejoin:miter;stroke-width:0.8;"/>
   </g>
   <g id="patch_4">
    <path d="M 505.603125 315.0075 
L 505.603125 7.2 
" style="fill:none;stroke:#000000;stroke-linecap:square;stroke-linejoin:miter;stroke-width:0.8;"/>
   </g>
   <g id="patch_5">
    <path d="M 40.603125 315.0075 
L 505.603125 315.0075 
" style="fill:none;stroke:#000000;stroke-linecap:square;stroke-linejoin:miter;stroke-width:0.8;"/>
   </g>
   <g id="patch_6">
    <path d="M 40.603125 7.2 
L 505.603125 7.2 
" style="fill:none;stroke:#000000;stroke-linecap:square;stroke-linejoin:miter;stroke-width:0.8;"/>
   </g>
   <g id="legend_1">
    <g id="patch_7">
     <path d="M 47.603125 44.55625 
L 145.49375 44.55625 
Q 147.49375 44.55625 147.49375 42.55625 
L 147.49375 14.2 
Q 147.49375 12.2 145.49375 12.2 
L 47.603125 12.2 
Q 45.603125 12.2 45.603125 14.2 
L 45.603125 42.55625 
Q 45.603125 44.55625 47.603125 44.55625 
z
" style="fill:#ffffff;opacity:0.8;stroke:#cccccc;stroke-linejoin:miter;"/>
    </g>
    <g id="line2d_14">
     <path d="M 49.603125 20.298437 
L 69.603125 20.298437 
" style="fill:none;stroke:#2ca02c;stroke-linecap:square;stroke-width:1.5;"/>
    </g>
    <g id="line2d_15"/>
    <g id="text_16">
     <!-- OtherNoise -->
     <defs>
      <path d="M 39.40625 66.21875 
Q 28.65625 66.21875 22.328125 58.203125 
Q 16.015625 50.203125 16.015625 36.375 
Q 16.015625 22.609375 22.328125 14.59375 
Q 28.65625 6.59375 39.40625 6.59375 
Q 50.140625 6.59375 56.421875 14.59375 
Q 62.703125 22.609375 62.703125 36.375 
Q 62.703125 50.203125 56.421875 58.203125 
Q 50.140625 66.21875 39.40625 66.21875 
z
M 39.40625 74.21875 
Q 54.734375 74.21875 63.90625 63.9375 
Q 73.09375 53.65625 73.09375 36.375 
Q 73.09375 19.140625 63.90625 8.859375 
Q 54.734375 -1.421875 39.40625 -1.421875 
Q 24.03125 -1.421875 14.8125 8.828125 
Q 5.609375 19.09375 5.609375 36.375 
Q 5.609375 53.65625 14.8125 63.9375 
Q 24.03125 74.21875 39.40625 74.21875 
z
" id="DejaVuSans-79"/>
      <path d="M 18.3125 70.21875 
L 18.3125 54.6875 
L 36.8125 54.6875 
L 36.8125 47.703125 
L 18.3125 47.703125 
L 18.3125 18.015625 
Q 18.3125 11.328125 20.140625 9.421875 
Q 21.96875 7.515625 27.59375 7.515625 
L 36.8125 7.515625 
L 36.8125 0 
L 27.59375 0 
Q 17.1875 0 13.234375 3.875 
Q 9.28125 7.765625 9.28125 18.015625 
L 9.28125 47.703125 
L 2.6875 47.703125 
L 2.6875 54.6875 
L 9.28125 54.6875 
L 9.28125 70.21875 
z
" id="DejaVuSans-116"/>
      <path d="M 54.890625 33.015625 
L 54.890625 0 
L 45.90625 0 
L 45.90625 32.71875 
Q 45.90625 40.484375 42.875 44.328125 
Q 39.84375 48.1875 33.796875 48.1875 
Q 26.515625 48.1875 22.3125 43.546875 
Q 18.109375 38.921875 18.109375 30.90625 
L 18.109375 0 
L 9.078125 0 
L 9.078125 75.984375 
L 18.109375 75.984375 
L 18.109375 46.1875 
Q 21.34375 51.125 25.703125 53.5625 
Q 30.078125 56 35.796875 56 
Q 45.21875 56 50.046875 50.171875 
Q 54.890625 44.34375 54.890625 33.015625 
z
" id="DejaVuSans-104"/>
      <path d="M 56.203125 29.59375 
L 56.203125 25.203125 
L 14.890625 25.203125 
Q 15.484375 15.921875 20.484375 11.0625 
Q 25.484375 6.203125 34.421875 6.203125 
Q 39.59375 6.203125 44.453125 7.46875 
Q 49.3125 8.734375 54.109375 11.28125 
L 54.109375 2.78125 
Q 49.265625 0.734375 44.1875 -0.34375 
Q 39.109375 -1.421875 33.890625 -1.421875 
Q 20.796875 -1.421875 13.15625 6.1875 
Q 5.515625 13.8125 5.515625 26.8125 
Q 5.515625 40.234375 12.765625 48.109375 
Q 20.015625 56 32.328125 56 
Q 43.359375 56 49.78125 48.890625 
Q 56.203125 41.796875 56.203125 29.59375 
z
M 47.21875 32.234375 
Q 47.125 39.59375 43.09375 43.984375 
Q 39.0625 48.390625 32.421875 48.390625 
Q 24.90625 48.390625 20.390625 44.140625 
Q 15.875 39.890625 15.1875 32.171875 
z
" id="DejaVuSans-101"/>
      <path d="M 41.109375 46.296875 
Q 39.59375 47.171875 37.8125 47.578125 
Q 36.03125 48 33.890625 48 
Q 26.265625 48 22.1875 43.046875 
Q 18.109375 38.09375 18.109375 28.8125 
L 18.109375 0 
L 9.078125 0 
L 9.078125 54.6875 
L 18.109375 54.6875 
L 18.109375 46.1875 
Q 20.953125 51.171875 25.484375 53.578125 
Q 30.03125 56 36.53125 56 
Q 37.453125 56 38.578125 55.875 
Q 39.703125 55.765625 41.0625 55.515625 
z
" id="DejaVuSans-114"/>
      <path d="M 9.8125 72.90625 
L 23.09375 72.90625 
L 55.421875 11.921875 
L 55.421875 72.90625 
L 64.984375 72.90625 
L 64.984375 0 
L 51.703125 0 
L 19.390625 60.984375 
L 19.390625 0 
L 9.8125 0 
z
" id="DejaVuSans-78"/>
      <path d="M 30.609375 48.390625 
Q 23.390625 48.390625 19.1875 42.75 
Q 14.984375 37.109375 14.984375 27.296875 
Q 14.984375 17.484375 19.15625 11.84375 
Q 23.34375 6.203125 30.609375 6.203125 
Q 37.796875 6.203125 41.984375 11.859375 
Q 46.1875 17.53125 46.1875 27.296875 
Q 46.1875 37.015625 41.984375 42.703125 
Q 37.796875 48.390625 30.609375 48.390625 
z
M 30.609375 56 
Q 42.328125 56 49.015625 48.375 
Q 55.71875 40.765625 55.71875 27.296875 
Q 55.71875 13.875 49.015625 6.21875 
Q 42.328125 -1.421875 30.609375 -1.421875 
Q 18.84375 -1.421875 12.171875 6.21875 
Q 5.515625 13.875 5.515625 27.296875 
Q 5.515625 40.765625 12.171875 48.375 
Q 18.84375 56 30.609375 56 
z
" id="DejaVuSans-111"/>
      <path d="M 9.421875 54.6875 
L 18.40625 54.6875 
L 18.40625 0 
L 9.421875 0 
z
M 9.421875 75.984375 
L 18.40625 75.984375 
L 18.40625 64.59375 
L 9.421875 64.59375 
z
" id="DejaVuSans-105"/>
     </defs>
     <g transform="translate(77.603125 23.798437)scale(0.1 -0.1)">
      <use xlink:href="#DejaVuSans-79"/>
      <use x="78.710938" xlink:href="#DejaVuSans-116"/>
      <use x="117.919922" xlink:href="#DejaVuSans-104"/>
      <use x="181.298828" xlink:href="#DejaVuSans-101"/>
      <use x="242.822266" xlink:href="#DejaVuSans-114"/>
      <use x="283.935547" xlink:href="#DejaVuSans-78"/>
      <use x="358.740234" xlink:href="#DejaVuSans-111"/>
      <use x="419.921875" xlink:href="#DejaVuSans-105"/>
      <use x="447.705078" xlink:href="#DejaVuSans-115"/>
      <use x="499.804688" xlink:href="#DejaVuSans-101"/>
     </g>
    </g>
    <g id="line2d_16"/>
    <g id="line2d_17">
     <defs>
      <path d="M -0 4.242641 
L 2.545584 0 
L 0 -4.242641 
L -2.545584 -0 
z
" id="m1524a078b8" style="stroke:#d62728;stroke-linejoin:miter;"/>
     </defs>
     <g>
      <use style="fill:#d62728;stroke:#d62728;stroke-linejoin:miter;" x="59.603125" xlink:href="#m1524a078b8" y="34.976562"/>
     </g>
    </g>
    <g id="text_17">
     <!-- OtherSample -->
     <defs>
      <path d="M 53.515625 70.515625 
L 53.515625 60.890625 
Q 47.90625 63.578125 42.921875 64.890625 
Q 37.9375 66.21875 33.296875 66.21875 
Q 25.25 66.21875 20.875 63.09375 
Q 16.5 59.96875 16.5 54.203125 
Q 16.5 49.359375 19.40625 46.890625 
Q 22.3125 44.4375 30.421875 42.921875 
L 36.375 41.703125 
Q 47.40625 39.59375 52.65625 34.296875 
Q 57.90625 29 57.90625 20.125 
Q 57.90625 9.515625 50.796875 4.046875 
Q 43.703125 -1.421875 29.984375 -1.421875 
Q 24.8125 -1.421875 18.96875 -0.25 
Q 13.140625 0.921875 6.890625 3.21875 
L 6.890625 13.375 
Q 12.890625 10.015625 18.65625 8.296875 
Q 24.421875 6.59375 29.984375 6.59375 
Q 38.421875 6.59375 43.015625 9.90625 
Q 47.609375 13.234375 47.609375 19.390625 
Q 47.609375 24.75 44.3125 27.78125 
Q 41.015625 30.8125 33.5 32.328125 
L 27.484375 33.5 
Q 16.453125 35.6875 11.515625 40.375 
Q 6.59375 45.0625 6.59375 53.421875 
Q 6.59375 63.09375 13.40625 68.65625 
Q 20.21875 74.21875 32.171875 74.21875 
Q 37.3125 74.21875 42.625 73.28125 
Q 47.953125 72.359375 53.515625 70.515625 
z
" id="DejaVuSans-83"/>
      <path d="M 34.28125 27.484375 
Q 23.390625 27.484375 19.1875 25 
Q 14.984375 22.515625 14.984375 16.5 
Q 14.984375 11.71875 18.140625 8.90625 
Q 21.296875 6.109375 26.703125 6.109375 
Q 34.1875 6.109375 38.703125 11.40625 
Q 43.21875 16.703125 43.21875 25.484375 
L 43.21875 27.484375 
z
M 52.203125 31.203125 
L 52.203125 0 
L 43.21875 0 
L 43.21875 8.296875 
Q 40.140625 3.328125 35.546875 0.953125 
Q 30.953125 -1.421875 24.3125 -1.421875 
Q 15.921875 -1.421875 10.953125 3.296875 
Q 6 8.015625 6 15.921875 
Q 6 25.140625 12.171875 29.828125 
Q 18.359375 34.515625 30.609375 34.515625 
L 43.21875 34.515625 
L 43.21875 35.40625 
Q 43.21875 41.609375 39.140625 45 
Q 35.0625 48.390625 27.6875 48.390625 
Q 23 48.390625 18.546875 47.265625 
Q 14.109375 46.140625 10.015625 43.890625 
L 10.015625 52.203125 
Q 14.9375 54.109375 19.578125 55.046875 
Q 24.21875 56 28.609375 56 
Q 40.484375 56 46.34375 49.84375 
Q 52.203125 43.703125 52.203125 31.203125 
z
" id="DejaVuSans-97"/>
      <path d="M 18.109375 8.203125 
L 18.109375 -20.796875 
L 9.078125 -20.796875 
L 9.078125 54.6875 
L 18.109375 54.6875 
L 18.109375 46.390625 
Q 20.953125 51.265625 25.265625 53.625 
Q 29.59375 56 35.59375 56 
Q 45.5625 56 51.78125 48.09375 
Q 58.015625 40.1875 58.015625 27.296875 
Q 58.015625 14.40625 51.78125 6.484375 
Q 45.5625 -1.421875 35.59375 -1.421875 
Q 29.59375 -1.421875 25.265625 0.953125 
Q 20.953125 3.328125 18.109375 8.203125 
z
M 48.6875 27.296875 
Q 48.6875 37.203125 44.609375 42.84375 
Q 40.53125 48.484375 33.40625 48.484375 
Q 26.265625 48.484375 22.1875 42.84375 
Q 18.109375 37.203125 18.109375 27.296875 
Q 18.109375 17.390625 22.1875 11.75 
Q 26.265625 6.109375 33.40625 6.109375 
Q 40.53125 6.109375 44.609375 11.75 
Q 48.6875 17.390625 48.6875 27.296875 
z
" id="DejaVuSans-112"/>
      <path d="M 9.421875 75.984375 
L 18.40625 75.984375 
L 18.40625 0 
L 9.421875 0 
z
" id="DejaVuSans-108"/>
     </defs>
     <g transform="translate(77.603125 38.476562)scale(0.1 -0.1)">
      <use xlink:href="#DejaVuSans-79"/>
      <use x="78.710938" xlink:href="#DejaVuSans-116"/>
      <use x="117.919922" xlink:href="#DejaVuSans-104"/>
      <use x="181.298828" xlink:href="#DejaVuSans-101"/>
      <use x="242.822266" xlink:href="#DejaVuSans-114"/>
      <use x="283.935547" xlink:href="#DejaVuSans-83"/>
      <use x="347.412109" xlink:href="#DejaVuSans-97"/>
      <use x="408.691406" xlink:href="#DejaVuSans-109"/>
      <use x="506.103516" xlink:href="#DejaVuSans-112"/>
      <use x="569.580078" xlink:href="#DejaVuSans-108"/>
      <use x="597.363281" xlink:href="#DejaVuSans-101"/>
     </g>
    </g>
   </g>
   <g id="LineCollection_1">
    <path clip-path="url(#pddb642f8f5)" d="M 65.321923 252.103389 
L 65.321923 172.607327 
" style="fill:none;stroke:#2ca02c;stroke-width:1.5;"/>
    <path clip-path="url(#pddb642f8f5)" d="M 72.486792 152.830472 
L 72.486792 72.578945 
" style="fill:none;stroke:#2ca02c;stroke-width:1.5;"/>
    <path clip-path="url(#pddb642f8f5)" d="M 79.651661 178.260135 
L 79.651661 97.115347 
" style="fill:none;stroke:#2ca02c;stroke-width:1.5;"/>
    <path clip-path="url(#pddb642f8f5)" d="M 86.81653 198.314564 
L 86.81653 170.336445 
" style="fill:none;stroke:#2ca02c;stroke-width:1.5;"/>
    <path clip-path="url(#pddb642f8f5)" d="M 93.981399 191.733131 
L 93.981399 133.8421 
" style="fill:none;stroke:#2ca02c;stroke-width:1.5;"/>
    <path clip-path="url(#pddb642f8f5)" d="M 101.146268 237.803582 
L 101.146268 150.278231 
" style="fill:none;stroke:#2ca02c;stroke-width:1.5;"/>
    <path clip-path="url(#pddb642f8f5)" d="M 108.311137 269.016529 
L 108.311137 196.386094 
" style="fill:none;stroke:#2ca02c;stroke-width:1.5;"/>
    <path clip-path="url(#pddb642f8f5)" d="M 115.476006 175.337207 
L 115.476006 91.379128 
" style="fill:none;stroke:#2ca02c;stroke-width:1.5;"/>
    <path clip-path="url(#pddb642f8f5)" d="M 122.640875 175.5098 
L 122.640875 119.281982 
" style="fill:none;stroke:#2ca02c;stroke-width:1.5;"/>
    <path clip-path="url(#pddb642f8f5)" d="M 129.805744 152.179501 
L 129.805744 73.955137 
" style="fill:none;stroke:#2ca02c;stroke-width:1.5;"/>
    <path clip-path="url(#pddb642f8f5)" d="M 136.970613 254.311646 
L 136.970613 207.854627 
" style="fill:none;stroke:#2ca02c;stroke-width:1.5;"/>
    <path clip-path="url(#pddb642f8f5)" d="M 144.135482 160.473217 
L 144.135482 82.270025 
" style="fill:none;stroke:#2ca02c;stroke-width:1.5;"/>
    <path clip-path="url(#pddb642f8f5)" d="M 151.300352 234.111296 
L 151.300352 208.943237 
" style="fill:none;stroke:#2ca02c;stroke-width:1.5;"/>
    <path clip-path="url(#pddb642f8f5)" d="M 158.465221 146.276653 
L 158.465221 62.013833 
" style="fill:none;stroke:#2ca02c;stroke-width:1.5;"/>
    <path clip-path="url(#pddb642f8f5)" d="M 165.63009 300.423186 
L 165.63009 213.241663 
" style="fill:none;stroke:#2ca02c;stroke-width:1.5;"/>
    <path clip-path="url(#pddb642f8f5)" d="M 172.794959 246.236219 
L 172.794959 167.598242 
" style="fill:none;stroke:#2ca02c;stroke-width:1.5;"/>
    <path clip-path="url(#pddb642f8f5)" d="M 179.959828 195.846608 
L 179.959828 138.643587 
" style="fill:none;stroke:#2ca02c;stroke-width:1.5;"/>
    <path clip-path="url(#pddb642f8f5)" d="M 187.124697 206.31613 
L 187.124697 190.256014 
" style="fill:none;stroke:#2ca02c;stroke-width:1.5;"/>
    <path clip-path="url(#pddb642f8f5)" d="M 194.289566 250.430885 
L 194.289566 185.29056 
" style="fill:none;stroke:#2ca02c;stroke-width:1.5;"/>
    <path clip-path="url(#pddb642f8f5)" d="M 201.454435 178.14337 
L 201.454435 99.65857 
" style="fill:none;stroke:#2ca02c;stroke-width:1.5;"/>
    <path clip-path="url(#pddb642f8f5)" d="M 208.619304 146.339188 
L 208.619304 64.410873 
" style="fill:none;stroke:#2ca02c;stroke-width:1.5;"/>
    <path clip-path="url(#pddb642f8f5)" d="M 215.784173 198.205205 
L 215.784173 152.758316 
" style="fill:none;stroke:#2ca02c;stroke-width:1.5;"/>
    <path clip-path="url(#pddb642f8f5)" d="M 222.949042 114.180663 
L 222.949042 81.114668 
" style="fill:none;stroke:#2ca02c;stroke-width:1.5;"/>
    <path clip-path="url(#pddb642f8f5)" d="M 230.113911 128.259291 
L 230.113911 62.083564 
" style="fill:none;stroke:#2ca02c;stroke-width:1.5;"/>
    <path clip-path="url(#pddb642f8f5)" d="M 237.27878 238.995278 
L 237.27878 164.805804 
" style="fill:none;stroke:#2ca02c;stroke-width:1.5;"/>
    <path clip-path="url(#pddb642f8f5)" d="M 244.443649 255.101537 
L 244.443649 199.974511 
" style="fill:none;stroke:#2ca02c;stroke-width:1.5;"/>
    <path clip-path="url(#pddb642f8f5)" d="M 251.608518 182.342401 
L 251.608518 108.035629 
" style="fill:none;stroke:#2ca02c;stroke-width:1.5;"/>
    <path clip-path="url(#pddb642f8f5)" d="M 258.773387 208.396597 
L 258.773387 174.071971 
" style="fill:none;stroke:#2ca02c;stroke-width:1.5;"/>
    <path clip-path="url(#pddb642f8f5)" d="M 265.938256 257.26634 
L 265.938256 238.431839 
" style="fill:none;stroke:#2ca02c;stroke-width:1.5;"/>
    <path clip-path="url(#pddb642f8f5)" d="M 273.103125 193.825357 
L 273.103125 122.299708 
" style="fill:none;stroke:#2ca02c;stroke-width:1.5;"/>
    <path clip-path="url(#pddb642f8f5)" d="M 280.267994 219.158345 
L 280.267994 143.100445 
" style="fill:none;stroke:#2ca02c;stroke-width:1.5;"/>
    <path clip-path="url(#pddb642f8f5)" d="M 287.432863 183.180497 
L 287.432863 130.398944 
" style="fill:none;stroke:#2ca02c;stroke-width:1.5;"/>
    <path clip-path="url(#pddb642f8f5)" d="M 294.597732 187.316995 
L 294.597732 124.904868 
" style="fill:none;stroke:#2ca02c;stroke-width:1.5;"/>
    <path clip-path="url(#pddb642f8f5)" d="M 301.762601 301.01625 
L 301.762601 235.162415 
" style="fill:none;stroke:#2ca02c;stroke-width:1.5;"/>
    <path clip-path="url(#pddb642f8f5)" d="M 308.92747 133.962456 
L 308.92747 66.388874 
" style="fill:none;stroke:#2ca02c;stroke-width:1.5;"/>
    <path clip-path="url(#pddb642f8f5)" d="M 316.092339 300.516198 
L 316.092339 220.438377 
" style="fill:none;stroke:#2ca02c;stroke-width:1.5;"/>
    <path clip-path="url(#pddb642f8f5)" d="M 323.257208 180.253136 
L 323.257208 144.980065 
" style="fill:none;stroke:#2ca02c;stroke-width:1.5;"/>
    <path clip-path="url(#pddb642f8f5)" d="M 330.422077 144.18478 
L 330.422077 78.491707 
" style="fill:none;stroke:#2ca02c;stroke-width:1.5;"/>
    <path clip-path="url(#pddb642f8f5)" d="M 337.586946 192.413408 
L 337.586946 152.456545 
" style="fill:none;stroke:#2ca02c;stroke-width:1.5;"/>
    <path clip-path="url(#pddb642f8f5)" d="M 344.751815 124.11583 
L 344.751815 63.018359 
" style="fill:none;stroke:#2ca02c;stroke-width:1.5;"/>
    <path clip-path="url(#pddb642f8f5)" d="M 351.916684 238.568252 
L 351.916684 172.446923 
" style="fill:none;stroke:#2ca02c;stroke-width:1.5;"/>
    <path clip-path="url(#pddb642f8f5)" d="M 359.081553 156.222681 
L 359.081553 109.372851 
" style="fill:none;stroke:#2ca02c;stroke-width:1.5;"/>
    <path clip-path="url(#pddb642f8f5)" d="M 366.246422 237.773161 
L 366.246422 173.621609 
" style="fill:none;stroke:#2ca02c;stroke-width:1.5;"/>
    <path clip-path="url(#pddb642f8f5)" d="M 373.411291 290.555255 
L 373.411291 204.986405 
" style="fill:none;stroke:#2ca02c;stroke-width:1.5;"/>
    <path clip-path="url(#pddb642f8f5)" d="M 380.57616 272.842956 
L 380.57616 248.804867 
" style="fill:none;stroke:#2ca02c;stroke-width:1.5;"/>
    <path clip-path="url(#pddb642f8f5)" d="M 387.741029 266.155272 
L 387.741029 216.017012 
" style="fill:none;stroke:#2ca02c;stroke-width:1.5;"/>
    <path clip-path="url(#pddb642f8f5)" d="M 394.905898 249.384342 
L 394.905898 164.774203 
" style="fill:none;stroke:#2ca02c;stroke-width:1.5;"/>
    <path clip-path="url(#pddb642f8f5)" d="M 402.070768 162.396332 
L 402.070768 116.331143 
" style="fill:none;stroke:#2ca02c;stroke-width:1.5;"/>
    <path clip-path="url(#pddb642f8f5)" d="M 409.235637 222.123941 
L 409.235637 141.383116 
" style="fill:none;stroke:#2ca02c;stroke-width:1.5;"/>
    <path clip-path="url(#pddb642f8f5)" d="M 416.400506 198.417103 
L 416.400506 173.893198 
" style="fill:none;stroke:#2ca02c;stroke-width:1.5;"/>
    <path clip-path="url(#pddb642f8f5)" d="M 423.565375 185.456451 
L 423.565375 153.039249 
" style="fill:none;stroke:#2ca02c;stroke-width:1.5;"/>
    <path clip-path="url(#pddb642f8f5)" d="M 430.730244 245.985995 
L 430.730244 161.631765 
" style="fill:none;stroke:#2ca02c;stroke-width:1.5;"/>
    <path clip-path="url(#pddb642f8f5)" d="M 437.895113 199.507583 
L 437.895113 135.514719 
" style="fill:none;stroke:#2ca02c;stroke-width:1.5;"/>
    <path clip-path="url(#pddb642f8f5)" d="M 445.059982 157.019399 
L 445.059982 84.031001 
" style="fill:none;stroke:#2ca02c;stroke-width:1.5;"/>
    <path clip-path="url(#pddb642f8f5)" d="M 452.224851 243.570658 
L 452.224851 183.14253 
" style="fill:none;stroke:#2ca02c;stroke-width:1.5;"/>
    <path clip-path="url(#pddb642f8f5)" d="M 459.38972 259.679695 
L 459.38972 193.667163 
" style="fill:none;stroke:#2ca02c;stroke-width:1.5;"/>
    <path clip-path="url(#pddb642f8f5)" d="M 466.554589 212.379505 
L 466.554589 132.340947 
" style="fill:none;stroke:#2ca02c;stroke-width:1.5;"/>
    <path clip-path="url(#pddb642f8f5)" d="M 473.719458 162.326094 
L 473.719458 96.55415 
" style="fill:none;stroke:#2ca02c;stroke-width:1.5;"/>
    <path clip-path="url(#pddb642f8f5)" d="M 480.884327 292.22521 
L 480.884327 205.902461 
" style="fill:none;stroke:#2ca02c;stroke-width:1.5;"/>
   </g>
   <g id="line2d_18">
    <path clip-path="url(#pddb642f8f5)" d="M 61.739489 270.959696 
L 61.739489 212.355358 
L 68.904358 212.355358 
L 68.904358 112.704709 
L 76.069227 112.704709 
L 76.069227 137.687741 
L 83.234096 137.687741 
L 83.234096 184.325505 
L 90.398965 184.325505 
L 90.398965 162.787615 
L 97.563834 162.787615 
L 97.563834 194.040907 
L 104.728703 194.040907 
L 104.728703 232.701311 
L 111.893572 232.701311 
L 111.893572 133.358168 
L 119.058441 133.358168 
L 119.058441 147.395891 
L 126.22331 147.395891 
L 126.22331 113.067319 
L 133.388179 113.067319 
L 133.388179 231.083136 
L 140.553048 231.083136 
L 140.553048 121.371621 
L 147.717917 121.371621 
L 147.717917 221.527267 
L 154.882786 221.527267 
L 154.882786 104.145243 
L 162.047655 104.145243 
L 162.047655 256.832424 
L 169.212524 256.832424 
L 169.212524 206.917231 
L 176.377393 206.917231 
L 176.377393 167.245098 
L 183.542262 167.245098 
L 183.542262 198.286072 
L 190.707131 198.286072 
L 190.707131 217.860723 
L 197.872 217.860723 
L 197.872 138.90097 
L 205.036869 138.90097 
L 205.036869 105.375031 
L 212.201738 105.375031 
L 212.201738 175.48176 
L 219.366607 175.48176 
L 219.366607 97.647665 
L 226.531476 97.647665 
L 226.531476 95.171427 
L 233.696345 95.171427 
L 233.696345 201.900541 
L 240.861214 201.900541 
L 240.861214 227.538024 
L 248.026083 227.538024 
L 248.026083 145.189015 
L 255.190952 145.189015 
L 255.190952 191.234284 
L 262.355821 191.234284 
L 262.355821 247.84909 
L 269.52069 247.84909 
L 269.52069 158.062533 
L 276.68556 158.062533 
L 276.68556 181.129395 
L 283.850429 181.129395 
L 283.850429 156.78972 
L 291.015298 156.78972 
L 291.015298 156.110932 
L 298.180167 156.110932 
L 298.180167 268.089332 
L 305.345036 268.089332 
L 305.345036 100.175665 
L 312.509905 100.175665 
L 312.509905 260.477287 
L 319.674774 260.477287 
L 319.674774 162.6166 
L 326.839643 162.6166 
L 326.839643 111.338243 
L 334.004512 111.338243 
L 334.004512 172.434977 
L 341.169381 172.434977 
L 341.169381 93.567094 
L 348.33425 93.567094 
L 348.33425 205.507588 
L 355.499119 205.507588 
L 355.499119 132.797766 
L 362.663988 132.797766 
L 362.663988 205.697385 
L 369.828857 205.697385 
L 369.828857 247.77083 
L 376.993726 247.77083 
L 376.993726 260.823912 
L 384.158595 260.823912 
L 384.158595 241.086142 
L 391.323464 241.086142 
L 391.323464 207.079272 
L 398.488333 207.079272 
L 398.488333 139.363737 
L 405.653202 139.363737 
L 405.653202 181.753529 
L 412.818071 181.753529 
L 412.818071 186.155151 
L 419.98294 186.155151 
L 419.98294 169.24785 
L 427.147809 169.24785 
L 427.147809 203.80888 
L 434.312678 203.80888 
L 434.312678 167.511151 
L 441.477547 167.511151 
L 441.477547 120.5252 
L 448.642416 120.5252 
L 448.642416 213.356594 
L 455.807285 213.356594 
L 455.807285 226.673429 
L 462.972154 226.673429 
L 462.972154 172.360226 
L 470.137023 172.360226 
L 470.137023 129.440122 
L 477.301892 129.440122 
L 477.301892 249.063835 
L 484.466761 249.063835 
" style="fill:none;stroke:#2ca02c;stroke-linecap:square;stroke-width:1.5;"/>
   </g>
   <g id="line2d_19">
    <g clip-path="url(#pddb642f8f5)">
     <use style="fill:#d62728;stroke:#d62728;stroke-linejoin:miter;" x="61.739489" xlink:href="#m1524a078b8" y="269.015181"/>
     <use style="fill:#d62728;stroke:#d62728;stroke-linejoin:miter;" x="68.904358" xlink:href="#m1524a078b8" y="216.958838"/>
     <use style="fill:#d62728;stroke:#d62728;stroke-linejoin:miter;" x="76.069227" xlink:href="#m1524a078b8" y="213.780686"/>
     <use style="fill:#d62728;stroke:#d62728;stroke-linejoin:miter;" x="83.234096" xlink:href="#m1524a078b8" y="59.171244"/>
     <use style="fill:#d62728;stroke:#d62728;stroke-linejoin:miter;" x="90.398965" xlink:href="#m1524a078b8" y="107.661736"/>
     <use style="fill:#d62728;stroke:#d62728;stroke-linejoin:miter;" x="97.563834" xlink:href="#m1524a078b8" y="150.083803"/>
     <use style="fill:#d62728;stroke:#d62728;stroke-linejoin:miter;" x="104.728703" xlink:href="#m1524a078b8" y="267.638865"/>
     <use style="fill:#d62728;stroke:#d62728;stroke-linejoin:miter;" x="111.893572" xlink:href="#m1524a078b8" y="108.353867"/>
     <use style="fill:#d62728;stroke:#d62728;stroke-linejoin:miter;" x="119.058441" xlink:href="#m1524a078b8" y="78.106435"/>
     <use style="fill:#d62728;stroke:#d62728;stroke-linejoin:miter;" x="126.22331" xlink:href="#m1524a078b8" y="119.877954"/>
     <use style="fill:#d62728;stroke:#d62728;stroke-linejoin:miter;" x="133.388179" xlink:href="#m1524a078b8" y="240.781217"/>
     <use style="fill:#d62728;stroke:#d62728;stroke-linejoin:miter;" x="140.553048" xlink:href="#m1524a078b8" y="193.194797"/>
     <use style="fill:#d62728;stroke:#d62728;stroke-linejoin:miter;" x="147.717917" xlink:href="#m1524a078b8" y="161.450546"/>
     <use style="fill:#d62728;stroke:#d62728;stroke-linejoin:miter;" x="154.882786" xlink:href="#m1524a078b8" y="31.562871"/>
     <use style="fill:#d62728;stroke:#d62728;stroke-linejoin:miter;" x="162.047655" xlink:href="#m1524a078b8" y="215.977858"/>
     <use style="fill:#d62728;stroke:#d62728;stroke-linejoin:miter;" x="169.212524" xlink:href="#m1524a078b8" y="134.879575"/>
     <use style="fill:#d62728;stroke:#d62728;stroke-linejoin:miter;" x="176.377393" xlink:href="#m1524a078b8" y="28.835042"/>
     <use style="fill:#d62728;stroke:#d62728;stroke-linejoin:miter;" x="183.542262" xlink:href="#m1524a078b8" y="245.920778"/>
     <use style="fill:#d62728;stroke:#d62728;stroke-linejoin:miter;" x="190.707131" xlink:href="#m1524a078b8" y="200.504946"/>
     <use style="fill:#d62728;stroke:#d62728;stroke-linejoin:miter;" x="197.872" xlink:href="#m1524a078b8" y="40.994812"/>
     <use style="fill:#d62728;stroke:#d62728;stroke-linejoin:miter;" x="205.036869" xlink:href="#m1524a078b8" y="110.64835"/>
     <use style="fill:#d62728;stroke:#d62728;stroke-linejoin:miter;" x="212.201738" xlink:href="#m1524a078b8" y="130.353837"/>
     <use style="fill:#d62728;stroke:#d62728;stroke-linejoin:miter;" x="219.366607" xlink:href="#m1524a078b8" y="199.727246"/>
     <use style="fill:#d62728;stroke:#d62728;stroke-linejoin:miter;" x="226.531476" xlink:href="#m1524a078b8" y="31.898735"/>
     <use style="fill:#d62728;stroke:#d62728;stroke-linejoin:miter;" x="233.696345" xlink:href="#m1524a078b8" y="96.621315"/>
     <use style="fill:#d62728;stroke:#d62728;stroke-linejoin:miter;" x="240.861214" xlink:href="#m1524a078b8" y="38.491053"/>
     <use style="fill:#d62728;stroke:#d62728;stroke-linejoin:miter;" x="248.026083" xlink:href="#m1524a078b8" y="29.68586"/>
     <use style="fill:#d62728;stroke:#d62728;stroke-linejoin:miter;" x="255.190952" xlink:href="#m1524a078b8" y="67.542144"/>
     <use style="fill:#d62728;stroke:#d62728;stroke-linejoin:miter;" x="262.355821" xlink:href="#m1524a078b8" y="129.011677"/>
     <use style="fill:#d62728;stroke:#d62728;stroke-linejoin:miter;" x="269.52069" xlink:href="#m1524a078b8" y="51.035436"/>
     <use style="fill:#d62728;stroke:#d62728;stroke-linejoin:miter;" x="276.68556" xlink:href="#m1524a078b8" y="195.84272"/>
     <use style="fill:#d62728;stroke:#d62728;stroke-linejoin:miter;" x="283.850429" xlink:href="#m1524a078b8" y="258.060691"/>
     <use style="fill:#d62728;stroke:#d62728;stroke-linejoin:miter;" x="291.015298" xlink:href="#m1524a078b8" y="267.260257"/>
     <use style="fill:#d62728;stroke:#d62728;stroke-linejoin:miter;" x="298.180167" xlink:href="#m1524a078b8" y="258.266245"/>
     <use style="fill:#d62728;stroke:#d62728;stroke-linejoin:miter;" x="305.345036" xlink:href="#m1524a078b8" y="145.982678"/>
     <use style="fill:#d62728;stroke:#d62728;stroke-linejoin:miter;" x="312.509905" xlink:href="#m1524a078b8" y="88.520701"/>
     <use style="fill:#d62728;stroke:#d62728;stroke-linejoin:miter;" x="319.674774" xlink:href="#m1524a078b8" y="189.021131"/>
     <use style="fill:#d62728;stroke:#d62728;stroke-linejoin:miter;" x="326.839643" xlink:href="#m1524a078b8" y="21.19125"/>
     <use style="fill:#d62728;stroke:#d62728;stroke-linejoin:miter;" x="334.004512" xlink:href="#m1524a078b8" y="89.636341"/>
     <use style="fill:#d62728;stroke:#d62728;stroke-linejoin:miter;" x="341.169381" xlink:href="#m1524a078b8" y="270.058219"/>
     <use style="fill:#d62728;stroke:#d62728;stroke-linejoin:miter;" x="348.33425" xlink:href="#m1524a078b8" y="132.871333"/>
     <use style="fill:#d62728;stroke:#d62728;stroke-linejoin:miter;" x="355.499119" xlink:href="#m1524a078b8" y="218.187718"/>
     <use style="fill:#d62728;stroke:#d62728;stroke-linejoin:miter;" x="362.663988" xlink:href="#m1524a078b8" y="267.724942"/>
     <use style="fill:#d62728;stroke:#d62728;stroke-linejoin:miter;" x="369.828857" xlink:href="#m1524a078b8" y="230.595186"/>
     <use style="fill:#d62728;stroke:#d62728;stroke-linejoin:miter;" x="376.993726" xlink:href="#m1524a078b8" y="268.392065"/>
     <use style="fill:#d62728;stroke:#d62728;stroke-linejoin:miter;" x="384.158595" xlink:href="#m1524a078b8" y="90.584628"/>
     <use style="fill:#d62728;stroke:#d62728;stroke-linejoin:miter;" x="391.323464" xlink:href="#m1524a078b8" y="101.767631"/>
     <use style="fill:#d62728;stroke:#d62728;stroke-linejoin:miter;" x="398.488333" xlink:href="#m1524a078b8" y="32.547987"/>
     <use style="fill:#d62728;stroke:#d62728;stroke-linejoin:miter;" x="405.653202" xlink:href="#m1524a078b8" y="249.251929"/>
     <use style="fill:#d62728;stroke:#d62728;stroke-linejoin:miter;" x="412.818071" xlink:href="#m1524a078b8" y="245.521312"/>
     <use style="fill:#d62728;stroke:#d62728;stroke-linejoin:miter;" x="419.98294" xlink:href="#m1524a078b8" y="188.426188"/>
     <use style="fill:#d62728;stroke:#d62728;stroke-linejoin:miter;" x="427.147809" xlink:href="#m1524a078b8" y="159.799613"/>
     <use style="fill:#d62728;stroke:#d62728;stroke-linejoin:miter;" x="434.312678" xlink:href="#m1524a078b8" y="203.615672"/>
     <use style="fill:#d62728;stroke:#d62728;stroke-linejoin:miter;" x="441.477547" xlink:href="#m1524a078b8" y="181.236506"/>
     <use style="fill:#d62728;stroke:#d62728;stroke-linejoin:miter;" x="448.642416" xlink:href="#m1524a078b8" y="225.893662"/>
     <use style="fill:#d62728;stroke:#d62728;stroke-linejoin:miter;" x="455.807285" xlink:href="#m1524a078b8" y="56.85292"/>
     <use style="fill:#d62728;stroke:#d62728;stroke-linejoin:miter;" x="462.972154" xlink:href="#m1524a078b8" y="201.408771"/>
     <use style="fill:#d62728;stroke:#d62728;stroke-linejoin:miter;" x="470.137023" xlink:href="#m1524a078b8" y="103.989615"/>
     <use style="fill:#d62728;stroke:#d62728;stroke-linejoin:miter;" x="477.301892" xlink:href="#m1524a078b8" y="218.422396"/>
     <use style="fill:#d62728;stroke:#d62728;stroke-linejoin:miter;" x="484.466761" xlink:href="#m1524a078b8" y="176.810561"/>
    </g>
   </g>
  </g>
 </g>
 <defs>
  <clipPath id="pddb642f8f5">
   <rect height="307.8075" width="465" x="40.603125" y="7.2"/>
  </clipPath>
 </defs>
</svg>
