<?xml version="1.0" encoding="utf-8" standalone="no"?>
<!DOCTYPE svg PUBLIC "-//W3C//DTD SVG 1.1//EN"
  "http://www.w3.org/Graphics/SVG/1.1/DTD/svg11.dtd">
<!-- Created with matplotlib (https://matplotlib.org/) -->
<svg height="352.56375pt" version="1.1" viewBox="0 0 514.820312 352.56375" width="514.820312pt" xmlns="http://www.w3.org/2000/svg" xmlns:xlink="http://www.w3.org/1999/xlink">
 <defs>
  <style type="text/css">
*{stroke-linecap:butt;stroke-linejoin:round;}
  </style>
 </defs>
 <g id="figure_1">
  <g id="patch_1">
   <path d="M 0 352.56375 
L 514.820312 352.56375 
L 514.820312 0 
L 0 0 
z
" style="fill:#ffffff;"/>
  </g>
  <g id="axes_1">
   <g id="patch_2">
    <path d="M 42.620313 315.0075 
L 507.620313 315.0075 
L 507.620313 7.2 
L 42.620313 7.2 
z
" style="fill:#ffffff;"/>
   </g>
   <g id="matplotlib.axis_1">
    <g id="xtick_1">
     <g id="line2d_1">
      <defs>
       <path d="M 0 0 
L 0 3.5 
" id="m4539eb957f" style="stroke:#000000;stroke-width:0.8;"/>
      </defs>
      <g>
       <use style="stroke:#000000;stroke-width:0.8;" x="63.756676" xlink:href="#m4539eb957f" y="315.0075"/>
      </g>
     </g>
     <g id="text_1">
      <!-- 0 -->
      <defs>
       <path d="M 31.78125 66.40625 
Q 24.171875 66.40625 20.328125 58.90625 
Q 16.5 51.421875 16.5 36.375 
Q 16.5 21.390625 20.328125 13.890625 
Q 24.171875 6.390625 31.78125 6.390625 
Q 39.453125 6.390625 43.28125 13.890625 
Q 47.125 21.390625 47.125 36.375 
Q 47.125 51.421875 43.28125 58.90625 
Q 39.453125 66.40625 31.78125 66.40625 
z
M 31.78125 74.21875 
Q 44.046875 74.21875 50.515625 64.515625 
Q 56.984375 54.828125 56.984375 36.375 
Q 56.984375 17.96875 50.515625 8.265625 
Q 44.046875 -1.421875 31.78125 -1.421875 
Q 19.53125 -1.421875 13.0625 8.265625 
Q 6.59375 17.96875 6.59375 36.375 
Q 6.59375 54.828125 13.0625 64.515625 
Q 19.53125 74.21875 31.78125 74.21875 
z
" id="DejaVuSans-48"/>
      </defs>
      <g transform="translate(60.575426 329.605937)scale(0.1 -0.1)">
       <use xlink:href="#DejaVuSans-48"/>
      </g>
     </g>
    </g>
    <g id="xtick_2">
     <g id="line2d_2">
      <g>
       <use style="stroke:#000000;stroke-width:0.8;" x="135.405366" xlink:href="#m4539eb957f" y="315.0075"/>
      </g>
     </g>
     <g id="text_2">
      <!-- 10 -->
      <defs>
       <path d="M 12.40625 8.296875 
L 28.515625 8.296875 
L 28.515625 63.921875 
L 10.984375 60.40625 
L 10.984375 69.390625 
L 28.421875 72.90625 
L 38.28125 72.90625 
L 38.28125 8.296875 
L 54.390625 8.296875 
L 54.390625 0 
L 12.40625 0 
z
" id="DejaVuSans-49"/>
      </defs>
      <g transform="translate(129.042866 329.605937)scale(0.1 -0.1)">
       <use xlink:href="#DejaVuSans-49"/>
       <use x="63.623047" xlink:href="#DejaVuSans-48"/>
      </g>
     </g>
    </g>
    <g id="xtick_3">
     <g id="line2d_3">
      <g>
       <use style="stroke:#000000;stroke-width:0.8;" x="207.054057" xlink:href="#m4539eb957f" y="315.0075"/>
      </g>
     </g>
     <g id="text_3">
      <!-- 20 -->
      <defs>
       <path d="M 19.1875 8.296875 
L 53.609375 8.296875 
L 53.609375 0 
L 7.328125 0 
L 7.328125 8.296875 
Q 12.9375 14.109375 22.625 23.890625 
Q 32.328125 33.6875 34.8125 36.53125 
Q 39.546875 41.84375 41.421875 45.53125 
Q 43.3125 49.21875 43.3125 52.78125 
Q 43.3125 58.59375 39.234375 62.25 
Q 35.15625 65.921875 28.609375 65.921875 
Q 23.96875 65.921875 18.8125 64.3125 
Q 13.671875 62.703125 7.8125 59.421875 
L 7.8125 69.390625 
Q 13.765625 71.78125 18.9375 73 
Q 24.125 74.21875 28.421875 74.21875 
Q 39.75 74.21875 46.484375 68.546875 
Q 53.21875 62.890625 53.21875 53.421875 
Q 53.21875 48.921875 51.53125 44.890625 
Q 49.859375 40.875 45.40625 35.40625 
Q 44.1875 33.984375 37.640625 27.21875 
Q 31.109375 20.453125 19.1875 8.296875 
z
" id="DejaVuSans-50"/>
      </defs>
      <g transform="translate(200.691557 329.605937)scale(0.1 -0.1)">
       <use xlink:href="#DejaVuSans-50"/>
       <use x="63.623047" xlink:href="#DejaVuSans-48"/>
      </g>
     </g>
    </g>
    <g id="xtick_4">
     <g id="line2d_4">
      <g>
       <use style="stroke:#000000;stroke-width:0.8;" x="278.702747" xlink:href="#m4539eb957f" y="315.0075"/>
      </g>
     </g>
     <g id="text_4">
      <!-- 30 -->
      <defs>
       <path d="M 40.578125 39.3125 
Q 47.65625 37.796875 51.625 33 
Q 55.609375 28.21875 55.609375 21.1875 
Q 55.609375 10.40625 48.1875 4.484375 
Q 40.765625 -1.421875 27.09375 -1.421875 
Q 22.515625 -1.421875 17.65625 -0.515625 
Q 12.796875 0.390625 7.625 2.203125 
L 7.625 11.71875 
Q 11.71875 9.328125 16.59375 8.109375 
Q 21.484375 6.890625 26.8125 6.890625 
Q 36.078125 6.890625 40.9375 10.546875 
Q 45.796875 14.203125 45.796875 21.1875 
Q 45.796875 27.640625 41.28125 31.265625 
Q 36.765625 34.90625 28.71875 34.90625 
L 20.21875 34.90625 
L 20.21875 43.015625 
L 29.109375 43.015625 
Q 36.375 43.015625 40.234375 45.921875 
Q 44.09375 48.828125 44.09375 54.296875 
Q 44.09375 59.90625 40.109375 62.90625 
Q 36.140625 65.921875 28.71875 65.921875 
Q 24.65625 65.921875 20.015625 65.03125 
Q 15.375 64.15625 9.8125 62.3125 
L 9.8125 71.09375 
Q 15.4375 72.65625 20.34375 73.4375 
Q 25.25 74.21875 29.59375 74.21875 
Q 40.828125 74.21875 47.359375 69.109375 
Q 53.90625 64.015625 53.90625 55.328125 
Q 53.90625 49.265625 50.4375 45.09375 
Q 46.96875 40.921875 40.578125 39.3125 
z
" id="DejaVuSans-51"/>
      </defs>
      <g transform="translate(272.340247 329.605937)scale(0.1 -0.1)">
       <use xlink:href="#DejaVuSans-51"/>
       <use x="63.623047" xlink:href="#DejaVuSans-48"/>
      </g>
     </g>
    </g>
    <g id="xtick_5">
     <g id="line2d_5">
      <g>
       <use style="stroke:#000000;stroke-width:0.8;" x="350.351437" xlink:href="#m4539eb957f" y="315.0075"/>
      </g>
     </g>
     <g id="text_5">
      <!-- 40 -->
      <defs>
       <path d="M 37.796875 64.3125 
L 12.890625 25.390625 
L 37.796875 25.390625 
z
M 35.203125 72.90625 
L 47.609375 72.90625 
L 47.609375 25.390625 
L 58.015625 25.390625 
L 58.015625 17.1875 
L 47.609375 17.1875 
L 47.609375 0 
L 37.796875 0 
L 37.796875 17.1875 
L 4.890625 17.1875 
L 4.890625 26.703125 
z
" id="DejaVuSans-52"/>
      </defs>
      <g transform="translate(343.988937 329.605937)scale(0.1 -0.1)">
       <use xlink:href="#DejaVuSans-52"/>
       <use x="63.623047" xlink:href="#DejaVuSans-48"/>
      </g>
     </g>
    </g>
    <g id="xtick_6">
     <g id="line2d_6">
      <g>
       <use style="stroke:#000000;stroke-width:0.8;" x="422.000128" xlink:href="#m4539eb957f" y="315.0075"/>
      </g>
     </g>
     <g id="text_6">
      <!-- 50 -->
      <defs>
       <path d="M 10.796875 72.90625 
L 49.515625 72.90625 
L 49.515625 64.59375 
L 19.828125 64.59375 
L 19.828125 46.734375 
Q 21.96875 47.46875 24.109375 47.828125 
Q 26.265625 48.1875 28.421875 48.1875 
Q 40.625 48.1875 47.75 41.5 
Q 54.890625 34.8125 54.890625 23.390625 
Q 54.890625 11.625 47.5625 5.09375 
Q 40.234375 -1.421875 26.90625 -1.421875 
Q 22.3125 -1.421875 17.546875 -0.640625 
Q 12.796875 0.140625 7.71875 1.703125 
L 7.71875 11.625 
Q 12.109375 9.234375 16.796875 8.0625 
Q 21.484375 6.890625 26.703125 6.890625 
Q 35.15625 6.890625 40.078125 11.328125 
Q 45.015625 15.765625 45.015625 23.390625 
Q 45.015625 31 40.078125 35.4375 
Q 35.15625 39.890625 26.703125 39.890625 
Q 22.75 39.890625 18.8125 39.015625 
Q 14.890625 38.140625 10.796875 36.28125 
z
" id="DejaVuSans-53"/>
      </defs>
      <g transform="translate(415.637628 329.605937)scale(0.1 -0.1)">
       <use xlink:href="#DejaVuSans-53"/>
       <use x="63.623047" xlink:href="#DejaVuSans-48"/>
      </g>
     </g>
    </g>
    <g id="xtick_7">
     <g id="line2d_7">
      <g>
       <use style="stroke:#000000;stroke-width:0.8;" x="493.648818" xlink:href="#m4539eb957f" y="315.0075"/>
      </g>
     </g>
     <g id="text_7">
      <!-- 60 -->
      <defs>
       <path d="M 33.015625 40.375 
Q 26.375 40.375 22.484375 35.828125 
Q 18.609375 31.296875 18.609375 23.390625 
Q 18.609375 15.53125 22.484375 10.953125 
Q 26.375 6.390625 33.015625 6.390625 
Q 39.65625 6.390625 43.53125 10.953125 
Q 47.40625 15.53125 47.40625 23.390625 
Q 47.40625 31.296875 43.53125 35.828125 
Q 39.65625 40.375 33.015625 40.375 
z
M 52.59375 71.296875 
L 52.59375 62.3125 
Q 48.875 64.0625 45.09375 64.984375 
Q 41.3125 65.921875 37.59375 65.921875 
Q 27.828125 65.921875 22.671875 59.328125 
Q 17.53125 52.734375 16.796875 39.40625 
Q 19.671875 43.65625 24.015625 45.921875 
Q 28.375 48.1875 33.59375 48.1875 
Q 44.578125 48.1875 50.953125 41.515625 
Q 57.328125 34.859375 57.328125 23.390625 
Q 57.328125 12.15625 50.6875 5.359375 
Q 44.046875 -1.421875 33.015625 -1.421875 
Q 20.359375 -1.421875 13.671875 8.265625 
Q 6.984375 17.96875 6.984375 36.375 
Q 6.984375 53.65625 15.1875 63.9375 
Q 23.390625 74.21875 37.203125 74.21875 
Q 40.921875 74.21875 44.703125 73.484375 
Q 48.484375 72.75 52.59375 71.296875 
z
" id="DejaVuSans-54"/>
      </defs>
      <g transform="translate(487.286318 329.605937)scale(0.1 -0.1)">
       <use xlink:href="#DejaVuSans-54"/>
       <use x="63.623047" xlink:href="#DejaVuSans-48"/>
      </g>
     </g>
    </g>
    <g id="text_8">
     <!-- tof [μs] -->
     <defs>
      <path d="M 18.3125 70.21875 
L 18.3125 54.6875 
L 36.8125 54.6875 
L 36.8125 47.703125 
L 18.3125 47.703125 
L 18.3125 18.015625 
Q 18.3125 11.328125 20.140625 9.421875 
Q 21.96875 7.515625 27.59375 7.515625 
L 36.8125 7.515625 
L 36.8125 0 
L 27.59375 0 
Q 17.1875 0 13.234375 3.875 
Q 9.28125 7.765625 9.28125 18.015625 
L 9.28125 47.703125 
L 2.6875 47.703125 
L 2.6875 54.6875 
L 9.28125 54.6875 
L 9.28125 70.21875 
z
" id="DejaVuSans-116"/>
      <path d="M 30.609375 48.390625 
Q 23.390625 48.390625 19.1875 42.75 
Q 14.984375 37.109375 14.984375 27.296875 
Q 14.984375 17.484375 19.15625 11.84375 
Q 23.34375 6.203125 30.609375 6.203125 
Q 37.796875 6.203125 41.984375 11.859375 
Q 46.1875 17.53125 46.1875 27.296875 
Q 46.1875 37.015625 41.984375 42.703125 
Q 37.796875 48.390625 30.609375 48.390625 
z
M 30.609375 56 
Q 42.328125 56 49.015625 48.375 
Q 55.71875 40.765625 55.71875 27.296875 
Q 55.71875 13.875 49.015625 6.21875 
Q 42.328125 -1.421875 30.609375 -1.421875 
Q 18.84375 -1.421875 12.171875 6.21875 
Q 5.515625 13.875 5.515625 27.296875 
Q 5.515625 40.765625 12.171875 48.375 
Q 18.84375 56 30.609375 56 
z
" id="DejaVuSans-111"/>
      <path d="M 37.109375 75.984375 
L 37.109375 68.5 
L 28.515625 68.5 
Q 23.6875 68.5 21.796875 66.546875 
Q 19.921875 64.59375 19.921875 59.515625 
L 19.921875 54.6875 
L 34.71875 54.6875 
L 34.71875 47.703125 
L 19.921875 47.703125 
L 19.921875 0 
L 10.890625 0 
L 10.890625 47.703125 
L 2.296875 47.703125 
L 2.296875 54.6875 
L 10.890625 54.6875 
L 10.890625 58.5 
Q 10.890625 67.625 15.140625 71.796875 
Q 19.390625 75.984375 28.609375 75.984375 
z
" id="DejaVuSans-102"/>
      <path id="DejaVuSans-32"/>
      <path d="M 8.59375 75.984375 
L 29.296875 75.984375 
L 29.296875 69 
L 17.578125 69 
L 17.578125 -6.203125 
L 29.296875 -6.203125 
L 29.296875 -13.1875 
L 8.59375 -13.1875 
z
" id="DejaVuSans-91"/>
      <path d="M 8.5 -20.796875 
L 8.5 54.6875 
L 17.484375 54.6875 
L 17.484375 20.703125 
Q 17.484375 13.625 20.84375 10 
Q 24.21875 6.390625 30.8125 6.390625 
Q 38.03125 6.390625 41.671875 10.484375 
Q 45.3125 14.59375 45.3125 22.796875 
L 45.3125 54.6875 
L 54.296875 54.6875 
L 54.296875 12.59375 
Q 54.296875 9.671875 55.140625 8.28125 
Q 56 6.890625 57.8125 6.890625 
Q 58.25 6.890625 59.03125 7.15625 
Q 59.8125 7.421875 61.1875 8.015625 
L 61.1875 0.78125 
Q 59.1875 -0.34375 57.390625 -0.875 
Q 55.609375 -1.421875 53.90625 -1.421875 
Q 50.53125 -1.421875 48.53125 0.484375 
Q 46.53125 2.390625 45.796875 6.296875 
Q 43.359375 2.4375 39.8125 0.5 
Q 36.28125 -1.421875 31.5 -1.421875 
Q 26.515625 -1.421875 23.015625 0.484375 
Q 19.53125 2.390625 17.484375 6.203125 
L 17.484375 -20.796875 
z
" id="DejaVuSans-956"/>
      <path d="M 44.28125 53.078125 
L 44.28125 44.578125 
Q 40.484375 46.53125 36.375 47.5 
Q 32.28125 48.484375 27.875 48.484375 
Q 21.1875 48.484375 17.84375 46.4375 
Q 14.5 44.390625 14.5 40.28125 
Q 14.5 37.15625 16.890625 35.375 
Q 19.28125 33.59375 26.515625 31.984375 
L 29.59375 31.296875 
Q 39.15625 29.25 43.1875 25.515625 
Q 47.21875 21.78125 47.21875 15.09375 
Q 47.21875 7.46875 41.1875 3.015625 
Q 35.15625 -1.421875 24.609375 -1.421875 
Q 20.21875 -1.421875 15.453125 -0.5625 
Q 10.6875 0.296875 5.421875 2 
L 5.421875 11.28125 
Q 10.40625 8.6875 15.234375 7.390625 
Q 20.0625 6.109375 24.8125 6.109375 
Q 31.15625 6.109375 34.5625 8.28125 
Q 37.984375 10.453125 37.984375 14.40625 
Q 37.984375 18.0625 35.515625 20.015625 
Q 33.0625 21.96875 24.703125 23.78125 
L 21.578125 24.515625 
Q 13.234375 26.265625 9.515625 29.90625 
Q 5.8125 33.546875 5.8125 39.890625 
Q 5.8125 47.609375 11.28125 51.796875 
Q 16.75 56 26.8125 56 
Q 31.78125 56 36.171875 55.265625 
Q 40.578125 54.546875 44.28125 53.078125 
z
" id="DejaVuSans-115"/>
      <path d="M 30.421875 75.984375 
L 30.421875 -13.1875 
L 9.71875 -13.1875 
L 9.71875 -6.203125 
L 21.390625 -6.203125 
L 21.390625 69 
L 9.71875 69 
L 9.71875 75.984375 
z
" id="DejaVuSans-93"/>
     </defs>
     <g transform="translate(257.064063 343.284062)scale(0.1 -0.1)">
      <use xlink:href="#DejaVuSans-116"/>
      <use x="39.208984" xlink:href="#DejaVuSans-111"/>
      <use x="100.390625" xlink:href="#DejaVuSans-102"/>
      <use x="135.595703" xlink:href="#DejaVuSans-32"/>
      <use x="167.382812" xlink:href="#DejaVuSans-91"/>
      <use x="206.396484" xlink:href="#DejaVuSans-956"/>
      <use x="270.019531" xlink:href="#DejaVuSans-115"/>
      <use x="322.119141" xlink:href="#DejaVuSans-93"/>
     </g>
    </g>
   </g>
   <g id="matplotlib.axis_2">
    <g id="ytick_1">
     <g id="line2d_8">
      <defs>
       <path d="M 0 0 
L -3.5 0 
" id="m2c8f621dc0" style="stroke:#000000;stroke-width:0.8;"/>
      </defs>
      <g>
       <use style="stroke:#000000;stroke-width:0.8;" x="42.620313" xlink:href="#m2c8f621dc0" y="310.902742"/>
      </g>
     </g>
     <g id="text_9">
      <!-- −2 -->
      <defs>
       <path d="M 10.59375 35.5 
L 73.1875 35.5 
L 73.1875 27.203125 
L 10.59375 27.203125 
z
" id="DejaVuSans-8722"/>
      </defs>
      <g transform="translate(20.878125 314.701961)scale(0.1 -0.1)">
       <use xlink:href="#DejaVuSans-8722"/>
       <use x="83.789062" xlink:href="#DejaVuSans-50"/>
      </g>
     </g>
    </g>
    <g id="ytick_2">
     <g id="line2d_9">
      <g>
       <use style="stroke:#000000;stroke-width:0.8;" x="42.620313" xlink:href="#m2c8f621dc0" y="267.123758"/>
      </g>
     </g>
     <g id="text_10">
      <!-- 0 -->
      <g transform="translate(29.257813 270.922977)scale(0.1 -0.1)">
       <use xlink:href="#DejaVuSans-48"/>
      </g>
     </g>
    </g>
    <g id="ytick_3">
     <g id="line2d_10">
      <g>
       <use style="stroke:#000000;stroke-width:0.8;" x="42.620313" xlink:href="#m2c8f621dc0" y="223.344774"/>
      </g>
     </g>
     <g id="text_11">
      <!-- 2 -->
      <g transform="translate(29.257813 227.143993)scale(0.1 -0.1)">
       <use xlink:href="#DejaVuSans-50"/>
      </g>
     </g>
    </g>
    <g id="ytick_4">
     <g id="line2d_11">
      <g>
       <use style="stroke:#000000;stroke-width:0.8;" x="42.620313" xlink:href="#m2c8f621dc0" y="179.56579"/>
      </g>
     </g>
     <g id="text_12">
      <!-- 4 -->
      <g transform="translate(29.257813 183.365009)scale(0.1 -0.1)">
       <use xlink:href="#DejaVuSans-52"/>
      </g>
     </g>
    </g>
    <g id="ytick_5">
     <g id="line2d_12">
      <g>
       <use style="stroke:#000000;stroke-width:0.8;" x="42.620313" xlink:href="#m2c8f621dc0" y="135.786806"/>
      </g>
     </g>
     <g id="text_13">
      <!-- 6 -->
      <g transform="translate(29.257813 139.586024)scale(0.1 -0.1)">
       <use xlink:href="#DejaVuSans-54"/>
      </g>
     </g>
    </g>
    <g id="ytick_6">
     <g id="line2d_13">
      <g>
       <use style="stroke:#000000;stroke-width:0.8;" x="42.620313" xlink:href="#m2c8f621dc0" y="92.007822"/>
      </g>
     </g>
     <g id="text_14">
      <!-- 8 -->
      <defs>
       <path d="M 31.78125 34.625 
Q 24.75 34.625 20.71875 30.859375 
Q 16.703125 27.09375 16.703125 20.515625 
Q 16.703125 13.921875 20.71875 10.15625 
Q 24.75 6.390625 31.78125 6.390625 
Q 38.8125 6.390625 42.859375 10.171875 
Q 46.921875 13.96875 46.921875 20.515625 
Q 46.921875 27.09375 42.890625 30.859375 
Q 38.875 34.625 31.78125 34.625 
z
M 21.921875 38.8125 
Q 15.578125 40.375 12.03125 44.71875 
Q 8.5 49.078125 8.5 55.328125 
Q 8.5 64.0625 14.71875 69.140625 
Q 20.953125 74.21875 31.78125 74.21875 
Q 42.671875 74.21875 48.875 69.140625 
Q 55.078125 64.0625 55.078125 55.328125 
Q 55.078125 49.078125 51.53125 44.71875 
Q 48 40.375 41.703125 38.8125 
Q 48.828125 37.15625 52.796875 32.3125 
Q 56.78125 27.484375 56.78125 20.515625 
Q 56.78125 9.90625 50.3125 4.234375 
Q 43.84375 -1.421875 31.78125 -1.421875 
Q 19.734375 -1.421875 13.25 4.234375 
Q 6.78125 9.90625 6.78125 20.515625 
Q 6.78125 27.484375 10.78125 32.3125 
Q 14.796875 37.15625 21.921875 38.8125 
z
M 18.3125 54.390625 
Q 18.3125 48.734375 21.84375 45.5625 
Q 25.390625 42.390625 31.78125 42.390625 
Q 38.140625 42.390625 41.71875 45.5625 
Q 45.3125 48.734375 45.3125 54.390625 
Q 45.3125 60.0625 41.71875 63.234375 
Q 38.140625 66.40625 31.78125 66.40625 
Q 25.390625 66.40625 21.84375 63.234375 
Q 18.3125 60.0625 18.3125 54.390625 
z
" id="DejaVuSans-56"/>
      </defs>
      <g transform="translate(29.257813 95.80704)scale(0.1 -0.1)">
       <use xlink:href="#DejaVuSans-56"/>
      </g>
     </g>
    </g>
    <g id="ytick_7">
     <g id="line2d_14">
      <g>
       <use style="stroke:#000000;stroke-width:0.8;" x="42.620313" xlink:href="#m2c8f621dc0" y="48.228837"/>
      </g>
     </g>
     <g id="text_15">
      <!-- 10 -->
      <g transform="translate(22.895313 52.028056)scale(0.1 -0.1)">
       <use xlink:href="#DejaVuSans-49"/>
       <use x="63.623047" xlink:href="#DejaVuSans-48"/>
      </g>
     </g>
    </g>
    <g id="text_16">
     <!--  [counts] -->
     <defs>
      <path d="M 48.78125 52.59375 
L 48.78125 44.1875 
Q 44.96875 46.296875 41.140625 47.34375 
Q 37.3125 48.390625 33.40625 48.390625 
Q 24.65625 48.390625 19.8125 42.84375 
Q 14.984375 37.3125 14.984375 27.296875 
Q 14.984375 17.28125 19.8125 11.734375 
Q 24.65625 6.203125 33.40625 6.203125 
Q 37.3125 6.203125 41.140625 7.25 
Q 44.96875 8.296875 48.78125 10.40625 
L 48.78125 2.09375 
Q 45.015625 0.34375 40.984375 -0.53125 
Q 36.96875 -1.421875 32.421875 -1.421875 
Q 20.0625 -1.421875 12.78125 6.34375 
Q 5.515625 14.109375 5.515625 27.296875 
Q 5.515625 40.671875 12.859375 48.328125 
Q 20.21875 56 33.015625 56 
Q 37.15625 56 41.109375 55.140625 
Q 45.0625 54.296875 48.78125 52.59375 
z
" id="DejaVuSans-99"/>
      <path d="M 8.5 21.578125 
L 8.5 54.6875 
L 17.484375 54.6875 
L 17.484375 21.921875 
Q 17.484375 14.15625 20.5 10.265625 
Q 23.53125 6.390625 29.59375 6.390625 
Q 36.859375 6.390625 41.078125 11.03125 
Q 45.3125 15.671875 45.3125 23.6875 
L 45.3125 54.6875 
L 54.296875 54.6875 
L 54.296875 0 
L 45.3125 0 
L 45.3125 8.40625 
Q 42.046875 3.421875 37.71875 1 
Q 33.40625 -1.421875 27.6875 -1.421875 
Q 18.265625 -1.421875 13.375 4.4375 
Q 8.5 10.296875 8.5 21.578125 
z
M 31.109375 56 
z
" id="DejaVuSans-117"/>
      <path d="M 54.890625 33.015625 
L 54.890625 0 
L 45.90625 0 
L 45.90625 32.71875 
Q 45.90625 40.484375 42.875 44.328125 
Q 39.84375 48.1875 33.796875 48.1875 
Q 26.515625 48.1875 22.3125 43.546875 
Q 18.109375 38.921875 18.109375 30.90625 
L 18.109375 0 
L 9.078125 0 
L 9.078125 54.6875 
L 18.109375 54.6875 
L 18.109375 46.1875 
Q 21.34375 51.125 25.703125 53.5625 
Q 30.078125 56 35.796875 56 
Q 45.21875 56 50.046875 50.171875 
Q 54.890625 44.34375 54.890625 33.015625 
z
" id="DejaVuSans-110"/>
     </defs>
     <g transform="translate(14.798438 183.305312)rotate(-90)scale(0.1 -0.1)">
      <use xlink:href="#DejaVuSans-32"/>
      <use x="31.787109" xlink:href="#DejaVuSans-91"/>
      <use x="70.800781" xlink:href="#DejaVuSans-99"/>
      <use x="125.78125" xlink:href="#DejaVuSans-111"/>
      <use x="186.962891" xlink:href="#DejaVuSans-117"/>
      <use x="250.341797" xlink:href="#DejaVuSans-110"/>
      <use x="313.720703" xlink:href="#DejaVuSans-116"/>
      <use x="352.929688" xlink:href="#DejaVuSans-115"/>
      <use x="405.029297" xlink:href="#DejaVuSans-93"/>
     </g>
    </g>
   </g>
   <g id="patch_3">
    <path d="M 42.620313 315.0075 
L 42.620313 7.2 
" style="fill:none;stroke:#000000;stroke-linecap:square;stroke-linejoin:miter;stroke-width:0.8;"/>
   </g>
   <g id="patch_4">
    <path d="M 507.620313 315.0075 
L 507.620313 7.2 
" style="fill:none;stroke:#000000;stroke-linecap:square;stroke-linejoin:miter;stroke-width:0.8;"/>
   </g>
   <g id="patch_5">
    <path d="M 42.620313 315.0075 
L 507.620312 315.0075 
" style="fill:none;stroke:#000000;stroke-linecap:square;stroke-linejoin:miter;stroke-width:0.8;"/>
   </g>
   <g id="patch_6">
    <path d="M 42.620313 7.2 
L 507.620312 7.2 
" style="fill:none;stroke:#000000;stroke-linecap:square;stroke-linejoin:miter;stroke-width:0.8;"/>
   </g>
   <g id="legend_1">
    <g id="patch_7">
     <path d="M 417.060938 44.55625 
L 500.620313 44.55625 
Q 502.620313 44.55625 502.620313 42.55625 
L 502.620313 14.2 
Q 502.620313 12.2 500.620313 12.2 
L 417.060938 12.2 
Q 415.060938 12.2 415.060938 14.2 
L 415.060938 42.55625 
Q 415.060938 44.55625 417.060938 44.55625 
z
" style="fill:#ffffff;opacity:0.8;stroke:#cccccc;stroke-linejoin:miter;"/>
    </g>
    <g id="line2d_15">
     <path d="M 419.060938 20.298437 
L 439.060938 20.298437 
" style="fill:none;stroke:#1f77b4;stroke-linecap:square;stroke-width:1.5;"/>
    </g>
    <g id="line2d_16"/>
    <g id="text_17">
     <!-- Noise1D -->
     <defs>
      <path d="M 9.8125 72.90625 
L 23.09375 72.90625 
L 55.421875 11.921875 
L 55.421875 72.90625 
L 64.984375 72.90625 
L 64.984375 0 
L 51.703125 0 
L 19.390625 60.984375 
L 19.390625 0 
L 9.8125 0 
z
" id="DejaVuSans-78"/>
      <path d="M 9.421875 54.6875 
L 18.40625 54.6875 
L 18.40625 0 
L 9.421875 0 
z
M 9.421875 75.984375 
L 18.40625 75.984375 
L 18.40625 64.59375 
L 9.421875 64.59375 
z
" id="DejaVuSans-105"/>
      <path d="M 56.203125 29.59375 
L 56.203125 25.203125 
L 14.890625 25.203125 
Q 15.484375 15.921875 20.484375 11.0625 
Q 25.484375 6.203125 34.421875 6.203125 
Q 39.59375 6.203125 44.453125 7.46875 
Q 49.3125 8.734375 54.109375 11.28125 
L 54.109375 2.78125 
Q 49.265625 0.734375 44.1875 -0.34375 
Q 39.109375 -1.421875 33.890625 -1.421875 
Q 20.796875 -1.421875 13.15625 6.1875 
Q 5.515625 13.8125 5.515625 26.8125 
Q 5.515625 40.234375 12.765625 48.109375 
Q 20.015625 56 32.328125 56 
Q 43.359375 56 49.78125 48.890625 
Q 56.203125 41.796875 56.203125 29.59375 
z
M 47.21875 32.234375 
Q 47.125 39.59375 43.09375 43.984375 
Q 39.0625 48.390625 32.421875 48.390625 
Q 24.90625 48.390625 20.390625 44.140625 
Q 15.875 39.890625 15.1875 32.171875 
z
" id="DejaVuSans-101"/>
      <path d="M 19.671875 64.796875 
L 19.671875 8.109375 
L 31.59375 8.109375 
Q 46.6875 8.109375 53.6875 14.9375 
Q 60.6875 21.78125 60.6875 36.53125 
Q 60.6875 51.171875 53.6875 57.984375 
Q 46.6875 64.796875 31.59375 64.796875 
z
M 9.8125 72.90625 
L 30.078125 72.90625 
Q 51.265625 72.90625 61.171875 64.09375 
Q 71.09375 55.28125 71.09375 36.53125 
Q 71.09375 17.671875 61.125 8.828125 
Q 51.171875 0 30.078125 0 
L 9.8125 0 
z
" id="DejaVuSans-68"/>
     </defs>
     <g transform="translate(447.060938 23.798437)scale(0.1 -0.1)">
      <use xlink:href="#DejaVuSans-78"/>
      <use x="74.804688" xlink:href="#DejaVuSans-111"/>
      <use x="135.986328" xlink:href="#DejaVuSans-105"/>
      <use x="163.769531" xlink:href="#DejaVuSans-115"/>
      <use x="215.869141" xlink:href="#DejaVuSans-101"/>
      <use x="277.392578" xlink:href="#DejaVuSans-49"/>
      <use x="341.015625" xlink:href="#DejaVuSans-68"/>
     </g>
    </g>
    <g id="line2d_17"/>
    <g id="line2d_18">
     <defs>
      <path d="M 0 -3 
L -3 3 
L 3 3 
z
" id="m8b777b3167" style="stroke:#ff7f0e;stroke-linejoin:miter;"/>
     </defs>
     <g>
      <use style="fill:#ff7f0e;stroke:#ff7f0e;stroke-linejoin:miter;" x="429.060938" xlink:href="#m8b777b3167" y="34.976562"/>
     </g>
    </g>
    <g id="text_18">
     <!-- Sample1D -->
     <defs>
      <path d="M 53.515625 70.515625 
L 53.515625 60.890625 
Q 47.90625 63.578125 42.921875 64.890625 
Q 37.9375 66.21875 33.296875 66.21875 
Q 25.25 66.21875 20.875 63.09375 
Q 16.5 59.96875 16.5 54.203125 
Q 16.5 49.359375 19.40625 46.890625 
Q 22.3125 44.4375 30.421875 42.921875 
L 36.375 41.703125 
Q 47.40625 39.59375 52.65625 34.296875 
Q 57.90625 29 57.90625 20.125 
Q 57.90625 9.515625 50.796875 4.046875 
Q 43.703125 -1.421875 29.984375 -1.421875 
Q 24.8125 -1.421875 18.96875 -0.25 
Q 13.140625 0.921875 6.890625 3.21875 
L 6.890625 13.375 
Q 12.890625 10.015625 18.65625 8.296875 
Q 24.421875 6.59375 29.984375 6.59375 
Q 38.421875 6.59375 43.015625 9.90625 
Q 47.609375 13.234375 47.609375 19.390625 
Q 47.609375 24.75 44.3125 27.78125 
Q 41.015625 30.8125 33.5 32.328125 
L 27.484375 33.5 
Q 16.453125 35.6875 11.515625 40.375 
Q 6.59375 45.0625 6.59375 53.421875 
Q 6.59375 63.09375 13.40625 68.65625 
Q 20.21875 74.21875 32.171875 74.21875 
Q 37.3125 74.21875 42.625 73.28125 
Q 47.953125 72.359375 53.515625 70.515625 
z
" id="DejaVuSans-83"/>
      <path d="M 34.28125 27.484375 
Q 23.390625 27.484375 19.1875 25 
Q 14.984375 22.515625 14.984375 16.5 
Q 14.984375 11.71875 18.140625 8.90625 
Q 21.296875 6.109375 26.703125 6.109375 
Q 34.1875 6.109375 38.703125 11.40625 
Q 43.21875 16.703125 43.21875 25.484375 
L 43.21875 27.484375 
z
M 52.203125 31.203125 
L 52.203125 0 
L 43.21875 0 
L 43.21875 8.296875 
Q 40.140625 3.328125 35.546875 0.953125 
Q 30.953125 -1.421875 24.3125 -1.421875 
Q 15.921875 -1.421875 10.953125 3.296875 
Q 6 8.015625 6 15.921875 
Q 6 25.140625 12.171875 29.828125 
Q 18.359375 34.515625 30.609375 34.515625 
L 43.21875 34.515625 
L 43.21875 35.40625 
Q 43.21875 41.609375 39.140625 45 
Q 35.0625 48.390625 27.6875 48.390625 
Q 23 48.390625 18.546875 47.265625 
Q 14.109375 46.140625 10.015625 43.890625 
L 10.015625 52.203125 
Q 14.9375 54.109375 19.578125 55.046875 
Q 24.21875 56 28.609375 56 
Q 40.484375 56 46.34375 49.84375 
Q 52.203125 43.703125 52.203125 31.203125 
z
" id="DejaVuSans-97"/>
      <path d="M 52 44.1875 
Q 55.375 50.25 60.0625 53.125 
Q 64.75 56 71.09375 56 
Q 79.640625 56 84.28125 50.015625 
Q 88.921875 44.046875 88.921875 33.015625 
L 88.921875 0 
L 79.890625 0 
L 79.890625 32.71875 
Q 79.890625 40.578125 77.09375 44.375 
Q 74.3125 48.1875 68.609375 48.1875 
Q 61.625 48.1875 57.5625 43.546875 
Q 53.515625 38.921875 53.515625 30.90625 
L 53.515625 0 
L 44.484375 0 
L 44.484375 32.71875 
Q 44.484375 40.625 41.703125 44.40625 
Q 38.921875 48.1875 33.109375 48.1875 
Q 26.21875 48.1875 22.15625 43.53125 
Q 18.109375 38.875 18.109375 30.90625 
L 18.109375 0 
L 9.078125 0 
L 9.078125 54.6875 
L 18.109375 54.6875 
L 18.109375 46.1875 
Q 21.1875 51.21875 25.484375 53.609375 
Q 29.78125 56 35.6875 56 
Q 41.65625 56 45.828125 52.96875 
Q 50 49.953125 52 44.1875 
z
" id="DejaVuSans-109"/>
      <path d="M 18.109375 8.203125 
L 18.109375 -20.796875 
L 9.078125 -20.796875 
L 9.078125 54.6875 
L 18.109375 54.6875 
L 18.109375 46.390625 
Q 20.953125 51.265625 25.265625 53.625 
Q 29.59375 56 35.59375 56 
Q 45.5625 56 51.78125 48.09375 
Q 58.015625 40.1875 58.015625 27.296875 
Q 58.015625 14.40625 51.78125 6.484375 
Q 45.5625 -1.421875 35.59375 -1.421875 
Q 29.59375 -1.421875 25.265625 0.953125 
Q 20.953125 3.328125 18.109375 8.203125 
z
M 48.6875 27.296875 
Q 48.6875 37.203125 44.609375 42.84375 
Q 40.53125 48.484375 33.40625 48.484375 
Q 26.265625 48.484375 22.1875 42.84375 
Q 18.109375 37.203125 18.109375 27.296875 
Q 18.109375 17.390625 22.1875 11.75 
Q 26.265625 6.109375 33.40625 6.109375 
Q 40.53125 6.109375 44.609375 11.75 
Q 48.6875 17.390625 48.6875 27.296875 
z
" id="DejaVuSans-112"/>
      <path d="M 9.421875 75.984375 
L 18.40625 75.984375 
L 18.40625 0 
L 9.421875 0 
z
" id="DejaVuSans-108"/>
     </defs>
     <g transform="translate(447.060938 38.476562)scale(0.1 -0.1)">
      <use xlink:href="#DejaVuSans-83"/>
      <use x="63.476562" xlink:href="#DejaVuSans-97"/>
      <use x="124.755859" xlink:href="#DejaVuSans-109"/>
      <use x="222.167969" xlink:href="#DejaVuSans-112"/>
      <use x="285.644531" xlink:href="#DejaVuSans-108"/>
      <use x="313.427734" xlink:href="#DejaVuSans-101"/>
      <use x="374.951172" xlink:href="#DejaVuSans-49"/>
      <use x="438.574219" xlink:href="#DejaVuSans-68"/>
     </g>
    </g>
   </g>
   <g id="LineCollection_1">
    <path clip-path="url(#p5ca7e89a14)" d="M 67.339111 171.679199 
L 67.339111 107.730125 
" style="fill:none;stroke:#1f77b4;stroke-width:1.5;"/>
    <path clip-path="url(#p5ca7e89a14)" d="M 74.50398 278.096031 
L 74.50398 238.32029 
" style="fill:none;stroke:#1f77b4;stroke-width:1.5;"/>
    <path clip-path="url(#p5ca7e89a14)" d="M 81.668849 165.424325 
L 81.668849 101.28993 
" style="fill:none;stroke:#1f77b4;stroke-width:1.5;"/>
    <path clip-path="url(#p5ca7e89a14)" d="M 88.833718 235.720709 
L 88.833718 186.116442 
" style="fill:none;stroke:#1f77b4;stroke-width:1.5;"/>
    <path clip-path="url(#p5ca7e89a14)" d="M 95.998587 195.490003 
L 95.998587 149.9714 
" style="fill:none;stroke:#1f77b4;stroke-width:1.5;"/>
    <path clip-path="url(#p5ca7e89a14)" d="M 103.163456 149.197241 
L 103.163456 96.102835 
" style="fill:none;stroke:#1f77b4;stroke-width:1.5;"/>
    <path clip-path="url(#p5ca7e89a14)" d="M 110.328325 245.206525 
L 110.328325 203.483122 
" style="fill:none;stroke:#1f77b4;stroke-width:1.5;"/>
    <path clip-path="url(#p5ca7e89a14)" d="M 117.493194 198.360956 
L 117.493194 189.082055 
" style="fill:none;stroke:#1f77b4;stroke-width:1.5;"/>
    <path clip-path="url(#p5ca7e89a14)" d="M 124.658063 165.095156 
L 124.658063 106.151113 
" style="fill:none;stroke:#1f77b4;stroke-width:1.5;"/>
    <path clip-path="url(#p5ca7e89a14)" d="M 131.822932 256.194597 
L 131.822932 223.13361 
" style="fill:none;stroke:#1f77b4;stroke-width:1.5;"/>
    <path clip-path="url(#p5ca7e89a14)" d="M 138.987801 68.758527 
L 138.987801 28.991749 
" style="fill:none;stroke:#1f77b4;stroke-width:1.5;"/>
    <path clip-path="url(#p5ca7e89a14)" d="M 146.15267 227.563442 
L 146.15267 160.858309 
" style="fill:none;stroke:#1f77b4;stroke-width:1.5;"/>
    <path clip-path="url(#p5ca7e89a14)" d="M 153.317539 111.359426 
L 153.317539 58.377211 
" style="fill:none;stroke:#1f77b4;stroke-width:1.5;"/>
    <path clip-path="url(#p5ca7e89a14)" d="M 160.482408 266.357619 
L 160.482408 202.73769 
" style="fill:none;stroke:#1f77b4;stroke-width:1.5;"/>
    <path clip-path="url(#p5ca7e89a14)" d="M 167.647277 276.071774 
L 167.647277 205.158288 
" style="fill:none;stroke:#1f77b4;stroke-width:1.5;"/>
    <path clip-path="url(#p5ca7e89a14)" d="M 174.812146 301.01625 
L 174.812146 229.463728 
" style="fill:none;stroke:#1f77b4;stroke-width:1.5;"/>
    <path clip-path="url(#p5ca7e89a14)" d="M 181.977015 221.643907 
L 181.977015 205.193964 
" style="fill:none;stroke:#1f77b4;stroke-width:1.5;"/>
    <path clip-path="url(#p5ca7e89a14)" d="M 189.141884 92.338469 
L 189.141884 55.972501 
" style="fill:none;stroke:#1f77b4;stroke-width:1.5;"/>
    <path clip-path="url(#p5ca7e89a14)" d="M 196.306753 262.605364 
L 196.306753 206.949932 
" style="fill:none;stroke:#1f77b4;stroke-width:1.5;"/>
    <path clip-path="url(#p5ca7e89a14)" d="M 203.471622 145.233944 
L 203.471622 111.651204 
" style="fill:none;stroke:#1f77b4;stroke-width:1.5;"/>
    <path clip-path="url(#p5ca7e89a14)" d="M 210.636491 264.260644 
L 210.636491 248.274614 
" style="fill:none;stroke:#1f77b4;stroke-width:1.5;"/>
    <path clip-path="url(#p5ca7e89a14)" d="M 217.80136 240.451637 
L 217.80136 181.847325 
" style="fill:none;stroke:#1f77b4;stroke-width:1.5;"/>
    <path clip-path="url(#p5ca7e89a14)" d="M 224.966229 211.31627 
L 224.966229 136.429071 
" style="fill:none;stroke:#1f77b4;stroke-width:1.5;"/>
    <path clip-path="url(#p5ca7e89a14)" d="M 232.131098 282.003204 
L 232.131098 234.071576 
" style="fill:none;stroke:#1f77b4;stroke-width:1.5;"/>
    <path clip-path="url(#p5ca7e89a14)" d="M 239.295967 265.977463 
L 239.295967 223.08932 
" style="fill:none;stroke:#1f77b4;stroke-width:1.5;"/>
    <path clip-path="url(#p5ca7e89a14)" d="M 246.460836 189.249748 
L 246.460836 154.592298 
" style="fill:none;stroke:#1f77b4;stroke-width:1.5;"/>
    <path clip-path="url(#p5ca7e89a14)" d="M 253.625705 97.50114 
L 253.625705 30.019573 
" style="fill:none;stroke:#1f77b4;stroke-width:1.5;"/>
    <path clip-path="url(#p5ca7e89a14)" d="M 260.790574 212.989171 
L 260.790574 147.844962 
" style="fill:none;stroke:#1f77b4;stroke-width:1.5;"/>
    <path clip-path="url(#p5ca7e89a14)" d="M 267.955443 135.33113 
L 267.955443 63.457409 
" style="fill:none;stroke:#1f77b4;stroke-width:1.5;"/>
    <path clip-path="url(#p5ca7e89a14)" d="M 275.120312 111.877324 
L 275.120312 61.686748 
" style="fill:none;stroke:#1f77b4;stroke-width:1.5;"/>
    <path clip-path="url(#p5ca7e89a14)" d="M 282.285182 234.912488 
L 282.285182 199.006094 
" style="fill:none;stroke:#1f77b4;stroke-width:1.5;"/>
    <path clip-path="url(#p5ca7e89a14)" d="M 289.450051 142.880477 
L 289.450051 77.178213 
" style="fill:none;stroke:#1f77b4;stroke-width:1.5;"/>
    <path clip-path="url(#p5ca7e89a14)" d="M 296.61492 269.671405 
L 296.61492 209.641629 
" style="fill:none;stroke:#1f77b4;stroke-width:1.5;"/>
    <path clip-path="url(#p5ca7e89a14)" d="M 303.779789 119.791111 
L 303.779789 78.267308 
" style="fill:none;stroke:#1f77b4;stroke-width:1.5;"/>
    <path clip-path="url(#p5ca7e89a14)" d="M 310.944658 244.763294 
L 310.944658 188.874394 
" style="fill:none;stroke:#1f77b4;stroke-width:1.5;"/>
    <path clip-path="url(#p5ca7e89a14)" d="M 318.109527 71.349704 
L 318.109527 38.31553 
" style="fill:none;stroke:#1f77b4;stroke-width:1.5;"/>
    <path clip-path="url(#p5ca7e89a14)" d="M 325.274396 199.733063 
L 325.274396 130.674194 
" style="fill:none;stroke:#1f77b4;stroke-width:1.5;"/>
    <path clip-path="url(#p5ca7e89a14)" d="M 332.439265 277.827521 
L 332.439265 244.764719 
" style="fill:none;stroke:#1f77b4;stroke-width:1.5;"/>
    <path clip-path="url(#p5ca7e89a14)" d="M 339.604134 169.706393 
L 339.604134 95.779491 
" style="fill:none;stroke:#1f77b4;stroke-width:1.5;"/>
    <path clip-path="url(#p5ca7e89a14)" d="M 346.769003 82.340651 
L 346.769003 21.19125 
" style="fill:none;stroke:#1f77b4;stroke-width:1.5;"/>
    <path clip-path="url(#p5ca7e89a14)" d="M 353.933872 85.347326 
L 353.933872 52.499192 
" style="fill:none;stroke:#1f77b4;stroke-width:1.5;"/>
    <path clip-path="url(#p5ca7e89a14)" d="M 361.098741 158.769768 
L 361.098741 93.740233 
" style="fill:none;stroke:#1f77b4;stroke-width:1.5;"/>
    <path clip-path="url(#p5ca7e89a14)" d="M 368.26361 264.420353 
L 368.26361 205.937141 
" style="fill:none;stroke:#1f77b4;stroke-width:1.5;"/>
    <path clip-path="url(#p5ca7e89a14)" d="M 375.428479 273.340604 
L 375.428479 232.845223 
" style="fill:none;stroke:#1f77b4;stroke-width:1.5;"/>
    <path clip-path="url(#p5ca7e89a14)" d="M 382.593348 141.51428 
L 382.593348 110.051158 
" style="fill:none;stroke:#1f77b4;stroke-width:1.5;"/>
    <path clip-path="url(#p5ca7e89a14)" d="M 389.758217 213.710954 
L 389.758217 159.584802 
" style="fill:none;stroke:#1f77b4;stroke-width:1.5;"/>
    <path clip-path="url(#p5ca7e89a14)" d="M 396.923086 182.204657 
L 396.923086 163.886487 
" style="fill:none;stroke:#1f77b4;stroke-width:1.5;"/>
    <path clip-path="url(#p5ca7e89a14)" d="M 404.087955 88.125159 
L 404.087955 39.008113 
" style="fill:none;stroke:#1f77b4;stroke-width:1.5;"/>
    <path clip-path="url(#p5ca7e89a14)" d="M 411.252824 202.131429 
L 411.252824 139.964927 
" style="fill:none;stroke:#1f77b4;stroke-width:1.5;"/>
    <path clip-path="url(#p5ca7e89a14)" d="M 418.417693 255.340242 
L 418.417693 202.209111 
" style="fill:none;stroke:#1f77b4;stroke-width:1.5;"/>
    <path clip-path="url(#p5ca7e89a14)" d="M 425.582562 230.067601 
L 425.582562 157.400227 
" style="fill:none;stroke:#1f77b4;stroke-width:1.5;"/>
    <path clip-path="url(#p5ca7e89a14)" d="M 432.747431 187.092619 
L 432.747431 142.249495 
" style="fill:none;stroke:#1f77b4;stroke-width:1.5;"/>
    <path clip-path="url(#p5ca7e89a14)" d="M 439.9123 140.537803 
L 439.9123 70.880749 
" style="fill:none;stroke:#1f77b4;stroke-width:1.5;"/>
    <path clip-path="url(#p5ca7e89a14)" d="M 447.077169 234.111063 
L 447.077169 168.686178 
" style="fill:none;stroke:#1f77b4;stroke-width:1.5;"/>
    <path clip-path="url(#p5ca7e89a14)" d="M 454.242038 105.669704 
L 454.242038 63.689381 
" style="fill:none;stroke:#1f77b4;stroke-width:1.5;"/>
    <path clip-path="url(#p5ca7e89a14)" d="M 461.406907 94.143702 
L 461.406907 24.627757 
" style="fill:none;stroke:#1f77b4;stroke-width:1.5;"/>
    <path clip-path="url(#p5ca7e89a14)" d="M 468.571776 203.092442 
L 468.571776 127.904682 
" style="fill:none;stroke:#1f77b4;stroke-width:1.5;"/>
    <path clip-path="url(#p5ca7e89a14)" d="M 475.736645 247.296878 
L 475.736645 214.009929 
" style="fill:none;stroke:#1f77b4;stroke-width:1.5;"/>
    <path clip-path="url(#p5ca7e89a14)" d="M 482.901514 202.189872 
L 482.901514 127.849529 
" style="fill:none;stroke:#1f77b4;stroke-width:1.5;"/>
   </g>
   <g id="line2d_19">
    <path clip-path="url(#p5ca7e89a14)" d="M 63.756676 267.123758 
L 63.756676 139.704662 
L 70.921545 139.704662 
L 70.921545 258.20816 
L 78.086414 258.20816 
L 78.086414 133.357127 
L 85.251283 133.357127 
L 85.251283 210.918576 
L 92.416152 210.918576 
L 92.416152 172.730702 
L 99.581021 172.730702 
L 99.581021 122.650038 
L 106.74589 122.650038 
L 106.74589 224.344823 
L 113.910759 224.344823 
L 113.910759 193.721505 
L 121.075628 193.721505 
L 121.075628 135.623135 
L 128.240497 135.623135 
L 128.240497 239.664103 
L 135.405366 239.664103 
L 135.405366 48.875138 
L 142.570235 48.875138 
L 142.570235 194.210875 
L 149.735104 194.210875 
L 149.735104 84.868319 
L 156.899974 84.868319 
L 156.899974 234.547654 
L 164.064843 234.547654 
L 164.064843 240.615031 
L 171.229712 240.615031 
L 171.229712 265.239989 
L 178.394581 265.239989 
L 178.394581 213.418935 
L 185.55945 213.418935 
L 185.55945 74.155485 
L 192.724319 74.155485 
L 192.724319 234.777648 
L 199.889188 234.777648 
L 199.889188 128.442574 
L 207.054057 128.442574 
L 207.054057 256.267629 
L 214.218926 256.267629 
L 214.218926 211.149481 
L 221.383795 211.149481 
L 221.383795 173.872671 
L 228.548664 173.872671 
L 228.548664 258.03739 
L 235.713533 258.03739 
L 235.713533 244.533392 
L 242.878402 244.533392 
L 242.878402 171.921023 
L 250.043271 171.921023 
L 250.043271 63.760357 
L 257.20814 63.760357 
L 257.20814 180.417067 
L 264.373009 180.417067 
L 264.373009 99.394269 
L 271.537878 99.394269 
L 271.537878 86.782036 
L 278.702747 86.782036 
L 278.702747 216.959291 
L 285.867616 216.959291 
L 285.867616 110.029345 
L 293.032485 110.029345 
L 293.032485 239.656517 
L 300.197354 239.656517 
L 300.197354 99.02921 
L 307.362223 99.02921 
L 307.362223 216.818844 
L 314.527092 216.818844 
L 314.527092 54.832617 
L 321.691961 54.832617 
L 321.691961 165.203628 
L 328.85683 165.203628 
L 328.85683 261.29612 
L 336.021699 261.29612 
L 336.021699 132.742942 
L 343.186568 132.742942 
L 343.186568 51.76595 
L 350.351437 51.76595 
L 350.351437 68.923259 
L 357.516306 68.923259 
L 357.516306 126.255 
L 364.681175 126.255 
L 364.681175 235.178747 
L 371.846044 235.178747 
L 371.846044 253.092913 
L 379.010913 253.092913 
L 379.010913 125.782719 
L 386.175782 125.782719 
L 386.175782 186.647878 
L 393.340651 186.647878 
L 393.340651 173.045572 
L 400.505521 173.045572 
L 400.505521 63.566636 
L 407.67039 63.566636 
L 407.67039 171.048178 
L 414.835259 171.048178 
L 414.835259 228.774677 
L 422.000128 228.774677 
L 422.000128 193.733914 
L 429.164997 193.733914 
L 429.164997 164.671057 
L 436.329866 164.671057 
L 436.329866 105.709276 
L 443.494735 105.709276 
L 443.494735 201.398621 
L 450.659604 201.398621 
L 450.659604 84.679542 
L 457.824473 84.679542 
L 457.824473 59.38573 
L 464.989342 59.38573 
L 464.989342 165.498562 
L 472.154211 165.498562 
L 472.154211 230.653403 
L 479.31908 230.653403 
L 479.31908 165.0197 
L 486.483949 165.0197 
" style="fill:none;stroke:#1f77b4;stroke-linecap:square;stroke-width:1.5;"/>
   </g>
   <g id="line2d_20">
    <defs>
     <path d="M 0 -3 
L -3 3 
L 3 3 
z
" id="meec47aba60" style="stroke:#00ffff;stroke-linejoin:miter;"/>
    </defs>
    <g clip-path="url(#p5ca7e89a14)">
     <use style="fill:#00ffff;stroke:#00ffff;stroke-linejoin:miter;" x="63.756676" xlink:href="#meec47aba60" y="214.434927"/>
     <use style="fill:#00ffff;stroke:#00ffff;stroke-linejoin:miter;" x="70.921545" xlink:href="#meec47aba60" y="75.27755"/>
     <use style="fill:#00ffff;stroke:#00ffff;stroke-linejoin:miter;" x="78.086414" xlink:href="#meec47aba60" y="235.44776"/>
     <use style="fill:#00ffff;stroke:#00ffff;stroke-linejoin:miter;" x="85.251283" xlink:href="#meec47aba60" y="150.129055"/>
     <use style="fill:#00ffff;stroke:#00ffff;stroke-linejoin:miter;" x="92.416152" xlink:href="#meec47aba60" y="206.212537"/>
     <use style="fill:#00ffff;stroke:#00ffff;stroke-linejoin:miter;" x="99.581021" xlink:href="#meec47aba60" y="145.954614"/>
     <use style="fill:#00ffff;stroke:#00ffff;stroke-linejoin:miter;" x="106.74589" xlink:href="#meec47aba60" y="120.424931"/>
     <use style="fill:#00ffff;stroke:#00ffff;stroke-linejoin:miter;" x="113.910759" xlink:href="#meec47aba60" y="67.284371"/>
     <use style="fill:#00ffff;stroke:#00ffff;stroke-linejoin:miter;" x="121.075628" xlink:href="#meec47aba60" y="252.638379"/>
     <use style="fill:#00ffff;stroke:#00ffff;stroke-linejoin:miter;" x="128.240497" xlink:href="#meec47aba60" y="62.41537"/>
     <use style="fill:#00ffff;stroke:#00ffff;stroke-linejoin:miter;" x="135.405366" xlink:href="#meec47aba60" y="261.967241"/>
     <use style="fill:#00ffff;stroke:#00ffff;stroke-linejoin:miter;" x="142.570235" xlink:href="#meec47aba60" y="50.993252"/>
     <use style="fill:#00ffff;stroke:#00ffff;stroke-linejoin:miter;" x="149.735104" xlink:href="#meec47aba60" y="158.24131"/>
     <use style="fill:#00ffff;stroke:#00ffff;stroke-linejoin:miter;" x="156.899974" xlink:href="#meec47aba60" y="73.981217"/>
     <use style="fill:#00ffff;stroke:#00ffff;stroke-linejoin:miter;" x="164.064843" xlink:href="#meec47aba60" y="156.06447"/>
     <use style="fill:#00ffff;stroke:#00ffff;stroke-linejoin:miter;" x="171.229712" xlink:href="#meec47aba60" y="58.991036"/>
     <use style="fill:#00ffff;stroke:#00ffff;stroke-linejoin:miter;" x="178.394581" xlink:href="#meec47aba60" y="255.718157"/>
     <use style="fill:#00ffff;stroke:#00ffff;stroke-linejoin:miter;" x="185.55945" xlink:href="#meec47aba60" y="188.21594"/>
     <use style="fill:#00ffff;stroke:#00ffff;stroke-linejoin:miter;" x="192.724319" xlink:href="#meec47aba60" y="55.639251"/>
     <use style="fill:#00ffff;stroke:#00ffff;stroke-linejoin:miter;" x="199.889188" xlink:href="#meec47aba60" y="259.46968"/>
     <use style="fill:#00ffff;stroke:#00ffff;stroke-linejoin:miter;" x="207.054057" xlink:href="#meec47aba60" y="63.692803"/>
     <use style="fill:#00ffff;stroke:#00ffff;stroke-linejoin:miter;" x="214.218926" xlink:href="#meec47aba60" y="159.768"/>
     <use style="fill:#00ffff;stroke:#00ffff;stroke-linejoin:miter;" x="221.383795" xlink:href="#meec47aba60" y="51.256511"/>
     <use style="fill:#00ffff;stroke:#00ffff;stroke-linejoin:miter;" x="228.548664" xlink:href="#meec47aba60" y="108.903598"/>
     <use style="fill:#00ffff;stroke:#00ffff;stroke-linejoin:miter;" x="235.713533" xlink:href="#meec47aba60" y="265.260724"/>
     <use style="fill:#00ffff;stroke:#00ffff;stroke-linejoin:miter;" x="242.878402" xlink:href="#meec47aba60" y="148.851152"/>
     <use style="fill:#00ffff;stroke:#00ffff;stroke-linejoin:miter;" x="250.043271" xlink:href="#meec47aba60" y="108.988102"/>
     <use style="fill:#00ffff;stroke:#00ffff;stroke-linejoin:miter;" x="257.20814" xlink:href="#meec47aba60" y="219.569425"/>
     <use style="fill:#00ffff;stroke:#00ffff;stroke-linejoin:miter;" x="264.373009" xlink:href="#meec47aba60" y="189.519447"/>
     <use style="fill:#00ffff;stroke:#00ffff;stroke-linejoin:miter;" x="271.537878" xlink:href="#meec47aba60" y="217.043939"/>
     <use style="fill:#00ffff;stroke:#00ffff;stroke-linejoin:miter;" x="278.702747" xlink:href="#meec47aba60" y="118.922562"/>
     <use style="fill:#00ffff;stroke:#00ffff;stroke-linejoin:miter;" x="285.867616" xlink:href="#meec47aba60" y="98.183002"/>
     <use style="fill:#00ffff;stroke:#00ffff;stroke-linejoin:miter;" x="293.032485" xlink:href="#meec47aba60" y="50.142088"/>
     <use style="fill:#00ffff;stroke:#00ffff;stroke-linejoin:miter;" x="300.197354" xlink:href="#meec47aba60" y="75.509848"/>
     <use style="fill:#00ffff;stroke:#00ffff;stroke-linejoin:miter;" x="307.362223" xlink:href="#meec47aba60" y="114.41245"/>
     <use style="fill:#00ffff;stroke:#00ffff;stroke-linejoin:miter;" x="314.527092" xlink:href="#meec47aba60" y="229.569164"/>
     <use style="fill:#00ffff;stroke:#00ffff;stroke-linejoin:miter;" x="321.691961" xlink:href="#meec47aba60" y="54.876596"/>
     <use style="fill:#00ffff;stroke:#00ffff;stroke-linejoin:miter;" x="328.85683" xlink:href="#meec47aba60" y="108.168291"/>
     <use style="fill:#00ffff;stroke:#00ffff;stroke-linejoin:miter;" x="336.021699" xlink:href="#meec47aba60" y="109.944211"/>
     <use style="fill:#00ffff;stroke:#00ffff;stroke-linejoin:miter;" x="343.186568" xlink:href="#meec47aba60" y="227.54934"/>
     <use style="fill:#00ffff;stroke:#00ffff;stroke-linejoin:miter;" x="350.351437" xlink:href="#meec47aba60" y="173.483319"/>
     <use style="fill:#00ffff;stroke:#00ffff;stroke-linejoin:miter;" x="357.516306" xlink:href="#meec47aba60" y="202.226078"/>
     <use style="fill:#00ffff;stroke:#00ffff;stroke-linejoin:miter;" x="364.681175" xlink:href="#meec47aba60" y="126.138478"/>
     <use style="fill:#00ffff;stroke:#00ffff;stroke-linejoin:miter;" x="371.846044" xlink:href="#meec47aba60" y="97.061116"/>
     <use style="fill:#00ffff;stroke:#00ffff;stroke-linejoin:miter;" x="379.010913" xlink:href="#meec47aba60" y="80.106683"/>
     <use style="fill:#00ffff;stroke:#00ffff;stroke-linejoin:miter;" x="386.175782" xlink:href="#meec47aba60" y="165.667232"/>
     <use style="fill:#00ffff;stroke:#00ffff;stroke-linejoin:miter;" x="393.340651" xlink:href="#meec47aba60" y="183.152682"/>
     <use style="fill:#00ffff;stroke:#00ffff;stroke-linejoin:miter;" x="400.505521" xlink:href="#meec47aba60" y="90.622287"/>
     <use style="fill:#00ffff;stroke:#00ffff;stroke-linejoin:miter;" x="407.67039" xlink:href="#meec47aba60" y="193.461155"/>
     <use style="fill:#00ffff;stroke:#00ffff;stroke-linejoin:miter;" x="414.835259" xlink:href="#meec47aba60" y="260.520841"/>
     <use style="fill:#00ffff;stroke:#00ffff;stroke-linejoin:miter;" x="422.000128" xlink:href="#meec47aba60" y="77.520717"/>
     <use style="fill:#00ffff;stroke:#00ffff;stroke-linejoin:miter;" x="429.164997" xlink:href="#meec47aba60" y="154.352018"/>
     <use style="fill:#00ffff;stroke:#00ffff;stroke-linejoin:miter;" x="436.329866" xlink:href="#meec47aba60" y="194.596436"/>
     <use style="fill:#00ffff;stroke:#00ffff;stroke-linejoin:miter;" x="443.494735" xlink:href="#meec47aba60" y="181.452289"/>
     <use style="fill:#00ffff;stroke:#00ffff;stroke-linejoin:miter;" x="450.659604" xlink:href="#meec47aba60" y="148.176449"/>
     <use style="fill:#00ffff;stroke:#00ffff;stroke-linejoin:miter;" x="457.824473" xlink:href="#meec47aba60" y="202.981317"/>
     <use style="fill:#00ffff;stroke:#00ffff;stroke-linejoin:miter;" x="464.989342" xlink:href="#meec47aba60" y="217.394327"/>
     <use style="fill:#00ffff;stroke:#00ffff;stroke-linejoin:miter;" x="472.154211" xlink:href="#meec47aba60" y="223.768605"/>
     <use style="fill:#00ffff;stroke:#00ffff;stroke-linejoin:miter;" x="479.31908" xlink:href="#meec47aba60" y="251.008496"/>
     <use style="fill:#00ffff;stroke:#00ffff;stroke-linejoin:miter;" x="486.483949" xlink:href="#meec47aba60" y="132.39467"/>
    </g>
   </g>
  </g>
 </g>
 <defs>
  <clipPath id="p5ca7e89a14">
   <rect height="307.8075" width="465" x="42.620313" y="7.2"/>
  </clipPath>
 </defs>
</svg>
