<?xml version="1.0" encoding="utf-8" standalone="no"?>
<!DOCTYPE svg PUBLIC "-//W3C//DTD SVG 1.1//EN"
  "http://www.w3.org/Graphics/SVG/1.1/DTD/svg11.dtd">
<!-- Created with matplotlib (https://matplotlib.org/) -->
<svg height="354.341602pt" version="1.1" viewBox="0 0 519.165625 354.341602" width="519.165625pt" xmlns="http://www.w3.org/2000/svg" xmlns:xlink="http://www.w3.org/1999/xlink">
 <defs>
  <style type="text/css">
*{stroke-linecap:butt;stroke-linejoin:round;}
  </style>
 </defs>
 <g id="figure_1">
  <g id="patch_1">
   <path d="M 0 354.341602 
L 519.165625 354.341602 
L 519.165625 0 
L 0 0 
z
" style="fill:#ffffff;"/>
  </g>
  <g id="axes_1">
   <g id="patch_2">
    <path d="M 46.965625 316.785352 
L 511.965625 316.785352 
L 511.965625 8.977852 
L 46.965625 8.977852 
z
" style="fill:#ffffff;"/>
   </g>
   <g id="matplotlib.axis_1">
    <g id="xtick_1">
     <g id="line2d_1">
      <defs>
       <path d="M 0 0 
L 0 3.5 
" id="macdf6a9d01" style="stroke:#000000;stroke-width:0.8;"/>
      </defs>
      <g>
       <use style="stroke:#000000;stroke-width:0.8;" x="68.101989" xlink:href="#macdf6a9d01" y="316.785352"/>
      </g>
     </g>
     <g id="text_1">
      <!-- 0 -->
      <defs>
       <path d="M 31.78125 66.40625 
Q 24.171875 66.40625 20.328125 58.90625 
Q 16.5 51.421875 16.5 36.375 
Q 16.5 21.390625 20.328125 13.890625 
Q 24.171875 6.390625 31.78125 6.390625 
Q 39.453125 6.390625 43.28125 13.890625 
Q 47.125 21.390625 47.125 36.375 
Q 47.125 51.421875 43.28125 58.90625 
Q 39.453125 66.40625 31.78125 66.40625 
z
M 31.78125 74.21875 
Q 44.046875 74.21875 50.515625 64.515625 
Q 56.984375 54.828125 56.984375 36.375 
Q 56.984375 17.96875 50.515625 8.265625 
Q 44.046875 -1.421875 31.78125 -1.421875 
Q 19.53125 -1.421875 13.0625 8.265625 
Q 6.59375 17.96875 6.59375 36.375 
Q 6.59375 54.828125 13.0625 64.515625 
Q 19.53125 74.21875 31.78125 74.21875 
z
" id="DejaVuSans-48"/>
      </defs>
      <g transform="translate(64.920739 331.38379)scale(0.1 -0.1)">
       <use xlink:href="#DejaVuSans-48"/>
      </g>
     </g>
    </g>
    <g id="xtick_2">
     <g id="line2d_2">
      <g>
       <use style="stroke:#000000;stroke-width:0.8;" x="152.647443" xlink:href="#macdf6a9d01" y="316.785352"/>
      </g>
     </g>
     <g id="text_2">
      <!-- 20000 -->
      <defs>
       <path d="M 19.1875 8.296875 
L 53.609375 8.296875 
L 53.609375 0 
L 7.328125 0 
L 7.328125 8.296875 
Q 12.9375 14.109375 22.625 23.890625 
Q 32.328125 33.6875 34.8125 36.53125 
Q 39.546875 41.84375 41.421875 45.53125 
Q 43.3125 49.21875 43.3125 52.78125 
Q 43.3125 58.59375 39.234375 62.25 
Q 35.15625 65.921875 28.609375 65.921875 
Q 23.96875 65.921875 18.8125 64.3125 
Q 13.671875 62.703125 7.8125 59.421875 
L 7.8125 69.390625 
Q 13.765625 71.78125 18.9375 73 
Q 24.125 74.21875 28.421875 74.21875 
Q 39.75 74.21875 46.484375 68.546875 
Q 53.21875 62.890625 53.21875 53.421875 
Q 53.21875 48.921875 51.53125 44.890625 
Q 49.859375 40.875 45.40625 35.40625 
Q 44.1875 33.984375 37.640625 27.21875 
Q 31.109375 20.453125 19.1875 8.296875 
z
" id="DejaVuSans-50"/>
      </defs>
      <g transform="translate(136.741193 331.38379)scale(0.1 -0.1)">
       <use xlink:href="#DejaVuSans-50"/>
       <use x="63.623047" xlink:href="#DejaVuSans-48"/>
       <use x="127.246094" xlink:href="#DejaVuSans-48"/>
       <use x="190.869141" xlink:href="#DejaVuSans-48"/>
       <use x="254.492188" xlink:href="#DejaVuSans-48"/>
      </g>
     </g>
    </g>
    <g id="xtick_3">
     <g id="line2d_3">
      <g>
       <use style="stroke:#000000;stroke-width:0.8;" x="237.192898" xlink:href="#macdf6a9d01" y="316.785352"/>
      </g>
     </g>
     <g id="text_3">
      <!-- 40000 -->
      <defs>
       <path d="M 37.796875 64.3125 
L 12.890625 25.390625 
L 37.796875 25.390625 
z
M 35.203125 72.90625 
L 47.609375 72.90625 
L 47.609375 25.390625 
L 58.015625 25.390625 
L 58.015625 17.1875 
L 47.609375 17.1875 
L 47.609375 0 
L 37.796875 0 
L 37.796875 17.1875 
L 4.890625 17.1875 
L 4.890625 26.703125 
z
" id="DejaVuSans-52"/>
      </defs>
      <g transform="translate(221.286648 331.38379)scale(0.1 -0.1)">
       <use xlink:href="#DejaVuSans-52"/>
       <use x="63.623047" xlink:href="#DejaVuSans-48"/>
       <use x="127.246094" xlink:href="#DejaVuSans-48"/>
       <use x="190.869141" xlink:href="#DejaVuSans-48"/>
       <use x="254.492188" xlink:href="#DejaVuSans-48"/>
      </g>
     </g>
    </g>
    <g id="xtick_4">
     <g id="line2d_4">
      <g>
       <use style="stroke:#000000;stroke-width:0.8;" x="321.738352" xlink:href="#macdf6a9d01" y="316.785352"/>
      </g>
     </g>
     <g id="text_4">
      <!-- 60000 -->
      <defs>
       <path d="M 33.015625 40.375 
Q 26.375 40.375 22.484375 35.828125 
Q 18.609375 31.296875 18.609375 23.390625 
Q 18.609375 15.53125 22.484375 10.953125 
Q 26.375 6.390625 33.015625 6.390625 
Q 39.65625 6.390625 43.53125 10.953125 
Q 47.40625 15.53125 47.40625 23.390625 
Q 47.40625 31.296875 43.53125 35.828125 
Q 39.65625 40.375 33.015625 40.375 
z
M 52.59375 71.296875 
L 52.59375 62.3125 
Q 48.875 64.0625 45.09375 64.984375 
Q 41.3125 65.921875 37.59375 65.921875 
Q 27.828125 65.921875 22.671875 59.328125 
Q 17.53125 52.734375 16.796875 39.40625 
Q 19.671875 43.65625 24.015625 45.921875 
Q 28.375 48.1875 33.59375 48.1875 
Q 44.578125 48.1875 50.953125 41.515625 
Q 57.328125 34.859375 57.328125 23.390625 
Q 57.328125 12.15625 50.6875 5.359375 
Q 44.046875 -1.421875 33.015625 -1.421875 
Q 20.359375 -1.421875 13.671875 8.265625 
Q 6.984375 17.96875 6.984375 36.375 
Q 6.984375 53.65625 15.1875 63.9375 
Q 23.390625 74.21875 37.203125 74.21875 
Q 40.921875 74.21875 44.703125 73.484375 
Q 48.484375 72.75 52.59375 71.296875 
z
" id="DejaVuSans-54"/>
      </defs>
      <g transform="translate(305.832102 331.38379)scale(0.1 -0.1)">
       <use xlink:href="#DejaVuSans-54"/>
       <use x="63.623047" xlink:href="#DejaVuSans-48"/>
       <use x="127.246094" xlink:href="#DejaVuSans-48"/>
       <use x="190.869141" xlink:href="#DejaVuSans-48"/>
       <use x="254.492188" xlink:href="#DejaVuSans-48"/>
      </g>
     </g>
    </g>
    <g id="xtick_5">
     <g id="line2d_5">
      <g>
       <use style="stroke:#000000;stroke-width:0.8;" x="406.283807" xlink:href="#macdf6a9d01" y="316.785352"/>
      </g>
     </g>
     <g id="text_5">
      <!-- 80000 -->
      <defs>
       <path d="M 31.78125 34.625 
Q 24.75 34.625 20.71875 30.859375 
Q 16.703125 27.09375 16.703125 20.515625 
Q 16.703125 13.921875 20.71875 10.15625 
Q 24.75 6.390625 31.78125 6.390625 
Q 38.8125 6.390625 42.859375 10.171875 
Q 46.921875 13.96875 46.921875 20.515625 
Q 46.921875 27.09375 42.890625 30.859375 
Q 38.875 34.625 31.78125 34.625 
z
M 21.921875 38.8125 
Q 15.578125 40.375 12.03125 44.71875 
Q 8.5 49.078125 8.5 55.328125 
Q 8.5 64.0625 14.71875 69.140625 
Q 20.953125 74.21875 31.78125 74.21875 
Q 42.671875 74.21875 48.875 69.140625 
Q 55.078125 64.0625 55.078125 55.328125 
Q 55.078125 49.078125 51.53125 44.71875 
Q 48 40.375 41.703125 38.8125 
Q 48.828125 37.15625 52.796875 32.3125 
Q 56.78125 27.484375 56.78125 20.515625 
Q 56.78125 9.90625 50.3125 4.234375 
Q 43.84375 -1.421875 31.78125 -1.421875 
Q 19.734375 -1.421875 13.25 4.234375 
Q 6.78125 9.90625 6.78125 20.515625 
Q 6.78125 27.484375 10.78125 32.3125 
Q 14.796875 37.15625 21.921875 38.8125 
z
M 18.3125 54.390625 
Q 18.3125 48.734375 21.84375 45.5625 
Q 25.390625 42.390625 31.78125 42.390625 
Q 38.140625 42.390625 41.71875 45.5625 
Q 45.3125 48.734375 45.3125 54.390625 
Q 45.3125 60.0625 41.71875 63.234375 
Q 38.140625 66.40625 31.78125 66.40625 
Q 25.390625 66.40625 21.84375 63.234375 
Q 18.3125 60.0625 18.3125 54.390625 
z
" id="DejaVuSans-56"/>
      </defs>
      <g transform="translate(390.377557 331.38379)scale(0.1 -0.1)">
       <use xlink:href="#DejaVuSans-56"/>
       <use x="63.623047" xlink:href="#DejaVuSans-48"/>
       <use x="127.246094" xlink:href="#DejaVuSans-48"/>
       <use x="190.869141" xlink:href="#DejaVuSans-48"/>
       <use x="254.492188" xlink:href="#DejaVuSans-48"/>
      </g>
     </g>
    </g>
    <g id="xtick_6">
     <g id="line2d_6">
      <g>
       <use style="stroke:#000000;stroke-width:0.8;" x="490.829261" xlink:href="#macdf6a9d01" y="316.785352"/>
      </g>
     </g>
     <g id="text_6">
      <!-- 100000 -->
      <defs>
       <path d="M 12.40625 8.296875 
L 28.515625 8.296875 
L 28.515625 63.921875 
L 10.984375 60.40625 
L 10.984375 69.390625 
L 28.421875 72.90625 
L 38.28125 72.90625 
L 38.28125 8.296875 
L 54.390625 8.296875 
L 54.390625 0 
L 12.40625 0 
z
" id="DejaVuSans-49"/>
      </defs>
      <g transform="translate(471.741761 331.38379)scale(0.1 -0.1)">
       <use xlink:href="#DejaVuSans-49"/>
       <use x="63.623047" xlink:href="#DejaVuSans-48"/>
       <use x="127.246094" xlink:href="#DejaVuSans-48"/>
       <use x="190.869141" xlink:href="#DejaVuSans-48"/>
       <use x="254.492188" xlink:href="#DejaVuSans-48"/>
       <use x="318.115234" xlink:href="#DejaVuSans-48"/>
      </g>
     </g>
    </g>
    <g id="text_7">
     <!-- time [s] -->
     <defs>
      <path d="M 18.3125 70.21875 
L 18.3125 54.6875 
L 36.8125 54.6875 
L 36.8125 47.703125 
L 18.3125 47.703125 
L 18.3125 18.015625 
Q 18.3125 11.328125 20.140625 9.421875 
Q 21.96875 7.515625 27.59375 7.515625 
L 36.8125 7.515625 
L 36.8125 0 
L 27.59375 0 
Q 17.1875 0 13.234375 3.875 
Q 9.28125 7.765625 9.28125 18.015625 
L 9.28125 47.703125 
L 2.6875 47.703125 
L 2.6875 54.6875 
L 9.28125 54.6875 
L 9.28125 70.21875 
z
" id="DejaVuSans-116"/>
      <path d="M 9.421875 54.6875 
L 18.40625 54.6875 
L 18.40625 0 
L 9.421875 0 
z
M 9.421875 75.984375 
L 18.40625 75.984375 
L 18.40625 64.59375 
L 9.421875 64.59375 
z
" id="DejaVuSans-105"/>
      <path d="M 52 44.1875 
Q 55.375 50.25 60.0625 53.125 
Q 64.75 56 71.09375 56 
Q 79.640625 56 84.28125 50.015625 
Q 88.921875 44.046875 88.921875 33.015625 
L 88.921875 0 
L 79.890625 0 
L 79.890625 32.71875 
Q 79.890625 40.578125 77.09375 44.375 
Q 74.3125 48.1875 68.609375 48.1875 
Q 61.625 48.1875 57.5625 43.546875 
Q 53.515625 38.921875 53.515625 30.90625 
L 53.515625 0 
L 44.484375 0 
L 44.484375 32.71875 
Q 44.484375 40.625 41.703125 44.40625 
Q 38.921875 48.1875 33.109375 48.1875 
Q 26.21875 48.1875 22.15625 43.53125 
Q 18.109375 38.875 18.109375 30.90625 
L 18.109375 0 
L 9.078125 0 
L 9.078125 54.6875 
L 18.109375 54.6875 
L 18.109375 46.1875 
Q 21.1875 51.21875 25.484375 53.609375 
Q 29.78125 56 35.6875 56 
Q 41.65625 56 45.828125 52.96875 
Q 50 49.953125 52 44.1875 
z
" id="DejaVuSans-109"/>
      <path d="M 56.203125 29.59375 
L 56.203125 25.203125 
L 14.890625 25.203125 
Q 15.484375 15.921875 20.484375 11.0625 
Q 25.484375 6.203125 34.421875 6.203125 
Q 39.59375 6.203125 44.453125 7.46875 
Q 49.3125 8.734375 54.109375 11.28125 
L 54.109375 2.78125 
Q 49.265625 0.734375 44.1875 -0.34375 
Q 39.109375 -1.421875 33.890625 -1.421875 
Q 20.796875 -1.421875 13.15625 6.1875 
Q 5.515625 13.8125 5.515625 26.8125 
Q 5.515625 40.234375 12.765625 48.109375 
Q 20.015625 56 32.328125 56 
Q 43.359375 56 49.78125 48.890625 
Q 56.203125 41.796875 56.203125 29.59375 
z
M 47.21875 32.234375 
Q 47.125 39.59375 43.09375 43.984375 
Q 39.0625 48.390625 32.421875 48.390625 
Q 24.90625 48.390625 20.390625 44.140625 
Q 15.875 39.890625 15.1875 32.171875 
z
" id="DejaVuSans-101"/>
      <path id="DejaVuSans-32"/>
      <path d="M 8.59375 75.984375 
L 29.296875 75.984375 
L 29.296875 69 
L 17.578125 69 
L 17.578125 -6.203125 
L 29.296875 -6.203125 
L 29.296875 -13.1875 
L 8.59375 -13.1875 
z
" id="DejaVuSans-91"/>
      <path d="M 44.28125 53.078125 
L 44.28125 44.578125 
Q 40.484375 46.53125 36.375 47.5 
Q 32.28125 48.484375 27.875 48.484375 
Q 21.1875 48.484375 17.84375 46.4375 
Q 14.5 44.390625 14.5 40.28125 
Q 14.5 37.15625 16.890625 35.375 
Q 19.28125 33.59375 26.515625 31.984375 
L 29.59375 31.296875 
Q 39.15625 29.25 43.1875 25.515625 
Q 47.21875 21.78125 47.21875 15.09375 
Q 47.21875 7.46875 41.1875 3.015625 
Q 35.15625 -1.421875 24.609375 -1.421875 
Q 20.21875 -1.421875 15.453125 -0.5625 
Q 10.6875 0.296875 5.421875 2 
L 5.421875 11.28125 
Q 10.40625 8.6875 15.234375 7.390625 
Q 20.0625 6.109375 24.8125 6.109375 
Q 31.15625 6.109375 34.5625 8.28125 
Q 37.984375 10.453125 37.984375 14.40625 
Q 37.984375 18.0625 35.515625 20.015625 
Q 33.0625 21.96875 24.703125 23.78125 
L 21.578125 24.515625 
Q 13.234375 26.265625 9.515625 29.90625 
Q 5.8125 33.546875 5.8125 39.890625 
Q 5.8125 47.609375 11.28125 51.796875 
Q 16.75 56 26.8125 56 
Q 31.78125 56 36.171875 55.265625 
Q 40.578125 54.546875 44.28125 53.078125 
z
" id="DejaVuSans-115"/>
      <path d="M 30.421875 75.984375 
L 30.421875 -13.1875 
L 9.71875 -13.1875 
L 9.71875 -6.203125 
L 21.390625 -6.203125 
L 21.390625 69 
L 9.71875 69 
L 9.71875 75.984375 
z
" id="DejaVuSans-93"/>
     </defs>
     <g transform="translate(260.074219 345.061915)scale(0.1 -0.1)">
      <use xlink:href="#DejaVuSans-116"/>
      <use x="39.208984" xlink:href="#DejaVuSans-105"/>
      <use x="66.992188" xlink:href="#DejaVuSans-109"/>
      <use x="164.404297" xlink:href="#DejaVuSans-101"/>
      <use x="225.927734" xlink:href="#DejaVuSans-32"/>
      <use x="257.714844" xlink:href="#DejaVuSans-91"/>
      <use x="296.728516" xlink:href="#DejaVuSans-115"/>
      <use x="348.828125" xlink:href="#DejaVuSans-93"/>
     </g>
    </g>
   </g>
   <g id="matplotlib.axis_2">
    <g id="ytick_1">
     <g id="line2d_7">
      <defs>
       <path d="M 0 0 
L -3.5 0 
" id="m01da204402" style="stroke:#000000;stroke-width:0.8;"/>
      </defs>
      <g>
       <use style="stroke:#000000;stroke-width:0.8;" x="46.965625" xlink:href="#m01da204402" y="315.786292"/>
      </g>
     </g>
     <g id="text_8">
      <!-- 100 -->
      <g transform="translate(20.878125 319.58551)scale(0.1 -0.1)">
       <use xlink:href="#DejaVuSans-49"/>
       <use x="63.623047" xlink:href="#DejaVuSans-48"/>
       <use x="127.246094" xlink:href="#DejaVuSans-48"/>
      </g>
     </g>
    </g>
    <g id="ytick_2">
     <g id="line2d_8">
      <g>
       <use style="stroke:#000000;stroke-width:0.8;" x="46.965625" xlink:href="#m01da204402" y="254.828877"/>
      </g>
     </g>
     <g id="text_9">
      <!-- 105 -->
      <defs>
       <path d="M 10.796875 72.90625 
L 49.515625 72.90625 
L 49.515625 64.59375 
L 19.828125 64.59375 
L 19.828125 46.734375 
Q 21.96875 47.46875 24.109375 47.828125 
Q 26.265625 48.1875 28.421875 48.1875 
Q 40.625 48.1875 47.75 41.5 
Q 54.890625 34.8125 54.890625 23.390625 
Q 54.890625 11.625 47.5625 5.09375 
Q 40.234375 -1.421875 26.90625 -1.421875 
Q 22.3125 -1.421875 17.546875 -0.640625 
Q 12.796875 0.140625 7.71875 1.703125 
L 7.71875 11.625 
Q 12.109375 9.234375 16.796875 8.0625 
Q 21.484375 6.890625 26.703125 6.890625 
Q 35.15625 6.890625 40.078125 11.328125 
Q 45.015625 15.765625 45.015625 23.390625 
Q 45.015625 31 40.078125 35.4375 
Q 35.15625 39.890625 26.703125 39.890625 
Q 22.75 39.890625 18.8125 39.015625 
Q 14.890625 38.140625 10.796875 36.28125 
z
" id="DejaVuSans-53"/>
      </defs>
      <g transform="translate(20.878125 258.628096)scale(0.1 -0.1)">
       <use xlink:href="#DejaVuSans-49"/>
       <use x="63.623047" xlink:href="#DejaVuSans-48"/>
       <use x="127.246094" xlink:href="#DejaVuSans-53"/>
      </g>
     </g>
    </g>
    <g id="ytick_3">
     <g id="line2d_9">
      <g>
       <use style="stroke:#000000;stroke-width:0.8;" x="46.965625" xlink:href="#m01da204402" y="193.871462"/>
      </g>
     </g>
     <g id="text_10">
      <!-- 110 -->
      <g transform="translate(20.878125 197.670681)scale(0.1 -0.1)">
       <use xlink:href="#DejaVuSans-49"/>
       <use x="63.623047" xlink:href="#DejaVuSans-49"/>
       <use x="127.246094" xlink:href="#DejaVuSans-48"/>
      </g>
     </g>
    </g>
    <g id="ytick_4">
     <g id="line2d_10">
      <g>
       <use style="stroke:#000000;stroke-width:0.8;" x="46.965625" xlink:href="#m01da204402" y="132.914048"/>
      </g>
     </g>
     <g id="text_11">
      <!-- 115 -->
      <g transform="translate(20.878125 136.713267)scale(0.1 -0.1)">
       <use xlink:href="#DejaVuSans-49"/>
       <use x="63.623047" xlink:href="#DejaVuSans-49"/>
       <use x="127.246094" xlink:href="#DejaVuSans-53"/>
      </g>
     </g>
    </g>
    <g id="ytick_5">
     <g id="line2d_11">
      <g>
       <use style="stroke:#000000;stroke-width:0.8;" x="46.965625" xlink:href="#m01da204402" y="71.956633"/>
      </g>
     </g>
     <g id="text_12">
      <!-- 120 -->
      <g transform="translate(20.878125 75.755852)scale(0.1 -0.1)">
       <use xlink:href="#DejaVuSans-49"/>
       <use x="63.623047" xlink:href="#DejaVuSans-50"/>
       <use x="127.246094" xlink:href="#DejaVuSans-48"/>
      </g>
     </g>
    </g>
    <g id="ytick_6">
     <g id="line2d_12">
      <g>
       <use style="stroke:#000000;stroke-width:0.8;" x="46.965625" xlink:href="#m01da204402" y="10.999219"/>
      </g>
     </g>
     <g id="text_13">
      <!-- 125 -->
      <g transform="translate(20.878125 14.798438)scale(0.1 -0.1)">
       <use xlink:href="#DejaVuSans-49"/>
       <use x="63.623047" xlink:href="#DejaVuSans-50"/>
       <use x="127.246094" xlink:href="#DejaVuSans-53"/>
      </g>
     </g>
    </g>
    <g id="text_14">
     <!--  [K] -->
     <defs>
      <path d="M 9.8125 72.90625 
L 19.671875 72.90625 
L 19.671875 42.09375 
L 52.390625 72.90625 
L 65.09375 72.90625 
L 28.90625 38.921875 
L 67.671875 0 
L 54.6875 0 
L 19.671875 35.109375 
L 19.671875 0 
L 9.8125 0 
z
" id="DejaVuSans-75"/>
     </defs>
     <g transform="translate(14.798438 171.651133)rotate(-90)scale(0.1 -0.1)">
      <use xlink:href="#DejaVuSans-32"/>
      <use x="31.787109" xlink:href="#DejaVuSans-91"/>
      <use x="70.800781" xlink:href="#DejaVuSans-75"/>
      <use x="136.376953" xlink:href="#DejaVuSans-93"/>
     </g>
    </g>
   </g>
   <g id="patch_3">
    <path d="M 46.965625 316.785352 
L 46.965625 8.977852 
" style="fill:none;stroke:#000000;stroke-linecap:square;stroke-linejoin:miter;stroke-width:0.8;"/>
   </g>
   <g id="patch_4">
    <path d="M 511.965625 316.785352 
L 511.965625 8.977852 
" style="fill:none;stroke:#000000;stroke-linecap:square;stroke-linejoin:miter;stroke-width:0.8;"/>
   </g>
   <g id="patch_5">
    <path d="M 46.965625 316.785352 
L 511.965625 316.785352 
" style="fill:none;stroke:#000000;stroke-linecap:square;stroke-linejoin:miter;stroke-width:0.8;"/>
   </g>
   <g id="patch_6">
    <path d="M 46.965625 8.977852 
L 511.965625 8.977852 
" style="fill:none;stroke:#000000;stroke-linecap:square;stroke-linejoin:miter;stroke-width:0.8;"/>
   </g>
   <g id="line2d_13">
    <defs>
     <path d="M 0 3 
C 0.795609 3 1.55874 2.683901 2.12132 2.12132 
C 2.683901 1.55874 3 0.795609 3 0 
C 3 -0.795609 2.683901 -1.55874 2.12132 -2.12132 
C 1.55874 -2.683901 0.795609 -3 0 -3 
C -0.795609 -3 -1.55874 -2.683901 -2.12132 -2.12132 
C -2.683901 -1.55874 -3 -0.795609 -3 0 
C -3 0.795609 -2.683901 1.55874 -2.12132 2.12132 
C -1.55874 2.683901 -0.795609 3 0 3 
z
" id="m79370a92dd" style="stroke:#1f77b4;"/>
    </defs>
    <g clip-path="url(#p09c99e65b1)">
     <use style="fill:#1f77b4;stroke:#1f77b4;" x="68.101989" xlink:href="#m79370a92dd" y="302.794102"/>
     <use style="fill:#1f77b4;stroke:#1f77b4;" x="72.371961" xlink:href="#m79370a92dd" y="253.441959"/>
     <use style="fill:#1f77b4;stroke:#1f77b4;" x="76.641934" xlink:href="#m79370a92dd" y="286.539138"/>
     <use style="fill:#1f77b4;stroke:#1f77b4;" x="80.911906" xlink:href="#m79370a92dd" y="248.266769"/>
     <use style="fill:#1f77b4;stroke:#1f77b4;" x="85.181878" xlink:href="#m79370a92dd" y="282.31333"/>
     <use style="fill:#1f77b4;stroke:#1f77b4;" x="89.451851" xlink:href="#m79370a92dd" y="281.054993"/>
     <use style="fill:#1f77b4;stroke:#1f77b4;" x="93.721823" xlink:href="#m79370a92dd" y="250.112191"/>
     <use style="fill:#1f77b4;stroke:#1f77b4;" x="97.991796" xlink:href="#m79370a92dd" y="295.156329"/>
     <use style="fill:#1f77b4;stroke:#1f77b4;" x="102.261768" xlink:href="#m79370a92dd" y="251.323761"/>
     <use style="fill:#1f77b4;stroke:#1f77b4;" x="106.531741" xlink:href="#m79370a92dd" y="291.769973"/>
     <use style="fill:#1f77b4;stroke:#1f77b4;" x="110.801713" xlink:href="#m79370a92dd" y="272.466318"/>
     <use style="fill:#1f77b4;stroke:#1f77b4;" x="115.071686" xlink:href="#m79370a92dd" y="273.959302"/>
     <use style="fill:#1f77b4;stroke:#1f77b4;" x="119.341658" xlink:href="#m79370a92dd" y="265.826233"/>
     <use style="fill:#1f77b4;stroke:#1f77b4;" x="123.611631" xlink:href="#m79370a92dd" y="228.148536"/>
     <use style="fill:#1f77b4;stroke:#1f77b4;" x="127.881603" xlink:href="#m79370a92dd" y="220.429453"/>
     <use style="fill:#1f77b4;stroke:#1f77b4;" x="132.151575" xlink:href="#m79370a92dd" y="248.56135"/>
     <use style="fill:#1f77b4;stroke:#1f77b4;" x="136.421548" xlink:href="#m79370a92dd" y="254.347315"/>
     <use style="fill:#1f77b4;stroke:#1f77b4;" x="140.69152" xlink:href="#m79370a92dd" y="225.742713"/>
     <use style="fill:#1f77b4;stroke:#1f77b4;" x="144.961493" xlink:href="#m79370a92dd" y="253.270319"/>
     <use style="fill:#1f77b4;stroke:#1f77b4;" x="149.231465" xlink:href="#m79370a92dd" y="229.59458"/>
     <use style="fill:#1f77b4;stroke:#1f77b4;" x="153.501438" xlink:href="#m79370a92dd" y="255.206408"/>
     <use style="fill:#1f77b4;stroke:#1f77b4;" x="157.77141" xlink:href="#m79370a92dd" y="256.843494"/>
     <use style="fill:#1f77b4;stroke:#1f77b4;" x="162.041383" xlink:href="#m79370a92dd" y="238.679986"/>
     <use style="fill:#1f77b4;stroke:#1f77b4;" x="166.311355" xlink:href="#m79370a92dd" y="251.797515"/>
     <use style="fill:#1f77b4;stroke:#1f77b4;" x="170.581327" xlink:href="#m79370a92dd" y="197.838712"/>
     <use style="fill:#1f77b4;stroke:#1f77b4;" x="174.8513" xlink:href="#m79370a92dd" y="195.044156"/>
     <use style="fill:#1f77b4;stroke:#1f77b4;" x="179.121272" xlink:href="#m79370a92dd" y="248.07779"/>
     <use style="fill:#1f77b4;stroke:#1f77b4;" x="183.391245" xlink:href="#m79370a92dd" y="224.496011"/>
     <use style="fill:#1f77b4;stroke:#1f77b4;" x="187.661217" xlink:href="#m79370a92dd" y="207.771491"/>
     <use style="fill:#1f77b4;stroke:#1f77b4;" x="191.93119" xlink:href="#m79370a92dd" y="193.504331"/>
     <use style="fill:#1f77b4;stroke:#1f77b4;" x="196.201162" xlink:href="#m79370a92dd" y="205.775879"/>
     <use style="fill:#1f77b4;stroke:#1f77b4;" x="200.471135" xlink:href="#m79370a92dd" y="215.354533"/>
     <use style="fill:#1f77b4;stroke:#1f77b4;" x="204.741107" xlink:href="#m79370a92dd" y="211.250931"/>
     <use style="fill:#1f77b4;stroke:#1f77b4;" x="209.01108" xlink:href="#m79370a92dd" y="192.488647"/>
     <use style="fill:#1f77b4;stroke:#1f77b4;" x="213.281052" xlink:href="#m79370a92dd" y="177.430208"/>
     <use style="fill:#1f77b4;stroke:#1f77b4;" x="217.551024" xlink:href="#m79370a92dd" y="208.610413"/>
     <use style="fill:#1f77b4;stroke:#1f77b4;" x="221.820997" xlink:href="#m79370a92dd" y="186.896423"/>
     <use style="fill:#1f77b4;stroke:#1f77b4;" x="226.090969" xlink:href="#m79370a92dd" y="183.387193"/>
     <use style="fill:#1f77b4;stroke:#1f77b4;" x="230.360942" xlink:href="#m79370a92dd" y="166.365463"/>
     <use style="fill:#1f77b4;stroke:#1f77b4;" x="234.630914" xlink:href="#m79370a92dd" y="165.81919"/>
     <use style="fill:#1f77b4;stroke:#1f77b4;" x="238.900887" xlink:href="#m79370a92dd" y="193.728195"/>
     <use style="fill:#1f77b4;stroke:#1f77b4;" x="243.170859" xlink:href="#m79370a92dd" y="179.154188"/>
     <use style="fill:#1f77b4;stroke:#1f77b4;" x="247.440832" xlink:href="#m79370a92dd" y="211.95535"/>
     <use style="fill:#1f77b4;stroke:#1f77b4;" x="251.710804" xlink:href="#m79370a92dd" y="197.734126"/>
     <use style="fill:#1f77b4;stroke:#1f77b4;" x="255.980777" xlink:href="#m79370a92dd" y="183.398697"/>
     <use style="fill:#1f77b4;stroke:#1f77b4;" x="260.250749" xlink:href="#m79370a92dd" y="148.886636"/>
     <use style="fill:#1f77b4;stroke:#1f77b4;" x="264.520721" xlink:href="#m79370a92dd" y="150.306695"/>
     <use style="fill:#1f77b4;stroke:#1f77b4;" x="268.790694" xlink:href="#m79370a92dd" y="170.421727"/>
     <use style="fill:#1f77b4;stroke:#1f77b4;" x="273.060666" xlink:href="#m79370a92dd" y="161.012211"/>
     <use style="fill:#1f77b4;stroke:#1f77b4;" x="277.330639" xlink:href="#m79370a92dd" y="159.58453"/>
     <use style="fill:#1f77b4;stroke:#1f77b4;" x="281.600611" xlink:href="#m79370a92dd" y="177.874787"/>
     <use style="fill:#1f77b4;stroke:#1f77b4;" x="285.870584" xlink:href="#m79370a92dd" y="161.940153"/>
     <use style="fill:#1f77b4;stroke:#1f77b4;" x="290.140556" xlink:href="#m79370a92dd" y="155.544149"/>
     <use style="fill:#1f77b4;stroke:#1f77b4;" x="294.410529" xlink:href="#m79370a92dd" y="129.688547"/>
     <use style="fill:#1f77b4;stroke:#1f77b4;" x="298.680501" xlink:href="#m79370a92dd" y="162.829509"/>
     <use style="fill:#1f77b4;stroke:#1f77b4;" x="302.950473" xlink:href="#m79370a92dd" y="161.799394"/>
     <use style="fill:#1f77b4;stroke:#1f77b4;" x="307.220446" xlink:href="#m79370a92dd" y="166.240428"/>
     <use style="fill:#1f77b4;stroke:#1f77b4;" x="311.490418" xlink:href="#m79370a92dd" y="120.8501"/>
     <use style="fill:#1f77b4;stroke:#1f77b4;" x="315.760391" xlink:href="#m79370a92dd" y="130.244315"/>
     <use style="fill:#1f77b4;stroke:#1f77b4;" x="320.030363" xlink:href="#m79370a92dd" y="133.734522"/>
     <use style="fill:#1f77b4;stroke:#1f77b4;" x="324.300336" xlink:href="#m79370a92dd" y="145.012729"/>
     <use style="fill:#1f77b4;stroke:#1f77b4;" x="328.570308" xlink:href="#m79370a92dd" y="154.445281"/>
     <use style="fill:#1f77b4;stroke:#1f77b4;" x="332.840281" xlink:href="#m79370a92dd" y="147.024791"/>
     <use style="fill:#1f77b4;stroke:#1f77b4;" x="337.110253" xlink:href="#m79370a92dd" y="132.955293"/>
     <use style="fill:#1f77b4;stroke:#1f77b4;" x="341.380226" xlink:href="#m79370a92dd" y="125.480814"/>
     <use style="fill:#1f77b4;stroke:#1f77b4;" x="345.650198" xlink:href="#m79370a92dd" y="99.031687"/>
     <use style="fill:#1f77b4;stroke:#1f77b4;" x="349.92017" xlink:href="#m79370a92dd" y="132.720945"/>
     <use style="fill:#1f77b4;stroke:#1f77b4;" x="354.190143" xlink:href="#m79370a92dd" y="133.869612"/>
     <use style="fill:#1f77b4;stroke:#1f77b4;" x="358.460115" xlink:href="#m79370a92dd" y="124.043798"/>
     <use style="fill:#1f77b4;stroke:#1f77b4;" x="362.730088" xlink:href="#m79370a92dd" y="109.83563"/>
     <use style="fill:#1f77b4;stroke:#1f77b4;" x="367.00006" xlink:href="#m79370a92dd" y="138.091627"/>
     <use style="fill:#1f77b4;stroke:#1f77b4;" x="371.270033" xlink:href="#m79370a92dd" y="102.642712"/>
     <use style="fill:#1f77b4;stroke:#1f77b4;" x="375.540005" xlink:href="#m79370a92dd" y="112.19569"/>
     <use style="fill:#1f77b4;stroke:#1f77b4;" x="379.809978" xlink:href="#m79370a92dd" y="131.740544"/>
     <use style="fill:#1f77b4;stroke:#1f77b4;" x="384.07995" xlink:href="#m79370a92dd" y="123.124494"/>
     <use style="fill:#1f77b4;stroke:#1f77b4;" x="388.349923" xlink:href="#m79370a92dd" y="114.138839"/>
     <use style="fill:#1f77b4;stroke:#1f77b4;" x="392.619895" xlink:href="#m79370a92dd" y="111.134127"/>
     <use style="fill:#1f77b4;stroke:#1f77b4;" x="396.889867" xlink:href="#m79370a92dd" y="101.626248"/>
     <use style="fill:#1f77b4;stroke:#1f77b4;" x="401.15984" xlink:href="#m79370a92dd" y="115.179181"/>
     <use style="fill:#1f77b4;stroke:#1f77b4;" x="405.429812" xlink:href="#m79370a92dd" y="61.127946"/>
     <use style="fill:#1f77b4;stroke:#1f77b4;" x="409.699785" xlink:href="#m79370a92dd" y="96.818885"/>
     <use style="fill:#1f77b4;stroke:#1f77b4;" x="413.969757" xlink:href="#m79370a92dd" y="60.02944"/>
     <use style="fill:#1f77b4;stroke:#1f77b4;" x="418.23973" xlink:href="#m79370a92dd" y="109.431102"/>
     <use style="fill:#1f77b4;stroke:#1f77b4;" x="422.509702" xlink:href="#m79370a92dd" y="110.548964"/>
     <use style="fill:#1f77b4;stroke:#1f77b4;" x="426.779675" xlink:href="#m79370a92dd" y="82.187932"/>
     <use style="fill:#1f77b4;stroke:#1f77b4;" x="431.049647" xlink:href="#m79370a92dd" y="70.175073"/>
     <use style="fill:#1f77b4;stroke:#1f77b4;" x="435.319619" xlink:href="#m79370a92dd" y="90.131884"/>
     <use style="fill:#1f77b4;stroke:#1f77b4;" x="439.589592" xlink:href="#m79370a92dd" y="98.258655"/>
     <use style="fill:#1f77b4;stroke:#1f77b4;" x="443.859564" xlink:href="#m79370a92dd" y="79.918515"/>
     <use style="fill:#1f77b4;stroke:#1f77b4;" x="448.129537" xlink:href="#m79370a92dd" y="90.316807"/>
     <use style="fill:#1f77b4;stroke:#1f77b4;" x="452.399509" xlink:href="#m79370a92dd" y="37.006488"/>
     <use style="fill:#1f77b4;stroke:#1f77b4;" x="456.669482" xlink:href="#m79370a92dd" y="84.027409"/>
     <use style="fill:#1f77b4;stroke:#1f77b4;" x="460.939454" xlink:href="#m79370a92dd" y="61.668601"/>
     <use style="fill:#1f77b4;stroke:#1f77b4;" x="465.209427" xlink:href="#m79370a92dd" y="59.602689"/>
     <use style="fill:#1f77b4;stroke:#1f77b4;" x="469.479399" xlink:href="#m79370a92dd" y="23.566434"/>
     <use style="fill:#1f77b4;stroke:#1f77b4;" x="473.749372" xlink:href="#m79370a92dd" y="37.145597"/>
     <use style="fill:#1f77b4;stroke:#1f77b4;" x="478.019344" xlink:href="#m79370a92dd" y="22.969102"/>
     <use style="fill:#1f77b4;stroke:#1f77b4;" x="482.289316" xlink:href="#m79370a92dd" y="54.347006"/>
     <use style="fill:#1f77b4;stroke:#1f77b4;" x="486.559289" xlink:href="#m79370a92dd" y="44.360104"/>
     <use style="fill:#1f77b4;stroke:#1f77b4;" x="490.829261" xlink:href="#m79370a92dd" y="44.919941"/>
    </g>
   </g>
  </g>
 </g>
 <defs>
  <clipPath id="p09c99e65b1">
   <rect height="307.8075" width="465" x="46.965625" y="8.977852"/>
  </clipPath>
 </defs>
</svg>
