<?xml version="1.0" encoding="utf-8" standalone="no"?>
<!DOCTYPE svg PUBLIC "-//W3C//DTD SVG 1.1//EN"
  "http://www.w3.org/Graphics/SVG/1.1/DTD/svg11.dtd">
<!-- Created with matplotlib (https://matplotlib.org/) -->
<svg height="352.56375pt" version="1.1" viewBox="0 0 525.528125 352.56375" width="525.528125pt" xmlns="http://www.w3.org/2000/svg" xmlns:xlink="http://www.w3.org/1999/xlink">
 <defs>
  <style type="text/css">
*{stroke-linecap:butt;stroke-linejoin:round;}
  </style>
 </defs>
 <g id="figure_1">
  <g id="patch_1">
   <path d="M -0 352.56375 
L 525.528125 352.56375 
L 525.528125 0 
L -0 0 
z
" style="fill:#ffffff;"/>
  </g>
  <g id="axes_1">
   <g id="patch_2">
    <path d="M 53.328125 315.0075 
L 518.328125 315.0075 
L 518.328125 7.2 
L 53.328125 7.2 
z
" style="fill:#ffffff;"/>
   </g>
   <g id="matplotlib.axis_1">
    <g id="xtick_1">
     <g id="line2d_1">
      <defs>
       <path d="M 0 0 
L 0 3.5 
" id="m925d84379a" style="stroke:#000000;stroke-width:0.8;"/>
      </defs>
      <g>
       <use style="stroke:#000000;stroke-width:0.8;" x="74.464489" xlink:href="#m925d84379a" y="315.0075"/>
      </g>
     </g>
     <g id="text_1">
      <!-- 0 -->
      <defs>
       <path d="M 31.78125 66.40625 
Q 24.171875 66.40625 20.328125 58.90625 
Q 16.5 51.421875 16.5 36.375 
Q 16.5 21.390625 20.328125 13.890625 
Q 24.171875 6.390625 31.78125 6.390625 
Q 39.453125 6.390625 43.28125 13.890625 
Q 47.125 21.390625 47.125 36.375 
Q 47.125 51.421875 43.28125 58.90625 
Q 39.453125 66.40625 31.78125 66.40625 
z
M 31.78125 74.21875 
Q 44.046875 74.21875 50.515625 64.515625 
Q 56.984375 54.828125 56.984375 36.375 
Q 56.984375 17.96875 50.515625 8.265625 
Q 44.046875 -1.421875 31.78125 -1.421875 
Q 19.53125 -1.421875 13.0625 8.265625 
Q 6.59375 17.96875 6.59375 36.375 
Q 6.59375 54.828125 13.0625 64.515625 
Q 19.53125 74.21875 31.78125 74.21875 
z
" id="DejaVuSans-48"/>
      </defs>
      <g transform="translate(71.283239 329.605937)scale(0.1 -0.1)">
       <use xlink:href="#DejaVuSans-48"/>
      </g>
     </g>
    </g>
    <g id="xtick_2">
     <g id="line2d_2">
      <g>
       <use style="stroke:#000000;stroke-width:0.8;" x="159.009943" xlink:href="#m925d84379a" y="315.0075"/>
      </g>
     </g>
     <g id="text_2">
      <!-- 2000 -->
      <defs>
       <path d="M 19.1875 8.296875 
L 53.609375 8.296875 
L 53.609375 0 
L 7.328125 0 
L 7.328125 8.296875 
Q 12.9375 14.109375 22.625 23.890625 
Q 32.328125 33.6875 34.8125 36.53125 
Q 39.546875 41.84375 41.421875 45.53125 
Q 43.3125 49.21875 43.3125 52.78125 
Q 43.3125 58.59375 39.234375 62.25 
Q 35.15625 65.921875 28.609375 65.921875 
Q 23.96875 65.921875 18.8125 64.3125 
Q 13.671875 62.703125 7.8125 59.421875 
L 7.8125 69.390625 
Q 13.765625 71.78125 18.9375 73 
Q 24.125 74.21875 28.421875 74.21875 
Q 39.75 74.21875 46.484375 68.546875 
Q 53.21875 62.890625 53.21875 53.421875 
Q 53.21875 48.921875 51.53125 44.890625 
Q 49.859375 40.875 45.40625 35.40625 
Q 44.1875 33.984375 37.640625 27.21875 
Q 31.109375 20.453125 19.1875 8.296875 
z
" id="DejaVuSans-50"/>
      </defs>
      <g transform="translate(146.284943 329.605937)scale(0.1 -0.1)">
       <use xlink:href="#DejaVuSans-50"/>
       <use x="63.623047" xlink:href="#DejaVuSans-48"/>
       <use x="127.246094" xlink:href="#DejaVuSans-48"/>
       <use x="190.869141" xlink:href="#DejaVuSans-48"/>
      </g>
     </g>
    </g>
    <g id="xtick_3">
     <g id="line2d_3">
      <g>
       <use style="stroke:#000000;stroke-width:0.8;" x="243.555398" xlink:href="#m925d84379a" y="315.0075"/>
      </g>
     </g>
     <g id="text_3">
      <!-- 4000 -->
      <defs>
       <path d="M 37.796875 64.3125 
L 12.890625 25.390625 
L 37.796875 25.390625 
z
M 35.203125 72.90625 
L 47.609375 72.90625 
L 47.609375 25.390625 
L 58.015625 25.390625 
L 58.015625 17.1875 
L 47.609375 17.1875 
L 47.609375 0 
L 37.796875 0 
L 37.796875 17.1875 
L 4.890625 17.1875 
L 4.890625 26.703125 
z
" id="DejaVuSans-52"/>
      </defs>
      <g transform="translate(230.830398 329.605937)scale(0.1 -0.1)">
       <use xlink:href="#DejaVuSans-52"/>
       <use x="63.623047" xlink:href="#DejaVuSans-48"/>
       <use x="127.246094" xlink:href="#DejaVuSans-48"/>
       <use x="190.869141" xlink:href="#DejaVuSans-48"/>
      </g>
     </g>
    </g>
    <g id="xtick_4">
     <g id="line2d_4">
      <g>
       <use style="stroke:#000000;stroke-width:0.8;" x="328.100852" xlink:href="#m925d84379a" y="315.0075"/>
      </g>
     </g>
     <g id="text_4">
      <!-- 6000 -->
      <defs>
       <path d="M 33.015625 40.375 
Q 26.375 40.375 22.484375 35.828125 
Q 18.609375 31.296875 18.609375 23.390625 
Q 18.609375 15.53125 22.484375 10.953125 
Q 26.375 6.390625 33.015625 6.390625 
Q 39.65625 6.390625 43.53125 10.953125 
Q 47.40625 15.53125 47.40625 23.390625 
Q 47.40625 31.296875 43.53125 35.828125 
Q 39.65625 40.375 33.015625 40.375 
z
M 52.59375 71.296875 
L 52.59375 62.3125 
Q 48.875 64.0625 45.09375 64.984375 
Q 41.3125 65.921875 37.59375 65.921875 
Q 27.828125 65.921875 22.671875 59.328125 
Q 17.53125 52.734375 16.796875 39.40625 
Q 19.671875 43.65625 24.015625 45.921875 
Q 28.375 48.1875 33.59375 48.1875 
Q 44.578125 48.1875 50.953125 41.515625 
Q 57.328125 34.859375 57.328125 23.390625 
Q 57.328125 12.15625 50.6875 5.359375 
Q 44.046875 -1.421875 33.015625 -1.421875 
Q 20.359375 -1.421875 13.671875 8.265625 
Q 6.984375 17.96875 6.984375 36.375 
Q 6.984375 53.65625 15.1875 63.9375 
Q 23.390625 74.21875 37.203125 74.21875 
Q 40.921875 74.21875 44.703125 73.484375 
Q 48.484375 72.75 52.59375 71.296875 
z
" id="DejaVuSans-54"/>
      </defs>
      <g transform="translate(315.375852 329.605937)scale(0.1 -0.1)">
       <use xlink:href="#DejaVuSans-54"/>
       <use x="63.623047" xlink:href="#DejaVuSans-48"/>
       <use x="127.246094" xlink:href="#DejaVuSans-48"/>
       <use x="190.869141" xlink:href="#DejaVuSans-48"/>
      </g>
     </g>
    </g>
    <g id="xtick_5">
     <g id="line2d_5">
      <g>
       <use style="stroke:#000000;stroke-width:0.8;" x="412.646307" xlink:href="#m925d84379a" y="315.0075"/>
      </g>
     </g>
     <g id="text_5">
      <!-- 8000 -->
      <defs>
       <path d="M 31.78125 34.625 
Q 24.75 34.625 20.71875 30.859375 
Q 16.703125 27.09375 16.703125 20.515625 
Q 16.703125 13.921875 20.71875 10.15625 
Q 24.75 6.390625 31.78125 6.390625 
Q 38.8125 6.390625 42.859375 10.171875 
Q 46.921875 13.96875 46.921875 20.515625 
Q 46.921875 27.09375 42.890625 30.859375 
Q 38.875 34.625 31.78125 34.625 
z
M 21.921875 38.8125 
Q 15.578125 40.375 12.03125 44.71875 
Q 8.5 49.078125 8.5 55.328125 
Q 8.5 64.0625 14.71875 69.140625 
Q 20.953125 74.21875 31.78125 74.21875 
Q 42.671875 74.21875 48.875 69.140625 
Q 55.078125 64.0625 55.078125 55.328125 
Q 55.078125 49.078125 51.53125 44.71875 
Q 48 40.375 41.703125 38.8125 
Q 48.828125 37.15625 52.796875 32.3125 
Q 56.78125 27.484375 56.78125 20.515625 
Q 56.78125 9.90625 50.3125 4.234375 
Q 43.84375 -1.421875 31.78125 -1.421875 
Q 19.734375 -1.421875 13.25 4.234375 
Q 6.78125 9.90625 6.78125 20.515625 
Q 6.78125 27.484375 10.78125 32.3125 
Q 14.796875 37.15625 21.921875 38.8125 
z
M 18.3125 54.390625 
Q 18.3125 48.734375 21.84375 45.5625 
Q 25.390625 42.390625 31.78125 42.390625 
Q 38.140625 42.390625 41.71875 45.5625 
Q 45.3125 48.734375 45.3125 54.390625 
Q 45.3125 60.0625 41.71875 63.234375 
Q 38.140625 66.40625 31.78125 66.40625 
Q 25.390625 66.40625 21.84375 63.234375 
Q 18.3125 60.0625 18.3125 54.390625 
z
" id="DejaVuSans-56"/>
      </defs>
      <g transform="translate(399.921307 329.605937)scale(0.1 -0.1)">
       <use xlink:href="#DejaVuSans-56"/>
       <use x="63.623047" xlink:href="#DejaVuSans-48"/>
       <use x="127.246094" xlink:href="#DejaVuSans-48"/>
       <use x="190.869141" xlink:href="#DejaVuSans-48"/>
      </g>
     </g>
    </g>
    <g id="xtick_6">
     <g id="line2d_6">
      <g>
       <use style="stroke:#000000;stroke-width:0.8;" x="497.191761" xlink:href="#m925d84379a" y="315.0075"/>
      </g>
     </g>
     <g id="text_6">
      <!-- 10000 -->
      <defs>
       <path d="M 12.40625 8.296875 
L 28.515625 8.296875 
L 28.515625 63.921875 
L 10.984375 60.40625 
L 10.984375 69.390625 
L 28.421875 72.90625 
L 38.28125 72.90625 
L 38.28125 8.296875 
L 54.390625 8.296875 
L 54.390625 0 
L 12.40625 0 
z
" id="DejaVuSans-49"/>
      </defs>
      <g transform="translate(481.285511 329.605937)scale(0.1 -0.1)">
       <use xlink:href="#DejaVuSans-49"/>
       <use x="63.623047" xlink:href="#DejaVuSans-48"/>
       <use x="127.246094" xlink:href="#DejaVuSans-48"/>
       <use x="190.869141" xlink:href="#DejaVuSans-48"/>
       <use x="254.492188" xlink:href="#DejaVuSans-48"/>
      </g>
     </g>
    </g>
    <g id="text_7">
     <!-- tof [μs] -->
     <defs>
      <path d="M 18.3125 70.21875 
L 18.3125 54.6875 
L 36.8125 54.6875 
L 36.8125 47.703125 
L 18.3125 47.703125 
L 18.3125 18.015625 
Q 18.3125 11.328125 20.140625 9.421875 
Q 21.96875 7.515625 27.59375 7.515625 
L 36.8125 7.515625 
L 36.8125 0 
L 27.59375 0 
Q 17.1875 0 13.234375 3.875 
Q 9.28125 7.765625 9.28125 18.015625 
L 9.28125 47.703125 
L 2.6875 47.703125 
L 2.6875 54.6875 
L 9.28125 54.6875 
L 9.28125 70.21875 
z
" id="DejaVuSans-116"/>
      <path d="M 30.609375 48.390625 
Q 23.390625 48.390625 19.1875 42.75 
Q 14.984375 37.109375 14.984375 27.296875 
Q 14.984375 17.484375 19.15625 11.84375 
Q 23.34375 6.203125 30.609375 6.203125 
Q 37.796875 6.203125 41.984375 11.859375 
Q 46.1875 17.53125 46.1875 27.296875 
Q 46.1875 37.015625 41.984375 42.703125 
Q 37.796875 48.390625 30.609375 48.390625 
z
M 30.609375 56 
Q 42.328125 56 49.015625 48.375 
Q 55.71875 40.765625 55.71875 27.296875 
Q 55.71875 13.875 49.015625 6.21875 
Q 42.328125 -1.421875 30.609375 -1.421875 
Q 18.84375 -1.421875 12.171875 6.21875 
Q 5.515625 13.875 5.515625 27.296875 
Q 5.515625 40.765625 12.171875 48.375 
Q 18.84375 56 30.609375 56 
z
" id="DejaVuSans-111"/>
      <path d="M 37.109375 75.984375 
L 37.109375 68.5 
L 28.515625 68.5 
Q 23.6875 68.5 21.796875 66.546875 
Q 19.921875 64.59375 19.921875 59.515625 
L 19.921875 54.6875 
L 34.71875 54.6875 
L 34.71875 47.703125 
L 19.921875 47.703125 
L 19.921875 0 
L 10.890625 0 
L 10.890625 47.703125 
L 2.296875 47.703125 
L 2.296875 54.6875 
L 10.890625 54.6875 
L 10.890625 58.5 
Q 10.890625 67.625 15.140625 71.796875 
Q 19.390625 75.984375 28.609375 75.984375 
z
" id="DejaVuSans-102"/>
      <path id="DejaVuSans-32"/>
      <path d="M 8.59375 75.984375 
L 29.296875 75.984375 
L 29.296875 69 
L 17.578125 69 
L 17.578125 -6.203125 
L 29.296875 -6.203125 
L 29.296875 -13.1875 
L 8.59375 -13.1875 
z
" id="DejaVuSans-91"/>
      <path d="M 8.5 -20.796875 
L 8.5 54.6875 
L 17.484375 54.6875 
L 17.484375 20.703125 
Q 17.484375 13.625 20.84375 10 
Q 24.21875 6.390625 30.8125 6.390625 
Q 38.03125 6.390625 41.671875 10.484375 
Q 45.3125 14.59375 45.3125 22.796875 
L 45.3125 54.6875 
L 54.296875 54.6875 
L 54.296875 12.59375 
Q 54.296875 9.671875 55.140625 8.28125 
Q 56 6.890625 57.8125 6.890625 
Q 58.25 6.890625 59.03125 7.15625 
Q 59.8125 7.421875 61.1875 8.015625 
L 61.1875 0.78125 
Q 59.1875 -0.34375 57.390625 -0.875 
Q 55.609375 -1.421875 53.90625 -1.421875 
Q 50.53125 -1.421875 48.53125 0.484375 
Q 46.53125 2.390625 45.796875 6.296875 
Q 43.359375 2.4375 39.8125 0.5 
Q 36.28125 -1.421875 31.5 -1.421875 
Q 26.515625 -1.421875 23.015625 0.484375 
Q 19.53125 2.390625 17.484375 6.203125 
L 17.484375 -20.796875 
z
" id="DejaVuSans-956"/>
      <path d="M 44.28125 53.078125 
L 44.28125 44.578125 
Q 40.484375 46.53125 36.375 47.5 
Q 32.28125 48.484375 27.875 48.484375 
Q 21.1875 48.484375 17.84375 46.4375 
Q 14.5 44.390625 14.5 40.28125 
Q 14.5 37.15625 16.890625 35.375 
Q 19.28125 33.59375 26.515625 31.984375 
L 29.59375 31.296875 
Q 39.15625 29.25 43.1875 25.515625 
Q 47.21875 21.78125 47.21875 15.09375 
Q 47.21875 7.46875 41.1875 3.015625 
Q 35.15625 -1.421875 24.609375 -1.421875 
Q 20.21875 -1.421875 15.453125 -0.5625 
Q 10.6875 0.296875 5.421875 2 
L 5.421875 11.28125 
Q 10.40625 8.6875 15.234375 7.390625 
Q 20.0625 6.109375 24.8125 6.109375 
Q 31.15625 6.109375 34.5625 8.28125 
Q 37.984375 10.453125 37.984375 14.40625 
Q 37.984375 18.0625 35.515625 20.015625 
Q 33.0625 21.96875 24.703125 23.78125 
L 21.578125 24.515625 
Q 13.234375 26.265625 9.515625 29.90625 
Q 5.8125 33.546875 5.8125 39.890625 
Q 5.8125 47.609375 11.28125 51.796875 
Q 16.75 56 26.8125 56 
Q 31.78125 56 36.171875 55.265625 
Q 40.578125 54.546875 44.28125 53.078125 
z
" id="DejaVuSans-115"/>
      <path d="M 30.421875 75.984375 
L 30.421875 -13.1875 
L 9.71875 -13.1875 
L 9.71875 -6.203125 
L 21.390625 -6.203125 
L 21.390625 69 
L 9.71875 69 
L 9.71875 75.984375 
z
" id="DejaVuSans-93"/>
     </defs>
     <g transform="translate(267.771875 343.284062)scale(0.1 -0.1)">
      <use xlink:href="#DejaVuSans-116"/>
      <use x="39.208984" xlink:href="#DejaVuSans-111"/>
      <use x="100.390625" xlink:href="#DejaVuSans-102"/>
      <use x="135.595703" xlink:href="#DejaVuSans-32"/>
      <use x="167.382812" xlink:href="#DejaVuSans-91"/>
      <use x="206.396484" xlink:href="#DejaVuSans-956"/>
      <use x="270.019531" xlink:href="#DejaVuSans-115"/>
      <use x="322.119141" xlink:href="#DejaVuSans-93"/>
     </g>
    </g>
   </g>
   <g id="matplotlib.axis_2">
    <g id="ytick_1">
     <g id="line2d_7">
      <defs>
       <path d="M 0 0 
L -3.5 0 
" id="md6dd138c10" style="stroke:#000000;stroke-width:0.8;"/>
      </defs>
      <g>
       <use style="stroke:#000000;stroke-width:0.8;" x="53.328125" xlink:href="#md6dd138c10" y="301.01625"/>
      </g>
     </g>
     <g id="text_8">
      <!-- 0 -->
      <g transform="translate(39.965625 304.815469)scale(0.1 -0.1)">
       <use xlink:href="#DejaVuSans-48"/>
      </g>
     </g>
    </g>
    <g id="ytick_2">
     <g id="line2d_8">
      <g>
       <use style="stroke:#000000;stroke-width:0.8;" x="53.328125" xlink:href="#md6dd138c10" y="253.295044"/>
      </g>
     </g>
     <g id="text_9">
      <!-- 200 -->
      <g transform="translate(27.240625 257.094263)scale(0.1 -0.1)">
       <use xlink:href="#DejaVuSans-50"/>
       <use x="63.623047" xlink:href="#DejaVuSans-48"/>
       <use x="127.246094" xlink:href="#DejaVuSans-48"/>
      </g>
     </g>
    </g>
    <g id="ytick_3">
     <g id="line2d_9">
      <g>
       <use style="stroke:#000000;stroke-width:0.8;" x="53.328125" xlink:href="#md6dd138c10" y="205.573838"/>
      </g>
     </g>
     <g id="text_10">
      <!-- 400 -->
      <g transform="translate(27.240625 209.373057)scale(0.1 -0.1)">
       <use xlink:href="#DejaVuSans-52"/>
       <use x="63.623047" xlink:href="#DejaVuSans-48"/>
       <use x="127.246094" xlink:href="#DejaVuSans-48"/>
      </g>
     </g>
    </g>
    <g id="ytick_4">
     <g id="line2d_10">
      <g>
       <use style="stroke:#000000;stroke-width:0.8;" x="53.328125" xlink:href="#md6dd138c10" y="157.852632"/>
      </g>
     </g>
     <g id="text_11">
      <!-- 600 -->
      <g transform="translate(27.240625 161.651851)scale(0.1 -0.1)">
       <use xlink:href="#DejaVuSans-54"/>
       <use x="63.623047" xlink:href="#DejaVuSans-48"/>
       <use x="127.246094" xlink:href="#DejaVuSans-48"/>
      </g>
     </g>
    </g>
    <g id="ytick_5">
     <g id="line2d_11">
      <g>
       <use style="stroke:#000000;stroke-width:0.8;" x="53.328125" xlink:href="#md6dd138c10" y="110.131427"/>
      </g>
     </g>
     <g id="text_12">
      <!-- 800 -->
      <g transform="translate(27.240625 113.930645)scale(0.1 -0.1)">
       <use xlink:href="#DejaVuSans-56"/>
       <use x="63.623047" xlink:href="#DejaVuSans-48"/>
       <use x="127.246094" xlink:href="#DejaVuSans-48"/>
      </g>
     </g>
    </g>
    <g id="ytick_6">
     <g id="line2d_12">
      <g>
       <use style="stroke:#000000;stroke-width:0.8;" x="53.328125" xlink:href="#md6dd138c10" y="62.410221"/>
      </g>
     </g>
     <g id="text_13">
      <!-- 1000 -->
      <g transform="translate(20.878125 66.209439)scale(0.1 -0.1)">
       <use xlink:href="#DejaVuSans-49"/>
       <use x="63.623047" xlink:href="#DejaVuSans-48"/>
       <use x="127.246094" xlink:href="#DejaVuSans-48"/>
       <use x="190.869141" xlink:href="#DejaVuSans-48"/>
      </g>
     </g>
    </g>
    <g id="ytick_7">
     <g id="line2d_13">
      <g>
       <use style="stroke:#000000;stroke-width:0.8;" x="53.328125" xlink:href="#md6dd138c10" y="14.689015"/>
      </g>
     </g>
     <g id="text_14">
      <!-- 1200 -->
      <g transform="translate(20.878125 18.488234)scale(0.1 -0.1)">
       <use xlink:href="#DejaVuSans-49"/>
       <use x="63.623047" xlink:href="#DejaVuSans-50"/>
       <use x="127.246094" xlink:href="#DejaVuSans-48"/>
       <use x="190.869141" xlink:href="#DejaVuSans-48"/>
      </g>
     </g>
    </g>
    <g id="text_15">
     <!--  [dimensionless] -->
     <defs>
      <path d="M 45.40625 46.390625 
L 45.40625 75.984375 
L 54.390625 75.984375 
L 54.390625 0 
L 45.40625 0 
L 45.40625 8.203125 
Q 42.578125 3.328125 38.25 0.953125 
Q 33.9375 -1.421875 27.875 -1.421875 
Q 17.96875 -1.421875 11.734375 6.484375 
Q 5.515625 14.40625 5.515625 27.296875 
Q 5.515625 40.1875 11.734375 48.09375 
Q 17.96875 56 27.875 56 
Q 33.9375 56 38.25 53.625 
Q 42.578125 51.265625 45.40625 46.390625 
z
M 14.796875 27.296875 
Q 14.796875 17.390625 18.875 11.75 
Q 22.953125 6.109375 30.078125 6.109375 
Q 37.203125 6.109375 41.296875 11.75 
Q 45.40625 17.390625 45.40625 27.296875 
Q 45.40625 37.203125 41.296875 42.84375 
Q 37.203125 48.484375 30.078125 48.484375 
Q 22.953125 48.484375 18.875 42.84375 
Q 14.796875 37.203125 14.796875 27.296875 
z
" id="DejaVuSans-100"/>
      <path d="M 9.421875 54.6875 
L 18.40625 54.6875 
L 18.40625 0 
L 9.421875 0 
z
M 9.421875 75.984375 
L 18.40625 75.984375 
L 18.40625 64.59375 
L 9.421875 64.59375 
z
" id="DejaVuSans-105"/>
      <path d="M 52 44.1875 
Q 55.375 50.25 60.0625 53.125 
Q 64.75 56 71.09375 56 
Q 79.640625 56 84.28125 50.015625 
Q 88.921875 44.046875 88.921875 33.015625 
L 88.921875 0 
L 79.890625 0 
L 79.890625 32.71875 
Q 79.890625 40.578125 77.09375 44.375 
Q 74.3125 48.1875 68.609375 48.1875 
Q 61.625 48.1875 57.5625 43.546875 
Q 53.515625 38.921875 53.515625 30.90625 
L 53.515625 0 
L 44.484375 0 
L 44.484375 32.71875 
Q 44.484375 40.625 41.703125 44.40625 
Q 38.921875 48.1875 33.109375 48.1875 
Q 26.21875 48.1875 22.15625 43.53125 
Q 18.109375 38.875 18.109375 30.90625 
L 18.109375 0 
L 9.078125 0 
L 9.078125 54.6875 
L 18.109375 54.6875 
L 18.109375 46.1875 
Q 21.1875 51.21875 25.484375 53.609375 
Q 29.78125 56 35.6875 56 
Q 41.65625 56 45.828125 52.96875 
Q 50 49.953125 52 44.1875 
z
" id="DejaVuSans-109"/>
      <path d="M 56.203125 29.59375 
L 56.203125 25.203125 
L 14.890625 25.203125 
Q 15.484375 15.921875 20.484375 11.0625 
Q 25.484375 6.203125 34.421875 6.203125 
Q 39.59375 6.203125 44.453125 7.46875 
Q 49.3125 8.734375 54.109375 11.28125 
L 54.109375 2.78125 
Q 49.265625 0.734375 44.1875 -0.34375 
Q 39.109375 -1.421875 33.890625 -1.421875 
Q 20.796875 -1.421875 13.15625 6.1875 
Q 5.515625 13.8125 5.515625 26.8125 
Q 5.515625 40.234375 12.765625 48.109375 
Q 20.015625 56 32.328125 56 
Q 43.359375 56 49.78125 48.890625 
Q 56.203125 41.796875 56.203125 29.59375 
z
M 47.21875 32.234375 
Q 47.125 39.59375 43.09375 43.984375 
Q 39.0625 48.390625 32.421875 48.390625 
Q 24.90625 48.390625 20.390625 44.140625 
Q 15.875 39.890625 15.1875 32.171875 
z
" id="DejaVuSans-101"/>
      <path d="M 54.890625 33.015625 
L 54.890625 0 
L 45.90625 0 
L 45.90625 32.71875 
Q 45.90625 40.484375 42.875 44.328125 
Q 39.84375 48.1875 33.796875 48.1875 
Q 26.515625 48.1875 22.3125 43.546875 
Q 18.109375 38.921875 18.109375 30.90625 
L 18.109375 0 
L 9.078125 0 
L 9.078125 54.6875 
L 18.109375 54.6875 
L 18.109375 46.1875 
Q 21.34375 51.125 25.703125 53.5625 
Q 30.078125 56 35.796875 56 
Q 45.21875 56 50.046875 50.171875 
Q 54.890625 44.34375 54.890625 33.015625 
z
" id="DejaVuSans-110"/>
      <path d="M 9.421875 75.984375 
L 18.40625 75.984375 
L 18.40625 0 
L 9.421875 0 
z
" id="DejaVuSans-108"/>
     </defs>
     <g transform="translate(14.798437 202.170156)rotate(-90)scale(0.1 -0.1)">
      <use xlink:href="#DejaVuSans-32"/>
      <use x="31.787109" xlink:href="#DejaVuSans-91"/>
      <use x="70.800781" xlink:href="#DejaVuSans-100"/>
      <use x="134.277344" xlink:href="#DejaVuSans-105"/>
      <use x="162.060547" xlink:href="#DejaVuSans-109"/>
      <use x="259.472656" xlink:href="#DejaVuSans-101"/>
      <use x="320.996094" xlink:href="#DejaVuSans-110"/>
      <use x="384.375" xlink:href="#DejaVuSans-115"/>
      <use x="436.474609" xlink:href="#DejaVuSans-105"/>
      <use x="464.257812" xlink:href="#DejaVuSans-111"/>
      <use x="525.439453" xlink:href="#DejaVuSans-110"/>
      <use x="588.818359" xlink:href="#DejaVuSans-108"/>
      <use x="616.601562" xlink:href="#DejaVuSans-101"/>
      <use x="678.125" xlink:href="#DejaVuSans-115"/>
      <use x="730.224609" xlink:href="#DejaVuSans-115"/>
      <use x="782.324219" xlink:href="#DejaVuSans-93"/>
     </g>
    </g>
   </g>
   <g id="patch_3">
    <path d="M 53.328125 315.0075 
L 53.328125 7.2 
" style="fill:none;stroke:#000000;stroke-linecap:square;stroke-linejoin:miter;stroke-width:0.8;"/>
   </g>
   <g id="patch_4">
    <path d="M 518.328125 315.0075 
L 518.328125 7.2 
" style="fill:none;stroke:#000000;stroke-linecap:square;stroke-linejoin:miter;stroke-width:0.8;"/>
   </g>
   <g id="patch_5">
    <path d="M 53.328125 315.0075 
L 518.328125 315.0075 
" style="fill:none;stroke:#000000;stroke-linecap:square;stroke-linejoin:miter;stroke-width:0.8;"/>
   </g>
   <g id="patch_6">
    <path d="M 53.328125 7.2 
L 518.328125 7.2 
" style="fill:none;stroke:#000000;stroke-linecap:square;stroke-linejoin:miter;stroke-width:0.8;"/>
   </g>
   <g id="legend_1">
    <g id="patch_7">
     <path d="M 427.054688 45.1125 
L 511.328125 45.1125 
Q 513.328125 45.1125 513.328125 43.1125 
L 513.328125 14.2 
Q 513.328125 12.2 511.328125 12.2 
L 427.054688 12.2 
Q 425.054688 12.2 425.054688 14.2 
L 425.054688 43.1125 
Q 425.054688 45.1125 427.054688 45.1125 
z
" style="fill:#ffffff;opacity:0.8;stroke:#cccccc;stroke-linejoin:miter;"/>
    </g>
    <g id="line2d_14">
     <path d="M 429.054688 20.298438 
L 449.054688 20.298438 
" style="fill:none;stroke:#1f77b4;stroke-linecap:square;stroke-width:1.5;"/>
    </g>
    <g id="line2d_15"/>
    <g id="text_16">
     <!-- above_T_c -->
     <defs>
      <path d="M 34.28125 27.484375 
Q 23.390625 27.484375 19.1875 25 
Q 14.984375 22.515625 14.984375 16.5 
Q 14.984375 11.71875 18.140625 8.90625 
Q 21.296875 6.109375 26.703125 6.109375 
Q 34.1875 6.109375 38.703125 11.40625 
Q 43.21875 16.703125 43.21875 25.484375 
L 43.21875 27.484375 
z
M 52.203125 31.203125 
L 52.203125 0 
L 43.21875 0 
L 43.21875 8.296875 
Q 40.140625 3.328125 35.546875 0.953125 
Q 30.953125 -1.421875 24.3125 -1.421875 
Q 15.921875 -1.421875 10.953125 3.296875 
Q 6 8.015625 6 15.921875 
Q 6 25.140625 12.171875 29.828125 
Q 18.359375 34.515625 30.609375 34.515625 
L 43.21875 34.515625 
L 43.21875 35.40625 
Q 43.21875 41.609375 39.140625 45 
Q 35.0625 48.390625 27.6875 48.390625 
Q 23 48.390625 18.546875 47.265625 
Q 14.109375 46.140625 10.015625 43.890625 
L 10.015625 52.203125 
Q 14.9375 54.109375 19.578125 55.046875 
Q 24.21875 56 28.609375 56 
Q 40.484375 56 46.34375 49.84375 
Q 52.203125 43.703125 52.203125 31.203125 
z
" id="DejaVuSans-97"/>
      <path d="M 48.6875 27.296875 
Q 48.6875 37.203125 44.609375 42.84375 
Q 40.53125 48.484375 33.40625 48.484375 
Q 26.265625 48.484375 22.1875 42.84375 
Q 18.109375 37.203125 18.109375 27.296875 
Q 18.109375 17.390625 22.1875 11.75 
Q 26.265625 6.109375 33.40625 6.109375 
Q 40.53125 6.109375 44.609375 11.75 
Q 48.6875 17.390625 48.6875 27.296875 
z
M 18.109375 46.390625 
Q 20.953125 51.265625 25.265625 53.625 
Q 29.59375 56 35.59375 56 
Q 45.5625 56 51.78125 48.09375 
Q 58.015625 40.1875 58.015625 27.296875 
Q 58.015625 14.40625 51.78125 6.484375 
Q 45.5625 -1.421875 35.59375 -1.421875 
Q 29.59375 -1.421875 25.265625 0.953125 
Q 20.953125 3.328125 18.109375 8.203125 
L 18.109375 0 
L 9.078125 0 
L 9.078125 75.984375 
L 18.109375 75.984375 
z
" id="DejaVuSans-98"/>
      <path d="M 2.984375 54.6875 
L 12.5 54.6875 
L 29.59375 8.796875 
L 46.6875 54.6875 
L 56.203125 54.6875 
L 35.6875 0 
L 23.484375 0 
z
" id="DejaVuSans-118"/>
      <path d="M 50.984375 -16.609375 
L 50.984375 -23.578125 
L -0.984375 -23.578125 
L -0.984375 -16.609375 
z
" id="DejaVuSans-95"/>
      <path d="M -0.296875 72.90625 
L 61.375 72.90625 
L 61.375 64.59375 
L 35.5 64.59375 
L 35.5 0 
L 25.59375 0 
L 25.59375 64.59375 
L -0.296875 64.59375 
z
" id="DejaVuSans-84"/>
      <path d="M 48.78125 52.59375 
L 48.78125 44.1875 
Q 44.96875 46.296875 41.140625 47.34375 
Q 37.3125 48.390625 33.40625 48.390625 
Q 24.65625 48.390625 19.8125 42.84375 
Q 14.984375 37.3125 14.984375 27.296875 
Q 14.984375 17.28125 19.8125 11.734375 
Q 24.65625 6.203125 33.40625 6.203125 
Q 37.3125 6.203125 41.140625 7.25 
Q 44.96875 8.296875 48.78125 10.40625 
L 48.78125 2.09375 
Q 45.015625 0.34375 40.984375 -0.53125 
Q 36.96875 -1.421875 32.421875 -1.421875 
Q 20.0625 -1.421875 12.78125 6.34375 
Q 5.515625 14.109375 5.515625 27.296875 
Q 5.515625 40.671875 12.859375 48.328125 
Q 20.21875 56 33.015625 56 
Q 37.15625 56 41.109375 55.140625 
Q 45.0625 54.296875 48.78125 52.59375 
z
" id="DejaVuSans-99"/>
     </defs>
     <g transform="translate(457.054688 23.798438)scale(0.1 -0.1)">
      <use xlink:href="#DejaVuSans-97"/>
      <use x="61.279297" xlink:href="#DejaVuSans-98"/>
      <use x="124.755859" xlink:href="#DejaVuSans-111"/>
      <use x="185.9375" xlink:href="#DejaVuSans-118"/>
      <use x="245.117188" xlink:href="#DejaVuSans-101"/>
      <use x="306.640625" xlink:href="#DejaVuSans-95"/>
      <use x="356.640625" xlink:href="#DejaVuSans-84"/>
      <use x="417.724609" xlink:href="#DejaVuSans-95"/>
      <use x="467.724609" xlink:href="#DejaVuSans-99"/>
     </g>
    </g>
    <g id="line2d_16">
     <path d="M 429.054688 35.254688 
L 449.054688 35.254688 
" style="fill:none;stroke:#ff7f0e;stroke-linecap:square;stroke-width:1.5;"/>
    </g>
    <g id="line2d_17"/>
    <g id="text_17">
     <!-- below_T_c -->
     <defs>
      <path d="M 4.203125 54.6875 
L 13.1875 54.6875 
L 24.421875 12.015625 
L 35.59375 54.6875 
L 46.1875 54.6875 
L 57.421875 12.015625 
L 68.609375 54.6875 
L 77.59375 54.6875 
L 63.28125 0 
L 52.6875 0 
L 40.921875 44.828125 
L 29.109375 0 
L 18.5 0 
z
" id="DejaVuSans-119"/>
     </defs>
     <g transform="translate(457.054688 38.754688)scale(0.1 -0.1)">
      <use xlink:href="#DejaVuSans-98"/>
      <use x="63.476562" xlink:href="#DejaVuSans-101"/>
      <use x="125" xlink:href="#DejaVuSans-108"/>
      <use x="152.783203" xlink:href="#DejaVuSans-111"/>
      <use x="213.964844" xlink:href="#DejaVuSans-119"/>
      <use x="295.751953" xlink:href="#DejaVuSans-95"/>
      <use x="345.751953" xlink:href="#DejaVuSans-84"/>
      <use x="406.835938" xlink:href="#DejaVuSans-95"/>
      <use x="456.835938" xlink:href="#DejaVuSans-99"/>
     </g>
    </g>
   </g>
   <g id="LineCollection_1">
    <path clip-path="url(#pce562d7d44)" d="M 76.599475 301.01625 
L 76.599475 301.01625 
" style="fill:none;stroke:#1f77b4;stroke-width:1.5;"/>
    <path clip-path="url(#pce562d7d44)" d="M 80.869447 301.01625 
L 80.869447 301.01625 
" style="fill:none;stroke:#1f77b4;stroke-width:1.5;"/>
    <path clip-path="url(#pce562d7d44)" d="M 85.13942 301.01625 
L 85.13942 301.01625 
" style="fill:none;stroke:#1f77b4;stroke-width:1.5;"/>
    <path clip-path="url(#pce562d7d44)" d="M 89.409392 301.01625 
L 89.409392 301.01625 
" style="fill:none;stroke:#1f77b4;stroke-width:1.5;"/>
    <path clip-path="url(#pce562d7d44)" d="M 93.679365 301.01625 
L 93.679365 301.01625 
" style="fill:none;stroke:#1f77b4;stroke-width:1.5;"/>
    <path clip-path="url(#pce562d7d44)" d="M 97.949337 301.01625 
L 97.949337 301.01625 
" style="fill:none;stroke:#1f77b4;stroke-width:1.5;"/>
    <path clip-path="url(#pce562d7d44)" d="M 102.21931 301.01625 
L 102.21931 301.01625 
" style="fill:none;stroke:#1f77b4;stroke-width:1.5;"/>
    <path clip-path="url(#pce562d7d44)" d="M 106.489282 301.01625 
L 106.489282 301.01625 
" style="fill:none;stroke:#1f77b4;stroke-width:1.5;"/>
    <path clip-path="url(#pce562d7d44)" d="M 110.759254 301.01625 
L 110.759254 301.01625 
" style="fill:none;stroke:#1f77b4;stroke-width:1.5;"/>
    <path clip-path="url(#pce562d7d44)" d="M 115.029227 301.01625 
L 115.029227 301.01625 
" style="fill:none;stroke:#1f77b4;stroke-width:1.5;"/>
    <path clip-path="url(#pce562d7d44)" d="M 119.299199 301.01625 
L 119.299199 301.01625 
" style="fill:none;stroke:#1f77b4;stroke-width:1.5;"/>
    <path clip-path="url(#pce562d7d44)" d="M 123.569172 301.01625 
L 123.569172 301.01625 
" style="fill:none;stroke:#1f77b4;stroke-width:1.5;"/>
    <path clip-path="url(#pce562d7d44)" d="M 127.839144 301.01625 
L 127.839144 301.01625 
" style="fill:none;stroke:#1f77b4;stroke-width:1.5;"/>
    <path clip-path="url(#pce562d7d44)" d="M 132.109117 301.01625 
L 132.109117 301.01625 
" style="fill:none;stroke:#1f77b4;stroke-width:1.5;"/>
    <path clip-path="url(#pce562d7d44)" d="M 136.379089 301.01625 
L 136.379089 301.01625 
" style="fill:none;stroke:#1f77b4;stroke-width:1.5;"/>
    <path clip-path="url(#pce562d7d44)" d="M 140.649062 301.01625 
L 140.649062 301.01625 
" style="fill:none;stroke:#1f77b4;stroke-width:1.5;"/>
    <path clip-path="url(#pce562d7d44)" d="M 144.919034 301.01625 
L 144.919034 301.01625 
" style="fill:none;stroke:#1f77b4;stroke-width:1.5;"/>
    <path clip-path="url(#pce562d7d44)" d="M 149.189007 301.01625 
L 149.189007 301.01625 
" style="fill:none;stroke:#1f77b4;stroke-width:1.5;"/>
    <path clip-path="url(#pce562d7d44)" d="M 153.458979 301.01625 
L 153.458979 301.01625 
" style="fill:none;stroke:#1f77b4;stroke-width:1.5;"/>
    <path clip-path="url(#pce562d7d44)" d="M 157.728951 301.01625 
L 157.728951 301.01625 
" style="fill:none;stroke:#1f77b4;stroke-width:1.5;"/>
    <path clip-path="url(#pce562d7d44)" d="M 161.998924 301.01625 
L 161.998924 301.01625 
" style="fill:none;stroke:#1f77b4;stroke-width:1.5;"/>
    <path clip-path="url(#pce562d7d44)" d="M 166.268896 301.01625 
L 166.268896 301.01625 
" style="fill:none;stroke:#1f77b4;stroke-width:1.5;"/>
    <path clip-path="url(#pce562d7d44)" d="M 170.538869 301.01625 
L 170.538869 301.01625 
" style="fill:none;stroke:#1f77b4;stroke-width:1.5;"/>
    <path clip-path="url(#pce562d7d44)" d="M 174.808841 301.01625 
L 174.808841 301.01625 
" style="fill:none;stroke:#1f77b4;stroke-width:1.5;"/>
    <path clip-path="url(#pce562d7d44)" d="M 179.078814 301.01625 
L 179.078814 301.01625 
" style="fill:none;stroke:#1f77b4;stroke-width:1.5;"/>
    <path clip-path="url(#pce562d7d44)" d="M 183.348786 301.01625 
L 183.348786 301.01625 
" style="fill:none;stroke:#1f77b4;stroke-width:1.5;"/>
    <path clip-path="url(#pce562d7d44)" d="M 187.618759 301.01625 
L 187.618759 301.01625 
" style="fill:none;stroke:#1f77b4;stroke-width:1.5;"/>
    <path clip-path="url(#pce562d7d44)" d="M 191.888731 301.01625 
L 191.888731 301.01625 
" style="fill:none;stroke:#1f77b4;stroke-width:1.5;"/>
    <path clip-path="url(#pce562d7d44)" d="M 196.158704 300.876478 
L 196.158704 300.201598 
" style="fill:none;stroke:#1f77b4;stroke-width:1.5;"/>
    <path clip-path="url(#pce562d7d44)" d="M 200.428676 301.01625 
L 200.428676 300.539038 
" style="fill:none;stroke:#1f77b4;stroke-width:1.5;"/>
    <path clip-path="url(#pce562d7d44)" d="M 204.698648 301.01625 
L 204.698648 301.01625 
" style="fill:none;stroke:#1f77b4;stroke-width:1.5;"/>
    <path clip-path="url(#pce562d7d44)" d="M 208.968621 300.539038 
L 208.968621 299.584614 
" style="fill:none;stroke:#1f77b4;stroke-width:1.5;"/>
    <path clip-path="url(#pce562d7d44)" d="M 213.238593 300.539038 
L 213.238593 299.584614 
" style="fill:none;stroke:#1f77b4;stroke-width:1.5;"/>
    <path clip-path="url(#pce562d7d44)" d="M 217.508566 299.584614 
L 217.508566 298.152978 
" style="fill:none;stroke:#1f77b4;stroke-width:1.5;"/>
    <path clip-path="url(#pce562d7d44)" d="M 221.778538 300.356759 
L 221.778538 299.289681 
" style="fill:none;stroke:#1f77b4;stroke-width:1.5;"/>
    <path clip-path="url(#pce562d7d44)" d="M 226.048511 297.943745 
L 226.048511 295.97615 
" style="fill:none;stroke:#1f77b4;stroke-width:1.5;"/>
    <path clip-path="url(#pce562d7d44)" d="M 230.318483 296.458631 
L 230.318483 294.120779 
" style="fill:none;stroke:#1f77b4;stroke-width:1.5;"/>
    <path clip-path="url(#pce562d7d44)" d="M 234.588456 288.99427 
L 234.588456 285.359931 
" style="fill:none;stroke:#1f77b4;stroke-width:1.5;"/>
    <path clip-path="url(#pce562d7d44)" d="M 238.858428 279.088238 
L 238.858428 274.268632 
" style="fill:none;stroke:#1f77b4;stroke-width:1.5;"/>
    <path clip-path="url(#pce562d7d44)" d="M 243.1284 268.147661 
L 243.1284 262.30303 
" style="fill:none;stroke:#1f77b4;stroke-width:1.5;"/>
    <path clip-path="url(#pce562d7d44)" d="M 247.398373 251.139627 
L 247.398373 243.997371 
" style="fill:none;stroke:#1f77b4;stroke-width:1.5;"/>
    <path clip-path="url(#pce562d7d44)" d="M 251.668345 235.420591 
L 251.668345 227.265988 
" style="fill:none;stroke:#1f77b4;stroke-width:1.5;"/>
    <path clip-path="url(#pce562d7d44)" d="M 255.938318 203.130641 
L 255.938318 193.223461 
" style="fill:none;stroke:#1f77b4;stroke-width:1.5;"/>
    <path clip-path="url(#pce562d7d44)" d="M 260.20829 172.342609 
L 260.20829 161.019502 
" style="fill:none;stroke:#1f77b4;stroke-width:1.5;"/>
    <path clip-path="url(#pce562d7d44)" d="M 264.478263 151.771687 
L 264.478263 139.595763 
" style="fill:none;stroke:#1f77b4;stroke-width:1.5;"/>
    <path clip-path="url(#pce562d7d44)" d="M 268.748235 104.454074 
L 268.748235 90.51654 
" style="fill:none;stroke:#1f77b4;stroke-width:1.5;"/>
    <path clip-path="url(#pce562d7d44)" d="M 273.018208 78.643124 
L 273.018208 63.834164 
" style="fill:none;stroke:#1f77b4;stroke-width:1.5;"/>
    <path clip-path="url(#pce562d7d44)" d="M 277.28818 49.518261 
L 277.28818 33.784731 
" style="fill:none;stroke:#1f77b4;stroke-width:1.5;"/>
    <path clip-path="url(#pce562d7d44)" d="M 281.558153 51.398107 
L 281.558153 35.722581 
" style="fill:none;stroke:#1f77b4;stroke-width:1.5;"/>
    <path clip-path="url(#pce562d7d44)" d="M 285.828125 41.762782 
L 285.828125 25.792212 
" style="fill:none;stroke:#1f77b4;stroke-width:1.5;"/>
    <path clip-path="url(#pce562d7d44)" d="M 290.098097 57.741786 
L 290.098097 42.263628 
" style="fill:none;stroke:#1f77b4;stroke-width:1.5;"/>
    <path clip-path="url(#pce562d7d44)" d="M 294.36807 50.693178 
L 294.36807 34.995875 
" style="fill:none;stroke:#1f77b4;stroke-width:1.5;"/>
    <path clip-path="url(#pce562d7d44)" d="M 298.638042 80.051657 
L 298.638042 65.288903 
" style="fill:none;stroke:#1f77b4;stroke-width:1.5;"/>
    <path clip-path="url(#pce562d7d44)" d="M 302.908015 112.191943 
L 302.908015 98.526669 
" style="fill:none;stroke:#1f77b4;stroke-width:1.5;"/>
    <path clip-path="url(#pce562d7d44)" d="M 307.177987 141.241313 
L 307.177987 128.651594 
" style="fill:none;stroke:#1f77b4;stroke-width:1.5;"/>
    <path clip-path="url(#pce562d7d44)" d="M 311.44796 178.180632 
L 311.44796 167.111781 
" style="fill:none;stroke:#1f77b4;stroke-width:1.5;"/>
    <path clip-path="url(#pce562d7d44)" d="M 315.717932 209.415336 
L 315.717932 199.823492 
" style="fill:none;stroke:#1f77b4;stroke-width:1.5;"/>
    <path clip-path="url(#pce562d7d44)" d="M 319.987905 232.640255 
L 319.987905 224.319779 
" style="fill:none;stroke:#1f77b4;stroke-width:1.5;"/>
    <path clip-path="url(#pce562d7d44)" d="M 324.257877 255.057745 
L 324.257877 248.191859 
" style="fill:none;stroke:#1f77b4;stroke-width:1.5;"/>
    <path clip-path="url(#pce562d7d44)" d="M 328.52785 268.376509 
L 328.52785 262.551394 
" style="fill:none;stroke:#1f77b4;stroke-width:1.5;"/>
    <path clip-path="url(#pce562d7d44)" d="M 332.797822 281.126922 
L 332.797822 276.524856 
" style="fill:none;stroke:#1f77b4;stroke-width:1.5;"/>
    <path clip-path="url(#pce562d7d44)" d="M 337.067794 286.982721 
L 337.067794 283.076572 
" style="fill:none;stroke:#1f77b4;stroke-width:1.5;"/>
    <path clip-path="url(#pce562d7d44)" d="M 341.337767 294.947965 
L 341.337767 292.290961 
" style="fill:none;stroke:#1f77b4;stroke-width:1.5;"/>
    <path clip-path="url(#pce562d7d44)" d="M 345.607739 297.943745 
L 345.607739 295.97615 
" style="fill:none;stroke:#1f77b4;stroke-width:1.5;"/>
    <path clip-path="url(#pce562d7d44)" d="M 349.877712 299.384728 
L 349.877712 297.875651 
" style="fill:none;stroke:#1f77b4;stroke-width:1.5;"/>
    <path clip-path="url(#pce562d7d44)" d="M 354.147684 300.169077 
L 354.147684 299.000151 
" style="fill:none;stroke:#1f77b4;stroke-width:1.5;"/>
    <path clip-path="url(#pce562d7d44)" d="M 358.417657 300.876478 
L 358.417657 300.201598 
" style="fill:none;stroke:#1f77b4;stroke-width:1.5;"/>
    <path clip-path="url(#pce562d7d44)" d="M 362.687629 301.01625 
L 362.687629 301.01625 
" style="fill:none;stroke:#1f77b4;stroke-width:1.5;"/>
    <path clip-path="url(#pce562d7d44)" d="M 366.957602 301.01625 
L 366.957602 301.01625 
" style="fill:none;stroke:#1f77b4;stroke-width:1.5;"/>
    <path clip-path="url(#pce562d7d44)" d="M 371.227574 301.01625 
L 371.227574 300.539038 
" style="fill:none;stroke:#1f77b4;stroke-width:1.5;"/>
    <path clip-path="url(#pce562d7d44)" d="M 375.497546 301.01625 
L 375.497546 301.01625 
" style="fill:none;stroke:#1f77b4;stroke-width:1.5;"/>
    <path clip-path="url(#pce562d7d44)" d="M 379.767519 301.01625 
L 379.767519 301.01625 
" style="fill:none;stroke:#1f77b4;stroke-width:1.5;"/>
    <path clip-path="url(#pce562d7d44)" d="M 384.037491 301.01625 
L 384.037491 301.01625 
" style="fill:none;stroke:#1f77b4;stroke-width:1.5;"/>
    <path clip-path="url(#pce562d7d44)" d="M 388.307464 301.01625 
L 388.307464 301.01625 
" style="fill:none;stroke:#1f77b4;stroke-width:1.5;"/>
    <path clip-path="url(#pce562d7d44)" d="M 392.577436 301.01625 
L 392.577436 301.01625 
" style="fill:none;stroke:#1f77b4;stroke-width:1.5;"/>
    <path clip-path="url(#pce562d7d44)" d="M 396.847409 301.01625 
L 396.847409 301.01625 
" style="fill:none;stroke:#1f77b4;stroke-width:1.5;"/>
    <path clip-path="url(#pce562d7d44)" d="M 401.117381 301.01625 
L 401.117381 301.01625 
" style="fill:none;stroke:#1f77b4;stroke-width:1.5;"/>
    <path clip-path="url(#pce562d7d44)" d="M 405.387354 301.01625 
L 405.387354 301.01625 
" style="fill:none;stroke:#1f77b4;stroke-width:1.5;"/>
    <path clip-path="url(#pce562d7d44)" d="M 409.657326 301.01625 
L 409.657326 301.01625 
" style="fill:none;stroke:#1f77b4;stroke-width:1.5;"/>
    <path clip-path="url(#pce562d7d44)" d="M 413.927299 301.01625 
L 413.927299 301.01625 
" style="fill:none;stroke:#1f77b4;stroke-width:1.5;"/>
    <path clip-path="url(#pce562d7d44)" d="M 418.197271 301.01625 
L 418.197271 301.01625 
" style="fill:none;stroke:#1f77b4;stroke-width:1.5;"/>
    <path clip-path="url(#pce562d7d44)" d="M 422.467243 301.01625 
L 422.467243 301.01625 
" style="fill:none;stroke:#1f77b4;stroke-width:1.5;"/>
    <path clip-path="url(#pce562d7d44)" d="M 426.737216 301.01625 
L 426.737216 301.01625 
" style="fill:none;stroke:#1f77b4;stroke-width:1.5;"/>
    <path clip-path="url(#pce562d7d44)" d="M 431.007188 301.01625 
L 431.007188 301.01625 
" style="fill:none;stroke:#1f77b4;stroke-width:1.5;"/>
    <path clip-path="url(#pce562d7d44)" d="M 435.277161 301.01625 
L 435.277161 301.01625 
" style="fill:none;stroke:#1f77b4;stroke-width:1.5;"/>
    <path clip-path="url(#pce562d7d44)" d="M 439.547133 301.01625 
L 439.547133 301.01625 
" style="fill:none;stroke:#1f77b4;stroke-width:1.5;"/>
    <path clip-path="url(#pce562d7d44)" d="M 443.817106 301.01625 
L 443.817106 301.01625 
" style="fill:none;stroke:#1f77b4;stroke-width:1.5;"/>
    <path clip-path="url(#pce562d7d44)" d="M 448.087078 301.01625 
L 448.087078 301.01625 
" style="fill:none;stroke:#1f77b4;stroke-width:1.5;"/>
    <path clip-path="url(#pce562d7d44)" d="M 452.357051 301.01625 
L 452.357051 301.01625 
" style="fill:none;stroke:#1f77b4;stroke-width:1.5;"/>
    <path clip-path="url(#pce562d7d44)" d="M 456.627023 301.01625 
L 456.627023 301.01625 
" style="fill:none;stroke:#1f77b4;stroke-width:1.5;"/>
    <path clip-path="url(#pce562d7d44)" d="M 460.896996 301.01625 
L 460.896996 301.01625 
" style="fill:none;stroke:#1f77b4;stroke-width:1.5;"/>
    <path clip-path="url(#pce562d7d44)" d="M 465.166968 301.01625 
L 465.166968 301.01625 
" style="fill:none;stroke:#1f77b4;stroke-width:1.5;"/>
    <path clip-path="url(#pce562d7d44)" d="M 469.43694 301.01625 
L 469.43694 301.01625 
" style="fill:none;stroke:#1f77b4;stroke-width:1.5;"/>
    <path clip-path="url(#pce562d7d44)" d="M 473.706913 301.01625 
L 473.706913 301.01625 
" style="fill:none;stroke:#1f77b4;stroke-width:1.5;"/>
    <path clip-path="url(#pce562d7d44)" d="M 477.976885 301.01625 
L 477.976885 301.01625 
" style="fill:none;stroke:#1f77b4;stroke-width:1.5;"/>
    <path clip-path="url(#pce562d7d44)" d="M 482.246858 301.01625 
L 482.246858 301.01625 
" style="fill:none;stroke:#1f77b4;stroke-width:1.5;"/>
    <path clip-path="url(#pce562d7d44)" d="M 486.51683 301.01625 
L 486.51683 301.01625 
" style="fill:none;stroke:#1f77b4;stroke-width:1.5;"/>
    <path clip-path="url(#pce562d7d44)" d="M 490.786803 301.01625 
L 490.786803 301.01625 
" style="fill:none;stroke:#1f77b4;stroke-width:1.5;"/>
    <path clip-path="url(#pce562d7d44)" d="M 495.056775 301.01625 
L 495.056775 301.01625 
" style="fill:none;stroke:#1f77b4;stroke-width:1.5;"/>
   </g>
   <g id="LineCollection_2">
    <path clip-path="url(#pce562d7d44)" d="M 76.599475 301.01625 
L 76.599475 301.01625 
" style="fill:none;stroke:#ff7f0e;stroke-width:1.5;"/>
    <path clip-path="url(#pce562d7d44)" d="M 80.869447 301.01625 
L 80.869447 301.01625 
" style="fill:none;stroke:#ff7f0e;stroke-width:1.5;"/>
    <path clip-path="url(#pce562d7d44)" d="M 85.13942 301.01625 
L 85.13942 301.01625 
" style="fill:none;stroke:#ff7f0e;stroke-width:1.5;"/>
    <path clip-path="url(#pce562d7d44)" d="M 89.409392 301.01625 
L 89.409392 301.01625 
" style="fill:none;stroke:#ff7f0e;stroke-width:1.5;"/>
    <path clip-path="url(#pce562d7d44)" d="M 93.679365 301.01625 
L 93.679365 301.01625 
" style="fill:none;stroke:#ff7f0e;stroke-width:1.5;"/>
    <path clip-path="url(#pce562d7d44)" d="M 97.949337 301.01625 
L 97.949337 301.01625 
" style="fill:none;stroke:#ff7f0e;stroke-width:1.5;"/>
    <path clip-path="url(#pce562d7d44)" d="M 102.21931 301.01625 
L 102.21931 301.01625 
" style="fill:none;stroke:#ff7f0e;stroke-width:1.5;"/>
    <path clip-path="url(#pce562d7d44)" d="M 106.489282 301.01625 
L 106.489282 301.01625 
" style="fill:none;stroke:#ff7f0e;stroke-width:1.5;"/>
    <path clip-path="url(#pce562d7d44)" d="M 110.759254 301.01625 
L 110.759254 301.01625 
" style="fill:none;stroke:#ff7f0e;stroke-width:1.5;"/>
    <path clip-path="url(#pce562d7d44)" d="M 115.029227 301.01625 
L 115.029227 301.01625 
" style="fill:none;stroke:#ff7f0e;stroke-width:1.5;"/>
    <path clip-path="url(#pce562d7d44)" d="M 119.299199 301.01625 
L 119.299199 301.01625 
" style="fill:none;stroke:#ff7f0e;stroke-width:1.5;"/>
    <path clip-path="url(#pce562d7d44)" d="M 123.569172 301.01625 
L 123.569172 301.01625 
" style="fill:none;stroke:#ff7f0e;stroke-width:1.5;"/>
    <path clip-path="url(#pce562d7d44)" d="M 127.839144 301.01625 
L 127.839144 301.01625 
" style="fill:none;stroke:#ff7f0e;stroke-width:1.5;"/>
    <path clip-path="url(#pce562d7d44)" d="M 132.109117 301.01625 
L 132.109117 300.539038 
" style="fill:none;stroke:#ff7f0e;stroke-width:1.5;"/>
    <path clip-path="url(#pce562d7d44)" d="M 136.379089 301.01625 
L 136.379089 301.01625 
" style="fill:none;stroke:#ff7f0e;stroke-width:1.5;"/>
    <path clip-path="url(#pce562d7d44)" d="M 140.649062 301.01625 
L 140.649062 301.01625 
" style="fill:none;stroke:#ff7f0e;stroke-width:1.5;"/>
    <path clip-path="url(#pce562d7d44)" d="M 144.919034 301.01625 
L 144.919034 300.539038 
" style="fill:none;stroke:#ff7f0e;stroke-width:1.5;"/>
    <path clip-path="url(#pce562d7d44)" d="M 149.189007 300.876478 
L 149.189007 300.201598 
" style="fill:none;stroke:#ff7f0e;stroke-width:1.5;"/>
    <path clip-path="url(#pce562d7d44)" d="M 153.458979 300.876478 
L 153.458979 300.201598 
" style="fill:none;stroke:#ff7f0e;stroke-width:1.5;"/>
    <path clip-path="url(#pce562d7d44)" d="M 157.728951 300.539038 
L 157.728951 299.584614 
" style="fill:none;stroke:#ff7f0e;stroke-width:1.5;"/>
    <path clip-path="url(#pce562d7d44)" d="M 161.998924 298.568548 
L 161.998924 296.782984 
" style="fill:none;stroke:#ff7f0e;stroke-width:1.5;"/>
    <path clip-path="url(#pce562d7d44)" d="M 166.268896 298.774678 
L 166.268896 297.054065 
" style="fill:none;stroke:#ff7f0e;stroke-width:1.5;"/>
    <path clip-path="url(#pce562d7d44)" d="M 170.538869 296.672626 
L 170.538869 294.383997 
" style="fill:none;stroke:#ff7f0e;stroke-width:1.5;"/>
    <path clip-path="url(#pce562d7d44)" d="M 174.808841 295.164968 
L 174.808841 292.55117 
" style="fill:none;stroke:#ff7f0e;stroke-width:1.5;"/>
    <path clip-path="url(#pce562d7d44)" d="M 179.078814 289.439876 
L 179.078814 285.868748 
" style="fill:none;stroke:#ff7f0e;stroke-width:1.5;"/>
    <path clip-path="url(#pce562d7d44)" d="M 183.348786 279.541707 
L 183.348786 274.769587 
" style="fill:none;stroke:#ff7f0e;stroke-width:1.5;"/>
    <path clip-path="url(#pce562d7d44)" d="M 187.618759 272.033387 
L 187.618759 266.529909 
" style="fill:none;stroke:#ff7f0e;stroke-width:1.5;"/>
    <path clip-path="url(#pce562d7d44)" d="M 191.888731 258.740099 
L 191.888731 252.144897 
" style="fill:none;stroke:#ff7f0e;stroke-width:1.5;"/>
    <path clip-path="url(#pce562d7d44)" d="M 196.158704 241.438593 
L 196.158704 233.6555 
" style="fill:none;stroke:#ff7f0e;stroke-width:1.5;"/>
    <path clip-path="url(#pce562d7d44)" d="M 200.428676 229.858298 
L 200.428676 221.375191 
" style="fill:none;stroke:#ff7f0e;stroke-width:1.5;"/>
    <path clip-path="url(#pce562d7d44)" d="M 204.698648 224.754131 
L 204.698648 215.980694 
" style="fill:none;stroke:#ff7f0e;stroke-width:1.5;"/>
    <path clip-path="url(#pce562d7d44)" d="M 208.968621 199.171087 
L 208.968621 189.070411 
" style="fill:none;stroke:#ff7f0e;stroke-width:1.5;"/>
    <path clip-path="url(#pce562d7d44)" d="M 213.238593 187.048628 
L 213.238593 176.377842 
" style="fill:none;stroke:#ff7f0e;stroke-width:1.5;"/>
    <path clip-path="url(#pce562d7d44)" d="M 217.508566 184.015665 
L 217.508566 173.207049 
" style="fill:none;stroke:#ff7f0e;stroke-width:1.5;"/>
    <path clip-path="url(#pce562d7d44)" d="M 221.778538 194.277372 
L 221.778538 183.942673 
" style="fill:none;stroke:#ff7f0e;stroke-width:1.5;"/>
    <path clip-path="url(#pce562d7d44)" d="M 226.048511 170.941061 
L 226.048511 159.557778 
" style="fill:none;stroke:#ff7f0e;stroke-width:1.5;"/>
    <path clip-path="url(#pce562d7d44)" d="M 230.318483 193.811166 
L 230.318483 183.454455 
" style="fill:none;stroke:#ff7f0e;stroke-width:1.5;"/>
    <path clip-path="url(#pce562d7d44)" d="M 234.588456 193.344936 
L 234.588456 182.96626 
" style="fill:none;stroke:#ff7f0e;stroke-width:1.5;"/>
    <path clip-path="url(#pce562d7d44)" d="M 238.858428 219.180657 
L 238.858428 210.101078 
" style="fill:none;stroke:#ff7f0e;stroke-width:1.5;"/>
    <path clip-path="url(#pce562d7d44)" d="M 243.1284 227.306825 
L 243.1284 218.677332 
" style="fill:none;stroke:#ff7f0e;stroke-width:1.5;"/>
    <path clip-path="url(#pce562d7d44)" d="M 247.398373 247.447272 
L 247.398373 240.054334 
" style="fill:none;stroke:#ff7f0e;stroke-width:1.5;"/>
    <path clip-path="url(#pce562d7d44)" d="M 251.668345 256.669443 
L 251.668345 249.920645 
" style="fill:none;stroke:#ff7f0e;stroke-width:1.5;"/>
    <path clip-path="url(#pce562d7d44)" d="M 255.938318 273.630236 
L 255.938318 268.273544 
" style="fill:none;stroke:#ff7f0e;stroke-width:1.5;"/>
    <path clip-path="url(#pce562d7d44)" d="M 260.20829 281.805323 
L 260.20829 277.278092 
" style="fill:none;stroke:#ff7f0e;stroke-width:1.5;"/>
    <path clip-path="url(#pce562d7d44)" d="M 264.478263 284.737345 
L 264.478263 280.549826 
" style="fill:none;stroke:#ff7f0e;stroke-width:1.5;"/>
    <path clip-path="url(#pce562d7d44)" d="M 268.748235 289.662468 
L 268.748235 286.123369 
" style="fill:none;stroke:#ff7f0e;stroke-width:1.5;"/>
    <path clip-path="url(#pce562d7d44)" d="M 273.018208 296.02915 
L 273.018208 293.595836 
" style="fill:none;stroke:#ff7f0e;stroke-width:1.5;"/>
    <path clip-path="url(#pce562d7d44)" d="M 277.28818 296.458631 
L 277.28818 294.120779 
" style="fill:none;stroke:#ff7f0e;stroke-width:1.5;"/>
    <path clip-path="url(#pce562d7d44)" d="M 281.558153 297.098954 
L 281.558153 294.912093 
" style="fill:none;stroke:#ff7f0e;stroke-width:1.5;"/>
    <path clip-path="url(#pce562d7d44)" d="M 285.828125 296.244129 
L 285.828125 293.858069 
" style="fill:none;stroke:#ff7f0e;stroke-width:1.5;"/>
    <path clip-path="url(#pce562d7d44)" d="M 290.098097 294.730617 
L 290.098097 292.031098 
" style="fill:none;stroke:#ff7f0e;stroke-width:1.5;"/>
    <path clip-path="url(#pce562d7d44)" d="M 294.36807 292.761227 
L 294.36807 289.705579 
" style="fill:none;stroke:#ff7f0e;stroke-width:1.5;"/>
    <path clip-path="url(#pce562d7d44)" d="M 298.638042 288.771262 
L 298.638042 285.105727 
" style="fill:none;stroke:#ff7f0e;stroke-width:1.5;"/>
    <path clip-path="url(#pce562d7d44)" d="M 302.908015 283.385754 
L 302.908015 279.038145 
" style="fill:none;stroke:#ff7f0e;stroke-width:1.5;"/>
    <path clip-path="url(#pce562d7d44)" d="M 307.177987 264.481873 
L 307.177987 258.333425 
" style="fill:none;stroke:#ff7f0e;stroke-width:1.5;"/>
    <path clip-path="url(#pce562d7d44)" d="M 311.44796 256.669443 
L 311.44796 249.920645 
" style="fill:none;stroke:#ff7f0e;stroke-width:1.5;"/>
    <path clip-path="url(#pce562d7d44)" d="M 315.717932 227.770822 
L 315.717932 219.167759 
" style="fill:none;stroke:#ff7f0e;stroke-width:1.5;"/>
    <path clip-path="url(#pce562d7d44)" d="M 319.987905 194.976637 
L 319.987905 184.675044 
" style="fill:none;stroke:#ff7f0e;stroke-width:1.5;"/>
    <path clip-path="url(#pce562d7d44)" d="M 324.257877 169.072085 
L 324.257877 157.609058 
" style="fill:none;stroke:#ff7f0e;stroke-width:1.5;"/>
    <path clip-path="url(#pce562d7d44)" d="M 328.52785 139.134427 
L 328.52785 126.463571 
" style="fill:none;stroke:#ff7f0e;stroke-width:1.5;"/>
    <path clip-path="url(#pce562d7d44)" d="M 332.797822 100.935989 
L 332.797822 86.876444 
" style="fill:none;stroke:#ff7f0e;stroke-width:1.5;"/>
    <path clip-path="url(#pce562d7d44)" d="M 337.067794 80.521152 
L 337.067794 65.773832 
" style="fill:none;stroke:#ff7f0e;stroke-width:1.5;"/>
    <path clip-path="url(#pce562d7d44)" d="M 341.337767 60.090976 
L 341.337767 44.686559 
" style="fill:none;stroke:#ff7f0e;stroke-width:1.5;"/>
    <path clip-path="url(#pce562d7d44)" d="M 345.607739 38.942174 
L 345.607739 22.886275 
" style="fill:none;stroke:#ff7f0e;stroke-width:1.5;"/>
    <path clip-path="url(#pce562d7d44)" d="M 349.877712 43.64306 
L 349.877712 27.72963 
" style="fill:none;stroke:#ff7f0e;stroke-width:1.5;"/>
    <path clip-path="url(#pce562d7d44)" d="M 354.147684 37.296715 
L 354.147684 21.19125 
" style="fill:none;stroke:#ff7f0e;stroke-width:1.5;"/>
    <path clip-path="url(#pce562d7d44)" d="M 358.417657 48.343303 
L 358.417657 32.573629 
" style="fill:none;stroke:#ff7f0e;stroke-width:1.5;"/>
    <path clip-path="url(#pce562d7d44)" d="M 362.687629 88.501308 
L 362.687629 74.018886 
" style="fill:none;stroke:#ff7f0e;stroke-width:1.5;"/>
    <path clip-path="url(#pce562d7d44)" d="M 366.957602 107.502645 
L 366.957602 93.671726 
" style="fill:none;stroke:#ff7f0e;stroke-width:1.5;"/>
    <path clip-path="url(#pce562d7d44)" d="M 371.227574 150.835937 
L 371.227574 138.622664 
" style="fill:none;stroke:#ff7f0e;stroke-width:1.5;"/>
    <path clip-path="url(#pce562d7d44)" d="M 375.497546 171.641855 
L 375.497546 160.28862 
" style="fill:none;stroke:#ff7f0e;stroke-width:1.5;"/>
    <path clip-path="url(#pce562d7d44)" d="M 379.767519 216.624449 
L 379.767519 207.407953 
" style="fill:none;stroke:#ff7f0e;stroke-width:1.5;"/>
    <path clip-path="url(#pce562d7d44)" d="M 384.037491 225.218345 
L 384.037491 216.470903 
" style="fill:none;stroke:#ff7f0e;stroke-width:1.5;"/>
    <path clip-path="url(#pce562d7d44)" d="M 388.307464 257.129741 
L 388.307464 250.414772 
" style="fill:none;stroke:#ff7f0e;stroke-width:1.5;"/>
    <path clip-path="url(#pce562d7d44)" d="M 392.577436 272.946116 
L 392.577436 267.526029 
" style="fill:none;stroke:#ff7f0e;stroke-width:1.5;"/>
    <path clip-path="url(#pce562d7d44)" d="M 396.847409 281.353124 
L 396.847409 276.775867 
" style="fill:none;stroke:#ff7f0e;stroke-width:1.5;"/>
    <path clip-path="url(#pce562d7d44)" d="M 401.117381 290.773148 
L 401.117381 287.398749 
" style="fill:none;stroke:#ff7f0e;stroke-width:1.5;"/>
    <path clip-path="url(#pce562d7d44)" d="M 405.387354 294.947965 
L 405.387354 292.290961 
" style="fill:none;stroke:#ff7f0e;stroke-width:1.5;"/>
    <path clip-path="url(#pce562d7d44)" d="M 409.657326 297.733661 
L 409.657326 295.709022 
" style="fill:none;stroke:#ff7f0e;stroke-width:1.5;"/>
    <path clip-path="url(#pce562d7d44)" d="M 413.927299 298.774678 
L 413.927299 297.054065 
" style="fill:none;stroke:#ff7f0e;stroke-width:1.5;"/>
    <path clip-path="url(#pce562d7d44)" d="M 418.197271 299.9773 
L 418.197271 298.714716 
" style="fill:none;stroke:#ff7f0e;stroke-width:1.5;"/>
    <path clip-path="url(#pce562d7d44)" d="M 422.467243 300.356759 
L 422.467243 299.289681 
" style="fill:none;stroke:#ff7f0e;stroke-width:1.5;"/>
    <path clip-path="url(#pce562d7d44)" d="M 426.737216 300.71371 
L 426.737216 299.887154 
" style="fill:none;stroke:#ff7f0e;stroke-width:1.5;"/>
    <path clip-path="url(#pce562d7d44)" d="M 431.007188 300.876478 
L 431.007188 300.201598 
" style="fill:none;stroke:#ff7f0e;stroke-width:1.5;"/>
    <path clip-path="url(#pce562d7d44)" d="M 435.277161 301.01625 
L 435.277161 300.539038 
" style="fill:none;stroke:#ff7f0e;stroke-width:1.5;"/>
    <path clip-path="url(#pce562d7d44)" d="M 439.547133 301.01625 
L 439.547133 301.01625 
" style="fill:none;stroke:#ff7f0e;stroke-width:1.5;"/>
    <path clip-path="url(#pce562d7d44)" d="M 443.817106 301.01625 
L 443.817106 301.01625 
" style="fill:none;stroke:#ff7f0e;stroke-width:1.5;"/>
    <path clip-path="url(#pce562d7d44)" d="M 448.087078 301.01625 
L 448.087078 301.01625 
" style="fill:none;stroke:#ff7f0e;stroke-width:1.5;"/>
    <path clip-path="url(#pce562d7d44)" d="M 452.357051 301.01625 
L 452.357051 301.01625 
" style="fill:none;stroke:#ff7f0e;stroke-width:1.5;"/>
    <path clip-path="url(#pce562d7d44)" d="M 456.627023 301.01625 
L 456.627023 301.01625 
" style="fill:none;stroke:#ff7f0e;stroke-width:1.5;"/>
    <path clip-path="url(#pce562d7d44)" d="M 460.896996 301.01625 
L 460.896996 301.01625 
" style="fill:none;stroke:#ff7f0e;stroke-width:1.5;"/>
    <path clip-path="url(#pce562d7d44)" d="M 465.166968 301.01625 
L 465.166968 301.01625 
" style="fill:none;stroke:#ff7f0e;stroke-width:1.5;"/>
    <path clip-path="url(#pce562d7d44)" d="M 469.43694 301.01625 
L 469.43694 301.01625 
" style="fill:none;stroke:#ff7f0e;stroke-width:1.5;"/>
    <path clip-path="url(#pce562d7d44)" d="M 473.706913 301.01625 
L 473.706913 301.01625 
" style="fill:none;stroke:#ff7f0e;stroke-width:1.5;"/>
    <path clip-path="url(#pce562d7d44)" d="M 477.976885 301.01625 
L 477.976885 301.01625 
" style="fill:none;stroke:#ff7f0e;stroke-width:1.5;"/>
    <path clip-path="url(#pce562d7d44)" d="M 482.246858 301.01625 
L 482.246858 301.01625 
" style="fill:none;stroke:#ff7f0e;stroke-width:1.5;"/>
    <path clip-path="url(#pce562d7d44)" d="M 486.51683 301.01625 
L 486.51683 301.01625 
" style="fill:none;stroke:#ff7f0e;stroke-width:1.5;"/>
    <path clip-path="url(#pce562d7d44)" d="M 490.786803 301.01625 
L 490.786803 301.01625 
" style="fill:none;stroke:#ff7f0e;stroke-width:1.5;"/>
    <path clip-path="url(#pce562d7d44)" d="M 495.056775 301.01625 
L 495.056775 301.01625 
" style="fill:none;stroke:#ff7f0e;stroke-width:1.5;"/>
   </g>
   <g id="line2d_18">
    <path clip-path="url(#pce562d7d44)" d="M 74.464489 301.01625 
L 194.023717 301.01625 
L 194.023717 300.539038 
L 198.29369 300.539038 
L 198.29369 300.777644 
L 202.563662 300.777644 
L 202.563662 301.01625 
L 206.833635 301.01625 
L 206.833635 300.061826 
L 215.37358 300.061826 
L 215.37358 298.868796 
L 219.643552 298.868796 
L 219.643552 299.82322 
L 223.913524 299.82322 
L 223.913524 296.959948 
L 228.183497 296.959948 
L 228.183497 295.289705 
L 232.453469 295.289705 
L 232.453469 287.1771 
L 236.723442 287.1771 
L 236.723442 276.678435 
L 240.993414 276.678435 
L 240.993414 265.225346 
L 245.263387 265.225346 
L 245.263387 247.568499 
L 249.533359 247.568499 
L 249.533359 231.343289 
L 253.803332 231.343289 
L 253.803332 198.177051 
L 258.073304 198.177051 
L 258.073304 166.681055 
L 262.343277 166.681055 
L 262.343277 145.683725 
L 266.613249 145.683725 
L 266.613249 97.485307 
L 270.883221 97.485307 
L 270.883221 71.238644 
L 275.153194 71.238644 
L 275.153194 41.651496 
L 279.423166 41.651496 
L 279.423166 43.560344 
L 283.693139 43.560344 
L 283.693139 33.777497 
L 287.963111 33.777497 
L 287.963111 50.002707 
L 292.233084 50.002707 
L 292.233084 42.844526 
L 296.503056 42.844526 
L 296.503056 72.67028 
L 300.773029 72.67028 
L 300.773029 105.359306 
L 305.043001 105.359306 
L 305.043001 134.946454 
L 309.312973 134.946454 
L 309.312973 172.646206 
L 313.582946 172.646206 
L 313.582946 204.619414 
L 317.852918 204.619414 
L 317.852918 228.480017 
L 322.122891 228.480017 
L 322.122891 251.624802 
L 326.392863 251.624802 
L 326.392863 265.463952 
L 330.662836 265.463952 
L 330.662836 278.825889 
L 334.932808 278.825889 
L 334.932808 285.029646 
L 339.202781 285.029646 
L 339.202781 293.619463 
L 343.472753 293.619463 
L 343.472753 296.959948 
L 347.742726 296.959948 
L 347.742726 298.63019 
L 352.012698 298.63019 
L 352.012698 299.584614 
L 356.28267 299.584614 
L 356.28267 300.539038 
L 360.552643 300.539038 
L 360.552643 301.01625 
L 369.092588 301.01625 
L 369.092588 300.777644 
L 373.36256 300.777644 
L 373.36256 301.01625 
L 497.191761 301.01625 
L 497.191761 301.01625 
" style="fill:none;stroke:#1f77b4;stroke-linecap:square;stroke-width:1.5;"/>
   </g>
   <g id="line2d_19">
    <path clip-path="url(#pce562d7d44)" d="M 74.464489 301.01625 
L 129.974131 301.01625 
L 129.974131 300.777644 
L 134.244103 300.777644 
L 134.244103 301.01625 
L 142.784048 301.01625 
L 142.784048 300.777644 
L 147.05402 300.777644 
L 147.05402 300.539038 
L 155.593965 300.539038 
L 155.593965 300.061826 
L 159.863938 300.061826 
L 159.863938 297.675766 
L 164.13391 297.675766 
L 164.13391 297.914372 
L 168.403883 297.914372 
L 168.403883 295.528311 
L 172.673855 295.528311 
L 172.673855 293.858069 
L 176.943827 293.858069 
L 176.943827 287.654312 
L 181.2138 287.654312 
L 181.2138 277.155647 
L 185.483772 277.155647 
L 185.483772 269.281648 
L 189.753745 269.281648 
L 189.753745 255.442498 
L 194.023717 255.442498 
L 194.023717 237.547046 
L 198.29369 237.547046 
L 198.29369 225.616745 
L 202.563662 225.616745 
L 202.563662 220.367412 
L 206.833635 220.367412 
L 206.833635 194.120749 
L 211.103607 194.120749 
L 211.103607 181.713235 
L 215.37358 181.713235 
L 215.37358 178.611357 
L 219.643552 178.611357 
L 219.643552 189.110022 
L 223.913524 189.110022 
L 223.913524 165.249419 
L 228.183497 165.249419 
L 228.183497 188.63281 
L 232.453469 188.63281 
L 232.453469 188.155598 
L 236.723442 188.155598 
L 236.723442 214.640867 
L 240.993414 214.640867 
L 240.993414 222.992078 
L 245.263387 222.992078 
L 245.263387 243.750803 
L 249.533359 243.750803 
L 249.533359 253.295044 
L 253.803332 253.295044 
L 253.803332 270.95189 
L 258.073304 270.95189 
L 258.073304 279.541707 
L 262.343277 279.541707 
L 262.343277 282.643586 
L 266.613249 282.643586 
L 266.613249 287.892918 
L 270.883221 287.892918 
L 270.883221 294.812493 
L 275.153194 294.812493 
L 275.153194 295.289705 
L 279.423166 295.289705 
L 279.423166 296.005523 
L 283.693139 296.005523 
L 283.693139 295.051099 
L 287.963111 295.051099 
L 287.963111 293.380857 
L 292.233084 293.380857 
L 292.233084 291.233403 
L 296.503056 291.233403 
L 296.503056 286.938494 
L 300.773029 286.938494 
L 300.773029 281.21195 
L 305.043001 281.21195 
L 305.043001 261.407649 
L 309.312973 261.407649 
L 309.312973 253.295044 
L 313.582946 253.295044 
L 313.582946 223.46929 
L 317.852918 223.46929 
L 317.852918 189.82584 
L 322.122891 189.82584 
L 322.122891 163.340571 
L 326.392863 163.340571 
L 326.392863 132.798999 
L 330.662836 132.798999 
L 330.662836 93.906217 
L 334.932808 93.906217 
L 334.932808 73.147492 
L 339.202781 73.147492 
L 339.202781 52.388767 
L 343.472753 52.388767 
L 343.472753 30.914225 
L 347.742726 30.914225 
L 347.742726 35.686345 
L 352.012698 35.686345 
L 352.012698 29.243983 
L 356.28267 29.243983 
L 356.28267 40.458466 
L 360.552643 40.458466 
L 360.552643 81.260097 
L 364.822615 81.260097 
L 364.822615 100.587185 
L 369.092588 100.587185 
L 369.092588 144.729301 
L 373.36256 144.729301 
L 373.36256 165.965237 
L 377.632533 165.965237 
L 377.632533 212.016201 
L 381.902505 212.016201 
L 381.902505 220.844624 
L 386.172478 220.844624 
L 386.172478 253.772256 
L 390.44245 253.772256 
L 390.44245 270.236072 
L 394.712423 270.236072 
L 394.712423 279.064495 
L 398.982395 279.064495 
L 398.982395 289.085949 
L 403.252367 289.085949 
L 403.252367 293.619463 
L 407.52234 293.619463 
L 407.52234 296.721341 
L 411.792312 296.721341 
L 411.792312 297.914372 
L 416.062285 297.914372 
L 416.062285 299.346008 
L 420.332257 299.346008 
L 420.332257 299.82322 
L 424.60223 299.82322 
L 424.60223 300.300432 
L 428.872202 300.300432 
L 428.872202 300.539038 
L 433.142175 300.539038 
L 433.142175 300.777644 
L 437.412147 300.777644 
L 437.412147 301.01625 
L 497.191761 301.01625 
L 497.191761 301.01625 
" style="fill:none;stroke:#ff7f0e;stroke-linecap:square;stroke-width:1.5;"/>
   </g>
  </g>
 </g>
 <defs>
  <clipPath id="pce562d7d44">
   <rect height="307.8075" width="465" x="53.328125" y="7.2"/>
  </clipPath>
 </defs>
</svg>
