<?xml version="1.0" encoding="utf-8" standalone="no"?>
<!DOCTYPE svg PUBLIC "-//W3C//DTD SVG 1.1//EN"
  "http://www.w3.org/Graphics/SVG/1.1/DTD/svg11.dtd">
<!-- Created with matplotlib (https://matplotlib.org/) -->
<svg height="352.56375pt" version="1.1" viewBox="0 0 512.803125 352.56375" width="512.803125pt" xmlns="http://www.w3.org/2000/svg" xmlns:xlink="http://www.w3.org/1999/xlink">
 <defs>
  <style type="text/css">
*{stroke-linecap:butt;stroke-linejoin:round;}
  </style>
 </defs>
 <g id="figure_1">
  <g id="patch_1">
   <path d="M 0 352.56375 
L 512.803125 352.56375 
L 512.803125 0 
L 0 0 
z
" style="fill:#ffffff;"/>
  </g>
  <g id="axes_1">
   <g id="patch_2">
    <path d="M 40.603125 315.0075 
L 505.603125 315.0075 
L 505.603125 7.2 
L 40.603125 7.2 
z
" style="fill:#ffffff;"/>
   </g>
   <g id="matplotlib.axis_1">
    <g id="xtick_1">
     <g id="line2d_1">
      <defs>
       <path d="M 0 0 
L 0 3.5 
" id="m95110040d8" style="stroke:#000000;stroke-width:0.8;"/>
      </defs>
      <g>
       <use style="stroke:#000000;stroke-width:0.8;" x="61.739489" xlink:href="#m95110040d8" y="315.0075"/>
      </g>
     </g>
     <g id="text_1">
      <!-- site-0 -->
      <defs>
       <path d="M 44.28125 53.078125 
L 44.28125 44.578125 
Q 40.484375 46.53125 36.375 47.5 
Q 32.28125 48.484375 27.875 48.484375 
Q 21.1875 48.484375 17.84375 46.4375 
Q 14.5 44.390625 14.5 40.28125 
Q 14.5 37.15625 16.890625 35.375 
Q 19.28125 33.59375 26.515625 31.984375 
L 29.59375 31.296875 
Q 39.15625 29.25 43.1875 25.515625 
Q 47.21875 21.78125 47.21875 15.09375 
Q 47.21875 7.46875 41.1875 3.015625 
Q 35.15625 -1.421875 24.609375 -1.421875 
Q 20.21875 -1.421875 15.453125 -0.5625 
Q 10.6875 0.296875 5.421875 2 
L 5.421875 11.28125 
Q 10.40625 8.6875 15.234375 7.390625 
Q 20.0625 6.109375 24.8125 6.109375 
Q 31.15625 6.109375 34.5625 8.28125 
Q 37.984375 10.453125 37.984375 14.40625 
Q 37.984375 18.0625 35.515625 20.015625 
Q 33.0625 21.96875 24.703125 23.78125 
L 21.578125 24.515625 
Q 13.234375 26.265625 9.515625 29.90625 
Q 5.8125 33.546875 5.8125 39.890625 
Q 5.8125 47.609375 11.28125 51.796875 
Q 16.75 56 26.8125 56 
Q 31.78125 56 36.171875 55.265625 
Q 40.578125 54.546875 44.28125 53.078125 
z
" id="DejaVuSans-115"/>
       <path d="M 9.421875 54.6875 
L 18.40625 54.6875 
L 18.40625 0 
L 9.421875 0 
z
M 9.421875 75.984375 
L 18.40625 75.984375 
L 18.40625 64.59375 
L 9.421875 64.59375 
z
" id="DejaVuSans-105"/>
       <path d="M 18.3125 70.21875 
L 18.3125 54.6875 
L 36.8125 54.6875 
L 36.8125 47.703125 
L 18.3125 47.703125 
L 18.3125 18.015625 
Q 18.3125 11.328125 20.140625 9.421875 
Q 21.96875 7.515625 27.59375 7.515625 
L 36.8125 7.515625 
L 36.8125 0 
L 27.59375 0 
Q 17.1875 0 13.234375 3.875 
Q 9.28125 7.765625 9.28125 18.015625 
L 9.28125 47.703125 
L 2.6875 47.703125 
L 2.6875 54.6875 
L 9.28125 54.6875 
L 9.28125 70.21875 
z
" id="DejaVuSans-116"/>
       <path d="M 56.203125 29.59375 
L 56.203125 25.203125 
L 14.890625 25.203125 
Q 15.484375 15.921875 20.484375 11.0625 
Q 25.484375 6.203125 34.421875 6.203125 
Q 39.59375 6.203125 44.453125 7.46875 
Q 49.3125 8.734375 54.109375 11.28125 
L 54.109375 2.78125 
Q 49.265625 0.734375 44.1875 -0.34375 
Q 39.109375 -1.421875 33.890625 -1.421875 
Q 20.796875 -1.421875 13.15625 6.1875 
Q 5.515625 13.8125 5.515625 26.8125 
Q 5.515625 40.234375 12.765625 48.109375 
Q 20.015625 56 32.328125 56 
Q 43.359375 56 49.78125 48.890625 
Q 56.203125 41.796875 56.203125 29.59375 
z
M 47.21875 32.234375 
Q 47.125 39.59375 43.09375 43.984375 
Q 39.0625 48.390625 32.421875 48.390625 
Q 24.90625 48.390625 20.390625 44.140625 
Q 15.875 39.890625 15.1875 32.171875 
z
" id="DejaVuSans-101"/>
       <path d="M 4.890625 31.390625 
L 31.203125 31.390625 
L 31.203125 23.390625 
L 4.890625 23.390625 
z
" id="DejaVuSans-45"/>
       <path d="M 31.78125 66.40625 
Q 24.171875 66.40625 20.328125 58.90625 
Q 16.5 51.421875 16.5 36.375 
Q 16.5 21.390625 20.328125 13.890625 
Q 24.171875 6.390625 31.78125 6.390625 
Q 39.453125 6.390625 43.28125 13.890625 
Q 47.125 21.390625 47.125 36.375 
Q 47.125 51.421875 43.28125 58.90625 
Q 39.453125 66.40625 31.78125 66.40625 
z
M 31.78125 74.21875 
Q 44.046875 74.21875 50.515625 64.515625 
Q 56.984375 54.828125 56.984375 36.375 
Q 56.984375 17.96875 50.515625 8.265625 
Q 44.046875 -1.421875 31.78125 -1.421875 
Q 19.53125 -1.421875 13.0625 8.265625 
Q 6.59375 17.96875 6.59375 36.375 
Q 6.59375 54.828125 13.0625 64.515625 
Q 19.53125 74.21875 31.78125 74.21875 
z
" id="DejaVuSans-48"/>
      </defs>
      <g transform="translate(47.723864 329.605937)scale(0.1 -0.1)">
       <use xlink:href="#DejaVuSans-115"/>
       <use x="52.099609" xlink:href="#DejaVuSans-105"/>
       <use x="79.882812" xlink:href="#DejaVuSans-116"/>
       <use x="119.091797" xlink:href="#DejaVuSans-101"/>
       <use x="180.615234" xlink:href="#DejaVuSans-45"/>
       <use x="216.699219" xlink:href="#DejaVuSans-48"/>
      </g>
     </g>
    </g>
    <g id="xtick_2">
     <g id="line2d_2">
      <g>
       <use style="stroke:#000000;stroke-width:0.8;" x="113.502012" xlink:href="#m95110040d8" y="315.0075"/>
      </g>
     </g>
     <g id="text_2">
      <!-- site-6 -->
      <defs>
       <path d="M 33.015625 40.375 
Q 26.375 40.375 22.484375 35.828125 
Q 18.609375 31.296875 18.609375 23.390625 
Q 18.609375 15.53125 22.484375 10.953125 
Q 26.375 6.390625 33.015625 6.390625 
Q 39.65625 6.390625 43.53125 10.953125 
Q 47.40625 15.53125 47.40625 23.390625 
Q 47.40625 31.296875 43.53125 35.828125 
Q 39.65625 40.375 33.015625 40.375 
z
M 52.59375 71.296875 
L 52.59375 62.3125 
Q 48.875 64.0625 45.09375 64.984375 
Q 41.3125 65.921875 37.59375 65.921875 
Q 27.828125 65.921875 22.671875 59.328125 
Q 17.53125 52.734375 16.796875 39.40625 
Q 19.671875 43.65625 24.015625 45.921875 
Q 28.375 48.1875 33.59375 48.1875 
Q 44.578125 48.1875 50.953125 41.515625 
Q 57.328125 34.859375 57.328125 23.390625 
Q 57.328125 12.15625 50.6875 5.359375 
Q 44.046875 -1.421875 33.015625 -1.421875 
Q 20.359375 -1.421875 13.671875 8.265625 
Q 6.984375 17.96875 6.984375 36.375 
Q 6.984375 53.65625 15.1875 63.9375 
Q 23.390625 74.21875 37.203125 74.21875 
Q 40.921875 74.21875 44.703125 73.484375 
Q 48.484375 72.75 52.59375 71.296875 
z
" id="DejaVuSans-54"/>
      </defs>
      <g transform="translate(99.486387 329.605937)scale(0.1 -0.1)">
       <use xlink:href="#DejaVuSans-115"/>
       <use x="52.099609" xlink:href="#DejaVuSans-105"/>
       <use x="79.882812" xlink:href="#DejaVuSans-116"/>
       <use x="119.091797" xlink:href="#DejaVuSans-101"/>
       <use x="180.615234" xlink:href="#DejaVuSans-45"/>
       <use x="216.699219" xlink:href="#DejaVuSans-54"/>
      </g>
     </g>
    </g>
    <g id="xtick_3">
     <g id="line2d_3">
      <g>
       <use style="stroke:#000000;stroke-width:0.8;" x="165.264535" xlink:href="#m95110040d8" y="315.0075"/>
      </g>
     </g>
     <g id="text_3">
      <!-- site-12 -->
      <defs>
       <path d="M 12.40625 8.296875 
L 28.515625 8.296875 
L 28.515625 63.921875 
L 10.984375 60.40625 
L 10.984375 69.390625 
L 28.421875 72.90625 
L 38.28125 72.90625 
L 38.28125 8.296875 
L 54.390625 8.296875 
L 54.390625 0 
L 12.40625 0 
z
" id="DejaVuSans-49"/>
       <path d="M 19.1875 8.296875 
L 53.609375 8.296875 
L 53.609375 0 
L 7.328125 0 
L 7.328125 8.296875 
Q 12.9375 14.109375 22.625 23.890625 
Q 32.328125 33.6875 34.8125 36.53125 
Q 39.546875 41.84375 41.421875 45.53125 
Q 43.3125 49.21875 43.3125 52.78125 
Q 43.3125 58.59375 39.234375 62.25 
Q 35.15625 65.921875 28.609375 65.921875 
Q 23.96875 65.921875 18.8125 64.3125 
Q 13.671875 62.703125 7.8125 59.421875 
L 7.8125 69.390625 
Q 13.765625 71.78125 18.9375 73 
Q 24.125 74.21875 28.421875 74.21875 
Q 39.75 74.21875 46.484375 68.546875 
Q 53.21875 62.890625 53.21875 53.421875 
Q 53.21875 48.921875 51.53125 44.890625 
Q 49.859375 40.875 45.40625 35.40625 
Q 44.1875 33.984375 37.640625 27.21875 
Q 31.109375 20.453125 19.1875 8.296875 
z
" id="DejaVuSans-50"/>
      </defs>
      <g transform="translate(148.06766 329.605937)scale(0.1 -0.1)">
       <use xlink:href="#DejaVuSans-115"/>
       <use x="52.099609" xlink:href="#DejaVuSans-105"/>
       <use x="79.882812" xlink:href="#DejaVuSans-116"/>
       <use x="119.091797" xlink:href="#DejaVuSans-101"/>
       <use x="180.615234" xlink:href="#DejaVuSans-45"/>
       <use x="216.699219" xlink:href="#DejaVuSans-49"/>
       <use x="280.322266" xlink:href="#DejaVuSans-50"/>
      </g>
     </g>
    </g>
    <g id="xtick_4">
     <g id="line2d_4">
      <g>
       <use style="stroke:#000000;stroke-width:0.8;" x="217.027058" xlink:href="#m95110040d8" y="315.0075"/>
      </g>
     </g>
     <g id="text_4">
      <!-- site-18 -->
      <defs>
       <path d="M 31.78125 34.625 
Q 24.75 34.625 20.71875 30.859375 
Q 16.703125 27.09375 16.703125 20.515625 
Q 16.703125 13.921875 20.71875 10.15625 
Q 24.75 6.390625 31.78125 6.390625 
Q 38.8125 6.390625 42.859375 10.171875 
Q 46.921875 13.96875 46.921875 20.515625 
Q 46.921875 27.09375 42.890625 30.859375 
Q 38.875 34.625 31.78125 34.625 
z
M 21.921875 38.8125 
Q 15.578125 40.375 12.03125 44.71875 
Q 8.5 49.078125 8.5 55.328125 
Q 8.5 64.0625 14.71875 69.140625 
Q 20.953125 74.21875 31.78125 74.21875 
Q 42.671875 74.21875 48.875 69.140625 
Q 55.078125 64.0625 55.078125 55.328125 
Q 55.078125 49.078125 51.53125 44.71875 
Q 48 40.375 41.703125 38.8125 
Q 48.828125 37.15625 52.796875 32.3125 
Q 56.78125 27.484375 56.78125 20.515625 
Q 56.78125 9.90625 50.3125 4.234375 
Q 43.84375 -1.421875 31.78125 -1.421875 
Q 19.734375 -1.421875 13.25 4.234375 
Q 6.78125 9.90625 6.78125 20.515625 
Q 6.78125 27.484375 10.78125 32.3125 
Q 14.796875 37.15625 21.921875 38.8125 
z
M 18.3125 54.390625 
Q 18.3125 48.734375 21.84375 45.5625 
Q 25.390625 42.390625 31.78125 42.390625 
Q 38.140625 42.390625 41.71875 45.5625 
Q 45.3125 48.734375 45.3125 54.390625 
Q 45.3125 60.0625 41.71875 63.234375 
Q 38.140625 66.40625 31.78125 66.40625 
Q 25.390625 66.40625 21.84375 63.234375 
Q 18.3125 60.0625 18.3125 54.390625 
z
" id="DejaVuSans-56"/>
      </defs>
      <g transform="translate(199.830183 329.605937)scale(0.1 -0.1)">
       <use xlink:href="#DejaVuSans-115"/>
       <use x="52.099609" xlink:href="#DejaVuSans-105"/>
       <use x="79.882812" xlink:href="#DejaVuSans-116"/>
       <use x="119.091797" xlink:href="#DejaVuSans-101"/>
       <use x="180.615234" xlink:href="#DejaVuSans-45"/>
       <use x="216.699219" xlink:href="#DejaVuSans-49"/>
       <use x="280.322266" xlink:href="#DejaVuSans-56"/>
      </g>
     </g>
    </g>
    <g id="xtick_5">
     <g id="line2d_5">
      <g>
       <use style="stroke:#000000;stroke-width:0.8;" x="268.789581" xlink:href="#m95110040d8" y="315.0075"/>
      </g>
     </g>
     <g id="text_5">
      <!-- site-24 -->
      <defs>
       <path d="M 37.796875 64.3125 
L 12.890625 25.390625 
L 37.796875 25.390625 
z
M 35.203125 72.90625 
L 47.609375 72.90625 
L 47.609375 25.390625 
L 58.015625 25.390625 
L 58.015625 17.1875 
L 47.609375 17.1875 
L 47.609375 0 
L 37.796875 0 
L 37.796875 17.1875 
L 4.890625 17.1875 
L 4.890625 26.703125 
z
" id="DejaVuSans-52"/>
      </defs>
      <g transform="translate(251.592706 329.605937)scale(0.1 -0.1)">
       <use xlink:href="#DejaVuSans-115"/>
       <use x="52.099609" xlink:href="#DejaVuSans-105"/>
       <use x="79.882812" xlink:href="#DejaVuSans-116"/>
       <use x="119.091797" xlink:href="#DejaVuSans-101"/>
       <use x="180.615234" xlink:href="#DejaVuSans-45"/>
       <use x="216.699219" xlink:href="#DejaVuSans-50"/>
       <use x="280.322266" xlink:href="#DejaVuSans-52"/>
      </g>
     </g>
    </g>
    <g id="xtick_6">
     <g id="line2d_6">
      <g>
       <use style="stroke:#000000;stroke-width:0.8;" x="320.552105" xlink:href="#m95110040d8" y="315.0075"/>
      </g>
     </g>
     <g id="text_6">
      <!-- site-30 -->
      <defs>
       <path d="M 40.578125 39.3125 
Q 47.65625 37.796875 51.625 33 
Q 55.609375 28.21875 55.609375 21.1875 
Q 55.609375 10.40625 48.1875 4.484375 
Q 40.765625 -1.421875 27.09375 -1.421875 
Q 22.515625 -1.421875 17.65625 -0.515625 
Q 12.796875 0.390625 7.625 2.203125 
L 7.625 11.71875 
Q 11.71875 9.328125 16.59375 8.109375 
Q 21.484375 6.890625 26.8125 6.890625 
Q 36.078125 6.890625 40.9375 10.546875 
Q 45.796875 14.203125 45.796875 21.1875 
Q 45.796875 27.640625 41.28125 31.265625 
Q 36.765625 34.90625 28.71875 34.90625 
L 20.21875 34.90625 
L 20.21875 43.015625 
L 29.109375 43.015625 
Q 36.375 43.015625 40.234375 45.921875 
Q 44.09375 48.828125 44.09375 54.296875 
Q 44.09375 59.90625 40.109375 62.90625 
Q 36.140625 65.921875 28.71875 65.921875 
Q 24.65625 65.921875 20.015625 65.03125 
Q 15.375 64.15625 9.8125 62.3125 
L 9.8125 71.09375 
Q 15.4375 72.65625 20.34375 73.4375 
Q 25.25 74.21875 29.59375 74.21875 
Q 40.828125 74.21875 47.359375 69.109375 
Q 53.90625 64.015625 53.90625 55.328125 
Q 53.90625 49.265625 50.4375 45.09375 
Q 46.96875 40.921875 40.578125 39.3125 
z
" id="DejaVuSans-51"/>
      </defs>
      <g transform="translate(303.35523 329.605937)scale(0.1 -0.1)">
       <use xlink:href="#DejaVuSans-115"/>
       <use x="52.099609" xlink:href="#DejaVuSans-105"/>
       <use x="79.882812" xlink:href="#DejaVuSans-116"/>
       <use x="119.091797" xlink:href="#DejaVuSans-101"/>
       <use x="180.615234" xlink:href="#DejaVuSans-45"/>
       <use x="216.699219" xlink:href="#DejaVuSans-51"/>
       <use x="280.322266" xlink:href="#DejaVuSans-48"/>
      </g>
     </g>
    </g>
    <g id="xtick_7">
     <g id="line2d_7">
      <g>
       <use style="stroke:#000000;stroke-width:0.8;" x="372.314628" xlink:href="#m95110040d8" y="315.0075"/>
      </g>
     </g>
     <g id="text_7">
      <!-- site-36 -->
      <g transform="translate(355.117753 329.605937)scale(0.1 -0.1)">
       <use xlink:href="#DejaVuSans-115"/>
       <use x="52.099609" xlink:href="#DejaVuSans-105"/>
       <use x="79.882812" xlink:href="#DejaVuSans-116"/>
       <use x="119.091797" xlink:href="#DejaVuSans-101"/>
       <use x="180.615234" xlink:href="#DejaVuSans-45"/>
       <use x="216.699219" xlink:href="#DejaVuSans-51"/>
       <use x="280.322266" xlink:href="#DejaVuSans-54"/>
      </g>
     </g>
    </g>
    <g id="xtick_8">
     <g id="line2d_8">
      <g>
       <use style="stroke:#000000;stroke-width:0.8;" x="424.077151" xlink:href="#m95110040d8" y="315.0075"/>
      </g>
     </g>
     <g id="text_8">
      <!-- site-42 -->
      <g transform="translate(406.880276 329.605937)scale(0.1 -0.1)">
       <use xlink:href="#DejaVuSans-115"/>
       <use x="52.099609" xlink:href="#DejaVuSans-105"/>
       <use x="79.882812" xlink:href="#DejaVuSans-116"/>
       <use x="119.091797" xlink:href="#DejaVuSans-101"/>
       <use x="180.615234" xlink:href="#DejaVuSans-45"/>
       <use x="216.699219" xlink:href="#DejaVuSans-52"/>
       <use x="280.322266" xlink:href="#DejaVuSans-50"/>
      </g>
     </g>
    </g>
    <g id="xtick_9">
     <g id="line2d_9">
      <g>
       <use style="stroke:#000000;stroke-width:0.8;" x="475.839674" xlink:href="#m95110040d8" y="315.0075"/>
      </g>
     </g>
     <g id="text_9">
      <!-- site-48 -->
      <g transform="translate(458.642799 329.605937)scale(0.1 -0.1)">
       <use xlink:href="#DejaVuSans-115"/>
       <use x="52.099609" xlink:href="#DejaVuSans-105"/>
       <use x="79.882812" xlink:href="#DejaVuSans-116"/>
       <use x="119.091797" xlink:href="#DejaVuSans-101"/>
       <use x="180.615234" xlink:href="#DejaVuSans-45"/>
       <use x="216.699219" xlink:href="#DejaVuSans-52"/>
       <use x="280.322266" xlink:href="#DejaVuSans-56"/>
      </g>
     </g>
    </g>
    <g id="text_10">
     <!-- position [dimensionless] -->
     <defs>
      <path d="M 18.109375 8.203125 
L 18.109375 -20.796875 
L 9.078125 -20.796875 
L 9.078125 54.6875 
L 18.109375 54.6875 
L 18.109375 46.390625 
Q 20.953125 51.265625 25.265625 53.625 
Q 29.59375 56 35.59375 56 
Q 45.5625 56 51.78125 48.09375 
Q 58.015625 40.1875 58.015625 27.296875 
Q 58.015625 14.40625 51.78125 6.484375 
Q 45.5625 -1.421875 35.59375 -1.421875 
Q 29.59375 -1.421875 25.265625 0.953125 
Q 20.953125 3.328125 18.109375 8.203125 
z
M 48.6875 27.296875 
Q 48.6875 37.203125 44.609375 42.84375 
Q 40.53125 48.484375 33.40625 48.484375 
Q 26.265625 48.484375 22.1875 42.84375 
Q 18.109375 37.203125 18.109375 27.296875 
Q 18.109375 17.390625 22.1875 11.75 
Q 26.265625 6.109375 33.40625 6.109375 
Q 40.53125 6.109375 44.609375 11.75 
Q 48.6875 17.390625 48.6875 27.296875 
z
" id="DejaVuSans-112"/>
      <path d="M 30.609375 48.390625 
Q 23.390625 48.390625 19.1875 42.75 
Q 14.984375 37.109375 14.984375 27.296875 
Q 14.984375 17.484375 19.15625 11.84375 
Q 23.34375 6.203125 30.609375 6.203125 
Q 37.796875 6.203125 41.984375 11.859375 
Q 46.1875 17.53125 46.1875 27.296875 
Q 46.1875 37.015625 41.984375 42.703125 
Q 37.796875 48.390625 30.609375 48.390625 
z
M 30.609375 56 
Q 42.328125 56 49.015625 48.375 
Q 55.71875 40.765625 55.71875 27.296875 
Q 55.71875 13.875 49.015625 6.21875 
Q 42.328125 -1.421875 30.609375 -1.421875 
Q 18.84375 -1.421875 12.171875 6.21875 
Q 5.515625 13.875 5.515625 27.296875 
Q 5.515625 40.765625 12.171875 48.375 
Q 18.84375 56 30.609375 56 
z
" id="DejaVuSans-111"/>
      <path d="M 54.890625 33.015625 
L 54.890625 0 
L 45.90625 0 
L 45.90625 32.71875 
Q 45.90625 40.484375 42.875 44.328125 
Q 39.84375 48.1875 33.796875 48.1875 
Q 26.515625 48.1875 22.3125 43.546875 
Q 18.109375 38.921875 18.109375 30.90625 
L 18.109375 0 
L 9.078125 0 
L 9.078125 54.6875 
L 18.109375 54.6875 
L 18.109375 46.1875 
Q 21.34375 51.125 25.703125 53.5625 
Q 30.078125 56 35.796875 56 
Q 45.21875 56 50.046875 50.171875 
Q 54.890625 44.34375 54.890625 33.015625 
z
" id="DejaVuSans-110"/>
      <path id="DejaVuSans-32"/>
      <path d="M 8.59375 75.984375 
L 29.296875 75.984375 
L 29.296875 69 
L 17.578125 69 
L 17.578125 -6.203125 
L 29.296875 -6.203125 
L 29.296875 -13.1875 
L 8.59375 -13.1875 
z
" id="DejaVuSans-91"/>
      <path d="M 45.40625 46.390625 
L 45.40625 75.984375 
L 54.390625 75.984375 
L 54.390625 0 
L 45.40625 0 
L 45.40625 8.203125 
Q 42.578125 3.328125 38.25 0.953125 
Q 33.9375 -1.421875 27.875 -1.421875 
Q 17.96875 -1.421875 11.734375 6.484375 
Q 5.515625 14.40625 5.515625 27.296875 
Q 5.515625 40.1875 11.734375 48.09375 
Q 17.96875 56 27.875 56 
Q 33.9375 56 38.25 53.625 
Q 42.578125 51.265625 45.40625 46.390625 
z
M 14.796875 27.296875 
Q 14.796875 17.390625 18.875 11.75 
Q 22.953125 6.109375 30.078125 6.109375 
Q 37.203125 6.109375 41.296875 11.75 
Q 45.40625 17.390625 45.40625 27.296875 
Q 45.40625 37.203125 41.296875 42.84375 
Q 37.203125 48.484375 30.078125 48.484375 
Q 22.953125 48.484375 18.875 42.84375 
Q 14.796875 37.203125 14.796875 27.296875 
z
" id="DejaVuSans-100"/>
      <path d="M 52 44.1875 
Q 55.375 50.25 60.0625 53.125 
Q 64.75 56 71.09375 56 
Q 79.640625 56 84.28125 50.015625 
Q 88.921875 44.046875 88.921875 33.015625 
L 88.921875 0 
L 79.890625 0 
L 79.890625 32.71875 
Q 79.890625 40.578125 77.09375 44.375 
Q 74.3125 48.1875 68.609375 48.1875 
Q 61.625 48.1875 57.5625 43.546875 
Q 53.515625 38.921875 53.515625 30.90625 
L 53.515625 0 
L 44.484375 0 
L 44.484375 32.71875 
Q 44.484375 40.625 41.703125 44.40625 
Q 38.921875 48.1875 33.109375 48.1875 
Q 26.21875 48.1875 22.15625 43.53125 
Q 18.109375 38.875 18.109375 30.90625 
L 18.109375 0 
L 9.078125 0 
L 9.078125 54.6875 
L 18.109375 54.6875 
L 18.109375 46.1875 
Q 21.1875 51.21875 25.484375 53.609375 
Q 29.78125 56 35.6875 56 
Q 41.65625 56 45.828125 52.96875 
Q 50 49.953125 52 44.1875 
z
" id="DejaVuSans-109"/>
      <path d="M 9.421875 75.984375 
L 18.40625 75.984375 
L 18.40625 0 
L 9.421875 0 
z
" id="DejaVuSans-108"/>
      <path d="M 30.421875 75.984375 
L 30.421875 -13.1875 
L 9.71875 -13.1875 
L 9.71875 -6.203125 
L 21.390625 -6.203125 
L 21.390625 69 
L 9.71875 69 
L 9.71875 75.984375 
z
" id="DejaVuSans-93"/>
     </defs>
     <g transform="translate(212.232031 343.284062)scale(0.1 -0.1)">
      <use xlink:href="#DejaVuSans-112"/>
      <use x="63.476562" xlink:href="#DejaVuSans-111"/>
      <use x="124.658203" xlink:href="#DejaVuSans-115"/>
      <use x="176.757812" xlink:href="#DejaVuSans-105"/>
      <use x="204.541016" xlink:href="#DejaVuSans-116"/>
      <use x="243.75" xlink:href="#DejaVuSans-105"/>
      <use x="271.533203" xlink:href="#DejaVuSans-111"/>
      <use x="332.714844" xlink:href="#DejaVuSans-110"/>
      <use x="396.09375" xlink:href="#DejaVuSans-32"/>
      <use x="427.880859" xlink:href="#DejaVuSans-91"/>
      <use x="466.894531" xlink:href="#DejaVuSans-100"/>
      <use x="530.371094" xlink:href="#DejaVuSans-105"/>
      <use x="558.154297" xlink:href="#DejaVuSans-109"/>
      <use x="655.566406" xlink:href="#DejaVuSans-101"/>
      <use x="717.089844" xlink:href="#DejaVuSans-110"/>
      <use x="780.46875" xlink:href="#DejaVuSans-115"/>
      <use x="832.568359" xlink:href="#DejaVuSans-105"/>
      <use x="860.351562" xlink:href="#DejaVuSans-111"/>
      <use x="921.533203" xlink:href="#DejaVuSans-110"/>
      <use x="984.912109" xlink:href="#DejaVuSans-108"/>
      <use x="1012.695312" xlink:href="#DejaVuSans-101"/>
      <use x="1074.21875" xlink:href="#DejaVuSans-115"/>
      <use x="1126.318359" xlink:href="#DejaVuSans-115"/>
      <use x="1178.417969" xlink:href="#DejaVuSans-93"/>
     </g>
    </g>
   </g>
   <g id="matplotlib.axis_2">
    <g id="ytick_1">
     <g id="line2d_10">
      <defs>
       <path d="M 0 0 
L -3.5 0 
" id="m1928fd333e" style="stroke:#000000;stroke-width:0.8;"/>
      </defs>
      <g>
       <use style="stroke:#000000;stroke-width:0.8;" x="40.603125" xlink:href="#m1928fd333e" y="295.760992"/>
      </g>
     </g>
     <g id="text_11">
      <!-- 0 -->
      <g transform="translate(27.240625 299.560211)scale(0.1 -0.1)">
       <use xlink:href="#DejaVuSans-48"/>
      </g>
     </g>
    </g>
    <g id="ytick_2">
     <g id="line2d_11">
      <g>
       <use style="stroke:#000000;stroke-width:0.8;" x="40.603125" xlink:href="#m1928fd333e" y="253.627184"/>
      </g>
     </g>
     <g id="text_12">
      <!-- 2 -->
      <g transform="translate(27.240625 257.426403)scale(0.1 -0.1)">
       <use xlink:href="#DejaVuSans-50"/>
      </g>
     </g>
    </g>
    <g id="ytick_3">
     <g id="line2d_12">
      <g>
       <use style="stroke:#000000;stroke-width:0.8;" x="40.603125" xlink:href="#m1928fd333e" y="211.493376"/>
      </g>
     </g>
     <g id="text_13">
      <!-- 4 -->
      <g transform="translate(27.240625 215.292595)scale(0.1 -0.1)">
       <use xlink:href="#DejaVuSans-52"/>
      </g>
     </g>
    </g>
    <g id="ytick_4">
     <g id="line2d_13">
      <g>
       <use style="stroke:#000000;stroke-width:0.8;" x="40.603125" xlink:href="#m1928fd333e" y="169.359569"/>
      </g>
     </g>
     <g id="text_14">
      <!-- 6 -->
      <g transform="translate(27.240625 173.158787)scale(0.1 -0.1)">
       <use xlink:href="#DejaVuSans-54"/>
      </g>
     </g>
    </g>
    <g id="ytick_5">
     <g id="line2d_14">
      <g>
       <use style="stroke:#000000;stroke-width:0.8;" x="40.603125" xlink:href="#m1928fd333e" y="127.225761"/>
      </g>
     </g>
     <g id="text_15">
      <!-- 8 -->
      <g transform="translate(27.240625 131.02498)scale(0.1 -0.1)">
       <use xlink:href="#DejaVuSans-56"/>
      </g>
     </g>
    </g>
    <g id="ytick_6">
     <g id="line2d_15">
      <g>
       <use style="stroke:#000000;stroke-width:0.8;" x="40.603125" xlink:href="#m1928fd333e" y="85.091953"/>
      </g>
     </g>
     <g id="text_16">
      <!-- 10 -->
      <g transform="translate(20.878125 88.891172)scale(0.1 -0.1)">
       <use xlink:href="#DejaVuSans-49"/>
       <use x="63.623047" xlink:href="#DejaVuSans-48"/>
      </g>
     </g>
    </g>
    <g id="ytick_7">
     <g id="line2d_16">
      <g>
       <use style="stroke:#000000;stroke-width:0.8;" x="40.603125" xlink:href="#m1928fd333e" y="42.958145"/>
      </g>
     </g>
     <g id="text_17">
      <!-- 12 -->
      <g transform="translate(20.878125 46.757364)scale(0.1 -0.1)">
       <use xlink:href="#DejaVuSans-49"/>
       <use x="63.623047" xlink:href="#DejaVuSans-50"/>
      </g>
     </g>
    </g>
    <g id="text_18">
     <!--  [counts] -->
     <defs>
      <path d="M 48.78125 52.59375 
L 48.78125 44.1875 
Q 44.96875 46.296875 41.140625 47.34375 
Q 37.3125 48.390625 33.40625 48.390625 
Q 24.65625 48.390625 19.8125 42.84375 
Q 14.984375 37.3125 14.984375 27.296875 
Q 14.984375 17.28125 19.8125 11.734375 
Q 24.65625 6.203125 33.40625 6.203125 
Q 37.3125 6.203125 41.140625 7.25 
Q 44.96875 8.296875 48.78125 10.40625 
L 48.78125 2.09375 
Q 45.015625 0.34375 40.984375 -0.53125 
Q 36.96875 -1.421875 32.421875 -1.421875 
Q 20.0625 -1.421875 12.78125 6.34375 
Q 5.515625 14.109375 5.515625 27.296875 
Q 5.515625 40.671875 12.859375 48.328125 
Q 20.21875 56 33.015625 56 
Q 37.15625 56 41.109375 55.140625 
Q 45.0625 54.296875 48.78125 52.59375 
z
" id="DejaVuSans-99"/>
      <path d="M 8.5 21.578125 
L 8.5 54.6875 
L 17.484375 54.6875 
L 17.484375 21.921875 
Q 17.484375 14.15625 20.5 10.265625 
Q 23.53125 6.390625 29.59375 6.390625 
Q 36.859375 6.390625 41.078125 11.03125 
Q 45.3125 15.671875 45.3125 23.6875 
L 45.3125 54.6875 
L 54.296875 54.6875 
L 54.296875 0 
L 45.3125 0 
L 45.3125 8.40625 
Q 42.046875 3.421875 37.71875 1 
Q 33.40625 -1.421875 27.6875 -1.421875 
Q 18.265625 -1.421875 13.375 4.4375 
Q 8.5 10.296875 8.5 21.578125 
z
M 31.109375 56 
z
" id="DejaVuSans-117"/>
     </defs>
     <g transform="translate(14.798438 183.305312)rotate(-90)scale(0.1 -0.1)">
      <use xlink:href="#DejaVuSans-32"/>
      <use x="31.787109" xlink:href="#DejaVuSans-91"/>
      <use x="70.800781" xlink:href="#DejaVuSans-99"/>
      <use x="125.78125" xlink:href="#DejaVuSans-111"/>
      <use x="186.962891" xlink:href="#DejaVuSans-117"/>
      <use x="250.341797" xlink:href="#DejaVuSans-110"/>
      <use x="313.720703" xlink:href="#DejaVuSans-116"/>
      <use x="352.929688" xlink:href="#DejaVuSans-115"/>
      <use x="405.029297" xlink:href="#DejaVuSans-93"/>
     </g>
    </g>
   </g>
   <g id="patch_3">
    <path d="M 40.603125 315.0075 
L 40.603125 7.2 
" style="fill:none;stroke:#000000;stroke-linecap:square;stroke-linejoin:miter;stroke-width:0.8;"/>
   </g>
   <g id="patch_4">
    <path d="M 505.603125 315.0075 
L 505.603125 7.2 
" style="fill:none;stroke:#000000;stroke-linecap:square;stroke-linejoin:miter;stroke-width:0.8;"/>
   </g>
   <g id="patch_5">
    <path d="M 40.603125 315.0075 
L 505.603125 315.0075 
" style="fill:none;stroke:#000000;stroke-linecap:square;stroke-linejoin:miter;stroke-width:0.8;"/>
   </g>
   <g id="patch_6">
    <path d="M 40.603125 7.2 
L 505.603125 7.2 
" style="fill:none;stroke:#000000;stroke-linecap:square;stroke-linejoin:miter;stroke-width:0.8;"/>
   </g>
   <g id="LineCollection_1">
    <path clip-path="url(#p3030848f61)" d="M 61.739489 250.928337 
L 61.739489 164.886397 
" style="fill:none;stroke:#1f77b4;stroke-width:1.5;"/>
    <path clip-path="url(#p3030848f61)" d="M 70.366576 200.552095 
L 70.366576 87.469751 
" style="fill:none;stroke:#1f77b4;stroke-width:1.5;"/>
    <path clip-path="url(#p3030848f61)" d="M 78.993663 296.449366 
L 78.993663 295.024428 
" style="fill:none;stroke:#1f77b4;stroke-width:1.5;"/>
    <path clip-path="url(#p3030848f61)" d="M 87.62075 268.699408 
L 87.62075 195.438351 
" style="fill:none;stroke:#1f77b4;stroke-width:1.5;"/>
    <path clip-path="url(#p3030848f61)" d="M 96.247837 290.365116 
L 96.247837 239.323023 
" style="fill:none;stroke:#1f77b4;stroke-width:1.5;"/>
    <path clip-path="url(#p3030848f61)" d="M 104.874925 296.551923 
L 104.874925 256.064295 
" style="fill:none;stroke:#1f77b4;stroke-width:1.5;"/>
    <path clip-path="url(#p3030848f61)" d="M 113.502012 285.273249 
L 113.502012 227.770216 
" style="fill:none;stroke:#1f77b4;stroke-width:1.5;"/>
    <path clip-path="url(#p3030848f61)" d="M 122.129099 262.123869 
L 122.129099 183.800222 
" style="fill:none;stroke:#1f77b4;stroke-width:1.5;"/>
    <path clip-path="url(#p3030848f61)" d="M 130.756186 254.137584 
L 130.756186 170.211155 
" style="fill:none;stroke:#1f77b4;stroke-width:1.5;"/>
    <path clip-path="url(#p3030848f61)" d="M 139.383273 231.150384 
L 139.383273 133.347593 
" style="fill:none;stroke:#1f77b4;stroke-width:1.5;"/>
    <path clip-path="url(#p3030848f61)" d="M 148.010361 250.582572 
L 148.010361 164.316801 
" style="fill:none;stroke:#1f77b4;stroke-width:1.5;"/>
    <path clip-path="url(#p3030848f61)" d="M 156.637448 206.552656 
L 156.637448 96.260261 
" style="fill:none;stroke:#1f77b4;stroke-width:1.5;"/>
    <path clip-path="url(#p3030848f61)" d="M 165.264535 282.812125 
L 165.264535 222.566341 
" style="fill:none;stroke:#1f77b4;stroke-width:1.5;"/>
    <path clip-path="url(#p3030848f61)" d="M 173.891622 173.19649 
L 173.891622 48.341182 
" style="fill:none;stroke:#1f77b4;stroke-width:1.5;"/>
    <path clip-path="url(#p3030848f61)" d="M 182.518709 301.01625 
L 182.518709 278.966298 
" style="fill:none;stroke:#1f77b4;stroke-width:1.5;"/>
    <path clip-path="url(#p3030848f61)" d="M 191.145797 209.063596 
L 191.145797 99.964896 
" style="fill:none;stroke:#1f77b4;stroke-width:1.5;"/>
    <path clip-path="url(#p3030848f61)" d="M 199.772884 250.883345 
L 199.772884 164.812236 
" style="fill:none;stroke:#1f77b4;stroke-width:1.5;"/>
    <path clip-path="url(#p3030848f61)" d="M 208.399971 227.857384 
L 208.399971 128.267302 
" style="fill:none;stroke:#1f77b4;stroke-width:1.5;"/>
    <path clip-path="url(#p3030848f61)" d="M 217.027058 291.14693 
L 217.027058 241.224691 
" style="fill:none;stroke:#1f77b4;stroke-width:1.5;"/>
    <path clip-path="url(#p3030848f61)" d="M 225.654145 283.678499 
L 225.654145 224.375784 
" style="fill:none;stroke:#1f77b4;stroke-width:1.5;"/>
    <path clip-path="url(#p3030848f61)" d="M 234.281233 186.682828 
L 234.281233 67.454979 
" style="fill:none;stroke:#1f77b4;stroke-width:1.5;"/>
    <path clip-path="url(#p3030848f61)" d="M 242.90832 157.331934 
L 242.90832 26.224578 
" style="fill:none;stroke:#1f77b4;stroke-width:1.5;"/>
    <path clip-path="url(#p3030848f61)" d="M 251.535407 267.028626 
L 251.535407 192.435818 
" style="fill:none;stroke:#1f77b4;stroke-width:1.5;"/>
    <path clip-path="url(#p3030848f61)" d="M 260.162494 205.34134 
L 260.162494 94.478763 
" style="fill:none;stroke:#1f77b4;stroke-width:1.5;"/>
    <path clip-path="url(#p3030848f61)" d="M 268.789581 173.499121 
L 268.789581 48.766742 
" style="fill:none;stroke:#1f77b4;stroke-width:1.5;"/>
    <path clip-path="url(#p3030848f61)" d="M 277.416669 170.306125 
L 277.416669 44.284007 
" style="fill:none;stroke:#1f77b4;stroke-width:1.5;"/>
    <path clip-path="url(#p3030848f61)" d="M 286.043756 297.272586 
L 286.043756 258.417034 
" style="fill:none;stroke:#1f77b4;stroke-width:1.5;"/>
    <path clip-path="url(#p3030848f61)" d="M 294.670843 300.698873 
L 294.670843 274.367844 
" style="fill:none;stroke:#1f77b4;stroke-width:1.5;"/>
    <path clip-path="url(#p3030848f61)" d="M 303.29793 287.437159 
L 303.29793 232.528802 
" style="fill:none;stroke:#1f77b4;stroke-width:1.5;"/>
    <path clip-path="url(#p3030848f61)" d="M 311.925017 173.1921 
L 311.925017 48.33501 
" style="fill:none;stroke:#1f77b4;stroke-width:1.5;"/>
    <path clip-path="url(#p3030848f61)" d="M 320.552105 295.934402 
L 320.552105 254.150316 
" style="fill:none;stroke:#1f77b4;stroke-width:1.5;"/>
    <path clip-path="url(#p3030848f61)" d="M 329.179192 250.277851 
L 329.179192 163.815456 
" style="fill:none;stroke:#1f77b4;stroke-width:1.5;"/>
    <path clip-path="url(#p3030848f61)" d="M 337.806279 159.164951 
L 337.806279 28.761699 
" style="fill:none;stroke:#1f77b4;stroke-width:1.5;"/>
    <path clip-path="url(#p3030848f61)" d="M 346.433366 232.083839 
L 346.433366 134.795309 
" style="fill:none;stroke:#1f77b4;stroke-width:1.5;"/>
    <path clip-path="url(#p3030848f61)" d="M 355.060453 205.417356 
L 355.060453 94.590454 
" style="fill:none;stroke:#1f77b4;stroke-width:1.5;"/>
    <path clip-path="url(#p3030848f61)" d="M 363.687541 266.712252 
L 363.687541 191.870982 
" style="fill:none;stroke:#1f77b4;stroke-width:1.5;"/>
    <path clip-path="url(#p3030848f61)" d="M 372.314628 206.334239 
L 372.314628 95.938764 
" style="fill:none;stroke:#1f77b4;stroke-width:1.5;"/>
    <path clip-path="url(#p3030848f61)" d="M 380.941715 180.793255 
L 380.941715 59.069153 
" style="fill:none;stroke:#1f77b4;stroke-width:1.5;"/>
    <path clip-path="url(#p3030848f61)" d="M 389.568802 300.917437 
L 389.568802 282.899 
" style="fill:none;stroke:#1f77b4;stroke-width:1.5;"/>
    <path clip-path="url(#p3030848f61)" d="M 398.195889 195.428453 
L 398.195889 80.029167 
" style="fill:none;stroke:#1f77b4;stroke-width:1.5;"/>
    <path clip-path="url(#p3030848f61)" d="M 406.822977 153.685904 
L 406.822977 21.19125 
" style="fill:none;stroke:#1f77b4;stroke-width:1.5;"/>
    <path clip-path="url(#p3030848f61)" d="M 415.450064 195.769148 
L 415.450064 80.522157 
" style="fill:none;stroke:#1f77b4;stroke-width:1.5;"/>
    <path clip-path="url(#p3030848f61)" d="M 424.077151 271.959736 
L 424.077151 201.400515 
" style="fill:none;stroke:#1f77b4;stroke-width:1.5;"/>
    <path clip-path="url(#p3030848f61)" d="M 432.704238 188.669878 
L 432.704238 70.298671 
" style="fill:none;stroke:#1f77b4;stroke-width:1.5;"/>
    <path clip-path="url(#p3030848f61)" d="M 441.331325 295.418485 
L 441.331325 252.610452 
" style="fill:none;stroke:#1f77b4;stroke-width:1.5;"/>
    <path clip-path="url(#p3030848f61)" d="M 449.958413 245.988625 
L 449.958413 156.818762 
" style="fill:none;stroke:#1f77b4;stroke-width:1.5;"/>
    <path clip-path="url(#p3030848f61)" d="M 458.5855 167.849846 
L 458.5855 40.846255 
" style="fill:none;stroke:#1f77b4;stroke-width:1.5;"/>
    <path clip-path="url(#p3030848f61)" d="M 467.212587 270.004086 
L 467.212587 197.807078 
" style="fill:none;stroke:#1f77b4;stroke-width:1.5;"/>
    <path clip-path="url(#p3030848f61)" d="M 475.839674 270.873412 
L 475.839674 199.397864 
" style="fill:none;stroke:#1f77b4;stroke-width:1.5;"/>
    <path clip-path="url(#p3030848f61)" d="M 484.466761 292.390603 
L 484.466761 244.345392 
" style="fill:none;stroke:#1f77b4;stroke-width:1.5;"/>
   </g>
   <g id="line2d_17">
    <defs>
     <path d="M 0 3 
C 0.795609 3 1.55874 2.683901 2.12132 2.12132 
C 2.683901 1.55874 3 0.795609 3 0 
C 3 -0.795609 2.683901 -1.55874 2.12132 -2.12132 
C 1.55874 -2.683901 0.795609 -3 0 -3 
C -0.795609 -3 -1.55874 -2.683901 -2.12132 -2.12132 
C -2.683901 -1.55874 -3 -0.795609 -3 0 
C -3 0.795609 -2.683901 1.55874 -2.12132 2.12132 
C -1.55874 2.683901 -0.795609 3 0 3 
z
" id="m4f195efb78" style="stroke:#1f77b4;"/>
    </defs>
    <g clip-path="url(#p3030848f61)">
     <use style="fill:#1f77b4;stroke:#1f77b4;" x="61.739489" xlink:href="#m4f195efb78" y="207.907367"/>
     <use style="fill:#1f77b4;stroke:#1f77b4;" x="70.366576" xlink:href="#m4f195efb78" y="144.010923"/>
     <use style="fill:#1f77b4;stroke:#1f77b4;" x="78.993663" xlink:href="#m4f195efb78" y="295.736897"/>
     <use style="fill:#1f77b4;stroke:#1f77b4;" x="87.62075" xlink:href="#m4f195efb78" y="232.06888"/>
     <use style="fill:#1f77b4;stroke:#1f77b4;" x="96.247837" xlink:href="#m4f195efb78" y="264.84407"/>
     <use style="fill:#1f77b4;stroke:#1f77b4;" x="104.874925" xlink:href="#m4f195efb78" y="276.308109"/>
     <use style="fill:#1f77b4;stroke:#1f77b4;" x="113.502012" xlink:href="#m4f195efb78" y="256.521732"/>
     <use style="fill:#1f77b4;stroke:#1f77b4;" x="122.129099" xlink:href="#m4f195efb78" y="222.962046"/>
     <use style="fill:#1f77b4;stroke:#1f77b4;" x="130.756186" xlink:href="#m4f195efb78" y="212.17437"/>
     <use style="fill:#1f77b4;stroke:#1f77b4;" x="139.383273" xlink:href="#m4f195efb78" y="182.248989"/>
     <use style="fill:#1f77b4;stroke:#1f77b4;" x="148.010361" xlink:href="#m4f195efb78" y="207.449687"/>
     <use style="fill:#1f77b4;stroke:#1f77b4;" x="156.637448" xlink:href="#m4f195efb78" y="151.406458"/>
     <use style="fill:#1f77b4;stroke:#1f77b4;" x="165.264535" xlink:href="#m4f195efb78" y="252.689233"/>
     <use style="fill:#1f77b4;stroke:#1f77b4;" x="173.891622" xlink:href="#m4f195efb78" y="110.768836"/>
     <use style="fill:#1f77b4;stroke:#1f77b4;" x="182.518709" xlink:href="#m4f195efb78" y="289.991274"/>
     <use style="fill:#1f77b4;stroke:#1f77b4;" x="191.145797" xlink:href="#m4f195efb78" y="154.514246"/>
     <use style="fill:#1f77b4;stroke:#1f77b4;" x="199.772884" xlink:href="#m4f195efb78" y="207.84779"/>
     <use style="fill:#1f77b4;stroke:#1f77b4;" x="208.399971" xlink:href="#m4f195efb78" y="178.062343"/>
     <use style="fill:#1f77b4;stroke:#1f77b4;" x="217.027058" xlink:href="#m4f195efb78" y="266.185811"/>
     <use style="fill:#1f77b4;stroke:#1f77b4;" x="225.654145" xlink:href="#m4f195efb78" y="254.027142"/>
     <use style="fill:#1f77b4;stroke:#1f77b4;" x="234.281233" xlink:href="#m4f195efb78" y="127.068903"/>
     <use style="fill:#1f77b4;stroke:#1f77b4;" x="242.90832" xlink:href="#m4f195efb78" y="91.778256"/>
     <use style="fill:#1f77b4;stroke:#1f77b4;" x="251.535407" xlink:href="#m4f195efb78" y="229.732222"/>
     <use style="fill:#1f77b4;stroke:#1f77b4;" x="260.162494" xlink:href="#m4f195efb78" y="149.910052"/>
     <use style="fill:#1f77b4;stroke:#1f77b4;" x="268.789581" xlink:href="#m4f195efb78" y="111.132932"/>
     <use style="fill:#1f77b4;stroke:#1f77b4;" x="277.416669" xlink:href="#m4f195efb78" y="107.295066"/>
     <use style="fill:#1f77b4;stroke:#1f77b4;" x="286.043756" xlink:href="#m4f195efb78" y="277.84481"/>
     <use style="fill:#1f77b4;stroke:#1f77b4;" x="294.670843" xlink:href="#m4f195efb78" y="287.533358"/>
     <use style="fill:#1f77b4;stroke:#1f77b4;" x="303.29793" xlink:href="#m4f195efb78" y="259.982981"/>
     <use style="fill:#1f77b4;stroke:#1f77b4;" x="311.925017" xlink:href="#m4f195efb78" y="110.763555"/>
     <use style="fill:#1f77b4;stroke:#1f77b4;" x="320.552105" xlink:href="#m4f195efb78" y="275.042359"/>
     <use style="fill:#1f77b4;stroke:#1f77b4;" x="329.179192" xlink:href="#m4f195efb78" y="207.046653"/>
     <use style="fill:#1f77b4;stroke:#1f77b4;" x="337.806279" xlink:href="#m4f195efb78" y="93.963325"/>
     <use style="fill:#1f77b4;stroke:#1f77b4;" x="346.433366" xlink:href="#m4f195efb78" y="183.439574"/>
     <use style="fill:#1f77b4;stroke:#1f77b4;" x="355.060453" xlink:href="#m4f195efb78" y="150.003905"/>
     <use style="fill:#1f77b4;stroke:#1f77b4;" x="363.687541" xlink:href="#m4f195efb78" y="229.291617"/>
     <use style="fill:#1f77b4;stroke:#1f77b4;" x="372.314628" xlink:href="#m4f195efb78" y="151.136501"/>
     <use style="fill:#1f77b4;stroke:#1f77b4;" x="380.941715" xlink:href="#m4f195efb78" y="119.931204"/>
     <use style="fill:#1f77b4;stroke:#1f77b4;" x="389.568802" xlink:href="#m4f195efb78" y="291.908218"/>
     <use style="fill:#1f77b4;stroke:#1f77b4;" x="398.195889" xlink:href="#m4f195efb78" y="137.72881"/>
     <use style="fill:#1f77b4;stroke:#1f77b4;" x="406.822977" xlink:href="#m4f195efb78" y="87.438577"/>
     <use style="fill:#1f77b4;stroke:#1f77b4;" x="415.450064" xlink:href="#m4f195efb78" y="138.145653"/>
     <use style="fill:#1f77b4;stroke:#1f77b4;" x="424.077151" xlink:href="#m4f195efb78" y="236.680126"/>
     <use style="fill:#1f77b4;stroke:#1f77b4;" x="432.704238" xlink:href="#m4f195efb78" y="129.484274"/>
     <use style="fill:#1f77b4;stroke:#1f77b4;" x="441.331325" xlink:href="#m4f195efb78" y="274.014468"/>
     <use style="fill:#1f77b4;stroke:#1f77b4;" x="449.958413" xlink:href="#m4f195efb78" y="201.403693"/>
     <use style="fill:#1f77b4;stroke:#1f77b4;" x="458.5855" xlink:href="#m4f195efb78" y="104.348051"/>
     <use style="fill:#1f77b4;stroke:#1f77b4;" x="467.212587" xlink:href="#m4f195efb78" y="233.905582"/>
     <use style="fill:#1f77b4;stroke:#1f77b4;" x="475.839674" xlink:href="#m4f195efb78" y="235.135638"/>
     <use style="fill:#1f77b4;stroke:#1f77b4;" x="484.466761" xlink:href="#m4f195efb78" y="268.367998"/>
    </g>
   </g>
  </g>
 </g>
 <defs>
  <clipPath id="p3030848f61">
   <rect height="307.8075" width="465" x="40.603125" y="7.2"/>
  </clipPath>
 </defs>
</svg>
